<?xml version="1.0" encoding="utf-8"?>
<!-- Generator: Adobe Illustrator 26.0.1, SVG Export Plug-In . SVG Version: 6.00 Build 0)  -->
<svg version="1.1" id="Layer_1" xmlns="http://www.w3.org/2000/svg" xmlns:xlink="http://www.w3.org/1999/xlink" x="0px" y="0px"
	 viewBox="0 0 960 920" style="enable-background:new 0 0 960 920;" xml:space="preserve">
<style type="text/css">
	.st0{fill:#20232C;}
	.st1{fill:#E2E2E2;}
	.st2{fill:#E56C3D;}
	.st3{fill:#2B2D39;}
</style>
<rect class="st0" width="960" height="920"/>
<g>
	<path class="st1" d="M49.3,97c-2,0-3.7-0.6-4.8-1.7c-1.1-1.1-2-2.6-2-4.6c0-1.7,0.6-3.4,2-4.6c1.4-1.1,2.8-1.7,4.8-1.7
		s3.7,0.6,4.8,1.7c1.1,1.1,2,2.6,2,4.6c0,1.7-0.6,3.4-2,4.6C53,96.5,51.3,97,49.3,97z M43.9,146v-42.4h10.8V146H43.9z"/>
	<path class="st1" d="M73,146v-42.4h9.7l1.1,8c1.4-2.8,3.7-4.8,6.3-6.6c2.6-1.7,5.7-2.6,9.4-2.6v11.7h-3.1c-2.3,0-4.6,0.3-6.3,1.1
		c-2,0.9-3.4,2-4.3,3.7c-1.1,1.7-1.7,4.3-1.7,7.7V146H73z"/>
	<path class="st1" d="M115.7,146v-33.3H110v-9.1h5.7v-4.8c0-5.1,1.4-8.8,4-10.8c2.6-2.3,6-3.1,10.5-3.1h4.6v9.4h-2.8
		c-2,0-3.1,0.3-4,1.1c-0.9,0.9-1.1,2-1.1,3.7v4.8h9.1v9.1h-9.4v33.3h-10.8V146z"/>
	<path class="st1" d="M164.1,147.2c-3.7,0-6.6-0.6-8.8-1.7s-4-2.8-5.1-4.6c-1.1-2-1.7-4-1.7-6.3c0-4,1.4-7.1,4.6-9.7s7.7-3.7,14-3.7
		h10.8v-1.1c0-2.8-0.9-5.1-2.6-6.3c-1.7-1.4-3.7-2-6.3-2c-2.3,0-4.3,0.6-5.7,1.7c-1.4,1.1-2.6,2.6-3.1,4.6h-10.8
		c0.3-3.1,1.4-5.7,3.1-8c1.7-2.3,4-4,6.8-5.1c2.8-1.1,6-1.7,9.7-1.7c6,0,10.8,1.4,14.2,4.6c3.4,3.1,5.1,7.4,5.1,12.8v25.9h-9.4
		l-1.1-6.8c-1.1,2.3-3.1,4.3-5.1,5.7C170.7,146.3,167.8,147.2,164.1,147.2z M166.7,138.6c3.1,0,5.7-1.1,7.4-3.1
		c1.7-2,2.8-4.6,3.4-7.7h-9.4c-2.8,0-5.1,0.6-6.3,1.7c-1.1,1.1-2,2.3-2,4s0.6,2.8,2,4C163,138.1,164.7,138.6,166.7,138.6z"/>
	<path class="st1" d="M205.7,146v-42.4h9.7l0.9,7.1c1.4-2.6,3.1-4.6,5.7-6s5.4-2.3,8.8-2.3c5.1,0,9.4,1.7,12.2,4.8
		c2.8,3.4,4.3,8.3,4.3,14.5v23.9h-10.8V123c0-3.7-0.9-6.6-2.3-8.3c-1.4-2-3.7-2.8-6.8-2.8s-5.7,1.1-7.7,3.1c-2,2.3-2.8,5.1-2.8,9.1
		V146L205.7,146L205.7,146z"/>
	<path class="st2" d="M264.4,146V84.5h10.8V146H264.4z"/>
	<path class="st2" d="M314,147.2c-4.3,0-8-0.9-11.4-2.8c-3.4-1.7-6-4.3-7.7-7.7c-2-3.4-2.8-7.1-2.8-11.4c0-4.3,0.9-8.3,2.8-11.7
		c1.7-3.4,4.3-6,7.7-8c3.1-2,7.1-2.8,11.7-2.8c4.3,0,7.7,0.9,11.1,2.8c3.1,1.7,5.7,4.3,7.4,7.4c1.7,3.1,2.6,6.6,2.6,10.5
		c0,0.6,0,1.4,0,2c0,0.6,0,1.4,0,2.3h-32.2c0.3,3.4,1.4,6,3.4,7.7c2,2,4.6,2.8,7.7,2.8c2.3,0,4-0.6,5.7-1.4c1.4-0.9,2.6-2.3,3.4-4
		h11.1c-0.9,2.6-2,5.1-4,7.4c-2,2.3-4.3,4-6.8,5.1C320.5,146.6,317.4,147.2,314,147.2z M314.2,111.6c-2.6,0-5.1,0.9-7.1,2.3
		c-2,1.4-3.4,3.7-4,6.8h21.1c-0.3-2.8-1.1-5.1-3.1-6.6C319.1,112.7,316.8,111.6,314.2,111.6z"/>
	<path class="st2" d="M368.9,147.2c-3.7,0-7.1-0.6-10-1.7c-2.8-1.1-5.1-2.8-6.8-5.1c-1.7-2.3-2.8-4.6-3.1-7.4h11.1
		c0.3,1.7,1.1,3.1,2.8,4.3c1.4,1.1,3.4,1.7,6,1.7c2.6,0,4.3-0.6,5.1-1.4c1.1-0.9,1.7-2,1.7-3.4c0-1.7-0.9-3.1-2.3-3.7
		c-1.7-0.6-3.7-1.4-6.6-2c-1.7-0.3-3.7-0.9-5.7-1.4c-2-0.6-3.7-1.4-5.1-2.3c-1.7-0.9-2.8-2-3.7-3.4c-0.9-1.4-1.4-3.1-1.4-5.1
		c0-3.7,1.4-6.8,4.6-9.4c3.1-2.6,7.1-4,12.5-4c5.1,0,9.1,1.1,12,3.4c2.8,2.3,4.8,5.4,5.4,9.7h-10.3c-0.6-3.1-3.1-4.6-7.1-4.6
		c-2,0-3.7,0.3-4.8,1.1c-1.1,0.9-1.7,1.7-1.7,3.1c0,1.1,0.9,2.3,2.6,2.8c1.7,0.9,4,1.4,6.6,2c2.8,0.6,5.7,1.4,8.3,2.3s4.6,2,6,3.7
		c1.4,1.7,2.3,4,2.3,6.8c0,2.6-0.6,5.1-2,7.1c-1.4,2-3.4,3.7-6.3,4.8C375.8,146.6,372.6,147.2,368.9,147.2z"/>
	<path class="st2" d="M403.1,146v-42.4h9.7l0.9,7.1c1.4-2.6,3.1-4.6,5.7-6s5.4-2.3,8.8-2.3c5.1,0,9.4,1.7,12.2,4.8
		c2.8,3.4,4.3,8.3,4.3,14.5v23.9h-10.8V123c0-3.7-0.9-6.6-2.3-8.3c-1.4-2-3.7-2.8-6.8-2.8c-3.1,0-5.7,1.1-7.7,3.1
		c-2,2.3-2.8,5.1-2.8,9.1V146L403.1,146L403.1,146z"/>
	<path class="st2" d="M476.6,147.2c-3.7,0-6.6-0.6-8.8-1.7s-4-2.8-5.1-4.6c-1.1-2-1.7-4-1.7-6.3c0-4,1.4-7.1,4.6-9.7
		c3.1-2.6,7.7-3.7,14-3.7h10.8v-1.1c0-2.8-0.9-5.1-2.6-6.3c-1.7-1.4-3.7-2-6.3-2c-2.3,0-4.3,0.6-5.7,1.7c-1.4,1.1-2.6,2.6-3.1,4.6
		h-10.8c0.3-3.1,1.4-5.7,3.1-8c1.7-2.3,4-4,6.8-5.1c2.8-1.1,6-1.7,9.7-1.7c6,0,10.8,1.4,14.2,4.6c3.4,3.1,5.1,7.4,5.1,12.8v25.9
		h-9.4l-1.1-6.8c-1.1,2.3-3.1,4.3-5.1,5.7C482.9,146.3,480,147.2,476.6,147.2z M478.9,138.6c3.1,0,5.7-1.1,7.4-3.1s2.8-4.6,3.4-7.7
		h-9.4c-2.8,0-5.1,0.6-6.3,1.7c-1.1,1.1-2,2.3-2,4s0.6,2.8,2,4C475.2,138.1,476.9,138.6,478.9,138.6z"/>
	<path class="st2" d="M517.9,146v-42.4h9.7l1.1,8c1.4-2.8,3.7-4.8,6.3-6.6c2.6-1.7,5.7-2.6,9.4-2.6v11.7h-3.1
		c-2.3,0-4.6,0.3-6.3,1.1c-2,0.9-3.4,2-4.3,3.7c-1.1,1.7-1.7,4.3-1.7,7.7V146H517.9z"/>
</g>
<rect y="371" class="st3" width="336" height="115"/>
<circle class="st2" cx="118.9" cy="515.1" r="14.1"/>
<g>
	<path class="st2" d="M104.9,423.9v-77.1h19c6.6,0,11.3,1.3,14.3,4c2.9,2.7,4.5,7.1,4.7,13.2c0.1,3.1,0.1,6,0.1,8.6
		c0,2.6,0,5.3-0.1,8.2c-0.2,6.1-1.8,10.5-4.7,13.2c-2.9,2.7-7.7,4-14.3,4h-6.2v25.9H104.9z M117.6,386.8h6.2c2.1,0,3.7-0.4,4.7-1.3
		c1-0.9,1.5-2.2,1.6-4c0.1-1.8,0.2-3.7,0.2-5.8c0-2.1,0-4.1,0-6.2c0-2.1-0.1-4.1-0.2-6c-0.1-1.8-0.6-3.1-1.6-4
		c-1-0.9-2.6-1.3-4.6-1.3h-6.2V386.8z"/>
	<path class="st2" d="M154.8,423.9v-57.8h13.1v6.8h2.4c0.4-2.7,1.4-4.6,2.9-5.6c1.5-1,3.5-1.6,5.9-1.6c0.8,0,1.5,0,2.3,0.1
		c0.8,0.1,1.4,0.1,2,0.1v9.7h-4.1c-3.3,0-5.9,0.5-7.7,1.4c-1.9,0.9-3.1,2.6-3.6,4.9v41.9H154.8z"/>
	<path class="st2" d="M210.3,424.8c-4.6,0-8.2-0.6-10.9-1.8c-2.7-1.2-4.7-3.1-6-5.7c-1.3-2.6-2.1-6.1-2.3-10.4
		c-0.1-1.4-0.1-3.2-0.1-5.2c0-2.1,0-4.3,0-6.6c0-2.3,0-4.6,0-6.7c0-2.1,0.1-3.9,0.1-5.3c0.3-4.4,1-7.9,2.3-10.5
		c1.3-2.6,3.3-4.5,6-5.7c2.7-1.2,6.4-1.7,10.9-1.7c4.6,0,8.3,0.6,11,1.8c2.7,1.2,4.7,3.1,5.9,5.8c1.3,2.6,2,6,2.2,10.3
		c0.1,1.4,0.1,3.2,0.2,5.3c0,2.1,0.1,4.3,0.1,6.6c0,2.3,0,4.5-0.1,6.6c0,2.1-0.1,3.9-0.2,5.4c-0.3,4.3-1,7.8-2.3,10.4
		c-1.3,2.6-3.2,4.5-5.9,5.7C218.6,424.3,214.9,424.8,210.3,424.8z M210.3,415.3c2.3,0,3.9-0.4,4.8-1.3c0.9-0.9,1.5-2.2,1.5-3.9
		c0.1-2.9,0.2-5.5,0.2-8c0-2.5,0.1-4.9,0.1-7.3c0-2.4,0-4.7-0.1-7.2c0-2.4-0.1-5-0.2-7.7c-0.1-1.7-0.6-3-1.5-3.8
		c-0.9-0.9-2.6-1.3-4.8-1.3c-2.2,0-3.9,0.5-4.9,1.4c-1,0.9-1.5,2.2-1.6,3.8c-0.1,2.1-0.2,4.4-0.2,6.8c0,2.4,0,4.9,0,7.5
		c0,2.6,0,5.2,0.1,7.9c0,2.6,0.1,5.3,0.2,8c0.1,1.7,0.6,3,1.6,3.9C206.4,414.8,208.1,415.3,210.3,415.3z"/>
	<path class="st2" d="M254.4,424.8c-4.1,0-7.2-1.2-9.3-3.6c-2.1-2.4-3.3-6.3-3.6-11.7c-0.1-1.9-0.2-4.1-0.2-6.7c0-2.6,0-5.3,0-8
		c0-2.8,0-5.4,0.1-7.9c0-2.5,0.1-4.6,0.2-6.4c0.2-5.5,1.5-9.4,3.7-11.8c2.2-2.3,5.4-3.5,9.4-3.5c3.1,0,5.4,0.6,6.9,1.8
		c1.6,1.2,3,2.9,4.4,5.2h1.9v-25.3h13v77.1h-13v-6h-2c-1.3,2.2-2.8,3.9-4.4,5.1C259.7,424.2,257.4,424.8,254.4,424.8z M259.6,415.5
		c1.6,0,3.2-0.4,4.8-1.2c1.6-0.8,2.7-1.9,3.4-3.3v-31.9c-0.6-1.4-1.8-2.6-3.4-3.3c-1.6-0.8-3.2-1.2-4.8-1.2c-1.7,0-3,0.4-3.8,1.1
		c-0.8,0.8-1.3,1.9-1.3,3.4c-0.2,3.4-0.3,7-0.4,10.6c-0.1,3.7-0.1,7.3,0,10.8c0.1,3.6,0.2,6.9,0.3,10c0.1,1.7,0.5,3,1.3,3.8
		C256.6,415.1,257.8,415.5,259.6,415.5z"/>
	<path class="st2" d="M307.3,424.8c-4.1,0-7.3-1.2-9.7-3.6c-2.4-2.4-3.5-6.3-3.5-11.7v-43.5H307l0.1,44.5c0,1.7,0.4,2.9,1.2,3.7
		c0.8,0.8,2.1,1.2,3.9,1.2c1.6,0,3.3-0.4,4.9-1.2c1.6-0.8,2.7-1.9,3.4-3.3v-44.9h13v57.8h-13v-6h-1.8c-1.5,2.5-3.1,4.2-4.9,5.3
		C311.9,424.3,309.8,424.8,307.3,424.8z"/>
	<path class="st2" d="M370.8,387.8c0-0.7,0.1-1.6,0.1-2.7c0-1,0-2.1,0-3.1c0-1,0-1.9-0.1-2.6c-0.1-1.6-0.5-2.7-1.3-3.5
		c-0.8-0.8-2.3-1.2-4.4-1.2c-2.1,0-3.6,0.4-4.4,1.1c-0.8,0.7-1.3,1.9-1.3,3.6c-0.1,3-0.2,5.7-0.2,8.3c0,2.6,0,5,0,7.4
		c0,2.4,0,4.8,0,7.3c0,2.5,0.1,5.1,0.2,7.8c0.1,1.8,0.5,3.1,1.4,3.9c0.9,0.8,2.4,1.2,4.5,1.2c2.1,0,3.5-0.4,4.3-1.3
		c0.8-0.8,1.2-2.1,1.2-3.9c0.1-1.1,0.1-2.2,0.1-3.4s0-2.8-0.1-4.6h12.7c0.1,0.6,0.1,1.6,0.1,3c0,1.4,0,2.7,0,3.8
		c-0.3,5.7-1.8,9.8-4.6,12.3c-2.8,2.5-7.4,3.7-13.6,3.7c-6.6,0-11.3-1.3-14.2-3.8c-2.8-2.5-4.4-6.6-4.7-12.2
		c-0.1-1.7-0.2-3.8-0.2-6.3c0-2.5,0-5.1,0-7.8c0-2.7,0-5.3,0.1-7.6c0-2.4,0.1-4.3,0.2-5.7c0.4-5.8,2-10,4.9-12.5
		c2.9-2.5,7.5-3.7,13.8-3.7c6.4,0,11,1.2,13.8,3.7c2.8,2.4,4.4,6.5,4.6,12c0.1,1.1,0.1,2.4,0,3.9c0,1.5-0.1,2.5-0.1,3H370.8z"/>
	<path class="st2" d="M418,424.8c-7.1,0-12.2-1.2-15.2-3.7c-3-2.5-4.5-6.6-4.6-12.5l-0.1-32.9h-5.5v-9.6h5.8v-16.4h13v16.4H422v9.6
		h-11l0.1,34.4c0,2.1,0.5,3.4,1.5,4.1c1,0.7,2.8,1,5.3,1c0.9,0,1.7,0,2.5,0c0.8,0,1.7,0,2.6,0v9.2c-0.8,0.1-1.6,0.2-2.4,0.3
		C419.9,424.8,418.9,424.8,418,424.8z"/>
	<path class="st2" d="M449.6,424.8c-6.1,0-10.5-1.2-13.1-3.7c-2.6-2.5-4-6.6-4.3-12.3c0-1.3,0-2.5,0-3.5c0-1.1,0.1-1.9,0.1-2.5h11.4
		c-0.1,1.9-0.1,3.4-0.1,4.5c0,1.1,0,2.1,0.1,3c0.1,1.9,0.6,3.2,1.6,3.9c1,0.7,2.4,1.1,4.3,1.1c2.3,0,3.9-0.4,5-1.2
		c1-0.8,1.5-2.1,1.5-4c0-0.8,0-1.4,0-1.6c0-0.3,0-0.5,0-0.7s0-0.7,0-1.5c0-1.3-0.3-2.3-0.8-3.1c-0.5-0.8-1.5-1.4-3-1.8l-6.7-1.7
		c-3-0.8-5.5-1.8-7.5-3c-2-1.2-3.6-2.8-4.6-4.7c-1-1.9-1.6-4.3-1.6-7.1c0-0.6,0-1.2,0-1.8c0-0.5,0-1.1,0-1.6c0-5.8,1.4-9.9,4.2-12.5
		c2.7-2.5,7.5-3.8,14.2-3.8c6.1,0,10.5,1.2,13.1,3.7c2.6,2.4,4.1,6.5,4.3,12c0,0.7,0,1.7,0,3.2c0,1.4-0.1,2.4-0.2,3h-11.8
		c0-0.7,0.1-1.6,0.1-2.6c0-1,0-1.9,0-2.8c0-0.9,0-1.6-0.1-2.2c-0.1-1.7-0.5-2.9-1.3-3.6c-0.8-0.7-2.2-1.1-4.2-1.1
		c-2.1,0-3.5,0.4-4.4,1.1c-0.8,0.7-1.3,1.9-1.3,3.6c0,0.2,0,0.6,0,1.3c0,0.6,0,1.6,0,2.9c0,1.6,0.3,2.9,0.8,3.8
		c0.6,0.9,1.7,1.6,3.3,2l6,1.4c4.5,1,7.9,2.7,10.1,4.9c2.2,2.2,3.4,5.5,3.4,9.9c0,0.6,0,1.2,0,1.8c0,0.6,0,1.2,0,1.8
		c0,5.6-1.5,9.6-4.3,12C460.9,423.6,456.2,424.8,449.6,424.8z"/>
</g>
<g>
	<path class="st1" d="M166.3,525.8h-4.8v-22.9h13.1v4h-8.4v5.9h7.8v4h-7.8V525.8z"/>
	<path class="st1" d="M187.4,507.9c2.4,0,4.2,0.5,5.4,1.5s1.9,2.6,1.9,4.7v11.7h-3.3l-0.9-2.4h-0.1c-0.5,0.6-1,1.1-1.5,1.5
		c-0.5,0.4-1.1,0.7-1.8,0.9c-0.7,0.2-1.5,0.3-2.5,0.3c-1,0-2-0.2-2.8-0.6c-0.8-0.4-1.5-1-1.9-1.8c-0.5-0.8-0.7-1.9-0.7-3.1
		c0-1.9,0.7-3.2,2-4.1c1.3-0.9,3.3-1.4,5.9-1.5l3-0.1v-0.8c0-0.9-0.2-1.6-0.7-2c-0.5-0.4-1.2-0.6-2-0.6c-0.8,0-1.7,0.1-2.5,0.4
		c-0.8,0.2-1.6,0.5-2.4,0.9l-1.6-3.2c0.9-0.5,2-0.9,3.1-1.2C184.9,508,186.1,507.9,187.4,507.9z M189.9,517.6l-1.9,0.1
		c-1.5,0-2.6,0.3-3.2,0.8c-0.6,0.5-0.9,1.2-0.9,2c0,0.7,0.2,1.3,0.6,1.6c0.4,0.3,1,0.5,1.7,0.5c1,0,1.9-0.3,2.6-0.9
		c0.7-0.6,1.1-1.5,1.1-2.6V517.6z"/>
	<path class="st1" d="M208.1,526.1c-1.7,0-3.2-0.3-4.4-0.9c-1.2-0.6-2.2-1.6-2.8-2.9c-0.6-1.3-1-3-1-5.1c0-2.1,0.4-3.9,1.1-5.2
		c0.7-1.4,1.7-2.3,3-3c1.3-0.6,2.8-1,4.5-1c1.2,0,2.3,0.1,3.1,0.4c0.9,0.2,1.7,0.5,2.3,0.8l-1.4,3.7c-0.8-0.3-1.5-0.6-2.1-0.7
		c-0.6-0.2-1.3-0.3-1.9-0.3c-0.8,0-1.5,0.2-2.1,0.6c-0.6,0.4-1,1-1.2,1.8s-0.4,1.8-0.4,2.9c0,1.2,0.1,2.1,0.4,2.9
		c0.3,0.8,0.7,1.3,1.3,1.7s1.2,0.6,2,0.6c1,0,1.9-0.1,2.7-0.4c0.8-0.3,1.5-0.6,2.3-1.1v4.1c-0.7,0.5-1.5,0.8-2.3,1
		C210.4,526,209.4,526.1,208.1,526.1z"/>
	<path class="st1" d="M221.4,501.4c0.7,0,1.3,0.2,1.8,0.5c0.5,0.3,0.8,0.9,0.8,1.8c0,0.9-0.3,1.5-0.8,1.8s-1.1,0.5-1.8,0.5
		c-0.7,0-1.3-0.2-1.8-0.5c-0.5-0.3-0.8-1-0.8-1.8c0-0.9,0.3-1.5,0.8-1.8C220,501.5,220.7,501.4,221.4,501.4z M223.8,508.2v17.5H219
		v-17.5H223.8z"/>
	<path class="st1" d="M237.4,507.9c2.4,0,4.2,0.5,5.4,1.5s1.9,2.6,1.9,4.7v11.7h-3.3l-0.9-2.4h-0.1c-0.5,0.6-1,1.1-1.5,1.5
		c-0.5,0.4-1.1,0.7-1.8,0.9c-0.7,0.2-1.5,0.3-2.5,0.3c-1,0-2-0.2-2.8-0.6c-0.8-0.4-1.5-1-1.9-1.8c-0.5-0.8-0.7-1.9-0.7-3.1
		c0-1.9,0.7-3.2,2-4.1c1.3-0.9,3.3-1.4,5.9-1.5l3-0.1v-0.8c0-0.9-0.2-1.6-0.7-2c-0.5-0.4-1.2-0.6-2-0.6c-0.8,0-1.7,0.1-2.5,0.4
		c-0.8,0.2-1.6,0.5-2.4,0.9l-1.6-3.2c0.9-0.5,2-0.9,3.1-1.2C235,508,236.2,507.9,237.4,507.9z M239.9,517.6l-1.9,0.1
		c-1.5,0-2.6,0.3-3.2,0.8c-0.6,0.5-0.9,1.2-0.9,2c0,0.7,0.2,1.3,0.6,1.6c0.4,0.3,1,0.5,1.7,0.5c1,0,1.9-0.3,2.6-0.9
		c0.7-0.6,1.1-1.5,1.1-2.6V517.6z"/>
	<path class="st1" d="M255.9,525.8h-4.8v-24.4h4.8V525.8z"/>
	<path class="st1" d="M285.7,525.8h-13.2v-22.9h13.2v4h-8.3v5h7.8v4h-7.8v5.9h8.3V525.8z"/>
	<path class="st1" d="M298.7,526.1c-1.7,0-3.2-0.3-4.4-0.9c-1.2-0.6-2.2-1.6-2.8-2.9c-0.6-1.3-1-3-1-5.1c0-2.1,0.4-3.9,1.1-5.2
		c0.7-1.4,1.7-2.3,3-3c1.3-0.6,2.8-1,4.5-1c1.2,0,2.3,0.1,3.1,0.4c0.9,0.2,1.7,0.5,2.3,0.8l-1.4,3.7c-0.8-0.3-1.5-0.6-2.1-0.7
		c-0.6-0.2-1.3-0.3-1.9-0.3c-0.8,0-1.5,0.2-2.1,0.6c-0.6,0.4-1,1-1.2,1.8s-0.4,1.8-0.4,2.9c0,1.2,0.1,2.1,0.4,2.9
		c0.3,0.8,0.7,1.3,1.3,1.7s1.2,0.6,2,0.6c1,0,1.9-0.1,2.7-0.4c0.8-0.3,1.5-0.6,2.3-1.1v4.1c-0.7,0.5-1.5,0.8-2.3,1
		C300.9,526,299.9,526.1,298.7,526.1z"/>
	<path class="st1" d="M319.2,507.9c2,0,3.6,0.8,4.8,2.3c1.2,1.5,1.8,3.8,1.8,6.8c0,2-0.3,3.7-0.9,5c-0.6,1.4-1.4,2.4-2.4,3.1
		c-1,0.7-2.2,1-3.5,1c-0.8,0-1.6-0.1-2.2-0.3s-1.1-0.5-1.6-0.8s-0.8-0.7-1.1-1.1H314c0.1,0.4,0.1,0.8,0.2,1.3c0,0.4,0.1,0.9,0.1,1.3
		v7.1h-4.8v-25.2h3.9l0.7,2.3h0.2c0.3-0.5,0.7-0.9,1.1-1.3c0.4-0.4,1-0.7,1.6-0.9S318.4,507.9,319.2,507.9z M317.7,511.7
		c-0.8,0-1.5,0.2-2,0.5c-0.5,0.3-0.8,0.9-1.1,1.6c-0.2,0.7-0.3,1.6-0.4,2.6v0.5c0,1.1,0.1,2.1,0.3,2.9c0.2,0.8,0.6,1.4,1.1,1.8
		c0.5,0.4,1.2,0.6,2.1,0.6c0.7,0,1.3-0.2,1.8-0.6c0.5-0.4,0.8-1,1.1-1.8c0.2-0.8,0.4-1.8,0.4-2.9c0-1.7-0.3-3-0.8-3.9
		S318.8,511.7,317.7,511.7z"/>
	<path class="st1" d="M341,507.9c0.2,0,0.5,0,0.8,0s0.6,0.1,0.8,0.1l-0.4,4.5c-0.2-0.1-0.4-0.1-0.7-0.1c-0.3,0-0.5,0-0.7,0
		c-0.6,0-1.2,0.1-1.8,0.2c-0.6,0.2-1.1,0.4-1.6,0.8c-0.5,0.4-0.8,0.8-1.1,1.4s-0.4,1.3-0.4,2.1v8.9h-4.8v-17.5h3.6l0.7,2.9h0.2
		c0.3-0.6,0.8-1.1,1.3-1.6c0.5-0.5,1.1-0.9,1.8-1.2C339.6,508,340.3,507.9,341,507.9z"/>
	<path class="st1" d="M354.5,507.9c1.6,0,3,0.3,4.2,0.9c1.2,0.6,2.1,1.5,2.7,2.7c0.6,1.2,1,2.6,1,4.3v2.3h-11.3
		c0.1,1.3,0.5,2.4,1.2,3.2c0.8,0.8,1.8,1.2,3.2,1.2c1.1,0,2.1-0.1,3.1-0.3c0.9-0.2,1.9-0.6,2.9-1v3.7c-0.9,0.4-1.8,0.7-2.7,0.9
		c-0.9,0.2-2.1,0.3-3.4,0.3c-1.8,0-3.3-0.3-4.7-1c-1.4-0.6-2.4-1.6-3.2-3c-0.8-1.3-1.2-3-1.2-5c0-2,0.3-3.8,1-5.1
		c0.7-1.4,1.7-2.4,2.9-3.1C351.4,508.2,352.9,507.9,354.5,507.9z M354.6,511.3c-0.9,0-1.7,0.3-2.3,0.9c-0.6,0.6-1,1.5-1.1,2.8h6.7
		c0-0.7-0.1-1.3-0.4-1.9c-0.2-0.6-0.6-1-1.1-1.3C355.9,511.5,355.3,511.3,354.6,511.3z"/>
	<path class="st1" d="M379.9,520.5c0,1.2-0.3,2.2-0.8,3c-0.6,0.8-1.4,1.4-2.5,1.9c-1.1,0.4-2.5,0.6-4.1,0.6c-1.2,0-2.3-0.1-3.1-0.2
		c-0.9-0.2-1.8-0.4-2.6-0.8v-4c1,0.4,2,0.8,3.1,1.1c1.1,0.3,2.1,0.4,2.9,0.4c0.9,0,1.6-0.1,2-0.4c0.4-0.3,0.6-0.6,0.6-1.1
		c0-0.3-0.1-0.6-0.2-0.8s-0.5-0.5-1-0.8s-1.4-0.7-2.5-1.2c-1.1-0.5-2-0.9-2.7-1.4c-0.7-0.5-1.2-1-1.6-1.7c-0.3-0.6-0.5-1.5-0.5-2.5
		c0-1.6,0.6-2.8,1.9-3.7c1.3-0.8,2.9-1.2,5.1-1.2c1.1,0,2.1,0.1,3.1,0.3s2,0.6,3.1,1.1l-1.4,3.5c-0.9-0.4-1.7-0.7-2.5-0.9
		c-0.8-0.2-1.6-0.4-2.3-0.4c-0.7,0-1.2,0.1-1.6,0.3s-0.5,0.5-0.5,0.9c0,0.3,0.1,0.5,0.3,0.8c0.2,0.2,0.5,0.5,1.1,0.7s1.3,0.6,2.3,1
		c1,0.4,1.9,0.8,2.6,1.3s1.3,1,1.7,1.6C379.7,518.7,379.9,519.5,379.9,520.5z"/>
	<path class="st1" d="M397.4,520.5c0,1.2-0.3,2.2-0.8,3c-0.6,0.8-1.4,1.4-2.5,1.9c-1.1,0.4-2.5,0.6-4.1,0.6c-1.2,0-2.3-0.1-3.1-0.2
		c-0.9-0.2-1.8-0.4-2.6-0.8v-4c1,0.4,2,0.8,3.1,1.1c1.1,0.3,2.1,0.4,2.9,0.4c0.9,0,1.6-0.1,2-0.4c0.4-0.3,0.6-0.6,0.6-1.1
		c0-0.3-0.1-0.6-0.2-0.8s-0.5-0.5-1-0.8s-1.4-0.7-2.5-1.2c-1.1-0.5-2-0.9-2.7-1.4c-0.7-0.5-1.2-1-1.6-1.7c-0.3-0.6-0.5-1.5-0.5-2.5
		c0-1.6,0.6-2.8,1.9-3.7c1.3-0.8,2.9-1.2,5.1-1.2c1.1,0,2.1,0.1,3.1,0.3s2,0.6,3.1,1.1l-1.4,3.5c-0.9-0.4-1.7-0.7-2.5-0.9
		c-0.8-0.2-1.6-0.4-2.3-0.4c-0.7,0-1.2,0.1-1.6,0.3s-0.5,0.5-0.5,0.9c0,0.3,0.1,0.5,0.3,0.8c0.2,0.2,0.5,0.5,1.1,0.7s1.3,0.6,2.3,1
		c1,0.4,1.9,0.8,2.6,1.3s1.3,1,1.7,1.6C397.2,518.7,397.4,519.5,397.4,520.5z"/>
	<path class="st1" d="M404.9,501.4c0.7,0,1.3,0.2,1.8,0.5c0.5,0.3,0.8,0.9,0.8,1.8c0,0.9-0.3,1.5-0.8,1.8s-1.1,0.5-1.8,0.5
		c-0.7,0-1.3-0.2-1.8-0.5c-0.5-0.3-0.8-1-0.8-1.8c0-0.9,0.3-1.5,0.8-1.8C403.6,501.5,404.2,501.4,404.9,501.4z M407.3,508.2v17.5
		h-4.8v-17.5H407.3z"/>
	<path class="st1" d="M429.7,517c0,1.5-0.2,2.8-0.6,3.9c-0.4,1.1-1,2.1-1.7,2.9c-0.7,0.8-1.6,1.4-2.7,1.8c-1.1,0.4-2.2,0.6-3.6,0.6
		c-1.2,0-2.4-0.2-3.4-0.6c-1-0.4-1.9-1-2.7-1.8c-0.8-0.8-1.3-1.7-1.8-2.9c-0.4-1.1-0.6-2.4-0.6-3.9c0-1.9,0.3-3.6,1-4.9
		c0.7-1.3,1.7-2.4,2.9-3.1c1.3-0.7,2.8-1.1,4.6-1.1c1.6,0,3.1,0.4,4.4,1.1c1.3,0.7,2.3,1.7,3,3.1C429.4,513.4,429.7,515,429.7,517z
		 M417.6,517c0,1.2,0.1,2.1,0.4,2.9s0.6,1.4,1.2,1.8c0.5,0.4,1.2,0.6,2.1,0.6c0.8,0,1.5-0.2,2.1-0.6c0.5-0.4,0.9-1,1.2-1.8
		c0.2-0.8,0.4-1.8,0.4-2.9c0-1.2-0.1-2.1-0.4-2.9c-0.2-0.8-0.6-1.3-1.2-1.7c-0.5-0.4-1.2-0.6-2.1-0.6c-1.3,0-2.2,0.4-2.8,1.3
		C417.9,513.9,417.6,515.2,417.6,517z"/>
	<path class="st1" d="M445.1,507.9c1.9,0,3.4,0.5,4.5,1.5c1.1,1,1.7,2.7,1.7,4.9v11.4h-4.8v-10.2c0-1.3-0.2-2.2-0.7-2.8
		s-1.2-1-2.1-1c-1.5,0-2.5,0.5-3,1.5c-0.5,1-0.8,2.4-0.8,4.3v8.2h-4.8v-17.5h3.7l0.6,2.2h0.3c0.4-0.6,0.8-1.1,1.4-1.5
		c0.6-0.4,1.2-0.7,1.9-0.8C443.6,508,444.3,507.9,445.1,507.9z"/>
	<path class="st1" d="M475.2,502.8c3,0,5.1,0.6,6.5,1.9c1.4,1.3,2,3,2,5.2c0,1-0.2,2-0.5,2.9c-0.3,0.9-0.8,1.7-1.5,2.4
		c-0.7,0.7-1.6,1.3-2.7,1.7c-1.1,0.4-2.5,0.6-4.2,0.6h-2.1v8.2h-4.9v-22.9H475.2z M474.9,506.8h-2.2v6.8h1.6c0.9,0,1.7-0.1,2.4-0.4
		c0.7-0.2,1.2-0.6,1.6-1.1c0.4-0.5,0.5-1.2,0.5-2c0-1.1-0.3-2-0.9-2.5C477.2,507.1,476.2,506.8,474.9,506.8z"/>
	<path class="st1" d="M496.2,507.9c2.4,0,4.2,0.5,5.4,1.5s1.9,2.6,1.9,4.7v11.7h-3.3l-0.9-2.4h-0.1c-0.5,0.6-1,1.1-1.5,1.5
		c-0.5,0.4-1.1,0.7-1.8,0.9c-0.7,0.2-1.5,0.3-2.5,0.3c-1,0-2-0.2-2.8-0.6c-0.8-0.4-1.5-1-1.9-1.8c-0.5-0.8-0.7-1.9-0.7-3.1
		c0-1.9,0.7-3.2,2-4.1c1.3-0.9,3.3-1.4,5.9-1.5l3-0.1v-0.8c0-0.9-0.2-1.6-0.7-2c-0.5-0.4-1.2-0.6-2-0.6c-0.8,0-1.7,0.1-2.5,0.4
		c-0.8,0.2-1.6,0.5-2.4,0.9l-1.6-3.2c0.9-0.5,2-0.9,3.1-1.2C493.8,508,495,507.9,496.2,507.9z M498.8,517.6l-1.9,0.1
		c-1.5,0-2.6,0.3-3.2,0.8c-0.6,0.5-0.9,1.2-0.9,2c0,0.7,0.2,1.3,0.6,1.6c0.4,0.3,1,0.5,1.7,0.5c1,0,1.9-0.3,2.6-0.9
		c0.7-0.6,1.1-1.5,1.1-2.6V517.6z"/>
	<path class="st1" d="M517.3,522.3c0.5,0,1-0.1,1.5-0.2s1-0.2,1.5-0.4v3.6c-0.5,0.2-1.1,0.4-1.9,0.6s-1.6,0.2-2.5,0.2
		c-1,0-2-0.2-2.8-0.5c-0.8-0.3-1.5-0.9-2-1.8c-0.5-0.8-0.7-2-0.7-3.5v-8.5h-2.3v-2l2.6-1.6l1.4-3.7h3.1v3.7h4.9v3.6h-4.9v8.5
		c0,0.7,0.2,1.2,0.6,1.5C516.2,522.1,516.7,522.3,517.3,522.3z"/>
	<path class="st1" d="M532.4,526.1c-1.7,0-3.2-0.3-4.4-0.9c-1.2-0.6-2.2-1.6-2.8-2.9c-0.6-1.3-1-3-1-5.1c0-2.1,0.4-3.9,1.1-5.2
		c0.7-1.4,1.7-2.3,3-3c1.3-0.6,2.8-1,4.5-1c1.2,0,2.3,0.1,3.1,0.4c0.9,0.2,1.7,0.5,2.3,0.8l-1.4,3.7c-0.8-0.3-1.5-0.6-2.1-0.7
		c-0.6-0.2-1.3-0.3-1.9-0.3c-0.8,0-1.5,0.2-2.1,0.6c-0.6,0.4-1,1-1.2,1.8s-0.4,1.8-0.4,2.9c0,1.2,0.1,2.1,0.4,2.9
		c0.3,0.8,0.7,1.3,1.3,1.7s1.2,0.6,2,0.6c1,0,1.9-0.1,2.7-0.4c0.8-0.3,1.5-0.6,2.3-1.1v4.1c-0.7,0.5-1.5,0.8-2.3,1
		C534.7,526,533.6,526.1,532.4,526.1z"/>
	<path class="st1" d="M548,501.4v5c0,0.9,0,1.7-0.1,2.5c-0.1,0.8-0.1,1.3-0.1,1.7h0.3c0.4-0.6,0.8-1.1,1.3-1.5
		c0.5-0.4,1.1-0.7,1.7-0.8c0.6-0.2,1.3-0.3,2-0.3c1.3,0,2.4,0.2,3.3,0.7c0.9,0.4,1.7,1.1,2.2,2.1c0.5,0.9,0.8,2.2,0.8,3.7v11.4h-4.8
		v-10.2c0-1.3-0.2-2.2-0.7-2.8c-0.5-0.6-1.2-1-2.1-1s-1.7,0.2-2.3,0.7c-0.6,0.4-0.9,1.1-1.2,2c-0.2,0.9-0.3,1.9-0.3,3.2v8.2h-4.8
		v-24.4H548z"/>
</g>
<circle class="st2" cx="118.9" cy="575.9" r="14.1"/>
<g>
	<path class="st1" d="M175,580.2c0,1.4-0.3,2.5-1,3.5c-0.7,1-1.6,1.8-2.9,2.3c-1.3,0.5-2.8,0.8-4.6,0.8c-0.8,0-1.6-0.1-2.3-0.2
		c-0.8-0.1-1.5-0.3-2.2-0.5s-1.4-0.5-2-0.8V581c1.1,0.5,2.2,0.9,3.4,1.3s2.3,0.6,3.5,0.6c0.8,0,1.4-0.1,1.9-0.3
		c0.5-0.2,0.8-0.5,1.1-0.9c0.2-0.4,0.3-0.8,0.3-1.3c0-0.6-0.2-1.1-0.6-1.5c-0.4-0.4-0.9-0.8-1.6-1.1s-1.4-0.7-2.3-1.1
		c-0.5-0.3-1.1-0.6-1.7-0.9c-0.6-0.4-1.2-0.8-1.8-1.3c-0.6-0.5-1-1.2-1.4-1.9c-0.4-0.7-0.5-1.6-0.5-2.7c0-1.4,0.3-2.5,0.9-3.5
		c0.6-1,1.5-1.7,2.7-2.2c1.2-0.5,2.5-0.8,4.1-0.8c1.2,0,2.3,0.1,3.4,0.4c1.1,0.3,2.2,0.7,3.4,1.2l-1.6,3.8c-1.1-0.4-2-0.8-2.8-1
		c-0.8-0.2-1.7-0.4-2.6-0.4c-0.6,0-1.1,0.1-1.6,0.3s-0.8,0.5-1,0.8c-0.2,0.4-0.3,0.8-0.3,1.2c0,0.5,0.2,1,0.5,1.4s0.8,0.7,1.4,1.1
		s1.4,0.7,2.4,1.2c1.2,0.6,2.2,1.1,3,1.7c0.8,0.6,1.5,1.3,1.9,2.1C174.8,578,175,579,175,580.2z"/>
	<path class="st1" d="M190,568.7c2,0,3.6,0.8,4.8,2.3c1.2,1.5,1.8,3.8,1.8,6.8c0,2-0.3,3.7-0.9,5c-0.6,1.4-1.4,2.4-2.4,3.1
		c-1,0.7-2.2,1-3.5,1c-0.8,0-1.6-0.1-2.2-0.3s-1.1-0.5-1.6-0.8s-0.8-0.7-1.1-1.1h-0.3c0.1,0.4,0.1,0.8,0.2,1.3
		c0,0.4,0.1,0.9,0.1,1.3v7.1h-4.8V569h3.9l0.7,2.3h0.2c0.3-0.5,0.7-0.9,1.1-1.3c0.4-0.4,1-0.7,1.6-0.9
		C188.4,568.8,189.2,568.7,190,568.7z M188.5,572.5c-0.8,0-1.5,0.2-2,0.5c-0.5,0.3-0.8,0.9-1.1,1.6c-0.2,0.7-0.3,1.6-0.4,2.6v0.5
		c0,1.1,0.1,2.1,0.3,2.9s0.6,1.4,1.1,1.8c0.5,0.4,1.2,0.6,2.1,0.6c0.7,0,1.3-0.2,1.8-0.6c0.5-0.4,0.8-1,1.1-1.8
		c0.2-0.8,0.4-1.8,0.4-2.9c0-1.7-0.3-3-0.8-3.9C190.4,573,189.6,572.5,188.5,572.5z"/>
	<path class="st1" d="M209.2,568.7c2.4,0,4.2,0.5,5.4,1.5s1.9,2.6,1.9,4.7v11.7h-3.3l-0.9-2.4h-0.1c-0.5,0.6-1,1.1-1.5,1.5
		c-0.5,0.4-1.1,0.7-1.8,0.9s-1.5,0.3-2.5,0.3c-1,0-2-0.2-2.8-0.6c-0.8-0.4-1.5-1-1.9-1.8c-0.5-0.8-0.7-1.9-0.7-3.1
		c0-1.9,0.7-3.2,2-4.1c1.3-0.9,3.3-1.4,5.9-1.5l3-0.1v-0.8c0-0.9-0.2-1.6-0.7-2s-1.2-0.6-2-0.6c-0.8,0-1.7,0.1-2.5,0.4
		c-0.8,0.2-1.6,0.5-2.4,0.9l-1.6-3.2c0.9-0.5,2-0.9,3.1-1.2C206.8,568.8,208,568.7,209.2,568.7z M211.7,578.4l-1.9,0.1
		c-1.5,0-2.6,0.3-3.2,0.8c-0.6,0.5-0.9,1.2-0.9,2c0,0.7,0.2,1.3,0.6,1.6c0.4,0.3,1,0.5,1.7,0.5c1,0,1.9-0.3,2.6-0.9
		c0.7-0.6,1.1-1.5,1.1-2.6V578.4z"/>
	<path class="st1" d="M232.6,568.7c0.2,0,0.5,0,0.8,0c0.3,0,0.6,0.1,0.8,0.1l-0.4,4.5c-0.2-0.1-0.4-0.1-0.7-0.1s-0.5,0-0.7,0
		c-0.6,0-1.2,0.1-1.8,0.2c-0.6,0.2-1.1,0.4-1.6,0.8c-0.5,0.3-0.8,0.8-1.1,1.4c-0.3,0.6-0.4,1.3-0.4,2.1v8.9h-4.8V569h3.6l0.7,2.9
		h0.2c0.3-0.6,0.8-1.1,1.3-1.6c0.5-0.5,1.1-0.9,1.8-1.2C231.1,568.9,231.9,568.7,232.6,568.7z"/>
	<path class="st1" d="M243.7,562.2v10.9c0,0.7,0,1.3-0.1,2c-0.1,0.7-0.1,1.3-0.2,2h0.1c0.3-0.5,0.7-0.9,1-1.4
		c0.3-0.4,0.7-0.9,1.1-1.3l4.9-5.3h5.4l-7,7.6l7.4,9.9h-5.5l-5-7.1l-2.1,1.6v5.5h-4.8v-24.4H243.7z"/>
	<path class="st1" d="M284.4,586.6l-1.7-5.5h-8.4l-1.7,5.5h-5.2l8.1-23h5.9l8.1,23H284.4z M281.6,577l-1.7-5.3
		c-0.1-0.4-0.2-0.8-0.4-1.4c-0.2-0.6-0.3-1.1-0.5-1.7s-0.3-1.1-0.4-1.5c-0.1,0.4-0.2,1-0.4,1.6c-0.2,0.6-0.4,1.2-0.5,1.8
		c-0.2,0.6-0.3,1-0.4,1.2l-1.6,5.3H281.6z"/>
	<path class="st1" d="M300.7,563.6c2.1,0,3.8,0.3,5.2,0.8s2.4,1.3,3,2.3c0.7,1,1,2.3,1,3.8c0,1-0.2,2-0.6,2.7
		c-0.4,0.8-0.9,1.4-1.6,2c-0.6,0.5-1.3,1-2.1,1.3l6.7,10h-5.4l-5.5-8.8h-2.6v8.8H294v-22.9H300.7z M300.3,567.6h-1.5v6.2h1.6
		c1.6,0,2.8-0.3,3.5-0.8c0.7-0.5,1-1.3,1-2.4c0-1.1-0.4-1.9-1.1-2.3S301.9,567.6,300.3,567.6z"/>
	<path class="st1" d="M340.5,586.6l-1.7-5.5h-8.4l-1.7,5.5h-5.2l8.1-23h5.9l8.1,23H340.5z M337.7,577l-1.7-5.3
		c-0.1-0.4-0.2-0.8-0.4-1.4c-0.2-0.6-0.3-1.1-0.5-1.7s-0.3-1.1-0.4-1.5c-0.1,0.4-0.2,1-0.4,1.6c-0.2,0.6-0.4,1.2-0.5,1.8
		c-0.2,0.6-0.3,1-0.4,1.2l-1.6,5.3H337.7z"/>
	<path class="st1" d="M361.9,581.4c0,1.2-0.3,2.2-0.8,3c-0.6,0.8-1.4,1.4-2.5,1.9c-1.1,0.4-2.5,0.6-4.1,0.6c-1.2,0-2.3-0.1-3.1-0.2
		c-0.9-0.2-1.8-0.4-2.6-0.8v-4c1,0.4,2,0.8,3.1,1.1c1.1,0.3,2.1,0.4,2.9,0.4c0.9,0,1.6-0.1,2-0.4c0.4-0.3,0.6-0.6,0.6-1.1
		c0-0.3-0.1-0.6-0.2-0.8c-0.2-0.2-0.5-0.5-1-0.8c-0.5-0.3-1.4-0.7-2.5-1.2c-1.1-0.5-2-0.9-2.7-1.4c-0.7-0.5-1.2-1-1.6-1.7
		c-0.3-0.6-0.5-1.5-0.5-2.5c0-1.6,0.6-2.8,1.9-3.7c1.3-0.8,2.9-1.2,5.1-1.2c1.1,0,2.1,0.1,3.1,0.3c1,0.2,2,0.6,3.1,1.1l-1.4,3.5
		c-0.9-0.4-1.7-0.7-2.5-0.9c-0.8-0.2-1.6-0.4-2.3-0.4c-0.7,0-1.2,0.1-1.6,0.3c-0.4,0.2-0.5,0.5-0.5,0.9c0,0.3,0.1,0.5,0.3,0.8
		c0.2,0.2,0.5,0.5,1.1,0.7s1.3,0.6,2.3,1c1,0.4,1.9,0.8,2.6,1.3s1.3,1,1.7,1.6C361.7,579.5,361.9,580.3,361.9,581.4z"/>
	<path class="st1" d="M379.3,581.4c0,1.2-0.3,2.2-0.8,3c-0.6,0.8-1.4,1.4-2.5,1.9c-1.1,0.4-2.5,0.6-4.1,0.6c-1.2,0-2.3-0.1-3.1-0.2
		c-0.9-0.2-1.8-0.4-2.6-0.8v-4c1,0.4,2,0.8,3.1,1.1c1.1,0.3,2.1,0.4,2.9,0.4c0.9,0,1.6-0.1,2-0.4c0.4-0.3,0.6-0.6,0.6-1.1
		c0-0.3-0.1-0.6-0.2-0.8c-0.2-0.2-0.5-0.5-1-0.8c-0.5-0.3-1.4-0.7-2.5-1.2c-1.1-0.5-2-0.9-2.7-1.4c-0.7-0.5-1.2-1-1.6-1.7
		c-0.3-0.6-0.5-1.5-0.5-2.5c0-1.6,0.6-2.8,1.9-3.7c1.3-0.8,2.9-1.2,5.1-1.2c1.1,0,2.1,0.1,3.1,0.3c1,0.2,2,0.6,3.1,1.1l-1.4,3.5
		c-0.9-0.4-1.7-0.7-2.5-0.9c-0.8-0.2-1.6-0.4-2.3-0.4c-0.7,0-1.2,0.1-1.6,0.3c-0.4,0.2-0.5,0.5-0.5,0.9c0,0.3,0.1,0.5,0.3,0.8
		c0.2,0.2,0.5,0.5,1.1,0.7s1.3,0.6,2.3,1c1,0.4,1.9,0.8,2.6,1.3s1.3,1,1.7,1.6C379.1,579.5,379.3,580.3,379.3,581.4z"/>
	<path class="st1" d="M391.7,568.7c1.6,0,3,0.3,4.2,0.9s2.1,1.5,2.7,2.7s1,2.6,1,4.3v2.3h-11.3c0.1,1.3,0.5,2.4,1.2,3.2
		c0.8,0.8,1.8,1.2,3.2,1.2c1.1,0,2.1-0.1,3.1-0.3c0.9-0.2,1.9-0.6,2.9-1v3.7c-0.9,0.4-1.8,0.7-2.7,0.9c-0.9,0.2-2.1,0.3-3.4,0.3
		c-1.8,0-3.3-0.3-4.7-1c-1.4-0.6-2.4-1.6-3.2-3c-0.8-1.3-1.2-3-1.2-5c0-2,0.3-3.8,1-5.1c0.7-1.4,1.7-2.4,2.9-3.1
		S390.1,568.7,391.7,568.7z M391.8,572.1c-0.9,0-1.7,0.3-2.3,0.9c-0.6,0.6-1,1.5-1.1,2.8h6.7c0-0.7-0.1-1.3-0.4-1.9
		c-0.2-0.6-0.6-1-1.1-1.3S392.5,572.1,391.8,572.1z"/>
	<path class="st1" d="M412.3,583.1c0.5,0,1-0.1,1.5-0.2s1-0.2,1.5-0.4v3.6c-0.5,0.2-1.1,0.4-1.9,0.6s-1.6,0.2-2.5,0.2
		c-1,0-2-0.2-2.8-0.5c-0.8-0.3-1.5-0.9-2-1.8c-0.5-0.8-0.7-2-0.7-3.5v-8.5h-2.3v-2l2.6-1.6l1.4-3.7h3.1v3.7h4.9v3.6h-4.9v8.5
		c0,0.7,0.2,1.2,0.6,1.5C411.2,582.9,411.7,583.1,412.3,583.1z"/>
	<path class="st1" d="M437.3,568.7c2.4,0,4.2,0.5,5.4,1.5s1.9,2.6,1.9,4.7v11.7h-3.3l-0.9-2.4h-0.1c-0.5,0.6-1,1.1-1.5,1.5
		c-0.5,0.4-1.1,0.7-1.8,0.9s-1.5,0.3-2.5,0.3c-1,0-2-0.2-2.8-0.6c-0.8-0.4-1.5-1-1.9-1.8c-0.5-0.8-0.7-1.9-0.7-3.1
		c0-1.9,0.7-3.2,2-4.1c1.3-0.9,3.3-1.4,5.9-1.5l3-0.1v-0.8c0-0.9-0.2-1.6-0.7-2s-1.2-0.6-2-0.6c-0.8,0-1.7,0.1-2.5,0.4
		c-0.8,0.2-1.6,0.5-2.4,0.9l-1.6-3.2c0.9-0.5,2-0.9,3.1-1.2C434.8,568.8,436,568.7,437.3,568.7z M439.8,578.4l-1.9,0.1
		c-1.5,0-2.6,0.3-3.2,0.8c-0.6,0.5-0.9,1.2-0.9,2c0,0.7,0.2,1.3,0.6,1.6c0.4,0.3,1,0.5,1.7,0.5c1,0,1.9-0.3,2.6-0.9
		c0.7-0.6,1.1-1.5,1.1-2.6V578.4z"/>
	<path class="st1" d="M460.9,568.7c1.9,0,3.4,0.5,4.5,1.5s1.7,2.7,1.7,4.9v11.4h-4.8v-10.2c0-1.3-0.2-2.2-0.7-2.8s-1.2-1-2.1-1
		c-1.5,0-2.5,0.5-3,1.5s-0.8,2.4-0.8,4.3v8.2h-4.8V569h3.7l0.6,2.2h0.3c0.4-0.6,0.8-1.1,1.4-1.5c0.6-0.4,1.2-0.7,1.9-0.8
		S460.2,568.7,460.9,568.7z"/>
	<path class="st1" d="M479,586.9c-2,0-3.5-0.8-4.8-2.3c-1.2-1.5-1.8-3.8-1.8-6.8c0-3,0.6-5.3,1.9-6.8c1.2-1.5,2.9-2.3,4.9-2.3
		c0.8,0,1.6,0.1,2.2,0.3c0.6,0.2,1.2,0.5,1.7,0.9s0.9,0.8,1.2,1.3h0.2c-0.1-0.3-0.1-0.8-0.2-1.5s-0.1-1.3-0.1-2v-5.6h4.8v24.4h-3.7
		l-0.9-2.3H484c-0.3,0.5-0.7,0.9-1.1,1.3c-0.5,0.4-1,0.7-1.6,0.9S479.9,586.9,479,586.9z M480.7,583.1c1.3,0,2.2-0.4,2.8-1.2
		c0.5-0.8,0.8-2,0.9-3.5v-0.5c0-1.7-0.3-3-0.8-3.9c-0.5-0.9-1.5-1.4-2.9-1.4c-1.1,0-1.9,0.5-2.5,1.4c-0.6,0.9-0.9,2.2-0.9,3.9
		c0,1.7,0.3,3,0.9,3.9C478.8,582.6,479.6,583.1,480.7,583.1z"/>
	<path class="st1" d="M505,568.7c0.2,0,0.5,0,0.8,0c0.3,0,0.6,0.1,0.8,0.1l-0.4,4.5c-0.2-0.1-0.4-0.1-0.7-0.1s-0.5,0-0.7,0
		c-0.6,0-1.2,0.1-1.8,0.2c-0.6,0.2-1.1,0.4-1.6,0.8c-0.5,0.3-0.8,0.8-1.1,1.4c-0.3,0.6-0.4,1.3-0.4,2.1v8.9h-4.8V569h3.6l0.7,2.9
		h0.2c0.3-0.6,0.8-1.1,1.3-1.6c0.5-0.5,1.1-0.9,1.8-1.2C503.6,568.9,504.3,568.7,505,568.7z"/>
	<path class="st1" d="M527.2,577.8c0,1.5-0.2,2.8-0.6,3.9c-0.4,1.1-1,2.1-1.7,2.9c-0.7,0.8-1.6,1.4-2.7,1.8
		c-1.1,0.4-2.2,0.6-3.6,0.6c-1.2,0-2.4-0.2-3.4-0.6c-1-0.4-1.9-1-2.7-1.8c-0.8-0.8-1.3-1.7-1.8-2.9c-0.4-1.1-0.6-2.4-0.6-3.9
		c0-1.9,0.3-3.6,1-4.9c0.7-1.3,1.7-2.4,2.9-3.1c1.3-0.7,2.8-1.1,4.6-1.1c1.6,0,3.1,0.4,4.4,1.1c1.3,0.7,2.3,1.7,3,3.1
		C526.9,574.2,527.2,575.8,527.2,577.8z M515.1,577.8c0,1.2,0.1,2.1,0.4,2.9s0.6,1.4,1.2,1.8s1.2,0.6,2.1,0.6c0.8,0,1.5-0.2,2.1-0.6
		c0.5-0.4,0.9-1,1.2-1.8c0.2-0.8,0.4-1.8,0.4-2.9c0-1.2-0.1-2.1-0.4-2.9c-0.2-0.8-0.6-1.3-1.2-1.7s-1.2-0.6-2.1-0.6
		c-1.3,0-2.2,0.4-2.8,1.3C515.4,574.7,515.1,576,515.1,577.8z"/>
	<path class="st1" d="M535,562.2c0.7,0,1.3,0.2,1.8,0.5c0.5,0.3,0.8,0.9,0.8,1.8c0,0.9-0.3,1.5-0.8,1.8c-0.5,0.3-1.1,0.5-1.8,0.5
		c-0.7,0-1.3-0.2-1.8-0.5c-0.5-0.3-0.8-1-0.8-1.8c0-0.9,0.3-1.5,0.8-1.8C533.7,562.3,534.3,562.2,535,562.2z M537.4,569v17.5h-4.8
		V569H537.4z"/>
	<path class="st1" d="M549.4,586.9c-2,0-3.5-0.8-4.8-2.3c-1.2-1.5-1.8-3.8-1.8-6.8c0-3,0.6-5.3,1.9-6.8c1.2-1.5,2.9-2.3,4.9-2.3
		c0.8,0,1.6,0.1,2.2,0.3c0.6,0.2,1.2,0.5,1.7,0.9s0.9,0.8,1.2,1.3h0.2c-0.1-0.3-0.1-0.8-0.2-1.5s-0.1-1.3-0.1-2v-5.6h4.8v24.4h-3.7
		l-0.9-2.3h-0.2c-0.3,0.5-0.7,0.9-1.1,1.3c-0.5,0.4-1,0.7-1.6,0.9S550.3,586.9,549.4,586.9z M551.1,583.1c1.3,0,2.2-0.4,2.8-1.2
		c0.5-0.8,0.8-2,0.9-3.5v-0.5c0-1.7-0.3-3-0.8-3.9c-0.5-0.9-1.5-1.4-2.9-1.4c-1.1,0-1.9,0.5-2.5,1.4c-0.6,0.9-0.9,2.2-0.9,3.9
		c0,1.7,0.3,3,0.9,3.9C549.1,582.6,550,583.1,551.1,583.1z"/>
	<path class="st1" d="M582.6,568.7c2.4,0,4.2,0.5,5.4,1.5s1.9,2.6,1.9,4.7v11.7h-3.3l-0.9-2.4h-0.1c-0.5,0.6-1,1.1-1.5,1.5
		c-0.5,0.4-1.1,0.7-1.8,0.9s-1.5,0.3-2.5,0.3c-1,0-2-0.2-2.8-0.6c-0.8-0.4-1.5-1-1.9-1.8c-0.5-0.8-0.7-1.9-0.7-3.1
		c0-1.9,0.7-3.2,2-4.1c1.3-0.9,3.3-1.4,5.9-1.5l3-0.1v-0.8c0-0.9-0.2-1.6-0.7-2s-1.2-0.6-2-0.6c-0.8,0-1.7,0.1-2.5,0.4
		c-0.8,0.2-1.6,0.5-2.4,0.9l-1.6-3.2c0.9-0.5,2-0.9,3.1-1.2C580.2,568.8,581.4,568.7,582.6,568.7z M585.1,578.4l-1.9,0.1
		c-1.5,0-2.6,0.3-3.2,0.8c-0.6,0.5-0.9,1.2-0.9,2c0,0.7,0.2,1.3,0.6,1.6c0.4,0.3,1,0.5,1.7,0.5c1,0,1.9-0.3,2.6-0.9
		c0.7-0.6,1.1-1.5,1.1-2.6V578.4z"/>
	<path class="st1" d="M606,568.7c2,0,3.6,0.8,4.8,2.3c1.2,1.5,1.8,3.8,1.8,6.8c0,2-0.3,3.7-0.9,5c-0.6,1.4-1.4,2.4-2.4,3.1
		c-1,0.7-2.2,1-3.5,1c-0.8,0-1.6-0.1-2.2-0.3s-1.1-0.5-1.6-0.8s-0.8-0.7-1.1-1.1h-0.3c0.1,0.4,0.1,0.8,0.2,1.3
		c0,0.4,0.1,0.9,0.1,1.3v7.1h-4.8V569h3.9l0.7,2.3h0.2c0.3-0.5,0.7-0.9,1.1-1.3c0.4-0.4,1-0.7,1.6-0.9
		C604.4,568.8,605.2,568.7,606,568.7z M604.5,572.5c-0.8,0-1.5,0.2-2,0.5c-0.5,0.3-0.8,0.9-1.1,1.6c-0.2,0.7-0.3,1.6-0.4,2.6v0.5
		c0,1.1,0.1,2.1,0.3,2.9s0.6,1.4,1.1,1.8c0.5,0.4,1.2,0.6,2.1,0.6c0.7,0,1.3-0.2,1.8-0.6c0.5-0.4,0.8-1,1.1-1.8
		c0.2-0.8,0.4-1.8,0.4-2.9c0-1.7-0.3-3-0.8-3.9C606.4,573,605.6,572.5,604.5,572.5z"/>
	<path class="st1" d="M627.8,568.7c2,0,3.6,0.8,4.8,2.3c1.2,1.5,1.8,3.8,1.8,6.8c0,2-0.3,3.7-0.9,5c-0.6,1.4-1.4,2.4-2.4,3.1
		c-1,0.7-2.2,1-3.5,1c-0.8,0-1.6-0.1-2.2-0.3s-1.1-0.5-1.6-0.8s-0.8-0.7-1.1-1.1h-0.3c0.1,0.4,0.1,0.8,0.2,1.3
		c0,0.4,0.1,0.9,0.1,1.3v7.1H618V569h3.9l0.7,2.3h0.2c0.3-0.5,0.7-0.9,1.1-1.3c0.4-0.4,1-0.7,1.6-0.9
		C626.2,568.8,627,568.7,627.8,568.7z M626.3,572.5c-0.8,0-1.5,0.2-2,0.5c-0.5,0.3-0.8,0.9-1.1,1.6c-0.2,0.7-0.3,1.6-0.4,2.6v0.5
		c0,1.1,0.1,2.1,0.3,2.9s0.6,1.4,1.1,1.8c0.5,0.4,1.2,0.6,2.1,0.6c0.7,0,1.3-0.2,1.8-0.6c0.5-0.4,0.8-1,1.1-1.8
		c0.2-0.8,0.4-1.8,0.4-2.9c0-1.7-0.3-3-0.8-3.9C628.2,573,627.4,572.5,626.3,572.5z"/>
</g>
<circle class="st2" cx="118.9" cy="636.8" r="14.1"/>
<g>
	<path class="st1" d="M161.5,647.4v-22.9h4.9v18.9h9.3v4H161.5z"/>
	<path class="st1" d="M199.7,624.5v14.8c0,1.6-0.3,3-1,4.3c-0.7,1.3-1.7,2.3-3.2,3c-1.4,0.7-3.2,1.1-5.3,1.1c-3,0-5.3-0.8-6.9-2.3
		c-1.6-1.5-2.4-3.6-2.4-6.1v-14.8h4.8v14c0,1.9,0.4,3.2,1.2,4c0.8,0.8,1.9,1.1,3.4,1.1c1.1,0,1.9-0.2,2.6-0.5s1.2-0.9,1.5-1.7
		c0.3-0.8,0.5-1.7,0.5-2.9v-14H199.7z"/>
	<path class="st1" d="M215.6,647.4h-4.9v-18.9h-6.2v-4h17.3v4h-6.2V647.4z"/>
	<path class="st1" d="M241.4,655.1c-2.4,0-4.3-0.4-5.6-1.3s-1.9-2-1.9-3.6c0-1.1,0.3-1.9,1-2.7s1.6-1.2,2.9-1.5
		c-0.5-0.2-0.9-0.6-1.3-1c-0.4-0.5-0.5-1-0.5-1.5c0-0.7,0.2-1.2,0.6-1.7s0.9-0.9,1.7-1.3c-0.9-0.4-1.6-1-2.2-1.9
		c-0.5-0.9-0.8-1.9-0.8-3.1c0-1.3,0.3-2.4,0.8-3.3c0.6-0.9,1.4-1.6,2.4-2s2.4-0.7,3.9-0.7c0.3,0,0.7,0,1.1,0.1
		c0.4,0,0.8,0.1,1.2,0.1c0.4,0.1,0.6,0.1,0.7,0.1h6.1v2.4l-2.7,0.7c0.3,0.4,0.4,0.8,0.6,1.2c0.1,0.4,0.2,0.9,0.2,1.4
		c0,1.9-0.7,3.3-2,4.4c-1.3,1.1-3.1,1.6-5.5,1.6c-0.6,0-1.1-0.1-1.6-0.1c-0.2,0.2-0.4,0.4-0.5,0.6c-0.1,0.2-0.2,0.4-0.2,0.7
		c0,0.2,0.1,0.4,0.3,0.6s0.5,0.3,0.9,0.3s0.9,0.1,1.5,0.1h3c1.9,0,3.4,0.4,4.4,1.2c1,0.8,1.5,2,1.5,3.6c0,2-0.9,3.6-2.6,4.8
		C247,654.5,244.6,655.1,241.4,655.1z M241.6,652c1.1,0,2.1-0.1,2.9-0.3c0.8-0.2,1.5-0.5,1.9-0.9c0.4-0.4,0.7-0.9,0.7-1.4
		c0-0.4-0.1-0.8-0.4-1c-0.3-0.3-0.6-0.4-1.2-0.5s-1.2-0.2-2-0.2h-2.5c-0.6,0-1.1,0.1-1.6,0.3c-0.5,0.2-0.8,0.5-1.1,0.8
		c-0.3,0.3-0.4,0.7-0.4,1.2c0,0.7,0.3,1.2,0.9,1.6C239.6,651.8,240.4,652,241.6,652z M242.3,638.7c0.9,0,1.6-0.3,2-0.8
		c0.4-0.6,0.6-1.3,0.6-2.3c0-1.1-0.2-1.8-0.7-2.4c-0.4-0.5-1.1-0.8-2-0.8c-0.9,0-1.5,0.3-2,0.8c-0.4,0.5-0.7,1.3-0.7,2.4
		c0,1,0.2,1.7,0.7,2.3C240.8,638.4,241.5,638.7,242.3,638.7z"/>
	<path class="st1" d="M263.1,629.5c1.6,0,3,0.3,4.2,0.9s2.1,1.5,2.7,2.7s1,2.6,1,4.3v2.3h-11.3c0.1,1.3,0.5,2.4,1.2,3.2
		c0.8,0.8,1.8,1.2,3.2,1.2c1.1,0,2.1-0.1,3.1-0.3c0.9-0.2,1.9-0.6,2.9-1v3.7c-0.9,0.4-1.8,0.7-2.7,0.9c-0.9,0.2-2.1,0.3-3.4,0.3
		c-1.8,0-3.3-0.3-4.7-1c-1.4-0.6-2.4-1.6-3.2-3c-0.8-1.3-1.2-3-1.2-5c0-2,0.3-3.8,1-5.1c0.7-1.4,1.7-2.4,2.9-3.1
		S261.4,629.5,263.1,629.5z M263.1,632.9c-0.9,0-1.7,0.3-2.3,0.9c-0.6,0.6-1,1.5-1.1,2.8h6.7c0-0.7-0.1-1.3-0.4-1.9
		c-0.2-0.6-0.6-1-1.1-1.3S263.8,632.9,263.1,632.9z"/>
	<path class="st1" d="M286.2,629.5c1.9,0,3.4,0.5,4.5,1.5s1.7,2.7,1.7,4.9v11.4h-4.8v-10.2c0-1.3-0.2-2.2-0.7-2.8s-1.2-1-2.1-1
		c-1.5,0-2.5,0.5-3,1.5s-0.8,2.4-0.8,4.3v8.2h-4.8v-17.5h3.7l0.6,2.2h0.3c0.4-0.6,0.8-1.1,1.4-1.5c0.6-0.4,1.2-0.7,1.9-0.8
		S285.5,629.5,286.2,629.5z"/>
	<path class="st1" d="M306,629.5c1.6,0,3,0.3,4.2,0.9s2.1,1.5,2.7,2.7s1,2.6,1,4.3v2.3h-11.3c0.1,1.3,0.5,2.4,1.2,3.2
		c0.8,0.8,1.8,1.2,3.2,1.2c1.1,0,2.1-0.1,3.1-0.3c0.9-0.2,1.9-0.6,2.9-1v3.7c-0.9,0.4-1.8,0.7-2.7,0.9c-0.9,0.2-2.1,0.3-3.4,0.3
		c-1.8,0-3.3-0.3-4.7-1c-1.4-0.6-2.4-1.6-3.2-3c-0.8-1.3-1.2-3-1.2-5c0-2,0.3-3.8,1-5.1c0.7-1.4,1.7-2.4,2.9-3.1
		S304.4,629.5,306,629.5z M306.1,632.9c-0.9,0-1.7,0.3-2.3,0.9c-0.6,0.6-1,1.5-1.1,2.8h6.7c0-0.7-0.1-1.3-0.4-1.9
		c-0.2-0.6-0.6-1-1.1-1.3S306.8,632.9,306.1,632.9z"/>
	<path class="st1" d="M329,629.5c0.2,0,0.5,0,0.8,0c0.3,0,0.6,0.1,0.8,0.1l-0.4,4.5c-0.2-0.1-0.4-0.1-0.7-0.1s-0.5,0-0.7,0
		c-0.6,0-1.2,0.1-1.8,0.2c-0.6,0.2-1.1,0.4-1.6,0.8c-0.5,0.3-0.8,0.8-1.1,1.4c-0.3,0.6-0.4,1.3-0.4,2.1v8.9h-4.8v-17.5h3.6l0.7,2.9
		h0.2c0.3-0.6,0.8-1.1,1.3-1.6c0.5-0.5,1.1-0.9,1.8-1.2C327.5,629.7,328.2,629.5,329,629.5z"/>
	<path class="st1" d="M342.4,629.5c2.4,0,4.2,0.5,5.4,1.5s1.9,2.6,1.9,4.7v11.7h-3.3l-0.9-2.4h-0.1c-0.5,0.6-1,1.1-1.5,1.5
		c-0.5,0.4-1.1,0.7-1.8,0.9s-1.5,0.3-2.5,0.3c-1,0-2-0.2-2.8-0.6c-0.8-0.4-1.5-1-1.9-1.8c-0.5-0.8-0.7-1.9-0.7-3.1
		c0-1.9,0.7-3.2,2-4.1c1.3-0.9,3.3-1.4,5.9-1.5l3-0.1v-0.8c0-0.9-0.2-1.6-0.7-2s-1.2-0.6-2-0.6c-0.8,0-1.7,0.1-2.5,0.4
		c-0.8,0.2-1.6,0.5-2.4,0.9l-1.6-3.2c0.9-0.5,2-0.9,3.1-1.2C340,629.6,341.2,629.5,342.4,629.5z M345,639.3l-1.9,0.1
		c-1.5,0-2.6,0.3-3.2,0.8c-0.6,0.5-0.9,1.2-0.9,2c0,0.7,0.2,1.3,0.6,1.6c0.4,0.3,1,0.5,1.7,0.5c1,0,1.9-0.3,2.6-0.9
		c0.7-0.6,1.1-1.5,1.1-2.6V639.3z"/>
	<path class="st1" d="M363.5,643.9c0.5,0,1-0.1,1.5-0.2s1-0.2,1.5-0.4v3.6c-0.5,0.2-1.1,0.4-1.9,0.6s-1.6,0.2-2.5,0.2
		c-1,0-2-0.2-2.8-0.5c-0.8-0.3-1.5-0.9-2-1.8c-0.5-0.8-0.7-2-0.7-3.5v-8.5h-2.3v-2l2.6-1.6l1.4-3.7h3.1v3.7h4.9v3.6h-4.9v8.5
		c0,0.7,0.2,1.2,0.6,1.5C362.4,643.7,362.9,643.9,363.5,643.9z"/>
	<path class="st1" d="M387.4,638.6c0,1.5-0.2,2.8-0.6,3.9c-0.4,1.1-1,2.1-1.7,2.9c-0.7,0.8-1.6,1.4-2.7,1.8
		c-1.1,0.4-2.2,0.6-3.6,0.6c-1.2,0-2.4-0.2-3.4-0.6c-1-0.4-1.9-1-2.7-1.8c-0.8-0.8-1.3-1.7-1.8-2.9c-0.4-1.1-0.6-2.4-0.6-3.9
		c0-1.9,0.3-3.6,1-4.9c0.7-1.3,1.7-2.4,2.9-3.1c1.3-0.7,2.8-1.1,4.6-1.1c1.6,0,3.1,0.4,4.4,1.1c1.3,0.7,2.3,1.7,3,3.1
		C387.1,635,387.4,636.6,387.4,638.6z M375.3,638.6c0,1.2,0.1,2.1,0.4,2.9s0.6,1.4,1.2,1.8s1.2,0.6,2.1,0.6c0.8,0,1.5-0.2,2.1-0.6
		c0.5-0.4,0.9-1,1.2-1.8c0.2-0.8,0.4-1.8,0.4-2.9c0-1.2-0.1-2.1-0.4-2.9c-0.2-0.8-0.6-1.3-1.2-1.7s-1.2-0.6-2.1-0.6
		c-1.3,0-2.2,0.4-2.8,1.3C375.6,635.6,375.3,636.9,375.3,638.6z"/>
	<path class="st1" d="M402.6,629.5c0.2,0,0.5,0,0.8,0c0.3,0,0.6,0.1,0.8,0.1l-0.4,4.5c-0.2-0.1-0.4-0.1-0.7-0.1s-0.5,0-0.7,0
		c-0.6,0-1.2,0.1-1.8,0.2c-0.6,0.2-1.1,0.4-1.6,0.8c-0.5,0.3-0.8,0.8-1.1,1.4c-0.3,0.6-0.4,1.3-0.4,2.1v8.9h-4.8v-17.5h3.6l0.7,2.9
		h0.2c0.3-0.6,0.8-1.1,1.3-1.6c0.5-0.5,1.1-0.9,1.8-1.2C401.1,629.7,401.8,629.5,402.6,629.5z"/>
	<path class="st1" d="M433.1,647.4l-1.3-6.1c-0.1-0.4-0.2-0.9-0.4-1.6c-0.2-0.7-0.3-1.5-0.5-2.3c-0.2-0.8-0.4-1.6-0.5-2.3
		c-0.2-0.7-0.3-1.2-0.4-1.5h-0.1c-0.1,0.3-0.2,0.8-0.3,1.5c-0.2,0.7-0.3,1.5-0.5,2.3c-0.2,0.8-0.4,1.6-0.5,2.3
		c-0.2,0.7-0.3,1.3-0.4,1.7l-1.4,6.1h-5.1l-5-17.5h4.8l2,7.8c0.1,0.5,0.3,1.2,0.4,1.9c0.1,0.7,0.2,1.5,0.3,2.2
		c0.1,0.7,0.2,1.2,0.2,1.7h0.1c0-0.3,0.1-0.7,0.1-1.2c0.1-0.5,0.1-1,0.2-1.6c0.1-0.5,0.2-1,0.3-1.5c0.1-0.4,0.1-0.7,0.2-0.9l2.2-8.4
		h5.3l2.1,8.4c0.1,0.3,0.2,0.8,0.3,1.4c0.1,0.7,0.2,1.3,0.3,2c0.1,0.7,0.1,1.2,0.2,1.6h0.1c0-0.4,0.1-0.9,0.2-1.6s0.2-1.4,0.4-2.2
		s0.3-1.4,0.4-2l2.1-7.8h4.7l-5,17.5H433.1z"/>
	<path class="st1" d="M454.8,629.5c1.6,0,3,0.3,4.2,0.9s2.1,1.5,2.7,2.7s1,2.6,1,4.3v2.3h-11.3c0.1,1.3,0.5,2.4,1.2,3.2
		c0.8,0.8,1.8,1.2,3.2,1.2c1.1,0,2.1-0.1,3.1-0.3c0.9-0.2,1.9-0.6,2.9-1v3.7c-0.9,0.4-1.8,0.7-2.7,0.9c-0.9,0.2-2.1,0.3-3.4,0.3
		c-1.8,0-3.3-0.3-4.7-1c-1.4-0.6-2.4-1.6-3.2-3c-0.8-1.3-1.2-3-1.2-5c0-2,0.3-3.8,1-5.1c0.7-1.4,1.7-2.4,2.9-3.1
		S453.2,629.5,454.8,629.5z M454.8,632.9c-0.9,0-1.7,0.3-2.3,0.9c-0.6,0.6-1,1.5-1.1,2.8h6.7c0-0.7-0.1-1.3-0.4-1.9
		c-0.2-0.6-0.6-1-1.1-1.3S455.6,632.9,454.8,632.9z"/>
	<path class="st1" d="M472.8,623v5.7c0,0.7,0,1.3-0.1,2c0,0.6-0.1,1.2-0.1,1.5h0.2c0.5-0.7,1.1-1.3,1.9-1.8c0.8-0.5,1.8-0.8,3.1-0.8
		c2,0,3.6,0.8,4.8,2.3c1.2,1.5,1.8,3.8,1.8,6.8c0,2-0.3,3.7-0.8,5s-1.4,2.4-2.4,3.1c-1,0.7-2.2,1-3.5,1c-1.3,0-2.3-0.2-3-0.7
		c-0.7-0.5-1.3-1-1.8-1.6h-0.3l-0.8,1.9H468V623H472.8z M476.2,633.4c-0.8,0-1.5,0.2-2,0.5c-0.5,0.3-0.8,0.9-1.1,1.6
		c-0.2,0.7-0.3,1.6-0.4,2.6v0.5c0,1.7,0.3,3,0.8,3.9s1.4,1.4,2.7,1.4c1,0,1.8-0.5,2.3-1.4c0.6-0.9,0.9-2.2,0.9-3.9s-0.3-3-0.9-3.9
		C478,633.8,477.2,633.4,476.2,633.4z"/>
	<path class="st1" d="M502,642.2c0,1.2-0.3,2.2-0.8,3c-0.6,0.8-1.4,1.4-2.5,1.9c-1.1,0.4-2.5,0.6-4.1,0.6c-1.2,0-2.3-0.1-3.1-0.2
		c-0.9-0.2-1.8-0.4-2.6-0.8v-4c1,0.4,2,0.8,3.1,1.1c1.1,0.3,2.1,0.4,2.9,0.4c0.9,0,1.6-0.1,2-0.4c0.4-0.3,0.6-0.6,0.6-1.1
		c0-0.3-0.1-0.6-0.2-0.8c-0.2-0.2-0.5-0.5-1-0.8c-0.5-0.3-1.4-0.7-2.5-1.2c-1.1-0.5-2-0.9-2.7-1.4c-0.7-0.5-1.2-1-1.6-1.7
		c-0.3-0.6-0.5-1.5-0.5-2.5c0-1.6,0.6-2.8,1.9-3.7c1.3-0.8,2.9-1.2,5.1-1.2c1.1,0,2.1,0.1,3.1,0.3c1,0.2,2,0.6,3.1,1.1l-1.4,3.5
		c-0.9-0.4-1.7-0.7-2.5-0.9c-0.8-0.2-1.6-0.4-2.3-0.4c-0.7,0-1.2,0.1-1.6,0.3c-0.4,0.2-0.5,0.5-0.5,0.9c0,0.3,0.1,0.5,0.3,0.8
		c0.2,0.2,0.5,0.5,1.1,0.7s1.3,0.6,2.3,1c1,0.4,1.9,0.8,2.6,1.3s1.3,1,1.7,1.6C501.8,640.3,502,641.1,502,642.2z"/>
	<path class="st1" d="M509.6,623c0.7,0,1.3,0.2,1.8,0.5c0.5,0.3,0.8,0.9,0.8,1.8c0,0.9-0.3,1.5-0.8,1.8c-0.5,0.3-1.1,0.5-1.8,0.5
		c-0.7,0-1.3-0.2-1.8-0.5c-0.5-0.3-0.8-1-0.8-1.8c0-0.9,0.3-1.5,0.8-1.8C508.2,623.2,508.9,623,509.6,623z M512,629.9v17.5h-4.8
		v-17.5H512z"/>
	<path class="st1" d="M525.8,643.9c0.5,0,1-0.1,1.5-0.2s1-0.2,1.5-0.4v3.6c-0.5,0.2-1.1,0.4-1.9,0.6s-1.6,0.2-2.5,0.2
		c-1,0-2-0.2-2.8-0.5c-0.8-0.3-1.5-0.9-2-1.8c-0.5-0.8-0.7-2-0.7-3.5v-8.5h-2.3v-2l2.6-1.6l1.4-3.7h3.1v3.7h4.9v3.6h-4.9v8.5
		c0,0.7,0.2,1.2,0.6,1.5C524.7,643.7,525.2,643.9,525.8,643.9z"/>
	<path class="st1" d="M541,629.5c1.6,0,3,0.3,4.2,0.9s2.1,1.5,2.7,2.7s1,2.6,1,4.3v2.3h-11.3c0.1,1.3,0.5,2.4,1.2,3.2
		c0.8,0.8,1.8,1.2,3.2,1.2c1.1,0,2.1-0.1,3.1-0.3c0.9-0.2,1.9-0.6,2.9-1v3.7c-0.9,0.4-1.8,0.7-2.7,0.9c-0.9,0.2-2.1,0.3-3.4,0.3
		c-1.8,0-3.3-0.3-4.7-1c-1.4-0.6-2.4-1.6-3.2-3c-0.8-1.3-1.2-3-1.2-5c0-2,0.3-3.8,1-5.1c0.7-1.4,1.7-2.4,2.9-3.1
		S539.4,629.5,541,629.5z M541.1,632.9c-0.9,0-1.7,0.3-2.3,0.9c-0.6,0.6-1,1.5-1.1,2.8h6.7c0-0.7-0.1-1.3-0.4-1.9
		c-0.2-0.6-0.6-1-1.1-1.3S541.8,632.9,541.1,632.9z"/>
</g>
</svg>
