<?xml version="1.0" encoding="utf-8"?>
<!-- Generator: Adobe Illustrator 26.0.1, SVG Export Plug-In . SVG Version: 6.00 Build 0)  -->
<svg version="1.1" id="Layer_1" xmlns="http://www.w3.org/2000/svg" xmlns:xlink="http://www.w3.org/1999/xlink" x="0px" y="0px"
	 viewBox="0 0 1920 920" style="enable-background:new 0 0 1920 920;" xml:space="preserve">
<style type="text/css">
	.st0{fill:#20232C;}
	.st1{fill:#2B2D39;}
	.st2{fill:#E56C3D;}
	.st3{fill:#E2E2E2;}
	.st4{fill:#E8E8E8;}
</style>
<rect class="st0" width="960" height="920"/>
<rect y="292" class="st1" width="336" height="115"/>
<rect x="960" class="st1" width="960" height="920"/>
<rect x="961" y="74.3" class="st2" width="466" height="75"/>
<path class="st2" d="M959.9,238h40.3c13.2,0,23.9,10.7,23.9,23.9v0c0,13.2-10.7,23.9-23.9,23.9h-40.3V238z"/>
<path class="st2" d="M959.9,358h40.3c13.2,0,23.9,10.7,23.9,23.9v0c0,13.2-10.7,23.9-23.9,23.9h-40.3V358z"/>
<path class="st2" d="M959.9,473.4h40.3c13.2,0,23.9,10.7,23.9,23.9v0c0,13.2-10.7,23.9-23.9,23.9h-40.3V473.4z"/>
<g>
	<path class="st3" d="M44.9,102.3c-0.7,0-1.3-0.2-1.7-0.6s-0.7-0.9-0.7-1.6c0-0.6,0.2-1.2,0.7-1.6s1-0.6,1.7-0.6s1.3,0.2,1.7,0.6
		s0.7,0.9,0.7,1.6c0,0.6-0.2,1.2-0.7,1.6C46.2,102.1,45.6,102.3,44.9,102.3z M43,119.5v-14.9h3.8v14.9H43z"/>
	<path class="st3" d="M53.2,119.5v-14.9h3.4l0.4,2.8c0.5-1,1.3-1.7,2.2-2.3c0.9-0.6,2-0.9,3.3-0.9v4.1h-1.1c-0.8,0-1.6,0.1-2.2,0.4
		c-0.7,0.3-1.2,0.7-1.5,1.3c-0.4,0.6-0.6,1.5-0.6,2.7v6.8H53.2z"/>
	<path class="st3" d="M68.2,119.5v-11.7h-2v-3.2h2v-1.7c0-1.8,0.5-3.1,1.4-3.8c0.9-0.8,2.1-1.1,3.7-1.1h1.6v3.3h-1
		c-0.7,0-1.1,0.1-1.4,0.4s-0.4,0.7-0.4,1.3v1.7h3.2v3.2H72v11.7h-3.8V119.5z"/>
	<path class="st3" d="M85.2,119.9c-1.3,0-2.3-0.2-3.1-0.6c-0.8-0.4-1.4-1-1.8-1.6c-0.4-0.7-0.6-1.4-0.6-2.2c0-1.4,0.5-2.5,1.6-3.4
		s2.7-1.3,4.9-1.3H90v-0.4c0-1-0.3-1.8-0.9-2.2c-0.6-0.5-1.3-0.7-2.2-0.7c-0.8,0-1.5,0.2-2,0.6s-0.9,0.9-1.1,1.6H80
		c0.1-1.1,0.5-2,1.1-2.8s1.4-1.4,2.4-1.8s2.1-0.6,3.4-0.6c2.1,0,3.8,0.5,5,1.6s1.8,2.6,1.8,4.5v9.1h-3.3l-0.4-2.4
		c-0.4,0.8-1.1,1.5-1.8,2C87.5,119.6,86.5,119.9,85.2,119.9z M86.1,116.9c1.1,0,2-0.4,2.6-1.1s1-1.6,1.2-2.7h-3.3
		c-1,0-1.8,0.2-2.2,0.6s-0.7,0.8-0.7,1.4s0.2,1,0.7,1.4C84.8,116.7,85.4,116.9,86.1,116.9z"/>
	<path class="st3" d="M99.8,119.5v-14.9h3.4l0.3,2.5c0.5-0.9,1.1-1.6,2-2.1s1.9-0.8,3.1-0.8c1.8,0,3.3,0.6,4.3,1.7
		c1,1.2,1.5,2.9,1.5,5.1v8.4h-3.8v-8c0-1.3-0.3-2.3-0.8-2.9c-0.5-0.7-1.3-1-2.4-1s-2,0.4-2.7,1.1c-0.7,0.8-1,1.8-1,3.2v7.7
		L99.8,119.5L99.8,119.5z"/>
	<path class="st2" d="M120.4,119.5V97.9h3.8v21.6H120.4z"/>
	<path class="st2" d="M137.8,119.9c-1.5,0-2.8-0.3-4-1c-1.2-0.6-2.1-1.5-2.7-2.7c-0.7-1.2-1-2.5-1-4s0.3-2.9,1-4.1
		c0.6-1.2,1.5-2.1,2.7-2.8c1.1-0.7,2.5-1,4.1-1c1.5,0,2.7,0.3,3.9,1c1.1,0.6,2,1.5,2.6,2.6s0.9,2.3,0.9,3.7c0,0.2,0,0.5,0,0.7
		s0,0.5,0,0.8H134c0.1,1.2,0.5,2.1,1.2,2.7c0.7,0.7,1.6,1,2.7,1c0.8,0,1.4-0.2,2-0.5c0.5-0.3,0.9-0.8,1.2-1.4h3.9
		c-0.3,0.9-0.7,1.8-1.4,2.6c-0.7,0.8-1.5,1.4-2.4,1.8C140.1,119.7,139,119.9,137.8,119.9z M137.9,107.4c-0.9,0-1.8,0.3-2.5,0.8
		s-1.2,1.3-1.4,2.4h7.4c-0.1-1-0.4-1.8-1.1-2.3S138.8,107.4,137.9,107.4z"/>
	<path class="st2" d="M157.1,119.9c-1.3,0-2.5-0.2-3.5-0.6s-1.8-1-2.4-1.8c-0.6-0.8-1-1.6-1.1-2.6h3.9c0.1,0.6,0.4,1.1,1,1.5
		c0.5,0.4,1.2,0.6,2.1,0.6s1.5-0.2,1.8-0.5c0.4-0.3,0.6-0.7,0.6-1.2c0-0.6-0.3-1.1-0.8-1.3c-0.6-0.2-1.3-0.5-2.3-0.7
		c-0.6-0.1-1.3-0.3-2-0.5s-1.3-0.5-1.8-0.8c-0.6-0.3-1-0.7-1.3-1.2s-0.5-1.1-0.5-1.8c0-1.3,0.5-2.4,1.6-3.3s2.5-1.4,4.4-1.4
		c1.8,0,3.2,0.4,4.2,1.2s1.7,1.9,1.9,3.4h-3.6c-0.2-1.1-1.1-1.6-2.5-1.6c-0.7,0-1.3,0.1-1.7,0.4s-0.6,0.6-0.6,1.1
		c0,0.4,0.3,0.8,0.9,1c0.6,0.3,1.4,0.5,2.3,0.7c1,0.2,2,0.5,2.9,0.8s1.6,0.7,2.1,1.3c0.5,0.6,0.8,1.4,0.8,2.4c0,0.9-0.2,1.8-0.7,2.5
		s-1.2,1.3-2.2,1.7C159.5,119.7,158.4,119.9,157.1,119.9z"/>
	<path class="st2" d="M169.1,119.5v-14.9h3.4l0.3,2.5c0.5-0.9,1.1-1.6,2-2.1s1.9-0.8,3.1-0.8c1.8,0,3.3,0.6,4.3,1.7
		c1,1.2,1.5,2.9,1.5,5.1v8.4h-3.8v-8c0-1.3-0.3-2.3-0.8-2.9c-0.5-0.7-1.3-1-2.4-1c-1.1,0-2,0.4-2.7,1.1c-0.7,0.8-1,1.8-1,3.2v7.7
		L169.1,119.5L169.1,119.5z"/>
	<path class="st2" d="M194.9,119.9c-1.3,0-2.3-0.2-3.1-0.6s-1.4-1-1.8-1.6c-0.4-0.7-0.6-1.4-0.6-2.2c0-1.4,0.5-2.5,1.6-3.4
		s2.7-1.3,4.9-1.3h3.8v-0.4c0-1-0.3-1.8-0.9-2.2c-0.6-0.5-1.3-0.7-2.2-0.7c-0.8,0-1.5,0.2-2,0.6s-0.9,0.9-1.1,1.6h-3.8
		c0.1-1.1,0.5-2,1.1-2.8s1.4-1.4,2.4-1.8s2.1-0.6,3.4-0.6c2.1,0,3.8,0.5,5,1.6s1.8,2.6,1.8,4.5v9.1h-3.3l-0.4-2.4
		c-0.4,0.8-1.1,1.5-1.8,2C197.1,119.6,196.1,119.9,194.9,119.9z M195.7,116.9c1.1,0,2-0.4,2.6-1.1s1-1.6,1.2-2.7h-3.3
		c-1,0-1.8,0.2-2.2,0.6s-0.7,0.8-0.7,1.4s0.2,1,0.7,1.4C194.4,116.7,195,116.9,195.7,116.9z"/>
	<path class="st2" d="M209.4,119.5v-14.9h3.4l0.4,2.8c0.5-1,1.3-1.7,2.2-2.3c0.9-0.6,2-0.9,3.3-0.9v4.1h-1.1c-0.8,0-1.6,0.1-2.2,0.4
		c-0.7,0.3-1.2,0.7-1.5,1.3c-0.4,0.6-0.6,1.5-0.6,2.7v6.8H209.4z"/>
</g>
<circle class="st2" cx="118.9" cy="436.1" r="14.1"/>
<g>
	<path class="st4" d="M1088.2,173.9c-3.4,0-6.2-0.4-8.3-1.3c-2.1-0.9-3.7-2.3-4.7-4.3c-1-2-1.6-4.5-1.7-7.7
		c-0.1-2.3-0.1-4.9-0.2-7.6c0-2.7-0.1-5.5-0.1-8.4s0-5.6,0.1-8.4c0-2.7,0.1-5.2,0.2-7.5c0.1-3.3,0.7-5.9,1.7-8c1-2,2.6-3.5,4.7-4.4
		s4.9-1.4,8.3-1.4c5,0,8.6,1,10.8,3.1c2.2,2,3.5,5.4,3.8,10.2c0.1,1.3,0.1,2.7,0.1,4.3s0,3-0.1,4.3h-9.5c0.1-1.7,0.1-3.3,0.1-4.8
		s0-3.1-0.1-4.8c-0.1-1.6-0.5-2.7-1.3-3.4c-0.8-0.7-2-1-3.8-1c-1.8,0-3.1,0.3-3.9,1c-0.8,0.7-1.2,1.8-1.3,3.4
		c-0.1,2.8-0.2,5.7-0.3,8.5c-0.1,2.9-0.1,5.8-0.1,8.7c0,2.9,0,5.8,0.1,8.7c0.1,2.9,0.2,5.7,0.3,8.5c0.1,1.6,0.5,2.8,1.3,3.4
		c0.8,0.7,2.1,1,3.9,1c1.9,0,3.3-0.3,4.1-1c0.8-0.7,1.3-1.8,1.4-3.4c0-0.7,0.1-1.5,0.1-2.4c0-0.9,0-1.7,0-2.6c0-0.9,0-1.6-0.1-2.4
		h-4.4v-8.3h13.7c0.1,2.4,0.1,4.8,0.1,7.4c0,2.5-0.1,4.9-0.2,7.1c-0.2,4.8-1.4,8.2-3.7,10.2C1096.9,172.9,1093.3,173.9,1088.2,173.9
		z"/>
	<path class="st4" d="M1112.6,173.3v-43.2h9.8v5.1h1.8c0.3-2,1.1-3.4,2.2-4.2c1.1-0.8,2.6-1.2,4.4-1.2c0.6,0,1.2,0,1.7,0.1
		c0.6,0,1.1,0.1,1.5,0.1v7.3h-3.1c-2.4,0-4.4,0.3-5.8,1c-1.4,0.7-2.3,1.9-2.7,3.7v31.3H1112.6z"/>
	<path class="st4" d="M1148.9,173.8c-3.2,0-5.6-0.8-7.2-2.3c-1.6-1.5-2.5-4.1-2.8-7.7c0-0.5,0-1,0-1.6c0-0.6,0-1.2,0-1.6
		c0.1-1.9,0.6-3.5,1.3-4.9c0.7-1.4,1.9-2.6,3.4-3.7c1.6-1.1,3.6-2.1,6.3-3c1.3-0.5,2.7-0.9,3.9-1.3c1.3-0.4,2.7-0.8,4.3-1.2v-6.1
		c0-1.4-0.3-2.4-1-3c-0.7-0.6-1.8-0.9-3.3-0.9c-1.3,0-2.4,0.3-3.1,0.8c-0.7,0.5-1.1,1.4-1.2,2.7c0,0.4,0,1-0.1,2c0,0.9,0,1.8,0,2.7
		c0,0.9,0,1.4,0.1,1.6h-9.2c0-0.5,0-1.2-0.1-2.2c0-1,0-2,0-3c0.1-2.7,0.6-4.9,1.5-6.6c0.9-1.7,2.3-3,4.3-3.8s4.6-1.2,8-1.2
		c3.4,0,6.1,0.4,8.1,1.3c1.9,0.9,3.3,2.3,4.1,4.3c0.8,1.9,1.2,4.5,1.2,7.6l-0.1,30.7h-9.5v-4.5h-1.4c-0.8,1.7-1.8,3-2.8,3.8
		C1152.5,173.4,1151,173.8,1148.9,173.8z M1152.7,167c1.2,0,2.2-0.3,3.1-0.9c0.9-0.6,1.7-1.4,2.2-2.4l0.1-10.8
		c-1,0.2-1.9,0.5-2.9,0.8c-1,0.3-2,0.7-2.9,1.1c-1.5,0.7-2.5,1.5-3,2.5s-0.7,2.1-0.8,3.2c0,0.6,0,1.1,0,1.4s0,0.7,0,1.2
		c0.1,1.2,0.5,2.1,1.2,2.8C1150.4,166.6,1151.4,167,1152.7,167z"/>
	<path class="st4" d="M1177.6,187.7v-57.6h9.7v4.5h1.4c1-1.7,2.1-3,3.2-3.9c1.2-0.9,2.9-1.3,5.2-1.3c3,0,5.4,0.9,7,2.6
		c1.6,1.8,2.6,4.7,2.8,8.8c0,1.3,0.1,2.9,0.1,4.8s0.1,4,0.1,6.1c0,2.1,0,4.2-0.1,6.1c0,1.9-0.1,3.5-0.1,4.7c-0.2,4.1-1.2,7-3,8.7
		c-1.8,1.8-4.2,2.7-7.3,2.7c-1.7,0-3.2-0.4-4.4-1.2c-1.2-0.8-2.4-2.1-3.5-4h-1.4v18.9H1177.6z M1192.8,167c1.3,0,2.4-0.3,3.2-0.9
		c0.8-0.6,1.2-1.5,1.2-2.8c0.1-2,0.2-4,0.3-6c0-2,0.1-4,0.1-6.1c0-2,0-4-0.1-6c0-1.9-0.1-3.8-0.3-5.6c0-1.1-0.4-2-1-2.5
		c-0.6-0.6-1.6-0.8-2.8-0.8c-1.2,0-2.4,0.3-3.6,0.9c-1.2,0.6-2,1.4-2.5,2.5v23.8c0.6,1.2,1.3,2.1,2.2,2.6
		C1190.3,166.7,1191.5,167,1192.8,167z"/>
	<path class="st4" d="M1216.5,173.3v-57.6h9.7v18.9h1.7c1-1.7,2.1-3,3.3-3.9c1.2-0.9,2.9-1.3,5.2-1.3c3.1,0,5.4,0.9,7,2.6
		c1.6,1.8,2.4,4.7,2.4,8.8l0.1,32.5h-9.7l-0.1-33.3c0-1.2-0.3-2.1-0.9-2.7c-0.6-0.6-1.6-0.9-2.9-0.9c-1.3,0-2.5,0.3-3.7,0.9
		c-1.2,0.6-2,1.4-2.5,2.5v33.5H1216.5z"/>
	<path class="st4" d="M1255.9,123.2v-7.5h10v7.5H1255.9z M1256.1,173.3v-43.2h9.5v43.2H1256.1z"/>
	<path class="st4" d="M1293.6,146.3c0-0.6,0-1.2,0.1-2c0-0.8,0-1.6,0-2.3c0-0.8,0-1.4-0.1-1.9c0-1.2-0.4-2.1-1-2.6s-1.7-0.9-3.3-0.9
		c-1.6,0-2.7,0.3-3.3,0.8c-0.6,0.5-1,1.4-1,2.7c-0.1,2.2-0.1,4.3-0.1,6.2c0,1.9,0,3.8,0,5.5s0,3.6,0,5.4c0,1.8,0.1,3.8,0.1,5.9
		c0,1.3,0.4,2.3,1.1,2.9c0.7,0.6,1.8,0.9,3.4,0.9c1.6,0,2.6-0.3,3.2-0.9c0.6-0.6,0.9-1.6,0.9-2.9c0-0.8,0.1-1.6,0.1-2.6
		c0-0.9,0-2.1-0.1-3.5h9.5c0,0.4,0.1,1.2,0.1,2.2c0,1.1,0,2,0,2.8c-0.2,4.2-1.3,7.3-3.5,9.2c-2.1,1.9-5.5,2.8-10.2,2.8
		c-4.9,0-8.5-0.9-10.6-2.8c-2.1-1.9-3.3-4.9-3.5-9.1c-0.1-1.3-0.1-2.9-0.1-4.7c0-1.9,0-3.8,0-5.8c0-2,0-3.9,0.1-5.7
		c0-1.8,0.1-3.2,0.1-4.2c0.3-4.3,1.5-7.4,3.7-9.3c2.2-1.9,5.6-2.8,10.3-2.8c4.8,0,8.2,0.9,10.3,2.7c2.1,1.8,3.3,4.8,3.5,9
		c0,0.8,0.1,1.8,0,2.9c0,1.1-0.1,1.9-0.1,2.2H1293.6z"/>
	<path class="st4" d="M1331.4,173.3v-57.6h14.2c5,0,8.6,1,10.9,3.1c2.2,2.1,3.4,5.5,3.5,10.3c0.1,3.6,0.1,7.1,0.1,10.4
		c0,3.3,0,6.6,0,9.8c0,3.3-0.1,6.7-0.1,10.4c-0.1,4.8-1.2,8.3-3.4,10.4s-5.8,3.1-10.8,3.1H1331.4z M1341,164.8h4.8
		c1.6,0,2.7-0.3,3.5-1c0.8-0.7,1.2-1.7,1.2-3c0.1-2.9,0.1-5.6,0.2-8.4c0-2.7,0.1-5.4,0.1-8.1s0-5.4-0.1-8.1c0-2.7-0.1-5.5-0.2-8.3
		c0-1.3-0.4-2.3-1.2-3c-0.8-0.7-2-1-3.6-1h-4.7V164.8z"/>
	<path class="st4" d="M1383.5,173.9c-4.9,0-8.5-0.9-10.6-2.8c-2.1-1.9-3.3-4.9-3.5-9.1c-0.1-1.3-0.1-2.8-0.1-4.7c0-1.9,0-3.8,0-5.8
		s0-3.9,0.1-5.7c0-1.8,0.1-3.2,0.1-4.2c0.3-4.3,1.5-7.4,3.7-9.3c2.2-1.9,5.6-2.8,10.3-2.8c4.7,0,8.2,0.9,10.3,2.8s3.3,4.8,3.5,8.9
		c0,0.6,0,1.6,0.1,2.9c0,1.4,0,2.9,0,4.6c0,1.7-0.1,3.2-0.1,4.7h-18.2c0,1.6,0,3.1,0.1,4.7c0,1.6,0.1,3.3,0.1,5
		c0,1.3,0.4,2.3,1.1,2.9c0.7,0.6,1.8,0.9,3.3,0.9c1.5,0,2.6-0.3,3.1-0.9c0.6-0.6,0.9-1.6,1-3c0-0.7,0.1-1.6,0.1-2.5s0-2.1-0.1-3.5
		h9.5c0,0.4,0.1,1.2,0.1,2.2c0,1.1,0,2,0,2.8c-0.2,4.3-1.4,7.3-3.5,9.2C1391.6,173,1388.2,173.9,1383.5,173.9z M1378.9,146.6h8.8
		c0-0.9,0-1.9,0-2.8c0-0.9,0-1.7,0-2.4c0-0.7,0-1.1-0.1-1.4c-0.1-1.3-0.4-2.2-1.1-2.7c-0.6-0.5-1.7-0.8-3.2-0.8
		c-1.6,0-2.7,0.3-3.3,0.8c-0.6,0.6-1,1.5-1,2.7c0,1.1-0.1,2.2-0.1,3.3C1378.9,144.5,1378.9,145.6,1378.9,146.6z"/>
	<path class="st4" d="M1418.4,173.9c-4.6,0-7.8-0.9-9.8-2.8c-1.9-1.9-3-4.9-3.2-9.2c0-1,0-1.8,0-2.6c0-0.8,0-1.4,0.1-1.9h8.5
		c-0.1,1.4-0.1,2.5-0.1,3.4c0,0.8,0,1.6,0.1,2.2c0.1,1.4,0.5,2.4,1.2,2.9c0.7,0.6,1.8,0.8,3.2,0.8c1.7,0,2.9-0.3,3.7-0.9
		c0.8-0.6,1.2-1.6,1.2-3c0-0.6,0-1,0-1.2c0-0.2,0-0.4,0-0.6c0-0.2,0-0.6,0-1.1c0-1-0.2-1.7-0.6-2.3s-1.2-1-2.2-1.3l-5-1.3
		c-2.2-0.6-4.1-1.4-5.6-2.3c-1.5-0.9-2.7-2.1-3.4-3.5c-0.8-1.4-1.2-3.2-1.2-5.3c0-0.5,0-0.9,0-1.3s0-0.8,0-1.2
		c0-4.3,1.1-7.4,3.1-9.3c2.1-1.9,5.6-2.8,10.6-2.8c4.6,0,7.8,0.9,9.8,2.7c2,1.8,3,4.8,3.2,9c0,0.5,0,1.3,0,2.4
		c0,1.1-0.1,1.8-0.1,2.2h-8.8c0-0.6,0-1.2,0.1-1.9c0-0.7,0-1.4,0-2.1c0-0.7,0-1.2-0.1-1.6c0-1.3-0.4-2.2-1-2.7
		c-0.6-0.5-1.6-0.8-3.1-0.8c-1.6,0-2.6,0.3-3.3,0.8c-0.6,0.5-0.9,1.4-1,2.7c0,0.2,0,0.5,0,0.9c0,0.5,0,1.2,0,2.2
		c0,1.2,0.2,2.1,0.6,2.8c0.4,0.7,1.3,1.2,2.5,1.5l4.5,1c3.4,0.8,5.9,2,7.6,3.7c1.7,1.7,2.5,4.1,2.5,7.4c0,0.5,0,0.9,0,1.3
		c0,0.4,0,0.9,0,1.4c0,4.2-1.1,7.1-3.2,9C1426.9,173,1423.3,173.9,1418.4,173.9z"/>
	<path class="st4" d="M1440.9,123.2v-7.5h10v7.5H1440.9z M1441.1,173.3v-43.2h9.5v43.2H1441.1z"/>
	<path class="st4" d="M1473.7,187.2c-3.8,0-6.8-0.6-9.1-1.7c-2.3-1.1-3.6-2.7-4.1-4.8c0-0.3-0.1-0.7-0.1-1.2c0-0.5,0-0.9,0-1.2
		c0.2-1.3,0.7-2.3,1.5-3.1c0.8-0.8,1.9-1.3,3.3-1.5v-1.4c-1.3-0.3-2.4-0.7-3.1-1.4c-0.7-0.7-1.2-1.6-1.4-2.7
		c-0.1-0.5-0.1-0.8-0.1-1.1c0-0.3,0-0.6,0.1-1c0.1-1,0.6-1.9,1.6-2.5c0.9-0.6,2.1-1.1,3.6-1.3v-1.4c-1.9-0.9-3.4-2.2-4.3-3.9
		c-0.9-1.8-1.5-4-1.7-6.8c0-0.8,0-1.5-0.1-2.3c0-0.8,0-1.5,0-2.3c0-0.7,0-1.5,0-2.1c0-0.7,0-1.3,0.1-1.9c0.2-2.9,0.8-5.2,1.9-7
		c1-1.8,2.5-3.1,4.6-3.9c2-0.8,4.6-1.2,7.8-1.2c3.1,0,5.7,0.4,7.7,1.2s3.5,2,4.5,3.7h1.4c0.2-1.4,0.7-2.5,1.6-3.1c0.9-0.7,2.2-1,4-1
		v7.2h-1c-1.2,0-2.2,0.3-2.9,0.9c-0.7,0.6-1,1.6-1,3.1v1.9c0,0.4,0,0.8,0,1.4c0,0.5,0,1.1,0,1.7c0,0.6,0,1.3,0,1.9
		c0,0.6,0,1.3-0.1,1.9c-0.2,2.9-0.8,5.2-1.8,7c-1,1.8-2.5,3.1-4.5,3.9c-2,0.8-4.6,1.2-7.8,1.2c-2.2,0-3.8,0.1-4.8,0.5
		c-1,0.3-1.5,0.9-1.5,1.7v0.3c0,0.5,0.2,0.9,0.5,1.2s0.9,0.5,1.8,0.6c0.9,0.1,2.2,0.2,4,0.3c4.8,0.1,8.5,0.8,10.8,2.2
		c2.4,1.4,3.8,3.5,4.3,6.4c0.1,0.4,0.1,0.9,0.1,1.4c0,0.6,0,1.1-0.1,1.7c-0.3,2.1-1,3.8-2.2,5.1c-1.2,1.3-2.9,2.2-5.1,2.8
		C1479.6,186.9,1476.9,187.2,1473.7,187.2z M1474.3,180.7c1.4,0,2.6-0.1,3.6-0.3c1-0.2,1.8-0.5,2.4-0.9c0.6-0.4,1-1,1.2-1.6
		c0.1-0.4,0.2-0.7,0.1-1.1c0-0.3-0.1-0.7-0.2-1c-0.2-0.6-0.6-1.1-1.2-1.5s-1.4-0.7-2.4-0.9s-2.2-0.3-3.6-0.3c-1.8,0-3.3,0.2-4.4,0.6
		c-1.1,0.4-1.8,1.1-2.1,2.1c-0.1,0.4-0.1,0.7-0.1,1.1c0,0.3,0,0.7,0.1,1c0.2,0.6,0.5,1.2,1.1,1.6c0.6,0.4,1.3,0.7,2.2,0.9
		C1472,180.6,1473.1,180.7,1474.3,180.7z M1474.1,155.1c1.5,0,2.6-0.3,3.4-1c0.8-0.6,1.3-1.5,1.4-2.7c0-0.8,0.1-1.6,0.1-2.6
		c0-0.9,0-1.9,0-2.9c0-1,0-2,0-3c0-1-0.1-1.9-0.1-2.8c-0.1-1.2-0.5-2.1-1.3-2.7c-0.8-0.6-1.9-0.9-3.5-0.9c-1.6,0-2.8,0.3-3.6,1
		c-0.8,0.6-1.3,1.6-1.3,2.9c0,0.8-0.1,1.7-0.1,2.7s-0.1,1.9-0.1,2.9c0,1,0,1.9,0,2.8c0,0.9,0.1,1.7,0.1,2.5c0.1,1.3,0.5,2.3,1.3,2.9
		C1471.4,154.8,1472.5,155.1,1474.1,155.1z"/>
	<path class="st4" d="M1500.1,173.3v-43.2h9.5v4.5h1.9c1-1.7,2.1-3,3.3-3.9c1.2-0.9,2.9-1.3,5.1-1.3c3.1,0,5.5,0.9,7.1,2.6
		c1.6,1.8,2.5,4.7,2.5,8.8v32.5h-9.5V140c0-1.2-0.3-2.2-1-2.7c-0.7-0.6-1.7-0.9-3-0.9c-1.2,0-2.4,0.3-3.7,0.9
		c-1.3,0.6-2.2,1.4-2.6,2.5v33.5H1500.1z"/>
	<path class="st4" d="M1553.2,173.9c-4.9,0-8.5-0.9-10.6-2.8c-2.1-1.9-3.3-4.9-3.5-9.1c-0.1-1.3-0.1-2.8-0.1-4.7c0-1.9,0-3.8,0-5.8
		s0-3.9,0.1-5.7c0-1.8,0.1-3.2,0.1-4.2c0.3-4.3,1.5-7.4,3.7-9.3c2.2-1.9,5.6-2.8,10.3-2.8c4.7,0,8.2,0.9,10.3,2.8s3.3,4.8,3.5,8.9
		c0,0.6,0,1.6,0.1,2.9c0,1.4,0,2.9,0,4.6c0,1.7-0.1,3.2-0.1,4.7h-18.2c0,1.6,0,3.1,0.1,4.7c0,1.6,0.1,3.3,0.1,5
		c0,1.3,0.4,2.3,1.1,2.9c0.7,0.6,1.8,0.9,3.3,0.9c1.5,0,2.6-0.3,3.1-0.9c0.6-0.6,0.9-1.6,1-3c0-0.7,0.1-1.6,0.1-2.5s0-2.1-0.1-3.5
		h9.5c0,0.4,0.1,1.2,0.1,2.2c0,1.1,0,2,0,2.8c-0.2,4.3-1.4,7.3-3.5,9.2C1561.3,173,1557.9,173.9,1553.2,173.9z M1548.6,146.6h8.8
		c0-0.9,0-1.9,0-2.8c0-0.9,0-1.7,0-2.4c0-0.7,0-1.1-0.1-1.4c-0.1-1.3-0.4-2.2-1.1-2.7c-0.6-0.5-1.7-0.8-3.2-0.8
		c-1.6,0-2.7,0.3-3.3,0.8c-0.6,0.6-1,1.5-1,2.7c0,1.1-0.1,2.2-0.1,3.3C1548.6,144.5,1548.6,145.6,1548.6,146.6z"/>
	<path class="st4" d="M1576,173.3v-43.2h9.8v5.1h1.8c0.3-2,1.1-3.4,2.2-4.2c1.1-0.8,2.6-1.2,4.4-1.2c0.6,0,1.2,0,1.7,0.1
		c0.6,0,1.1,0.1,1.5,0.1v7.3h-3.1c-2.4,0-4.4,0.3-5.8,1c-1.4,0.7-2.3,1.9-2.7,3.7v31.3H1576z"/>
</g>
<g>
	<path class="st4" d="M1071.6,414.8l7.6-57.6h16.7l7.6,57.6h-9.8l-1.3-13.1h-9.8l-1.3,13.1H1071.6z M1083.5,393.3h8l-1.3-12.6
		l-1-15.1h-3.3l-1,15.1L1083.5,393.3z"/>
	<path class="st4" d="M1111.9,414.8v-57.6h13.7c4.9,0,8.5,1,10.7,3c2.2,2,3.4,5.3,3.5,9.9c0,1.6,0.1,3,0.1,4.2c0,1.2,0,2.4,0,3.6
		c0,1.2-0.1,2.5-0.1,4c-0.1,2.9-0.6,5.3-1.5,7.1c-0.9,1.8-2.3,3.2-4.2,4.2l6.6,21.7h-10.1l-5.4-20.1h-3.7v20.1H1111.9z
		 M1121.4,386.3h4.1c1.6,0,2.7-0.3,3.5-1c0.8-0.7,1.2-1.7,1.2-3c0.1-1.4,0.1-2.8,0.2-4.2c0-1.4,0-2.8,0-4.2c0-1.4-0.1-2.8-0.2-4.2
		c-0.1-1.3-0.5-2.3-1.2-3c-0.7-0.7-1.9-1-3.5-1h-4.1V386.3z"/>
	<path class="st4" d="M1168.6,414.8v-57.6h14.2c5,0,8.6,1,10.9,3.1c2.2,2.1,3.4,5.5,3.5,10.3c0.1,3.6,0.1,7.1,0.1,10.4
		c0,3.3,0,6.6,0,9.8c0,3.3-0.1,6.7-0.1,10.4c-0.1,4.8-1.2,8.3-3.4,10.4s-5.8,3.1-10.8,3.1H1168.6z M1178.2,406.4h4.8
		c1.6,0,2.7-0.3,3.5-1c0.8-0.7,1.2-1.7,1.2-3c0.1-2.9,0.1-5.6,0.2-8.4c0-2.7,0.1-5.4,0.1-8.1s0-5.4-0.1-8.1c0-2.7-0.1-5.5-0.2-8.3
		c0-1.3-0.4-2.3-1.2-3c-0.8-0.7-2-1-3.6-1h-4.7V406.4z"/>
	<path class="st4" d="M1220.7,415.5c-4.9,0-8.5-0.9-10.6-2.8c-2.1-1.9-3.3-4.9-3.5-9.1c-0.1-1.3-0.1-2.8-0.1-4.7c0-1.9,0-3.8,0-5.8
		s0-3.9,0.1-5.7c0-1.8,0.1-3.2,0.1-4.2c0.3-4.3,1.5-7.4,3.7-9.3c2.2-1.9,5.6-2.8,10.3-2.8c4.7,0,8.2,0.9,10.3,2.8s3.3,4.8,3.5,8.9
		c0,0.6,0,1.6,0.1,2.9c0,1.4,0,2.9,0,4.6c0,1.7-0.1,3.2-0.1,4.7h-18.2c0,1.6,0,3.1,0.1,4.7c0,1.6,0.1,3.3,0.1,5
		c0,1.3,0.4,2.3,1.1,2.9c0.7,0.6,1.8,0.9,3.3,0.9c1.5,0,2.6-0.3,3.1-0.9c0.6-0.6,0.9-1.6,1-3c0-0.7,0.1-1.6,0.1-2.5s0-2.1-0.1-3.5
		h9.5c0,0.4,0.1,1.2,0.1,2.2c0,1.1,0,2,0,2.8c-0.2,4.3-1.4,7.3-3.5,9.2C1228.8,414.6,1225.4,415.5,1220.7,415.5z M1216.1,388.2h8.8
		c0-0.9,0-1.9,0-2.8c0-0.9,0-1.7,0-2.4c0-0.7,0-1.1-0.1-1.4c-0.1-1.3-0.4-2.2-1.1-2.7c-0.6-0.5-1.7-0.8-3.2-0.8
		c-1.6,0-2.7,0.3-3.3,0.8c-0.6,0.6-1,1.5-1,2.7c0,1.1-0.1,2.2-0.1,3.3C1216.1,386,1216.1,387.1,1216.1,388.2z"/>
	<path class="st4" d="M1247,414.8l-6.7-43.2h9.9l2.6,21.7l1,14.5h2.7l1-14.5l2.7-21.7h9.9l-6.8,43.2H1247z"/>
	<path class="st4" d="M1291.2,415.5c-4.9,0-8.5-0.9-10.6-2.8c-2.1-1.9-3.3-4.9-3.5-9.1c-0.1-1.3-0.1-2.8-0.1-4.7c0-1.9,0-3.8,0-5.8
		s0-3.9,0.1-5.7c0-1.8,0.1-3.2,0.1-4.2c0.3-4.3,1.5-7.4,3.7-9.3c2.2-1.9,5.6-2.8,10.3-2.8c4.7,0,8.2,0.9,10.3,2.8s3.3,4.8,3.5,8.9
		c0,0.6,0,1.6,0.1,2.9c0,1.4,0,2.9,0,4.6c0,1.7-0.1,3.2-0.1,4.7h-18.2c0,1.6,0,3.1,0.1,4.7c0,1.6,0.1,3.3,0.1,5
		c0,1.3,0.4,2.3,1.1,2.9c0.7,0.6,1.8,0.9,3.3,0.9c1.5,0,2.6-0.3,3.1-0.9c0.6-0.6,0.9-1.6,1-3c0-0.7,0.1-1.6,0.1-2.5s0-2.1-0.1-3.5
		h9.5c0,0.4,0.1,1.2,0.1,2.2c0,1.1,0,2,0,2.8c-0.2,4.3-1.4,7.3-3.5,9.2C1299.3,414.6,1295.9,415.5,1291.2,415.5z M1286.6,388.2h8.8
		c0-0.9,0-1.9,0-2.8c0-0.9,0-1.7,0-2.4c0-0.7,0-1.1-0.1-1.4c-0.1-1.3-0.4-2.2-1.1-2.7c-0.6-0.5-1.7-0.8-3.2-0.8
		c-1.6,0-2.7,0.3-3.3,0.8c-0.6,0.6-1,1.5-1,2.7c0,1.1-0.1,2.2-0.1,3.3C1286.6,386,1286.6,387.1,1286.6,388.2z"/>
	<path class="st4" d="M1314,414.8v-57.6h9.5v57.6H1314z"/>
	<path class="st4" d="M1346.3,415.5c-3.4,0-6.1-0.4-8.2-1.3c-2-0.9-3.5-2.3-4.5-4.3c-1-2-1.5-4.6-1.7-7.8c0-1.1-0.1-2.4-0.1-3.9
		c0-1.5,0-3.2,0-4.9c0-1.7,0-3.4,0-5c0-1.6,0.1-2.9,0.1-4c0.2-3.3,0.8-5.9,1.7-7.8s2.5-3.4,4.5-4.2c2-0.9,4.8-1.3,8.1-1.3
		c3.5,0,6.2,0.5,8.2,1.4c2,0.9,3.5,2.3,4.4,4.3s1.5,4.5,1.7,7.7c0,1.1,0.1,2.4,0.1,4s0.1,3.2,0.1,4.9c0,1.7,0,3.3-0.1,4.9
		c0,1.6-0.1,2.9-0.1,4c-0.2,3.2-0.8,5.8-1.7,7.8c-0.9,2-2.4,3.4-4.4,4.3S1349.7,415.5,1346.3,415.5z M1346.3,408.3
		c1.7,0,2.9-0.3,3.6-1c0.7-0.7,1.1-1.6,1.1-2.9c0.1-2.1,0.1-4.1,0.2-6s0.1-3.7,0.1-5.5s0-3.5-0.1-5.3c0-1.8-0.1-3.7-0.2-5.7
		c0-1.3-0.4-2.2-1.1-2.9c-0.7-0.6-1.9-1-3.6-1c-1.7,0-2.9,0.3-3.7,1s-1.2,1.6-1.2,2.8c-0.1,1.6-0.1,3.3-0.1,5.1c0,1.8,0,3.7,0,5.6
		c0,1.9,0,3.9,0.1,5.9s0.1,4,0.2,6c0,1.3,0.4,2.2,1.2,2.9C1343.4,408,1344.6,408.3,1346.3,408.3z"/>
	<path class="st4" d="M1370.2,429.2v-57.6h9.7v4.5h1.4c1-1.7,2.1-3,3.2-3.9c1.2-0.9,2.9-1.3,5.2-1.3c3,0,5.4,0.9,7,2.6
		c1.6,1.8,2.6,4.7,2.8,8.8c0,1.3,0.1,2.9,0.1,4.8s0.1,4,0.1,6.1c0,2.1,0,4.2-0.1,6.1c0,1.9-0.1,3.5-0.1,4.7c-0.2,4.1-1.2,7-3,8.7
		c-1.8,1.8-4.2,2.7-7.3,2.7c-1.7,0-3.2-0.4-4.4-1.2c-1.2-0.8-2.4-2.1-3.5-4h-1.4v18.9H1370.2z M1385.4,408.5c1.3,0,2.4-0.3,3.2-0.9
		c0.8-0.6,1.2-1.5,1.2-2.8c0.1-2,0.2-4,0.3-6c0-2,0.1-4,0.1-6.1c0-2,0-4-0.1-6c0-1.9-0.1-3.8-0.3-5.6c0-1.1-0.4-2-1-2.5
		c-0.6-0.6-1.6-0.8-2.8-0.8c-1.2,0-2.4,0.3-3.6,0.9c-1.2,0.6-2,1.4-2.5,2.5v23.8c0.6,1.2,1.3,2.1,2.2,2.6
		C1383,408.2,1384.1,408.5,1385.4,408.5z"/>
	<path class="st4" d="M1422.7,415.5c-4.9,0-8.5-0.9-10.6-2.8c-2.1-1.9-3.3-4.9-3.5-9.1c-0.1-1.3-0.1-2.8-0.1-4.7c0-1.9,0-3.8,0-5.8
		s0-3.9,0.1-5.7c0-1.8,0.1-3.2,0.1-4.2c0.3-4.3,1.5-7.4,3.7-9.3c2.2-1.9,5.6-2.8,10.3-2.8c4.7,0,8.2,0.9,10.3,2.8s3.3,4.8,3.5,8.9
		c0,0.6,0,1.6,0.1,2.9c0,1.4,0,2.9,0,4.6c0,1.7-0.1,3.2-0.1,4.7H1418c0,1.6,0,3.1,0.1,4.7c0,1.6,0.1,3.3,0.1,5
		c0,1.3,0.4,2.3,1.1,2.9c0.7,0.6,1.8,0.9,3.3,0.9c1.5,0,2.6-0.3,3.1-0.9c0.6-0.6,0.9-1.6,1-3c0-0.7,0.1-1.6,0.1-2.5s0-2.1-0.1-3.5
		h9.5c0,0.4,0.1,1.2,0.1,2.2c0,1.1,0,2,0,2.8c-0.2,4.3-1.4,7.3-3.5,9.2C1430.7,414.6,1427.3,415.5,1422.7,415.5z M1418.1,388.2h8.8
		c0-0.9,0-1.9,0-2.8c0-0.9,0-1.7,0-2.4c0-0.7,0-1.1-0.1-1.4c-0.1-1.3-0.4-2.2-1.1-2.7c-0.6-0.5-1.7-0.8-3.2-0.8
		c-1.6,0-2.7,0.3-3.3,0.8c-0.6,0.6-1,1.5-1,2.7c0,1.1-0.1,2.2-0.1,3.3C1418.1,386,1418.1,387.1,1418.1,388.2z"/>
	<path class="st4" d="M1445.5,414.8v-43.2h9.8v5.1h1.8c0.3-2,1.1-3.4,2.2-4.2c1.1-0.8,2.6-1.2,4.4-1.2c0.6,0,1.2,0,1.7,0.1
		c0.6,0,1.1,0.1,1.5,0.1v7.3h-3.1c-2.4,0-4.4,0.3-5.8,1c-1.4,0.7-2.3,1.9-2.7,3.7v31.3H1445.5z"/>
</g>
<g>
	<path class="st4" d="M1076.9,292.4l-5.1-57.6h9.6l1.7,25.2l1.2,24h3.2l0.3-24l4.4-24.8h14l4.5,24.8l0.3,24h3.2l1.2-24l1.7-25.2h9.6
		l-5.1,57.6h-17.2l-2.5-16.8l-1.1-32.4h-3.2l-1.1,32.4l-2.5,16.8H1076.9z"/>
	<path class="st4" d="M1147.4,293.1c-4.9,0-8.5-0.9-10.6-2.8c-2.1-1.9-3.3-4.9-3.5-9.1c-0.1-1.3-0.1-2.8-0.1-4.7c0-1.9,0-3.8,0-5.8
		s0-3.9,0.1-5.7c0-1.8,0.1-3.2,0.1-4.2c0.3-4.3,1.5-7.4,3.7-9.3c2.2-1.9,5.6-2.8,10.3-2.8c4.7,0,8.2,0.9,10.3,2.8s3.3,4.8,3.5,8.9
		c0,0.6,0,1.6,0.1,2.9c0,1.4,0,2.9,0,4.6c0,1.7-0.1,3.2-0.1,4.7h-18.2c0,1.6,0,3.1,0.1,4.7c0,1.6,0.1,3.3,0.1,5
		c0,1.3,0.4,2.3,1.1,2.9c0.7,0.6,1.8,0.9,3.3,0.9c1.5,0,2.6-0.3,3.1-0.9c0.6-0.6,0.9-1.6,1-3c0-0.7,0.1-1.6,0.1-2.5s0-2.1-0.1-3.5
		h9.5c0,0.4,0.1,1.2,0.1,2.2c0,1.1,0,2,0,2.8c-0.2,4.3-1.4,7.3-3.5,9.2C1155.4,292.2,1152.1,293.1,1147.4,293.1z M1142.8,265.8h8.8
		c0-0.9,0-1.9,0-2.8c0-0.9,0-1.7,0-2.4c0-0.7,0-1.1-0.1-1.4c-0.1-1.3-0.4-2.2-1.1-2.7c-0.6-0.5-1.7-0.8-3.2-0.8
		c-1.6,0-2.7,0.3-3.3,0.8c-0.6,0.6-1,1.5-1,2.7c0,1.1-0.1,2.2-0.1,3.3C1142.8,263.7,1142.8,264.7,1142.8,265.8z"/>
	<path class="st4" d="M1189.5,293.1c-2.3,0-4-0.4-5.2-1.3c-1.2-0.9-2.2-2.2-3.3-3.9h-1.1v4.5h-9.7v-57.6h9.7v18.9h1.7
		c1-1.7,2.1-3,3.3-3.9c1.2-0.9,2.9-1.3,5.2-1.3c3,0,5.3,0.9,6.9,2.6c1.6,1.8,2.4,4.7,2.6,8.8c0,1.4,0.1,3,0.1,4.9
		c0,1.9,0.1,3.9,0.1,6c0,2.1,0,4.1-0.1,5.9c0,1.9-0.1,3.5-0.1,4.9c-0.2,4.1-1.2,7-2.9,8.7C1194.9,292.2,1192.5,293.1,1189.5,293.1z
		 M1186,286.1c1.4,0,2.3-0.3,2.9-0.9c0.6-0.6,0.9-1.5,0.9-2.8c0.1-1.6,0.2-3.4,0.2-5.4c0-1.9,0.1-3.9,0.1-6c0-2.1,0-4.1,0-6.1
		s-0.1-3.9-0.2-5.7c-0.1-1.2-0.4-2.2-1-2.8c-0.6-0.6-1.5-1-2.9-1c-1.2,0-2.4,0.3-3.6,0.9c-1.2,0.6-2,1.4-2.5,2.5v23.8
		c0.5,1.1,1.3,1.9,2.5,2.5C1183.6,285.8,1184.8,286.1,1186,286.1z"/>
	<path class="st4" d="M1228.3,292.4v-57.6h14.2c5,0,8.6,1,10.9,3.1c2.2,2.1,3.4,5.5,3.5,10.3c0.1,3.6,0.1,7.1,0.1,10.4
		c0,3.3,0,6.6,0,9.8c0,3.3-0.1,6.7-0.1,10.4c-0.1,4.8-1.2,8.3-3.4,10.4s-5.8,3.1-10.8,3.1H1228.3z M1237.8,284h4.8
		c1.6,0,2.7-0.3,3.5-1c0.8-0.7,1.2-1.7,1.2-3c0.1-2.9,0.1-5.6,0.2-8.4c0-2.7,0.1-5.4,0.1-8.1s0-5.4-0.1-8.1c0-2.7-0.1-5.5-0.2-8.3
		c0-1.3-0.4-2.3-1.2-3c-0.8-0.7-2-1-3.6-1h-4.7V284z"/>
	<path class="st4" d="M1280.4,293.1c-4.9,0-8.5-0.9-10.6-2.8c-2.1-1.9-3.3-4.9-3.5-9.1c-0.1-1.3-0.1-2.8-0.1-4.7c0-1.9,0-3.8,0-5.8
		s0-3.9,0.1-5.7c0-1.8,0.1-3.2,0.1-4.2c0.3-4.3,1.5-7.4,3.7-9.3c2.2-1.9,5.6-2.8,10.3-2.8c4.7,0,8.2,0.9,10.3,2.8s3.3,4.8,3.5,8.9
		c0,0.6,0,1.6,0.1,2.9c0,1.4,0,2.9,0,4.6c0,1.7-0.1,3.2-0.1,4.7h-18.2c0,1.6,0,3.1,0.1,4.7c0,1.6,0.1,3.3,0.1,5
		c0,1.3,0.4,2.3,1.1,2.9c0.7,0.6,1.8,0.9,3.3,0.9c1.5,0,2.6-0.3,3.1-0.9c0.6-0.6,0.9-1.6,1-3c0-0.7,0.1-1.6,0.1-2.5s0-2.1-0.1-3.5
		h9.5c0,0.4,0.1,1.2,0.1,2.2c0,1.1,0,2,0,2.8c-0.2,4.3-1.4,7.3-3.5,9.2C1288.4,292.2,1285,293.1,1280.4,293.1z M1275.8,265.8h8.8
		c0-0.9,0-1.9,0-2.8c0-0.9,0-1.7,0-2.4c0-0.7,0-1.1-0.1-1.4c-0.1-1.3-0.4-2.2-1.1-2.7c-0.6-0.5-1.7-0.8-3.2-0.8
		c-1.6,0-2.7,0.3-3.3,0.8c-0.6,0.6-1,1.5-1,2.7c0,1.1-0.1,2.2-0.1,3.3C1275.8,263.7,1275.8,264.7,1275.8,265.8z"/>
	<path class="st4" d="M1306.6,292.4l-6.7-43.2h9.9l2.6,21.7l1,14.5h2.7l1-14.5l2.7-21.7h9.9l-6.8,43.2H1306.6z"/>
	<path class="st4" d="M1350.8,293.1c-4.9,0-8.5-0.9-10.6-2.8c-2.1-1.9-3.3-4.9-3.5-9.1c-0.1-1.3-0.1-2.8-0.1-4.7c0-1.9,0-3.8,0-5.8
		s0-3.9,0.1-5.7c0-1.8,0.1-3.2,0.1-4.2c0.3-4.3,1.5-7.4,3.7-9.3c2.2-1.9,5.6-2.8,10.3-2.8c4.7,0,8.2,0.9,10.3,2.8s3.3,4.8,3.5,8.9
		c0,0.6,0,1.6,0.1,2.9c0,1.4,0,2.9,0,4.6c0,1.7-0.1,3.2-0.1,4.7h-18.2c0,1.6,0,3.1,0.1,4.7c0,1.6,0.1,3.3,0.1,5
		c0,1.3,0.4,2.3,1.1,2.9c0.7,0.6,1.8,0.9,3.3,0.9c1.5,0,2.6-0.3,3.1-0.9c0.6-0.6,0.9-1.6,1-3c0-0.7,0.1-1.6,0.1-2.5s0-2.1-0.1-3.5
		h9.5c0,0.4,0.1,1.2,0.1,2.2c0,1.1,0,2,0,2.8c-0.2,4.3-1.4,7.3-3.5,9.2C1358.9,292.2,1355.5,293.1,1350.8,293.1z M1346.2,265.8h8.8
		c0-0.9,0-1.9,0-2.8c0-0.9,0-1.7,0-2.4c0-0.7,0-1.1-0.1-1.4c-0.1-1.3-0.4-2.2-1.1-2.7c-0.6-0.5-1.7-0.8-3.2-0.8
		c-1.6,0-2.7,0.3-3.3,0.8c-0.6,0.6-1,1.5-1,2.7c0,1.1-0.1,2.2-0.1,3.3C1346.3,263.7,1346.2,264.7,1346.2,265.8z"/>
	<path class="st4" d="M1373.7,292.4v-57.6h9.5v57.6H1373.7z"/>
	<path class="st4" d="M1405.9,293.1c-3.4,0-6.1-0.4-8.2-1.3c-2-0.9-3.5-2.3-4.5-4.3c-1-2-1.5-4.6-1.7-7.8c0-1.1-0.1-2.4-0.1-3.9
		c0-1.5,0-3.2,0-4.9c0-1.7,0-3.4,0-5c0-1.6,0.1-2.9,0.1-4c0.2-3.3,0.8-5.9,1.7-7.8s2.5-3.4,4.5-4.2c2-0.9,4.8-1.3,8.1-1.3
		c3.5,0,6.2,0.5,8.2,1.4c2,0.9,3.5,2.3,4.4,4.3s1.5,4.5,1.7,7.7c0,1.1,0.1,2.4,0.1,4s0.1,3.2,0.1,4.9c0,1.7,0,3.3-0.1,4.9
		c0,1.6-0.1,2.9-0.1,4c-0.2,3.2-0.8,5.8-1.7,7.8c-0.9,2-2.4,3.4-4.4,4.3S1409.4,293.1,1405.9,293.1z M1405.9,286
		c1.7,0,2.9-0.3,3.6-1c0.7-0.7,1.1-1.6,1.1-2.9c0.1-2.1,0.1-4.1,0.2-6s0.1-3.7,0.1-5.5s0-3.5-0.1-5.3c0-1.8-0.1-3.7-0.2-5.7
		c0-1.3-0.4-2.2-1.1-2.9c-0.7-0.6-1.9-1-3.6-1c-1.7,0-2.9,0.3-3.7,1s-1.2,1.6-1.2,2.8c-0.1,1.6-0.1,3.3-0.1,5.1c0,1.8,0,3.7,0,5.6
		c0,1.9,0,3.9,0.1,5.9s0.1,4,0.2,6c0,1.3,0.4,2.2,1.2,2.9C1403,285.6,1404.2,286,1405.9,286z"/>
	<path class="st4" d="M1429.9,306.8v-57.6h9.7v4.5h1.4c1-1.7,2.1-3,3.2-3.9c1.2-0.9,2.9-1.3,5.2-1.3c3,0,5.4,0.9,7,2.6
		c1.6,1.8,2.6,4.7,2.8,8.8c0,1.3,0.1,2.9,0.1,4.8s0.1,4,0.1,6.1c0,2.1,0,4.2-0.1,6.1c0,1.9-0.1,3.5-0.1,4.7c-0.2,4.1-1.2,7-3,8.7
		c-1.8,1.8-4.2,2.7-7.3,2.7c-1.7,0-3.2-0.4-4.4-1.2c-1.2-0.8-2.4-2.1-3.5-4h-1.4v18.9H1429.9z M1445.1,286.1c1.3,0,2.4-0.3,3.2-0.9
		c0.8-0.6,1.2-1.5,1.2-2.8c0.1-2,0.2-4,0.3-6c0-2,0.1-4,0.1-6.1c0-2,0-4-0.1-6c0-1.9-0.1-3.8-0.3-5.6c0-1.1-0.4-2-1-2.5
		c-0.6-0.6-1.6-0.8-2.8-0.8c-1.2,0-2.4,0.3-3.6,0.9c-1.2,0.6-2,1.4-2.5,2.5v23.8c0.6,1.2,1.3,2.1,2.2,2.6
		C1442.6,285.9,1443.7,286.1,1445.1,286.1z"/>
	<path class="st4" d="M1482.3,293.1c-4.9,0-8.5-0.9-10.6-2.8c-2.1-1.9-3.3-4.9-3.5-9.1c-0.1-1.3-0.1-2.8-0.1-4.7c0-1.9,0-3.8,0-5.8
		s0-3.9,0.1-5.7c0-1.8,0.1-3.2,0.1-4.2c0.3-4.3,1.5-7.4,3.7-9.3c2.2-1.9,5.6-2.8,10.3-2.8c4.7,0,8.2,0.9,10.3,2.8s3.3,4.8,3.5,8.9
		c0,0.6,0,1.6,0.1,2.9c0,1.4,0,2.9,0,4.6c0,1.7-0.1,3.2-0.1,4.7h-18.2c0,1.6,0,3.1,0.1,4.7c0,1.6,0.1,3.3,0.1,5
		c0,1.3,0.4,2.3,1.1,2.9c0.7,0.6,1.8,0.9,3.3,0.9c1.5,0,2.6-0.3,3.1-0.9c0.6-0.6,0.9-1.6,1-3c0-0.7,0.1-1.6,0.1-2.5s0-2.1-0.1-3.5
		h9.5c0,0.4,0.1,1.2,0.1,2.2c0,1.1,0,2,0,2.8c-0.2,4.3-1.4,7.3-3.5,9.2C1490.4,292.2,1487,293.1,1482.3,293.1z M1477.7,265.8h8.8
		c0-0.9,0-1.9,0-2.8c0-0.9,0-1.7,0-2.4c0-0.7,0-1.1-0.1-1.4c-0.1-1.3-0.4-2.2-1.1-2.7c-0.6-0.5-1.7-0.8-3.2-0.8
		c-1.6,0-2.7,0.3-3.3,0.8c-0.6,0.6-1,1.5-1,2.7c0,1.1-0.1,2.2-0.1,3.3C1477.7,263.7,1477.7,264.7,1477.7,265.8z"/>
	<path class="st4" d="M1505.1,292.4v-43.2h9.8v5.1h1.8c0.3-2,1.1-3.4,2.2-4.2c1.1-0.8,2.6-1.2,4.4-1.2c0.6,0,1.2,0,1.7,0.1
		c0.6,0,1.1,0.1,1.5,0.1v7.3h-3.1c-2.4,0-4.4,0.3-5.8,1c-1.4,0.7-2.3,1.9-2.7,3.7v31.3H1505.1z"/>
</g>
<g>
	<path class="st4" d="M1071.6,528l7.6-57.6h16.7l7.6,57.6h-9.8l-1.3-13.1h-9.8l-1.3,13.1H1071.6z M1083.5,506.5h8l-1.3-12.6l-1-15.1
		h-3.3l-1,15.1L1083.5,506.5z"/>
	<path class="st4" d="M1111.6,528v-43.2h9.5v4.5h1.9c1-1.7,2.1-3,3.3-3.9s2.9-1.3,5.1-1.3c3.1,0,5.5,0.9,7.1,2.6s2.5,4.7,2.5,8.8
		V528h-9.5v-33.3c0-1.2-0.3-2.2-1-2.7s-1.7-0.9-3-0.9c-1.2,0-2.4,0.3-3.7,0.9s-2.2,1.4-2.6,2.5V528H1111.6z"/>
	<path class="st4" d="M1160.2,528.7c-3.1,0-5.4-0.9-7-2.7c-1.6-1.8-2.5-4.7-2.7-8.7c-0.1-1.4-0.1-3.1-0.1-5c0-1.9,0-3.9,0-6
		c0-2.1,0-4.1,0.1-5.9c0-1.9,0.1-3.5,0.1-4.8c0.2-4.1,1.1-7,2.8-8.8s4-2.6,7-2.6c2.3,0,4,0.4,5.2,1.3s2.2,2.2,3.3,3.9h1.4v-18.9h9.7
		V528h-9.7v-4.5h-1.5c-1,1.7-2.1,2.9-3.3,3.8C1164.2,528.2,1162.5,528.7,1160.2,528.7z M1164.1,521.7c1.2,0,2.4-0.3,3.6-0.9
		c1.2-0.6,2-1.4,2.5-2.5v-23.8c-0.5-1.1-1.3-1.9-2.5-2.5c-1.2-0.6-2.4-0.9-3.6-0.9c-1.3,0-2.2,0.3-2.8,0.8c-0.6,0.6-0.9,1.4-1,2.5
		c-0.1,2.6-0.2,5.2-0.3,8c0,2.7,0,5.4,0,8.1s0.1,5.2,0.3,7.5c0.1,1.3,0.4,2.2,1,2.8S1162.8,521.7,1164.1,521.7z"/>
	<path class="st4" d="M1190.2,528v-43.2h9.8v5.1h1.8c0.3-2,1.1-3.4,2.2-4.2c1.1-0.8,2.6-1.2,4.4-1.2c0.6,0,1.2,0,1.7,0.1
		s1.1,0.1,1.5,0.1v7.3h-3.1c-2.4,0-4.4,0.3-5.8,1s-2.3,1.9-2.7,3.7V528H1190.2z"/>
	<path class="st4" d="M1231.7,528.7c-3.4,0-6.1-0.4-8.2-1.3c-2-0.9-3.5-2.3-4.5-4.3c-1-2-1.5-4.6-1.7-7.8c0-1.1-0.1-2.4-0.1-3.9
		c0-1.5,0-3.2,0-4.9s0-3.4,0-5c0-1.6,0.1-2.9,0.1-4c0.2-3.3,0.8-5.9,1.7-7.8s2.5-3.4,4.5-4.2c2-0.9,4.8-1.3,8.1-1.3
		c3.5,0,6.2,0.5,8.2,1.4c2,0.9,3.5,2.3,4.4,4.3s1.5,4.5,1.7,7.7c0,1.1,0.1,2.4,0.1,4c0,1.6,0.1,3.2,0.1,4.9c0,1.7,0,3.3-0.1,4.9
		c0,1.6-0.1,2.9-0.1,4c-0.2,3.2-0.8,5.8-1.7,7.8c-0.9,2-2.4,3.4-4.4,4.3S1235.1,528.7,1231.7,528.7z M1231.7,521.5
		c1.7,0,2.9-0.3,3.6-1c0.7-0.7,1.1-1.6,1.1-2.9c0.1-2.1,0.1-4.1,0.2-6s0.1-3.7,0.1-5.5c0-1.8,0-3.5-0.1-5.3c0-1.8-0.1-3.7-0.2-5.7
		c0-1.3-0.4-2.2-1.1-2.9c-0.7-0.6-1.9-1-3.6-1c-1.7,0-2.9,0.3-3.7,1c-0.8,0.7-1.2,1.6-1.2,2.8c-0.1,1.6-0.1,3.3-0.1,5.1
		c0,1.8,0,3.7,0,5.6c0,1.9,0,3.9,0.1,5.9c0,2,0.1,4,0.2,6c0,1.3,0.4,2.2,1.2,2.9C1228.8,521.2,1230,521.5,1231.7,521.5z"/>
	<path class="st4" d="M1255.4,477.9v-7.5h10v7.5H1255.4z M1255.6,528v-43.2h9.5V528H1255.6z"/>
	<path class="st4" d="M1284.5,528.7c-3.1,0-5.4-0.9-7-2.7c-1.6-1.8-2.5-4.7-2.7-8.7c-0.1-1.4-0.1-3.1-0.1-5c0-1.9,0-3.9,0-6
		c0-2.1,0-4.1,0.1-5.9c0-1.9,0.1-3.5,0.1-4.8c0.2-4.1,1.1-7,2.8-8.8s4-2.6,7-2.6c2.3,0,4,0.4,5.2,1.3s2.2,2.2,3.3,3.9h1.4v-18.9h9.7
		V528h-9.7v-4.5h-1.5c-1,1.7-2.1,2.9-3.3,3.8C1288.4,528.2,1286.7,528.7,1284.5,528.7z M1288.4,521.7c1.2,0,2.4-0.3,3.6-0.9
		c1.2-0.6,2-1.4,2.5-2.5v-23.8c-0.5-1.1-1.3-1.9-2.5-2.5c-1.2-0.6-2.4-0.9-3.6-0.9c-1.3,0-2.2,0.3-2.8,0.8c-0.6,0.6-0.9,1.4-1,2.5
		c-0.1,2.6-0.2,5.2-0.3,8c0,2.7,0,5.4,0,8.1s0.1,5.2,0.3,7.5c0.1,1.3,0.4,2.2,1,2.8S1287,521.7,1288.4,521.7z"/>
	<path class="st4" d="M1333.6,528v-57.6h14.2c5,0,8.6,1,10.9,3.1c2.2,2.1,3.4,5.5,3.5,10.3c0.1,3.6,0.1,7.1,0.1,10.4
		c0,3.3,0,6.6,0,9.8c0,3.3-0.1,6.7-0.1,10.4c-0.1,4.8-1.2,8.3-3.4,10.4c-2.2,2.1-5.8,3.2-10.8,3.2H1333.6z M1343.1,519.6h4.8
		c1.6,0,2.7-0.3,3.5-1c0.8-0.7,1.2-1.7,1.2-3c0.1-2.9,0.1-5.6,0.2-8.4c0-2.7,0.1-5.4,0.1-8.1s0-5.4-0.1-8.1c0-2.7-0.1-5.5-0.2-8.3
		c0-1.3-0.4-2.3-1.2-3c-0.8-0.7-2-1-3.6-1h-4.7V519.6z"/>
	<path class="st4" d="M1385.7,528.7c-4.9,0-8.5-0.9-10.6-2.8c-2.1-1.9-3.3-4.9-3.5-9.1c-0.1-1.3-0.1-2.8-0.1-4.7c0-1.9,0-3.8,0-5.8
		c0-2,0-3.9,0.1-5.7s0.1-3.2,0.1-4.2c0.3-4.3,1.5-7.4,3.7-9.3c2.2-1.9,5.6-2.8,10.3-2.8c4.7,0,8.2,0.9,10.3,2.8s3.3,4.8,3.5,8.9
		c0,0.6,0,1.6,0.1,2.9c0,1.4,0,2.9,0,4.6c0,1.7-0.1,3.2-0.1,4.7H1381c0,1.6,0,3.1,0.1,4.7c0,1.6,0.1,3.3,0.1,5
		c0,1.3,0.4,2.3,1.1,2.9c0.7,0.6,1.8,0.9,3.3,0.9c1.5,0,2.6-0.3,3.1-0.9c0.6-0.6,0.9-1.6,1-3c0-0.7,0.1-1.6,0.1-2.5
		c0-1,0-2.1-0.1-3.5h9.5c0,0.4,0.1,1.2,0.1,2.2c0,1.1,0,2,0,2.8c-0.2,4.3-1.4,7.3-3.5,9.2C1393.7,527.8,1390.3,528.7,1385.7,528.7z
		 M1381,501.4h8.8c0-0.9,0-1.9,0-2.8s0-1.7,0-2.4c0-0.7,0-1.1-0.1-1.4c-0.1-1.3-0.4-2.2-1.1-2.7c-0.6-0.5-1.7-0.8-3.2-0.8
		c-1.6,0-2.7,0.3-3.3,0.8c-0.6,0.6-1,1.5-1,2.7c0,1.1-0.1,2.2-0.1,3.3C1381.1,499.2,1381,500.3,1381,501.4z"/>
	<path class="st4" d="M1411.9,528l-6.7-43.2h9.9l2.6,21.7l1,14.5h2.7l1-14.5l2.7-21.7h9.9l-6.8,43.2H1411.9z"/>
	<path class="st4" d="M1456.1,528.7c-4.9,0-8.5-0.9-10.6-2.8c-2.1-1.9-3.3-4.9-3.5-9.1c-0.1-1.3-0.1-2.8-0.1-4.7c0-1.9,0-3.8,0-5.8
		c0-2,0-3.9,0.1-5.7s0.1-3.2,0.1-4.2c0.3-4.3,1.5-7.4,3.7-9.3c2.2-1.9,5.6-2.8,10.3-2.8c4.7,0,8.2,0.9,10.3,2.8s3.3,4.8,3.5,8.9
		c0,0.6,0,1.6,0.1,2.9c0,1.4,0,2.9,0,4.6c0,1.7-0.1,3.2-0.1,4.7h-18.2c0,1.6,0,3.1,0.1,4.7c0,1.6,0.1,3.3,0.1,5
		c0,1.3,0.4,2.3,1.1,2.9c0.7,0.6,1.8,0.9,3.3,0.9c1.5,0,2.6-0.3,3.1-0.9c0.6-0.6,0.9-1.6,1-3c0-0.7,0.1-1.6,0.1-2.5
		c0-1,0-2.1-0.1-3.5h9.5c0,0.4,0.1,1.2,0.1,2.2c0,1.1,0,2,0,2.8c-0.2,4.3-1.4,7.3-3.5,9.2C1464.2,527.8,1460.8,528.7,1456.1,528.7z
		 M1451.5,501.4h8.8c0-0.9,0-1.9,0-2.8s0-1.7,0-2.4c0-0.7,0-1.1-0.1-1.4c-0.1-1.3-0.4-2.2-1.1-2.7c-0.6-0.5-1.7-0.8-3.2-0.8
		c-1.6,0-2.7,0.3-3.3,0.8c-0.6,0.6-1,1.5-1,2.7c0,1.1-0.1,2.2-0.1,3.3C1451.6,499.2,1451.5,500.3,1451.5,501.4z"/>
	<path class="st4" d="M1479,528v-57.6h9.5V528H1479z"/>
	<path class="st4" d="M1511.2,528.7c-3.4,0-6.1-0.4-8.2-1.3c-2-0.9-3.5-2.3-4.5-4.3c-1-2-1.5-4.6-1.7-7.8c0-1.1-0.1-2.4-0.1-3.9
		c0-1.5,0-3.2,0-4.9s0-3.4,0-5c0-1.6,0.1-2.9,0.1-4c0.2-3.3,0.8-5.9,1.7-7.8s2.5-3.4,4.5-4.2c2-0.9,4.8-1.3,8.1-1.3
		c3.5,0,6.2,0.5,8.2,1.4c2,0.9,3.5,2.3,4.4,4.3s1.5,4.5,1.7,7.7c0,1.1,0.1,2.4,0.1,4c0,1.6,0.1,3.2,0.1,4.9c0,1.7,0,3.3-0.1,4.9
		c0,1.6-0.1,2.9-0.1,4c-0.2,3.2-0.8,5.8-1.7,7.8c-0.9,2-2.4,3.4-4.4,4.3S1514.7,528.7,1511.2,528.7z M1511.2,521.5
		c1.7,0,2.9-0.3,3.6-1c0.7-0.7,1.1-1.6,1.1-2.9c0.1-2.1,0.1-4.1,0.2-6s0.1-3.7,0.1-5.5c0-1.8,0-3.5-0.1-5.3c0-1.8-0.1-3.7-0.2-5.7
		c0-1.3-0.4-2.2-1.1-2.9c-0.7-0.6-1.9-1-3.6-1c-1.7,0-2.9,0.3-3.7,1c-0.8,0.7-1.2,1.6-1.2,2.8c-0.1,1.6-0.1,3.3-0.1,5.1
		c0,1.8,0,3.7,0,5.6c0,1.9,0,3.9,0.1,5.9c0,2,0.1,4,0.2,6c0,1.3,0.4,2.2,1.2,2.9C1508.3,521.2,1509.5,521.5,1511.2,521.5z"/>
	<path class="st4" d="M1535.2,542.4v-57.6h9.7v4.5h1.4c1-1.7,2.1-3,3.2-3.9c1.2-0.9,2.9-1.3,5.2-1.3c3,0,5.4,0.9,7,2.6
		c1.6,1.8,2.6,4.7,2.8,8.8c0,1.3,0.1,2.9,0.1,4.8c0,1.9,0.1,4,0.1,6.1c0,2.1,0,4.2-0.1,6.1c0,1.9-0.1,3.5-0.1,4.7
		c-0.2,4.1-1.2,7-3,8.7c-1.8,1.8-4.2,2.7-7.3,2.7c-1.7,0-3.2-0.4-4.4-1.2c-1.2-0.8-2.4-2.1-3.5-4h-1.4v18.9H1535.2z M1550.4,521.7
		c1.3,0,2.4-0.3,3.2-0.9c0.8-0.6,1.2-1.5,1.2-2.8c0.1-2,0.2-4,0.3-6c0-2,0.1-4,0.1-6.1c0-2,0-4-0.1-6c0-1.9-0.1-3.8-0.3-5.6
		c0-1.1-0.4-2-1-2.5c-0.6-0.6-1.6-0.8-2.8-0.8c-1.2,0-2.4,0.3-3.6,0.9s-2,1.4-2.5,2.5v23.8c0.6,1.2,1.3,2.1,2.2,2.6
		C1547.9,521.4,1549,521.7,1550.4,521.7z"/>
	<path class="st4" d="M1587.6,528.7c-4.9,0-8.5-0.9-10.6-2.8c-2.1-1.9-3.3-4.9-3.5-9.1c-0.1-1.3-0.1-2.8-0.1-4.7c0-1.9,0-3.8,0-5.8
		c0-2,0-3.9,0.1-5.7s0.1-3.2,0.1-4.2c0.3-4.3,1.5-7.4,3.7-9.3c2.2-1.9,5.6-2.8,10.3-2.8c4.7,0,8.2,0.9,10.3,2.8s3.3,4.8,3.5,8.9
		c0,0.6,0,1.6,0.1,2.9c0,1.4,0,2.9,0,4.6c0,1.7-0.1,3.2-0.1,4.7H1583c0,1.6,0,3.1,0.1,4.7c0,1.6,0.1,3.3,0.1,5
		c0,1.3,0.4,2.3,1.1,2.9c0.7,0.6,1.8,0.9,3.3,0.9c1.5,0,2.6-0.3,3.1-0.9c0.6-0.6,0.9-1.6,1-3c0-0.7,0.1-1.6,0.1-2.5
		c0-1,0-2.1-0.1-3.5h9.5c0,0.4,0.1,1.2,0.1,2.2c0,1.1,0,2,0,2.8c-0.2,4.3-1.4,7.3-3.5,9.2C1595.7,527.8,1592.3,528.7,1587.6,528.7z
		 M1583,501.4h8.8c0-0.9,0-1.9,0-2.8s0-1.7,0-2.4c0-0.7,0-1.1-0.1-1.4c-0.1-1.3-0.4-2.2-1.1-2.7c-0.6-0.5-1.7-0.8-3.2-0.8
		c-1.6,0-2.7,0.3-3.3,0.8c-0.6,0.6-1,1.5-1,2.7c0,1.1-0.1,2.2-0.1,3.3C1583,499.2,1583,500.3,1583,501.4z"/>
	<path class="st4" d="M1610.4,528v-43.2h9.8v5.1h1.8c0.3-2,1.1-3.4,2.2-4.2c1.1-0.8,2.6-1.2,4.4-1.2c0.6,0,1.2,0,1.7,0.1
		s1.1,0.1,1.5,0.1v7.3h-3.1c-2.4,0-4.4,0.3-5.8,1s-2.3,1.9-2.7,3.7V528H1610.4z"/>
</g>
<g>
	<path class="st2" d="M104.9,344.9v-77.1h19c6.6,0,11.3,1.3,14.3,4c2.9,2.7,4.5,7.1,4.7,13.2c0.1,3.1,0.1,6,0.1,8.6
		c0,2.6,0,5.3-0.1,8.2c-0.2,6.1-1.8,10.5-4.7,13.2c-2.9,2.7-7.7,4-14.3,4h-6.2v25.9H104.9z M117.6,307.8h6.2c2.1,0,3.7-0.4,4.7-1.3
		c1-0.9,1.5-2.2,1.6-4c0.1-1.8,0.2-3.7,0.2-5.8c0-2.1,0-4.1,0-6.2c0-2.1-0.1-4.1-0.2-6c-0.1-1.8-0.6-3.1-1.6-4
		c-1-0.9-2.6-1.3-4.6-1.3h-6.2V307.8z"/>
	<path class="st2" d="M154.8,344.9v-57.8h13.1v6.8h2.4c0.4-2.7,1.4-4.6,2.9-5.6c1.5-1,3.5-1.6,5.9-1.6c0.8,0,1.5,0,2.3,0.1
		c0.8,0.1,1.4,0.1,2,0.1v9.7h-4.1c-3.3,0-5.9,0.5-7.7,1.4c-1.9,0.9-3.1,2.6-3.6,4.9v41.9H154.8z"/>
	<path class="st2" d="M210.3,345.8c-4.6,0-8.2-0.6-10.9-1.8c-2.7-1.2-4.7-3.1-6-5.7c-1.3-2.6-2.1-6.1-2.3-10.4
		c-0.1-1.4-0.1-3.2-0.1-5.2c0-2.1,0-4.3,0-6.6c0-2.3,0-4.6,0-6.7c0-2.1,0.1-3.9,0.1-5.3c0.3-4.4,1-7.9,2.3-10.5
		c1.3-2.6,3.3-4.5,6-5.7c2.7-1.2,6.4-1.7,10.9-1.7c4.6,0,8.3,0.6,11,1.8c2.7,1.2,4.7,3.1,5.9,5.8c1.3,2.6,2,6,2.2,10.3
		c0.1,1.4,0.1,3.2,0.2,5.3c0,2.1,0.1,4.3,0.1,6.6c0,2.3,0,4.5-0.1,6.6c0,2.1-0.1,3.9-0.2,5.4c-0.3,4.3-1,7.8-2.3,10.4
		c-1.3,2.6-3.2,4.5-5.9,5.7C218.6,345.2,214.9,345.8,210.3,345.8z M210.3,336.2c2.3,0,3.9-0.4,4.8-1.3c0.9-0.9,1.5-2.2,1.5-3.9
		c0.1-2.9,0.2-5.5,0.2-8c0-2.5,0.1-4.9,0.1-7.3c0-2.4,0-4.7-0.1-7.2c0-2.4-0.1-5-0.2-7.7c-0.1-1.7-0.6-3-1.5-3.8
		c-0.9-0.9-2.6-1.3-4.8-1.3c-2.2,0-3.9,0.5-4.9,1.4c-1,0.9-1.5,2.2-1.6,3.8c-0.1,2.1-0.2,4.4-0.2,6.8c0,2.4,0,4.9,0,7.5
		c0,2.6,0,5.2,0.1,7.9c0,2.6,0.1,5.3,0.2,8c0.1,1.7,0.6,3,1.6,3.9C206.4,335.8,208.1,336.2,210.3,336.2z"/>
	<path class="st2" d="M254.4,345.8c-4.1,0-7.2-1.2-9.3-3.6c-2.1-2.4-3.3-6.3-3.6-11.7c-0.1-1.9-0.2-4.1-0.2-6.7c0-2.6,0-5.3,0-8
		c0-2.8,0-5.4,0.1-7.9c0-2.5,0.1-4.6,0.2-6.4c0.2-5.5,1.5-9.4,3.7-11.8c2.2-2.3,5.4-3.5,9.4-3.5c3.1,0,5.4,0.6,6.9,1.8
		c1.6,1.2,3,2.9,4.4,5.2h1.9v-25.3h13v77.1h-13v-6h-2c-1.3,2.2-2.8,3.9-4.4,5.1C259.7,345.2,257.4,345.8,254.4,345.8z M259.6,336.5
		c1.6,0,3.2-0.4,4.8-1.2c1.6-0.8,2.7-1.9,3.4-3.3v-31.9c-0.6-1.4-1.8-2.6-3.4-3.3c-1.6-0.8-3.2-1.2-4.8-1.2c-1.7,0-3,0.4-3.8,1.1
		c-0.8,0.8-1.3,1.9-1.3,3.4c-0.2,3.4-0.3,7-0.4,10.6c-0.1,3.7-0.1,7.3,0,10.8c0.1,3.6,0.2,6.9,0.3,10c0.1,1.7,0.5,3,1.3,3.8
		C256.6,336.1,257.8,336.5,259.6,336.5z"/>
	<path class="st2" d="M307.3,345.8c-4.1,0-7.3-1.2-9.7-3.6c-2.4-2.4-3.5-6.3-3.5-11.7v-43.5H307l0.1,44.5c0,1.7,0.4,2.9,1.2,3.7
		c0.8,0.8,2.1,1.2,3.9,1.2c1.6,0,3.3-0.4,4.9-1.2c1.6-0.8,2.7-1.9,3.4-3.3v-44.9h13v57.8h-13v-6h-1.8c-1.5,2.5-3.1,4.2-4.9,5.3
		C311.9,345.3,309.8,345.8,307.3,345.8z"/>
	<path class="st2" d="M370.8,308.8c0-0.7,0.1-1.6,0.1-2.7c0-1,0-2.1,0-3.1c0-1,0-1.9-0.1-2.6c-0.1-1.6-0.5-2.7-1.3-3.5
		c-0.8-0.8-2.3-1.2-4.4-1.2c-2.1,0-3.6,0.4-4.4,1.1c-0.8,0.7-1.3,1.9-1.3,3.6c-0.1,3-0.2,5.7-0.2,8.3c0,2.6,0,5,0,7.4
		c0,2.4,0,4.8,0,7.3c0,2.5,0.1,5.1,0.2,7.8c0.1,1.8,0.5,3.1,1.4,3.9c0.9,0.8,2.4,1.2,4.5,1.2c2.1,0,3.5-0.4,4.3-1.3
		c0.8-0.8,1.2-2.1,1.2-3.9c0.1-1.1,0.1-2.2,0.1-3.4s0-2.8-0.1-4.6h12.7c0.1,0.6,0.1,1.6,0.1,3c0,1.4,0,2.7,0,3.8
		c-0.3,5.7-1.8,9.8-4.6,12.3c-2.8,2.5-7.4,3.7-13.6,3.7c-6.6,0-11.3-1.3-14.2-3.8c-2.8-2.5-4.4-6.6-4.7-12.2
		c-0.1-1.7-0.2-3.8-0.2-6.3c0-2.5,0-5.1,0-7.8c0-2.7,0-5.3,0.1-7.6c0-2.4,0.1-4.3,0.2-5.7c0.4-5.8,2-10,4.9-12.5
		c2.9-2.5,7.5-3.7,13.8-3.7c6.4,0,11,1.2,13.8,3.7c2.8,2.4,4.4,6.5,4.6,12c0.1,1.1,0.1,2.4,0,3.9c0,1.5-0.1,2.5-0.1,3H370.8z"/>
	<path class="st2" d="M418,345.8c-7.1,0-12.2-1.2-15.2-3.7c-3-2.5-4.5-6.6-4.6-12.5l-0.1-32.9h-5.5v-9.6h5.8v-16.4h13v16.4H422v9.6
		h-11l0.1,34.4c0,2.1,0.5,3.4,1.5,4.1c1,0.7,2.8,1,5.3,1c0.9,0,1.7,0,2.5,0c0.8,0,1.7,0,2.6,0v9.2c-0.8,0.1-1.6,0.2-2.4,0.3
		C419.9,345.8,418.9,345.8,418,345.8z"/>
	<path class="st2" d="M449.6,345.8c-6.1,0-10.5-1.2-13.1-3.7c-2.6-2.5-4-6.6-4.3-12.3c0-1.3,0-2.5,0-3.5c0-1.1,0.1-1.9,0.1-2.5h11.4
		c-0.1,1.9-0.1,3.4-0.1,4.5c0,1.1,0,2.1,0.1,3c0.1,1.9,0.6,3.2,1.6,3.9c1,0.7,2.4,1.1,4.3,1.1c2.3,0,3.9-0.4,5-1.2
		c1-0.8,1.5-2.1,1.5-4c0-0.8,0-1.4,0-1.6c0-0.3,0-0.5,0-0.7s0-0.7,0-1.5c0-1.3-0.3-2.3-0.8-3.1c-0.5-0.8-1.5-1.4-3-1.8l-6.7-1.7
		c-3-0.8-5.5-1.8-7.5-3c-2-1.2-3.6-2.8-4.6-4.7c-1-1.9-1.6-4.3-1.6-7.1c0-0.6,0-1.2,0-1.8c0-0.5,0-1.1,0-1.6c0-5.8,1.4-9.9,4.2-12.5
		c2.7-2.5,7.5-3.8,14.2-3.8c6.1,0,10.5,1.2,13.1,3.7c2.6,2.4,4.1,6.5,4.3,12c0,0.7,0,1.7,0,3.2c0,1.4-0.1,2.4-0.2,3h-11.8
		c0-0.7,0.1-1.6,0.1-2.6c0-1,0-1.9,0-2.8c0-0.9,0-1.6-0.1-2.2c-0.1-1.7-0.5-2.9-1.3-3.6c-0.8-0.7-2.2-1.1-4.2-1.1
		c-2.1,0-3.5,0.4-4.4,1.1c-0.8,0.7-1.3,1.9-1.3,3.6c0,0.2,0,0.6,0,1.3c0,0.6,0,1.6,0,2.9c0,1.6,0.3,2.9,0.8,3.8
		c0.6,0.9,1.7,1.6,3.3,2l6,1.4c4.5,1,7.9,2.7,10.1,4.9c2.2,2.2,3.4,5.5,3.4,9.9c0,0.6,0,1.2,0,1.8c0,0.6,0,1.2,0,1.8
		c0,5.6-1.5,9.6-4.3,12C460.9,344.6,456.2,345.8,449.6,345.8z"/>
</g>
<g>
	<path class="st3" d="M166.3,446.7h-4.8v-22.9h13.1v4h-8.4v5.9h7.8v4h-7.8V446.7z"/>
	<path class="st3" d="M187.4,428.8c2.4,0,4.2,0.5,5.4,1.5s1.9,2.6,1.9,4.7v11.7h-3.3l-0.9-2.4h-0.1c-0.5,0.6-1,1.1-1.5,1.5
		c-0.5,0.4-1.1,0.7-1.8,0.9c-0.7,0.2-1.5,0.3-2.5,0.3c-1,0-2-0.2-2.8-0.6c-0.8-0.4-1.5-1-1.9-1.8c-0.5-0.8-0.7-1.9-0.7-3.1
		c0-1.9,0.7-3.2,2-4.1c1.3-0.9,3.3-1.4,5.9-1.5l3-0.1v-0.8c0-0.9-0.2-1.6-0.7-2s-1.2-0.6-2-0.6c-0.8,0-1.7,0.1-2.5,0.4
		c-0.8,0.2-1.6,0.5-2.4,0.9l-1.6-3.2c0.9-0.5,2-0.9,3.1-1.2C184.9,429,186.1,428.8,187.4,428.8z M189.9,438.6l-1.9,0.1
		c-1.5,0-2.6,0.3-3.2,0.8c-0.6,0.5-0.9,1.2-0.9,2c0,0.7,0.2,1.3,0.6,1.6c0.4,0.3,1,0.5,1.7,0.5c1,0,1.9-0.3,2.6-0.9
		c0.7-0.6,1.1-1.5,1.1-2.6V438.6z"/>
	<path class="st3" d="M208.1,447c-1.7,0-3.2-0.3-4.4-0.9c-1.2-0.6-2.2-1.6-2.8-2.9c-0.6-1.3-1-3-1-5.1c0-2.1,0.4-3.9,1.1-5.2
		s1.7-2.3,3-3c1.3-0.6,2.8-1,4.5-1c1.2,0,2.3,0.1,3.1,0.4c0.9,0.2,1.7,0.5,2.3,0.8l-1.4,3.7c-0.8-0.3-1.5-0.6-2.1-0.7
		c-0.6-0.2-1.3-0.3-1.9-0.3c-0.8,0-1.5,0.2-2.1,0.6c-0.6,0.4-1,1-1.2,1.8s-0.4,1.8-0.4,2.9c0,1.2,0.1,2.1,0.4,2.9
		c0.3,0.8,0.7,1.3,1.3,1.7s1.2,0.6,2,0.6c1,0,1.9-0.1,2.7-0.4c0.8-0.3,1.5-0.6,2.3-1.1v4.1c-0.7,0.5-1.5,0.8-2.3,1
		C210.4,446.9,209.4,447,208.1,447z"/>
	<path class="st3" d="M221.4,422.3c0.7,0,1.3,0.2,1.8,0.5c0.5,0.3,0.8,0.9,0.8,1.8c0,0.9-0.3,1.5-0.8,1.8s-1.1,0.5-1.8,0.5
		c-0.7,0-1.3-0.2-1.8-0.5c-0.5-0.3-0.8-1-0.8-1.8c0-0.9,0.3-1.5,0.8-1.8C220,422.5,220.7,422.3,221.4,422.3z M223.8,429.2v17.5H219
		v-17.5H223.8z"/>
	<path class="st3" d="M237.4,428.8c2.4,0,4.2,0.5,5.4,1.5s1.9,2.6,1.9,4.7v11.7h-3.3l-0.9-2.4h-0.1c-0.5,0.6-1,1.1-1.5,1.5
		c-0.5,0.4-1.1,0.7-1.8,0.9c-0.7,0.2-1.5,0.3-2.5,0.3c-1,0-2-0.2-2.8-0.6c-0.8-0.4-1.5-1-1.9-1.8c-0.5-0.8-0.7-1.9-0.7-3.1
		c0-1.9,0.7-3.2,2-4.1c1.3-0.9,3.3-1.4,5.9-1.5l3-0.1v-0.8c0-0.9-0.2-1.6-0.7-2s-1.2-0.6-2-0.6c-0.8,0-1.7,0.1-2.5,0.4
		c-0.8,0.2-1.6,0.5-2.4,0.9l-1.6-3.2c0.9-0.5,2-0.9,3.1-1.2C235,429,236.2,428.8,237.4,428.8z M239.9,438.6l-1.9,0.1
		c-1.5,0-2.6,0.3-3.2,0.8c-0.6,0.5-0.9,1.2-0.9,2c0,0.7,0.2,1.3,0.6,1.6c0.4,0.3,1,0.5,1.7,0.5c1,0,1.9-0.3,2.6-0.9
		c0.7-0.6,1.1-1.5,1.1-2.6V438.6z"/>
	<path class="st3" d="M255.9,446.7h-4.8v-24.4h4.8V446.7z"/>
	<path class="st3" d="M285.7,446.7h-13.2v-22.9h13.2v4h-8.3v5h7.8v4h-7.8v5.9h8.3V446.7z"/>
	<path class="st3" d="M298.7,447c-1.7,0-3.2-0.3-4.4-0.9c-1.2-0.6-2.2-1.6-2.8-2.9c-0.6-1.3-1-3-1-5.1c0-2.1,0.4-3.9,1.1-5.2
		s1.7-2.3,3-3c1.3-0.6,2.8-1,4.5-1c1.2,0,2.3,0.1,3.1,0.4c0.9,0.2,1.7,0.5,2.3,0.8l-1.4,3.7c-0.8-0.3-1.5-0.6-2.1-0.7
		c-0.6-0.2-1.3-0.3-1.9-0.3c-0.8,0-1.5,0.2-2.1,0.6c-0.6,0.4-1,1-1.2,1.8s-0.4,1.8-0.4,2.9c0,1.2,0.1,2.1,0.4,2.9
		c0.3,0.8,0.7,1.3,1.3,1.7s1.2,0.6,2,0.6c1,0,1.9-0.1,2.7-0.4c0.8-0.3,1.5-0.6,2.3-1.1v4.1c-0.7,0.5-1.5,0.8-2.3,1
		C300.9,446.9,299.9,447,298.7,447z"/>
	<path class="st3" d="M319.2,428.9c2,0,3.6,0.8,4.8,2.3c1.2,1.5,1.8,3.8,1.8,6.8c0,2-0.3,3.7-0.9,5c-0.6,1.4-1.4,2.4-2.4,3.1
		c-1,0.7-2.2,1-3.5,1c-0.8,0-1.6-0.1-2.2-0.3s-1.1-0.5-1.6-0.8s-0.8-0.7-1.1-1.1H314c0.1,0.4,0.1,0.8,0.2,1.3c0,0.4,0.1,0.9,0.1,1.3
		v7.1h-4.8v-25.2h3.9l0.7,2.3h0.2c0.3-0.5,0.7-0.9,1.1-1.3c0.4-0.4,1-0.7,1.6-0.9S318.4,428.9,319.2,428.9z M317.7,432.7
		c-0.8,0-1.5,0.2-2,0.5c-0.5,0.3-0.8,0.9-1.1,1.6c-0.2,0.7-0.3,1.6-0.4,2.6v0.5c0,1.1,0.1,2.1,0.3,2.9c0.2,0.8,0.6,1.4,1.1,1.8
		c0.5,0.4,1.2,0.6,2.1,0.6c0.7,0,1.3-0.2,1.8-0.6c0.5-0.4,0.8-1,1.1-1.8c0.2-0.8,0.4-1.8,0.4-2.9c0-1.7-0.3-3-0.8-3.9
		S318.8,432.7,317.7,432.7z"/>
	<path class="st3" d="M341,428.9c0.2,0,0.5,0,0.8,0s0.6,0.1,0.8,0.1l-0.4,4.5c-0.2-0.1-0.4-0.1-0.7-0.1c-0.3,0-0.5,0-0.7,0
		c-0.6,0-1.2,0.1-1.8,0.2c-0.6,0.2-1.1,0.4-1.6,0.8c-0.5,0.4-0.8,0.8-1.1,1.4s-0.4,1.3-0.4,2.1v8.9h-4.8v-17.5h3.6l0.7,2.9h0.2
		c0.3-0.6,0.8-1.1,1.3-1.6c0.5-0.5,1.1-0.9,1.8-1.2C339.6,429,340.3,428.9,341,428.9z"/>
	<path class="st3" d="M354.5,428.9c1.6,0,3,0.3,4.2,0.9c1.2,0.6,2.1,1.5,2.7,2.7c0.6,1.2,1,2.6,1,4.3v2.3h-11.3
		c0.1,1.3,0.5,2.4,1.2,3.2c0.8,0.8,1.8,1.2,3.2,1.2c1.1,0,2.1-0.1,3.1-0.3c0.9-0.2,1.9-0.6,2.9-1v3.7c-0.9,0.4-1.8,0.7-2.7,0.9
		c-0.9,0.2-2.1,0.3-3.4,0.3c-1.8,0-3.3-0.3-4.7-1c-1.4-0.6-2.4-1.6-3.2-3c-0.8-1.3-1.2-3-1.2-5c0-2,0.3-3.8,1-5.1
		c0.7-1.4,1.7-2.4,2.9-3.1C351.4,429.2,352.9,428.9,354.5,428.9z M354.6,432.3c-0.9,0-1.7,0.3-2.3,0.9c-0.6,0.6-1,1.5-1.1,2.8h6.7
		c0-0.7-0.1-1.3-0.4-1.9c-0.2-0.6-0.6-1-1.1-1.3C355.9,432.4,355.3,432.3,354.6,432.3z"/>
	<path class="st3" d="M379.9,441.5c0,1.2-0.3,2.2-0.8,3c-0.6,0.8-1.4,1.4-2.5,1.9c-1.1,0.4-2.5,0.6-4.1,0.6c-1.2,0-2.3-0.1-3.1-0.2
		c-0.9-0.2-1.8-0.4-2.6-0.8v-4c1,0.4,2,0.8,3.1,1.1c1.1,0.3,2.1,0.4,2.9,0.4c0.9,0,1.6-0.1,2-0.4c0.4-0.3,0.6-0.6,0.6-1.1
		c0-0.3-0.1-0.6-0.2-0.8s-0.5-0.5-1-0.8s-1.4-0.7-2.5-1.2c-1.1-0.5-2-0.9-2.7-1.4c-0.7-0.5-1.2-1-1.6-1.7c-0.3-0.6-0.5-1.5-0.5-2.5
		c0-1.6,0.6-2.8,1.9-3.7c1.3-0.8,2.9-1.2,5.1-1.2c1.1,0,2.1,0.1,3.1,0.3s2,0.6,3.1,1.1l-1.4,3.5c-0.9-0.4-1.7-0.7-2.5-0.9
		c-0.8-0.2-1.6-0.4-2.3-0.4c-0.7,0-1.2,0.1-1.6,0.3s-0.5,0.5-0.5,0.9c0,0.3,0.1,0.5,0.3,0.8c0.2,0.2,0.5,0.5,1.1,0.7s1.3,0.6,2.3,1
		c1,0.4,1.9,0.8,2.6,1.3s1.3,1,1.7,1.6C379.7,439.6,379.9,440.5,379.9,441.5z"/>
	<path class="st3" d="M397.4,441.5c0,1.2-0.3,2.2-0.8,3c-0.6,0.8-1.4,1.4-2.5,1.9c-1.1,0.4-2.5,0.6-4.1,0.6c-1.2,0-2.3-0.1-3.1-0.2
		c-0.9-0.2-1.8-0.4-2.6-0.8v-4c1,0.4,2,0.8,3.1,1.1c1.1,0.3,2.1,0.4,2.9,0.4c0.9,0,1.6-0.1,2-0.4c0.4-0.3,0.6-0.6,0.6-1.1
		c0-0.3-0.1-0.6-0.2-0.8s-0.5-0.5-1-0.8s-1.4-0.7-2.5-1.2c-1.1-0.5-2-0.9-2.7-1.4c-0.7-0.5-1.2-1-1.6-1.7c-0.3-0.6-0.5-1.5-0.5-2.5
		c0-1.6,0.6-2.8,1.9-3.7c1.3-0.8,2.9-1.2,5.1-1.2c1.1,0,2.1,0.1,3.1,0.3s2,0.6,3.1,1.1l-1.4,3.5c-0.9-0.4-1.7-0.7-2.5-0.9
		c-0.8-0.2-1.6-0.4-2.3-0.4c-0.7,0-1.2,0.1-1.6,0.3s-0.5,0.5-0.5,0.9c0,0.3,0.1,0.5,0.3,0.8c0.2,0.2,0.5,0.5,1.1,0.7s1.3,0.6,2.3,1
		c1,0.4,1.9,0.8,2.6,1.3s1.3,1,1.7,1.6C397.2,439.6,397.4,440.5,397.4,441.5z"/>
	<path class="st3" d="M404.9,422.3c0.7,0,1.3,0.2,1.8,0.5c0.5,0.3,0.8,0.9,0.8,1.8c0,0.9-0.3,1.5-0.8,1.8s-1.1,0.5-1.8,0.5
		c-0.7,0-1.3-0.2-1.8-0.5c-0.5-0.3-0.8-1-0.8-1.8c0-0.9,0.3-1.5,0.8-1.8C403.6,422.5,404.2,422.3,404.9,422.3z M407.3,429.2v17.5
		h-4.8v-17.5H407.3z"/>
	<path class="st3" d="M429.7,437.9c0,1.5-0.2,2.8-0.6,3.9c-0.4,1.1-1,2.1-1.7,2.9c-0.7,0.8-1.6,1.4-2.7,1.8
		c-1.1,0.4-2.2,0.6-3.6,0.6c-1.2,0-2.4-0.2-3.4-0.6c-1-0.4-1.9-1-2.7-1.8c-0.8-0.8-1.3-1.7-1.8-2.9c-0.4-1.1-0.6-2.4-0.6-3.9
		c0-1.9,0.3-3.6,1-4.9c0.7-1.3,1.7-2.4,2.9-3.1c1.3-0.7,2.8-1.1,4.6-1.1c1.6,0,3.1,0.4,4.4,1.1c1.3,0.7,2.3,1.7,3,3.1
		C429.4,434.3,429.7,436,429.7,437.9z M417.6,437.9c0,1.2,0.1,2.1,0.4,2.9s0.6,1.4,1.2,1.8c0.5,0.4,1.2,0.6,2.1,0.6
		c0.8,0,1.5-0.2,2.1-0.6c0.5-0.4,0.9-1,1.2-1.8c0.2-0.8,0.4-1.8,0.4-2.9c0-1.2-0.1-2.1-0.4-2.9c-0.2-0.8-0.6-1.3-1.2-1.7
		s-1.2-0.6-2.1-0.6c-1.3,0-2.2,0.4-2.8,1.3C417.9,434.9,417.6,436.2,417.6,437.9z"/>
	<path class="st3" d="M445.1,428.9c1.9,0,3.4,0.5,4.5,1.5c1.1,1,1.7,2.7,1.7,4.9v11.4h-4.8v-10.2c0-1.3-0.2-2.2-0.7-2.8
		s-1.2-1-2.1-1c-1.5,0-2.5,0.5-3,1.5c-0.5,1-0.8,2.4-0.8,4.3v8.2h-4.8v-17.5h3.7l0.6,2.2h0.3c0.4-0.6,0.8-1.1,1.4-1.5
		c0.6-0.4,1.2-0.7,1.9-0.8C443.6,429,444.3,428.9,445.1,428.9z"/>
	<path class="st3" d="M475.2,423.8c3,0,5.1,0.6,6.5,1.9c1.4,1.3,2,3,2,5.2c0,1-0.2,2-0.5,2.9c-0.3,0.9-0.8,1.7-1.5,2.4
		c-0.7,0.7-1.6,1.3-2.7,1.7c-1.1,0.4-2.5,0.6-4.2,0.6h-2.1v8.2h-4.9v-22.9H475.2z M474.9,427.8h-2.2v6.8h1.6c0.9,0,1.7-0.1,2.4-0.4
		c0.7-0.2,1.2-0.6,1.6-1.1c0.4-0.5,0.5-1.2,0.5-2c0-1.1-0.3-2-0.9-2.5C477.2,428.1,476.2,427.8,474.9,427.8z"/>
	<path class="st3" d="M496.2,428.8c2.4,0,4.2,0.5,5.4,1.5s1.9,2.6,1.9,4.7v11.7h-3.3l-0.9-2.4h-0.1c-0.5,0.6-1,1.1-1.5,1.5
		c-0.5,0.4-1.1,0.7-1.8,0.9c-0.7,0.2-1.5,0.3-2.5,0.3c-1,0-2-0.2-2.8-0.6c-0.8-0.4-1.5-1-1.9-1.8c-0.5-0.8-0.7-1.9-0.7-3.1
		c0-1.9,0.7-3.2,2-4.1c1.3-0.9,3.3-1.4,5.9-1.5l3-0.1v-0.8c0-0.9-0.2-1.6-0.7-2s-1.2-0.6-2-0.6c-0.8,0-1.7,0.1-2.5,0.4
		c-0.8,0.2-1.6,0.5-2.4,0.9l-1.6-3.2c0.9-0.5,2-0.9,3.1-1.2C493.8,429,495,428.8,496.2,428.8z M498.8,438.6l-1.9,0.1
		c-1.5,0-2.6,0.3-3.2,0.8c-0.6,0.5-0.9,1.2-0.9,2c0,0.7,0.2,1.3,0.6,1.6c0.4,0.3,1,0.5,1.7,0.5c1,0,1.9-0.3,2.6-0.9
		c0.7-0.6,1.1-1.5,1.1-2.6V438.6z"/>
	<path class="st3" d="M517.3,443.2c0.5,0,1-0.1,1.5-0.2s1-0.2,1.5-0.4v3.6c-0.5,0.2-1.1,0.4-1.9,0.6s-1.6,0.2-2.5,0.2
		c-1,0-2-0.2-2.8-0.5c-0.8-0.3-1.5-0.9-2-1.8c-0.5-0.8-0.7-2-0.7-3.5v-8.5h-2.3v-2l2.6-1.6l1.4-3.7h3.1v3.7h4.9v3.6h-4.9v8.5
		c0,0.7,0.2,1.2,0.6,1.5C516.2,443.1,516.7,443.2,517.3,443.2z"/>
	<path class="st3" d="M532.4,447c-1.7,0-3.2-0.3-4.4-0.9c-1.2-0.6-2.2-1.6-2.8-2.9c-0.6-1.3-1-3-1-5.1c0-2.1,0.4-3.9,1.1-5.2
		s1.7-2.3,3-3c1.3-0.6,2.8-1,4.5-1c1.2,0,2.3,0.1,3.1,0.4c0.9,0.2,1.7,0.5,2.3,0.8l-1.4,3.7c-0.8-0.3-1.5-0.6-2.1-0.7
		c-0.6-0.2-1.3-0.3-1.9-0.3c-0.8,0-1.5,0.2-2.1,0.6c-0.6,0.4-1,1-1.2,1.8s-0.4,1.8-0.4,2.9c0,1.2,0.1,2.1,0.4,2.9
		c0.3,0.8,0.7,1.3,1.3,1.7s1.2,0.6,2,0.6c1,0,1.9-0.1,2.7-0.4c0.8-0.3,1.5-0.6,2.3-1.1v4.1c-0.7,0.5-1.5,0.8-2.3,1
		C534.7,446.9,533.6,447,532.4,447z"/>
	<path class="st3" d="M548,422.3v5c0,0.9,0,1.7-0.1,2.5c-0.1,0.8-0.1,1.3-0.1,1.7h0.3c0.4-0.6,0.8-1.1,1.3-1.5
		c0.5-0.4,1.1-0.7,1.7-0.8c0.6-0.2,1.3-0.3,2-0.3c1.3,0,2.4,0.2,3.3,0.7c0.9,0.4,1.7,1.1,2.2,2.1c0.5,0.9,0.8,2.2,0.8,3.7v11.4h-4.8
		v-10.2c0-1.3-0.2-2.2-0.7-2.8c-0.5-0.6-1.2-1-2.1-1s-1.7,0.2-2.3,0.7s-0.9,1.1-1.2,2c-0.2,0.9-0.3,1.9-0.3,3.2v8.2h-4.8v-24.4H548z
		"/>
</g>
<circle class="st2" cx="118.9" cy="496.9" r="14.1"/>
<g>
	<path class="st3" d="M175,501.2c0,1.4-0.3,2.5-1,3.5c-0.7,1-1.6,1.8-2.9,2.3c-1.3,0.5-2.8,0.8-4.6,0.8c-0.8,0-1.6-0.1-2.3-0.2
		c-0.8-0.1-1.5-0.3-2.2-0.5s-1.4-0.5-2-0.8V502c1.1,0.5,2.2,0.9,3.4,1.3s2.3,0.6,3.5,0.6c0.8,0,1.4-0.1,1.9-0.3
		c0.5-0.2,0.8-0.5,1.1-0.9c0.2-0.4,0.3-0.8,0.3-1.3c0-0.6-0.2-1.1-0.6-1.5c-0.4-0.4-0.9-0.8-1.6-1.1s-1.4-0.7-2.3-1.1
		c-0.5-0.3-1.1-0.6-1.7-0.9c-0.6-0.4-1.2-0.8-1.8-1.3c-0.6-0.5-1-1.2-1.4-1.9c-0.4-0.7-0.5-1.6-0.5-2.7c0-1.4,0.3-2.5,0.9-3.5
		c0.6-1,1.5-1.7,2.7-2.2c1.2-0.5,2.5-0.8,4.1-0.8c1.2,0,2.3,0.1,3.4,0.4c1.1,0.3,2.2,0.7,3.4,1.2l-1.6,3.8c-1.1-0.4-2-0.8-2.8-1
		c-0.8-0.2-1.7-0.4-2.6-0.4c-0.6,0-1.1,0.1-1.6,0.3s-0.8,0.5-1,0.8c-0.2,0.4-0.3,0.8-0.3,1.2c0,0.5,0.2,1,0.5,1.4s0.8,0.7,1.4,1.1
		s1.4,0.7,2.4,1.2c1.2,0.6,2.2,1.1,3,1.7c0.8,0.6,1.5,1.3,1.9,2.1C174.8,499,175,500,175,501.2z"/>
	<path class="st3" d="M190,489.7c2,0,3.6,0.8,4.8,2.3c1.2,1.5,1.8,3.8,1.8,6.8c0,2-0.3,3.7-0.9,5c-0.6,1.4-1.4,2.4-2.4,3.1
		c-1,0.7-2.2,1-3.5,1c-0.8,0-1.6-0.1-2.2-0.3s-1.1-0.5-1.6-0.8s-0.8-0.7-1.1-1.1h-0.3c0.1,0.4,0.1,0.8,0.2,1.3
		c0,0.4,0.1,0.9,0.1,1.3v7.1h-4.8V490h3.9l0.7,2.3h0.2c0.3-0.5,0.7-0.9,1.1-1.3c0.4-0.4,1-0.7,1.6-0.9
		C188.4,489.8,189.2,489.7,190,489.7z M188.5,493.5c-0.8,0-1.5,0.2-2,0.5c-0.5,0.3-0.8,0.9-1.1,1.6c-0.2,0.7-0.3,1.6-0.4,2.6v0.5
		c0,1.1,0.1,2.1,0.3,2.9s0.6,1.4,1.1,1.8c0.5,0.4,1.2,0.6,2.1,0.6c0.7,0,1.3-0.2,1.8-0.6c0.5-0.4,0.8-1,1.1-1.8
		c0.2-0.8,0.4-1.8,0.4-2.9c0-1.7-0.3-3-0.8-3.9C190.4,494,189.6,493.5,188.5,493.5z"/>
	<path class="st3" d="M209.2,489.7c2.4,0,4.2,0.5,5.4,1.5s1.9,2.6,1.9,4.7v11.7h-3.3l-0.9-2.4h-0.1c-0.5,0.6-1,1.1-1.5,1.5
		c-0.5,0.4-1.1,0.7-1.8,0.9s-1.5,0.3-2.5,0.3c-1,0-2-0.2-2.8-0.6c-0.8-0.4-1.5-1-1.9-1.8c-0.5-0.8-0.7-1.9-0.7-3.1
		c0-1.9,0.7-3.2,2-4.1c1.3-0.9,3.3-1.4,5.9-1.5l3-0.1v-0.8c0-0.9-0.2-1.6-0.7-2s-1.2-0.6-2-0.6c-0.8,0-1.7,0.1-2.5,0.4
		c-0.8,0.2-1.6,0.5-2.4,0.9l-1.6-3.2c0.9-0.5,2-0.9,3.1-1.2C206.8,489.8,208,489.7,209.2,489.7z M211.7,499.4l-1.9,0.1
		c-1.5,0-2.6,0.3-3.2,0.8c-0.6,0.5-0.9,1.2-0.9,2c0,0.7,0.2,1.3,0.6,1.6c0.4,0.3,1,0.5,1.7,0.5c1,0,1.9-0.3,2.6-0.9
		c0.7-0.6,1.1-1.5,1.1-2.6V499.4z"/>
	<path class="st3" d="M232.6,489.7c0.2,0,0.5,0,0.8,0c0.3,0,0.6,0.1,0.8,0.1l-0.4,4.5c-0.2-0.1-0.4-0.1-0.7-0.1s-0.5,0-0.7,0
		c-0.6,0-1.2,0.1-1.8,0.2c-0.6,0.2-1.1,0.4-1.6,0.8c-0.5,0.3-0.8,0.8-1.1,1.4c-0.3,0.6-0.4,1.3-0.4,2.1v8.9h-4.8V490h3.6l0.7,2.9
		h0.2c0.3-0.6,0.8-1.1,1.3-1.6c0.5-0.5,1.1-0.9,1.8-1.2C231.1,489.8,231.9,489.7,232.6,489.7z"/>
	<path class="st3" d="M243.7,483.2v10.9c0,0.7,0,1.3-0.1,2c-0.1,0.7-0.1,1.3-0.2,2h0.1c0.3-0.5,0.7-0.9,1-1.4
		c0.3-0.4,0.7-0.9,1.1-1.3l4.9-5.3h5.4l-7,7.6l7.4,9.9h-5.5l-5-7.1l-2.1,1.6v5.5h-4.8v-24.4H243.7z"/>
	<path class="st3" d="M284.4,507.6l-1.7-5.5h-8.4l-1.7,5.5h-5.2l8.1-23h5.9l8.1,23H284.4z M281.6,498l-1.7-5.3
		c-0.1-0.4-0.2-0.8-0.4-1.4c-0.2-0.6-0.3-1.1-0.5-1.7s-0.3-1.1-0.4-1.5c-0.1,0.4-0.2,1-0.4,1.6c-0.2,0.6-0.4,1.2-0.5,1.8
		c-0.2,0.6-0.3,1-0.4,1.2l-1.6,5.3H281.6z"/>
	<path class="st3" d="M300.7,484.6c2.1,0,3.8,0.3,5.2,0.8s2.4,1.3,3,2.3c0.7,1,1,2.3,1,3.8c0,1-0.2,2-0.6,2.7
		c-0.4,0.8-0.9,1.4-1.6,2c-0.6,0.5-1.3,1-2.1,1.3l6.7,10h-5.4l-5.5-8.8h-2.6v8.8H294v-22.9H300.7z M300.3,488.6h-1.5v6.2h1.6
		c1.6,0,2.8-0.3,3.5-0.8c0.7-0.5,1-1.3,1-2.4c0-1.1-0.4-1.9-1.1-2.3S301.9,488.6,300.3,488.6z"/>
	<path class="st3" d="M340.5,507.6l-1.7-5.5h-8.4l-1.7,5.5h-5.2l8.1-23h5.9l8.1,23H340.5z M337.7,498l-1.7-5.3
		c-0.1-0.4-0.2-0.8-0.4-1.4c-0.2-0.6-0.3-1.1-0.5-1.7s-0.3-1.1-0.4-1.5c-0.1,0.4-0.2,1-0.4,1.6c-0.2,0.6-0.4,1.2-0.5,1.8
		c-0.2,0.6-0.3,1-0.4,1.2l-1.6,5.3H337.7z"/>
	<path class="st3" d="M361.9,502.3c0,1.2-0.3,2.2-0.8,3c-0.6,0.8-1.4,1.4-2.5,1.9c-1.1,0.4-2.5,0.6-4.1,0.6c-1.2,0-2.3-0.1-3.1-0.2
		c-0.9-0.2-1.8-0.4-2.6-0.8v-4c1,0.4,2,0.8,3.1,1.1c1.1,0.3,2.1,0.4,2.9,0.4c0.9,0,1.6-0.1,2-0.4c0.4-0.3,0.6-0.6,0.6-1.1
		c0-0.3-0.1-0.6-0.2-0.8c-0.2-0.2-0.5-0.5-1-0.8c-0.5-0.3-1.4-0.7-2.5-1.2c-1.1-0.5-2-0.9-2.7-1.4c-0.7-0.5-1.2-1-1.6-1.7
		c-0.3-0.6-0.5-1.5-0.5-2.5c0-1.6,0.6-2.8,1.9-3.7c1.3-0.8,2.9-1.2,5.1-1.2c1.1,0,2.1,0.1,3.1,0.3c1,0.2,2,0.6,3.1,1.1l-1.4,3.5
		c-0.9-0.4-1.7-0.7-2.5-0.9c-0.8-0.2-1.6-0.4-2.3-0.4c-0.7,0-1.2,0.1-1.6,0.3c-0.4,0.2-0.5,0.5-0.5,0.9c0,0.3,0.1,0.5,0.3,0.8
		c0.2,0.2,0.5,0.5,1.1,0.7s1.3,0.6,2.3,1c1,0.4,1.9,0.8,2.6,1.3s1.3,1,1.7,1.6C361.7,500.5,361.9,501.3,361.9,502.3z"/>
	<path class="st3" d="M379.3,502.3c0,1.2-0.3,2.2-0.8,3c-0.6,0.8-1.4,1.4-2.5,1.9c-1.1,0.4-2.5,0.6-4.1,0.6c-1.2,0-2.3-0.1-3.1-0.2
		c-0.9-0.2-1.8-0.4-2.6-0.8v-4c1,0.4,2,0.8,3.1,1.1c1.1,0.3,2.1,0.4,2.9,0.4c0.9,0,1.6-0.1,2-0.4c0.4-0.3,0.6-0.6,0.6-1.1
		c0-0.3-0.1-0.6-0.2-0.8c-0.2-0.2-0.5-0.5-1-0.8c-0.5-0.3-1.4-0.7-2.5-1.2c-1.1-0.5-2-0.9-2.7-1.4c-0.7-0.5-1.2-1-1.6-1.7
		c-0.3-0.6-0.5-1.5-0.5-2.5c0-1.6,0.6-2.8,1.9-3.7c1.3-0.8,2.9-1.2,5.1-1.2c1.1,0,2.1,0.1,3.1,0.3c1,0.2,2,0.6,3.1,1.1l-1.4,3.5
		c-0.9-0.4-1.7-0.7-2.5-0.9c-0.8-0.2-1.6-0.4-2.3-0.4c-0.7,0-1.2,0.1-1.6,0.3c-0.4,0.2-0.5,0.5-0.5,0.9c0,0.3,0.1,0.5,0.3,0.8
		c0.2,0.2,0.5,0.5,1.1,0.7s1.3,0.6,2.3,1c1,0.4,1.9,0.8,2.6,1.3s1.3,1,1.7,1.6C379.1,500.5,379.3,501.3,379.3,502.3z"/>
	<path class="st3" d="M391.7,489.7c1.6,0,3,0.3,4.2,0.9s2.1,1.5,2.7,2.7s1,2.6,1,4.3v2.3h-11.3c0.1,1.3,0.5,2.4,1.2,3.2
		c0.8,0.8,1.8,1.2,3.2,1.2c1.1,0,2.1-0.1,3.1-0.3c0.9-0.2,1.9-0.6,2.9-1v3.7c-0.9,0.4-1.8,0.7-2.7,0.9c-0.9,0.2-2.1,0.3-3.4,0.3
		c-1.8,0-3.3-0.3-4.7-1c-1.4-0.6-2.4-1.6-3.2-3c-0.8-1.3-1.2-3-1.2-5c0-2,0.3-3.8,1-5.1c0.7-1.4,1.7-2.4,2.9-3.1
		S390.1,489.7,391.7,489.7z M391.8,493.1c-0.9,0-1.7,0.3-2.3,0.9c-0.6,0.6-1,1.5-1.1,2.8h6.7c0-0.7-0.1-1.3-0.4-1.9
		c-0.2-0.6-0.6-1-1.1-1.3S392.5,493.1,391.8,493.1z"/>
	<path class="st3" d="M412.3,504.1c0.5,0,1-0.1,1.5-0.2s1-0.2,1.5-0.4v3.6c-0.5,0.2-1.1,0.4-1.9,0.6s-1.6,0.2-2.5,0.2
		c-1,0-2-0.2-2.8-0.5c-0.8-0.3-1.5-0.9-2-1.8c-0.5-0.8-0.7-2-0.7-3.5v-8.5h-2.3v-2l2.6-1.6l1.4-3.7h3.1v3.7h4.9v3.6h-4.9v8.5
		c0,0.7,0.2,1.2,0.6,1.5C411.2,503.9,411.7,504.1,412.3,504.1z"/>
	<path class="st3" d="M437.3,489.7c2.4,0,4.2,0.5,5.4,1.5s1.9,2.6,1.9,4.7v11.7h-3.3l-0.9-2.4h-0.1c-0.5,0.6-1,1.1-1.5,1.5
		c-0.5,0.4-1.1,0.7-1.8,0.9s-1.5,0.3-2.5,0.3c-1,0-2-0.2-2.8-0.6c-0.8-0.4-1.5-1-1.9-1.8c-0.5-0.8-0.7-1.9-0.7-3.1
		c0-1.9,0.7-3.2,2-4.1c1.3-0.9,3.3-1.4,5.9-1.5l3-0.1v-0.8c0-0.9-0.2-1.6-0.7-2s-1.2-0.6-2-0.6c-0.8,0-1.7,0.1-2.5,0.4
		c-0.8,0.2-1.6,0.5-2.4,0.9l-1.6-3.2c0.9-0.5,2-0.9,3.1-1.2C434.8,489.8,436,489.7,437.3,489.7z M439.8,499.4l-1.9,0.1
		c-1.5,0-2.6,0.3-3.2,0.8c-0.6,0.5-0.9,1.2-0.9,2c0,0.7,0.2,1.3,0.6,1.6c0.4,0.3,1,0.5,1.7,0.5c1,0,1.9-0.3,2.6-0.9
		c0.7-0.6,1.1-1.5,1.1-2.6V499.4z"/>
	<path class="st3" d="M460.9,489.7c1.9,0,3.4,0.5,4.5,1.5s1.7,2.7,1.7,4.9v11.4h-4.8v-10.2c0-1.3-0.2-2.2-0.7-2.8s-1.2-1-2.1-1
		c-1.5,0-2.5,0.5-3,1.5s-0.8,2.4-0.8,4.3v8.2h-4.8V490h3.7l0.6,2.2h0.3c0.4-0.6,0.8-1.1,1.4-1.5c0.6-0.4,1.2-0.7,1.9-0.8
		S460.2,489.7,460.9,489.7z"/>
	<path class="st3" d="M479,507.9c-2,0-3.5-0.8-4.8-2.3c-1.2-1.5-1.8-3.8-1.8-6.8c0-3,0.6-5.3,1.9-6.8c1.2-1.5,2.9-2.3,4.9-2.3
		c0.8,0,1.6,0.1,2.2,0.3c0.6,0.2,1.2,0.5,1.7,0.9s0.9,0.8,1.2,1.3h0.2c-0.1-0.3-0.1-0.8-0.2-1.5s-0.1-1.3-0.1-2v-5.6h4.8v24.4h-3.7
		l-0.9-2.3H484c-0.3,0.5-0.7,0.9-1.1,1.3c-0.5,0.4-1,0.7-1.6,0.9S479.9,507.9,479,507.9z M480.7,504.1c1.3,0,2.2-0.4,2.8-1.2
		c0.5-0.8,0.8-2,0.9-3.5v-0.5c0-1.7-0.3-3-0.8-3.9c-0.5-0.9-1.5-1.4-2.9-1.4c-1.1,0-1.9,0.5-2.5,1.4c-0.6,0.9-0.9,2.2-0.9,3.9
		c0,1.7,0.3,3,0.9,3.9C478.8,503.6,479.6,504.1,480.7,504.1z"/>
	<path class="st3" d="M505,489.7c0.2,0,0.5,0,0.8,0c0.3,0,0.6,0.1,0.8,0.1l-0.4,4.5c-0.2-0.1-0.4-0.1-0.7-0.1s-0.5,0-0.7,0
		c-0.6,0-1.2,0.1-1.8,0.2c-0.6,0.2-1.1,0.4-1.6,0.8c-0.5,0.3-0.8,0.8-1.1,1.4c-0.3,0.6-0.4,1.3-0.4,2.1v8.9h-4.8V490h3.6l0.7,2.9
		h0.2c0.3-0.6,0.8-1.1,1.3-1.6c0.5-0.5,1.1-0.9,1.8-1.2C503.6,489.8,504.3,489.7,505,489.7z"/>
	<path class="st3" d="M527.2,498.8c0,1.5-0.2,2.8-0.6,3.9c-0.4,1.1-1,2.1-1.7,2.9c-0.7,0.8-1.6,1.4-2.7,1.8
		c-1.1,0.4-2.2,0.6-3.6,0.6c-1.2,0-2.4-0.2-3.4-0.6c-1-0.4-1.9-1-2.7-1.8c-0.8-0.8-1.3-1.7-1.8-2.9c-0.4-1.1-0.6-2.4-0.6-3.9
		c0-1.9,0.3-3.6,1-4.9c0.7-1.3,1.7-2.4,2.9-3.1c1.3-0.7,2.8-1.1,4.6-1.1c1.6,0,3.1,0.4,4.4,1.1c1.3,0.7,2.3,1.7,3,3.1
		C526.9,495.2,527.2,496.8,527.2,498.8z M515.1,498.8c0,1.2,0.1,2.1,0.4,2.9s0.6,1.4,1.2,1.8s1.2,0.6,2.1,0.6c0.8,0,1.5-0.2,2.1-0.6
		c0.5-0.4,0.9-1,1.2-1.8c0.2-0.8,0.4-1.8,0.4-2.9c0-1.2-0.1-2.1-0.4-2.9c-0.2-0.8-0.6-1.3-1.2-1.7s-1.2-0.6-2.1-0.6
		c-1.3,0-2.2,0.4-2.8,1.3C515.4,495.7,515.1,497,515.1,498.8z"/>
	<path class="st3" d="M535,483.2c0.7,0,1.3,0.2,1.8,0.5c0.5,0.3,0.8,0.9,0.8,1.8c0,0.9-0.3,1.5-0.8,1.8c-0.5,0.3-1.1,0.5-1.8,0.5
		c-0.7,0-1.3-0.2-1.8-0.5c-0.5-0.3-0.8-1-0.8-1.8c0-0.9,0.3-1.5,0.8-1.8C533.7,483.3,534.3,483.2,535,483.2z M537.4,490v17.5h-4.8
		V490H537.4z"/>
	<path class="st3" d="M549.4,507.9c-2,0-3.5-0.8-4.8-2.3c-1.2-1.5-1.8-3.8-1.8-6.8c0-3,0.6-5.3,1.9-6.8c1.2-1.5,2.9-2.3,4.9-2.3
		c0.8,0,1.6,0.1,2.2,0.3c0.6,0.2,1.2,0.5,1.7,0.9s0.9,0.8,1.2,1.3h0.2c-0.1-0.3-0.1-0.8-0.2-1.5s-0.1-1.3-0.1-2v-5.6h4.8v24.4h-3.7
		l-0.9-2.3h-0.2c-0.3,0.5-0.7,0.9-1.1,1.3c-0.5,0.4-1,0.7-1.6,0.9S550.3,507.9,549.4,507.9z M551.1,504.1c1.3,0,2.2-0.4,2.8-1.2
		c0.5-0.8,0.8-2,0.9-3.5v-0.5c0-1.7-0.3-3-0.8-3.9c-0.5-0.9-1.5-1.4-2.9-1.4c-1.1,0-1.9,0.5-2.5,1.4c-0.6,0.9-0.9,2.2-0.9,3.9
		c0,1.7,0.3,3,0.9,3.9C549.1,503.6,550,504.1,551.1,504.1z"/>
	<path class="st3" d="M582.6,489.7c2.4,0,4.2,0.5,5.4,1.5s1.9,2.6,1.9,4.7v11.7h-3.3l-0.9-2.4h-0.1c-0.5,0.6-1,1.1-1.5,1.5
		c-0.5,0.4-1.1,0.7-1.8,0.9s-1.5,0.3-2.5,0.3c-1,0-2-0.2-2.8-0.6c-0.8-0.4-1.5-1-1.9-1.8c-0.5-0.8-0.7-1.9-0.7-3.1
		c0-1.9,0.7-3.2,2-4.1c1.3-0.9,3.3-1.4,5.9-1.5l3-0.1v-0.8c0-0.9-0.2-1.6-0.7-2s-1.2-0.6-2-0.6c-0.8,0-1.7,0.1-2.5,0.4
		c-0.8,0.2-1.6,0.5-2.4,0.9l-1.6-3.2c0.9-0.5,2-0.9,3.1-1.2C580.2,489.8,581.4,489.7,582.6,489.7z M585.1,499.4l-1.9,0.1
		c-1.5,0-2.6,0.3-3.2,0.8c-0.6,0.5-0.9,1.2-0.9,2c0,0.7,0.2,1.3,0.6,1.6c0.4,0.3,1,0.5,1.7,0.5c1,0,1.9-0.3,2.6-0.9
		c0.7-0.6,1.1-1.5,1.1-2.6V499.4z"/>
	<path class="st3" d="M606,489.7c2,0,3.6,0.8,4.8,2.3c1.2,1.5,1.8,3.8,1.8,6.8c0,2-0.3,3.7-0.9,5c-0.6,1.4-1.4,2.4-2.4,3.1
		c-1,0.7-2.2,1-3.5,1c-0.8,0-1.6-0.1-2.2-0.3s-1.1-0.5-1.6-0.8s-0.8-0.7-1.1-1.1h-0.3c0.1,0.4,0.1,0.8,0.2,1.3
		c0,0.4,0.1,0.9,0.1,1.3v7.1h-4.8V490h3.9l0.7,2.3h0.2c0.3-0.5,0.7-0.9,1.1-1.3c0.4-0.4,1-0.7,1.6-0.9
		C604.4,489.8,605.2,489.7,606,489.7z M604.5,493.5c-0.8,0-1.5,0.2-2,0.5c-0.5,0.3-0.8,0.9-1.1,1.6c-0.2,0.7-0.3,1.6-0.4,2.6v0.5
		c0,1.1,0.1,2.1,0.3,2.9s0.6,1.4,1.1,1.8c0.5,0.4,1.2,0.6,2.1,0.6c0.7,0,1.3-0.2,1.8-0.6c0.5-0.4,0.8-1,1.1-1.8
		c0.2-0.8,0.4-1.8,0.4-2.9c0-1.7-0.3-3-0.8-3.9C606.4,494,605.6,493.5,604.5,493.5z"/>
	<path class="st3" d="M627.8,489.7c2,0,3.6,0.8,4.8,2.3c1.2,1.5,1.8,3.8,1.8,6.8c0,2-0.3,3.7-0.9,5c-0.6,1.4-1.4,2.4-2.4,3.1
		c-1,0.7-2.2,1-3.5,1c-0.8,0-1.6-0.1-2.2-0.3s-1.1-0.5-1.6-0.8s-0.8-0.7-1.1-1.1h-0.3c0.1,0.4,0.1,0.8,0.2,1.3
		c0,0.4,0.1,0.9,0.1,1.3v7.1H618V490h3.9l0.7,2.3h0.2c0.3-0.5,0.7-0.9,1.1-1.3c0.4-0.4,1-0.7,1.6-0.9
		C626.2,489.8,627,489.7,627.8,489.7z M626.3,493.5c-0.8,0-1.5,0.2-2,0.5c-0.5,0.3-0.8,0.9-1.1,1.6c-0.2,0.7-0.3,1.6-0.4,2.6v0.5
		c0,1.1,0.1,2.1,0.3,2.9s0.6,1.4,1.1,1.8c0.5,0.4,1.2,0.6,2.1,0.6c0.7,0,1.3-0.2,1.8-0.6c0.5-0.4,0.8-1,1.1-1.8
		c0.2-0.8,0.4-1.8,0.4-2.9c0-1.7-0.3-3-0.8-3.9C628.2,494,627.4,493.5,626.3,493.5z"/>
</g>
<circle class="st2" cx="118.9" cy="557.7" r="14.1"/>
<g>
	<path class="st3" d="M161.5,568.4v-22.9h4.9v18.9h9.3v4H161.5z"/>
	<path class="st3" d="M199.7,545.4v14.8c0,1.6-0.3,3-1,4.3c-0.7,1.3-1.7,2.3-3.2,3c-1.4,0.7-3.2,1.1-5.3,1.1c-3,0-5.3-0.8-6.9-2.3
		c-1.6-1.5-2.4-3.6-2.4-6.1v-14.8h4.8v14c0,1.9,0.4,3.2,1.2,4c0.8,0.8,1.9,1.1,3.4,1.1c1.1,0,1.9-0.2,2.6-0.5s1.2-0.9,1.5-1.7
		c0.3-0.8,0.5-1.7,0.5-2.9v-14H199.7z"/>
	<path class="st3" d="M215.6,568.4h-4.9v-18.9h-6.2v-4h17.3v4h-6.2V568.4z"/>
	<path class="st3" d="M241.4,576.1c-2.4,0-4.3-0.4-5.6-1.3s-1.9-2-1.9-3.6c0-1.1,0.3-1.9,1-2.7s1.6-1.2,2.9-1.5
		c-0.5-0.2-0.9-0.6-1.3-1c-0.4-0.5-0.5-1-0.5-1.5c0-0.7,0.2-1.2,0.6-1.7s0.9-0.9,1.7-1.3c-0.9-0.4-1.6-1-2.2-1.9
		c-0.5-0.9-0.8-1.9-0.8-3.1c0-1.3,0.3-2.4,0.8-3.3c0.6-0.9,1.4-1.6,2.4-2s2.4-0.7,3.9-0.7c0.3,0,0.7,0,1.1,0.1
		c0.4,0,0.8,0.1,1.2,0.1c0.4,0.1,0.6,0.1,0.7,0.1h6.1v2.4l-2.7,0.7c0.3,0.4,0.4,0.8,0.6,1.2c0.1,0.4,0.2,0.9,0.2,1.4
		c0,1.9-0.7,3.3-2,4.4c-1.3,1.1-3.1,1.6-5.5,1.6c-0.6,0-1.1-0.1-1.6-0.1c-0.2,0.2-0.4,0.4-0.5,0.6c-0.1,0.2-0.2,0.4-0.2,0.7
		c0,0.2,0.1,0.4,0.3,0.6s0.5,0.3,0.9,0.3s0.9,0.1,1.5,0.1h3c1.9,0,3.4,0.4,4.4,1.2c1,0.8,1.5,2,1.5,3.6c0,2-0.9,3.6-2.6,4.8
		C247,575.5,244.6,576.1,241.4,576.1z M241.6,573c1.1,0,2.1-0.1,2.9-0.3c0.8-0.2,1.5-0.5,1.9-0.9c0.4-0.4,0.7-0.9,0.7-1.4
		c0-0.4-0.1-0.8-0.4-1c-0.3-0.3-0.6-0.4-1.2-0.5s-1.2-0.2-2-0.2h-2.5c-0.6,0-1.1,0.1-1.6,0.3c-0.5,0.2-0.8,0.5-1.1,0.8
		c-0.3,0.3-0.4,0.7-0.4,1.2c0,0.7,0.3,1.2,0.9,1.6C239.6,572.8,240.4,573,241.6,573z M242.3,559.7c0.9,0,1.6-0.3,2-0.8
		c0.4-0.6,0.6-1.3,0.6-2.3c0-1.1-0.2-1.8-0.7-2.4c-0.4-0.5-1.1-0.8-2-0.8c-0.9,0-1.5,0.3-2,0.8c-0.4,0.5-0.7,1.3-0.7,2.4
		c0,1,0.2,1.7,0.7,2.3C240.8,559.4,241.5,559.7,242.3,559.7z"/>
	<path class="st3" d="M263.1,550.5c1.6,0,3,0.3,4.2,0.9s2.1,1.5,2.7,2.7s1,2.6,1,4.3v2.3h-11.3c0.1,1.3,0.5,2.4,1.2,3.2
		c0.8,0.8,1.8,1.2,3.2,1.2c1.1,0,2.1-0.1,3.1-0.3c0.9-0.2,1.9-0.6,2.9-1v3.7c-0.9,0.4-1.8,0.7-2.7,0.9c-0.9,0.2-2.1,0.3-3.4,0.3
		c-1.8,0-3.3-0.3-4.7-1c-1.4-0.6-2.4-1.6-3.2-3c-0.8-1.3-1.2-3-1.2-5c0-2,0.3-3.8,1-5.1c0.7-1.4,1.7-2.4,2.9-3.1
		S261.4,550.5,263.1,550.5z M263.1,553.9c-0.9,0-1.7,0.3-2.3,0.9c-0.6,0.6-1,1.5-1.1,2.8h6.7c0-0.7-0.1-1.3-0.4-1.9
		c-0.2-0.6-0.6-1-1.1-1.3S263.8,553.9,263.1,553.9z"/>
	<path class="st3" d="M286.2,550.5c1.9,0,3.4,0.5,4.5,1.5s1.7,2.7,1.7,4.9v11.4h-4.8v-10.2c0-1.3-0.2-2.2-0.7-2.8s-1.2-1-2.1-1
		c-1.5,0-2.5,0.5-3,1.5s-0.8,2.4-0.8,4.3v8.2h-4.8v-17.5h3.7l0.6,2.2h0.3c0.4-0.6,0.8-1.1,1.4-1.5c0.6-0.4,1.2-0.7,1.9-0.8
		S285.5,550.5,286.2,550.5z"/>
	<path class="st3" d="M306,550.5c1.6,0,3,0.3,4.2,0.9s2.1,1.5,2.7,2.7s1,2.6,1,4.3v2.3h-11.3c0.1,1.3,0.5,2.4,1.2,3.2
		c0.8,0.8,1.8,1.2,3.2,1.2c1.1,0,2.1-0.1,3.1-0.3c0.9-0.2,1.9-0.6,2.9-1v3.7c-0.9,0.4-1.8,0.7-2.7,0.9c-0.9,0.2-2.1,0.3-3.4,0.3
		c-1.8,0-3.3-0.3-4.7-1c-1.4-0.6-2.4-1.6-3.2-3c-0.8-1.3-1.2-3-1.2-5c0-2,0.3-3.8,1-5.1c0.7-1.4,1.7-2.4,2.9-3.1
		S304.4,550.5,306,550.5z M306.1,553.9c-0.9,0-1.7,0.3-2.3,0.9c-0.6,0.6-1,1.5-1.1,2.8h6.7c0-0.7-0.1-1.3-0.4-1.9
		c-0.2-0.6-0.6-1-1.1-1.3S306.8,553.9,306.1,553.9z"/>
	<path class="st3" d="M329,550.5c0.2,0,0.5,0,0.8,0c0.3,0,0.6,0.1,0.8,0.1l-0.4,4.5c-0.2-0.1-0.4-0.1-0.7-0.1s-0.5,0-0.7,0
		c-0.6,0-1.2,0.1-1.8,0.2c-0.6,0.2-1.1,0.4-1.6,0.8c-0.5,0.3-0.8,0.8-1.1,1.4c-0.3,0.6-0.4,1.3-0.4,2.1v8.9h-4.8v-17.5h3.6l0.7,2.9
		h0.2c0.3-0.6,0.8-1.1,1.3-1.6c0.5-0.5,1.1-0.9,1.8-1.2C327.5,550.7,328.2,550.5,329,550.5z"/>
	<path class="st3" d="M342.4,550.5c2.4,0,4.2,0.5,5.4,1.5s1.9,2.6,1.9,4.7v11.7h-3.3l-0.9-2.4h-0.1c-0.5,0.6-1,1.1-1.5,1.5
		c-0.5,0.4-1.1,0.7-1.8,0.9s-1.5,0.3-2.5,0.3c-1,0-2-0.2-2.8-0.6c-0.8-0.4-1.5-1-1.9-1.8c-0.5-0.8-0.7-1.9-0.7-3.1
		c0-1.9,0.7-3.2,2-4.1c1.3-0.9,3.3-1.4,5.9-1.5l3-0.1v-0.8c0-0.9-0.2-1.6-0.7-2s-1.2-0.6-2-0.6c-0.8,0-1.7,0.1-2.5,0.4
		c-0.8,0.2-1.6,0.5-2.4,0.9l-1.6-3.2c0.9-0.5,2-0.9,3.1-1.2C340,550.6,341.2,550.5,342.4,550.5z M345,560.2l-1.9,0.1
		c-1.5,0-2.6,0.3-3.2,0.8c-0.6,0.5-0.9,1.2-0.9,2c0,0.7,0.2,1.3,0.6,1.6c0.4,0.3,1,0.5,1.7,0.5c1,0,1.9-0.3,2.6-0.9
		c0.7-0.6,1.1-1.5,1.1-2.6V560.2z"/>
	<path class="st3" d="M363.5,564.9c0.5,0,1-0.1,1.5-0.2s1-0.2,1.5-0.4v3.6c-0.5,0.2-1.1,0.4-1.9,0.6s-1.6,0.2-2.5,0.2
		c-1,0-2-0.2-2.8-0.5c-0.8-0.3-1.5-0.9-2-1.8c-0.5-0.8-0.7-2-0.7-3.5v-8.5h-2.3v-2l2.6-1.6l1.4-3.7h3.1v3.7h4.9v3.6h-4.9v8.5
		c0,0.7,0.2,1.2,0.6,1.5C362.4,564.7,362.9,564.9,363.5,564.9z"/>
	<path class="st3" d="M387.4,559.6c0,1.5-0.2,2.8-0.6,3.9c-0.4,1.1-1,2.1-1.7,2.9c-0.7,0.8-1.6,1.4-2.7,1.8
		c-1.1,0.4-2.2,0.6-3.6,0.6c-1.2,0-2.4-0.2-3.4-0.6c-1-0.4-1.9-1-2.7-1.8c-0.8-0.8-1.3-1.7-1.8-2.9c-0.4-1.1-0.6-2.4-0.6-3.9
		c0-1.9,0.3-3.6,1-4.9c0.7-1.3,1.7-2.4,2.9-3.1c1.3-0.7,2.8-1.1,4.6-1.1c1.6,0,3.1,0.4,4.4,1.1c1.3,0.7,2.3,1.7,3,3.1
		C387.1,556,387.4,557.6,387.4,559.6z M375.3,559.6c0,1.2,0.1,2.1,0.4,2.9s0.6,1.4,1.2,1.8s1.2,0.6,2.1,0.6c0.8,0,1.5-0.2,2.1-0.6
		c0.5-0.4,0.9-1,1.2-1.8c0.2-0.8,0.4-1.8,0.4-2.9c0-1.2-0.1-2.1-0.4-2.9c-0.2-0.8-0.6-1.3-1.2-1.7s-1.2-0.6-2.1-0.6
		c-1.3,0-2.2,0.4-2.8,1.3C375.6,556.5,375.3,557.8,375.3,559.6z"/>
	<path class="st3" d="M402.6,550.5c0.2,0,0.5,0,0.8,0c0.3,0,0.6,0.1,0.8,0.1l-0.4,4.5c-0.2-0.1-0.4-0.1-0.7-0.1s-0.5,0-0.7,0
		c-0.6,0-1.2,0.1-1.8,0.2c-0.6,0.2-1.1,0.4-1.6,0.8c-0.5,0.3-0.8,0.8-1.1,1.4c-0.3,0.6-0.4,1.3-0.4,2.1v8.9h-4.8v-17.5h3.6l0.7,2.9
		h0.2c0.3-0.6,0.8-1.1,1.3-1.6c0.5-0.5,1.1-0.9,1.8-1.2C401.1,550.7,401.8,550.5,402.6,550.5z"/>
	<path class="st3" d="M433.1,568.4l-1.3-6.1c-0.1-0.4-0.2-0.9-0.4-1.6c-0.2-0.7-0.3-1.5-0.5-2.3c-0.2-0.8-0.4-1.6-0.5-2.3
		c-0.2-0.7-0.3-1.2-0.4-1.5h-0.1c-0.1,0.3-0.2,0.8-0.3,1.5c-0.2,0.7-0.3,1.5-0.5,2.3c-0.2,0.8-0.4,1.6-0.5,2.3
		c-0.2,0.7-0.3,1.3-0.4,1.7l-1.4,6.1h-5.1l-5-17.5h4.8l2,7.8c0.1,0.5,0.3,1.2,0.4,1.9c0.1,0.7,0.2,1.5,0.3,2.2
		c0.1,0.7,0.2,1.2,0.2,1.7h0.1c0-0.3,0.1-0.7,0.1-1.2c0.1-0.5,0.1-1,0.2-1.6c0.1-0.5,0.2-1,0.3-1.5c0.1-0.4,0.1-0.7,0.2-0.9l2.2-8.4
		h5.3l2.1,8.4c0.1,0.3,0.2,0.8,0.3,1.4c0.1,0.7,0.2,1.3,0.3,2c0.1,0.7,0.1,1.2,0.2,1.6h0.1c0-0.4,0.1-0.9,0.2-1.6s0.2-1.4,0.4-2.2
		s0.3-1.4,0.4-2l2.1-7.8h4.7l-5,17.5H433.1z"/>
	<path class="st3" d="M454.8,550.5c1.6,0,3,0.3,4.2,0.9s2.1,1.5,2.7,2.7s1,2.6,1,4.3v2.3h-11.3c0.1,1.3,0.5,2.4,1.2,3.2
		c0.8,0.8,1.8,1.2,3.2,1.2c1.1,0,2.1-0.1,3.1-0.3c0.9-0.2,1.9-0.6,2.9-1v3.7c-0.9,0.4-1.8,0.7-2.7,0.9c-0.9,0.2-2.1,0.3-3.4,0.3
		c-1.8,0-3.3-0.3-4.7-1c-1.4-0.6-2.4-1.6-3.2-3c-0.8-1.3-1.2-3-1.2-5c0-2,0.3-3.8,1-5.1c0.7-1.4,1.7-2.4,2.9-3.1
		S453.2,550.5,454.8,550.5z M454.8,553.9c-0.9,0-1.7,0.3-2.3,0.9c-0.6,0.6-1,1.5-1.1,2.8h6.7c0-0.7-0.1-1.3-0.4-1.9
		c-0.2-0.6-0.6-1-1.1-1.3S455.6,553.9,454.8,553.9z"/>
	<path class="st3" d="M472.8,544v5.7c0,0.7,0,1.3-0.1,2c0,0.6-0.1,1.2-0.1,1.5h0.2c0.5-0.7,1.1-1.3,1.9-1.8c0.8-0.5,1.8-0.8,3.1-0.8
		c2,0,3.6,0.8,4.8,2.3c1.2,1.5,1.8,3.8,1.8,6.8c0,2-0.3,3.7-0.8,5s-1.4,2.4-2.4,3.1c-1,0.7-2.2,1-3.5,1c-1.3,0-2.3-0.2-3-0.7
		c-0.7-0.5-1.3-1-1.8-1.6h-0.3l-0.8,1.9H468V544H472.8z M476.2,554.3c-0.8,0-1.5,0.2-2,0.5c-0.5,0.3-0.8,0.9-1.1,1.6
		c-0.2,0.7-0.3,1.6-0.4,2.6v0.5c0,1.7,0.3,3,0.8,3.9s1.4,1.4,2.7,1.4c1,0,1.8-0.5,2.3-1.4c0.6-0.9,0.9-2.2,0.9-3.9s-0.3-3-0.9-3.9
		C478,554.8,477.2,554.3,476.2,554.3z"/>
	<path class="st3" d="M502,563.2c0,1.2-0.3,2.2-0.8,3c-0.6,0.8-1.4,1.4-2.5,1.9c-1.1,0.4-2.5,0.6-4.1,0.6c-1.2,0-2.3-0.1-3.1-0.2
		c-0.9-0.2-1.8-0.4-2.6-0.8v-4c1,0.4,2,0.8,3.1,1.1c1.1,0.3,2.1,0.4,2.9,0.4c0.9,0,1.6-0.1,2-0.4c0.4-0.3,0.6-0.6,0.6-1.1
		c0-0.3-0.1-0.6-0.2-0.8c-0.2-0.2-0.5-0.5-1-0.8c-0.5-0.3-1.4-0.7-2.5-1.2c-1.1-0.5-2-0.9-2.7-1.4c-0.7-0.5-1.2-1-1.6-1.7
		c-0.3-0.6-0.5-1.5-0.5-2.5c0-1.6,0.6-2.8,1.9-3.7c1.3-0.8,2.9-1.2,5.1-1.2c1.1,0,2.1,0.1,3.1,0.3c1,0.2,2,0.6,3.1,1.1l-1.4,3.5
		c-0.9-0.4-1.7-0.7-2.5-0.9c-0.8-0.2-1.6-0.4-2.3-0.4c-0.7,0-1.2,0.1-1.6,0.3c-0.4,0.2-0.5,0.5-0.5,0.9c0,0.3,0.1,0.5,0.3,0.8
		c0.2,0.2,0.5,0.5,1.1,0.7s1.3,0.6,2.3,1c1,0.4,1.9,0.8,2.6,1.3s1.3,1,1.7,1.6C501.8,561.3,502,562.1,502,563.2z"/>
	<path class="st3" d="M509.6,544c0.7,0,1.3,0.2,1.8,0.5c0.5,0.3,0.8,0.9,0.8,1.8c0,0.9-0.3,1.5-0.8,1.8c-0.5,0.3-1.1,0.5-1.8,0.5
		c-0.7,0-1.3-0.2-1.8-0.5c-0.5-0.3-0.8-1-0.8-1.8c0-0.9,0.3-1.5,0.8-1.8C508.2,544.1,508.9,544,509.6,544z M512,550.8v17.5h-4.8
		v-17.5H512z"/>
	<path class="st3" d="M525.8,564.9c0.5,0,1-0.1,1.5-0.2s1-0.2,1.5-0.4v3.6c-0.5,0.2-1.1,0.4-1.9,0.6s-1.6,0.2-2.5,0.2
		c-1,0-2-0.2-2.8-0.5c-0.8-0.3-1.5-0.9-2-1.8c-0.5-0.8-0.7-2-0.7-3.5v-8.5h-2.3v-2l2.6-1.6l1.4-3.7h3.1v3.7h4.9v3.6h-4.9v8.5
		c0,0.7,0.2,1.2,0.6,1.5C524.7,564.7,525.2,564.9,525.8,564.9z"/>
	<path class="st3" d="M541,550.5c1.6,0,3,0.3,4.2,0.9s2.1,1.5,2.7,2.7s1,2.6,1,4.3v2.3h-11.3c0.1,1.3,0.5,2.4,1.2,3.2
		c0.8,0.8,1.8,1.2,3.2,1.2c1.1,0,2.1-0.1,3.1-0.3c0.9-0.2,1.9-0.6,2.9-1v3.7c-0.9,0.4-1.8,0.7-2.7,0.9c-0.9,0.2-2.1,0.3-3.4,0.3
		c-1.8,0-3.3-0.3-4.7-1c-1.4-0.6-2.4-1.6-3.2-3c-0.8-1.3-1.2-3-1.2-5c0-2,0.3-3.8,1-5.1c0.7-1.4,1.7-2.4,2.9-3.1
		S539.4,550.5,541,550.5z M541.1,553.9c-0.9,0-1.7,0.3-2.3,0.9c-0.6,0.6-1,1.5-1.1,2.8h6.7c0-0.7-0.1-1.3-0.4-1.9
		c-0.2-0.6-0.6-1-1.1-1.3S541.8,553.9,541.1,553.9z"/>
</g>
</svg>
