<?xml version="1.0" encoding="utf-8"?>
<!-- Generator: Adobe Illustrator 26.0.1, SVG Export Plug-In . SVG Version: 6.00 Build 0)  -->
<svg version="1.1" id="Layer_1" xmlns="http://www.w3.org/2000/svg" xmlns:xlink="http://www.w3.org/1999/xlink" x="0px" y="0px"
	 viewBox="0 0 960 920" style="enable-background:new 0 0 960 920;" xml:space="preserve">
<style type="text/css">
	.st0{fill:#20232C;}
	.st1{fill:#E2E2E2;}
	.st2{fill:#E56C3D;}
	.st3{fill:#2B2D39;}
</style>
<rect class="st0" width="960" height="920"/>
<g>
	<path class="st1" d="M49.3,97c-2,0-3.7-0.6-4.8-1.7s-2-2.6-2-4.6c0-1.7,0.6-3.4,2-4.6c1.4-1.1,2.8-1.7,4.8-1.7s3.7,0.6,4.8,1.7
		s2,2.6,2,4.6c0,1.7-0.6,3.4-2,4.6C53,96.5,51.3,97,49.3,97z M43.9,146v-42.4h10.8V146H43.9z"/>
	<path class="st1" d="M73,146v-42.4h9.7l1.1,8c1.4-2.8,3.7-4.8,6.3-6.6c2.6-1.7,5.7-2.6,9.4-2.6v11.7h-3.1c-2.3,0-4.6,0.3-6.3,1.1
		c-2,0.9-3.4,2-4.3,3.7c-1.1,1.7-1.7,4.3-1.7,7.7V146H73z"/>
	<path class="st1" d="M115.7,146v-33.3H110v-9.1h5.7v-4.8c0-5.1,1.4-8.8,4-10.8c2.6-2.3,6-3.1,10.5-3.1h4.6v9.4H132
		c-2,0-3.1,0.3-4,1.1c-0.9,0.9-1.1,2-1.1,3.7v4.8h9.1v9.1h-9.4v33.3h-10.8L115.7,146L115.7,146z"/>
	<path class="st1" d="M164.1,147.2c-3.7,0-6.6-0.6-8.8-1.7s-4-2.8-5.1-4.6c-1.1-2-1.7-4-1.7-6.3c0-4,1.4-7.1,4.6-9.7s7.7-3.7,14-3.7
		h10.8v-1.1c0-2.8-0.9-5.1-2.6-6.3c-1.7-1.4-3.7-2-6.3-2c-2.3,0-4.3,0.6-5.7,1.7s-2.6,2.6-3.1,4.6h-10.8c0.3-3.1,1.4-5.7,3.1-8
		c1.7-2.3,4-4,6.8-5.1s6-1.7,9.7-1.7c6,0,10.8,1.4,14.2,4.6c3.4,3.1,5.1,7.4,5.1,12.8v25.9h-9.4l-1.1-6.8c-1.1,2.3-3.1,4.3-5.1,5.7
		C170.7,146.3,167.8,147.2,164.1,147.2z M166.7,138.6c3.1,0,5.7-1.1,7.4-3.1s2.8-4.6,3.4-7.7h-9.4c-2.8,0-5.1,0.6-6.3,1.7
		c-1.1,1.1-2,2.3-2,4s0.6,2.8,2,4C163,138.1,164.7,138.6,166.7,138.6z"/>
	<path class="st1" d="M205.7,146v-42.4h9.7l0.9,7.1c1.4-2.6,3.1-4.6,5.7-6s5.4-2.3,8.8-2.3c5.1,0,9.4,1.7,12.2,4.8
		c2.8,3.4,4.3,8.3,4.3,14.5v23.9h-10.8V123c0-3.7-0.9-6.6-2.3-8.3c-1.4-2-3.7-2.8-6.8-2.8s-5.7,1.1-7.7,3.1c-2,2.3-2.8,5.1-2.8,9.1
		V146H205.7L205.7,146z"/>
	<path class="st2" d="M264.4,146V84.5h10.8V146H264.4z"/>
	<path class="st2" d="M314,147.2c-4.3,0-8-0.9-11.4-2.8c-3.4-1.7-6-4.3-7.7-7.7c-2-3.4-2.8-7.1-2.8-11.4c0-4.3,0.9-8.3,2.8-11.7
		c1.7-3.4,4.3-6,7.7-8c3.1-2,7.1-2.8,11.7-2.8c4.3,0,7.7,0.9,11.1,2.8c3.1,1.7,5.7,4.3,7.4,7.4c1.7,3.1,2.6,6.6,2.6,10.5
		c0,0.6,0,1.4,0,2s0,1.4,0,2.3h-32.2c0.3,3.4,1.4,6,3.4,7.7c2,2,4.6,2.8,7.7,2.8c2.3,0,4-0.6,5.7-1.4c1.4-0.9,2.6-2.3,3.4-4h11.1
		c-0.9,2.6-2,5.1-4,7.4c-2,2.3-4.3,4-6.8,5.1C320.5,146.6,317.4,147.2,314,147.2z M314.2,111.6c-2.6,0-5.1,0.9-7.1,2.3
		s-3.4,3.7-4,6.8h21.1c-0.3-2.8-1.1-5.1-3.1-6.6C319.1,112.7,316.8,111.6,314.2,111.6z"/>
	<path class="st2" d="M368.9,147.2c-3.7,0-7.1-0.6-10-1.7c-2.8-1.1-5.1-2.8-6.8-5.1c-1.7-2.3-2.8-4.6-3.1-7.4h11.1
		c0.3,1.7,1.1,3.1,2.8,4.3c1.4,1.1,3.4,1.7,6,1.7s4.3-0.6,5.1-1.4c1.1-0.9,1.7-2,1.7-3.4c0-1.7-0.9-3.1-2.3-3.7
		c-1.7-0.6-3.7-1.4-6.6-2c-1.7-0.3-3.7-0.9-5.7-1.4c-2-0.6-3.7-1.4-5.1-2.3c-1.7-0.9-2.8-2-3.7-3.4c-0.9-1.4-1.4-3.1-1.4-5.1
		c0-3.7,1.4-6.8,4.6-9.4c3.1-2.6,7.1-4,12.5-4c5.1,0,9.1,1.1,12,3.4c2.8,2.3,4.8,5.4,5.4,9.7h-10.3c-0.6-3.1-3.1-4.6-7.1-4.6
		c-2,0-3.7,0.3-4.8,1.1c-1.1,0.9-1.7,1.7-1.7,3.1c0,1.1,0.9,2.3,2.6,2.8c1.7,0.9,4,1.4,6.6,2c2.8,0.6,5.7,1.4,8.3,2.3s4.6,2,6,3.7
		s2.3,4,2.3,6.8c0,2.6-0.6,5.1-2,7.1s-3.4,3.7-6.3,4.8C375.8,146.6,372.6,147.2,368.9,147.2z"/>
	<path class="st2" d="M403.1,146v-42.4h9.7l0.9,7.1c1.4-2.6,3.1-4.6,5.7-6s5.4-2.3,8.8-2.3c5.1,0,9.4,1.7,12.2,4.8
		c2.8,3.4,4.3,8.3,4.3,14.5v23.9h-10.8V123c0-3.7-0.9-6.6-2.3-8.3c-1.4-2-3.7-2.8-6.8-2.8c-3.1,0-5.7,1.1-7.7,3.1
		c-2,2.3-2.8,5.1-2.8,9.1V146H403.1L403.1,146z"/>
	<path class="st2" d="M476.6,147.2c-3.7,0-6.6-0.6-8.8-1.7s-4-2.8-5.1-4.6c-1.1-2-1.7-4-1.7-6.3c0-4,1.4-7.1,4.6-9.7
		c3.1-2.6,7.7-3.7,14-3.7h10.8v-1.1c0-2.8-0.9-5.1-2.6-6.3c-1.7-1.4-3.7-2-6.3-2c-2.3,0-4.3,0.6-5.7,1.7c-1.4,1.1-2.6,2.6-3.1,4.6
		h-10.8c0.3-3.1,1.4-5.7,3.1-8s4-4,6.8-5.1s6-1.7,9.7-1.7c6,0,10.8,1.4,14.2,4.6c3.4,3.1,5.1,7.4,5.1,12.8v25.9h-9.4l-1.1-6.8
		c-1.1,2.3-3.1,4.3-5.1,5.7C482.9,146.3,480,147.2,476.6,147.2z M478.9,138.6c3.1,0,5.7-1.1,7.4-3.1s2.8-4.6,3.4-7.7h-9.4
		c-2.8,0-5.1,0.6-6.3,1.7c-1.1,1.1-2,2.3-2,4s0.6,2.8,2,4C475.2,138.1,476.9,138.6,478.9,138.6z"/>
	<path class="st2" d="M517.9,146v-42.4h9.7l1.1,8c1.4-2.8,3.7-4.8,6.3-6.6c2.6-1.7,5.7-2.6,9.4-2.6v11.7h-3.1
		c-2.3,0-4.6,0.3-6.3,1.1c-2,0.9-3.4,2-4.3,3.7c-1.1,1.7-1.7,4.3-1.7,7.7V146H517.9z"/>
</g>
<rect y="371" class="st3" width="336" height="115"/>
<circle class="st2" cx="118.9" cy="515.1" r="14.1"/>
<g>
	<path class="st2" d="M104.9,423.9v-77.1h19c6.6,0,11.3,1.3,14.3,4c2.9,2.7,4.5,7.1,4.7,13.2c0.1,3.1,0.1,6,0.1,8.6s0,5.3-0.1,8.2
		c-0.2,6.1-1.8,10.5-4.7,13.2s-7.7,4-14.3,4h-6.2v25.9L104.9,423.9L104.9,423.9z M117.6,386.8h6.2c2.1,0,3.7-0.4,4.7-1.3
		c1-0.9,1.5-2.2,1.6-4s0.2-3.7,0.2-5.8c0-2.1,0-4.1,0-6.2s-0.1-4.1-0.2-6c-0.1-1.8-0.6-3.1-1.6-4s-2.6-1.3-4.6-1.3h-6.2v28.6H117.6z
		"/>
	<path class="st2" d="M154.8,423.9v-57.8h13.1v6.8h2.4c0.4-2.7,1.4-4.6,2.9-5.6s3.5-1.6,5.9-1.6c0.8,0,1.5,0,2.3,0.1s1.4,0.1,2,0.1
		v9.7h-4.1c-3.3,0-5.9,0.5-7.7,1.4c-1.9,0.9-3.1,2.6-3.6,4.9v41.9h-13.2V423.9z"/>
	<path class="st2" d="M210.3,424.8c-4.6,0-8.2-0.6-10.9-1.8c-2.7-1.2-4.7-3.1-6-5.7s-2.1-6.1-2.3-10.4c-0.1-1.4-0.1-3.2-0.1-5.2
		c0-2.1,0-4.3,0-6.6c0-2.3,0-4.6,0-6.7s0.1-3.9,0.1-5.3c0.3-4.4,1-7.9,2.3-10.5s3.3-4.5,6-5.7s6.4-1.7,10.9-1.7
		c4.6,0,8.3,0.6,11,1.8c2.7,1.2,4.7,3.1,5.9,5.8c1.3,2.6,2,6,2.2,10.3c0.1,1.4,0.1,3.2,0.2,5.3c0,2.1,0.1,4.3,0.1,6.6
		c0,2.3,0,4.5-0.1,6.6c0,2.1-0.1,3.9-0.2,5.4c-0.3,4.3-1,7.8-2.3,10.4s-3.2,4.5-5.9,5.7C218.6,424.3,214.9,424.8,210.3,424.8z
		 M210.3,415.3c2.3,0,3.9-0.4,4.8-1.3c0.9-0.9,1.5-2.2,1.5-3.9c0.1-2.9,0.2-5.5,0.2-8s0.1-4.9,0.1-7.3s0-4.7-0.1-7.2
		c0-2.4-0.1-5-0.2-7.7c-0.1-1.7-0.6-3-1.5-3.8c-0.9-0.9-2.6-1.3-4.8-1.3s-3.9,0.5-4.9,1.4s-1.5,2.2-1.6,3.8
		c-0.1,2.1-0.2,4.4-0.2,6.8s0,4.9,0,7.5s0,5.2,0.1,7.9c0,2.6,0.1,5.3,0.2,8c0.1,1.7,0.6,3,1.6,3.9
		C206.4,414.8,208.1,415.3,210.3,415.3z"/>
	<path class="st2" d="M254.4,424.8c-4.1,0-7.2-1.2-9.3-3.6s-3.3-6.3-3.6-11.7c-0.1-1.9-0.2-4.1-0.2-6.7s0-5.3,0-8
		c0-2.8,0-5.4,0.1-7.9c0-2.5,0.1-4.6,0.2-6.4c0.2-5.5,1.5-9.4,3.7-11.8c2.2-2.3,5.4-3.5,9.4-3.5c3.1,0,5.4,0.6,6.9,1.8
		c1.6,1.2,3,2.9,4.4,5.2h1.9v-25.3h13V424h-13v-6h-2c-1.3,2.2-2.8,3.9-4.4,5.1C259.7,424.2,257.4,424.8,254.4,424.8z M259.6,415.5
		c1.6,0,3.2-0.4,4.8-1.2c1.6-0.8,2.7-1.9,3.4-3.3v-31.9c-0.6-1.4-1.8-2.6-3.4-3.3c-1.6-0.8-3.2-1.2-4.8-1.2c-1.7,0-3,0.4-3.8,1.1
		c-0.8,0.8-1.3,1.9-1.3,3.4c-0.2,3.4-0.3,7-0.4,10.6c-0.1,3.7-0.1,7.3,0,10.8c0.1,3.6,0.2,6.9,0.3,10c0.1,1.7,0.5,3,1.3,3.8
		C256.6,415.1,257.8,415.5,259.6,415.5z"/>
	<path class="st2" d="M307.3,424.8c-4.1,0-7.3-1.2-9.7-3.6c-2.4-2.4-3.5-6.3-3.5-11.7V366H307l0.1,44.5c0,1.7,0.4,2.9,1.2,3.7
		c0.8,0.8,2.1,1.2,3.9,1.2c1.6,0,3.3-0.4,4.9-1.2c1.6-0.8,2.7-1.9,3.4-3.3V366h13v57.8h-13v-6h-1.8c-1.5,2.5-3.1,4.2-4.9,5.3
		C311.9,424.3,309.8,424.8,307.3,424.8z"/>
	<path class="st2" d="M370.8,387.8c0-0.7,0.1-1.6,0.1-2.7c0-1,0-2.1,0-3.1s0-1.9-0.1-2.6c-0.1-1.6-0.5-2.7-1.3-3.5s-2.3-1.2-4.4-1.2
		s-3.6,0.4-4.4,1.1s-1.3,1.9-1.3,3.6c-0.1,3-0.2,5.7-0.2,8.3c0,2.6,0,5,0,7.4s0,4.8,0,7.3s0.1,5.1,0.2,7.8c0.1,1.8,0.5,3.1,1.4,3.9
		s2.4,1.2,4.5,1.2s3.5-0.4,4.3-1.3c0.8-0.8,1.2-2.1,1.2-3.9c0.1-1.1,0.1-2.2,0.1-3.4s0-2.8-0.1-4.6h12.7c0.1,0.6,0.1,1.6,0.1,3
		s0,2.7,0,3.8c-0.3,5.7-1.8,9.8-4.6,12.3c-2.8,2.5-7.4,3.7-13.6,3.7c-6.6,0-11.3-1.3-14.2-3.8c-2.8-2.5-4.4-6.6-4.7-12.2
		c-0.1-1.7-0.2-3.8-0.2-6.3s0-5.1,0-7.8c0-2.7,0-5.3,0.1-7.6c0-2.4,0.1-4.3,0.2-5.7c0.4-5.8,2-10,4.9-12.5s7.5-3.7,13.8-3.7
		c6.4,0,11,1.2,13.8,3.7c2.8,2.4,4.4,6.5,4.6,12c0.1,1.1,0.1,2.4,0,3.9c0,1.5-0.1,2.5-0.1,3L370.8,387.8L370.8,387.8z"/>
	<path class="st2" d="M418,424.8c-7.1,0-12.2-1.2-15.2-3.7s-4.5-6.6-4.6-12.5l-0.1-32.9h-5.5v-9.6h5.8v-16.4h13v16.4H422v9.6h-11
		l0.1,34.4c0,2.1,0.5,3.4,1.5,4.1s2.8,1,5.3,1c0.9,0,1.7,0,2.5,0s1.7,0,2.6,0v9.2c-0.8,0.1-1.6,0.2-2.4,0.3
		C419.9,424.8,418.9,424.8,418,424.8z"/>
	<path class="st2" d="M449.6,424.8c-6.1,0-10.5-1.2-13.1-3.7s-4-6.6-4.3-12.3c0-1.3,0-2.5,0-3.5c0-1.1,0.1-1.9,0.1-2.5h11.4
		c-0.1,1.9-0.1,3.4-0.1,4.5s0,2.1,0.1,3c0.1,1.9,0.6,3.2,1.6,3.9c1,0.7,2.4,1.1,4.3,1.1c2.3,0,3.9-0.4,5-1.2c1-0.8,1.5-2.1,1.5-4
		c0-0.8,0-1.4,0-1.6c0-0.3,0-0.5,0-0.7s0-0.7,0-1.5c0-1.3-0.3-2.3-0.8-3.1c-0.5-0.8-1.5-1.4-3-1.8l-6.7-1.7c-3-0.8-5.5-1.8-7.5-3
		s-3.6-2.8-4.6-4.7c-1-1.9-1.6-4.3-1.6-7.1c0-0.6,0-1.2,0-1.8c0-0.5,0-1.1,0-1.6c0-5.8,1.4-9.9,4.2-12.5c2.7-2.5,7.5-3.8,14.2-3.8
		c6.1,0,10.5,1.2,13.1,3.7c2.6,2.4,4.1,6.5,4.3,12c0,0.7,0,1.7,0,3.2c0,1.4-0.1,2.4-0.2,3h-11.8c0-0.7,0.1-1.6,0.1-2.6s0-1.9,0-2.8
		s0-1.6-0.1-2.2c-0.1-1.7-0.5-2.9-1.3-3.6s-2.2-1.1-4.2-1.1c-2.1,0-3.5,0.4-4.4,1.1c-0.8,0.7-1.3,1.9-1.3,3.6c0,0.2,0,0.6,0,1.3
		c0,0.6,0,1.6,0,2.9c0,1.6,0.3,2.9,0.8,3.8c0.6,0.9,1.7,1.6,3.3,2l6,1.4c4.5,1,7.9,2.7,10.1,4.9c2.2,2.2,3.4,5.5,3.4,9.9
		c0,0.6,0,1.2,0,1.8c0,0.6,0,1.2,0,1.8c0,5.6-1.5,9.6-4.3,12C460.9,423.6,456.2,424.8,449.6,424.8z"/>
</g>
<circle class="st2" cx="118.9" cy="575.9" r="14.1"/>
<g>
	<path class="st1" d="M175,580.2c0,1.4-0.3,2.5-1,3.5s-1.6,1.8-2.9,2.3c-1.3,0.5-2.8,0.8-4.6,0.8c-0.8,0-1.6-0.1-2.3-0.2
		c-0.8-0.1-1.5-0.3-2.2-0.5s-1.4-0.5-2-0.8V581c1.1,0.5,2.2,0.9,3.4,1.3s2.3,0.6,3.5,0.6c0.8,0,1.4-0.1,1.9-0.3s0.8-0.5,1.1-0.9
		c0.2-0.4,0.3-0.8,0.3-1.3c0-0.6-0.2-1.1-0.6-1.5c-0.4-0.4-0.9-0.8-1.6-1.1s-1.4-0.7-2.3-1.1c-0.5-0.3-1.1-0.6-1.7-0.9
		c-0.6-0.4-1.2-0.8-1.8-1.3s-1-1.2-1.4-1.9s-0.5-1.6-0.5-2.7c0-1.4,0.3-2.5,0.9-3.5c0.6-1,1.5-1.7,2.7-2.2s2.5-0.8,4.1-0.8
		c1.2,0,2.3,0.1,3.4,0.4c1.1,0.3,2.2,0.7,3.4,1.2l-1.6,3.8c-1.1-0.4-2-0.8-2.8-1s-1.7-0.4-2.6-0.4c-0.6,0-1.1,0.1-1.6,0.3
		s-0.8,0.5-1,0.8c-0.2,0.4-0.3,0.8-0.3,1.2c0,0.5,0.2,1,0.5,1.4s0.8,0.7,1.4,1.1s1.4,0.7,2.4,1.2c1.2,0.6,2.2,1.1,3,1.7
		c0.8,0.6,1.5,1.3,1.9,2.1C174.8,578,175,579,175,580.2z"/>
	<path class="st1" d="M190,568.7c2,0,3.6,0.8,4.8,2.3s1.8,3.8,1.8,6.8c0,2-0.3,3.7-0.9,5c-0.6,1.4-1.4,2.4-2.4,3.1
		c-1,0.7-2.2,1-3.5,1c-0.8,0-1.6-0.1-2.2-0.3s-1.1-0.5-1.6-0.8s-0.8-0.7-1.1-1.1h-0.3c0.1,0.4,0.1,0.8,0.2,1.3
		c0,0.4,0.1,0.9,0.1,1.3v7.1h-4.8V569h3.9l0.7,2.3h0.2c0.3-0.5,0.7-0.9,1.1-1.3c0.4-0.4,1-0.7,1.6-0.9
		C188.4,568.8,189.2,568.7,190,568.7z M188.5,572.5c-0.8,0-1.5,0.2-2,0.5s-0.8,0.9-1.1,1.6c-0.2,0.7-0.3,1.6-0.4,2.6v0.5
		c0,1.1,0.1,2.1,0.3,2.9s0.6,1.4,1.1,1.8c0.5,0.4,1.2,0.6,2.1,0.6c0.7,0,1.3-0.2,1.8-0.6c0.5-0.4,0.8-1,1.1-1.8
		c0.2-0.8,0.4-1.8,0.4-2.9c0-1.7-0.3-3-0.8-3.9C190.4,573,189.6,572.5,188.5,572.5z"/>
	<path class="st1" d="M209.2,568.7c2.4,0,4.2,0.5,5.4,1.5s1.9,2.6,1.9,4.7v11.7h-3.3l-0.9-2.4h-0.1c-0.5,0.6-1,1.1-1.5,1.5
		s-1.1,0.7-1.8,0.9s-1.5,0.3-2.5,0.3s-2-0.2-2.8-0.6c-0.8-0.4-1.5-1-1.9-1.8c-0.5-0.8-0.7-1.9-0.7-3.1c0-1.9,0.7-3.2,2-4.1
		c1.3-0.9,3.3-1.4,5.9-1.5l3-0.1v-0.8c0-0.9-0.2-1.6-0.7-2s-1.2-0.6-2-0.6s-1.7,0.1-2.5,0.4c-0.8,0.2-1.6,0.5-2.4,0.9l-1.6-3.2
		c0.9-0.5,2-0.9,3.1-1.2C206.8,568.8,208,568.7,209.2,568.7z M211.7,578.4l-1.9,0.1c-1.5,0-2.6,0.3-3.2,0.8c-0.6,0.5-0.9,1.2-0.9,2
		c0,0.7,0.2,1.3,0.6,1.6c0.4,0.3,1,0.5,1.7,0.5c1,0,1.9-0.3,2.6-0.9c0.7-0.6,1.1-1.5,1.1-2.6L211.7,578.4L211.7,578.4z"/>
	<path class="st1" d="M232.6,568.7c0.2,0,0.5,0,0.8,0s0.6,0.1,0.8,0.1l-0.4,4.5c-0.2-0.1-0.4-0.1-0.7-0.1s-0.5,0-0.7,0
		c-0.6,0-1.2,0.1-1.8,0.2c-0.6,0.2-1.1,0.4-1.6,0.8c-0.5,0.3-0.8,0.8-1.1,1.4c-0.3,0.6-0.4,1.3-0.4,2.1v8.9h-4.8V569h3.6l0.7,2.9
		h0.2c0.3-0.6,0.8-1.1,1.3-1.6s1.1-0.9,1.8-1.2C231.1,568.9,231.9,568.7,232.6,568.7z"/>
	<path class="st1" d="M243.7,562.2v10.9c0,0.7,0,1.3-0.1,2s-0.1,1.3-0.2,2h0.1c0.3-0.5,0.7-0.9,1-1.4c0.3-0.4,0.7-0.9,1.1-1.3
		l4.9-5.3h5.4l-7,7.6l7.4,9.9h-5.5l-5-7.1l-2.1,1.6v5.5h-4.8v-24.4H243.7z"/>
	<path class="st1" d="M284.4,586.6l-1.7-5.5h-8.4l-1.7,5.5h-5.2l8.1-23h5.9l8.1,23H284.4z M281.6,577l-1.7-5.3
		c-0.1-0.4-0.2-0.8-0.4-1.4c-0.2-0.6-0.3-1.1-0.5-1.7s-0.3-1.1-0.4-1.5c-0.1,0.4-0.2,1-0.4,1.6c-0.2,0.6-0.4,1.2-0.5,1.8
		c-0.2,0.6-0.3,1-0.4,1.2l-1.6,5.3L281.6,577L281.6,577z"/>
	<path class="st1" d="M300.7,563.6c2.1,0,3.8,0.3,5.2,0.8s2.4,1.3,3,2.3c0.7,1,1,2.3,1,3.8c0,1-0.2,2-0.6,2.7
		c-0.4,0.8-0.9,1.4-1.6,2c-0.6,0.5-1.3,1-2.1,1.3l6.7,10h-5.4l-5.5-8.8h-2.6v8.8H294v-22.9L300.7,563.6L300.7,563.6z M300.3,567.6
		h-1.5v6.2h1.6c1.6,0,2.8-0.3,3.5-0.8s1-1.3,1-2.4c0-1.1-0.4-1.9-1.1-2.3S301.9,567.6,300.3,567.6z"/>
	<path class="st1" d="M340.5,586.6l-1.7-5.5h-8.4l-1.7,5.5h-5.2l8.1-23h5.9l8.1,23H340.5z M337.7,577l-1.7-5.3
		c-0.1-0.4-0.2-0.8-0.4-1.4c-0.2-0.6-0.3-1.1-0.5-1.7s-0.3-1.1-0.4-1.5c-0.1,0.4-0.2,1-0.4,1.6c-0.2,0.6-0.4,1.2-0.5,1.8
		c-0.2,0.6-0.3,1-0.4,1.2l-1.6,5.3L337.7,577L337.7,577z"/>
	<path class="st1" d="M361.9,581.4c0,1.2-0.3,2.2-0.8,3c-0.6,0.8-1.4,1.4-2.5,1.9c-1.1,0.4-2.5,0.6-4.1,0.6c-1.2,0-2.3-0.1-3.1-0.2
		c-0.9-0.2-1.8-0.4-2.6-0.8v-4c1,0.4,2,0.8,3.1,1.1s2.1,0.4,2.9,0.4c0.9,0,1.6-0.1,2-0.4c0.4-0.3,0.6-0.6,0.6-1.1
		c0-0.3-0.1-0.6-0.2-0.8c-0.2-0.2-0.5-0.5-1-0.8s-1.4-0.7-2.5-1.2s-2-0.9-2.7-1.4s-1.2-1-1.6-1.7c-0.3-0.6-0.5-1.5-0.5-2.5
		c0-1.6,0.6-2.8,1.9-3.7c1.3-0.8,2.9-1.2,5.1-1.2c1.1,0,2.1,0.1,3.1,0.3s2,0.6,3.1,1.1l-1.4,3.5c-0.9-0.4-1.7-0.7-2.5-0.9
		s-1.6-0.4-2.3-0.4c-0.7,0-1.2,0.1-1.6,0.3s-0.5,0.5-0.5,0.9c0,0.3,0.1,0.5,0.3,0.8c0.2,0.2,0.5,0.5,1.1,0.7s1.3,0.6,2.3,1
		s1.9,0.8,2.6,1.3s1.3,1,1.7,1.6C361.7,579.5,361.9,580.3,361.9,581.4z"/>
	<path class="st1" d="M379.3,581.4c0,1.2-0.3,2.2-0.8,3c-0.6,0.8-1.4,1.4-2.5,1.9c-1.1,0.4-2.5,0.6-4.1,0.6c-1.2,0-2.3-0.1-3.1-0.2
		c-0.9-0.2-1.8-0.4-2.6-0.8v-4c1,0.4,2,0.8,3.1,1.1s2.1,0.4,2.9,0.4c0.9,0,1.6-0.1,2-0.4c0.4-0.3,0.6-0.6,0.6-1.1
		c0-0.3-0.1-0.6-0.2-0.8c-0.2-0.2-0.5-0.5-1-0.8s-1.4-0.7-2.5-1.2s-2-0.9-2.7-1.4s-1.2-1-1.6-1.7c-0.3-0.6-0.5-1.5-0.5-2.5
		c0-1.6,0.6-2.8,1.9-3.7c1.3-0.8,2.9-1.2,5.1-1.2c1.1,0,2.1,0.1,3.1,0.3s2,0.6,3.1,1.1l-1.4,3.5c-0.9-0.4-1.7-0.7-2.5-0.9
		s-1.6-0.4-2.3-0.4c-0.7,0-1.2,0.1-1.6,0.3s-0.5,0.5-0.5,0.9c0,0.3,0.1,0.5,0.3,0.8c0.2,0.2,0.5,0.5,1.1,0.7s1.3,0.6,2.3,1
		s1.9,0.8,2.6,1.3s1.3,1,1.7,1.6C379.1,579.5,379.3,580.3,379.3,581.4z"/>
	<path class="st1" d="M432.2,581.4c0,1.2-0.3,2.2-0.8,3c-0.6,0.8-1.4,1.4-2.5,1.9c-1.1,0.4-2.5,0.6-4.1,0.6c-1.2,0-2.3-0.1-3.1-0.2
		c-0.9-0.2-1.8-0.4-2.6-0.8v-4c1,0.4,2,0.8,3.1,1.1s2.1,0.4,2.9,0.4c0.9,0,1.6-0.1,2-0.4c0.4-0.3,0.6-0.6,0.6-1.1
		c0-0.3-0.1-0.6-0.2-0.8c-0.2-0.2-0.5-0.5-1-0.8s-1.4-0.7-2.5-1.2s-2-0.9-2.7-1.4s-1.2-1-1.6-1.7c-0.3-0.6-0.5-1.5-0.5-2.5
		c0-1.6,0.6-2.8,1.9-3.7c1.3-0.8,2.9-1.2,5.1-1.2c1.1,0,2.1,0.1,3.1,0.3s2,0.6,3.1,1.1l-1.4,3.5c-0.9-0.4-1.7-0.7-2.5-0.9
		s-1.6-0.4-2.3-0.4c-0.7,0-1.2,0.1-1.6,0.3s-0.5,0.5-0.5,0.9c0,0.3,0.1,0.5,0.3,0.8c0.2,0.2,0.5,0.5,1.1,0.7s1.3,0.6,2.3,1
		s1.9,0.8,2.6,1.3s1.3,1,1.7,1.6C432,579.5,432.2,580.3,432.2,581.4z"/>
	<path class="st1" d="M391.7,568.7c1.6,0,3,0.3,4.2,0.9s2.1,1.5,2.7,2.7s1,2.6,1,4.3v2.3h-11.3c0.1,1.3,0.5,2.4,1.2,3.2
		c0.8,0.8,1.8,1.2,3.2,1.2c1.1,0,2.1-0.1,3.1-0.3c0.9-0.2,1.9-0.6,2.9-1v3.7c-0.9,0.4-1.8,0.7-2.7,0.9c-0.9,0.2-2.1,0.3-3.4,0.3
		c-1.8,0-3.3-0.3-4.7-1c-1.4-0.6-2.4-1.6-3.2-3c-0.8-1.3-1.2-3-1.2-5s0.3-3.8,1-5.1c0.7-1.4,1.7-2.4,2.9-3.1
		S390.1,568.7,391.7,568.7z M391.8,572.1c-0.9,0-1.7,0.3-2.3,0.9c-0.6,0.6-1,1.5-1.1,2.8h6.7c0-0.7-0.1-1.3-0.4-1.9
		c-0.2-0.6-0.6-1-1.1-1.3S392.5,572.1,391.8,572.1z"/>
	<path class="st1" d="M412.3,583.1c0.5,0,1-0.1,1.5-0.2s1-0.2,1.5-0.4v3.6c-0.5,0.2-1.1,0.4-1.9,0.6s-1.6,0.2-2.5,0.2
		c-1,0-2-0.2-2.8-0.5s-1.5-0.9-2-1.8c-0.5-0.8-0.7-2-0.7-3.5v-8.5h-2.3v-2l2.6-1.6l1.4-3.7h3.1v3.7h4.9v3.6h-4.9v8.5
		c0,0.7,0.2,1.2,0.6,1.5C411.2,582.9,411.7,583.1,412.3,583.1z"/>
	<path class="st1" d="M453.2,568.7c2.4,0,4.2,0.5,5.4,1.5c1.2,1,1.9,2.6,1.9,4.7v11.7h-3.3l-0.9-2.4h-0.1c-0.5,0.6-1,1.1-1.5,1.5
		s-1.1,0.7-1.8,0.9c-0.7,0.2-1.5,0.3-2.5,0.3s-2-0.2-2.8-0.6c-0.8-0.4-1.5-1-1.9-1.8c-0.5-0.8-0.7-1.9-0.7-3.1c0-1.9,0.7-3.2,2-4.1
		c1.3-0.9,3.3-1.4,5.9-1.5l3-0.1v-0.8c0-0.9-0.2-1.6-0.7-2s-1.2-0.6-2-0.6s-1.7,0.1-2.5,0.4c-0.8,0.2-1.6,0.5-2.4,0.9l-1.6-3.2
		c0.9-0.5,2-0.9,3.1-1.2C450.7,568.8,451.9,568.7,453.2,568.7z M455.7,578.4l-1.9,0.1c-1.5,0-2.6,0.3-3.2,0.8
		c-0.6,0.5-0.9,1.2-0.9,2c0,0.7,0.2,1.3,0.6,1.6c0.4,0.3,1,0.5,1.7,0.5c1,0,1.9-0.3,2.6-0.9c0.7-0.6,1.1-1.5,1.1-2.6L455.7,578.4
		L455.7,578.4z"/>
	<path class="st1" d="M476.8,568.7c1.9,0,3.4,0.5,4.5,1.5c1.1,1,1.7,2.7,1.7,4.9v11.4h-4.8v-10.2c0-1.3-0.2-2.2-0.7-2.8
		s-1.2-1-2.1-1c-1.5,0-2.5,0.5-3,1.5s-0.8,2.4-0.8,4.3v8.2h-4.8V569h3.7l0.6,2.2h0.3c0.4-0.6,0.8-1.1,1.4-1.5
		c0.6-0.4,1.2-0.7,1.9-0.8C475.4,568.8,476.1,568.7,476.8,568.7z"/>
	<path class="st1" d="M494.9,586.9c-2,0-3.5-0.8-4.8-2.3c-1.2-1.5-1.8-3.8-1.8-6.8s0.6-5.3,1.9-6.8c1.2-1.5,2.9-2.3,4.9-2.3
		c0.8,0,1.6,0.1,2.2,0.3c0.6,0.2,1.2,0.5,1.7,0.9s0.9,0.8,1.2,1.3h0.2c-0.1-0.3-0.1-0.8-0.2-1.5c-0.1-0.7-0.1-1.3-0.1-2v-5.6h4.8
		v24.4h-3.7l-0.9-2.3h-0.4c-0.3,0.5-0.7,0.9-1.1,1.3c-0.5,0.4-1,0.7-1.6,0.9C496.6,586.6,495.8,586.9,494.9,586.9z M496.6,583.1
		c1.3,0,2.2-0.4,2.8-1.2c0.5-0.8,0.8-2,0.9-3.5v-0.5c0-1.7-0.3-3-0.8-3.9s-1.5-1.4-2.9-1.4c-1.1,0-1.9,0.5-2.5,1.4
		c-0.6,0.9-0.9,2.2-0.9,3.9s0.3,3,0.9,3.9C494.7,582.6,495.5,583.1,496.6,583.1z"/>
	<path class="st1" d="M520.9,568.7c0.2,0,0.5,0,0.8,0s0.6,0.1,0.8,0.1l-0.4,4.5c-0.2-0.1-0.4-0.1-0.7-0.1c-0.3,0-0.5,0-0.7,0
		c-0.6,0-1.2,0.1-1.8,0.2c-0.6,0.2-1.1,0.4-1.6,0.8c-0.5,0.3-0.8,0.8-1.1,1.4c-0.3,0.6-0.4,1.3-0.4,2.1v8.9H511V569h3.6l0.7,2.9h0.2
		c0.3-0.6,0.8-1.1,1.3-1.6s1.1-0.9,1.8-1.2C519.5,568.9,520.2,568.7,520.9,568.7z"/>
	<path class="st1" d="M543.1,577.8c0,1.5-0.2,2.8-0.6,3.9c-0.4,1.1-1,2.1-1.7,2.9c-0.7,0.8-1.6,1.4-2.7,1.8
		c-1.1,0.4-2.2,0.6-3.6,0.6c-1.2,0-2.4-0.2-3.4-0.6c-1-0.4-1.9-1-2.7-1.8s-1.3-1.7-1.8-2.9c-0.4-1.1-0.6-2.4-0.6-3.9
		c0-1.9,0.3-3.6,1-4.9c0.7-1.3,1.7-2.4,2.9-3.1c1.3-0.7,2.8-1.1,4.6-1.1c1.6,0,3.1,0.4,4.4,1.1c1.3,0.7,2.3,1.7,3,3.1
		C542.8,574.2,543.1,575.8,543.1,577.8z M531,577.8c0,1.2,0.1,2.1,0.4,2.9s0.6,1.4,1.2,1.8s1.2,0.6,2.1,0.6c0.8,0,1.5-0.2,2.1-0.6
		c0.5-0.4,0.9-1,1.2-1.8c0.2-0.8,0.4-1.8,0.4-2.9c0-1.2-0.1-2.1-0.4-2.9c-0.2-0.8-0.6-1.3-1.2-1.7s-1.2-0.6-2.1-0.6
		c-1.3,0-2.2,0.4-2.8,1.3C531.3,574.7,531,576,531,577.8z"/>
	<path class="st1" d="M550.9,562.2c0.7,0,1.3,0.2,1.8,0.5s0.8,0.9,0.8,1.8c0,0.9-0.3,1.5-0.8,1.8s-1.1,0.5-1.8,0.5s-1.3-0.2-1.8-0.5
		s-0.8-1-0.8-1.8c0-0.9,0.3-1.5,0.8-1.8C549.6,562.3,550.2,562.2,550.9,562.2z M553.3,569v17.5h-4.8V569H553.3z"/>
	<path class="st1" d="M565.3,586.9c-2,0-3.5-0.8-4.8-2.3c-1.2-1.5-1.8-3.8-1.8-6.8s0.6-5.3,1.9-6.8c1.2-1.5,2.9-2.3,4.9-2.3
		c0.8,0,1.6,0.1,2.2,0.3c0.6,0.2,1.2,0.5,1.7,0.9s0.9,0.8,1.2,1.3h0.2c-0.1-0.3-0.1-0.8-0.2-1.5s-0.1-1.3-0.1-2v-5.6h4.8v24.4h-3.7
		l-0.9-2.3h-0.2c-0.3,0.5-0.7,0.9-1.1,1.3c-0.5,0.4-1,0.7-1.6,0.9S566.2,586.9,565.3,586.9z M567,583.1c1.3,0,2.2-0.4,2.8-1.2
		c0.5-0.8,0.8-2,0.9-3.5v-0.5c0-1.7-0.3-3-0.8-3.9s-1.5-1.4-2.9-1.4c-1.1,0-1.9,0.5-2.5,1.4s-0.9,2.2-0.9,3.9s0.3,3,0.9,3.9
		C565,582.6,565.9,583.1,567,583.1z"/>
	<path class="st1" d="M598.5,568.7c2.4,0,4.2,0.5,5.4,1.5s1.9,2.6,1.9,4.7v11.7h-3.3l-0.9-2.4h-0.1c-0.5,0.6-1,1.1-1.5,1.5
		s-1.1,0.7-1.8,0.9s-1.5,0.3-2.5,0.3s-2-0.2-2.8-0.6c-0.8-0.4-1.5-1-1.9-1.8c-0.5-0.8-0.7-1.9-0.7-3.1c0-1.9,0.7-3.2,2-4.1
		c1.3-0.9,3.3-1.4,5.9-1.5l3-0.1v-0.8c0-0.9-0.2-1.6-0.7-2s-1.2-0.6-2-0.6s-1.7,0.1-2.5,0.4c-0.8,0.2-1.6,0.5-2.4,0.9l-1.6-3.2
		c0.9-0.5,2-0.9,3.1-1.2C596.1,568.8,597.3,568.7,598.5,568.7z M601,578.4l-1.9,0.1c-1.5,0-2.6,0.3-3.2,0.8c-0.6,0.5-0.9,1.2-0.9,2
		c0,0.7,0.2,1.3,0.6,1.6c0.4,0.3,1,0.5,1.7,0.5c1,0,1.9-0.3,2.6-0.9c0.7-0.6,1.1-1.5,1.1-2.6L601,578.4L601,578.4z"/>
	<path class="st1" d="M621.9,568.7c2,0,3.6,0.8,4.8,2.3s1.8,3.8,1.8,6.8c0,2-0.3,3.7-0.9,5c-0.6,1.4-1.4,2.4-2.4,3.1
		c-1,0.7-2.2,1-3.5,1c-0.8,0-1.6-0.1-2.2-0.3s-1.1-0.5-1.6-0.8s-0.8-0.7-1.1-1.1h-0.3c0.1,0.4,0.1,0.8,0.2,1.3
		c0,0.4,0.1,0.9,0.1,1.3v7.1H612V569h3.9l0.7,2.3h0.2c0.3-0.5,0.7-0.9,1.1-1.3c0.4-0.4,1-0.7,1.6-0.9
		C620.3,568.8,621.1,568.7,621.9,568.7z M620.4,572.5c-0.8,0-1.5,0.2-2,0.5s-0.8,0.9-1.1,1.6c-0.2,0.7-0.3,1.6-0.4,2.6v0.5
		c0,1.1,0.1,2.1,0.3,2.9s0.6,1.4,1.1,1.8c0.5,0.4,1.2,0.6,2.1,0.6c0.7,0,1.3-0.2,1.8-0.6c0.5-0.4,0.8-1,1.1-1.8
		c0.2-0.8,0.4-1.8,0.4-2.9c0-1.7-0.3-3-0.8-3.9C622.3,573,621.5,572.5,620.4,572.5z"/>
	<path class="st1" d="M643.7,568.7c2,0,3.6,0.8,4.8,2.3s1.8,3.8,1.8,6.8c0,2-0.3,3.7-0.9,5c-0.6,1.4-1.4,2.4-2.4,3.1
		c-1,0.7-2.2,1-3.5,1c-0.8,0-1.6-0.1-2.2-0.3s-1.1-0.5-1.6-0.8s-0.8-0.7-1.1-1.1h-0.3c0.1,0.4,0.1,0.8,0.2,1.3
		c0,0.4,0.1,0.9,0.1,1.3v7.1h-4.7V569h3.9l0.7,2.3h0.2c0.3-0.5,0.7-0.9,1.1-1.3c0.4-0.4,1-0.7,1.6-0.9
		C642.1,568.8,642.9,568.7,643.7,568.7z M642.2,572.5c-0.8,0-1.5,0.2-2,0.5s-0.8,0.9-1.1,1.6c-0.2,0.7-0.3,1.6-0.4,2.6v0.5
		c0,1.1,0.1,2.1,0.3,2.9s0.6,1.4,1.1,1.8c0.5,0.4,1.2,0.6,2.1,0.6c0.7,0,1.3-0.2,1.8-0.6c0.5-0.4,0.8-1,1.1-1.8
		c0.2-0.8,0.4-1.8,0.4-2.9c0-1.7-0.3-3-0.8-3.9C644.1,573,643.3,572.5,642.2,572.5z"/>
</g>
<circle class="st2" cx="118.9" cy="636.8" r="14.1"/>
<g>
	<path class="st1" d="M161.5,647.4v-22.9h4.9v18.9h9.3v4H161.5z"/>
	<path class="st1" d="M199.7,624.5v14.8c0,1.6-0.3,3-1,4.3s-1.7,2.3-3.2,3c-1.4,0.7-3.2,1.1-5.3,1.1c-3,0-5.3-0.8-6.9-2.3
		c-1.6-1.5-2.4-3.6-2.4-6.1v-14.8h4.8v14c0,1.9,0.4,3.2,1.2,4s1.9,1.1,3.4,1.1c1.1,0,1.9-0.2,2.6-0.5s1.2-0.9,1.5-1.7
		s0.5-1.7,0.5-2.9v-14L199.7,624.5L199.7,624.5z"/>
	<path class="st1" d="M215.6,647.4h-4.9v-18.9h-6.2v-4h17.3v4h-6.2L215.6,647.4L215.6,647.4z"/>
	<path class="st1" d="M241.4,655.1c-2.4,0-4.3-0.4-5.6-1.3s-1.9-2-1.9-3.6c0-1.1,0.3-1.9,1-2.7s1.6-1.2,2.9-1.5
		c-0.5-0.2-0.9-0.6-1.3-1c-0.4-0.5-0.5-1-0.5-1.5c0-0.7,0.2-1.2,0.6-1.7s0.9-0.9,1.7-1.3c-0.9-0.4-1.6-1-2.2-1.9
		c-0.5-0.9-0.8-1.9-0.8-3.1c0-1.3,0.3-2.4,0.8-3.3c0.6-0.9,1.4-1.6,2.4-2s2.4-0.7,3.9-0.7c0.3,0,0.7,0,1.1,0.1
		c0.4,0,0.8,0.1,1.2,0.1c0.4,0.1,0.6,0.1,0.7,0.1h6.1v2.4l-2.7,0.7c0.3,0.4,0.4,0.8,0.6,1.2c0.1,0.4,0.2,0.9,0.2,1.4
		c0,1.9-0.7,3.3-2,4.4c-1.3,1.1-3.1,1.6-5.5,1.6c-0.6,0-1.1-0.1-1.6-0.1c-0.2,0.2-0.4,0.4-0.5,0.6c-0.1,0.2-0.2,0.4-0.2,0.7
		c0,0.2,0.1,0.4,0.3,0.6s0.5,0.3,0.9,0.3s0.9,0.1,1.5,0.1h3c1.9,0,3.4,0.4,4.4,1.2s1.5,2,1.5,3.6c0,2-0.9,3.6-2.6,4.8
		C247,654.5,244.6,655.1,241.4,655.1z M241.6,652c1.1,0,2.1-0.1,2.9-0.3c0.8-0.2,1.5-0.5,1.9-0.9s0.7-0.9,0.7-1.4
		c0-0.4-0.1-0.8-0.4-1c-0.3-0.3-0.6-0.4-1.2-0.5s-1.2-0.2-2-0.2H241c-0.6,0-1.1,0.1-1.6,0.3s-0.8,0.5-1.1,0.8s-0.4,0.7-0.4,1.2
		c0,0.7,0.3,1.2,0.9,1.6C239.6,651.8,240.4,652,241.6,652z M242.3,638.7c0.9,0,1.6-0.3,2-0.8c0.4-0.6,0.6-1.3,0.6-2.3
		c0-1.1-0.2-1.8-0.7-2.4c-0.4-0.5-1.1-0.8-2-0.8s-1.5,0.3-2,0.8c-0.4,0.5-0.7,1.3-0.7,2.4c0,1,0.2,1.7,0.7,2.3
		C240.8,638.4,241.5,638.7,242.3,638.7z"/>
	<path class="st1" d="M263.1,629.5c1.6,0,3,0.3,4.2,0.9s2.1,1.5,2.7,2.7s1,2.6,1,4.3v2.3h-11.3c0.1,1.3,0.5,2.4,1.2,3.2
		c0.8,0.8,1.8,1.2,3.2,1.2c1.1,0,2.1-0.1,3.1-0.3c0.9-0.2,1.9-0.6,2.9-1v3.7c-0.9,0.4-1.8,0.7-2.7,0.9c-0.9,0.2-2.1,0.3-3.4,0.3
		c-1.8,0-3.3-0.3-4.7-1c-1.4-0.6-2.4-1.6-3.2-3c-0.8-1.3-1.2-3-1.2-5s0.3-3.8,1-5.1c0.7-1.4,1.7-2.4,2.9-3.1
		S261.4,629.5,263.1,629.5z M263.1,632.9c-0.9,0-1.7,0.3-2.3,0.9c-0.6,0.6-1,1.5-1.1,2.8h6.7c0-0.7-0.1-1.3-0.4-1.9
		c-0.2-0.6-0.6-1-1.1-1.3S263.8,632.9,263.1,632.9z"/>
	<path class="st1" d="M286.2,629.5c1.9,0,3.4,0.5,4.5,1.5s1.7,2.7,1.7,4.9v11.4h-4.8v-10.2c0-1.3-0.2-2.2-0.7-2.8s-1.2-1-2.1-1
		c-1.5,0-2.5,0.5-3,1.5s-0.8,2.4-0.8,4.3v8.2h-4.8v-17.5h3.7l0.6,2.2h0.3c0.4-0.6,0.8-1.1,1.4-1.5s1.2-0.7,1.9-0.8
		S285.5,629.5,286.2,629.5z"/>
	<path class="st1" d="M306,629.5c1.6,0,3,0.3,4.2,0.9s2.1,1.5,2.7,2.7s1,2.6,1,4.3v2.3h-11.3c0.1,1.3,0.5,2.4,1.2,3.2
		c0.8,0.8,1.8,1.2,3.2,1.2c1.1,0,2.1-0.1,3.1-0.3c0.9-0.2,1.9-0.6,2.9-1v3.7c-0.9,0.4-1.8,0.7-2.7,0.9c-0.9,0.2-2.1,0.3-3.4,0.3
		c-1.8,0-3.3-0.3-4.7-1c-1.4-0.6-2.4-1.6-3.2-3c-0.8-1.3-1.2-3-1.2-5s0.3-3.8,1-5.1c0.7-1.4,1.7-2.4,2.9-3.1S304.4,629.5,306,629.5z
		 M306.1,632.9c-0.9,0-1.7,0.3-2.3,0.9c-0.6,0.6-1,1.5-1.1,2.8h6.7c0-0.7-0.1-1.3-0.4-1.9c-0.2-0.6-0.6-1-1.1-1.3
		S306.8,632.9,306.1,632.9z"/>
	<path class="st1" d="M329,629.5c0.2,0,0.5,0,0.8,0s0.6,0.1,0.8,0.1l-0.4,4.5c-0.2-0.1-0.4-0.1-0.7-0.1s-0.5,0-0.7,0
		c-0.6,0-1.2,0.1-1.8,0.2c-0.6,0.2-1.1,0.4-1.6,0.8c-0.5,0.3-0.8,0.8-1.1,1.4c-0.3,0.6-0.4,1.3-0.4,2.1v8.9h-4.8v-17.5h3.6l0.7,2.9
		h0.2c0.3-0.6,0.8-1.1,1.3-1.6s1.1-0.9,1.8-1.2C327.5,629.7,328.2,629.5,329,629.5z"/>
	<path class="st1" d="M342.4,629.5c2.4,0,4.2,0.5,5.4,1.5s1.9,2.6,1.9,4.7v11.7h-3.3l-0.9-2.4h-0.1c-0.5,0.6-1,1.1-1.5,1.5
		s-1.1,0.7-1.8,0.9s-1.5,0.3-2.5,0.3s-2-0.2-2.8-0.6c-0.8-0.4-1.5-1-1.9-1.8c-0.5-0.8-0.7-1.9-0.7-3.1c0-1.9,0.7-3.2,2-4.1
		c1.3-0.9,3.3-1.4,5.9-1.5l3-0.1v-0.8c0-0.9-0.2-1.6-0.7-2s-1.2-0.6-2-0.6s-1.7,0.1-2.5,0.4c-0.8,0.2-1.6,0.5-2.4,0.9l-1.6-3.2
		c0.9-0.5,2-0.9,3.1-1.2C340,629.6,341.2,629.5,342.4,629.5z M345,639.3l-1.9,0.1c-1.5,0-2.6,0.3-3.2,0.8s-0.9,1.2-0.9,2
		c0,0.7,0.2,1.3,0.6,1.6s1,0.5,1.7,0.5c1,0,1.9-0.3,2.6-0.9c0.7-0.6,1.1-1.5,1.1-2.6L345,639.3L345,639.3z"/>
	<path class="st1" d="M363.5,643.9c0.5,0,1-0.1,1.5-0.2s1-0.2,1.5-0.4v3.6c-0.5,0.2-1.1,0.4-1.9,0.6s-1.6,0.2-2.5,0.2
		c-1,0-2-0.2-2.8-0.5s-1.5-0.9-2-1.8c-0.5-0.8-0.7-2-0.7-3.5v-8.5h-2.3v-2l2.6-1.6l1.4-3.7h3.1v3.7h4.9v3.6h-4.9v8.5
		c0,0.7,0.2,1.2,0.6,1.5C362.4,643.7,362.9,643.9,363.5,643.9z"/>
	<path class="st1" d="M387.4,638.6c0,1.5-0.2,2.8-0.6,3.9c-0.4,1.1-1,2.1-1.7,2.9c-0.7,0.8-1.6,1.4-2.7,1.8
		c-1.1,0.4-2.2,0.6-3.6,0.6c-1.2,0-2.4-0.2-3.4-0.6c-1-0.4-1.9-1-2.7-1.8c-0.8-0.8-1.3-1.7-1.8-2.9c-0.4-1.1-0.6-2.4-0.6-3.9
		c0-1.9,0.3-3.6,1-4.9c0.7-1.3,1.7-2.4,2.9-3.1c1.3-0.7,2.8-1.1,4.6-1.1c1.6,0,3.1,0.4,4.4,1.1c1.3,0.7,2.3,1.7,3,3.1
		C387.1,635,387.4,636.6,387.4,638.6z M375.3,638.6c0,1.2,0.1,2.1,0.4,2.9s0.6,1.4,1.2,1.8s1.2,0.6,2.1,0.6c0.8,0,1.5-0.2,2.1-0.6
		c0.5-0.4,0.9-1,1.2-1.8c0.2-0.8,0.4-1.8,0.4-2.9c0-1.2-0.1-2.1-0.4-2.9c-0.2-0.8-0.6-1.3-1.2-1.7s-1.2-0.6-2.1-0.6
		c-1.3,0-2.2,0.4-2.8,1.3C375.6,635.6,375.3,636.9,375.3,638.6z"/>
	<path class="st1" d="M402.6,629.5c0.2,0,0.5,0,0.8,0s0.6,0.1,0.8,0.1l-0.4,4.5c-0.2-0.1-0.4-0.1-0.7-0.1s-0.5,0-0.7,0
		c-0.6,0-1.2,0.1-1.8,0.2c-0.6,0.2-1.1,0.4-1.6,0.8c-0.5,0.3-0.8,0.8-1.1,1.4c-0.3,0.6-0.4,1.3-0.4,2.1v8.9h-4.8v-17.5h3.6l0.7,2.9
		h0.2c0.3-0.6,0.8-1.1,1.3-1.6s1.1-0.9,1.8-1.2C401.1,629.7,401.8,629.5,402.6,629.5z"/>
	<path class="st1" d="M433.1,647.4l-1.3-6.1c-0.1-0.4-0.2-0.9-0.4-1.6c-0.2-0.7-0.3-1.5-0.5-2.3s-0.4-1.6-0.5-2.3
		c-0.2-0.7-0.3-1.2-0.4-1.5h-0.1c-0.1,0.3-0.2,0.8-0.3,1.5c-0.2,0.7-0.3,1.5-0.5,2.3s-0.4,1.6-0.5,2.3c-0.2,0.7-0.3,1.3-0.4,1.7
		l-1.4,6.1h-5.1l-5-17.5h4.8l2,7.8c0.1,0.5,0.3,1.2,0.4,1.9s0.2,1.5,0.3,2.2c0.1,0.7,0.2,1.2,0.2,1.7h0.1c0-0.3,0.1-0.7,0.1-1.2
		c0.1-0.5,0.1-1,0.2-1.6c0.1-0.5,0.2-1,0.3-1.5c0.1-0.4,0.1-0.7,0.2-0.9l2.2-8.4h5.3l2.1,8.4c0.1,0.3,0.2,0.8,0.3,1.4
		c0.1,0.7,0.2,1.3,0.3,2c0.1,0.7,0.1,1.2,0.2,1.6h0.1c0-0.4,0.1-0.9,0.2-1.6s0.2-1.4,0.4-2.2s0.3-1.4,0.4-2l2.1-7.8h4.7l-5,17.5
		L433.1,647.4L433.1,647.4z"/>
	<path class="st1" d="M454.8,629.5c1.6,0,3,0.3,4.2,0.9s2.1,1.5,2.7,2.7s1,2.6,1,4.3v2.3h-11.3c0.1,1.3,0.5,2.4,1.2,3.2
		c0.8,0.8,1.8,1.2,3.2,1.2c1.1,0,2.1-0.1,3.1-0.3c0.9-0.2,1.9-0.6,2.9-1v3.7c-0.9,0.4-1.8,0.7-2.7,0.9c-0.9,0.2-2.1,0.3-3.4,0.3
		c-1.8,0-3.3-0.3-4.7-1c-1.4-0.6-2.4-1.6-3.2-3c-0.8-1.3-1.2-3-1.2-5s0.3-3.8,1-5.1c0.7-1.4,1.7-2.4,2.9-3.1
		S453.2,629.5,454.8,629.5z M454.8,632.9c-0.9,0-1.7,0.3-2.3,0.9c-0.6,0.6-1,1.5-1.1,2.8h6.7c0-0.7-0.1-1.3-0.4-1.9
		c-0.2-0.6-0.6-1-1.1-1.3S455.6,632.9,454.8,632.9z"/>
	<path class="st1" d="M472.8,623v5.7c0,0.7,0,1.3-0.1,2c0,0.6-0.1,1.2-0.1,1.5h0.2c0.5-0.7,1.1-1.3,1.9-1.8s1.8-0.8,3.1-0.8
		c2,0,3.6,0.8,4.8,2.3c1.2,1.5,1.8,3.8,1.8,6.8c0,2-0.3,3.7-0.8,5s-1.4,2.4-2.4,3.1c-1,0.7-2.2,1-3.5,1s-2.3-0.2-3-0.7
		s-1.3-1-1.8-1.6h-0.3l-0.8,1.9H468V623H472.8z M476.2,633.4c-0.8,0-1.5,0.2-2,0.5s-0.8,0.9-1.1,1.6c-0.2,0.7-0.3,1.6-0.4,2.6v0.5
		c0,1.7,0.3,3,0.8,3.9s1.4,1.4,2.7,1.4c1,0,1.8-0.5,2.3-1.4c0.6-0.9,0.9-2.2,0.9-3.9s-0.3-3-0.9-3.9
		C478,633.8,477.2,633.4,476.2,633.4z"/>
	<path class="st1" d="M502,642.2c0,1.2-0.3,2.2-0.8,3c-0.6,0.8-1.4,1.4-2.5,1.9c-1.1,0.4-2.5,0.6-4.1,0.6c-1.2,0-2.3-0.1-3.1-0.2
		c-0.9-0.2-1.8-0.4-2.6-0.8v-4c1,0.4,2,0.8,3.1,1.1s2.1,0.4,2.9,0.4c0.9,0,1.6-0.1,2-0.4c0.4-0.3,0.6-0.6,0.6-1.1
		c0-0.3-0.1-0.6-0.2-0.8c-0.2-0.2-0.5-0.5-1-0.8s-1.4-0.7-2.5-1.2s-2-0.9-2.7-1.4s-1.2-1-1.6-1.7c-0.3-0.6-0.5-1.5-0.5-2.5
		c0-1.6,0.6-2.8,1.9-3.7c1.3-0.8,2.9-1.2,5.1-1.2c1.1,0,2.1,0.1,3.1,0.3s2,0.6,3.1,1.1l-1.4,3.5c-0.9-0.4-1.7-0.7-2.5-0.9
		s-1.6-0.4-2.3-0.4c-0.7,0-1.2,0.1-1.6,0.3s-0.5,0.5-0.5,0.9c0,0.3,0.1,0.5,0.3,0.8c0.2,0.2,0.5,0.5,1.1,0.7s1.3,0.6,2.3,1
		s1.9,0.8,2.6,1.3s1.3,1,1.7,1.6C501.8,640.3,502,641.1,502,642.2z"/>
	<path class="st1" d="M509.6,623c0.7,0,1.3,0.2,1.8,0.5s0.8,0.9,0.8,1.8c0,0.9-0.3,1.5-0.8,1.8s-1.1,0.5-1.8,0.5
		c-0.7,0-1.3-0.2-1.8-0.5s-0.8-1-0.8-1.8c0-0.9,0.3-1.5,0.8-1.8C508.2,623.2,508.9,623,509.6,623z M512,629.9v17.5h-4.8v-17.5H512z"
		/>
	<path class="st1" d="M525.8,643.9c0.5,0,1-0.1,1.5-0.2s1-0.2,1.5-0.4v3.6c-0.5,0.2-1.1,0.4-1.9,0.6s-1.6,0.2-2.5,0.2
		c-1,0-2-0.2-2.8-0.5s-1.5-0.9-2-1.8c-0.5-0.8-0.7-2-0.7-3.5v-8.5h-2.3v-2l2.6-1.6l1.4-3.7h3.1v3.7h4.9v3.6h-4.9v8.5
		c0,0.7,0.2,1.2,0.6,1.5C524.7,643.7,525.2,643.9,525.8,643.9z"/>
	<path class="st1" d="M541,629.5c1.6,0,3,0.3,4.2,0.9s2.1,1.5,2.7,2.7s1,2.6,1,4.3v2.3h-11.3c0.1,1.3,0.5,2.4,1.2,3.2
		c0.8,0.8,1.8,1.2,3.2,1.2c1.1,0,2.1-0.1,3.1-0.3c0.9-0.2,1.9-0.6,2.9-1v3.7c-0.9,0.4-1.8,0.7-2.7,0.9s-2.1,0.3-3.4,0.3
		c-1.8,0-3.3-0.3-4.7-1c-1.4-0.6-2.4-1.6-3.2-3c-0.8-1.3-1.2-3-1.2-5s0.3-3.8,1-5.1c0.7-1.4,1.7-2.4,2.9-3.1S539.4,629.5,541,629.5z
		 M541.1,632.9c-0.9,0-1.7,0.3-2.3,0.9c-0.6,0.6-1,1.5-1.1,2.8h6.7c0-0.7-0.1-1.3-0.4-1.9c-0.2-0.6-0.6-1-1.1-1.3
		S541.8,632.9,541.1,632.9z"/>
</g>
<g>
	<path class="st1" d="M167.7,525.7h-5.2v-25h14.3v4.3h-9.1v6.4h8.5v4.3h-8.5V525.7z"/>
	<path class="st1" d="M189.2,506.2c2.6,0,4.5,0.6,5.9,1.7c1.4,1.1,2.1,2.8,2.1,5.1v12.7h-3.6l-1-2.6h-0.1c-0.5,0.7-1.1,1.2-1.7,1.7
		c-0.6,0.4-1.2,0.8-2,1c-0.7,0.2-1.6,0.3-2.7,0.3c-1.1,0-2.1-0.2-3-0.6c-0.9-0.4-1.6-1.1-2.1-2c-0.5-0.9-0.8-2-0.8-3.4
		c0-2,0.7-3.5,2.1-4.5c1.4-1,3.6-1.5,6.4-1.6l3.3-0.1V513c0-1-0.3-1.7-0.8-2.2c-0.5-0.5-1.3-0.7-2.2-0.7c-0.9,0-1.8,0.1-2.7,0.4
		c-0.9,0.3-1.8,0.6-2.7,1l-1.7-3.5c1-0.5,2.2-1,3.4-1.3S187.9,506.2,189.2,506.2z M192,516.9l-2,0.1c-1.7,0-2.9,0.3-3.5,0.9
		c-0.7,0.6-1,1.3-1,2.2c0,0.8,0.2,1.4,0.7,1.7c0.5,0.3,1.1,0.5,1.8,0.5c1.1,0,2.1-0.3,2.8-1c0.8-0.7,1.2-1.6,1.2-2.8V516.9z"/>
	<path class="st1" d="M210.4,526.1c-1.9,0-3.5-0.3-4.8-1c-1.3-0.7-2.3-1.8-3-3.2c-0.7-1.4-1-3.3-1-5.6c0-2.3,0.4-4.2,1.2-5.7
		s1.9-2.6,3.3-3.3c1.4-0.7,3-1,4.9-1c1.3,0,2.5,0.1,3.4,0.4c1,0.3,1.8,0.6,2.5,0.9l-1.5,4c-0.8-0.3-1.6-0.6-2.3-0.8
		c-0.7-0.2-1.4-0.3-2.1-0.3c-0.9,0-1.7,0.2-2.3,0.6c-0.6,0.4-1.1,1.1-1.4,1.9c-0.3,0.9-0.4,1.9-0.4,3.2c0,1.3,0.2,2.3,0.5,3.1
		c0.3,0.8,0.8,1.4,1.4,1.9c0.6,0.4,1.3,0.6,2.2,0.6c1.1,0,2-0.1,2.9-0.4c0.8-0.3,1.7-0.7,2.5-1.2v4.5c-0.8,0.5-1.6,0.9-2.5,1.1
		C212.8,526,211.7,526.1,210.4,526.1z"/>
	<path class="st1" d="M223.3,499.2c0.8,0,1.4,0.2,2,0.5c0.6,0.4,0.8,1,0.8,2c0,1-0.3,1.6-0.8,2c-0.6,0.4-1.2,0.6-2,0.6
		c-0.8,0-1.5-0.2-2-0.6s-0.8-1-0.8-2c0-1,0.3-1.6,0.8-2C221.9,499.3,222.6,499.2,223.3,499.2z M225.9,506.6v19.1h-5.2v-19.1H225.9z"
		/>
	<path class="st1" d="M239.3,506.2c2.6,0,4.5,0.6,5.9,1.7c1.4,1.1,2.1,2.8,2.1,5.1v12.7h-3.6l-1-2.6h-0.1c-0.5,0.7-1.1,1.2-1.7,1.7
		c-0.6,0.4-1.2,0.8-2,1c-0.7,0.2-1.6,0.3-2.7,0.3c-1.1,0-2.1-0.2-3-0.6c-0.9-0.4-1.6-1.1-2.1-2c-0.5-0.9-0.8-2-0.8-3.4
		c0-2,0.7-3.5,2.1-4.5c1.4-1,3.6-1.5,6.4-1.6l3.3-0.1V513c0-1-0.3-1.7-0.8-2.2c-0.5-0.5-1.3-0.7-2.2-0.7c-0.9,0-1.8,0.1-2.7,0.4
		c-0.9,0.3-1.8,0.6-2.7,1L232,508c1-0.5,2.2-1,3.4-1.3S238,506.2,239.3,506.2z M242.1,516.9l-2,0.1c-1.7,0-2.9,0.3-3.5,0.9
		c-0.7,0.6-1,1.3-1,2.2c0,0.8,0.2,1.4,0.7,1.7c0.5,0.3,1.1,0.5,1.8,0.5c1.1,0,2.1-0.3,2.8-1c0.8-0.7,1.2-1.6,1.2-2.8V516.9z"/>
	<path class="st1" d="M258,525.7h-5.2v-26.6h5.2V525.7z"/>
	<path class="st1" d="M287.5,525.7h-14.4v-25h14.4v4.3h-9.1v5.5h8.5v4.3h-8.5v6.4h9.1V525.7z"/>
	<path class="st1" d="M296.4,516l-6.2-9.3h5.9l3.7,6.1l3.7-6.1h5.9l-6.2,9.3l6.5,9.8h-5.9l-4-6.5l-4,6.5h-5.9L296.4,516z"/>
	<path class="st1" d="M323.4,506.3c2.2,0,3.9,0.8,5.2,2.5s2,4.1,2,7.4c0,2.2-0.3,4-0.9,5.5c-0.6,1.5-1.5,2.6-2.6,3.3
		c-1.1,0.8-2.4,1.1-3.8,1.1c-0.9,0-1.7-0.1-2.4-0.4c-0.7-0.2-1.2-0.5-1.7-0.9c-0.5-0.4-0.9-0.8-1.2-1.2h-0.3
		c0.1,0.5,0.2,0.9,0.2,1.4c0,0.5,0.1,0.9,0.1,1.4v7.7h-5.2v-27.5h4.2l0.7,2.5h0.2c0.3-0.5,0.8-1,1.2-1.4c0.5-0.4,1.1-0.8,1.8-1
		C321.7,506.4,322.5,506.3,323.4,506.3z M321.7,510.4c-0.9,0-1.6,0.2-2.2,0.6c-0.5,0.4-0.9,0.9-1.2,1.7c-0.2,0.8-0.4,1.7-0.4,2.9
		v0.6c0,1.2,0.1,2.3,0.4,3.1s0.6,1.5,1.2,1.9c0.6,0.4,1.3,0.7,2.3,0.7c0.8,0,1.5-0.2,2-0.7s0.9-1.1,1.2-2c0.3-0.9,0.4-1.9,0.4-3.2
		c0-1.9-0.3-3.3-0.9-4.2C323.9,510.9,323,510.4,321.7,510.4z"/>
	<path class="st1" d="M345.7,506.3c0.3,0,0.6,0,0.9,0c0.3,0,0.6,0.1,0.8,0.1l-0.4,4.9c-0.2-0.1-0.4-0.1-0.7-0.1s-0.6,0-0.8,0
		c-0.7,0-1.3,0.1-2,0.3c-0.6,0.2-1.2,0.4-1.7,0.8c-0.5,0.4-0.9,0.9-1.2,1.5c-0.3,0.6-0.4,1.4-0.4,2.3v9.7H335v-19.1h3.9l0.8,3.2h0.3
		c0.4-0.6,0.8-1.2,1.4-1.8c0.6-0.5,1.2-1,1.9-1.3C344.1,506.4,344.9,506.3,345.7,506.3z"/>
	<path class="st1" d="M358.9,506.3c1.8,0,3.3,0.3,4.6,1c1.3,0.7,2.3,1.7,3,2.9c0.7,1.3,1,2.9,1,4.7v2.5h-12.3
		c0.1,1.5,0.5,2.6,1.3,3.5c0.8,0.8,2,1.3,3.4,1.3c1.2,0,2.3-0.1,3.3-0.4c1-0.2,2.1-0.6,3.1-1.1v4c-0.9,0.5-1.9,0.8-3,1
		c-1,0.2-2.3,0.3-3.8,0.3c-1.9,0-3.6-0.4-5.1-1.1c-1.5-0.7-2.6-1.8-3.5-3.2c-0.8-1.4-1.3-3.3-1.3-5.5c0-2.2,0.4-4.1,1.1-5.6
		c0.8-1.5,1.8-2.6,3.2-3.3C355.5,506.7,357.1,506.3,358.9,506.3z M358.9,510c-1,0-1.9,0.3-2.5,1c-0.7,0.7-1.1,1.7-1.2,3.1h7.3
		c0-0.8-0.2-1.5-0.4-2.1c-0.3-0.6-0.7-1.1-1.2-1.4C360.4,510.2,359.8,510,358.9,510z"/>
	<path class="st1" d="M385.1,520.1c0,1.3-0.3,2.4-0.9,3.3c-0.6,0.9-1.5,1.6-2.7,2c-1.2,0.5-2.7,0.7-4.5,0.7c-1.3,0-2.5-0.1-3.4-0.3
		c-1-0.2-1.9-0.5-2.9-0.9v-4.3c1,0.5,2.2,0.9,3.3,1.2s2.2,0.5,3.1,0.5c1,0,1.7-0.2,2.2-0.5c0.4-0.3,0.7-0.7,0.7-1.2
		c0-0.3-0.1-0.6-0.3-0.9c-0.2-0.3-0.6-0.5-1.1-0.9c-0.6-0.3-1.5-0.7-2.7-1.3c-1.2-0.5-2.2-1-2.9-1.5c-0.8-0.5-1.3-1.1-1.7-1.8
		c-0.4-0.7-0.6-1.6-0.6-2.7c0-1.8,0.7-3.1,2.1-4c1.4-0.9,3.2-1.3,5.5-1.3c1.2,0,2.3,0.1,3.4,0.4c1.1,0.2,2.2,0.6,3.3,1.1l-1.6,3.8
		c-0.9-0.4-1.8-0.7-2.7-1c-0.8-0.3-1.7-0.4-2.6-0.4c-0.8,0-1.3,0.1-1.7,0.3c-0.4,0.2-0.6,0.5-0.6,0.9c0,0.3,0.1,0.6,0.3,0.8
		c0.2,0.2,0.6,0.5,1.2,0.8c0.6,0.3,1.4,0.7,2.5,1.1c1.1,0.4,2,0.9,2.8,1.4c0.8,0.5,1.4,1.1,1.8,1.8
		C384.9,518,385.1,518.9,385.1,520.1z"/>
	<path class="st1" d="M402.7,520.1c0,1.3-0.3,2.4-0.9,3.3c-0.6,0.9-1.5,1.6-2.7,2c-1.2,0.5-2.7,0.7-4.5,0.7c-1.3,0-2.5-0.1-3.4-0.3
		c-1-0.2-1.9-0.5-2.9-0.9v-4.3c1,0.5,2.2,0.9,3.3,1.2s2.2,0.5,3.1,0.5c1,0,1.7-0.2,2.2-0.5c0.4-0.3,0.7-0.7,0.7-1.2
		c0-0.3-0.1-0.6-0.3-0.9c-0.2-0.3-0.6-0.5-1.1-0.9c-0.6-0.3-1.5-0.7-2.7-1.3c-1.2-0.5-2.2-1-2.9-1.5c-0.8-0.5-1.3-1.1-1.7-1.8
		c-0.4-0.7-0.6-1.6-0.6-2.7c0-1.8,0.7-3.1,2.1-4c1.4-0.9,3.2-1.3,5.5-1.3c1.2,0,2.3,0.1,3.4,0.4c1.1,0.2,2.2,0.6,3.3,1.1l-1.6,3.8
		c-0.9-0.4-1.8-0.7-2.7-1c-0.8-0.3-1.7-0.4-2.6-0.4c-0.8,0-1.3,0.1-1.7,0.3c-0.4,0.2-0.6,0.5-0.6,0.9c0,0.3,0.1,0.6,0.3,0.8
		c0.2,0.2,0.6,0.5,1.2,0.8c0.6,0.3,1.4,0.7,2.5,1.1c1.1,0.4,2,0.9,2.8,1.4c0.8,0.5,1.4,1.1,1.8,1.8
		C402.4,518,402.7,518.9,402.7,520.1z"/>
	<path class="st1" d="M409.4,499.2c0.8,0,1.4,0.2,2,0.5c0.6,0.4,0.8,1,0.8,2c0,1-0.3,1.6-0.8,2c-0.6,0.4-1.2,0.6-2,0.6
		c-0.8,0-1.5-0.2-2-0.6s-0.8-1-0.8-2c0-1,0.3-1.6,0.8-2C408,499.3,408.7,499.2,409.4,499.2z M412,506.6v19.1h-5.2v-19.1H412z"/>
	<path class="st1" d="M435,516.2c0,1.6-0.2,3-0.6,4.2c-0.4,1.2-1,2.3-1.9,3.1c-0.8,0.8-1.8,1.5-2.9,1.9c-1.1,0.4-2.4,0.6-3.9,0.6
		c-1.3,0-2.6-0.2-3.7-0.6c-1.1-0.4-2.1-1.1-2.9-1.9c-0.8-0.8-1.5-1.9-1.9-3.1s-0.7-2.6-0.7-4.2c0-2.1,0.4-3.9,1.1-5.4
		s1.8-2.6,3.2-3.3c1.4-0.8,3-1.1,5-1.1c1.8,0,3.4,0.4,4.8,1.1c1.4,0.8,2.5,1.9,3.3,3.3C434.6,512.2,435,514,435,516.2z M421.8,516.2
		c0,1.3,0.1,2.3,0.4,3.2s0.7,1.5,1.3,1.9c0.6,0.4,1.3,0.6,2.3,0.6c0.9,0,1.7-0.2,2.2-0.6c0.6-0.4,1-1.1,1.3-1.9
		c0.3-0.9,0.4-1.9,0.4-3.2c0-1.3-0.1-2.3-0.4-3.2c-0.3-0.8-0.7-1.5-1.3-1.9c-0.6-0.4-1.3-0.6-2.3-0.6c-1.4,0-2.4,0.5-3,1.4
		C422.1,512.8,421.8,514.3,421.8,516.2z"/>
	<path class="st1" d="M450.2,506.3c2,0,3.7,0.6,4.9,1.7c1.2,1.1,1.9,2.9,1.9,5.3v12.5h-5.2v-11.2c0-1.4-0.2-2.4-0.7-3.1
		c-0.5-0.7-1.3-1-2.3-1c-1.6,0-2.7,0.5-3.3,1.6c-0.6,1.1-0.9,2.6-0.9,4.7v9h-5.2v-19.1h4l0.7,2.4h0.3c0.4-0.7,0.9-1.2,1.5-1.6
		c0.6-0.4,1.3-0.7,2-0.9C448.7,506.4,449.4,506.3,450.2,506.3z"/>
	<path class="st1" d="M480.1,500.8c3.2,0,5.6,0.7,7.1,2.1c1.5,1.4,2.2,3.3,2.2,5.7c0,1.1-0.2,2.1-0.5,3.1c-0.3,1-0.9,1.9-1.6,2.7
		c-0.7,0.8-1.7,1.4-3,1.8c-1.2,0.5-2.8,0.7-4.6,0.7h-2.3v8.9h-5.3v-25H480.1z M479.8,505.1h-2.4v7.4h1.7c1,0,1.9-0.1,2.6-0.4
		c0.7-0.3,1.3-0.7,1.7-1.2c0.4-0.6,0.6-1.3,0.6-2.2c0-1.2-0.3-2.1-1-2.7C482.3,505.4,481.2,505.1,479.8,505.1z"/>
	<path class="st1" d="M501.6,506.2c2.6,0,4.5,0.6,5.9,1.7c1.4,1.1,2.1,2.8,2.1,5.1v12.7h-3.6l-1-2.6h-0.1c-0.5,0.7-1.1,1.2-1.7,1.7
		c-0.6,0.4-1.2,0.8-2,1c-0.7,0.2-1.6,0.3-2.7,0.3c-1.1,0-2.1-0.2-3-0.6c-0.9-0.4-1.6-1.1-2.1-2c-0.5-0.9-0.8-2-0.8-3.4
		c0-2,0.7-3.5,2.1-4.5c1.4-1,3.6-1.5,6.4-1.6l3.3-0.1V513c0-1-0.3-1.7-0.8-2.2c-0.5-0.5-1.3-0.7-2.2-0.7c-0.9,0-1.8,0.1-2.7,0.4
		c-0.9,0.3-1.8,0.6-2.7,1l-1.7-3.5c1-0.5,2.2-1,3.4-1.3S500.3,506.2,501.6,506.2z M504.4,516.9l-2,0.1c-1.7,0-2.9,0.3-3.5,0.9
		c-0.7,0.6-1,1.3-1,2.2c0,0.8,0.2,1.4,0.7,1.7c0.5,0.3,1.1,0.5,1.8,0.5c1.1,0,2.1-0.3,2.8-1c0.8-0.7,1.2-1.6,1.2-2.8V516.9z"/>
	<path class="st1" d="M523.1,521.9c0.6,0,1.1-0.1,1.7-0.2c0.5-0.1,1.1-0.3,1.6-0.4v3.9c-0.6,0.2-1.2,0.5-2.1,0.6s-1.7,0.2-2.7,0.2
		c-1.1,0-2.2-0.2-3.1-0.6c-0.9-0.4-1.6-1-2.1-1.9c-0.5-0.9-0.8-2.2-0.8-3.8v-9.2h-2.5v-2.2l2.9-1.7l1.5-4h3.3v4.1h5.3v3.9h-5.3v9.2
		c0,0.7,0.2,1.3,0.6,1.6C521.8,521.8,522.4,521.9,523.1,521.9z"/>
	<path class="st1" d="M538.1,526.1c-1.9,0-3.5-0.3-4.8-1c-1.3-0.7-2.3-1.8-3-3.2c-0.7-1.4-1-3.3-1-5.6c0-2.3,0.4-4.2,1.2-5.7
		s1.9-2.6,3.3-3.3c1.4-0.7,3-1,4.9-1c1.3,0,2.5,0.1,3.4,0.4c1,0.3,1.8,0.6,2.5,0.9l-1.5,4c-0.8-0.3-1.6-0.6-2.3-0.8
		c-0.7-0.2-1.4-0.3-2.1-0.3c-0.9,0-1.7,0.2-2.3,0.6c-0.6,0.4-1.1,1.1-1.3,1.9c-0.3,0.9-0.4,1.9-0.4,3.2c0,1.3,0.2,2.3,0.5,3.1
		c0.3,0.8,0.8,1.4,1.4,1.9c0.6,0.4,1.3,0.6,2.2,0.6c1.1,0,2-0.1,2.9-0.4c0.8-0.3,1.7-0.7,2.5-1.2v4.5c-0.8,0.5-1.6,0.9-2.5,1.1
		C540.5,526,539.4,526.1,538.1,526.1z"/>
	<path class="st1" d="M553.6,499.2v5.4c0,0.9,0,1.8-0.1,2.7c-0.1,0.9-0.1,1.5-0.1,1.8h0.3c0.4-0.7,0.9-1.2,1.5-1.6
		c0.6-0.4,1.2-0.7,1.9-0.9c0.7-0.2,1.4-0.3,2.2-0.3c1.4,0,2.6,0.2,3.6,0.7c1,0.5,1.8,1.2,2.4,2.3c0.6,1,0.9,2.4,0.9,4v12.5h-5.2
		v-11.2c0-1.4-0.2-2.4-0.8-3.1c-0.5-0.7-1.3-1-2.3-1c-1,0-1.9,0.2-2.5,0.7c-0.6,0.5-1,1.2-1.3,2.1c-0.2,0.9-0.4,2.1-0.4,3.4v9h-5.2
		v-26.6H553.6z"/>
</g>
</svg>
