<?xml version="1.0" encoding="utf-8"?>
<!-- Generator: Adobe Illustrator 26.0.1, SVG Export Plug-In . SVG Version: 6.00 Build 0)  -->
<svg version="1.1" id="Layer_1" xmlns="http://www.w3.org/2000/svg" xmlns:xlink="http://www.w3.org/1999/xlink" x="0px" y="0px"
	 viewBox="0 0 1920 920" style="enable-background:new 0 0 1920 920;" xml:space="preserve">
<style type="text/css">
	.st0{fill:#20232C;}
	.st1{fill:#2B2D39;}
	.st2{fill:#E56C3D;}
	.st3{fill:#E2E2E2;}
</style>
<rect x="0" class="st0" width="960" height="920"/>
<rect y="547" class="st1" width="336" height="115"/>
<rect x="960" class="st1" width="960" height="920"/>
<rect x="961" y="53" class="st2" width="466" height="75"/>
<g>
	<path class="st3" d="M44.9,102.3c-0.7,0-1.3-0.2-1.7-0.6c-0.4-0.4-0.7-0.9-0.7-1.6c0-0.6,0.2-1.2,0.7-1.6c0.5-0.4,1-0.6,1.7-0.6
		c0.7,0,1.3,0.2,1.7,0.6c0.4,0.4,0.7,0.9,0.7,1.6c0,0.6-0.2,1.2-0.7,1.6C46.2,102.1,45.6,102.3,44.9,102.3z M43,119.5v-14.9h3.8
		v14.9H43z"/>
	<path class="st3" d="M53.2,119.5v-14.9h3.4l0.4,2.8c0.5-1,1.3-1.7,2.2-2.3c0.9-0.6,2-0.9,3.3-0.9v4.1h-1.1c-0.8,0-1.6,0.1-2.2,0.4
		c-0.7,0.3-1.2,0.7-1.5,1.3c-0.4,0.6-0.6,1.5-0.6,2.7v6.8H53.2z"/>
	<path class="st3" d="M68.2,119.5v-11.7h-2v-3.2h2v-1.7c0-1.8,0.5-3.1,1.4-3.8c0.9-0.8,2.1-1.1,3.7-1.1h1.6v3.3h-1
		c-0.7,0-1.1,0.1-1.4,0.4c-0.3,0.3-0.4,0.7-0.4,1.3v1.7h3.2v3.2H72v11.7H68.2z"/>
	<path class="st3" d="M85.2,119.9c-1.3,0-2.3-0.2-3.1-0.6c-0.8-0.4-1.4-1-1.8-1.6c-0.4-0.7-0.6-1.4-0.6-2.2c0-1.4,0.5-2.5,1.6-3.4
		c1.1-0.9,2.7-1.3,4.9-1.3h3.8v-0.4c0-1-0.3-1.8-0.9-2.2c-0.6-0.5-1.3-0.7-2.2-0.7c-0.8,0-1.5,0.2-2,0.6s-0.9,0.9-1.1,1.6H80
		c0.1-1.1,0.5-2,1.1-2.8c0.6-0.8,1.4-1.4,2.4-1.8c1-0.4,2.1-0.6,3.4-0.6c2.1,0,3.8,0.5,5,1.6c1.2,1.1,1.8,2.6,1.8,4.5v9.1h-3.3
		l-0.4-2.4c-0.4,0.8-1.1,1.5-1.8,2C87.5,119.6,86.5,119.9,85.2,119.9z M86.1,116.9c1.1,0,2-0.4,2.6-1.1c0.6-0.7,1-1.6,1.2-2.7h-3.3
		c-1,0-1.8,0.2-2.2,0.6s-0.7,0.8-0.7,1.4c0,0.6,0.2,1,0.7,1.4C84.8,116.7,85.4,116.9,86.1,116.9z"/>
	<path class="st3" d="M99.8,119.5v-14.9h3.4l0.3,2.5c0.5-0.9,1.1-1.6,2-2.1c0.9-0.5,1.9-0.8,3.1-0.8c1.8,0,3.3,0.6,4.3,1.7
		c1,1.2,1.5,2.9,1.5,5.1v8.4h-3.8v-8c0-1.3-0.3-2.3-0.8-2.9c-0.5-0.7-1.3-1-2.4-1c-1.1,0-2,0.4-2.7,1.1c-0.7,0.8-1,1.8-1,3.2v7.7
		H99.8z"/>
	<path class="st2" d="M120.4,119.5V97.9h3.8v21.6H120.4z"/>
	<path class="st2" d="M137.8,119.9c-1.5,0-2.8-0.3-4-1c-1.2-0.6-2.1-1.5-2.7-2.7c-0.7-1.2-1-2.5-1-4c0-1.5,0.3-2.9,1-4.1
		c0.6-1.2,1.5-2.1,2.7-2.8c1.1-0.7,2.5-1,4.1-1c1.5,0,2.7,0.3,3.9,1c1.1,0.6,2,1.5,2.6,2.6c0.6,1.1,0.9,2.3,0.9,3.7
		c0,0.2,0,0.5,0,0.7c0,0.2,0,0.5,0,0.8h-11.3c0.1,1.2,0.5,2.1,1.2,2.7c0.7,0.7,1.6,1,2.7,1c0.8,0,1.4-0.2,2-0.5
		c0.5-0.3,0.9-0.8,1.2-1.4h3.9c-0.3,0.9-0.7,1.8-1.4,2.6c-0.7,0.8-1.5,1.4-2.4,1.8C140.1,119.7,139,119.9,137.8,119.9z M137.9,107.4
		c-0.9,0-1.8,0.3-2.5,0.8c-0.7,0.5-1.2,1.3-1.4,2.4h7.4c-0.1-1-0.4-1.8-1.1-2.3S138.8,107.4,137.9,107.4z"/>
	<path class="st2" d="M157.1,119.9c-1.3,0-2.5-0.2-3.5-0.6c-1-0.4-1.8-1-2.4-1.8c-0.6-0.8-1-1.6-1.1-2.6h3.9c0.1,0.6,0.4,1.1,1,1.5
		c0.5,0.4,1.2,0.6,2.1,0.6s1.5-0.2,1.8-0.5c0.4-0.3,0.6-0.7,0.6-1.2c0-0.6-0.3-1.1-0.8-1.3c-0.6-0.2-1.3-0.5-2.3-0.7
		c-0.6-0.1-1.3-0.3-2-0.5c-0.7-0.2-1.3-0.5-1.8-0.8c-0.6-0.3-1-0.7-1.3-1.2c-0.3-0.5-0.5-1.1-0.5-1.8c0-1.3,0.5-2.4,1.6-3.3
		c1.1-0.9,2.5-1.4,4.4-1.4c1.8,0,3.2,0.4,4.2,1.2s1.7,1.9,1.9,3.4h-3.6c-0.2-1.1-1.1-1.6-2.5-1.6c-0.7,0-1.3,0.1-1.7,0.4
		c-0.4,0.3-0.6,0.6-0.6,1.1c0,0.4,0.3,0.8,0.9,1c0.6,0.3,1.4,0.5,2.3,0.7c1,0.2,2,0.5,2.9,0.8c0.9,0.3,1.6,0.7,2.1,1.3
		c0.5,0.6,0.8,1.4,0.8,2.4c0,0.9-0.2,1.8-0.7,2.5s-1.2,1.3-2.2,1.7C159.5,119.7,158.4,119.9,157.1,119.9z"/>
	<path class="st2" d="M169.1,119.5v-14.9h3.4l0.3,2.5c0.5-0.9,1.1-1.6,2-2.1c0.9-0.5,1.9-0.8,3.1-0.8c1.8,0,3.3,0.6,4.3,1.7
		c1,1.2,1.5,2.9,1.5,5.1v8.4h-3.8v-8c0-1.3-0.3-2.3-0.8-2.9c-0.5-0.7-1.3-1-2.4-1c-1.1,0-2,0.4-2.7,1.1c-0.7,0.8-1,1.8-1,3.2v7.7
		H169.1z"/>
	<path class="st2" d="M194.9,119.9c-1.3,0-2.3-0.2-3.1-0.6c-0.8-0.4-1.4-1-1.8-1.6c-0.4-0.7-0.6-1.4-0.6-2.2c0-1.4,0.5-2.5,1.6-3.4
		c1.1-0.9,2.7-1.3,4.9-1.3h3.8v-0.4c0-1-0.3-1.8-0.9-2.2c-0.6-0.5-1.3-0.7-2.2-0.7c-0.8,0-1.5,0.2-2,0.6s-0.9,0.9-1.1,1.6h-3.8
		c0.1-1.1,0.5-2,1.1-2.8c0.6-0.8,1.4-1.4,2.4-1.8c1-0.4,2.1-0.6,3.4-0.6c2.1,0,3.8,0.5,5,1.6c1.2,1.1,1.8,2.6,1.8,4.5v9.1h-3.3
		l-0.4-2.4c-0.4,0.8-1.1,1.5-1.8,2C197.1,119.6,196.1,119.9,194.9,119.9z M195.7,116.9c1.1,0,2-0.4,2.6-1.1c0.6-0.7,1-1.6,1.2-2.7
		h-3.3c-1,0-1.8,0.2-2.2,0.6s-0.7,0.8-0.7,1.4c0,0.6,0.2,1,0.7,1.4C194.4,116.7,195,116.9,195.7,116.9z"/>
	<path class="st2" d="M209.4,119.5v-14.9h3.4l0.4,2.8c0.5-1,1.3-1.7,2.2-2.3c0.9-0.6,2-0.9,3.3-0.9v4.1h-1.1c-0.8,0-1.6,0.1-2.2,0.4
		c-0.7,0.3-1.2,0.7-1.5,1.3c-0.4,0.6-0.6,1.5-0.6,2.7v6.8H209.4z"/>
</g>
<g>
	<path class="st3" d="M147.5,293.1v-68.4h44.2v10.1H160v19.2h25.6v9.9H160v29.3H147.5z"/>
	<path class="st3" d="M221.5,294.3c-4.2,0-7.6-0.7-10.3-2c-2.7-1.3-4.7-3.1-6-5.3c-1.3-2.2-2-4.7-2-7.3c0-4.5,1.8-8.1,5.3-11
		c3.5-2.8,8.8-4.2,15.8-4.2h12.3v-1.2c0-3.3-0.9-5.8-2.8-7.3c-1.9-1.6-4.2-2.3-7-2.3c-2.5,0-4.8,0.6-6.6,1.8c-1.9,1.2-3.1,3-3.5,5.3
		h-12.2c0.3-3.5,1.5-6.6,3.6-9.2c2.1-2.6,4.7-4.6,8-6c3.3-1.4,6.9-2.1,11-2.1c6.9,0,12.4,1.7,16.3,5.2c4,3.5,6,8.3,6,14.7v29.8
		h-10.7l-1.2-7.8c-1.4,2.6-3.4,4.8-6,6.5C228.9,293.5,225.6,294.3,221.5,294.3z M224.4,284.5c3.6,0,6.4-1.2,8.4-3.5
		c2-2.3,3.2-5.2,3.8-8.7h-10.7c-3.3,0-5.7,0.6-7.1,1.8c-1.4,1.2-2.2,2.7-2.2,4.4c0,1.9,0.7,3.4,2.2,4.4
		C220.1,284,222,284.5,224.4,284.5z"/>
	<path class="st3" d="M292.8,294.3c-5,0-9.3-1.1-13.1-3.2c-3.8-2.2-6.8-5.1-8.9-9c-2.2-3.8-3.3-8.2-3.3-13.2c0-5,1.1-9.4,3.3-13.2
		c2.2-3.8,5.2-6.8,8.9-9c3.8-2.2,8.1-3.2,13.1-3.2c6.2,0,11.4,1.6,15.6,4.8c4.2,3.2,6.9,7.7,8.1,13.3h-13.2
		c-0.7-2.3-1.9-4.2-3.9-5.5c-1.9-1.3-4.2-2-6.8-2c-3.5,0-6.4,1.3-8.8,3.9c-2.4,2.6-3.6,6.2-3.6,10.9c0,4.6,1.2,8.2,3.6,10.9
		c2.4,2.6,5.3,3.9,8.8,3.9c2.6,0,4.9-0.7,6.8-2c1.9-1.3,3.2-3.2,3.9-5.6h13.2c-1.2,5.5-3.9,9.9-8.1,13.2
		C304.2,292.7,299,294.3,292.8,294.3z"/>
	<path class="st3" d="M342.3,237.1c-2.3,0-4.2-0.7-5.6-2.1c-1.5-1.4-2.2-3.1-2.2-5.2c0-2.1,0.7-3.8,2.2-5.1c1.5-1.3,3.3-2,5.6-2
		c2.3,0,4.2,0.7,5.6,2c1.5,1.3,2.2,3,2.2,5.1c0,2.1-0.7,3.8-2.2,5.2C346.5,236.4,344.6,237.1,342.3,237.1z M336,293.1v-48.5h12.5
		v48.5H336z"/>
	<path class="st3" d="M386.2,294.3c-4.2,0-7.6-0.7-10.3-2c-2.7-1.3-4.7-3.1-6-5.3c-1.3-2.2-2-4.7-2-7.3c0-4.5,1.8-8.1,5.3-11
		c3.5-2.8,8.8-4.2,15.8-4.2h12.3v-1.2c0-3.3-0.9-5.8-2.8-7.3c-1.9-1.6-4.2-2.3-7-2.3c-2.5,0-4.8,0.6-6.6,1.8c-1.9,1.2-3.1,3-3.5,5.3
		h-12.2c0.3-3.5,1.5-6.6,3.6-9.2c2.1-2.6,4.7-4.6,8-6c3.3-1.4,6.9-2.1,11-2.1c6.9,0,12.4,1.7,16.3,5.2c4,3.5,6,8.3,6,14.7v29.8
		h-10.7l-1.2-7.8c-1.4,2.6-3.4,4.8-6,6.5C393.5,293.5,390.2,294.3,386.2,294.3z M389,284.5c3.6,0,6.4-1.2,8.4-3.5
		c2-2.3,3.2-5.2,3.8-8.7h-10.7c-3.3,0-5.7,0.6-7.1,1.8c-1.4,1.2-2.2,2.7-2.2,4.4c0,1.9,0.7,3.4,2.2,4.4
		C384.8,284,386.7,284.5,389,284.5z"/>
	<path class="st3" d="M433.7,293.1v-70.4h12.5v70.4H433.7z"/>
	<path class="st3" d="M147.5,410.5V342h44.7v10.1H160v18.8h29.2v9.8H160v19.8h32.2v10.1H147.5z"/>
	<path class="st3" d="M207,410.5l17.6-24.2L207,362h13.4l12.3,17.2l12.2-17.2h13.5l-17.7,24.2l17.7,24.2h-13.5l-12.2-17.2
		l-12.3,17.2H207z"/>
	<path class="st3" d="M274.2,432v-70h11.1l1.4,6.9c1.6-2.2,3.6-4,6.2-5.7c2.6-1.6,5.9-2.4,10-2.4c4.6,0,8.6,1.1,12.2,3.3
		c3.6,2.2,6.4,5.2,8.5,9.1c2.1,3.8,3.1,8.2,3.1,13.1s-1,9.2-3.1,13.1c-2.1,3.8-4.9,6.8-8.5,9c-3.6,2.2-7.7,3.3-12.2,3.3
		c-3.7,0-6.8-0.7-9.6-2.1s-5-3.3-6.6-5.8V432H274.2z M300.3,400.7c4,0,7.3-1.3,9.9-4c2.6-2.7,3.9-6.1,3.9-10.4
		c0-4.2-1.3-7.7-3.9-10.5c-2.6-2.7-5.9-4.1-9.9-4.1c-4,0-7.4,1.4-9.9,4.1c-2.6,2.7-3.9,6.2-3.9,10.4c0,4.2,1.3,7.7,3.9,10.4
		C293,399.4,296.3,400.7,300.3,400.7z"/>
	<path class="st3" d="M345.8,410.5V362H357l1.2,9.1c1.8-3.1,4.2-5.6,7.2-7.5c3-1.9,6.6-2.8,10.7-2.8V374h-3.5
		c-2.7,0-5.2,0.4-7.3,1.3c-2.2,0.8-3.8,2.3-5,4.4c-1.2,2.1-1.8,5-1.8,8.7v22.1H345.8z"/>
	<path class="st3" d="M415,411.7c-4.9,0-9.2-1-13-3.1c-3.8-2.1-6.7-5-8.9-8.8c-2.2-3.8-3.2-8.1-3.2-13.1c0-5,1.1-9.5,3.2-13.4
		c2.1-3.9,5.1-7,8.8-9.1c3.7-2.2,8.2-3.3,13.2-3.3c4.8,0,9,1,12.6,3.1c3.6,2.1,6.5,4.9,8.6,8.6c2.1,3.6,3.1,7.6,3.1,12.1
		c0,0.7,0,1.5,0,2.2c0,0.8-0.1,1.6-0.1,2.4h-36.9c0.3,3.8,1.6,6.7,4,8.9c2.4,2.2,5.3,3.2,8.7,3.2c2.5,0,4.7-0.6,6.4-1.7
		c1.7-1.1,3-2.6,3.9-4.4h12.7c-0.9,3.1-2.4,5.9-4.5,8.4c-2.1,2.5-4.7,4.5-7.8,5.9C422.5,410.9,419,411.7,415,411.7z M415.1,371
		c-3.1,0-5.8,0.9-8.1,2.6c-2.3,1.7-3.8,4.4-4.5,7.9h24.2c-0.2-3.2-1.4-5.7-3.5-7.6C421,371.9,418.3,371,415.1,371z"/>
	<path class="st3" d="M477.8,411.7c-4.3,0-8.1-0.7-11.3-2.1c-3.3-1.4-5.9-3.3-7.8-5.8c-2-2.5-3.1-5.3-3.5-8.6h12.6
		c0.4,1.9,1.4,3.5,3.2,4.8c1.7,1.3,4,2,6.7,2s4.7-0.6,6-1.7c1.3-1.1,1.9-2.4,1.9-3.8c0-2.1-0.9-3.5-2.7-4.3
		c-1.8-0.7-4.4-1.5-7.6-2.2c-2.1-0.5-4.2-1-6.4-1.7c-2.2-0.7-4.1-1.5-5.9-2.5c-1.8-1-3.2-2.3-4.4-3.9c-1.1-1.6-1.7-3.6-1.7-5.9
		c0-4.3,1.7-7.9,5.1-10.9s8.2-4.4,14.4-4.4c5.7,0,10.3,1.3,13.7,4c3.4,2.7,5.5,6.4,6.1,11h-11.8c-0.7-3.6-3.4-5.4-8.1-5.4
		c-2.3,0-4.2,0.5-5.4,1.4c-1.3,0.9-1.9,2.1-1.9,3.4c0,1.4,0.9,2.6,2.8,3.4c1.9,0.8,4.4,1.6,7.5,2.3c3.4,0.8,6.5,1.6,9.3,2.6
		c2.8,0.9,5.1,2.3,6.8,4.2c1.7,1.9,2.5,4.5,2.5,8c0.1,3-0.7,5.7-2.3,8.1c-1.6,2.4-4,4.3-7,5.7C485.6,411,482,411.7,477.8,411.7z"/>
	<path class="st3" d="M537,411.7c-4.3,0-8.1-0.7-11.3-2.1c-3.3-1.4-5.9-3.3-7.8-5.8c-2-2.5-3.1-5.3-3.5-8.6h12.6
		c0.4,1.9,1.4,3.5,3.2,4.8c1.7,1.3,4,2,6.7,2s4.7-0.6,6-1.7c1.3-1.1,1.9-2.4,1.9-3.8c0-2.1-0.9-3.5-2.7-4.3
		c-1.8-0.7-4.4-1.5-7.6-2.2c-2.1-0.5-4.2-1-6.4-1.7c-2.2-0.7-4.1-1.5-5.9-2.5c-1.8-1-3.2-2.3-4.4-3.9c-1.1-1.6-1.7-3.6-1.7-5.9
		c0-4.3,1.7-7.9,5.1-10.9s8.2-4.4,14.4-4.4c5.7,0,10.3,1.3,13.7,4c3.4,2.7,5.5,6.4,6.1,11h-11.8c-0.7-3.6-3.4-5.4-8.1-5.4
		c-2.3,0-4.2,0.5-5.4,1.4c-1.3,0.9-1.9,2.1-1.9,3.4c0,1.4,0.9,2.6,2.8,3.4c1.9,0.8,4.4,1.6,7.5,2.3c3.4,0.8,6.5,1.6,9.3,2.6
		c2.8,0.9,5.1,2.3,6.8,4.2c1.7,1.9,2.5,4.5,2.5,8c0.1,3-0.7,5.7-2.3,8.1c-1.6,2.4-4,4.3-7,5.7C544.8,411,541.1,411.7,537,411.7z"/>
	<path class="st3" d="M582.8,354.5c-2.3,0-4.2-0.7-5.6-2.1c-1.5-1.4-2.2-3.1-2.2-5.2c0-2.1,0.7-3.8,2.2-5.1c1.5-1.3,3.3-2,5.6-2
		c2.3,0,4.2,0.7,5.6,2c1.5,1.3,2.2,3,2.2,5.1c0,2.1-0.7,3.8-2.2,5.2C587,353.8,585.1,354.5,582.8,354.5z M576.6,410.5V362h12.5v48.5
		H576.6z"/>
	<path class="st3" d="M633.3,411.7c-4.7,0-8.9-1.1-12.7-3.2c-3.7-2.2-6.7-5.1-8.9-8.9c-2.2-3.8-3.3-8.2-3.3-13.2
		c0-5,1.1-9.4,3.3-13.2c2.2-3.8,5.2-6.8,8.9-8.9c3.7-2.2,8-3.2,12.7-3.2c4.6,0,8.8,1.1,12.6,3.2c3.7,2.2,6.7,5.1,8.9,8.9
		c2.2,3.8,3.3,8.2,3.3,13.2c0,5-1.1,9.4-3.3,13.2c-2.2,3.8-5.2,6.8-8.9,8.9C642.1,410.6,637.9,411.7,633.3,411.7z M633.3,400.8
		c3.3,0,6.1-1.2,8.5-3.7c2.4-2.4,3.6-6.1,3.6-10.9c0-4.8-1.2-8.5-3.6-10.9c-2.4-2.4-5.2-3.7-8.4-3.7c-3.3,0-6.2,1.2-8.6,3.7
		c-2.4,2.4-3.6,6.1-3.6,10.9c0,4.8,1.2,8.5,3.6,10.9C627.2,399.6,630,400.8,633.3,400.8z"/>
	<path class="st3" d="M677.1,410.5V362h11l1,8.2c1.5-2.9,3.7-5.1,6.5-6.8c2.8-1.7,6.2-2.5,10-2.5c6,0,10.7,1.9,14,5.7
		c3.3,3.8,5,9.3,5,16.6v27.4h-12.5v-26.2c0-4.2-0.8-7.4-2.5-9.6c-1.7-2.2-4.3-3.3-7.9-3.3c-3.5,0-6.4,1.2-8.7,3.7
		c-2.2,2.5-3.4,5.9-3.4,10.4v25H677.1z"/>
</g>
<g>
	<path class="st2" d="M77.6,631.7c-2.1,0-3.9-0.4-5.4-1.1c-1.6-0.7-2.8-1.7-3.7-3c-0.9-1.3-1.4-2.9-1.4-4.8h5.4
		c0.1,1.3,0.5,2.4,1.4,3.3c0.9,0.9,2.1,1.3,3.7,1.3c1.4,0,2.4-0.3,3.2-1c0.8-0.7,1.2-1.5,1.2-2.6c0-1.1-0.4-2-1.1-2.7
		c-0.7-0.6-1.6-1.2-2.8-1.6c-1.2-0.4-2.4-0.8-3.8-1.3c-2.2-0.7-3.8-1.7-4.9-2.9c-1.1-1.2-1.7-2.7-1.7-4.7c0-1.7,0.4-3.1,1.2-4.3
		c0.8-1.2,1.9-2.1,3.3-2.8c1.4-0.7,3-1,4.9-1c1.9,0,3.5,0.3,4.9,1c1.4,0.7,2.5,1.6,3.4,2.8c0.8,1.2,1.2,2.6,1.3,4.3h-5.5
		c0-1-0.4-1.9-1.1-2.6c-0.7-0.8-1.8-1.1-3.1-1.1c-1.1,0-2.1,0.2-2.8,0.8c-0.8,0.6-1.1,1.4-1.1,2.5c0,0.9,0.3,1.7,0.9,2.2
		c0.6,0.5,1.4,1,2.4,1.4c1,0.4,2.2,0.8,3.5,1.2c1.4,0.5,2.7,1,3.8,1.7c1.1,0.6,2.1,1.5,2.8,2.5c0.7,1.1,1,2.4,1,4.1
		c0,1.5-0.4,2.8-1.1,4.1c-0.7,1.3-1.9,2.3-3.3,3C81.6,631.3,79.8,631.7,77.6,631.7z"/>
	<path class="st2" d="M95,640v-28.6h4.6l0.6,2.8c0.6-0.9,1.5-1.7,2.5-2.3c1.1-0.7,2.4-1,4.1-1c1.9,0,3.5,0.5,5,1.4
		c1.5,0.9,2.6,2.1,3.5,3.7c0.9,1.6,1.3,3.4,1.3,5.4s-0.4,3.8-1.3,5.3s-2,2.8-3.5,3.7c-1.5,0.9-3.1,1.3-5,1.3c-1.5,0-2.8-0.3-3.9-0.8
		c-1.1-0.6-2-1.3-2.7-2.4V640H95z M105.7,627.2c1.6,0,3-0.5,4-1.6c1.1-1.1,1.6-2.5,1.6-4.2s-0.5-3.2-1.6-4.3c-1.1-1.1-2.4-1.7-4-1.7
		c-1.7,0-3,0.6-4.1,1.7c-1.1,1.1-1.6,2.5-1.6,4.3s0.5,3.2,1.6,4.3C102.7,626.6,104.1,627.2,105.7,627.2z"/>
	<path class="st2" d="M131.2,631.7c-1.7,0-3.1-0.3-4.2-0.8c-1.1-0.5-1.9-1.3-2.4-2.2c-0.5-0.9-0.8-1.9-0.8-3c0-1.8,0.7-3.3,2.2-4.5
		s3.6-1.7,6.5-1.7h5V619c0-1.4-0.4-2.4-1.2-3c-0.8-0.6-1.7-1-2.9-1c-1,0-1.9,0.2-2.7,0.7c-0.8,0.5-1.3,1.2-1.4,2.2h-5
		c0.1-1.4,0.6-2.7,1.5-3.8s1.9-1.9,3.3-2.5c1.3-0.6,2.8-0.9,4.5-0.9c2.8,0,5.1,0.7,6.7,2.1c1.6,1.4,2.4,3.4,2.4,6v12.2h-4.4
		l-0.5-3.2c-0.6,1.1-1.4,1.9-2.5,2.6C134.2,631.3,132.8,631.7,131.2,631.7z M132.3,627.7c1.5,0,2.6-0.5,3.4-1.4
		c0.8-1,1.3-2.1,1.5-3.6h-4.4c-1.4,0-2.3,0.2-2.9,0.7c-0.6,0.5-0.9,1.1-0.9,1.8c0,0.8,0.3,1.4,0.9,1.8
		C130.6,627.5,131.4,627.7,132.3,627.7z"/>
	<path class="st2" d="M150.6,631.2v-19.8h4.6l0.5,3.7c0.7-1.3,1.7-2.3,2.9-3.1c1.2-0.8,2.7-1.1,4.4-1.1v5.4h-1.4
		c-1.1,0-2.1,0.2-3,0.5c-0.9,0.3-1.6,0.9-2.1,1.8c-0.5,0.9-0.7,2-0.7,3.6v9H150.6z"/>
	<path class="st2" d="M169.6,631.2v-28.8h5.1v17l7-8h6.1l-8.1,9l9.4,10.8h-6.4l-8-10v10H169.6z"/>
	<path class="st2" d="M206.6,631.2l10.2-28h5.8l10.2,28h-5.4l-2.2-6.5h-10.9l-2.3,6.5H206.6z M215.6,620.7h8.1l-4.1-11.6
		L215.6,620.7z"/>
	<path class="st2" d="M239.6,631.2v-28h10.3c2.2,0,4.1,0.4,5.5,1.1c1.5,0.8,2.5,1.8,3.3,3.1c0.7,1.3,1.1,2.7,1.1,4.3
		c0,1.7-0.4,3.3-1.3,4.7c-0.9,1.4-2.3,2.4-4.2,3.1l5.8,11.7h-5.9l-5.2-11h-4.2v11H239.6z M244.8,616.4h4.8c1.7,0,3-0.4,3.8-1.2
		c0.8-0.8,1.2-1.9,1.2-3.3c0-1.3-0.4-2.4-1.2-3.2c-0.8-0.8-2.1-1.2-3.8-1.2h-4.8V616.4z"/>
	<path class="st2" d="M281.3,631.2v-15.6h-2.7v-4.3h2.7V609c0-2.4,0.6-4.1,1.8-5.1c1.2-1,2.9-1.5,4.9-1.5h2.2v4.4h-1.4
		c-0.9,0-1.5,0.2-1.9,0.5c-0.4,0.3-0.6,0.9-0.6,1.8v2.3h4.3v4.3h-4.3v15.6H281.3z"/>
	<path class="st2" d="M304,631.7c-1.7,0-3.1-0.3-4.2-0.8c-1.1-0.5-1.9-1.3-2.4-2.2c-0.5-0.9-0.8-1.9-0.8-3c0-1.8,0.7-3.3,2.2-4.5
		s3.6-1.7,6.5-1.7h5V619c0-1.4-0.4-2.4-1.2-3c-0.8-0.6-1.7-1-2.9-1c-1,0-1.9,0.2-2.7,0.7c-0.8,0.5-1.3,1.2-1.4,2.2h-5
		c0.1-1.4,0.6-2.7,1.5-3.8s1.9-1.9,3.3-2.5c1.3-0.6,2.8-0.9,4.5-0.9c2.8,0,5.1,0.7,6.7,2.1c1.6,1.4,2.4,3.4,2.4,6v12.2H311l-0.5-3.2
		c-0.6,1.1-1.4,1.9-2.5,2.6C307,631.3,305.6,631.7,304,631.7z M305.1,627.7c1.5,0,2.6-0.5,3.4-1.4c0.8-1,1.3-2.1,1.5-3.6h-4.4
		c-1.4,0-2.3,0.2-2.9,0.7c-0.6,0.5-0.9,1.1-0.9,1.8c0,0.8,0.3,1.4,0.9,1.8C303.4,627.5,304.2,627.7,305.1,627.7z"/>
	<path class="st2" d="M333.1,631.7c-2,0-3.8-0.4-5.4-1.3c-1.5-0.9-2.8-2.1-3.7-3.7s-1.3-3.4-1.3-5.4s0.4-3.8,1.3-5.4
		c0.9-1.6,2.1-2.8,3.7-3.7c1.5-0.9,3.3-1.3,5.4-1.3c2.5,0,4.7,0.7,6.4,2c1.7,1.3,2.8,3.1,3.3,5.5h-5.4c-0.3-1-0.8-1.7-1.6-2.3
		c-0.8-0.5-1.7-0.8-2.8-0.8c-1.4,0-2.6,0.5-3.6,1.6c-1,1.1-1.5,2.5-1.5,4.4s0.5,3.4,1.5,4.4c1,1.1,2.2,1.6,3.6,1.6
		c1.1,0,2-0.3,2.8-0.8c0.8-0.5,1.3-1.3,1.6-2.3h5.4c-0.5,2.2-1.6,4-3.3,5.4C337.8,631,335.7,631.7,333.1,631.7z"/>
	<path class="st2" d="M353.4,608.3c-0.9,0-1.7-0.3-2.3-0.8c-0.6-0.6-0.9-1.3-0.9-2.1s0.3-1.6,0.9-2.1c0.6-0.5,1.4-0.8,2.3-0.8
		c0.9,0,1.7,0.3,2.3,0.8c0.6,0.5,0.9,1.2,0.9,2.1s-0.3,1.6-0.9,2.1C355.1,608,354.3,608.3,353.4,608.3z M350.8,631.2v-19.8h5.1v19.8
		H350.8z"/>
	<path class="st2" d="M371.3,631.7c-1.7,0-3.1-0.3-4.2-0.8c-1.1-0.5-1.9-1.3-2.4-2.2c-0.5-0.9-0.8-1.9-0.8-3c0-1.8,0.7-3.3,2.2-4.5
		s3.6-1.7,6.5-1.7h5V619c0-1.4-0.4-2.4-1.2-3c-0.8-0.6-1.7-1-2.9-1c-1,0-1.9,0.2-2.7,0.7c-0.8,0.5-1.3,1.2-1.4,2.2h-5
		c0.1-1.4,0.6-2.7,1.5-3.8s1.9-1.9,3.3-2.5c1.3-0.6,2.8-0.9,4.5-0.9c2.8,0,5.1,0.7,6.7,2.1c1.6,1.4,2.4,3.4,2.4,6v12.2h-4.4
		l-0.5-3.2c-0.6,1.1-1.4,1.9-2.5,2.6C374.3,631.3,373,631.7,371.3,631.7z M372.5,627.7c1.5,0,2.6-0.5,3.4-1.4c0.8-1,1.3-2.1,1.5-3.6
		h-4.4c-1.4,0-2.3,0.2-2.9,0.7c-0.6,0.5-0.9,1.1-0.9,1.8c0,0.8,0.3,1.4,0.9,1.8C370.7,627.5,371.5,627.7,372.5,627.7z"/>
	<path class="st2" d="M390.8,631.2v-28.8h5.1v28.8H390.8z"/>
	<path class="st2" d="M426.7,631.7c-2,0-3.8-0.4-5.3-1.3c-1.5-0.9-2.8-2.1-3.6-3.6c-0.9-1.5-1.3-3.3-1.3-5.4c0-2.1,0.4-3.9,1.3-5.5
		c0.9-1.6,2.1-2.8,3.6-3.7c1.5-0.9,3.3-1.3,5.4-1.3c1.9,0,3.7,0.4,5.2,1.3c1.5,0.9,2.7,2,3.5,3.5c0.8,1.5,1.3,3.1,1.3,4.9
		c0,0.3,0,0.6,0,0.9c0,0.3,0,0.7-0.1,1h-15.1c0.1,1.5,0.6,2.8,1.6,3.6c1,0.9,2.2,1.3,3.5,1.3c1,0,1.9-0.2,2.6-0.7s1.2-1.1,1.6-1.8
		h5.2c-0.4,1.3-1,2.4-1.9,3.4c-0.9,1-1.9,1.8-3.2,2.4C429.7,631.4,428.3,631.7,426.7,631.7z M426.7,615c-1.3,0-2.4,0.4-3.3,1.1
		c-1,0.7-1.6,1.8-1.8,3.2h9.9c-0.1-1.3-0.6-2.3-1.4-3.1S428,615,426.7,615z"/>
	<path class="st2" d="M440.9,631.2l7.2-9.9l-7.2-9.9h5.5l5,7l5-7h5.5l-7.2,9.9l7.2,9.9h-5.5l-5-7l-5,7H440.9z"/>
	<path class="st2" d="M468.4,640v-28.6h4.6l0.6,2.8c0.6-0.9,1.5-1.7,2.5-2.3c1.1-0.7,2.4-1,4.1-1c1.9,0,3.5,0.5,5,1.4
		c1.5,0.9,2.6,2.1,3.5,3.7c0.9,1.6,1.3,3.4,1.3,5.4s-0.4,3.8-1.3,5.3s-2,2.8-3.5,3.7c-1.5,0.9-3.1,1.3-5,1.3c-1.5,0-2.8-0.3-3.9-0.8
		c-1.1-0.6-2-1.3-2.7-2.4V640H468.4z M479.1,627.2c1.6,0,3-0.5,4-1.6c1.1-1.1,1.6-2.5,1.6-4.2s-0.5-3.2-1.6-4.3
		c-1.1-1.1-2.4-1.7-4-1.7c-1.7,0-3,0.6-4.1,1.7c-1.1,1.1-1.6,2.5-1.6,4.3s0.5,3.2,1.6,4.3C476.1,626.6,477.5,627.2,479.1,627.2z"/>
	<path class="st2" d="M497.7,631.2v-19.8h4.6l0.5,3.7c0.7-1.3,1.7-2.3,2.9-3.1c1.2-0.8,2.7-1.1,4.4-1.1v5.4h-1.4
		c-1.1,0-2.1,0.2-3,0.5c-0.9,0.3-1.6,0.9-2.1,1.8c-0.5,0.9-0.7,2-0.7,3.6v9H497.7z"/>
	<path class="st2" d="M526,631.7c-2,0-3.8-0.4-5.3-1.3c-1.5-0.9-2.8-2.1-3.6-3.6c-0.9-1.5-1.3-3.3-1.3-5.4c0-2.1,0.4-3.9,1.3-5.5
		c0.9-1.6,2.1-2.8,3.6-3.7c1.5-0.9,3.3-1.3,5.4-1.3c1.9,0,3.7,0.4,5.2,1.3c1.5,0.9,2.7,2,3.5,3.5c0.8,1.5,1.3,3.1,1.3,4.9
		c0,0.3,0,0.6,0,0.9c0,0.3,0,0.7-0.1,1h-15.1c0.1,1.5,0.6,2.8,1.6,3.6c1,0.9,2.2,1.3,3.5,1.3c1,0,1.9-0.2,2.6-0.7s1.2-1.1,1.6-1.8
		h5.2c-0.4,1.3-1,2.4-1.9,3.4c-0.9,1-1.9,1.8-3.2,2.4C529.1,631.4,527.6,631.7,526,631.7z M526.1,615c-1.3,0-2.4,0.4-3.3,1.1
		c-1,0.7-1.6,1.8-1.8,3.2h9.9c-0.1-1.3-0.6-2.3-1.4-3.1S527.4,615,526.1,615z"/>
	<path class="st2" d="M551.7,631.7c-1.8,0-3.3-0.3-4.6-0.9c-1.3-0.6-2.4-1.4-3.2-2.4s-1.3-2.2-1.4-3.5h5.2c0.2,0.8,0.6,1.4,1.3,2
		c0.7,0.5,1.6,0.8,2.7,0.8c1.1,0,1.9-0.2,2.5-0.7c0.5-0.5,0.8-1,0.8-1.6c0-0.9-0.4-1.4-1.1-1.7s-1.8-0.6-3.1-0.9
		c-0.9-0.2-1.7-0.4-2.6-0.7s-1.7-0.6-2.4-1c-0.7-0.4-1.3-0.9-1.8-1.6c-0.5-0.7-0.7-1.5-0.7-2.4c0-1.8,0.7-3.2,2.1-4.4
		c1.4-1.2,3.4-1.8,5.9-1.8c2.3,0,4.2,0.5,5.6,1.6s2.2,2.6,2.5,4.5h-4.8c-0.3-1.5-1.4-2.2-3.3-2.2c-1,0-1.7,0.2-2.2,0.6
		c-0.5,0.4-0.8,0.8-0.8,1.4c0,0.6,0.4,1.1,1.2,1.4s1.8,0.7,3.1,1c1.4,0.3,2.7,0.7,3.8,1.1c1.2,0.4,2.1,1,2.8,1.7
		c0.7,0.8,1,1.8,1,3.3c0,1.2-0.3,2.3-1,3.3c-0.7,1-1.6,1.8-2.9,2.3C554.9,631.4,553.4,631.7,551.7,631.7z"/>
	<path class="st2" d="M575.9,631.7c-1.8,0-3.3-0.3-4.6-0.9c-1.3-0.6-2.4-1.4-3.2-2.4s-1.3-2.2-1.4-3.5h5.2c0.2,0.8,0.6,1.4,1.3,2
		c0.7,0.5,1.6,0.8,2.7,0.8c1.1,0,1.9-0.2,2.5-0.7c0.5-0.5,0.8-1,0.8-1.6c0-0.9-0.4-1.4-1.1-1.7s-1.8-0.6-3.1-0.9
		c-0.9-0.2-1.7-0.4-2.6-0.7s-1.7-0.6-2.4-1c-0.7-0.4-1.3-0.9-1.8-1.6c-0.5-0.7-0.7-1.5-0.7-2.4c0-1.8,0.7-3.2,2.1-4.4
		c1.4-1.2,3.4-1.8,5.9-1.8c2.3,0,4.2,0.5,5.6,1.6s2.2,2.6,2.5,4.5h-4.8c-0.3-1.5-1.4-2.2-3.3-2.2c-1,0-1.7,0.2-2.2,0.6
		c-0.5,0.4-0.8,0.8-0.8,1.4c0,0.6,0.4,1.1,1.2,1.4s1.8,0.7,3.1,1c1.4,0.3,2.7,0.7,3.8,1.1c1.2,0.4,2.1,1,2.8,1.7
		c0.7,0.8,1,1.8,1,3.3c0,1.2-0.3,2.3-1,3.3c-0.7,1-1.6,1.8-2.9,2.3C579.1,631.4,577.6,631.7,575.9,631.7z"/>
	<path class="st2" d="M594.7,608.3c-0.9,0-1.7-0.3-2.3-0.8c-0.6-0.6-0.9-1.3-0.9-2.1s0.3-1.6,0.9-2.1c0.6-0.5,1.4-0.8,2.3-0.8
		c0.9,0,1.7,0.3,2.3,0.8c0.6,0.5,0.9,1.2,0.9,2.1s-0.3,1.6-0.9,2.1C596.4,608,595.6,608.3,594.7,608.3z M592.1,631.2v-19.8h5.1v19.8
		H592.1z"/>
	<path class="st2" d="M615.3,631.7c-1.9,0-3.6-0.4-5.2-1.3c-1.5-0.9-2.7-2.1-3.6-3.7s-1.3-3.4-1.3-5.4c0-2.1,0.5-3.9,1.4-5.4
		c0.9-1.6,2.1-2.8,3.7-3.7c1.5-0.9,3.3-1.3,5.2-1.3c1.9,0,3.6,0.4,5.1,1.3c1.5,0.9,2.7,2.1,3.6,3.7c0.9,1.6,1.3,3.4,1.3,5.4
		c0,2.1-0.4,3.9-1.3,5.4c-0.9,1.6-2.1,2.8-3.7,3.7C618.9,631.2,617.2,631.7,615.3,631.7z M615.3,627.2c1.3,0,2.5-0.5,3.5-1.5
		c1-1,1.5-2.5,1.5-4.5s-0.5-3.5-1.5-4.5c-1-1-2.1-1.5-3.4-1.5c-1.4,0-2.5,0.5-3.5,1.5c-1,1-1.5,2.5-1.5,4.5s0.5,3.5,1.5,4.5
		C612.8,626.7,614,627.2,615.3,627.2z"/>
	<path class="st2" d="M633.2,631.2v-19.8h4.5l0.4,3.4c0.6-1.2,1.5-2.1,2.7-2.8c1.2-0.7,2.5-1,4.1-1c2.5,0,4.4,0.8,5.7,2.3
		c1.4,1.5,2,3.8,2,6.8v11.2h-5.1v-10.7c0-1.7-0.3-3-1-3.9c-0.7-0.9-1.8-1.4-3.2-1.4c-1.4,0-2.6,0.5-3.5,1.5c-0.9,1-1.4,2.4-1.4,4.2
		v10.2H633.2z"/>
	<path class="st2" d="M673.5,640v-28.6h4.6l0.6,2.8c0.6-0.9,1.5-1.7,2.5-2.3c1.1-0.7,2.4-1,4.1-1c1.9,0,3.5,0.5,5,1.4
		c1.5,0.9,2.6,2.1,3.5,3.7c0.9,1.6,1.3,3.4,1.3,5.4s-0.4,3.8-1.3,5.3s-2,2.8-3.5,3.7c-1.5,0.9-3.1,1.3-5,1.3c-1.5,0-2.8-0.3-3.9-0.8
		c-1.1-0.6-2-1.3-2.7-2.4V640H673.5z M684.2,627.2c1.6,0,3-0.5,4-1.6c1.1-1.1,1.6-2.5,1.6-4.2s-0.5-3.2-1.6-4.3
		c-1.1-1.1-2.4-1.7-4-1.7c-1.7,0-3,0.6-4.1,1.7c-1.1,1.1-1.6,2.5-1.6,4.3s0.5,3.2,1.6,4.3C681.1,626.6,682.5,627.2,684.2,627.2z"/>
	<path class="st2" d="M709.6,631.7c-1.7,0-3.1-0.3-4.2-0.8c-1.1-0.5-1.9-1.3-2.4-2.2c-0.5-0.9-0.8-1.9-0.8-3c0-1.8,0.7-3.3,2.2-4.5
		s3.6-1.7,6.5-1.7h5V619c0-1.4-0.4-2.4-1.2-3c-0.8-0.6-1.7-1-2.9-1c-1,0-1.9,0.2-2.7,0.7c-0.8,0.5-1.3,1.2-1.4,2.2h-5
		c0.1-1.4,0.6-2.7,1.5-3.8s1.9-1.9,3.3-2.5c1.3-0.6,2.8-0.9,4.5-0.9c2.8,0,5.1,0.7,6.7,2.1c1.6,1.4,2.4,3.4,2.4,6v12.2h-4.4
		l-0.5-3.2c-0.6,1.1-1.4,1.9-2.5,2.6C712.6,631.3,711.2,631.7,709.6,631.7z M710.8,627.7c1.5,0,2.6-0.5,3.4-1.4
		c0.8-1,1.3-2.1,1.5-3.6h-4.4c-1.4,0-2.3,0.2-2.9,0.7c-0.6,0.5-0.9,1.1-0.9,1.8c0,0.8,0.3,1.4,0.9,1.8
		C709,627.5,709.8,627.7,710.8,627.7z"/>
	<path class="st2" d="M737.6,631.2c-2.1,0-3.7-0.5-5-1.5c-1.3-1-1.9-2.8-1.9-5.4v-8.6h-3.4v-4.3h3.4l0.6-5.3h4.5v5.3h5.4v4.3h-5.4
		v8.7c0,1,0.2,1.6,0.6,2c0.4,0.4,1.1,0.5,2.1,0.5h2.5v4.4H737.6z"/>
	<path class="st2" d="M758,631.7c-2,0-3.8-0.4-5.4-1.3c-1.5-0.9-2.8-2.1-3.7-3.7s-1.3-3.4-1.3-5.4s0.4-3.8,1.3-5.4
		c0.9-1.6,2.1-2.8,3.7-3.7c1.5-0.9,3.3-1.3,5.4-1.3c2.5,0,4.7,0.7,6.4,2c1.7,1.3,2.8,3.1,3.3,5.5h-5.4c-0.3-1-0.8-1.7-1.6-2.3
		c-0.8-0.5-1.7-0.8-2.8-0.8c-1.4,0-2.6,0.5-3.6,1.6c-1,1.1-1.5,2.5-1.5,4.4s0.5,3.4,1.5,4.4c1,1.1,2.2,1.6,3.6,1.6
		c1.1,0,2-0.3,2.8-0.8c0.8-0.5,1.3-1.3,1.6-2.3h5.4c-0.5,2.2-1.6,4-3.3,5.4C762.7,631,760.5,631.7,758,631.7z"/>
	<path class="st2" d="M775.5,631.2v-28.8h5.1v12c0.7-1.1,1.6-2,2.7-2.6c1.1-0.6,2.4-0.9,3.9-0.9c2.5,0,4.4,0.8,5.7,2.3
		c1.3,1.5,2,3.8,2,6.8v11.2h-5.1v-10.7c0-1.7-0.3-3-1-3.9s-1.8-1.4-3.2-1.4c-1.4,0-2.6,0.5-3.6,1.5c-0.9,1-1.4,2.4-1.4,4.2v10.2
		H775.5z"/>
</g>
<circle class="st2" cx="96.5" cy="696.5" r="10.5"/>
<circle class="st2" cx="95.5" cy="744.5" r="10.5"/>
<circle class="st2" cx="95.5" cy="792.5" r="10.5"/>
<g>
	<path class="st3" d="M144.2,707.1c-2,0-3.7-0.5-5.2-1.4c-1.5-0.9-2.6-2.2-3.4-3.8c-0.8-1.6-1.2-3.5-1.2-5.6c0-2.2,0.4-4.1,1.3-5.7
		c0.8-1.7,2.1-2.9,3.6-3.9c1.6-0.9,3.4-1.4,5.6-1.4c2.5,0,4.5,0.6,6.1,1.8c1.6,1.2,2.7,2.8,3.1,4.9h-4.3c-0.3-1-0.9-1.7-1.7-2.3
		c-0.8-0.5-1.9-0.8-3.2-0.8c-2.1,0-3.7,0.7-4.9,2c-1.1,1.3-1.7,3.2-1.7,5.5s0.6,4.1,1.7,5.4c1.1,1.3,2.7,1.9,4.6,1.9
		c1.9,0,3.3-0.5,4.3-1.5c1-1,1.6-2.4,1.8-4.1h-5.3v-2.9h9.2v11.5H151l-0.3-2.8c-0.7,1-1.5,1.8-2.5,2.3S145.8,707.1,144.2,707.1z"/>
	<path class="st3" d="M167.8,707.1c-1.5,0-2.8-0.3-4-1c-1.2-0.6-2.1-1.5-2.7-2.7s-1-2.5-1-4c0-1.5,0.3-2.9,1-4.1
		c0.6-1.2,1.5-2.1,2.7-2.8c1.1-0.7,2.5-1,4.1-1c1.5,0,2.7,0.3,3.9,1c1.1,0.6,2,1.5,2.6,2.6c0.6,1.1,0.9,2.3,0.9,3.7
		c0,0.2,0,0.5,0,0.7s0,0.5,0,0.8h-11.3c0.1,1.2,0.5,2.1,1.2,2.7c0.7,0.7,1.6,1,2.7,1c0.8,0,1.4-0.2,2-0.5c0.5-0.3,0.9-0.8,1.2-1.4
		h3.9c-0.3,0.9-0.7,1.8-1.4,2.6c-0.7,0.8-1.5,1.4-2.4,1.8S169,707.1,167.8,707.1z M167.8,694.6c-0.9,0-1.8,0.3-2.5,0.8
		c-0.7,0.5-1.2,1.3-1.4,2.4h7.4c-0.1-1-0.4-1.8-1.1-2.3S168.8,694.6,167.8,694.6z"/>
	<path class="st3" d="M187.3,706.8c-1.6,0-2.8-0.4-3.8-1.1c-0.9-0.8-1.4-2.1-1.4-4.1v-6.5h-2.5v-3.2h2.5l0.5-4h3.4v4h4v3.2h-4v6.5
		c0,0.7,0.2,1.2,0.5,1.5c0.3,0.3,0.8,0.4,1.6,0.4h1.9v3.3H187.3z"/>
	<path class="st3" d="M207.1,713.4l3.4-7.6h-0.9l-5.8-13.9h4.2l4.2,10.5l4.3-10.5h4.1l-9.4,21.5H207.1z"/>
	<path class="st3" d="M231.4,707.1c-1.4,0-2.7-0.3-3.9-1c-1.2-0.7-2.1-1.6-2.7-2.7c-0.7-1.2-1-2.5-1-4.1c0-1.5,0.3-2.9,1-4.1
		c0.7-1.2,1.6-2.1,2.7-2.7c1.1-0.7,2.4-1,3.9-1c1.4,0,2.7,0.3,3.9,1c1.1,0.7,2.1,1.6,2.7,2.7c0.7,1.2,1,2.5,1,4.1
		c0,1.5-0.3,2.9-1,4.1c-0.7,1.2-1.6,2.1-2.7,2.7C234.1,706.8,232.8,707.1,231.4,707.1z M231.4,703.8c1,0,1.9-0.4,2.6-1.1
		c0.7-0.8,1.1-1.9,1.1-3.3c0-1.5-0.4-2.6-1.1-3.3c-0.7-0.8-1.6-1.1-2.6-1.1c-1,0-1.9,0.4-2.6,1.1c-0.7,0.8-1.1,1.9-1.1,3.3
		c0,1.5,0.4,2.6,1.1,3.3C229.5,703.4,230.4,703.8,231.4,703.8z"/>
	<path class="st3" d="M250.4,707.1c-1.9,0-3.3-0.6-4.3-1.7c-1-1.2-1.5-2.9-1.5-5.1v-8.4h3.8v8c0,1.3,0.3,2.3,0.8,2.9
		c0.5,0.7,1.3,1,2.5,1c1.1,0,1.9-0.4,2.6-1.1c0.7-0.8,1-1.8,1-3.2v-7.7h3.8v14.9h-3.4l-0.3-2.5c-0.5,0.9-1.1,1.6-2,2.1
		C252.6,706.9,251.5,707.1,250.4,707.1z"/>
	<path class="st3" d="M265.4,706.8v-14.9h3.4l0.4,2.8c0.5-1,1.3-1.7,2.2-2.3c0.9-0.6,2-0.9,3.3-0.9v4h-1.1c-0.8,0-1.6,0.1-2.2,0.4
		c-0.7,0.3-1.2,0.7-1.5,1.3c-0.4,0.6-0.6,1.5-0.6,2.7v6.8H265.4z"/>
	<path class="st3" d="M296.5,707.1c-1.5,0-2.8-0.3-4-1c-1.2-0.6-2.1-1.5-2.7-2.7s-1-2.5-1-4c0-1.5,0.3-2.9,1-4.1
		c0.6-1.2,1.5-2.1,2.7-2.8c1.1-0.7,2.5-1,4.1-1c1.5,0,2.7,0.3,3.9,1c1.1,0.6,2,1.5,2.6,2.6c0.6,1.1,0.9,2.3,0.9,3.7
		c0,0.2,0,0.5,0,0.7s0,0.5,0,0.8h-11.3c0.1,1.2,0.5,2.1,1.2,2.7c0.7,0.7,1.6,1,2.7,1c0.8,0,1.4-0.2,2-0.5c0.5-0.3,0.9-0.8,1.2-1.4
		h3.9c-0.3,0.9-0.7,1.8-1.4,2.6c-0.7,0.8-1.5,1.4-2.4,1.8S297.7,707.1,296.5,707.1z M296.5,694.6c-0.9,0-1.8,0.3-2.5,0.8
		c-0.7,0.5-1.2,1.3-1.4,2.4h7.4c-0.1-1-0.4-1.8-1.1-2.3S297.5,694.6,296.5,694.6z"/>
	<path class="st3" d="M307.2,706.8l5.4-7.4l-5.4-7.4h4.1l3.8,5.3l3.8-5.3h4.1l-5.4,7.4l5.4,7.4h-4.1l-3.8-5.3l-3.8,5.3H307.2z"/>
	<path class="st3" d="M327.8,713.4v-21.5h3.4l0.4,2.1c0.5-0.7,1.1-1.2,1.9-1.7c0.8-0.5,1.8-0.8,3.1-0.8c1.4,0,2.6,0.3,3.8,1
		c1.1,0.7,2,1.6,2.6,2.8s1,2.5,1,4s-0.3,2.8-1,4s-1.5,2.1-2.6,2.8c-1.1,0.7-2.4,1-3.8,1c-1.1,0-2.1-0.2-2.9-0.6
		c-0.8-0.4-1.5-1-2-1.8v8.6H327.8z M335.8,703.8c1.2,0,2.2-0.4,3-1.2c0.8-0.8,1.2-1.9,1.2-3.2c0-1.3-0.4-2.4-1.2-3.2
		c-0.8-0.8-1.8-1.3-3-1.3c-1.2,0-2.3,0.4-3,1.2c-0.8,0.8-1.2,1.9-1.2,3.2c0,1.3,0.4,2.4,1.2,3.2
		C333.6,703.4,334.6,703.8,335.8,703.8z"/>
	<path class="st3" d="M349.8,706.8v-14.9h3.4l0.4,2.8c0.5-1,1.3-1.7,2.2-2.3c0.9-0.6,2-0.9,3.3-0.9v4H358c-0.8,0-1.6,0.1-2.2,0.4
		c-0.7,0.3-1.2,0.7-1.5,1.3c-0.4,0.6-0.6,1.5-0.6,2.7v6.8H349.8z"/>
	<path class="st3" d="M371,707.1c-1.5,0-2.8-0.3-4-1c-1.2-0.6-2.1-1.5-2.7-2.7s-1-2.5-1-4c0-1.5,0.3-2.9,1-4.1
		c0.6-1.2,1.5-2.1,2.7-2.8c1.1-0.7,2.5-1,4.1-1c1.5,0,2.7,0.3,3.9,1c1.1,0.6,2,1.5,2.6,2.6c0.6,1.1,0.9,2.3,0.9,3.7
		c0,0.2,0,0.5,0,0.7s0,0.5,0,0.8h-11.3c0.1,1.2,0.5,2.1,1.2,2.7c0.7,0.7,1.6,1,2.7,1c0.8,0,1.4-0.2,2-0.5c0.5-0.3,0.9-0.8,1.2-1.4
		h3.9c-0.3,0.9-0.7,1.8-1.4,2.6c-0.7,0.8-1.5,1.4-2.4,1.8S372.2,707.1,371,707.1z M371,694.6c-0.9,0-1.8,0.3-2.5,0.8
		c-0.7,0.5-1.2,1.3-1.4,2.4h7.4c-0.1-1-0.4-1.8-1.1-2.3S372,694.6,371,694.6z"/>
	<path class="st3" d="M390.3,707.1c-1.3,0-2.5-0.2-3.5-0.6c-1-0.4-1.8-1-2.4-1.8c-0.6-0.8-1-1.6-1.1-2.6h3.9c0.1,0.6,0.4,1.1,1,1.5
		s1.2,0.6,2.1,0.6s1.5-0.2,1.8-0.5c0.4-0.3,0.6-0.7,0.6-1.2c0-0.6-0.3-1.1-0.8-1.3c-0.6-0.2-1.3-0.5-2.3-0.7c-0.6-0.1-1.3-0.3-2-0.5
		c-0.7-0.2-1.3-0.5-1.8-0.8c-0.6-0.3-1-0.7-1.3-1.2c-0.3-0.5-0.5-1.1-0.5-1.8c0-1.3,0.5-2.4,1.6-3.3c1.1-0.9,2.5-1.4,4.4-1.4
		c1.8,0,3.2,0.4,4.2,1.2s1.7,2,1.9,3.4h-3.6c-0.2-1.1-1.1-1.6-2.5-1.6c-0.7,0-1.3,0.1-1.7,0.4c-0.4,0.3-0.6,0.6-0.6,1
		c0,0.4,0.3,0.8,0.9,1c0.6,0.3,1.4,0.5,2.3,0.7c1,0.2,2,0.5,2.9,0.8c0.9,0.3,1.6,0.7,2.1,1.3c0.5,0.6,0.8,1.4,0.8,2.4
		c0,0.9-0.2,1.8-0.7,2.5s-1.2,1.3-2.2,1.7C392.7,706.9,391.5,707.1,390.3,707.1z"/>
	<path class="st3" d="M408.4,707.1c-1.3,0-2.5-0.2-3.5-0.6c-1-0.4-1.8-1-2.4-1.8c-0.6-0.8-1-1.6-1.1-2.6h3.9c0.1,0.6,0.4,1.1,1,1.5
		s1.2,0.6,2.1,0.6s1.5-0.2,1.8-0.5c0.4-0.3,0.6-0.7,0.6-1.2c0-0.6-0.3-1.1-0.8-1.3c-0.6-0.2-1.3-0.5-2.3-0.7c-0.6-0.1-1.3-0.3-2-0.5
		c-0.7-0.2-1.3-0.5-1.8-0.8c-0.6-0.3-1-0.7-1.3-1.2c-0.3-0.5-0.5-1.1-0.5-1.8c0-1.3,0.5-2.4,1.6-3.3c1.1-0.9,2.5-1.4,4.4-1.4
		c1.8,0,3.2,0.4,4.2,1.2s1.7,2,1.9,3.4h-3.6c-0.2-1.1-1.1-1.6-2.5-1.6c-0.7,0-1.3,0.1-1.7,0.4c-0.4,0.3-0.6,0.6-0.6,1
		c0,0.4,0.3,0.8,0.9,1c0.6,0.3,1.4,0.5,2.3,0.7c1,0.2,2,0.5,2.9,0.8c0.9,0.3,1.6,0.7,2.1,1.3c0.5,0.6,0.8,1.4,0.8,2.4
		c0,0.9-0.2,1.8-0.7,2.5s-1.2,1.3-2.2,1.7C410.8,706.9,409.7,707.1,408.4,707.1z"/>
	<path class="st3" d="M422.5,689.6c-0.7,0-1.3-0.2-1.7-0.6c-0.4-0.4-0.7-0.9-0.7-1.6c0-0.6,0.2-1.2,0.7-1.6c0.5-0.4,1-0.6,1.7-0.6
		c0.7,0,1.3,0.2,1.7,0.6c0.4,0.4,0.7,0.9,0.7,1.6c0,0.6-0.2,1.2-0.7,1.6C423.8,689.4,423.2,689.6,422.5,689.6z M420.6,706.8v-14.9
		h3.8v14.9H420.6z"/>
	<path class="st3" d="M438,707.1c-1.4,0-2.7-0.3-3.9-1c-1.2-0.7-2.1-1.6-2.7-2.7c-0.7-1.2-1-2.5-1-4.1c0-1.5,0.3-2.9,1-4.1
		c0.7-1.2,1.6-2.1,2.7-2.7c1.1-0.7,2.4-1,3.9-1c1.4,0,2.7,0.3,3.9,1c1.1,0.7,2.1,1.6,2.7,2.7c0.7,1.2,1,2.5,1,4.1
		c0,1.5-0.3,2.9-1,4.1c-0.7,1.2-1.6,2.1-2.7,2.7C440.7,706.8,439.4,707.1,438,707.1z M438,703.8c1,0,1.9-0.4,2.6-1.1
		c0.7-0.8,1.1-1.9,1.1-3.3c0-1.5-0.4-2.6-1.1-3.3c-0.7-0.8-1.6-1.1-2.6-1.1c-1,0-1.9,0.4-2.6,1.1c-0.7,0.8-1.1,1.9-1.1,3.3
		c0,1.5,0.4,2.6,1.1,3.3C436.1,703.4,437,703.8,438,703.8z"/>
	<path class="st3" d="M451.4,706.8v-14.9h3.4l0.3,2.5c0.5-0.9,1.1-1.6,2-2.1c0.9-0.5,1.9-0.8,3.1-0.8c1.8,0,3.3,0.6,4.3,1.7
		s1.5,2.9,1.5,5.1v8.4h-3.8v-8c0-1.3-0.3-2.3-0.8-2.9c-0.5-0.7-1.3-1-2.4-1c-1.1,0-2,0.4-2.7,1.1c-0.7,0.8-1,1.8-1,3.2v7.7H451.4z"
		/>
	<path class="st3" d="M478.2,707.1c-1.3,0-2.5-0.2-3.5-0.6c-1-0.4-1.8-1-2.4-1.8c-0.6-0.8-1-1.6-1.1-2.6h3.9c0.1,0.6,0.4,1.1,1,1.5
		s1.2,0.6,2.1,0.6s1.5-0.2,1.8-0.5c0.4-0.3,0.6-0.7,0.6-1.2c0-0.6-0.3-1.1-0.8-1.3c-0.6-0.2-1.3-0.5-2.3-0.7c-0.6-0.1-1.3-0.3-2-0.5
		c-0.7-0.2-1.3-0.5-1.8-0.8c-0.6-0.3-1-0.7-1.3-1.2c-0.3-0.5-0.5-1.1-0.5-1.8c0-1.3,0.5-2.4,1.6-3.3c1.1-0.9,2.5-1.4,4.4-1.4
		c1.8,0,3.2,0.4,4.2,1.2s1.7,2,1.9,3.4h-3.6c-0.2-1.1-1.1-1.6-2.5-1.6c-0.7,0-1.3,0.1-1.7,0.4c-0.4,0.3-0.6,0.6-0.6,1
		c0,0.4,0.3,0.8,0.9,1c0.6,0.3,1.4,0.5,2.3,0.7c1,0.2,2,0.5,2.9,0.8c0.9,0.3,1.6,0.7,2.1,1.3c0.5,0.6,0.8,1.4,0.8,2.4
		c0,0.9-0.2,1.8-0.7,2.5s-1.2,1.3-2.2,1.7C480.6,706.9,479.5,707.1,478.2,707.1z"/>
	<path class="st3" d="M501.8,689.6c-0.7,0-1.3-0.2-1.7-0.6c-0.4-0.4-0.7-0.9-0.7-1.6c0-0.6,0.2-1.2,0.7-1.6c0.5-0.4,1-0.6,1.7-0.6
		c0.7,0,1.3,0.2,1.7,0.6c0.4,0.4,0.7,0.9,0.7,1.6c0,0.6-0.2,1.2-0.7,1.6C503.1,689.4,502.5,689.6,501.8,689.6z M499.9,706.8v-14.9
		h3.8v14.9H499.9z"/>
	<path class="st3" d="M510.1,706.8v-14.9h3.4l0.3,2.5c0.5-0.9,1.1-1.6,2-2.1c0.9-0.5,1.9-0.8,3.1-0.8c1.8,0,3.3,0.6,4.3,1.7
		s1.5,2.9,1.5,5.1v8.4h-3.8v-8c0-1.3-0.3-2.3-0.8-2.9c-0.5-0.7-1.3-1-2.4-1c-1.1,0-2,0.4-2.7,1.1c-0.7,0.8-1,1.8-1,3.2v7.7H510.1z"
		/>
	<path class="st3" d="M536.9,707.1c-1.3,0-2.5-0.2-3.5-0.6c-1-0.4-1.8-1-2.4-1.8c-0.6-0.8-1-1.6-1.1-2.6h3.9c0.1,0.6,0.4,1.1,1,1.5
		s1.2,0.6,2.1,0.6s1.5-0.2,1.8-0.5c0.4-0.3,0.6-0.7,0.6-1.2c0-0.6-0.3-1.1-0.8-1.3c-0.6-0.2-1.3-0.5-2.3-0.7c-0.6-0.1-1.3-0.3-2-0.5
		c-0.7-0.2-1.3-0.5-1.8-0.8c-0.6-0.3-1-0.7-1.3-1.2c-0.3-0.5-0.5-1.1-0.5-1.8c0-1.3,0.5-2.4,1.6-3.3c1.1-0.9,2.5-1.4,4.4-1.4
		c1.8,0,3.2,0.4,4.2,1.2s1.7,2,1.9,3.4H539c-0.2-1.1-1.1-1.6-2.5-1.6c-0.7,0-1.3,0.1-1.7,0.4c-0.4,0.3-0.6,0.6-0.6,1
		c0,0.4,0.3,0.8,0.9,1c0.6,0.3,1.4,0.5,2.3,0.7c1,0.2,2,0.5,2.9,0.8c0.9,0.3,1.6,0.7,2.1,1.3c0.5,0.6,0.8,1.4,0.8,2.4
		c0,0.9-0.2,1.8-0.7,2.5s-1.2,1.3-2.2,1.7C539.3,706.9,538.2,707.1,536.9,707.1z"/>
	<path class="st3" d="M555.1,706.8c-1.6,0-2.8-0.4-3.8-1.1c-0.9-0.8-1.4-2.1-1.4-4.1v-6.5h-2.5v-3.2h2.5l0.5-4h3.4v4h4v3.2h-4v6.5
		c0,0.7,0.2,1.2,0.5,1.5c0.3,0.3,0.8,0.4,1.6,0.4h1.9v3.3H555.1z"/>
	<path class="st3" d="M568.6,707.1c-1.3,0-2.3-0.2-3.1-0.6c-0.8-0.4-1.4-1-1.8-1.6c-0.4-0.7-0.6-1.4-0.6-2.2c0-1.4,0.5-2.5,1.6-3.4
		c1.1-0.9,2.7-1.3,4.9-1.3h3.8v-0.4c0-1-0.3-1.8-0.9-2.2c-0.6-0.5-1.3-0.7-2.2-0.7c-0.8,0-1.5,0.2-2,0.6c-0.6,0.4-0.9,0.9-1.1,1.6
		h-3.8c0.1-1.1,0.5-2,1.1-2.8s1.4-1.4,2.4-1.8s2.1-0.6,3.4-0.6c2.1,0,3.8,0.5,5,1.6c1.2,1.1,1.8,2.6,1.8,4.5v9.2h-3.3l-0.4-2.4
		c-0.4,0.8-1.1,1.5-1.8,2C570.9,706.9,569.9,707.1,568.6,707.1z M569.5,704.1c1.1,0,2-0.4,2.6-1.1c0.6-0.7,1-1.6,1.2-2.7h-3.3
		c-1,0-1.8,0.2-2.2,0.6s-0.7,0.8-0.7,1.4c0,0.6,0.2,1,0.7,1.3C568.2,704,568.8,704.1,569.5,704.1z"/>
	<path class="st3" d="M583.2,706.8v-14.9h3.4l0.3,2.5c0.5-0.9,1.1-1.6,2-2.1c0.9-0.5,1.9-0.8,3.1-0.8c1.8,0,3.3,0.6,4.3,1.7
		s1.5,2.9,1.5,5.1v8.4h-3.8v-8c0-1.3-0.3-2.3-0.8-2.9c-0.5-0.7-1.3-1-2.4-1c-1.1,0-2,0.4-2.7,1.1c-0.7,0.8-1,1.8-1,3.2v7.7H583.2z"
		/>
	<path class="st3" d="M610.5,706.8c-1.6,0-2.8-0.4-3.8-1.1c-0.9-0.8-1.4-2.1-1.4-4.1v-6.5h-2.5v-3.2h2.5l0.5-4h3.4v4h4v3.2h-4v6.5
		c0,0.7,0.2,1.2,0.5,1.5c0.3,0.3,0.8,0.4,1.6,0.4h1.9v3.3H610.5z"/>
	<path class="st3" d="M620.5,707c-0.7,0-1.3-0.2-1.7-0.7c-0.5-0.4-0.7-1-0.7-1.6c0-0.6,0.2-1.2,0.7-1.6c0.5-0.4,1-0.7,1.7-0.7
		c0.7,0,1.3,0.2,1.7,0.7c0.4,0.4,0.7,1,0.7,1.6c0,0.6-0.2,1.2-0.7,1.6C621.8,706.8,621.2,707,620.5,707z"/>
	<path class="st3" d="M142.2,755.1c-1.5,0-2.9-0.3-4.1-0.8c-1.2-0.5-2.1-1.3-2.8-2.3c-0.7-1-1-2.2-1-3.6h4c0,1,0.4,1.8,1.1,2.5
		c0.7,0.7,1.6,1,2.8,1c1,0,1.8-0.2,2.4-0.7s0.9-1.1,0.9-2c0-0.9-0.3-1.5-0.8-2c-0.5-0.5-1.2-0.9-2.1-1.2c-0.9-0.3-1.8-0.6-2.8-1
		c-1.6-0.6-2.9-1.3-3.7-2.2c-0.9-0.9-1.3-2-1.3-3.5c0-1.2,0.3-2.3,0.9-3.2c0.6-0.9,1.4-1.6,2.5-2.1s2.3-0.7,3.7-0.7
		c1.4,0,2.6,0.3,3.7,0.8c1.1,0.5,1.9,1.2,2.5,2.1c0.6,0.9,0.9,2,1,3.2H145c0-0.7-0.3-1.4-0.9-2c-0.6-0.6-1.3-0.9-2.3-0.9
		c-0.8,0-1.5,0.2-2.1,0.6c-0.6,0.4-0.9,1.1-0.9,1.9c0,0.7,0.2,1.3,0.7,1.7s1,0.8,1.8,1s1.6,0.6,2.6,0.9c1,0.4,2,0.8,2.9,1.3
		c0.9,0.5,1.5,1.1,2.1,1.9c0.5,0.8,0.8,1.8,0.8,3c0,1.1-0.3,2.1-0.8,3.1c-0.6,0.9-1.4,1.7-2.5,2.3S143.8,755.1,142.2,755.1z"/>
	<path class="st3" d="M155.3,754.8v-14.9h3.4l0.3,2c0.5-0.7,1.1-1.3,1.9-1.7c0.8-0.4,1.7-0.6,2.7-0.6c2.3,0,3.9,0.9,4.9,2.7
		c0.5-0.8,1.3-1.5,2.2-1.9c0.9-0.5,1.9-0.7,3-0.7c1.9,0,3.4,0.6,4.5,1.7s1.6,2.9,1.6,5.1v8.4h-3.8v-8c0-1.3-0.2-2.3-0.7-2.9
		c-0.5-0.7-1.2-1-2.3-1c-1,0-1.9,0.4-2.5,1.1c-0.6,0.8-0.9,1.8-0.9,3.2v7.7h-3.8v-8c0-1.3-0.3-2.3-0.8-2.9c-0.5-0.7-1.3-1-2.3-1
		c-1,0-1.8,0.4-2.5,1.1c-0.6,0.8-0.9,1.8-0.9,3.2v7.7H155.3z"/>
	<path class="st3" d="M192.9,755.1c-1.4,0-2.7-0.3-3.9-1c-1.2-0.7-2.1-1.6-2.7-2.7c-0.7-1.2-1-2.5-1-4.1c0-1.5,0.3-2.9,1-4.1
		c0.7-1.2,1.6-2.1,2.7-2.7c1.1-0.7,2.4-1,3.9-1c1.4,0,2.7,0.3,3.9,1c1.1,0.7,2.1,1.6,2.7,2.7c0.7,1.2,1,2.5,1,4.1
		c0,1.5-0.3,2.9-1,4.1c-0.7,1.2-1.6,2.1-2.7,2.7C195.6,754.8,194.4,755.1,192.9,755.1z M192.9,751.8c1,0,1.9-0.4,2.6-1.1
		c0.7-0.8,1.1-1.9,1.1-3.3c0-1.5-0.4-2.6-1.1-3.3c-0.7-0.8-1.6-1.1-2.6-1.1c-1,0-1.9,0.4-2.6,1.1c-0.7,0.8-1.1,1.9-1.1,3.3
		c0,1.5,0.4,2.6,1.1,3.3C191.1,751.4,191.9,751.8,192.9,751.8z"/>
	<path class="st3" d="M213.5,755.1c-1.4,0-2.7-0.3-3.9-1c-1.2-0.7-2.1-1.6-2.7-2.7c-0.7-1.2-1-2.5-1-4.1c0-1.5,0.3-2.9,1-4.1
		c0.7-1.2,1.6-2.1,2.7-2.7c1.1-0.7,2.4-1,3.9-1c1.4,0,2.7,0.3,3.9,1c1.1,0.7,2.1,1.6,2.7,2.7c0.7,1.2,1,2.5,1,4.1
		c0,1.5-0.3,2.9-1,4.1c-0.7,1.2-1.6,2.1-2.7,2.7C216.2,754.8,214.9,755.1,213.5,755.1z M213.5,751.8c1,0,1.9-0.4,2.6-1.1
		c0.7-0.8,1.1-1.9,1.1-3.3c0-1.5-0.4-2.6-1.1-3.3c-0.7-0.8-1.6-1.1-2.6-1.1c-1,0-1.9,0.4-2.6,1.1c-0.7,0.8-1.1,1.9-1.1,3.3
		c0,1.5,0.4,2.6,1.1,3.3C211.6,751.4,212.5,751.8,213.5,751.8z"/>
	<path class="st3" d="M233,754.8c-1.6,0-2.8-0.4-3.8-1.1c-0.9-0.8-1.4-2.1-1.4-4.1v-6.5h-2.5v-3.2h2.5l0.5-4h3.4v4h4v3.2h-4v6.5
		c0,0.7,0.2,1.2,0.5,1.5c0.3,0.3,0.8,0.4,1.6,0.4h1.9v3.3H233z"/>
	<path class="st3" d="M241.4,754.8v-21.6h3.8v9c0.5-0.8,1.2-1.5,2-1.9c0.9-0.5,1.8-0.7,2.9-0.7c1.8,0,3.3,0.6,4.3,1.7
		c1,1.2,1.5,2.9,1.5,5.1v8.4h-3.8v-8c0-1.3-0.3-2.3-0.8-2.9c-0.5-0.7-1.3-1-2.4-1c-1.1,0-2,0.4-2.7,1.1c-0.7,0.8-1.1,1.8-1.1,3.2
		v7.7H241.4z"/>
	<path class="st3" d="M271.6,754.8v-14.9h3.4l0.4,2.8c0.5-1,1.3-1.7,2.2-2.3c0.9-0.6,2-0.9,3.3-0.9v4h-1.1c-0.8,0-1.6,0.1-2.2,0.4
		c-0.7,0.3-1.2,0.7-1.5,1.3c-0.4,0.6-0.6,1.5-0.6,2.7v6.8H271.6z"/>
	<path class="st3" d="M292.8,755.1c-1.5,0-2.8-0.3-4-1c-1.2-0.6-2.1-1.5-2.7-2.7s-1-2.5-1-4c0-1.5,0.3-2.9,1-4.1
		c0.6-1.2,1.5-2.1,2.7-2.8c1.1-0.7,2.5-1,4.1-1c1.5,0,2.7,0.3,3.9,1c1.1,0.6,2,1.5,2.6,2.6c0.6,1.1,0.9,2.3,0.9,3.7
		c0,0.2,0,0.5,0,0.7s0,0.5,0,0.8h-11.3c0.1,1.2,0.5,2.1,1.2,2.7c0.7,0.7,1.6,1,2.7,1c0.8,0,1.4-0.2,2-0.5c0.5-0.3,0.9-0.8,1.2-1.4
		h3.9c-0.3,0.9-0.7,1.8-1.4,2.6c-0.7,0.8-1.5,1.4-2.4,1.8S294,755.1,292.8,755.1z M292.8,742.6c-0.9,0-1.8,0.3-2.5,0.8
		c-0.7,0.5-1.2,1.3-1.4,2.4h7.4c-0.1-1-0.4-1.8-1.1-2.3S293.8,742.6,292.8,742.6z"/>
	<path class="st3" d="M311,755.1c-1.3,0-2.3-0.2-3.1-0.6c-0.8-0.4-1.4-1-1.8-1.6c-0.4-0.7-0.6-1.4-0.6-2.2c0-1.4,0.5-2.5,1.6-3.4
		c1.1-0.9,2.7-1.3,4.9-1.3h3.8v-0.4c0-1-0.3-1.8-0.9-2.2c-0.6-0.5-1.3-0.7-2.2-0.7c-0.8,0-1.5,0.2-2,0.6c-0.6,0.4-0.9,0.9-1.1,1.6
		h-3.8c0.1-1.1,0.5-2,1.1-2.8s1.4-1.4,2.4-1.8s2.1-0.6,3.4-0.6c2.1,0,3.8,0.5,5,1.6c1.2,1.1,1.8,2.6,1.8,4.5v9.2h-3.3l-0.4-2.4
		c-0.4,0.8-1.1,1.5-1.8,2C313.3,754.9,312.3,755.1,311,755.1z M311.9,752.1c1.1,0,2-0.4,2.6-1.1c0.6-0.7,1-1.6,1.2-2.7h-3.3
		c-1,0-1.8,0.2-2.2,0.6s-0.7,0.8-0.7,1.4c0,0.6,0.2,1,0.7,1.3C310.6,752,311.2,752.1,311.9,752.1z"/>
	<path class="st3" d="M325.6,754.8v-21.6h3.8v21.6H325.6z"/>
	<path class="st3" d="M335.5,747.7v-3.2H348v3.2H335.5z"/>
	<path class="st3" d="M360.6,754.8c-1.6,0-2.8-0.4-3.8-1.1c-0.9-0.8-1.4-2.1-1.4-4.1v-6.5h-2.5v-3.2h2.5l0.5-4h3.4v4h4v3.2h-4v6.5
		c0,0.7,0.2,1.2,0.5,1.5c0.3,0.3,0.8,0.4,1.6,0.4h1.9v3.3H360.6z"/>
	<path class="st3" d="M371.1,737.6c-0.7,0-1.3-0.2-1.7-0.6c-0.4-0.4-0.7-0.9-0.7-1.6c0-0.6,0.2-1.2,0.7-1.6c0.5-0.4,1-0.6,1.7-0.6
		c0.7,0,1.3,0.2,1.7,0.6c0.4,0.4,0.7,0.9,0.7,1.6c0,0.6-0.2,1.2-0.7,1.6C372.4,737.4,371.8,737.6,371.1,737.6z M369.2,754.8v-14.9
		h3.8v14.9H369.2z"/>
	<path class="st3" d="M379.4,754.8v-14.9h3.4l0.3,2c0.5-0.7,1.1-1.3,1.9-1.7c0.8-0.4,1.7-0.6,2.7-0.6c2.3,0,3.9,0.9,4.9,2.7
		c0.5-0.8,1.3-1.5,2.2-1.9c0.9-0.5,1.9-0.7,3-0.7c1.9,0,3.4,0.6,4.5,1.7s1.6,2.9,1.6,5.1v8.4H400v-8c0-1.3-0.2-2.3-0.7-2.9
		c-0.5-0.7-1.2-1-2.3-1c-1,0-1.9,0.4-2.5,1.1c-0.6,0.8-0.9,1.8-0.9,3.2v7.7h-3.8v-8c0-1.3-0.3-2.3-0.8-2.9c-0.5-0.7-1.3-1-2.3-1
		c-1,0-1.8,0.4-2.5,1.1c-0.6,0.8-0.9,1.8-0.9,3.2v7.7H379.4z"/>
	<path class="st3" d="M417.2,755.1c-1.5,0-2.8-0.3-4-1c-1.2-0.6-2.1-1.5-2.7-2.7s-1-2.5-1-4c0-1.5,0.3-2.9,1-4.1
		c0.6-1.2,1.5-2.1,2.7-2.8c1.1-0.7,2.5-1,4.1-1c1.5,0,2.7,0.3,3.9,1c1.1,0.6,2,1.5,2.6,2.6c0.6,1.1,0.9,2.3,0.9,3.7
		c0,0.2,0,0.5,0,0.7s0,0.5,0,0.8h-11.3c0.1,1.2,0.5,2.1,1.2,2.7c0.7,0.7,1.6,1,2.7,1c0.8,0,1.4-0.2,2-0.5c0.5-0.3,0.9-0.8,1.2-1.4
		h3.9c-0.3,0.9-0.7,1.8-1.4,2.6c-0.7,0.8-1.5,1.4-2.4,1.8S418.4,755.1,417.2,755.1z M417.2,742.6c-0.9,0-1.8,0.3-2.5,0.8
		c-0.7,0.5-1.2,1.3-1.4,2.4h7.4c-0.1-1-0.4-1.8-1.1-2.3S418.2,742.6,417.2,742.6z"/>
	<path class="st3" d="M446.5,754.8c-1.6,0-2.8-0.4-3.8-1.1c-0.9-0.8-1.4-2.1-1.4-4.1v-6.5h-2.5v-3.2h2.5l0.5-4h3.4v4h4v3.2h-4v6.5
		c0,0.7,0.2,1.2,0.5,1.5c0.3,0.3,0.8,0.4,1.6,0.4h1.9v3.3H446.5z"/>
	<path class="st3" d="M454.9,754.8v-14.9h3.4l0.4,2.8c0.5-1,1.3-1.7,2.2-2.3c0.9-0.6,2-0.9,3.3-0.9v4H463c-0.8,0-1.6,0.1-2.2,0.4
		c-0.7,0.3-1.2,0.7-1.5,1.3c-0.4,0.6-0.6,1.5-0.6,2.7v6.8H454.9z"/>
	<path class="st3" d="M474.3,755.1c-1.3,0-2.3-0.2-3.1-0.6c-0.8-0.4-1.4-1-1.8-1.6c-0.4-0.7-0.6-1.4-0.6-2.2c0-1.4,0.5-2.5,1.6-3.4
		c1.1-0.9,2.7-1.3,4.9-1.3h3.8v-0.4c0-1-0.3-1.8-0.9-2.2c-0.6-0.5-1.3-0.7-2.2-0.7c-0.8,0-1.5,0.2-2,0.6c-0.6,0.4-0.9,0.9-1.1,1.6
		H469c0.1-1.1,0.5-2,1.1-2.8s1.4-1.4,2.4-1.8s2.1-0.6,3.4-0.6c2.1,0,3.8,0.5,5,1.6c1.2,1.1,1.8,2.6,1.8,4.5v9.2h-3.3l-0.4-2.4
		c-0.4,0.8-1.1,1.5-1.8,2C476.5,754.9,475.5,755.1,474.3,755.1z M475.1,752.1c1.1,0,2-0.4,2.6-1.1c0.6-0.7,1-1.6,1.2-2.7h-3.3
		c-1,0-1.8,0.2-2.2,0.6s-0.7,0.8-0.7,1.4c0,0.6,0.2,1,0.7,1.3C473.8,752,474.4,752.1,475.1,752.1z"/>
	<path class="st3" d="M496.1,755.1c-1.5,0-2.9-0.3-4-1c-1.2-0.7-2.1-1.6-2.7-2.8c-0.7-1.2-1-2.5-1-4.1c0-1.5,0.3-2.9,1-4
		c0.7-1.2,1.6-2.1,2.7-2.8c1.2-0.7,2.5-1,4-1c1.9,0,3.5,0.5,4.8,1.5c1.3,1,2.1,2.4,2.5,4.1h-4c-0.2-0.7-0.6-1.3-1.2-1.7
		c-0.6-0.4-1.3-0.6-2.1-0.6c-1.1,0-2,0.4-2.7,1.2s-1.1,1.9-1.1,3.3c0,1.4,0.4,2.5,1.1,3.3c0.7,0.8,1.6,1.2,2.7,1.2
		c0.8,0,1.5-0.2,2.1-0.6s1-1,1.2-1.7h4c-0.4,1.7-1.2,3-2.5,4C499.6,754.6,498,755.1,496.1,755.1z"/>
	<path class="st3" d="M509.2,754.8v-21.6h3.8v12.8l5.3-6h4.6l-6.1,6.8l7.1,8.1h-4.8l-6-7.5v7.5H509.2z"/>
	<path class="st3" d="M530.8,737.6c-0.7,0-1.3-0.2-1.7-0.6c-0.4-0.4-0.7-0.9-0.7-1.6c0-0.6,0.2-1.2,0.7-1.6c0.5-0.4,1-0.6,1.7-0.6
		c0.7,0,1.3,0.2,1.7,0.6c0.4,0.4,0.7,0.9,0.7,1.6c0,0.6-0.2,1.2-0.7,1.6C532,737.4,531.5,737.6,530.8,737.6z M528.8,754.8v-14.9h3.8
		v14.9H528.8z"/>
	<path class="st3" d="M539.1,754.8v-14.9h3.4l0.3,2.5c0.5-0.9,1.1-1.6,2-2.1c0.9-0.5,1.9-0.8,3.1-0.8c1.8,0,3.3,0.6,4.3,1.7
		s1.5,2.9,1.5,5.1v8.4h-3.8v-8c0-1.3-0.3-2.3-0.8-2.9c-0.5-0.7-1.3-1-2.4-1c-1.1,0-2,0.4-2.7,1.1c-0.7,0.8-1,1.8-1,3.2v7.7H539.1z"
		/>
	<path class="st3" d="M566,750.3c-0.7,0-1.4-0.1-2-0.2l-1.1,1.1c0.3,0.2,0.8,0.3,1.4,0.5s1.5,0.2,2.8,0.4c2,0.2,3.4,0.7,4.3,1.4
		s1.4,1.8,1.4,3.1c0,0.9-0.2,1.7-0.7,2.5s-1.2,1.4-2.2,1.9c-1,0.5-2.3,0.7-3.8,0.7c-2.1,0-3.8-0.4-5.1-1.2c-1.3-0.8-1.9-2-1.9-3.6
		c0-1.3,0.6-2.5,1.9-3.5c-0.4-0.2-0.7-0.4-1-0.6c-0.3-0.2-0.5-0.4-0.8-0.6v-0.7l2.6-2.8c-1.2-1-1.7-2.3-1.7-3.9c0-1,0.2-1.9,0.7-2.7
		c0.5-0.8,1.2-1.5,2.1-1.9c0.9-0.5,2-0.7,3.3-0.7c0.8,0,1.6,0.1,2.3,0.4h5.6v2.3l-2.5,0.2c0.4,0.8,0.6,1.6,0.6,2.5
		c0,1-0.2,1.9-0.7,2.7c-0.5,0.8-1.2,1.5-2.1,2C568.4,750.1,567.3,750.3,566,750.3z M562.4,756.6c0,0.7,0.3,1.3,1,1.7
		s1.5,0.6,2.5,0.6c1,0,1.7-0.2,2.3-0.6c0.6-0.4,0.9-0.9,0.9-1.6c0-0.5-0.2-1-0.6-1.3s-1.2-0.6-2.3-0.7c-0.8-0.1-1.6-0.1-2.3-0.3
		c-0.6,0.3-1,0.7-1.2,1S562.4,756.2,562.4,756.6z M566,747.4c0.8,0,1.4-0.2,1.9-0.6c0.5-0.4,0.8-1,0.8-1.8c0-0.8-0.3-1.4-0.8-1.8
		c-0.5-0.4-1.2-0.6-1.9-0.6c-0.8,0-1.5,0.2-2,0.6c-0.5,0.4-0.8,1-0.8,1.8c0,0.8,0.2,1.4,0.8,1.8C564.6,747.2,565.2,747.4,566,747.4z
		"/>
	<path class="st3" d="M580.9,755c-0.7,0-1.3-0.2-1.7-0.7c-0.5-0.4-0.7-1-0.7-1.6c0-0.6,0.2-1.2,0.7-1.6c0.5-0.4,1-0.7,1.7-0.7
		c0.7,0,1.3,0.2,1.7,0.7c0.4,0.4,0.7,1,0.7,1.6c0,0.6-0.2,1.2-0.7,1.6C582.1,754.8,581.6,755,580.9,755z"/>
	<path class="st3" d="M144.2,803.1c-2,0-3.7-0.5-5.2-1.4c-1.5-0.9-2.6-2.2-3.4-3.8c-0.8-1.6-1.2-3.5-1.2-5.6c0-2.2,0.4-4.1,1.3-5.7
		c0.8-1.7,2.1-2.9,3.6-3.9c1.6-0.9,3.4-1.4,5.6-1.4c2.5,0,4.5,0.6,6.1,1.8c1.6,1.2,2.7,2.8,3.1,4.9h-4.3c-0.3-1-0.9-1.7-1.7-2.3
		c-0.8-0.5-1.9-0.8-3.2-0.8c-2.1,0-3.7,0.7-4.9,2c-1.1,1.3-1.7,3.2-1.7,5.5s0.6,4.1,1.7,5.4c1.1,1.3,2.7,1.9,4.6,1.9
		c1.9,0,3.3-0.5,4.3-1.5c1-1,1.6-2.4,1.8-4.1h-5.3v-2.9h9.2v11.5H151l-0.3-2.8c-0.7,1-1.5,1.8-2.5,2.3S145.8,803.1,144.2,803.1z"/>
	<path class="st3" d="M162.6,785.6c-0.7,0-1.3-0.2-1.7-0.6c-0.4-0.4-0.7-0.9-0.7-1.6c0-0.6,0.2-1.2,0.7-1.6c0.5-0.4,1-0.6,1.7-0.6
		c0.7,0,1.3,0.2,1.7,0.6c0.4,0.4,0.7,0.9,0.7,1.6c0,0.6-0.2,1.2-0.7,1.6C163.9,785.4,163.3,785.6,162.6,785.6z M160.7,802.8v-14.9
		h3.8v14.9H160.7z"/>
	<path class="st3" d="M175,802.8l-5.5-14.9h4l3.8,11.2l3.8-11.2h4l-5.5,14.9H175z"/>
	<path class="st3" d="M196.5,803.1c-1.5,0-2.8-0.3-4-1c-1.2-0.6-2.1-1.5-2.7-2.7s-1-2.5-1-4c0-1.5,0.3-2.9,1-4.1
		c0.6-1.2,1.5-2.1,2.7-2.8c1.1-0.7,2.5-1,4.1-1c1.5,0,2.7,0.3,3.9,1c1.1,0.6,2,1.5,2.6,2.6c0.6,1.1,0.9,2.3,0.9,3.7
		c0,0.2,0,0.5,0,0.7s0,0.5,0,0.8h-11.3c0.1,1.2,0.5,2.1,1.2,2.7c0.7,0.7,1.6,1,2.7,1c0.8,0,1.4-0.2,2-0.5c0.5-0.3,0.9-0.8,1.2-1.4
		h3.9c-0.3,0.9-0.7,1.8-1.4,2.6c-0.7,0.8-1.5,1.4-2.4,1.8S197.7,803.1,196.5,803.1z M196.5,790.6c-0.9,0-1.8,0.3-2.5,0.8
		c-0.7,0.5-1.2,1.3-1.4,2.4h7.4c-0.1-1-0.4-1.8-1.1-2.3S197.5,790.6,196.5,790.6z"/>
	<path class="st3" d="M226.4,803.1c-1.5,0-2.8-0.3-4-1c-1.2-0.6-2.1-1.5-2.7-2.7s-1-2.5-1-4c0-1.5,0.3-2.9,1-4.1
		c0.6-1.2,1.5-2.1,2.7-2.8c1.1-0.7,2.5-1,4.1-1c1.5,0,2.7,0.3,3.9,1c1.1,0.6,2,1.5,2.6,2.6c0.6,1.1,0.9,2.3,0.9,3.7
		c0,0.2,0,0.5,0,0.7s0,0.5,0,0.8h-11.3c0.1,1.2,0.5,2.1,1.2,2.7c0.7,0.7,1.6,1,2.7,1c0.8,0,1.4-0.2,2-0.5c0.5-0.3,0.9-0.8,1.2-1.4
		h3.9c-0.3,0.9-0.7,1.8-1.4,2.6c-0.7,0.8-1.5,1.4-2.4,1.8S227.6,803.1,226.4,803.1z M226.4,790.6c-0.9,0-1.8,0.3-2.5,0.8
		c-0.7,0.5-1.2,1.3-1.4,2.4h7.4c-0.1-1-0.4-1.8-1.1-2.3S227.4,790.6,226.4,790.6z"/>
	<path class="st3" d="M239.5,802.8v-14.9h3.4l0.3,2c0.5-0.7,1.1-1.3,1.9-1.7c0.8-0.4,1.7-0.6,2.7-0.6c2.3,0,3.9,0.9,4.9,2.7
		c0.5-0.8,1.3-1.5,2.2-1.9c0.9-0.5,1.9-0.7,3-0.7c1.9,0,3.4,0.6,4.5,1.7s1.6,2.9,1.6,5.1v8.4h-3.8v-8c0-1.3-0.2-2.3-0.7-2.9
		c-0.5-0.7-1.2-1-2.3-1c-1,0-1.9,0.4-2.5,1.1c-0.6,0.8-0.9,1.8-0.9,3.2v7.7h-3.8v-8c0-1.3-0.3-2.3-0.8-2.9c-0.5-0.7-1.3-1-2.3-1
		c-1,0-1.8,0.4-2.5,1.1c-0.6,0.8-0.9,1.8-0.9,3.2v7.7H239.5z"/>
	<path class="st3" d="M277.1,803.1c-1.4,0-2.7-0.3-3.9-1c-1.2-0.7-2.1-1.6-2.7-2.7c-0.7-1.2-1-2.5-1-4.1c0-1.5,0.3-2.9,1-4.1
		c0.7-1.2,1.6-2.1,2.7-2.7c1.1-0.7,2.4-1,3.9-1c1.4,0,2.7,0.3,3.9,1c1.1,0.7,2.1,1.6,2.7,2.7c0.7,1.2,1,2.5,1,4.1
		c0,1.5-0.3,2.9-1,4.1c-0.7,1.2-1.6,2.1-2.7,2.7C279.8,802.8,278.5,803.1,277.1,803.1z M277.1,799.8c1,0,1.9-0.4,2.6-1.1
		c0.7-0.8,1.1-1.9,1.1-3.3c0-1.5-0.4-2.6-1.1-3.3c-0.7-0.8-1.6-1.1-2.6-1.1c-1,0-1.9,0.4-2.6,1.1c-0.7,0.8-1.1,1.9-1.1,3.3
		c0,1.5,0.4,2.6,1.1,3.3C275.2,799.4,276.1,799.8,277.1,799.8z"/>
	<path class="st3" d="M296.6,802.8c-1.6,0-2.8-0.4-3.8-1.1c-0.9-0.8-1.4-2.1-1.4-4.1v-6.5h-2.5v-3.2h2.5l0.5-4h3.4v4h4v3.2h-4v6.5
		c0,0.7,0.2,1.2,0.5,1.5c0.3,0.3,0.8,0.4,1.6,0.4h1.9v3.3H296.6z"/>
	<path class="st3" d="M307.1,785.6c-0.7,0-1.3-0.2-1.7-0.6c-0.4-0.4-0.7-0.9-0.7-1.6c0-0.6,0.2-1.2,0.7-1.6c0.5-0.4,1-0.6,1.7-0.6
		c0.7,0,1.3,0.2,1.7,0.6c0.4,0.4,0.7,0.9,0.7,1.6c0,0.6-0.2,1.2-0.7,1.6C308.3,785.4,307.8,785.6,307.1,785.6z M305.1,802.8v-14.9
		h3.8v14.9H305.1z"/>
	<path class="st3" d="M322.5,803.1c-1.4,0-2.7-0.3-3.9-1c-1.2-0.7-2.1-1.6-2.7-2.7c-0.7-1.2-1-2.5-1-4.1c0-1.5,0.3-2.9,1-4.1
		c0.7-1.2,1.6-2.1,2.7-2.7c1.1-0.7,2.4-1,3.9-1c1.4,0,2.7,0.3,3.9,1c1.1,0.7,2.1,1.6,2.7,2.7c0.7,1.2,1,2.5,1,4.1
		c0,1.5-0.3,2.9-1,4.1c-0.7,1.2-1.6,2.1-2.7,2.7C325.2,802.8,324,803.1,322.5,803.1z M322.5,799.8c1,0,1.9-0.4,2.6-1.1
		c0.7-0.8,1.1-1.9,1.1-3.3c0-1.5-0.4-2.6-1.1-3.3c-0.7-0.8-1.6-1.1-2.6-1.1c-1,0-1.9,0.4-2.6,1.1c-0.7,0.8-1.1,1.9-1.1,3.3
		c0,1.5,0.4,2.6,1.1,3.3C320.7,799.4,321.5,799.8,322.5,799.8z"/>
	<path class="st3" d="M336,802.8v-14.9h3.4l0.3,2.5c0.5-0.9,1.1-1.6,2-2.1c0.9-0.5,1.9-0.8,3.1-0.8c1.8,0,3.3,0.6,4.3,1.7
		s1.5,2.9,1.5,5.1v8.4h-3.8v-8c0-1.3-0.3-2.3-0.8-2.9c-0.5-0.7-1.3-1-2.4-1c-1.1,0-2,0.4-2.7,1.1c-0.7,0.8-1,1.8-1,3.2v7.7H336z"/>
	<path class="st3" d="M362.8,803.1c-1.3,0-2.5-0.2-3.5-0.6c-1-0.4-1.8-1-2.4-1.8c-0.6-0.8-1-1.6-1.1-2.6h3.9c0.1,0.6,0.4,1.1,1,1.5
		s1.2,0.6,2.1,0.6s1.5-0.2,1.8-0.5c0.4-0.3,0.6-0.7,0.6-1.2c0-0.6-0.3-1.1-0.8-1.3c-0.6-0.2-1.3-0.5-2.3-0.7c-0.6-0.1-1.3-0.3-2-0.5
		c-0.7-0.2-1.3-0.5-1.8-0.8c-0.6-0.3-1-0.7-1.3-1.2c-0.3-0.5-0.5-1.1-0.5-1.8c0-1.3,0.5-2.4,1.6-3.3c1.1-0.9,2.5-1.4,4.4-1.4
		c1.8,0,3.2,0.4,4.2,1.2s1.7,2,1.9,3.4h-3.6c-0.2-1.1-1.1-1.6-2.5-1.6c-0.7,0-1.3,0.1-1.7,0.4c-0.4,0.3-0.6,0.6-0.6,1
		c0,0.4,0.3,0.8,0.9,1c0.6,0.3,1.4,0.5,2.3,0.7c1,0.2,2,0.5,2.9,0.8c0.9,0.3,1.6,0.7,2.1,1.3c0.5,0.6,0.8,1.4,0.8,2.4
		c0,0.9-0.2,1.8-0.7,2.5s-1.2,1.3-2.2,1.7C365.1,802.9,364,803.1,362.8,803.1z"/>
	<path class="st3" d="M390.9,802.8c-1.6,0-2.8-0.4-3.8-1.1c-0.9-0.8-1.4-2.1-1.4-4.1v-6.5h-2.5v-3.2h2.5l0.5-4h3.4v4h4v3.2h-4v6.5
		c0,0.7,0.2,1.2,0.5,1.5c0.3,0.3,0.8,0.4,1.6,0.4h1.9v3.3H390.9z"/>
	<path class="st3" d="M406.1,803.1c-1.4,0-2.7-0.3-3.9-1c-1.2-0.7-2.1-1.6-2.7-2.7c-0.7-1.2-1-2.5-1-4.1c0-1.5,0.3-2.9,1-4.1
		c0.7-1.2,1.6-2.1,2.7-2.7c1.1-0.7,2.4-1,3.9-1c1.4,0,2.7,0.3,3.9,1c1.1,0.7,2.1,1.6,2.7,2.7c0.7,1.2,1,2.5,1,4.1
		c0,1.5-0.3,2.9-1,4.1c-0.7,1.2-1.6,2.1-2.7,2.7C408.8,802.8,407.5,803.1,406.1,803.1z M406.1,799.8c1,0,1.9-0.4,2.6-1.1
		c0.7-0.8,1.1-1.9,1.1-3.3c0-1.5-0.4-2.6-1.1-3.3c-0.7-0.8-1.6-1.1-2.6-1.1c-1,0-1.9,0.4-2.6,1.1c-0.7,0.8-1.1,1.9-1.1,3.3
		c0,1.5,0.4,2.6,1.1,3.3C404.2,799.4,405.1,799.8,406.1,799.8z"/>
	<path class="st3" d="M430.9,809.4l3.4-7.6h-0.9l-5.8-13.9h4.2l4.2,10.5l4.3-10.5h4.1l-9.4,21.5H430.9z"/>
	<path class="st3" d="M455.2,803.1c-1.4,0-2.7-0.3-3.9-1c-1.2-0.7-2.1-1.6-2.7-2.7c-0.7-1.2-1-2.5-1-4.1c0-1.5,0.3-2.9,1-4.1
		c0.7-1.2,1.6-2.1,2.7-2.7c1.1-0.7,2.4-1,3.9-1c1.4,0,2.7,0.3,3.9,1c1.1,0.7,2.1,1.6,2.7,2.7c0.7,1.2,1,2.5,1,4.1
		c0,1.5-0.3,2.9-1,4.1c-0.7,1.2-1.6,2.1-2.7,2.7C457.9,802.8,456.6,803.1,455.2,803.1z M455.2,799.8c1,0,1.9-0.4,2.6-1.1
		c0.7-0.8,1.1-1.9,1.1-3.3c0-1.5-0.4-2.6-1.1-3.3c-0.7-0.8-1.6-1.1-2.6-1.1c-1,0-1.9,0.4-2.6,1.1c-0.7,0.8-1.1,1.9-1.1,3.3
		c0,1.5,0.4,2.6,1.1,3.3C453.4,799.4,454.2,799.8,455.2,799.8z"/>
	<path class="st3" d="M474.2,803.1c-1.9,0-3.3-0.6-4.3-1.7c-1-1.2-1.5-2.9-1.5-5.1v-8.4h3.8v8c0,1.3,0.3,2.3,0.8,2.9
		c0.5,0.7,1.3,1,2.5,1c1.1,0,1.9-0.4,2.6-1.1c0.7-0.8,1-1.8,1-3.2v-7.7h3.8v14.9h-3.4l-0.3-2.5c-0.5,0.9-1.1,1.6-2,2.1
		C476.4,802.9,475.4,803.1,474.2,803.1z"/>
	<path class="st3" d="M489.3,802.8v-14.9h3.4l0.4,2.8c0.5-1,1.3-1.7,2.2-2.3c0.9-0.6,2-0.9,3.3-0.9v4h-1.1c-0.8,0-1.6,0.1-2.2,0.4
		c-0.7,0.3-1.2,0.7-1.5,1.3c-0.4,0.6-0.6,1.5-0.6,2.7v6.8H489.3z"/>
	<path class="st3" d="M513.1,802.8v-14.9h3.4l0.3,2c0.5-0.7,1.1-1.3,1.9-1.7c0.8-0.4,1.7-0.6,2.7-0.6c2.3,0,3.9,0.9,4.9,2.7
		c0.5-0.8,1.3-1.5,2.2-1.9c0.9-0.5,1.9-0.7,3-0.7c1.9,0,3.4,0.6,4.5,1.7s1.6,2.9,1.6,5.1v8.4h-3.8v-8c0-1.3-0.2-2.3-0.7-2.9
		c-0.5-0.7-1.2-1-2.3-1c-1,0-1.9,0.4-2.5,1.1c-0.6,0.8-0.9,1.8-0.9,3.2v7.7h-3.8v-8c0-1.3-0.3-2.3-0.8-2.9c-0.5-0.7-1.3-1-2.3-1
		c-1,0-1.8,0.4-2.5,1.1c-0.6,0.8-0.9,1.8-0.9,3.2v7.7H513.1z"/>
	<path class="st3" d="M550.8,803.1c-1.4,0-2.7-0.3-3.9-1c-1.2-0.7-2.1-1.6-2.7-2.7c-0.7-1.2-1-2.5-1-4.1c0-1.5,0.3-2.9,1-4.1
		c0.7-1.2,1.6-2.1,2.7-2.7c1.1-0.7,2.4-1,3.9-1c1.4,0,2.7,0.3,3.9,1c1.1,0.7,2.1,1.6,2.7,2.7c0.7,1.2,1,2.5,1,4.1
		c0,1.5-0.3,2.9-1,4.1c-0.7,1.2-1.6,2.1-2.7,2.7C553.5,802.8,552.2,803.1,550.8,803.1z M550.8,799.8c1,0,1.9-0.4,2.6-1.1
		c0.7-0.8,1.1-1.9,1.1-3.3c0-1.5-0.4-2.6-1.1-3.3c-0.7-0.8-1.6-1.1-2.6-1.1c-1,0-1.9,0.4-2.6,1.1c-0.7,0.8-1.1,1.9-1.1,3.3
		c0,1.5,0.4,2.6,1.1,3.3C548.9,799.4,549.8,799.8,550.8,799.8z"/>
	<path class="st3" d="M571,803.1c-1.4,0-2.7-0.3-3.8-1c-1.1-0.7-2-1.6-2.6-2.8c-0.6-1.2-1-2.5-1-4s0.3-2.8,1-4
		c0.6-1.2,1.5-2.1,2.6-2.8c1.1-0.7,2.3-1,3.8-1c1.1,0,2.1,0.2,2.9,0.6s1.5,1,2,1.8v-8.8h3.8v21.6h-3.4l-0.4-2.1
		c-0.5,0.7-1.1,1.2-1.9,1.7C573.3,802.9,572.3,803.1,571,803.1z M571.9,799.8c1.2,0,2.3-0.4,3-1.2c0.8-0.8,1.2-1.9,1.2-3.2
		c0-1.3-0.4-2.4-1.2-3.2c-0.8-0.8-1.8-1.2-3-1.2c-1.2,0-2.2,0.4-3,1.2c-0.8,0.8-1.2,1.9-1.2,3.2s0.4,2.4,1.2,3.2
		S570.6,799.8,571.9,799.8z"/>
	<path class="st3" d="M593.4,803.1c-1.5,0-2.8-0.3-4-1c-1.2-0.6-2.1-1.5-2.7-2.7s-1-2.5-1-4c0-1.5,0.3-2.9,1-4.1
		c0.6-1.2,1.5-2.1,2.7-2.8c1.1-0.7,2.5-1,4.1-1c1.5,0,2.7,0.3,3.9,1c1.1,0.6,2,1.5,2.6,2.6c0.6,1.1,0.9,2.3,0.9,3.7
		c0,0.2,0,0.5,0,0.7s0,0.5,0,0.8h-11.3c0.1,1.2,0.5,2.1,1.2,2.7c0.7,0.7,1.6,1,2.7,1c0.8,0,1.4-0.2,2-0.5c0.5-0.3,0.9-0.8,1.2-1.4
		h3.9c-0.3,0.9-0.7,1.8-1.4,2.6c-0.7,0.8-1.5,1.4-2.4,1.8S594.6,803.1,593.4,803.1z M593.4,790.6c-0.9,0-1.8,0.3-2.5,0.8
		c-0.7,0.5-1.2,1.3-1.4,2.4h7.4c-0.1-1-0.4-1.8-1.1-2.3S594.4,790.6,593.4,790.6z"/>
	<path class="st3" d="M606.5,802.8v-21.6h3.8v21.6H606.5z"/>
	<path class="st3" d="M618.3,803c-0.7,0-1.3-0.2-1.7-0.7c-0.5-0.4-0.7-1-0.7-1.6c0-0.6,0.2-1.2,0.7-1.6c0.5-0.4,1-0.7,1.7-0.7
		c0.7,0,1.3,0.2,1.7,0.7c0.4,0.4,0.7,1,0.7,1.6c0,0.6-0.2,1.2-0.7,1.6C619.6,802.8,619,803,618.3,803z"/>
</g>
<g>
	<path class="st0" d="M1005.7,118c-5.7,0-10.3-1.6-13.8-4.9c-4-3.8-6-9-6-15.6V86.6H999v10.9c0,2.9,0.6,4.8,1.8,6
		c1,1,2.7,1.4,4.9,1.4c2.3,0,3.9-0.5,4.9-1.4c1.2-1,1.8-3,1.8-6v-5.2c0-3.7-1.5-6.8-4.4-9.5c-0.6-0.6-2.3-1.6-5-3.1
		c-3.7-2-6.5-3.7-8.2-5.2c-2.9-2.5-5-5.4-6.6-8.7c-1.5-3.3-2.3-6.8-2.3-10.5v-2c0-6.6,2-11.8,6-15.6c3.5-3.3,8.1-4.9,13.8-4.9
		c5.7,0,10.3,1.6,13.8,4.9c4,3.8,6,9,6,15.6v7.3h-13.1v-7.3c0-2.9-0.6-4.9-1.8-6c-1-1-2.6-1.4-4.9-1.4c-2.2,0-3.9,0.5-4.9,1.4
		c-1.2,1.1-1.8,3.1-1.8,6v2c0,3.7,1.5,6.8,4.4,9.4c0.8,0.6,2.3,1.6,4.7,2.9c4.1,2.2,7,4.1,8.6,5.5c5.9,5.2,8.8,11.7,8.8,19.3v5.2
		c0,6.6-2,11.8-6,15.6C1016,116.3,1011.4,118,1005.7,118z"/>
	<path class="st0" d="M1055.8,117h-13.1V33.6h19.8c5.6,0,10.3,1.7,13.8,5c4,3.7,6,8.8,6,15.5v9.1c0,6.8-2,12-6,15.6
		c-3.5,3.3-8.1,4.9-13.8,4.9h-6.7V117z M1055.8,70.5h6.7c2.2,0,3.9-0.5,4.9-1.4c1.2-1.1,1.8-3.1,1.8-6v-9.1c0-2.8-0.6-4.8-1.8-6
		c-1-1-2.7-1.4-4.9-1.4h-6.7V70.5z"/>
	<path class="st0" d="M1121.3,103.8h-15l-2.4,13.2h-13.4l16.7-83.5h13.1l16.7,83.5h-13.4L1121.3,103.8z M1119.1,90.7l-5.2-29.9
		l-5.2,29.9H1119.1z"/>
	<path class="st0" d="M1192.3,117h-13.4l-6.8-33.5h-6V117H1153V33.6h19.8c5.6,0,10.3,1.7,13.8,5c4,3.7,6,8.8,6,15.5V63
		c0,6.8-2,12-6,15.6c-0.6,0.6-1.2,1.1-1.9,1.6L1192.3,117z M1179.5,54.1c0-2.8-0.6-4.8-1.8-6c-1-1-2.7-1.4-4.9-1.4h-6.7v23.7h6.7
		c2.2,0,3.9-0.5,4.9-1.4c1.2-1.1,1.8-3.1,1.8-6V54.1z"/>
	<path class="st0" d="M1251.8,117h-14.1l-10.1-26.7l-4.5,10.4V117h-13.1V33.6h13.1v33.9l14.5-33.9h14.2L1235,73.1L1251.8,117z"/>
	<path class="st0" d="M1323.2,103.8h-15l-2.4,13.2h-13.4l16.7-83.5h13.1l16.7,83.5h-13.4L1323.2,103.8z M1320.9,90.7l-5.2-29.9
		l-5.2,29.9H1320.9z"/>
	<path class="st0" d="M1394.1,117h-13.4l-6.8-33.5h-6V117h-13.1V33.6h19.8c5.6,0,10.3,1.7,13.8,5c4,3.7,6,8.8,6,15.5V63
		c0,6.8-2,12-6,15.6c-0.6,0.6-1.2,1.1-1.9,1.6L1394.1,117z M1381.4,54.1c0-2.8-0.6-4.8-1.8-6c-1-1-2.7-1.4-4.9-1.4h-6.7v23.7h6.7
		c2.2,0,3.9-0.5,4.9-1.4c1.2-1.1,1.8-3.1,1.8-6V54.1z"/>
	<path class="st0" d="M1005.7,228c-5.7,0-10.3-1.6-13.8-4.9c-4-3.8-6-9-6-15.6v-10.9H999v10.9c0,2.9,0.6,4.8,1.8,6
		c1,1,2.7,1.4,4.9,1.4c2.3,0,3.9-0.5,4.9-1.4c1.2-1,1.8-3,1.8-6v-5.2c0-3.7-1.5-6.8-4.4-9.5c-0.6-0.6-2.3-1.6-5-3.1
		c-3.7-2-6.5-3.7-8.2-5.2c-2.9-2.5-5-5.4-6.6-8.7c-1.5-3.3-2.3-6.8-2.3-10.5v-2c0-6.6,2-11.8,6-15.6c3.5-3.3,8.1-4.9,13.8-4.9
		c5.7,0,10.3,1.6,13.8,4.9c4,3.8,6,9,6,15.6v7.3h-13.1v-7.3c0-2.9-0.6-4.9-1.8-6c-1-1-2.6-1.4-4.9-1.4c-2.2,0-3.9,0.5-4.9,1.4
		c-1.2,1.1-1.8,3.1-1.8,6v2c0,3.7,1.5,6.8,4.4,9.4c0.8,0.6,2.3,1.6,4.7,2.9c4.1,2.2,7,4.1,8.6,5.5c5.9,5.2,8.8,11.7,8.8,19.3v5.2
		c0,6.6-2,11.8-6,15.6C1016,226.3,1011.4,228,1005.7,228z"/>
	<path class="st0" d="M1078.9,156.7h-13.4V227h-13.1v-70.3h-13.4v-13.1h39.8V156.7z"/>
	<path class="st0" d="M1113.5,228c-5.7,0-10.3-1.6-13.8-4.9c-4-3.8-6-9-6-15.6v-63.9h13.1v63.9c0,2.9,0.6,4.9,1.7,6
		c1,1,2.7,1.4,5,1.4c2.2,0,3.9-0.5,4.9-1.4c1.2-1.1,1.8-3.1,1.8-6v-63.9h13.1v63.9c0,6.4-2,11.6-6,15.6
		C1123.6,226.3,1119,228,1113.5,228z"/>
	<path class="st0" d="M1171.5,227h-19.8v-83.5h19.8c5.6,0,10.3,1.7,13.8,5c4,3.7,6,8.8,6,15.5V207c0,3.3-0.5,6.2-1.4,8.7
		c-1.1,2.7-2.7,4.9-4.6,6.7C1181.8,225.5,1177.2,227,1171.5,227z M1164.8,213.9h6.7c2.4,0,4.1-0.4,5-1.3c1.1-1,1.7-2.8,1.7-5.6
		v-42.9c0-2.8-0.6-4.8-1.8-6c-1-1-2.7-1.4-4.9-1.4h-6.7V213.9z"/>
	<path class="st0" d="M1222.4,227h-13.1v-83.5h13.1V227z"/>
	<path class="st0" d="M1260.2,228c-5.7,0-10.3-1.6-13.8-4.9c-4-3.8-6-9-6-15.6v-44.4c0-6.6,2-11.8,6-15.6c3.5-3.3,8.1-4.9,13.8-4.9
		c5.7,0,10.3,1.6,13.8,4.9c4,3.8,6,9,6,15.6v44.4c0,6.6-2,11.8-6,15.6C1270.6,226.3,1266,228,1260.2,228z M1260.2,155.7
		c-2.2,0-3.9,0.5-4.9,1.4c-1.2,1.1-1.8,3.1-1.8,6v44.4c0,2.9,0.6,4.8,1.8,6c1,1,2.7,1.4,4.9,1.4c2.3,0,3.9-0.5,4.9-1.4
		c1.2-1,1.8-3,1.8-6v-44.4c0-2.9-0.6-4.9-1.8-6C1264.2,156.2,1262.5,155.7,1260.2,155.7z"/>
	<path class="st0" d="M1015.3,323.8h-15l-2.4,13.2h-13.4l16.7-83.5h13.1l16.7,83.5h-13.4L1015.3,323.8z M1013.1,310.7l-5.2-29.9
		l-5.2,29.9H1013.1z"/>
	<path class="st0" d="M1064.9,338c-5.7,0-10.3-1.6-13.8-4.9c-4-3.8-6-9-6-15.6v-10.9h13.1v10.9c0,2.9,0.6,4.8,1.8,6
		c1,1,2.7,1.4,4.9,1.4c2.3,0,3.9-0.5,4.9-1.4c1.2-1,1.8-3,1.8-6v-5.2c0-3.7-1.5-6.8-4.4-9.5c-0.6-0.6-2.3-1.6-5-3.1
		c-3.7-2-6.5-3.7-8.2-5.2c-2.9-2.5-5-5.4-6.6-8.7c-1.5-3.3-2.3-6.8-2.3-10.5v-2c0-6.6,2-11.8,6-15.6c3.5-3.3,8.1-4.9,13.8-4.9
		c5.7,0,10.3,1.6,13.8,4.9c4,3.8,6,9,6,15.6v7.3h-13.1v-7.3c0-2.9-0.6-4.9-1.8-6c-1-1-2.6-1.4-4.9-1.4c-2.2,0-3.9,0.5-4.9,1.4
		c-1.2,1.1-1.8,3.1-1.8,6v2c0,3.7,1.5,6.8,4.4,9.4c0.8,0.6,2.3,1.6,4.7,2.9c4.1,2.2,7,4.1,8.6,5.5c5.9,5.2,8.8,11.7,8.8,19.3v5.2
		c0,6.6-2,11.8-6,15.6C1075.3,336.3,1070.7,338,1064.9,338z"/>
	<path class="st0" d="M1119.8,338c-5.7,0-10.3-1.6-13.8-4.9c-4-3.8-6-9-6-15.6v-10.9h13.1v10.9c0,2.9,0.6,4.8,1.8,6
		c1,1,2.7,1.4,4.9,1.4c2.3,0,3.9-0.5,4.9-1.4c1.2-1,1.8-3,1.8-6v-5.2c0-3.7-1.5-6.8-4.4-9.5c-0.6-0.6-2.3-1.6-5-3.1
		c-3.7-2-6.5-3.7-8.2-5.2c-2.9-2.5-5-5.4-6.6-8.7c-1.5-3.3-2.3-6.8-2.3-10.5v-2c0-6.6,2-11.8,6-15.6c3.5-3.3,8.1-4.9,13.8-4.9
		c5.7,0,10.3,1.6,13.8,4.9c4,3.8,6,9,6,15.6v7.3h-13.1v-7.3c0-2.9-0.6-4.9-1.8-6c-1-1-2.6-1.4-4.9-1.4c-2.2,0-3.9,0.5-4.9,1.4
		c-1.2,1.1-1.8,3.1-1.8,6v2c0,3.7,1.5,6.8,4.4,9.4c0.8,0.6,2.3,1.6,4.7,2.9c4.1,2.2,7,4.1,8.6,5.5c5.9,5.2,8.8,11.7,8.8,19.3v5.2
		c0,6.6-2,11.8-6,15.6C1130.1,336.3,1125.5,338,1119.8,338z"/>
	<path class="st0" d="M1169.9,266.7v21h14.8v13.1h-14.8v23.1h21.5V337h-34.6v-83.5h34.6v13.1H1169.9z"/>
	<path class="st0" d="M1245.2,266.7h-13.4V337h-13.1v-70.3h-13.4v-13.1h39.8V266.7z"/>
</g>
</svg>
