<?xml version="1.0" encoding="utf-8"?>
<!-- Generator: Adobe Illustrator 26.0.1, SVG Export Plug-In . SVG Version: 6.00 Build 0)  -->
<svg version="1.1" id="Layer_1" xmlns="http://www.w3.org/2000/svg" xmlns:xlink="http://www.w3.org/1999/xlink" x="0px" y="0px"
	 viewBox="0 0 1920 920" style="enable-background:new 0 0 1920 920;" xml:space="preserve">
<style type="text/css">
	.st0{fill:#20232C;}
	.st1{fill:#2B2D39;}
	.st2{fill:#E56C3D;}
	.st3{fill:#E2E2E2;}
	.st4{fill:#E8E8E8;}
</style>
<rect class="st0" width="960" height="920"/>
<rect x="960" class="st1" width="960" height="920"/>
<rect x="961" y="74.3" class="st2" width="466" height="75"/>
<path class="st2" d="M959.9,238h40.3c13.2,0,23.9,10.7,23.9,23.9l0,0c0,13.2-10.7,23.9-23.9,23.9h-40.3L959.9,238L959.9,238z"/>
<path class="st2" d="M959.9,358h40.3c13.2,0,23.9,10.7,23.9,23.9l0,0c0,13.2-10.7,23.9-23.9,23.9h-40.3L959.9,358L959.9,358z"/>
<path class="st2" d="M959.9,473.4h40.3c13.2,0,23.9,10.7,23.9,23.9l0,0c0,13.2-10.7,23.9-23.9,23.9h-40.3L959.9,473.4L959.9,473.4z"
	/>
<g>
	<path class="st3" d="M44.9,102.3c-0.7,0-1.3-0.2-1.7-0.6s-0.7-0.9-0.7-1.6c0-0.6,0.2-1.2,0.7-1.6s1-0.6,1.7-0.6s1.3,0.2,1.7,0.6
		s0.7,0.9,0.7,1.6c0,0.6-0.2,1.2-0.7,1.6C46.2,102.1,45.6,102.3,44.9,102.3z M43,119.5v-14.9h3.8v14.9H43z"/>
	<path class="st3" d="M53.2,119.5v-14.9h3.4l0.4,2.8c0.5-1,1.3-1.7,2.2-2.3c0.9-0.6,2-0.9,3.3-0.9v4.1h-1.1c-0.8,0-1.6,0.1-2.2,0.4
		c-0.7,0.3-1.2,0.7-1.5,1.3c-0.4,0.6-0.6,1.5-0.6,2.7v6.8H53.2z"/>
	<path class="st3" d="M68.2,119.5v-11.7h-2v-3.2h2v-1.7c0-1.8,0.5-3.1,1.4-3.8c0.9-0.8,2.1-1.1,3.7-1.1h1.6v3.3h-1
		c-0.7,0-1.1,0.1-1.4,0.4s-0.4,0.7-0.4,1.3v1.7h3.2v3.2H72v11.7h-3.8V119.5z"/>
	<path class="st3" d="M85.2,119.9c-1.3,0-2.3-0.2-3.1-0.6c-0.8-0.4-1.4-1-1.8-1.6c-0.4-0.7-0.6-1.4-0.6-2.2c0-1.4,0.5-2.5,1.6-3.4
		s2.7-1.3,4.9-1.3H90v-0.4c0-1-0.3-1.8-0.9-2.2c-0.6-0.5-1.3-0.7-2.2-0.7c-0.8,0-1.5,0.2-2,0.6s-0.9,0.9-1.1,1.6H80
		c0.1-1.1,0.5-2,1.1-2.8s1.4-1.4,2.4-1.8s2.1-0.6,3.4-0.6c2.1,0,3.8,0.5,5,1.6s1.8,2.6,1.8,4.5v9.1h-3.3l-0.4-2.4
		c-0.4,0.8-1.1,1.5-1.8,2C87.5,119.6,86.5,119.9,85.2,119.9z M86.1,116.9c1.1,0,2-0.4,2.6-1.1s1-1.6,1.2-2.7h-3.3
		c-1,0-1.8,0.2-2.2,0.6s-0.7,0.8-0.7,1.4s0.2,1,0.7,1.4C84.8,116.7,85.4,116.9,86.1,116.9z"/>
	<path class="st3" d="M99.8,119.5v-14.9h3.4l0.3,2.5c0.5-0.9,1.1-1.6,2-2.1s1.9-0.8,3.1-0.8c1.8,0,3.3,0.6,4.3,1.7
		c1,1.2,1.5,2.9,1.5,5.1v8.4h-3.8v-8c0-1.3-0.3-2.3-0.8-2.9c-0.5-0.7-1.3-1-2.4-1s-2,0.4-2.7,1.1c-0.7,0.8-1,1.8-1,3.2v7.7
		L99.8,119.5L99.8,119.5z"/>
	<path class="st2" d="M120.4,119.5V97.9h3.8v21.6H120.4z"/>
	<path class="st2" d="M137.8,119.9c-1.5,0-2.8-0.3-4-1c-1.2-0.6-2.1-1.5-2.7-2.7c-0.7-1.2-1-2.5-1-4s0.3-2.9,1-4.1
		c0.6-1.2,1.5-2.1,2.7-2.8c1.1-0.7,2.5-1,4.1-1c1.5,0,2.7,0.3,3.9,1c1.1,0.6,2,1.5,2.6,2.6s0.9,2.3,0.9,3.7c0,0.2,0,0.5,0,0.7
		s0,0.5,0,0.8H134c0.1,1.2,0.5,2.1,1.2,2.7c0.7,0.7,1.6,1,2.7,1c0.8,0,1.4-0.2,2-0.5c0.5-0.3,0.9-0.8,1.2-1.4h3.9
		c-0.3,0.9-0.7,1.8-1.4,2.6c-0.7,0.8-1.5,1.4-2.4,1.8C140.1,119.7,139,119.9,137.8,119.9z M137.9,107.4c-0.9,0-1.8,0.3-2.5,0.8
		s-1.2,1.3-1.4,2.4h7.4c-0.1-1-0.4-1.8-1.1-2.3S138.8,107.4,137.9,107.4z"/>
	<path class="st2" d="M157.1,119.9c-1.3,0-2.5-0.2-3.5-0.6s-1.8-1-2.4-1.8c-0.6-0.8-1-1.6-1.1-2.6h3.9c0.1,0.6,0.4,1.1,1,1.5
		c0.5,0.4,1.2,0.6,2.1,0.6s1.5-0.2,1.8-0.5c0.4-0.3,0.6-0.7,0.6-1.2c0-0.6-0.3-1.1-0.8-1.3c-0.6-0.2-1.3-0.5-2.3-0.7
		c-0.6-0.1-1.3-0.3-2-0.5s-1.3-0.5-1.8-0.8c-0.6-0.3-1-0.7-1.3-1.2s-0.5-1.1-0.5-1.8c0-1.3,0.5-2.4,1.6-3.3s2.5-1.4,4.4-1.4
		c1.8,0,3.2,0.4,4.2,1.2s1.7,1.9,1.9,3.4h-3.6c-0.2-1.1-1.1-1.6-2.5-1.6c-0.7,0-1.3,0.1-1.7,0.4s-0.6,0.6-0.6,1.1
		c0,0.4,0.3,0.8,0.9,1c0.6,0.3,1.4,0.5,2.3,0.7c1,0.2,2,0.5,2.9,0.8s1.6,0.7,2.1,1.3c0.5,0.6,0.8,1.4,0.8,2.4c0,0.9-0.2,1.8-0.7,2.5
		s-1.2,1.3-2.2,1.7C159.5,119.7,158.4,119.9,157.1,119.9z"/>
	<path class="st2" d="M169.1,119.5v-14.9h3.4l0.3,2.5c0.5-0.9,1.1-1.6,2-2.1s1.9-0.8,3.1-0.8c1.8,0,3.3,0.6,4.3,1.7
		c1,1.2,1.5,2.9,1.5,5.1v8.4h-3.8v-8c0-1.3-0.3-2.3-0.8-2.9c-0.5-0.7-1.3-1-2.4-1c-1.1,0-2,0.4-2.7,1.1c-0.7,0.8-1,1.8-1,3.2v7.7
		L169.1,119.5L169.1,119.5z"/>
	<path class="st2" d="M194.9,119.9c-1.3,0-2.3-0.2-3.1-0.6s-1.4-1-1.8-1.6c-0.4-0.7-0.6-1.4-0.6-2.2c0-1.4,0.5-2.5,1.6-3.4
		s2.7-1.3,4.9-1.3h3.8v-0.4c0-1-0.3-1.8-0.9-2.2c-0.6-0.5-1.3-0.7-2.2-0.7c-0.8,0-1.5,0.2-2,0.6s-0.9,0.9-1.1,1.6h-3.8
		c0.1-1.1,0.5-2,1.1-2.8s1.4-1.4,2.4-1.8s2.1-0.6,3.4-0.6c2.1,0,3.8,0.5,5,1.6s1.8,2.6,1.8,4.5v9.1h-3.3l-0.4-2.4
		c-0.4,0.8-1.1,1.5-1.8,2C197.1,119.6,196.1,119.9,194.9,119.9z M195.7,116.9c1.1,0,2-0.4,2.6-1.1s1-1.6,1.2-2.7h-3.3
		c-1,0-1.8,0.2-2.2,0.6s-0.7,0.8-0.7,1.4s0.2,1,0.7,1.4C194.4,116.7,195,116.9,195.7,116.9z"/>
	<path class="st2" d="M209.4,119.5v-14.9h3.4l0.4,2.8c0.5-1,1.3-1.7,2.2-2.3c0.9-0.6,2-0.9,3.3-0.9v4.1h-1.1c-0.8,0-1.6,0.1-2.2,0.4
		c-0.7,0.3-1.2,0.7-1.5,1.3c-0.4,0.6-0.6,1.5-0.6,2.7v6.8H209.4z"/>
</g>
<g>
	<path class="st4" d="M1088.2,173.9c-3.4,0-6.2-0.4-8.3-1.3c-2.1-0.9-3.7-2.3-4.7-4.3s-1.6-4.5-1.7-7.7c-0.1-2.3-0.1-4.9-0.2-7.6
		c0-2.7-0.1-5.5-0.1-8.4s0-5.6,0.1-8.4c0-2.7,0.1-5.2,0.2-7.5c0.1-3.3,0.7-5.9,1.7-8c1-2,2.6-3.5,4.7-4.4s4.9-1.4,8.3-1.4
		c5,0,8.6,1,10.8,3.1c2.2,2,3.5,5.4,3.8,10.2c0.1,1.3,0.1,2.7,0.1,4.3s0,3-0.1,4.3h-9.5c0.1-1.7,0.1-3.3,0.1-4.8s0-3.1-0.1-4.8
		c-0.1-1.6-0.5-2.7-1.3-3.4c-0.8-0.7-2-1-3.8-1s-3.1,0.3-3.9,1s-1.2,1.8-1.3,3.4c-0.1,2.8-0.2,5.7-0.3,8.5c-0.1,2.9-0.1,5.8-0.1,8.7
		s0,5.8,0.1,8.7s0.2,5.7,0.3,8.5c0.1,1.6,0.5,2.8,1.3,3.4c0.8,0.7,2.1,1,3.9,1c1.9,0,3.3-0.3,4.1-1c0.8-0.7,1.3-1.8,1.4-3.4
		c0-0.7,0.1-1.5,0.1-2.4s0-1.7,0-2.6c0-0.9,0-1.6-0.1-2.4h-4.4v-8.3h13.7c0.1,2.4,0.1,4.8,0.1,7.4c0,2.5-0.1,4.9-0.2,7.1
		c-0.2,4.8-1.4,8.2-3.7,10.2C1096.9,172.9,1093.3,173.9,1088.2,173.9z"/>
	<path class="st4" d="M1112.6,173.3v-43.2h9.8v5.1h1.8c0.3-2,1.1-3.4,2.2-4.2s2.6-1.2,4.4-1.2c0.6,0,1.2,0,1.7,0.1
		c0.6,0,1.1,0.1,1.5,0.1v7.3h-3.1c-2.4,0-4.4,0.3-5.8,1s-2.3,1.9-2.7,3.7v31.3L1112.6,173.3L1112.6,173.3z"/>
	<path class="st4" d="M1148.9,173.8c-3.2,0-5.6-0.8-7.2-2.3s-2.5-4.1-2.8-7.7c0-0.5,0-1,0-1.6s0-1.2,0-1.6c0.1-1.9,0.6-3.5,1.3-4.9
		c0.7-1.4,1.9-2.6,3.4-3.7c1.6-1.1,3.6-2.1,6.3-3c1.3-0.5,2.7-0.9,3.9-1.3c1.3-0.4,2.7-0.8,4.3-1.2v-6.1c0-1.4-0.3-2.4-1-3
		s-1.8-0.9-3.3-0.9c-1.3,0-2.4,0.3-3.1,0.8s-1.1,1.4-1.2,2.7c0,0.4,0,1-0.1,2c0,0.9,0,1.8,0,2.7s0,1.4,0.1,1.6h-9.2
		c0-0.5,0-1.2-0.1-2.2c0-1,0-2,0-3c0.1-2.7,0.6-4.9,1.5-6.6c0.9-1.7,2.3-3,4.3-3.8s4.6-1.2,8-1.2s6.1,0.4,8.1,1.3
		c1.9,0.9,3.3,2.3,4.1,4.3c0.8,1.9,1.2,4.5,1.2,7.6l-0.1,30.7h-9.5v-4.5h-1.4c-0.8,1.7-1.8,3-2.8,3.8
		C1152.5,173.4,1151,173.8,1148.9,173.8z M1152.7,167c1.2,0,2.2-0.3,3.1-0.9c0.9-0.6,1.7-1.4,2.2-2.4l0.1-10.8
		c-1,0.2-1.9,0.5-2.9,0.8s-2,0.7-2.9,1.1c-1.5,0.7-2.5,1.5-3,2.5s-0.7,2.1-0.8,3.2c0,0.6,0,1.1,0,1.4s0,0.7,0,1.2
		c0.1,1.2,0.5,2.1,1.2,2.8C1150.4,166.6,1151.4,167,1152.7,167z"/>
	<path class="st4" d="M1177.6,187.7v-57.6h9.7v4.5h1.4c1-1.7,2.1-3,3.2-3.9c1.2-0.9,2.9-1.3,5.2-1.3c3,0,5.4,0.9,7,2.6
		c1.6,1.8,2.6,4.7,2.8,8.8c0,1.3,0.1,2.9,0.1,4.8s0.1,4,0.1,6.1s0,4.2-0.1,6.1c0,1.9-0.1,3.5-0.1,4.7c-0.2,4.1-1.2,7-3,8.7
		c-1.8,1.8-4.2,2.7-7.3,2.7c-1.7,0-3.2-0.4-4.4-1.2c-1.2-0.8-2.4-2.1-3.5-4h-1.4v18.9L1177.6,187.7L1177.6,187.7z M1192.8,167
		c1.3,0,2.4-0.3,3.2-0.9c0.8-0.6,1.2-1.5,1.2-2.8c0.1-2,0.2-4,0.3-6c0-2,0.1-4,0.1-6.1c0-2,0-4-0.1-6c0-1.9-0.1-3.8-0.3-5.6
		c0-1.1-0.4-2-1-2.5c-0.6-0.6-1.6-0.8-2.8-0.8c-1.2,0-2.4,0.3-3.6,0.9c-1.2,0.6-2,1.4-2.5,2.5v23.8c0.6,1.2,1.3,2.1,2.2,2.6
		C1190.3,166.7,1191.5,167,1192.8,167z"/>
	<path class="st4" d="M1216.5,173.3v-57.6h9.7v18.9h1.7c1-1.7,2.1-3,3.3-3.9c1.2-0.9,2.9-1.3,5.2-1.3c3.1,0,5.4,0.9,7,2.6
		c1.6,1.8,2.4,4.7,2.4,8.8l0.1,32.5h-9.7l-0.1-33.3c0-1.2-0.3-2.1-0.9-2.7c-0.6-0.6-1.6-0.9-2.9-0.9s-2.5,0.3-3.7,0.9
		c-1.2,0.6-2,1.4-2.5,2.5v33.5L1216.5,173.3L1216.5,173.3z"/>
	<path class="st4" d="M1255.9,123.2v-7.5h10v7.5H1255.9z M1256.1,173.3v-43.2h9.5v43.2H1256.1z"/>
	<path class="st4" d="M1293.6,146.3c0-0.6,0-1.2,0.1-2c0-0.8,0-1.6,0-2.3c0-0.8,0-1.4-0.1-1.9c0-1.2-0.4-2.1-1-2.6s-1.7-0.9-3.3-0.9
		c-1.6,0-2.7,0.3-3.3,0.8c-0.6,0.5-1,1.4-1,2.7c-0.1,2.2-0.1,4.3-0.1,6.2s0,3.8,0,5.5s0,3.6,0,5.4c0,1.8,0.1,3.8,0.1,5.9
		c0,1.3,0.4,2.3,1.1,2.9c0.7,0.6,1.8,0.9,3.4,0.9s2.6-0.3,3.2-0.9c0.6-0.6,0.9-1.6,0.9-2.9c0-0.8,0.1-1.6,0.1-2.6
		c0-0.9,0-2.1-0.1-3.5h9.5c0,0.4,0.1,1.2,0.1,2.2c0,1.1,0,2,0,2.8c-0.2,4.2-1.3,7.3-3.5,9.2c-2.1,1.9-5.5,2.8-10.2,2.8
		c-4.9,0-8.5-0.9-10.6-2.8c-2.1-1.9-3.3-4.9-3.5-9.1c-0.1-1.3-0.1-2.9-0.1-4.7c0-1.9,0-3.8,0-5.8s0-3.9,0.1-5.7
		c0-1.8,0.1-3.2,0.1-4.2c0.3-4.3,1.5-7.4,3.7-9.3c2.2-1.9,5.6-2.8,10.3-2.8c4.8,0,8.2,0.9,10.3,2.7c2.1,1.8,3.3,4.8,3.5,9
		c0,0.8,0.1,1.8,0,2.9c0,1.1-0.1,1.9-0.1,2.2L1293.6,146.3L1293.6,146.3z"/>
	<path class="st4" d="M1331.4,173.3v-57.6h14.2c5,0,8.6,1,10.9,3.1c2.2,2.1,3.4,5.5,3.5,10.3c0.1,3.6,0.1,7.1,0.1,10.4
		c0,3.3,0,6.6,0,9.8c0,3.3-0.1,6.7-0.1,10.4c-0.1,4.8-1.2,8.3-3.4,10.4s-5.8,3.1-10.8,3.1h-14.4V173.3z M1341,164.8h4.8
		c1.6,0,2.7-0.3,3.5-1s1.2-1.7,1.2-3c0.1-2.9,0.1-5.6,0.2-8.4c0-2.7,0.1-5.4,0.1-8.1s0-5.4-0.1-8.1c0-2.7-0.1-5.5-0.2-8.3
		c0-1.3-0.4-2.3-1.2-3c-0.8-0.7-2-1-3.6-1h-4.7L1341,164.8L1341,164.8z"/>
	<path class="st4" d="M1383.5,173.9c-4.9,0-8.5-0.9-10.6-2.8c-2.1-1.9-3.3-4.9-3.5-9.1c-0.1-1.3-0.1-2.8-0.1-4.7s0-3.8,0-5.8
		s0-3.9,0.1-5.7c0-1.8,0.1-3.2,0.1-4.2c0.3-4.3,1.5-7.4,3.7-9.3c2.2-1.9,5.6-2.8,10.3-2.8c4.7,0,8.2,0.9,10.3,2.8s3.3,4.8,3.5,8.9
		c0,0.6,0,1.6,0.1,2.9c0,1.4,0,2.9,0,4.6c0,1.7-0.1,3.2-0.1,4.7h-18.2c0,1.6,0,3.1,0.1,4.7c0,1.6,0.1,3.3,0.1,5
		c0,1.3,0.4,2.3,1.1,2.9c0.7,0.6,1.8,0.9,3.3,0.9s2.6-0.3,3.1-0.9c0.6-0.6,0.9-1.6,1-3c0-0.7,0.1-1.6,0.1-2.5s0-2.1-0.1-3.5h9.5
		c0,0.4,0.1,1.2,0.1,2.2c0,1.1,0,2,0,2.8c-0.2,4.3-1.4,7.3-3.5,9.2C1391.6,173,1388.2,173.9,1383.5,173.9z M1378.9,146.6h8.8
		c0-0.9,0-1.9,0-2.8c0-0.9,0-1.7,0-2.4s0-1.1-0.1-1.4c-0.1-1.3-0.4-2.2-1.1-2.7c-0.6-0.5-1.7-0.8-3.2-0.8c-1.6,0-2.7,0.3-3.3,0.8
		c-0.6,0.6-1,1.5-1,2.7c0,1.1-0.1,2.2-0.1,3.3C1378.9,144.5,1378.9,145.6,1378.9,146.6z"/>
	<path class="st4" d="M1418.4,173.9c-4.6,0-7.8-0.9-9.8-2.8c-1.9-1.9-3-4.9-3.2-9.2c0-1,0-1.8,0-2.6s0-1.4,0.1-1.9h8.5
		c-0.1,1.4-0.1,2.5-0.1,3.4c0,0.8,0,1.6,0.1,2.2c0.1,1.4,0.5,2.4,1.2,2.9c0.7,0.6,1.8,0.8,3.2,0.8c1.7,0,2.9-0.3,3.7-0.9
		c0.8-0.6,1.2-1.6,1.2-3c0-0.6,0-1,0-1.2s0-0.4,0-0.6c0-0.2,0-0.6,0-1.1c0-1-0.2-1.7-0.6-2.3s-1.2-1-2.2-1.3l-5-1.3
		c-2.2-0.6-4.1-1.4-5.6-2.3c-1.5-0.9-2.7-2.1-3.4-3.5c-0.8-1.4-1.2-3.2-1.2-5.3c0-0.5,0-0.9,0-1.3s0-0.8,0-1.2
		c0-4.3,1.1-7.4,3.1-9.3c2.1-1.9,5.6-2.8,10.6-2.8c4.6,0,7.8,0.9,9.8,2.7s3,4.8,3.2,9c0,0.5,0,1.3,0,2.4c0,1.1-0.1,1.8-0.1,2.2h-8.8
		c0-0.6,0-1.2,0.1-1.9c0-0.7,0-1.4,0-2.1c0-0.7,0-1.2-0.1-1.6c0-1.3-0.4-2.2-1-2.7s-1.6-0.8-3.1-0.8c-1.6,0-2.6,0.3-3.3,0.8
		c-0.6,0.5-0.9,1.4-1,2.7c0,0.2,0,0.5,0,0.9c0,0.5,0,1.2,0,2.2c0,1.2,0.2,2.1,0.6,2.8s1.3,1.2,2.5,1.5l4.5,1c3.4,0.8,5.9,2,7.6,3.7
		s2.5,4.1,2.5,7.4c0,0.5,0,0.9,0,1.3c0,0.4,0,0.9,0,1.4c0,4.2-1.1,7.1-3.2,9C1426.9,173,1423.3,173.9,1418.4,173.9z"/>
	<path class="st4" d="M1440.9,123.2v-7.5h10v7.5H1440.9z M1441.1,173.3v-43.2h9.5v43.2H1441.1z"/>
	<path class="st4" d="M1473.7,187.2c-3.8,0-6.8-0.6-9.1-1.7c-2.3-1.1-3.6-2.7-4.1-4.8c0-0.3-0.1-0.7-0.1-1.2s0-0.9,0-1.2
		c0.2-1.3,0.7-2.3,1.5-3.1s1.9-1.3,3.3-1.5v-1.4c-1.3-0.3-2.4-0.7-3.1-1.4s-1.2-1.6-1.4-2.7c-0.1-0.5-0.1-0.8-0.1-1.1s0-0.6,0.1-1
		c0.1-1,0.6-1.9,1.6-2.5c0.9-0.6,2.1-1.1,3.6-1.3v-1.4c-1.9-0.9-3.4-2.2-4.3-3.9c-0.9-1.8-1.5-4-1.7-6.8c0-0.8,0-1.5-0.1-2.3
		c0-0.8,0-1.5,0-2.3c0-0.7,0-1.5,0-2.1c0-0.7,0-1.3,0.1-1.9c0.2-2.9,0.8-5.2,1.9-7c1-1.8,2.5-3.1,4.6-3.9c2-0.8,4.6-1.2,7.8-1.2
		c3.1,0,5.7,0.4,7.7,1.2s3.5,2,4.5,3.7h1.4c0.2-1.4,0.7-2.5,1.6-3.1c0.9-0.7,2.2-1,4-1v7.2h-1c-1.2,0-2.2,0.3-2.9,0.9
		c-0.7,0.6-1,1.6-1,3.1v1.9c0,0.4,0,0.8,0,1.4c0,0.5,0,1.1,0,1.7c0,0.6,0,1.3,0,1.9c0,0.6,0,1.3-0.1,1.9c-0.2,2.9-0.8,5.2-1.8,7
		s-2.5,3.1-4.5,3.9c-2,0.8-4.6,1.2-7.8,1.2c-2.2,0-3.8,0.1-4.8,0.5c-1,0.3-1.5,0.9-1.5,1.7v0.3c0,0.5,0.2,0.9,0.5,1.2
		s0.9,0.5,1.8,0.6s2.2,0.2,4,0.3c4.8,0.1,8.5,0.8,10.8,2.2c2.4,1.4,3.8,3.5,4.3,6.4c0.1,0.4,0.1,0.9,0.1,1.4c0,0.6,0,1.1-0.1,1.7
		c-0.3,2.1-1,3.8-2.2,5.1s-2.9,2.2-5.1,2.8C1479.6,186.9,1476.9,187.2,1473.7,187.2z M1474.3,180.7c1.4,0,2.6-0.1,3.6-0.3
		s1.8-0.5,2.4-0.9s1-1,1.2-1.6c0.1-0.4,0.2-0.7,0.1-1.1c0-0.3-0.1-0.7-0.2-1c-0.2-0.6-0.6-1.1-1.2-1.5s-1.4-0.7-2.4-0.9
		s-2.2-0.3-3.6-0.3c-1.8,0-3.3,0.2-4.4,0.6c-1.1,0.4-1.8,1.1-2.1,2.1c-0.1,0.4-0.1,0.7-0.1,1.1c0,0.3,0,0.7,0.1,1
		c0.2,0.6,0.5,1.2,1.1,1.6c0.6,0.4,1.3,0.7,2.2,0.9C1472,180.6,1473.1,180.7,1474.3,180.7z M1474.1,155.1c1.5,0,2.6-0.3,3.4-1
		c0.8-0.6,1.3-1.5,1.4-2.7c0-0.8,0.1-1.6,0.1-2.6c0-0.9,0-1.9,0-2.9s0-2,0-3s-0.1-1.9-0.1-2.8c-0.1-1.2-0.5-2.1-1.3-2.7
		c-0.8-0.6-1.9-0.9-3.5-0.9s-2.8,0.3-3.6,1c-0.8,0.6-1.3,1.6-1.3,2.9c0,0.8-0.1,1.7-0.1,2.7s-0.1,1.9-0.1,2.9s0,1.9,0,2.8
		c0,0.9,0.1,1.7,0.1,2.5c0.1,1.3,0.5,2.3,1.3,2.9C1471.4,154.8,1472.5,155.1,1474.1,155.1z"/>
	<path class="st4" d="M1500.1,173.3v-43.2h9.5v4.5h1.9c1-1.7,2.1-3,3.3-3.9c1.2-0.9,2.9-1.3,5.1-1.3c3.1,0,5.5,0.9,7.1,2.6
		c1.6,1.8,2.5,4.7,2.5,8.8v32.5h-9.5V140c0-1.2-0.3-2.2-1-2.7c-0.7-0.6-1.7-0.9-3-0.9c-1.2,0-2.4,0.3-3.7,0.9
		c-1.3,0.6-2.2,1.4-2.6,2.5v33.5H1500.1z"/>
	<path class="st4" d="M1553.2,173.9c-4.9,0-8.5-0.9-10.6-2.8c-2.1-1.9-3.3-4.9-3.5-9.1c-0.1-1.3-0.1-2.8-0.1-4.7s0-3.8,0-5.8
		s0-3.9,0.1-5.7c0-1.8,0.1-3.2,0.1-4.2c0.3-4.3,1.5-7.4,3.7-9.3c2.2-1.9,5.6-2.8,10.3-2.8c4.7,0,8.2,0.9,10.3,2.8s3.3,4.8,3.5,8.9
		c0,0.6,0,1.6,0.1,2.9c0,1.4,0,2.9,0,4.6c0,1.7-0.1,3.2-0.1,4.7h-18.2c0,1.6,0,3.1,0.1,4.7c0,1.6,0.1,3.3,0.1,5
		c0,1.3,0.4,2.3,1.1,2.9c0.7,0.6,1.8,0.9,3.3,0.9s2.6-0.3,3.1-0.9c0.6-0.6,0.9-1.6,1-3c0-0.7,0.1-1.6,0.1-2.5s0-2.1-0.1-3.5h9.5
		c0,0.4,0.1,1.2,0.1,2.2c0,1.1,0,2,0,2.8c-0.2,4.3-1.4,7.3-3.5,9.2C1561.3,173,1557.9,173.9,1553.2,173.9z M1548.6,146.6h8.8
		c0-0.9,0-1.9,0-2.8c0-0.9,0-1.7,0-2.4s0-1.1-0.1-1.4c-0.1-1.3-0.4-2.2-1.1-2.7c-0.6-0.5-1.7-0.8-3.2-0.8c-1.6,0-2.7,0.3-3.3,0.8
		c-0.6,0.6-1,1.5-1,2.7c0,1.1-0.1,2.2-0.1,3.3C1548.6,144.5,1548.6,145.6,1548.6,146.6z"/>
	<path class="st4" d="M1576,173.3v-43.2h9.8v5.1h1.8c0.3-2,1.1-3.4,2.2-4.2s2.6-1.2,4.4-1.2c0.6,0,1.2,0,1.7,0.1
		c0.6,0,1.1,0.1,1.5,0.1v7.3h-3.1c-2.4,0-4.4,0.3-5.8,1s-2.3,1.9-2.7,3.7v31.3L1576,173.3L1576,173.3z"/>
</g>
<g>
	<path class="st4" d="M1071.6,414.8l7.6-57.6h16.7l7.6,57.6h-9.8l-1.3-13.1h-9.8l-1.3,13.1H1071.6z M1083.5,393.3h8l-1.3-12.6
		l-1-15.1h-3.3l-1,15.1L1083.5,393.3z"/>
	<path class="st4" d="M1111.9,414.8v-57.6h13.7c4.9,0,8.5,1,10.7,3s3.4,5.3,3.5,9.9c0,1.6,0.1,3,0.1,4.2s0,2.4,0,3.6s-0.1,2.5-0.1,4
		c-0.1,2.9-0.6,5.3-1.5,7.1c-0.9,1.8-2.3,3.2-4.2,4.2l6.6,21.7h-10.1l-5.4-20.1h-3.7v20.1h-9.6V414.8z M1121.4,386.3h4.1
		c1.6,0,2.7-0.3,3.5-1s1.2-1.7,1.2-3c0.1-1.4,0.1-2.8,0.2-4.2c0-1.4,0-2.8,0-4.2c0-1.4-0.1-2.8-0.2-4.2c-0.1-1.3-0.5-2.3-1.2-3
		s-1.9-1-3.5-1h-4.1V386.3z"/>
	<path class="st4" d="M1168.6,414.8v-57.6h14.2c5,0,8.6,1,10.9,3.1c2.2,2.1,3.4,5.5,3.5,10.3c0.1,3.6,0.1,7.1,0.1,10.4s0,6.6,0,9.8
		c0,3.3-0.1,6.7-0.1,10.4c-0.1,4.8-1.2,8.3-3.4,10.4s-5.8,3.1-10.8,3.1h-14.4V414.8z M1178.2,406.4h4.8c1.6,0,2.7-0.3,3.5-1
		s1.2-1.7,1.2-3c0.1-2.9,0.1-5.6,0.2-8.4c0-2.7,0.1-5.4,0.1-8.1s0-5.4-0.1-8.1c0-2.7-0.1-5.5-0.2-8.3c0-1.3-0.4-2.3-1.2-3
		c-0.8-0.7-2-1-3.6-1h-4.7L1178.2,406.4L1178.2,406.4z"/>
	<path class="st4" d="M1220.7,415.5c-4.9,0-8.5-0.9-10.6-2.8s-3.3-4.9-3.5-9.1c-0.1-1.3-0.1-2.8-0.1-4.7c0-1.9,0-3.8,0-5.8
		s0-3.9,0.1-5.7c0-1.8,0.1-3.2,0.1-4.2c0.3-4.3,1.5-7.4,3.7-9.3s5.6-2.8,10.3-2.8c4.7,0,8.2,0.9,10.3,2.8s3.3,4.8,3.5,8.9
		c0,0.6,0,1.6,0.1,2.9c0,1.4,0,2.9,0,4.6s-0.1,3.2-0.1,4.7h-18.2c0,1.6,0,3.1,0.1,4.7c0,1.6,0.1,3.3,0.1,5c0,1.3,0.4,2.3,1.1,2.9
		s1.8,0.9,3.3,0.9s2.6-0.3,3.1-0.9c0.6-0.6,0.9-1.6,1-3c0-0.7,0.1-1.6,0.1-2.5s0-2.1-0.1-3.5h9.5c0,0.4,0.1,1.2,0.1,2.2
		c0,1.1,0,2,0,2.8c-0.2,4.3-1.4,7.3-3.5,9.2C1228.8,414.6,1225.4,415.5,1220.7,415.5z M1216.1,388.2h8.8c0-0.9,0-1.9,0-2.8
		s0-1.7,0-2.4c0-0.7,0-1.1-0.1-1.4c-0.1-1.3-0.4-2.2-1.1-2.7c-0.6-0.5-1.7-0.8-3.2-0.8c-1.6,0-2.7,0.3-3.3,0.8c-0.6,0.6-1,1.5-1,2.7
		c0,1.1-0.1,2.2-0.1,3.3C1216.1,386,1216.1,387.1,1216.1,388.2z"/>
	<path class="st4" d="M1247,414.8l-6.7-43.2h9.9l2.6,21.7l1,14.5h2.7l1-14.5l2.7-21.7h9.9l-6.8,43.2H1247z"/>
	<path class="st4" d="M1291.2,415.5c-4.9,0-8.5-0.9-10.6-2.8s-3.3-4.9-3.5-9.1c-0.1-1.3-0.1-2.8-0.1-4.7c0-1.9,0-3.8,0-5.8
		s0-3.9,0.1-5.7c0-1.8,0.1-3.2,0.1-4.2c0.3-4.3,1.5-7.4,3.7-9.3s5.6-2.8,10.3-2.8c4.7,0,8.2,0.9,10.3,2.8s3.3,4.8,3.5,8.9
		c0,0.6,0,1.6,0.1,2.9c0,1.4,0,2.9,0,4.6s-0.1,3.2-0.1,4.7h-18.2c0,1.6,0,3.1,0.1,4.7c0,1.6,0.1,3.3,0.1,5c0,1.3,0.4,2.3,1.1,2.9
		s1.8,0.9,3.3,0.9s2.6-0.3,3.1-0.9c0.6-0.6,0.9-1.6,1-3c0-0.7,0.1-1.6,0.1-2.5s0-2.1-0.1-3.5h9.5c0,0.4,0.1,1.2,0.1,2.2
		c0,1.1,0,2,0,2.8c-0.2,4.3-1.4,7.3-3.5,9.2C1299.3,414.6,1295.9,415.5,1291.2,415.5z M1286.6,388.2h8.8c0-0.9,0-1.9,0-2.8
		s0-1.7,0-2.4c0-0.7,0-1.1-0.1-1.4c-0.1-1.3-0.4-2.2-1.1-2.7c-0.6-0.5-1.7-0.8-3.2-0.8c-1.6,0-2.7,0.3-3.3,0.8c-0.6,0.6-1,1.5-1,2.7
		c0,1.1-0.1,2.2-0.1,3.3C1286.6,386,1286.6,387.1,1286.6,388.2z"/>
	<path class="st4" d="M1314,414.8v-57.6h9.5v57.6H1314z"/>
	<path class="st4" d="M1346.3,415.5c-3.4,0-6.1-0.4-8.2-1.3c-2-0.9-3.5-2.3-4.5-4.3s-1.5-4.6-1.7-7.8c0-1.1-0.1-2.4-0.1-3.9
		s0-3.2,0-4.9c0-1.7,0-3.4,0-5s0.1-2.9,0.1-4c0.2-3.3,0.8-5.9,1.7-7.8s2.5-3.4,4.5-4.2c2-0.9,4.8-1.3,8.1-1.3c3.5,0,6.2,0.5,8.2,1.4
		s3.5,2.3,4.4,4.3s1.5,4.5,1.7,7.7c0,1.1,0.1,2.4,0.1,4s0.1,3.2,0.1,4.9c0,1.7,0,3.3-0.1,4.9c0,1.6-0.1,2.9-0.1,4
		c-0.2,3.2-0.8,5.8-1.7,7.8c-0.9,2-2.4,3.4-4.4,4.3S1349.7,415.5,1346.3,415.5z M1346.3,408.3c1.7,0,2.9-0.3,3.6-1s1.1-1.6,1.1-2.9
		c0.1-2.1,0.1-4.1,0.2-6s0.1-3.7,0.1-5.5s0-3.5-0.1-5.3c0-1.8-0.1-3.7-0.2-5.7c0-1.3-0.4-2.2-1.1-2.9c-0.7-0.6-1.9-1-3.6-1
		s-2.9,0.3-3.7,1s-1.2,1.6-1.2,2.8c-0.1,1.6-0.1,3.3-0.1,5.1c0,1.8,0,3.7,0,5.6s0,3.9,0.1,5.9s0.1,4,0.2,6c0,1.3,0.4,2.2,1.2,2.9
		C1343.4,408,1344.6,408.3,1346.3,408.3z"/>
	<path class="st4" d="M1370.2,429.2v-57.6h9.7v4.5h1.4c1-1.7,2.1-3,3.2-3.9c1.2-0.9,2.9-1.3,5.2-1.3c3,0,5.4,0.9,7,2.6
		c1.6,1.8,2.6,4.7,2.8,8.8c0,1.3,0.1,2.9,0.1,4.8s0.1,4,0.1,6.1s0,4.2-0.1,6.1c0,1.9-0.1,3.5-0.1,4.7c-0.2,4.1-1.2,7-3,8.7
		c-1.8,1.8-4.2,2.7-7.3,2.7c-1.7,0-3.2-0.4-4.4-1.2c-1.2-0.8-2.4-2.1-3.5-4h-1.4v18.9L1370.2,429.2L1370.2,429.2z M1385.4,408.5
		c1.3,0,2.4-0.3,3.2-0.9c0.8-0.6,1.2-1.5,1.2-2.8c0.1-2,0.2-4,0.3-6c0-2,0.1-4,0.1-6.1c0-2,0-4-0.1-6c0-1.9-0.1-3.8-0.3-5.6
		c0-1.1-0.4-2-1-2.5c-0.6-0.6-1.6-0.8-2.8-0.8c-1.2,0-2.4,0.3-3.6,0.9s-2,1.4-2.5,2.5V405c0.6,1.2,1.3,2.1,2.2,2.6
		C1383,408.2,1384.1,408.5,1385.4,408.5z"/>
	<path class="st4" d="M1422.7,415.5c-4.9,0-8.5-0.9-10.6-2.8s-3.3-4.9-3.5-9.1c-0.1-1.3-0.1-2.8-0.1-4.7c0-1.9,0-3.8,0-5.8
		s0-3.9,0.1-5.7c0-1.8,0.1-3.2,0.1-4.2c0.3-4.3,1.5-7.4,3.7-9.3s5.6-2.8,10.3-2.8c4.7,0,8.2,0.9,10.3,2.8s3.3,4.8,3.5,8.9
		c0,0.6,0,1.6,0.1,2.9c0,1.4,0,2.9,0,4.6s-0.1,3.2-0.1,4.7H1418c0,1.6,0,3.1,0.1,4.7c0,1.6,0.1,3.3,0.1,5c0,1.3,0.4,2.3,1.1,2.9
		s1.8,0.9,3.3,0.9s2.6-0.3,3.1-0.9c0.6-0.6,0.9-1.6,1-3c0-0.7,0.1-1.6,0.1-2.5s0-2.1-0.1-3.5h9.5c0,0.4,0.1,1.2,0.1,2.2
		c0,1.1,0,2,0,2.8c-0.2,4.3-1.4,7.3-3.5,9.2C1430.7,414.6,1427.3,415.5,1422.7,415.5z M1418.1,388.2h8.8c0-0.9,0-1.9,0-2.8
		s0-1.7,0-2.4c0-0.7,0-1.1-0.1-1.4c-0.1-1.3-0.4-2.2-1.1-2.7c-0.6-0.5-1.7-0.8-3.2-0.8c-1.6,0-2.7,0.3-3.3,0.8c-0.6,0.6-1,1.5-1,2.7
		c0,1.1-0.1,2.2-0.1,3.3C1418.1,386,1418.1,387.1,1418.1,388.2z"/>
	<path class="st4" d="M1445.5,414.8v-43.2h9.8v5.1h1.8c0.3-2,1.1-3.4,2.2-4.2c1.1-0.8,2.6-1.2,4.4-1.2c0.6,0,1.2,0,1.7,0.1
		c0.6,0,1.1,0.1,1.5,0.1v7.3h-3.1c-2.4,0-4.4,0.3-5.8,1s-2.3,1.9-2.7,3.7v31.3L1445.5,414.8L1445.5,414.8z"/>
</g>
<g>
	<path class="st4" d="M1076.9,292.4l-5.1-57.6h9.6l1.7,25.2l1.2,24h3.2l0.3-24l4.4-24.8h14l4.5,24.8l0.3,24h3.2l1.2-24l1.7-25.2h9.6
		l-5.1,57.6h-17.2l-2.5-16.8l-1.1-32.4h-3.2l-1.1,32.4l-2.5,16.8H1076.9z"/>
	<path class="st4" d="M1147.4,293.1c-4.9,0-8.5-0.9-10.6-2.8s-3.3-4.9-3.5-9.1c-0.1-1.3-0.1-2.8-0.1-4.7c0-1.9,0-3.8,0-5.8
		s0-3.9,0.1-5.7c0-1.8,0.1-3.2,0.1-4.2c0.3-4.3,1.5-7.4,3.7-9.3c2.2-1.9,5.6-2.8,10.3-2.8c4.7,0,8.2,0.9,10.3,2.8s3.3,4.8,3.5,8.9
		c0,0.6,0,1.6,0.1,2.9c0,1.4,0,2.9,0,4.6s-0.1,3.2-0.1,4.7H1143c0,1.6,0,3.1,0.1,4.7c0,1.6,0.1,3.3,0.1,5c0,1.3,0.4,2.3,1.1,2.9
		s1.8,0.9,3.3,0.9s2.6-0.3,3.1-0.9c0.6-0.6,0.9-1.6,1-3c0-0.7,0.1-1.6,0.1-2.5s0-2.1-0.1-3.5h9.5c0,0.4,0.1,1.2,0.1,2.2
		c0,1.1,0,2,0,2.8c-0.2,4.3-1.4,7.3-3.5,9.2C1155.4,292.2,1152.1,293.1,1147.4,293.1z M1142.8,265.8h8.8c0-0.9,0-1.9,0-2.8
		s0-1.7,0-2.4c0-0.7,0-1.1-0.1-1.4c-0.1-1.3-0.4-2.2-1.1-2.7c-0.6-0.5-1.7-0.8-3.2-0.8c-1.6,0-2.7,0.3-3.3,0.8c-0.6,0.6-1,1.5-1,2.7
		c0,1.1-0.1,2.2-0.1,3.3C1142.8,263.7,1142.8,264.7,1142.8,265.8z"/>
	<path class="st4" d="M1189.5,293.1c-2.3,0-4-0.4-5.2-1.3s-2.2-2.2-3.3-3.9h-1.1v4.5h-9.7v-57.6h9.7v18.9h1.7c1-1.7,2.1-3,3.3-3.9
		c1.2-0.9,2.9-1.3,5.2-1.3c3,0,5.3,0.9,6.9,2.6c1.6,1.8,2.4,4.7,2.6,8.8c0,1.4,0.1,3,0.1,4.9s0.1,3.9,0.1,6s0,4.1-0.1,5.9
		c0,1.9-0.1,3.5-0.1,4.9c-0.2,4.1-1.2,7-2.9,8.7C1194.9,292.2,1192.5,293.1,1189.5,293.1z M1186,286.1c1.4,0,2.3-0.3,2.9-0.9
		s0.9-1.5,0.9-2.8c0.1-1.6,0.2-3.4,0.2-5.4c0-1.9,0.1-3.9,0.1-6s0-4.1,0-6.1s-0.1-3.9-0.2-5.7c-0.1-1.2-0.4-2.2-1-2.8
		c-0.6-0.6-1.5-1-2.9-1c-1.2,0-2.4,0.3-3.6,0.9c-1.2,0.6-2,1.4-2.5,2.5v23.8c0.5,1.1,1.3,1.9,2.5,2.5
		C1183.6,285.8,1184.8,286.1,1186,286.1z"/>
	<path class="st4" d="M1228.3,292.4v-57.6h14.2c5,0,8.6,1,10.9,3.1c2.2,2.1,3.4,5.5,3.5,10.3c0.1,3.6,0.1,7.1,0.1,10.4
		c0,3.3,0,6.6,0,9.8c0,3.3-0.1,6.7-0.1,10.4c-0.1,4.8-1.2,8.3-3.4,10.4s-5.8,3.1-10.8,3.1h-14.4V292.4z M1237.8,284h4.8
		c1.6,0,2.7-0.3,3.5-1s1.2-1.7,1.2-3c0.1-2.9,0.1-5.6,0.2-8.4c0-2.7,0.1-5.4,0.1-8.1s0-5.4-0.1-8.1c0-2.7-0.1-5.5-0.2-8.3
		c0-1.3-0.4-2.3-1.2-3c-0.8-0.7-2-1-3.6-1h-4.7L1237.8,284L1237.8,284z"/>
	<path class="st4" d="M1280.4,293.1c-4.9,0-8.5-0.9-10.6-2.8s-3.3-4.9-3.5-9.1c-0.1-1.3-0.1-2.8-0.1-4.7c0-1.9,0-3.8,0-5.8
		s0-3.9,0.1-5.7c0-1.8,0.1-3.2,0.1-4.2c0.3-4.3,1.5-7.4,3.7-9.3c2.2-1.9,5.6-2.8,10.3-2.8c4.7,0,8.2,0.9,10.3,2.8s3.3,4.8,3.5,8.9
		c0,0.6,0,1.6,0.1,2.9c0,1.4,0,2.9,0,4.6s-0.1,3.2-0.1,4.7H1276c0,1.6,0,3.1,0.1,4.7c0,1.6,0.1,3.3,0.1,5c0,1.3,0.4,2.3,1.1,2.9
		s1.8,0.9,3.3,0.9s2.6-0.3,3.1-0.9c0.6-0.6,0.9-1.6,1-3c0-0.7,0.1-1.6,0.1-2.5s0-2.1-0.1-3.5h9.5c0,0.4,0.1,1.2,0.1,2.2
		c0,1.1,0,2,0,2.8c-0.2,4.3-1.4,7.3-3.5,9.2C1288.4,292.2,1285,293.1,1280.4,293.1z M1275.8,265.8h8.8c0-0.9,0-1.9,0-2.8
		s0-1.7,0-2.4c0-0.7,0-1.1-0.1-1.4c-0.1-1.3-0.4-2.2-1.1-2.7c-0.6-0.5-1.7-0.8-3.2-0.8c-1.6,0-2.7,0.3-3.3,0.8c-0.6,0.6-1,1.5-1,2.7
		c0,1.1-0.1,2.2-0.1,3.3C1275.8,263.7,1275.8,264.7,1275.8,265.8z"/>
	<path class="st4" d="M1306.6,292.4l-6.7-43.2h9.9l2.6,21.7l1,14.5h2.7l1-14.5l2.7-21.7h9.9l-6.8,43.2H1306.6z"/>
	<path class="st4" d="M1350.8,293.1c-4.9,0-8.5-0.9-10.6-2.8s-3.3-4.9-3.5-9.1c-0.1-1.3-0.1-2.8-0.1-4.7c0-1.9,0-3.8,0-5.8
		s0-3.9,0.1-5.7c0-1.8,0.1-3.2,0.1-4.2c0.3-4.3,1.5-7.4,3.7-9.3c2.2-1.9,5.6-2.8,10.3-2.8c4.7,0,8.2,0.9,10.3,2.8s3.3,4.8,3.5,8.9
		c0,0.6,0,1.6,0.1,2.9c0,1.4,0,2.9,0,4.6s-0.1,3.2-0.1,4.7h-18.2c0,1.6,0,3.1,0.1,4.7c0,1.6,0.1,3.3,0.1,5c0,1.3,0.4,2.3,1.1,2.9
		s1.8,0.9,3.3,0.9s2.6-0.3,3.1-0.9c0.6-0.6,0.9-1.6,1-3c0-0.7,0.1-1.6,0.1-2.5s0-2.1-0.1-3.5h9.5c0,0.4,0.1,1.2,0.1,2.2
		c0,1.1,0,2,0,2.8c-0.2,4.3-1.4,7.3-3.5,9.2C1358.9,292.2,1355.5,293.1,1350.8,293.1z M1346.2,265.8h8.8c0-0.9,0-1.9,0-2.8
		s0-1.7,0-2.4c0-0.7,0-1.1-0.1-1.4c-0.1-1.3-0.4-2.2-1.1-2.7c-0.6-0.5-1.7-0.8-3.2-0.8c-1.6,0-2.7,0.3-3.3,0.8c-0.6,0.6-1,1.5-1,2.7
		c0,1.1-0.1,2.2-0.1,3.3C1346.3,263.7,1346.2,264.7,1346.2,265.8z"/>
	<path class="st4" d="M1373.7,292.4v-57.6h9.5v57.6H1373.7z"/>
	<path class="st4" d="M1405.9,293.1c-3.4,0-6.1-0.4-8.2-1.3c-2-0.9-3.5-2.3-4.5-4.3s-1.5-4.6-1.7-7.8c0-1.1-0.1-2.4-0.1-3.9
		s0-3.2,0-4.9c0-1.7,0-3.4,0-5s0.1-2.9,0.1-4c0.2-3.3,0.8-5.9,1.7-7.8s2.5-3.4,4.5-4.2c2-0.9,4.8-1.3,8.1-1.3c3.5,0,6.2,0.5,8.2,1.4
		s3.5,2.3,4.4,4.3s1.5,4.5,1.7,7.7c0,1.1,0.1,2.4,0.1,4s0.1,3.2,0.1,4.9c0,1.7,0,3.3-0.1,4.9c0,1.6-0.1,2.9-0.1,4
		c-0.2,3.2-0.8,5.8-1.7,7.8c-0.9,2-2.4,3.4-4.4,4.3S1409.4,293.1,1405.9,293.1z M1405.9,286c1.7,0,2.9-0.3,3.6-1s1.1-1.6,1.1-2.9
		c0.1-2.1,0.1-4.1,0.2-6s0.1-3.7,0.1-5.5s0-3.5-0.1-5.3c0-1.8-0.1-3.7-0.2-5.7c0-1.3-0.4-2.2-1.1-2.9c-0.7-0.6-1.9-1-3.6-1
		s-2.9,0.3-3.7,1s-1.2,1.6-1.2,2.8c-0.1,1.6-0.1,3.3-0.1,5.1c0,1.8,0,3.7,0,5.6s0,3.9,0.1,5.9s0.1,4,0.2,6c0,1.3,0.4,2.2,1.2,2.9
		C1403,285.6,1404.2,286,1405.9,286z"/>
	<path class="st4" d="M1429.9,306.8v-57.6h9.7v4.5h1.4c1-1.7,2.1-3,3.2-3.9c1.2-0.9,2.9-1.3,5.2-1.3c3,0,5.4,0.9,7,2.6
		c1.6,1.8,2.6,4.7,2.8,8.8c0,1.3,0.1,2.9,0.1,4.8s0.1,4,0.1,6.1s0,4.2-0.1,6.1c0,1.9-0.1,3.5-0.1,4.7c-0.2,4.1-1.2,7-3,8.7
		c-1.8,1.8-4.2,2.7-7.3,2.7c-1.7,0-3.2-0.4-4.4-1.2c-1.2-0.8-2.4-2.1-3.5-4h-1.4v18.9L1429.9,306.8L1429.9,306.8z M1445.1,286.1
		c1.3,0,2.4-0.3,3.2-0.9c0.8-0.6,1.2-1.5,1.2-2.8c0.1-2,0.2-4,0.3-6c0-2,0.1-4,0.1-6.1c0-2,0-4-0.1-6c0-1.9-0.1-3.8-0.3-5.6
		c0-1.1-0.4-2-1-2.5c-0.6-0.6-1.6-0.8-2.8-0.8c-1.2,0-2.4,0.3-3.6,0.9s-2,1.4-2.5,2.5v23.8c0.6,1.2,1.3,2.1,2.2,2.6
		C1442.6,285.9,1443.7,286.1,1445.1,286.1z"/>
	<path class="st4" d="M1482.3,293.1c-4.9,0-8.5-0.9-10.6-2.8s-3.3-4.9-3.5-9.1c-0.1-1.3-0.1-2.8-0.1-4.7c0-1.9,0-3.8,0-5.8
		s0-3.9,0.1-5.7c0-1.8,0.1-3.2,0.1-4.2c0.3-4.3,1.5-7.4,3.7-9.3c2.2-1.9,5.6-2.8,10.3-2.8c4.7,0,8.2,0.9,10.3,2.8s3.3,4.8,3.5,8.9
		c0,0.6,0,1.6,0.1,2.9c0,1.4,0,2.9,0,4.6s-0.1,3.2-0.1,4.7h-18.2c0,1.6,0,3.1,0.1,4.7c0,1.6,0.1,3.3,0.1,5c0,1.3,0.4,2.3,1.1,2.9
		s1.8,0.9,3.3,0.9s2.6-0.3,3.1-0.9c0.6-0.6,0.9-1.6,1-3c0-0.7,0.1-1.6,0.1-2.5s0-2.1-0.1-3.5h9.5c0,0.4,0.1,1.2,0.1,2.2
		c0,1.1,0,2,0,2.8c-0.2,4.3-1.4,7.3-3.5,9.2C1490.4,292.2,1487,293.1,1482.3,293.1z M1477.7,265.8h8.8c0-0.9,0-1.9,0-2.8
		s0-1.7,0-2.4c0-0.7,0-1.1-0.1-1.4c-0.1-1.3-0.4-2.2-1.1-2.7c-0.6-0.5-1.7-0.8-3.2-0.8c-1.6,0-2.7,0.3-3.3,0.8c-0.6,0.6-1,1.5-1,2.7
		c0,1.1-0.1,2.2-0.1,3.3C1477.7,263.7,1477.7,264.7,1477.7,265.8z"/>
	<path class="st4" d="M1505.1,292.4v-43.2h9.8v5.1h1.8c0.3-2,1.1-3.4,2.2-4.2s2.6-1.2,4.4-1.2c0.6,0,1.2,0,1.7,0.1
		c0.6,0,1.1,0.1,1.5,0.1v7.3h-3.1c-2.4,0-4.4,0.3-5.8,1s-2.3,1.9-2.7,3.7v31.3L1505.1,292.4L1505.1,292.4z"/>
</g>
<g>
	<path class="st4" d="M1071.6,528l7.6-57.6h16.7l7.6,57.6h-9.8l-1.3-13.1h-9.8l-1.3,13.1H1071.6z M1083.5,506.5h8l-1.3-12.6l-1-15.1
		h-3.3l-1,15.1L1083.5,506.5z"/>
	<path class="st4" d="M1111.6,528v-43.2h9.5v4.5h1.9c1-1.7,2.1-3,3.3-3.9s2.9-1.3,5.1-1.3c3.1,0,5.5,0.9,7.1,2.6s2.5,4.7,2.5,8.8
		V528h-9.5v-33.3c0-1.2-0.3-2.2-1-2.7s-1.7-0.9-3-0.9c-1.2,0-2.4,0.3-3.7,0.9s-2.2,1.4-2.6,2.5V528H1111.6z"/>
	<path class="st4" d="M1160.2,528.7c-3.1,0-5.4-0.9-7-2.7s-2.5-4.7-2.7-8.7c-0.1-1.4-0.1-3.1-0.1-5c0-1.9,0-3.9,0-6s0-4.1,0.1-5.9
		c0-1.9,0.1-3.5,0.1-4.8c0.2-4.1,1.1-7,2.8-8.8s4-2.6,7-2.6c2.3,0,4,0.4,5.2,1.3s2.2,2.2,3.3,3.9h1.4v-18.9h9.7V528h-9.7v-4.5h-1.5
		c-1,1.7-2.1,2.9-3.3,3.8C1164.2,528.2,1162.5,528.7,1160.2,528.7z M1164.1,521.7c1.2,0,2.4-0.3,3.6-0.9c1.2-0.6,2-1.4,2.5-2.5
		v-23.8c-0.5-1.1-1.3-1.9-2.5-2.5s-2.4-0.9-3.6-0.9c-1.3,0-2.2,0.3-2.8,0.8c-0.6,0.6-0.9,1.4-1,2.5c-0.1,2.6-0.2,5.2-0.3,8
		c0,2.7,0,5.4,0,8.1s0.1,5.2,0.3,7.5c0.1,1.3,0.4,2.2,1,2.8S1162.8,521.7,1164.1,521.7z"/>
	<path class="st4" d="M1190.2,528v-43.2h9.8v5.1h1.8c0.3-2,1.1-3.4,2.2-4.2c1.1-0.8,2.6-1.2,4.4-1.2c0.6,0,1.2,0,1.7,0.1
		s1.1,0.1,1.5,0.1v7.3h-3.1c-2.4,0-4.4,0.3-5.8,1s-2.3,1.9-2.7,3.7V528H1190.2z"/>
	<path class="st4" d="M1231.7,528.7c-3.4,0-6.1-0.4-8.2-1.3c-2-0.9-3.5-2.3-4.5-4.3s-1.5-4.6-1.7-7.8c0-1.1-0.1-2.4-0.1-3.9
		c0-1.5,0-3.2,0-4.9s0-3.4,0-5s0.1-2.9,0.1-4c0.2-3.3,0.8-5.9,1.7-7.8s2.5-3.4,4.5-4.2c2-0.9,4.8-1.3,8.1-1.3c3.5,0,6.2,0.5,8.2,1.4
		s3.5,2.3,4.4,4.3s1.5,4.5,1.7,7.7c0,1.1,0.1,2.4,0.1,4s0.1,3.2,0.1,4.9c0,1.7,0,3.3-0.1,4.9c0,1.6-0.1,2.9-0.1,4
		c-0.2,3.2-0.8,5.8-1.7,7.8c-0.9,2-2.4,3.4-4.4,4.3S1235.1,528.7,1231.7,528.7z M1231.7,521.5c1.7,0,2.9-0.3,3.6-1s1.1-1.6,1.1-2.9
		c0.1-2.1,0.1-4.1,0.2-6s0.1-3.7,0.1-5.5s0-3.5-0.1-5.3c0-1.8-0.1-3.7-0.2-5.7c0-1.3-0.4-2.2-1.1-2.9c-0.7-0.6-1.9-1-3.6-1
		s-2.9,0.3-3.7,1c-0.8,0.7-1.2,1.6-1.2,2.8c-0.1,1.6-0.1,3.3-0.1,5.1c0,1.8,0,3.7,0,5.6s0,3.9,0.1,5.9c0,2,0.1,4,0.2,6
		c0,1.3,0.4,2.2,1.2,2.9C1228.8,521.2,1230,521.5,1231.7,521.5z"/>
	<path class="st4" d="M1255.4,477.9v-7.5h10v7.5H1255.4z M1255.6,528v-43.2h9.5V528H1255.6z"/>
	<path class="st4" d="M1284.5,528.7c-3.1,0-5.4-0.9-7-2.7s-2.5-4.7-2.7-8.7c-0.1-1.4-0.1-3.1-0.1-5c0-1.9,0-3.9,0-6s0-4.1,0.1-5.9
		c0-1.9,0.1-3.5,0.1-4.8c0.2-4.1,1.1-7,2.8-8.8s4-2.6,7-2.6c2.3,0,4,0.4,5.2,1.3s2.2,2.2,3.3,3.9h1.4v-18.9h9.7V528h-9.7v-4.5h-1.5
		c-1,1.7-2.1,2.9-3.3,3.8C1288.4,528.2,1286.7,528.7,1284.5,528.7z M1288.4,521.7c1.2,0,2.4-0.3,3.6-0.9c1.2-0.6,2-1.4,2.5-2.5
		v-23.8c-0.5-1.1-1.3-1.9-2.5-2.5s-2.4-0.9-3.6-0.9c-1.3,0-2.2,0.3-2.8,0.8c-0.6,0.6-0.9,1.4-1,2.5c-0.1,2.6-0.2,5.2-0.3,8
		c0,2.7,0,5.4,0,8.1s0.1,5.2,0.3,7.5c0.1,1.3,0.4,2.2,1,2.8S1287,521.7,1288.4,521.7z"/>
	<path class="st4" d="M1333.6,528v-57.6h14.2c5,0,8.6,1,10.9,3.1c2.2,2.1,3.4,5.5,3.5,10.3c0.1,3.6,0.1,7.1,0.1,10.4s0,6.6,0,9.8
		c0,3.3-0.1,6.7-0.1,10.4c-0.1,4.8-1.2,8.3-3.4,10.4c-2.2,2.1-5.8,3.2-10.8,3.2H1333.6z M1343.1,519.6h4.8c1.6,0,2.7-0.3,3.5-1
		s1.2-1.7,1.2-3c0.1-2.9,0.1-5.6,0.2-8.4c0-2.7,0.1-5.4,0.1-8.1s0-5.4-0.1-8.1c0-2.7-0.1-5.5-0.2-8.3c0-1.3-0.4-2.3-1.2-3
		c-0.8-0.7-2-1-3.6-1h-4.7L1343.1,519.6L1343.1,519.6z"/>
	<path class="st4" d="M1385.7,528.7c-4.9,0-8.5-0.9-10.6-2.8c-2.1-1.9-3.3-4.9-3.5-9.1c-0.1-1.3-0.1-2.8-0.1-4.7c0-1.9,0-3.8,0-5.8
		s0-3.9,0.1-5.7s0.1-3.2,0.1-4.2c0.3-4.3,1.5-7.4,3.7-9.3s5.6-2.8,10.3-2.8c4.7,0,8.2,0.9,10.3,2.8s3.3,4.8,3.5,8.9
		c0,0.6,0,1.6,0.1,2.9c0,1.4,0,2.9,0,4.6s-0.1,3.2-0.1,4.7H1381c0,1.6,0,3.1,0.1,4.7c0,1.6,0.1,3.3,0.1,5c0,1.3,0.4,2.3,1.1,2.9
		c0.7,0.6,1.8,0.9,3.3,0.9s2.6-0.3,3.1-0.9c0.6-0.6,0.9-1.6,1-3c0-0.7,0.1-1.6,0.1-2.5c0-1,0-2.1-0.1-3.5h9.5c0,0.4,0.1,1.2,0.1,2.2
		c0,1.1,0,2,0,2.8c-0.2,4.3-1.4,7.3-3.5,9.2C1393.7,527.8,1390.3,528.7,1385.7,528.7z M1381,501.4h8.8c0-0.9,0-1.9,0-2.8
		s0-1.7,0-2.4c0-0.7,0-1.1-0.1-1.4c-0.1-1.3-0.4-2.2-1.1-2.7c-0.6-0.5-1.7-0.8-3.2-0.8c-1.6,0-2.7,0.3-3.3,0.8c-0.6,0.6-1,1.5-1,2.7
		c0,1.1-0.1,2.2-0.1,3.3C1381.1,499.2,1381,500.3,1381,501.4z"/>
	<path class="st4" d="M1411.9,528l-6.7-43.2h9.9l2.6,21.7l1,14.5h2.7l1-14.5l2.7-21.7h9.9l-6.8,43.2H1411.9z"/>
	<path class="st4" d="M1456.1,528.7c-4.9,0-8.5-0.9-10.6-2.8c-2.1-1.9-3.3-4.9-3.5-9.1c-0.1-1.3-0.1-2.8-0.1-4.7c0-1.9,0-3.8,0-5.8
		s0-3.9,0.1-5.7s0.1-3.2,0.1-4.2c0.3-4.3,1.5-7.4,3.7-9.3s5.6-2.8,10.3-2.8c4.7,0,8.2,0.9,10.3,2.8s3.3,4.8,3.5,8.9
		c0,0.6,0,1.6,0.1,2.9c0,1.4,0,2.9,0,4.6s-0.1,3.2-0.1,4.7h-18.2c0,1.6,0,3.1,0.1,4.7c0,1.6,0.1,3.3,0.1,5c0,1.3,0.4,2.3,1.1,2.9
		c0.7,0.6,1.8,0.9,3.3,0.9s2.6-0.3,3.1-0.9c0.6-0.6,0.9-1.6,1-3c0-0.7,0.1-1.6,0.1-2.5c0-1,0-2.1-0.1-3.5h9.5c0,0.4,0.1,1.2,0.1,2.2
		c0,1.1,0,2,0,2.8c-0.2,4.3-1.4,7.3-3.5,9.2C1464.2,527.8,1460.8,528.7,1456.1,528.7z M1451.5,501.4h8.8c0-0.9,0-1.9,0-2.8
		s0-1.7,0-2.4c0-0.7,0-1.1-0.1-1.4c-0.1-1.3-0.4-2.2-1.1-2.7c-0.6-0.5-1.7-0.8-3.2-0.8c-1.6,0-2.7,0.3-3.3,0.8c-0.6,0.6-1,1.5-1,2.7
		c0,1.1-0.1,2.2-0.1,3.3C1451.6,499.2,1451.5,500.3,1451.5,501.4z"/>
	<path class="st4" d="M1479,528v-57.6h9.5V528H1479z"/>
	<path class="st4" d="M1511.2,528.7c-3.4,0-6.1-0.4-8.2-1.3c-2-0.9-3.5-2.3-4.5-4.3s-1.5-4.6-1.7-7.8c0-1.1-0.1-2.4-0.1-3.9
		c0-1.5,0-3.2,0-4.9s0-3.4,0-5s0.1-2.9,0.1-4c0.2-3.3,0.8-5.9,1.7-7.8s2.5-3.4,4.5-4.2c2-0.9,4.8-1.3,8.1-1.3c3.5,0,6.2,0.5,8.2,1.4
		s3.5,2.3,4.4,4.3s1.5,4.5,1.7,7.7c0,1.1,0.1,2.4,0.1,4s0.1,3.2,0.1,4.9c0,1.7,0,3.3-0.1,4.9c0,1.6-0.1,2.9-0.1,4
		c-0.2,3.2-0.8,5.8-1.7,7.8c-0.9,2-2.4,3.4-4.4,4.3S1514.7,528.7,1511.2,528.7z M1511.2,521.5c1.7,0,2.9-0.3,3.6-1s1.1-1.6,1.1-2.9
		c0.1-2.1,0.1-4.1,0.2-6s0.1-3.7,0.1-5.5s0-3.5-0.1-5.3c0-1.8-0.1-3.7-0.2-5.7c0-1.3-0.4-2.2-1.1-2.9c-0.7-0.6-1.9-1-3.6-1
		s-2.9,0.3-3.7,1c-0.8,0.7-1.2,1.6-1.2,2.8c-0.1,1.6-0.1,3.3-0.1,5.1c0,1.8,0,3.7,0,5.6s0,3.9,0.1,5.9c0,2,0.1,4,0.2,6
		c0,1.3,0.4,2.2,1.2,2.9C1508.3,521.2,1509.5,521.5,1511.2,521.5z"/>
	<path class="st4" d="M1535.2,542.4v-57.6h9.7v4.5h1.4c1-1.7,2.1-3,3.2-3.9c1.2-0.9,2.9-1.3,5.2-1.3c3,0,5.4,0.9,7,2.6
		c1.6,1.8,2.6,4.7,2.8,8.8c0,1.3,0.1,2.9,0.1,4.8s0.1,4,0.1,6.1s0,4.2-0.1,6.1c0,1.9-0.1,3.5-0.1,4.7c-0.2,4.1-1.2,7-3,8.7
		c-1.8,1.8-4.2,2.7-7.3,2.7c-1.7,0-3.2-0.4-4.4-1.2c-1.2-0.8-2.4-2.1-3.5-4h-1.4v18.9L1535.2,542.4L1535.2,542.4z M1550.4,521.7
		c1.3,0,2.4-0.3,3.2-0.9c0.8-0.6,1.2-1.5,1.2-2.8c0.1-2,0.2-4,0.3-6c0-2,0.1-4,0.1-6.1c0-2,0-4-0.1-6c0-1.9-0.1-3.8-0.3-5.6
		c0-1.1-0.4-2-1-2.5c-0.6-0.6-1.6-0.8-2.8-0.8c-1.2,0-2.4,0.3-3.6,0.9s-2,1.4-2.5,2.5v23.8c0.6,1.2,1.3,2.1,2.2,2.6
		C1547.9,521.4,1549,521.7,1550.4,521.7z"/>
	<path class="st4" d="M1587.6,528.7c-4.9,0-8.5-0.9-10.6-2.8c-2.1-1.9-3.3-4.9-3.5-9.1c-0.1-1.3-0.1-2.8-0.1-4.7c0-1.9,0-3.8,0-5.8
		s0-3.9,0.1-5.7s0.1-3.2,0.1-4.2c0.3-4.3,1.5-7.4,3.7-9.3s5.6-2.8,10.3-2.8c4.7,0,8.2,0.9,10.3,2.8s3.3,4.8,3.5,8.9
		c0,0.6,0,1.6,0.1,2.9c0,1.4,0,2.9,0,4.6s-0.1,3.2-0.1,4.7H1583c0,1.6,0,3.1,0.1,4.7c0,1.6,0.1,3.3,0.1,5c0,1.3,0.4,2.3,1.1,2.9
		c0.7,0.6,1.8,0.9,3.3,0.9s2.6-0.3,3.1-0.9c0.6-0.6,0.9-1.6,1-3c0-0.7,0.1-1.6,0.1-2.5c0-1,0-2.1-0.1-3.5h9.5c0,0.4,0.1,1.2,0.1,2.2
		c0,1.1,0,2,0,2.8c-0.2,4.3-1.4,7.3-3.5,9.2C1595.7,527.8,1592.3,528.7,1587.6,528.7z M1583,501.4h8.8c0-0.9,0-1.9,0-2.8
		s0-1.7,0-2.4c0-0.7,0-1.1-0.1-1.4c-0.1-1.3-0.4-2.2-1.1-2.7c-0.6-0.5-1.7-0.8-3.2-0.8c-1.6,0-2.7,0.3-3.3,0.8c-0.6,0.6-1,1.5-1,2.7
		c0,1.1-0.1,2.2-0.1,3.3C1583,499.2,1583,500.3,1583,501.4z"/>
	<path class="st4" d="M1610.4,528v-43.2h9.8v5.1h1.8c0.3-2,1.1-3.4,2.2-4.2c1.1-0.8,2.6-1.2,4.4-1.2c0.6,0,1.2,0,1.7,0.1
		s1.1,0.1,1.5,0.1v7.3h-3.1c-2.4,0-4.4,0.3-5.8,1s-2.3,1.9-2.7,3.7V528H1610.4z"/>
</g>
<rect y="260.1" class="st1" width="336" height="115"/>
<circle class="st2" cx="118.9" cy="404.2" r="14.1"/>
<g>
	<path class="st2" d="M104.9,313v-77.1h19c6.6,0,11.3,1.3,14.3,4c2.9,2.7,4.5,7.1,4.7,13.2c0.1,3.1,0.1,6,0.1,8.6s0,5.3-0.1,8.2
		c-0.2,6.1-1.8,10.5-4.7,13.2s-7.7,4-14.3,4h-6.2V313L104.9,313L104.9,313z M117.6,275.9h6.2c2.1,0,3.7-0.4,4.7-1.3
		c1-0.9,1.5-2.2,1.6-4s0.2-3.7,0.2-5.8c0-2.1,0-4.1,0-6.2s-0.1-4.1-0.2-6c-0.1-1.8-0.6-3.1-1.6-4s-2.6-1.3-4.6-1.3h-6.2v28.6H117.6z
		"/>
	<path class="st2" d="M154.8,313v-57.8h13.1v6.8h2.4c0.4-2.7,1.4-4.6,2.9-5.6s3.5-1.6,5.9-1.6c0.8,0,1.5,0,2.3,0.1s1.4,0.1,2,0.1
		v9.7h-4.1c-3.3,0-5.9,0.5-7.7,1.4c-1.9,0.9-3.1,2.6-3.6,4.9v41.9h-13.2V313z"/>
	<path class="st2" d="M210.3,313.9c-4.6,0-8.2-0.6-10.9-1.8c-2.7-1.2-4.7-3.1-6-5.7s-2.1-6.1-2.3-10.4c-0.1-1.4-0.1-3.2-0.1-5.2
		c0-2.1,0-4.3,0-6.6c0-2.3,0-4.6,0-6.7s0.1-3.9,0.1-5.3c0.3-4.4,1-7.9,2.3-10.5s3.3-4.5,6-5.7s6.4-1.7,10.9-1.7
		c4.6,0,8.3,0.6,11,1.8c2.7,1.2,4.7,3.1,5.9,5.8c1.3,2.6,2,6,2.2,10.3c0.1,1.4,0.1,3.2,0.2,5.3c0,2.1,0.1,4.3,0.1,6.6
		c0,2.3,0,4.5-0.1,6.6c0,2.1-0.1,3.9-0.2,5.4c-0.3,4.3-1,7.8-2.3,10.4s-3.2,4.5-5.9,5.7C218.6,313.4,214.9,313.9,210.3,313.9z
		 M210.3,304.4c2.3,0,3.9-0.4,4.8-1.3c0.9-0.9,1.5-2.2,1.5-3.9c0.1-2.9,0.2-5.5,0.2-8s0.1-4.9,0.1-7.3s0-4.7-0.1-7.2
		c0-2.4-0.1-5-0.2-7.7c-0.1-1.7-0.6-3-1.5-3.8c-0.9-0.9-2.6-1.3-4.8-1.3s-3.9,0.5-4.9,1.4s-1.5,2.2-1.6,3.8
		c-0.1,2.1-0.2,4.4-0.2,6.8s0,4.9,0,7.5s0,5.2,0.1,7.9c0,2.6,0.1,5.3,0.2,8c0.1,1.7,0.6,3,1.6,3.9
		C206.4,303.9,208.1,304.4,210.3,304.4z"/>
	<path class="st2" d="M254.4,313.9c-4.1,0-7.2-1.2-9.3-3.6s-3.3-6.3-3.6-11.7c-0.1-1.9-0.2-4.1-0.2-6.7s0-5.3,0-8
		c0-2.8,0-5.4,0.1-7.9c0-2.5,0.1-4.6,0.2-6.4c0.2-5.5,1.5-9.4,3.7-11.8c2.2-2.3,5.4-3.5,9.4-3.5c3.1,0,5.4,0.6,6.9,1.8
		c1.6,1.2,3,2.9,4.4,5.2h1.9V236h13v77.1h-13v-6h-2c-1.3,2.2-2.8,3.9-4.4,5.1C259.7,313.3,257.4,313.9,254.4,313.9z M259.6,304.6
		c1.6,0,3.2-0.4,4.8-1.2c1.6-0.8,2.7-1.9,3.4-3.3v-31.9c-0.6-1.4-1.8-2.6-3.4-3.3c-1.6-0.8-3.2-1.2-4.8-1.2c-1.7,0-3,0.4-3.8,1.1
		c-0.8,0.8-1.3,1.9-1.3,3.4c-0.2,3.4-0.3,7-0.4,10.6c-0.1,3.7-0.1,7.3,0,10.8c0.1,3.6,0.2,6.9,0.3,10c0.1,1.7,0.5,3,1.3,3.8
		C256.6,304.2,257.8,304.6,259.6,304.6z"/>
	<path class="st2" d="M307.3,313.9c-4.1,0-7.3-1.2-9.7-3.6c-2.4-2.4-3.5-6.3-3.5-11.7v-43.5H307l0.1,44.5c0,1.7,0.4,2.9,1.2,3.7
		c0.8,0.8,2.1,1.2,3.9,1.2c1.6,0,3.3-0.4,4.9-1.2c1.6-0.8,2.7-1.9,3.4-3.3v-44.9h13v57.8h-13v-6h-1.8c-1.5,2.5-3.1,4.2-4.9,5.3
		C311.9,313.4,309.8,313.9,307.3,313.9z"/>
	<path class="st2" d="M370.8,276.9c0-0.7,0.1-1.6,0.1-2.7c0-1,0-2.1,0-3.1s0-1.9-0.1-2.6c-0.1-1.6-0.5-2.7-1.3-3.5s-2.3-1.2-4.4-1.2
		s-3.6,0.4-4.4,1.1s-1.3,1.9-1.3,3.6c-0.1,3-0.2,5.7-0.2,8.3c0,2.6,0,5,0,7.4s0,4.8,0,7.3s0.1,5.1,0.2,7.8c0.1,1.8,0.5,3.1,1.4,3.9
		s2.4,1.2,4.5,1.2s3.5-0.4,4.3-1.3c0.8-0.8,1.2-2.1,1.2-3.9c0.1-1.1,0.1-2.2,0.1-3.4s0-2.8-0.1-4.6h12.7c0.1,0.6,0.1,1.6,0.1,3
		s0,2.7,0,3.8c-0.3,5.7-1.8,9.8-4.6,12.3c-2.8,2.5-7.4,3.7-13.6,3.7c-6.6,0-11.3-1.3-14.2-3.8c-2.8-2.5-4.4-6.6-4.7-12.2
		c-0.1-1.7-0.2-3.8-0.2-6.3s0-5.1,0-7.8c0-2.7,0-5.3,0.1-7.6c0-2.4,0.1-4.3,0.2-5.7c0.4-5.8,2-10,4.9-12.5s7.5-3.7,13.8-3.7
		c6.4,0,11,1.2,13.8,3.7c2.8,2.4,4.4,6.5,4.6,12c0.1,1.1,0.1,2.4,0,3.9c0,1.5-0.1,2.5-0.1,3L370.8,276.9L370.8,276.9z"/>
	<path class="st2" d="M418,313.9c-7.1,0-12.2-1.2-15.2-3.7s-4.5-6.6-4.6-12.5l-0.1-32.9h-5.5v-9.6h5.8v-16.4h13v16.4H422v9.6h-11
		l0.1,34.4c0,2.1,0.5,3.4,1.5,4.1s2.8,1,5.3,1c0.9,0,1.7,0,2.5,0s1.7,0,2.6,0v9.2c-0.8,0.1-1.6,0.2-2.4,0.3
		C419.9,313.9,418.9,313.9,418,313.9z"/>
	<path class="st2" d="M449.6,313.9c-6.1,0-10.5-1.2-13.1-3.7s-4-6.6-4.3-12.3c0-1.3,0-2.5,0-3.5c0-1.1,0.1-1.9,0.1-2.5h11.4
		c-0.1,1.9-0.1,3.4-0.1,4.5s0,2.1,0.1,3c0.1,1.9,0.6,3.2,1.6,3.9c1,0.7,2.4,1.1,4.3,1.1c2.3,0,3.9-0.4,5-1.2c1-0.8,1.5-2.1,1.5-4
		c0-0.8,0-1.4,0-1.6c0-0.3,0-0.5,0-0.7s0-0.7,0-1.5c0-1.3-0.3-2.3-0.8-3.1c-0.5-0.8-1.5-1.4-3-1.8l-6.7-1.7c-3-0.8-5.5-1.8-7.5-3
		s-3.6-2.8-4.6-4.7c-1-1.9-1.6-4.3-1.6-7.1c0-0.6,0-1.2,0-1.8c0-0.5,0-1.1,0-1.6c0-5.8,1.4-9.9,4.2-12.5c2.7-2.5,7.5-3.8,14.2-3.8
		c6.1,0,10.5,1.2,13.1,3.7c2.6,2.4,4.1,6.5,4.3,12c0,0.7,0,1.7,0,3.2c0,1.4-0.1,2.4-0.2,3h-11.8c0-0.7,0.1-1.6,0.1-2.6s0-1.9,0-2.8
		s0-1.6-0.1-2.2c-0.1-1.7-0.5-2.9-1.3-3.6s-2.2-1.1-4.2-1.1c-2.1,0-3.5,0.4-4.4,1.1c-0.8,0.7-1.3,1.9-1.3,3.6c0,0.2,0,0.6,0,1.3
		c0,0.6,0,1.6,0,2.9c0,1.6,0.3,2.9,0.8,3.8c0.6,0.9,1.7,1.6,3.3,2l6,1.4c4.5,1,7.9,2.7,10.1,4.9c2.2,2.2,3.4,5.5,3.4,9.9
		c0,0.6,0,1.2,0,1.8c0,0.6,0,1.2,0,1.8c0,5.6-1.5,9.6-4.3,12C460.9,312.7,456.2,313.9,449.6,313.9z"/>
</g>
<circle class="st2" cx="118.9" cy="465" r="14.1"/>
<g>
	<path class="st3" d="M175,469.3c0,1.4-0.3,2.5-1,3.5s-1.6,1.8-2.9,2.3c-1.3,0.5-2.8,0.8-4.6,0.8c-0.8,0-1.6-0.1-2.3-0.2
		c-0.8-0.1-1.5-0.3-2.2-0.5s-1.4-0.5-2-0.8v-4.3c1.1,0.5,2.2,0.9,3.4,1.3s2.3,0.6,3.5,0.6c0.8,0,1.4-0.1,1.9-0.3s0.8-0.5,1.1-0.9
		c0.2-0.4,0.3-0.8,0.3-1.3c0-0.6-0.2-1.1-0.6-1.5c-0.4-0.4-0.9-0.8-1.6-1.1s-1.4-0.7-2.3-1.1c-0.5-0.3-1.1-0.6-1.7-0.9
		c-0.6-0.4-1.2-0.8-1.8-1.3s-1-1.2-1.4-1.9s-0.5-1.6-0.5-2.7c0-1.4,0.3-2.5,0.9-3.5c0.6-1,1.5-1.7,2.7-2.2s2.5-0.8,4.1-0.8
		c1.2,0,2.3,0.1,3.4,0.4c1.1,0.3,2.2,0.7,3.4,1.2l-1.6,3.8c-1.1-0.4-2-0.8-2.8-1s-1.7-0.4-2.6-0.4c-0.6,0-1.1,0.1-1.6,0.3
		s-0.8,0.5-1,0.8c-0.2,0.4-0.3,0.8-0.3,1.2c0,0.5,0.2,1,0.5,1.4s0.8,0.7,1.4,1.1s1.4,0.7,2.4,1.2c1.2,0.6,2.2,1.1,3,1.7
		c0.8,0.6,1.5,1.3,1.9,2.1C174.8,467.1,175,468.1,175,469.3z"/>
	<path class="st3" d="M190,457.8c2,0,3.6,0.8,4.8,2.3s1.8,3.8,1.8,6.8c0,2-0.3,3.7-0.9,5c-0.6,1.4-1.4,2.4-2.4,3.1
		c-1,0.7-2.2,1-3.5,1c-0.8,0-1.6-0.1-2.2-0.3s-1.1-0.5-1.6-0.8s-0.8-0.7-1.1-1.1h-0.3c0.1,0.4,0.1,0.8,0.2,1.3
		c0,0.4,0.1,0.9,0.1,1.3v7.1h-4.8v-25.4h3.9l0.7,2.3h0.2c0.3-0.5,0.7-0.9,1.1-1.3c0.4-0.4,1-0.7,1.6-0.9
		C188.4,457.9,189.2,457.8,190,457.8z M188.5,461.6c-0.8,0-1.5,0.2-2,0.5s-0.8,0.9-1.1,1.6c-0.2,0.7-0.3,1.6-0.4,2.6v0.5
		c0,1.1,0.1,2.1,0.3,2.9s0.6,1.4,1.1,1.8c0.5,0.4,1.2,0.6,2.1,0.6c0.7,0,1.3-0.2,1.8-0.6c0.5-0.4,0.8-1,1.1-1.8
		c0.2-0.8,0.4-1.8,0.4-2.9c0-1.7-0.3-3-0.8-3.9C190.4,462.1,189.6,461.6,188.5,461.6z"/>
	<path class="st3" d="M209.2,457.8c2.4,0,4.2,0.5,5.4,1.5s1.9,2.6,1.9,4.7v11.7h-3.3l-0.9-2.4h-0.1c-0.5,0.6-1,1.1-1.5,1.5
		s-1.1,0.7-1.8,0.9s-1.5,0.3-2.5,0.3s-2-0.2-2.8-0.6c-0.8-0.4-1.5-1-1.9-1.8c-0.5-0.8-0.7-1.9-0.7-3.1c0-1.9,0.7-3.2,2-4.1
		c1.3-0.9,3.3-1.4,5.9-1.5l3-0.1V464c0-0.9-0.2-1.6-0.7-2s-1.2-0.6-2-0.6s-1.7,0.1-2.5,0.4c-0.8,0.2-1.6,0.5-2.4,0.9l-1.6-3.2
		c0.9-0.5,2-0.9,3.1-1.2C206.8,457.9,208,457.8,209.2,457.8z M211.7,467.5l-1.9,0.1c-1.5,0-2.6,0.3-3.2,0.8c-0.6,0.5-0.9,1.2-0.9,2
		c0,0.7,0.2,1.3,0.6,1.6c0.4,0.3,1,0.5,1.7,0.5c1,0,1.9-0.3,2.6-0.9c0.7-0.6,1.1-1.5,1.1-2.6L211.7,467.5L211.7,467.5z"/>
	<path class="st3" d="M232.6,457.8c0.2,0,0.5,0,0.8,0s0.6,0.1,0.8,0.1l-0.4,4.5c-0.2-0.1-0.4-0.1-0.7-0.1s-0.5,0-0.7,0
		c-0.6,0-1.2,0.1-1.8,0.2c-0.6,0.2-1.1,0.4-1.6,0.8c-0.5,0.3-0.8,0.8-1.1,1.4c-0.3,0.6-0.4,1.3-0.4,2.1v8.9h-4.8v-17.6h3.6l0.7,2.9
		h0.2c0.3-0.6,0.8-1.1,1.3-1.6s1.1-0.9,1.8-1.2C231.1,458,231.9,457.8,232.6,457.8z"/>
	<path class="st3" d="M243.7,451.3v10.9c0,0.7,0,1.3-0.1,2s-0.1,1.3-0.2,2h0.1c0.3-0.5,0.7-0.9,1-1.4c0.3-0.4,0.7-0.9,1.1-1.3
		l4.9-5.3h5.4l-7,7.6l7.4,9.9h-5.5l-5-7.1l-2.1,1.6v5.5h-4.8v-24.4H243.7z"/>
	<path class="st3" d="M284.4,475.7l-1.7-5.5h-8.4l-1.7,5.5h-5.2l8.1-23h5.9l8.1,23H284.4z M281.6,466.1l-1.7-5.3
		c-0.1-0.4-0.2-0.8-0.4-1.4c-0.2-0.6-0.3-1.1-0.5-1.7s-0.3-1.1-0.4-1.5c-0.1,0.4-0.2,1-0.4,1.6c-0.2,0.6-0.4,1.2-0.5,1.8
		c-0.2,0.6-0.3,1-0.4,1.2l-1.6,5.3L281.6,466.1L281.6,466.1z"/>
	<path class="st3" d="M300.7,452.7c2.1,0,3.8,0.3,5.2,0.8s2.4,1.3,3,2.3c0.7,1,1,2.3,1,3.8c0,1-0.2,2-0.6,2.7
		c-0.4,0.8-0.9,1.4-1.6,2c-0.6,0.5-1.3,1-2.1,1.3l6.7,10h-5.4l-5.5-8.8h-2.6v8.8H294v-22.9L300.7,452.7L300.7,452.7z M300.3,456.7
		h-1.5v6.2h1.6c1.6,0,2.8-0.3,3.5-0.8s1-1.3,1-2.4c0-1.1-0.4-1.9-1.1-2.3S301.9,456.7,300.3,456.7z"/>
	<path class="st3" d="M340.5,475.7l-1.7-5.5h-8.4l-1.7,5.5h-5.2l8.1-23h5.9l8.1,23H340.5z M337.7,466.1l-1.7-5.3
		c-0.1-0.4-0.2-0.8-0.4-1.4c-0.2-0.6-0.3-1.1-0.5-1.7s-0.3-1.1-0.4-1.5c-0.1,0.4-0.2,1-0.4,1.6c-0.2,0.6-0.4,1.2-0.5,1.8
		c-0.2,0.6-0.3,1-0.4,1.2l-1.6,5.3L337.7,466.1L337.7,466.1z"/>
	<path class="st3" d="M361.9,470.5c0,1.2-0.3,2.2-0.8,3c-0.6,0.8-1.4,1.4-2.5,1.9c-1.1,0.4-2.5,0.6-4.1,0.6c-1.2,0-2.3-0.1-3.1-0.2
		c-0.9-0.2-1.8-0.4-2.6-0.8v-4c1,0.4,2,0.8,3.1,1.1s2.1,0.4,2.9,0.4c0.9,0,1.6-0.1,2-0.4c0.4-0.3,0.6-0.6,0.6-1.1
		c0-0.3-0.1-0.6-0.2-0.8c-0.2-0.2-0.5-0.5-1-0.8s-1.4-0.7-2.5-1.2s-2-0.9-2.7-1.4s-1.2-1-1.6-1.7c-0.3-0.6-0.5-1.5-0.5-2.5
		c0-1.6,0.6-2.8,1.9-3.7c1.3-0.8,2.9-1.2,5.1-1.2c1.1,0,2.1,0.1,3.1,0.3s2,0.6,3.1,1.1l-1.4,3.5c-0.9-0.4-1.7-0.7-2.5-0.9
		s-1.6-0.4-2.3-0.4c-0.7,0-1.2,0.1-1.6,0.3s-0.5,0.5-0.5,0.9c0,0.3,0.1,0.5,0.3,0.8c0.2,0.2,0.5,0.5,1.1,0.7s1.3,0.6,2.3,1
		s1.9,0.8,2.6,1.3s1.3,1,1.7,1.6C361.7,468.6,361.9,469.4,361.9,470.5z"/>
	<path class="st3" d="M379.3,470.5c0,1.2-0.3,2.2-0.8,3c-0.6,0.8-1.4,1.4-2.5,1.9c-1.1,0.4-2.5,0.6-4.1,0.6c-1.2,0-2.3-0.1-3.1-0.2
		c-0.9-0.2-1.8-0.4-2.6-0.8v-4c1,0.4,2,0.8,3.1,1.1s2.1,0.4,2.9,0.4c0.9,0,1.6-0.1,2-0.4c0.4-0.3,0.6-0.6,0.6-1.1
		c0-0.3-0.1-0.6-0.2-0.8c-0.2-0.2-0.5-0.5-1-0.8s-1.4-0.7-2.5-1.2s-2-0.9-2.7-1.4s-1.2-1-1.6-1.7c-0.3-0.6-0.5-1.5-0.5-2.5
		c0-1.6,0.6-2.8,1.9-3.7c1.3-0.8,2.9-1.2,5.1-1.2c1.1,0,2.1,0.1,3.1,0.3s2,0.6,3.1,1.1l-1.4,3.5c-0.9-0.4-1.7-0.7-2.5-0.9
		s-1.6-0.4-2.3-0.4c-0.7,0-1.2,0.1-1.6,0.3s-0.5,0.5-0.5,0.9c0,0.3,0.1,0.5,0.3,0.8c0.2,0.2,0.5,0.5,1.1,0.7s1.3,0.6,2.3,1
		s1.9,0.8,2.6,1.3s1.3,1,1.7,1.6C379.1,468.6,379.3,469.4,379.3,470.5z"/>
	<path class="st3" d="M432.2,470.5c0,1.2-0.3,2.2-0.8,3c-0.6,0.8-1.4,1.4-2.5,1.9c-1.1,0.4-2.5,0.6-4.1,0.6c-1.2,0-2.3-0.1-3.1-0.2
		c-0.9-0.2-1.8-0.4-2.6-0.8v-4c1,0.4,2,0.8,3.1,1.1s2.1,0.4,2.9,0.4c0.9,0,1.6-0.1,2-0.4c0.4-0.3,0.6-0.6,0.6-1.1
		c0-0.3-0.1-0.6-0.2-0.8c-0.2-0.2-0.5-0.5-1-0.8s-1.4-0.7-2.5-1.2s-2-0.9-2.7-1.4s-1.2-1-1.6-1.7c-0.3-0.6-0.5-1.5-0.5-2.5
		c0-1.6,0.6-2.8,1.9-3.7c1.3-0.8,2.9-1.2,5.1-1.2c1.1,0,2.1,0.1,3.1,0.3s2,0.6,3.1,1.1l-1.4,3.5c-0.9-0.4-1.7-0.7-2.5-0.9
		s-1.6-0.4-2.3-0.4c-0.7,0-1.2,0.1-1.6,0.3s-0.5,0.5-0.5,0.9c0,0.3,0.1,0.5,0.3,0.8c0.2,0.2,0.5,0.5,1.1,0.7s1.3,0.6,2.3,1
		s1.9,0.8,2.6,1.3s1.3,1,1.7,1.6C432,468.6,432.2,469.4,432.2,470.5z"/>
	<path class="st3" d="M391.7,457.8c1.6,0,3,0.3,4.2,0.9s2.1,1.5,2.7,2.7s1,2.6,1,4.3v2.3h-11.3c0.1,1.3,0.5,2.4,1.2,3.2
		c0.8,0.8,1.8,1.2,3.2,1.2c1.1,0,2.1-0.1,3.1-0.3c0.9-0.2,1.9-0.6,2.9-1v3.7c-0.9,0.4-1.8,0.7-2.7,0.9c-0.9,0.2-2.1,0.3-3.4,0.3
		c-1.8,0-3.3-0.3-4.7-1c-1.4-0.6-2.4-1.6-3.2-3c-0.8-1.3-1.2-3-1.2-5s0.3-3.8,1-5.1c0.7-1.4,1.7-2.4,2.9-3.1
		S390.1,457.8,391.7,457.8z M391.8,461.2c-0.9,0-1.7,0.3-2.3,0.9c-0.6,0.6-1,1.5-1.1,2.8h6.7c0-0.7-0.1-1.3-0.4-1.9
		c-0.2-0.6-0.6-1-1.1-1.3S392.5,461.2,391.8,461.2z"/>
	<path class="st3" d="M412.3,472.2c0.5,0,1-0.1,1.5-0.2s1-0.2,1.5-0.4v3.6c-0.5,0.2-1.1,0.4-1.9,0.6s-1.6,0.2-2.5,0.2
		c-1,0-2-0.2-2.8-0.5s-1.5-0.9-2-1.8c-0.5-0.8-0.7-2-0.7-3.5v-8.5h-2.3v-2l2.6-1.6l1.4-3.7h3.1v3.7h4.9v3.6h-4.9v8.5
		c0,0.7,0.2,1.2,0.6,1.5C411.2,472,411.7,472.2,412.3,472.2z"/>
	<path class="st3" d="M453.2,457.8c2.4,0,4.2,0.5,5.4,1.5c1.2,1,1.9,2.6,1.9,4.7v11.7h-3.3l-0.9-2.4h-0.1c-0.5,0.6-1,1.1-1.5,1.5
		s-1.1,0.7-1.8,0.9c-0.7,0.2-1.5,0.3-2.5,0.3s-2-0.2-2.8-0.6c-0.8-0.4-1.5-1-1.9-1.8c-0.5-0.8-0.7-1.9-0.7-3.1c0-1.9,0.7-3.2,2-4.1
		c1.3-0.9,3.3-1.4,5.9-1.5l3-0.1V464c0-0.9-0.2-1.6-0.7-2s-1.2-0.6-2-0.6s-1.7,0.1-2.5,0.4c-0.8,0.2-1.6,0.5-2.4,0.9l-1.6-3.2
		c0.9-0.5,2-0.9,3.1-1.2C450.7,457.9,451.9,457.8,453.2,457.8z M455.7,467.5l-1.9,0.1c-1.5,0-2.6,0.3-3.2,0.8
		c-0.6,0.5-0.9,1.2-0.9,2c0,0.7,0.2,1.3,0.6,1.6c0.4,0.3,1,0.5,1.7,0.5c1,0,1.9-0.3,2.6-0.9c0.7-0.6,1.1-1.5,1.1-2.6L455.7,467.5
		L455.7,467.5z"/>
	<path class="st3" d="M476.8,457.8c1.9,0,3.4,0.5,4.5,1.5c1.1,1,1.7,2.7,1.7,4.9v11.4h-4.8v-10.2c0-1.3-0.2-2.2-0.7-2.8
		s-1.2-1-2.1-1c-1.5,0-2.5,0.5-3,1.5s-0.8,2.4-0.8,4.3v8.2h-4.8v-17.5h3.7l0.6,2.2h0.3c0.4-0.6,0.8-1.1,1.4-1.5
		c0.6-0.4,1.2-0.7,1.9-0.8C475.4,457.9,476.1,457.8,476.8,457.8z"/>
	<path class="st3" d="M494.9,476c-2,0-3.5-0.8-4.8-2.3c-1.2-1.5-1.8-3.8-1.8-6.8s0.6-5.3,1.9-6.8c1.2-1.5,2.9-2.3,4.9-2.3
		c0.8,0,1.6,0.1,2.2,0.3c0.6,0.2,1.2,0.5,1.7,0.9s0.9,0.8,1.2,1.3h0.2c-0.1-0.3-0.1-0.8-0.2-1.5c-0.1-0.7-0.1-1.3-0.1-2v-5.6h4.8
		v24.4h-3.7l-0.9-2.3h-0.4c-0.3,0.5-0.7,0.9-1.1,1.3c-0.5,0.4-1,0.7-1.6,0.9C496.6,475.7,495.8,476,494.9,476z M496.6,472.2
		c1.3,0,2.2-0.4,2.8-1.2c0.5-0.8,0.8-2,0.9-3.5V467c0-1.7-0.3-3-0.8-3.9s-1.5-1.4-2.9-1.4c-1.1,0-1.9,0.5-2.5,1.4
		c-0.6,0.9-0.9,2.2-0.9,3.9s0.3,3,0.9,3.9C494.7,471.7,495.5,472.2,496.6,472.2z"/>
	<path class="st3" d="M520.9,457.8c0.2,0,0.5,0,0.8,0s0.6,0.1,0.8,0.1l-0.4,4.5c-0.2-0.1-0.4-0.1-0.7-0.1c-0.3,0-0.5,0-0.7,0
		c-0.6,0-1.2,0.1-1.8,0.2c-0.6,0.2-1.1,0.4-1.6,0.8c-0.5,0.3-0.8,0.8-1.1,1.4c-0.3,0.6-0.4,1.3-0.4,2.1v8.9H511v-17.6h3.6l0.7,2.9
		h0.2c0.3-0.6,0.8-1.1,1.3-1.6s1.1-0.9,1.8-1.2C519.5,458,520.2,457.8,520.9,457.8z"/>
	<path class="st3" d="M543.1,466.9c0,1.5-0.2,2.8-0.6,3.9c-0.4,1.1-1,2.1-1.7,2.9c-0.7,0.8-1.6,1.4-2.7,1.8
		c-1.1,0.4-2.2,0.6-3.6,0.6c-1.2,0-2.4-0.2-3.4-0.6c-1-0.4-1.9-1-2.7-1.8s-1.3-1.7-1.8-2.9c-0.4-1.1-0.6-2.4-0.6-3.9
		c0-1.9,0.3-3.6,1-4.9c0.7-1.3,1.7-2.4,2.9-3.1c1.3-0.7,2.8-1.1,4.6-1.1c1.6,0,3.1,0.4,4.4,1.1c1.3,0.7,2.3,1.7,3,3.1
		C542.8,463.3,543.1,464.9,543.1,466.9z M531,466.9c0,1.2,0.1,2.1,0.4,2.9s0.6,1.4,1.2,1.8s1.2,0.6,2.1,0.6c0.8,0,1.5-0.2,2.1-0.6
		c0.5-0.4,0.9-1,1.2-1.8c0.2-0.8,0.4-1.8,0.4-2.9c0-1.2-0.1-2.1-0.4-2.9c-0.2-0.8-0.6-1.3-1.2-1.7s-1.2-0.6-2.1-0.6
		c-1.3,0-2.2,0.4-2.8,1.3C531.3,463.8,531,465.1,531,466.9z"/>
	<path class="st3" d="M550.9,451.3c0.7,0,1.3,0.2,1.8,0.5s0.8,0.9,0.8,1.8c0,0.9-0.3,1.5-0.8,1.8s-1.1,0.5-1.8,0.5s-1.3-0.2-1.8-0.5
		s-0.8-1-0.8-1.8c0-0.9,0.3-1.5,0.8-1.8C549.6,451.4,550.2,451.3,550.9,451.3z M553.3,458.1v17.5h-4.8v-17.5H553.3z"/>
	<path class="st3" d="M565.3,476c-2,0-3.5-0.8-4.8-2.3c-1.2-1.5-1.8-3.8-1.8-6.8s0.6-5.3,1.9-6.8c1.2-1.5,2.9-2.3,4.9-2.3
		c0.8,0,1.6,0.1,2.2,0.3c0.6,0.2,1.2,0.5,1.7,0.9s0.9,0.8,1.2,1.3h0.2c-0.1-0.3-0.1-0.8-0.2-1.5s-0.1-1.3-0.1-2v-5.6h4.8v24.4h-3.7
		l-0.9-2.3h-0.2c-0.3,0.5-0.7,0.9-1.1,1.3c-0.5,0.4-1,0.7-1.6,0.9S566.2,476,565.3,476z M567,472.2c1.3,0,2.2-0.4,2.8-1.2
		c0.5-0.8,0.8-2,0.9-3.5V467c0-1.7-0.3-3-0.8-3.9s-1.5-1.4-2.9-1.4c-1.1,0-1.9,0.5-2.5,1.4s-0.9,2.2-0.9,3.9s0.3,3,0.9,3.9
		C565,471.7,565.9,472.2,567,472.2z"/>
	<path class="st3" d="M598.5,457.8c2.4,0,4.2,0.5,5.4,1.5s1.9,2.6,1.9,4.7v11.7h-3.3l-0.9-2.4h-0.1c-0.5,0.6-1,1.1-1.5,1.5
		s-1.1,0.7-1.8,0.9s-1.5,0.3-2.5,0.3s-2-0.2-2.8-0.6c-0.8-0.4-1.5-1-1.9-1.8c-0.5-0.8-0.7-1.9-0.7-3.1c0-1.9,0.7-3.2,2-4.1
		c1.3-0.9,3.3-1.4,5.9-1.5l3-0.1V464c0-0.9-0.2-1.6-0.7-2s-1.2-0.6-2-0.6s-1.7,0.1-2.5,0.4c-0.8,0.2-1.6,0.5-2.4,0.9l-1.6-3.2
		c0.9-0.5,2-0.9,3.1-1.2C596.1,457.9,597.3,457.8,598.5,457.8z M601,467.5l-1.9,0.1c-1.5,0-2.6,0.3-3.2,0.8c-0.6,0.5-0.9,1.2-0.9,2
		c0,0.7,0.2,1.3,0.6,1.6c0.4,0.3,1,0.5,1.7,0.5c1,0,1.9-0.3,2.6-0.9c0.7-0.6,1.1-1.5,1.1-2.6L601,467.5L601,467.5z"/>
	<path class="st3" d="M621.9,457.8c2,0,3.6,0.8,4.8,2.3s1.8,3.8,1.8,6.8c0,2-0.3,3.7-0.9,5c-0.6,1.4-1.4,2.4-2.4,3.1
		c-1,0.7-2.2,1-3.5,1c-0.8,0-1.6-0.1-2.2-0.3s-1.1-0.5-1.6-0.8s-0.8-0.7-1.1-1.1h-0.3c0.1,0.4,0.1,0.8,0.2,1.3
		c0,0.4,0.1,0.9,0.1,1.3v7.1H612v-25.4h3.9l0.7,2.3h0.2c0.3-0.5,0.7-0.9,1.1-1.3c0.4-0.4,1-0.7,1.6-0.9
		C620.3,457.9,621.1,457.8,621.9,457.8z M620.4,461.6c-0.8,0-1.5,0.2-2,0.5s-0.8,0.9-1.1,1.6c-0.2,0.7-0.3,1.6-0.4,2.6v0.5
		c0,1.1,0.1,2.1,0.3,2.9s0.6,1.4,1.1,1.8c0.5,0.4,1.2,0.6,2.1,0.6c0.7,0,1.3-0.2,1.8-0.6c0.5-0.4,0.8-1,1.1-1.8
		c0.2-0.8,0.4-1.8,0.4-2.9c0-1.7-0.3-3-0.8-3.9C622.3,462.1,621.5,461.6,620.4,461.6z"/>
	<path class="st3" d="M643.7,457.8c2,0,3.6,0.8,4.8,2.3s1.8,3.8,1.8,6.8c0,2-0.3,3.7-0.9,5c-0.6,1.4-1.4,2.4-2.4,3.1
		c-1,0.7-2.2,1-3.5,1c-0.8,0-1.6-0.1-2.2-0.3s-1.1-0.5-1.6-0.8s-0.8-0.7-1.1-1.1h-0.3c0.1,0.4,0.1,0.8,0.2,1.3
		c0,0.4,0.1,0.9,0.1,1.3v7.1h-4.7v-25.4h3.9l0.7,2.3h0.2c0.3-0.5,0.7-0.9,1.1-1.3c0.4-0.4,1-0.7,1.6-0.9
		C642.1,457.9,642.9,457.8,643.7,457.8z M642.2,461.6c-0.8,0-1.5,0.2-2,0.5s-0.8,0.9-1.1,1.6c-0.2,0.7-0.3,1.6-0.4,2.6v0.5
		c0,1.1,0.1,2.1,0.3,2.9s0.6,1.4,1.1,1.8c0.5,0.4,1.2,0.6,2.1,0.6c0.7,0,1.3-0.2,1.8-0.6c0.5-0.4,0.8-1,1.1-1.8
		c0.2-0.8,0.4-1.8,0.4-2.9c0-1.7-0.3-3-0.8-3.9C644.1,462.1,643.3,461.6,642.2,461.6z"/>
</g>
<circle class="st2" cx="118.9" cy="525.9" r="14.1"/>
<g>
	<path class="st3" d="M161.5,536.5v-22.9h4.9v18.9h9.3v4H161.5z"/>
	<path class="st3" d="M199.7,513.6v14.8c0,1.6-0.3,3-1,4.3s-1.7,2.3-3.2,3c-1.4,0.7-3.2,1.1-5.3,1.1c-3,0-5.3-0.8-6.9-2.3
		c-1.6-1.5-2.4-3.6-2.4-6.1v-14.8h4.8v14c0,1.9,0.4,3.2,1.2,4s1.9,1.1,3.4,1.1c1.1,0,1.9-0.2,2.6-0.5s1.2-0.9,1.5-1.7
		s0.5-1.7,0.5-2.9v-14L199.7,513.6L199.7,513.6z"/>
	<path class="st3" d="M215.6,536.5h-4.9v-18.9h-6.2v-4h17.3v4h-6.2L215.6,536.5L215.6,536.5z"/>
	<path class="st3" d="M241.4,544.2c-2.4,0-4.3-0.4-5.6-1.3s-1.9-2-1.9-3.6c0-1.1,0.3-1.9,1-2.7s1.6-1.2,2.9-1.5
		c-0.5-0.2-0.9-0.6-1.3-1c-0.4-0.5-0.5-1-0.5-1.5c0-0.7,0.2-1.2,0.6-1.7s0.9-0.9,1.7-1.3c-0.9-0.4-1.6-1-2.2-1.9
		c-0.5-0.9-0.8-1.9-0.8-3.1c0-1.3,0.3-2.4,0.8-3.3c0.6-0.9,1.4-1.6,2.4-2s2.4-0.7,3.9-0.7c0.3,0,0.7,0,1.1,0.1
		c0.4,0,0.8,0.1,1.2,0.1c0.4,0.1,0.6,0.1,0.7,0.1h6.1v2.4l-2.7,0.7c0.3,0.4,0.4,0.8,0.6,1.2c0.1,0.4,0.2,0.9,0.2,1.4
		c0,1.9-0.7,3.3-2,4.4c-1.3,1.1-3.1,1.6-5.5,1.6c-0.6,0-1.1-0.1-1.6-0.1c-0.2,0.2-0.4,0.4-0.5,0.6c-0.1,0.2-0.2,0.4-0.2,0.7
		c0,0.2,0.1,0.4,0.3,0.6s0.5,0.3,0.9,0.3s0.9,0.1,1.5,0.1h3c1.9,0,3.4,0.4,4.4,1.2s1.5,2,1.5,3.6c0,2-0.9,3.6-2.6,4.8
		C247,543.6,244.6,544.2,241.4,544.2z M241.6,541.1c1.1,0,2.1-0.1,2.9-0.3c0.8-0.2,1.5-0.5,1.9-0.9s0.7-0.9,0.7-1.4
		c0-0.4-0.1-0.8-0.4-1c-0.3-0.3-0.6-0.4-1.2-0.5s-1.2-0.2-2-0.2H241c-0.6,0-1.1,0.1-1.6,0.3s-0.8,0.5-1.1,0.8s-0.4,0.7-0.4,1.2
		c0,0.7,0.3,1.2,0.9,1.6C239.6,540.9,240.4,541.1,241.6,541.1z M242.3,527.8c0.9,0,1.6-0.3,2-0.8c0.4-0.6,0.6-1.3,0.6-2.3
		c0-1.1-0.2-1.8-0.7-2.4c-0.4-0.5-1.1-0.8-2-0.8s-1.5,0.3-2,0.8c-0.4,0.5-0.7,1.3-0.7,2.4c0,1,0.2,1.7,0.7,2.3
		C240.8,527.5,241.5,527.8,242.3,527.8z"/>
	<path class="st3" d="M263.1,518.6c1.6,0,3,0.3,4.2,0.9s2.1,1.5,2.7,2.7s1,2.6,1,4.3v2.3h-11.3c0.1,1.3,0.5,2.4,1.2,3.2
		c0.8,0.8,1.8,1.2,3.2,1.2c1.1,0,2.1-0.1,3.1-0.3c0.9-0.2,1.9-0.6,2.9-1v3.7c-0.9,0.4-1.8,0.7-2.7,0.9c-0.9,0.2-2.1,0.3-3.4,0.3
		c-1.8,0-3.3-0.3-4.7-1c-1.4-0.6-2.4-1.6-3.2-3c-0.8-1.3-1.2-3-1.2-5s0.3-3.8,1-5.1c0.7-1.4,1.7-2.4,2.9-3.1
		S261.4,518.6,263.1,518.6z M263.1,522c-0.9,0-1.7,0.3-2.3,0.9c-0.6,0.6-1,1.5-1.1,2.8h6.7c0-0.7-0.1-1.3-0.4-1.9
		c-0.2-0.6-0.6-1-1.1-1.3S263.8,522,263.1,522z"/>
	<path class="st3" d="M286.2,518.6c1.9,0,3.4,0.5,4.5,1.5s1.7,2.7,1.7,4.9v11.4h-4.8v-10.2c0-1.3-0.2-2.2-0.7-2.8s-1.2-1-2.1-1
		c-1.5,0-2.5,0.5-3,1.5s-0.8,2.4-0.8,4.3v8.2h-4.8v-17.5h3.7l0.6,2.2h0.3c0.4-0.6,0.8-1.1,1.4-1.5s1.2-0.7,1.9-0.8
		S285.5,518.6,286.2,518.6z"/>
	<path class="st3" d="M306,518.6c1.6,0,3,0.3,4.2,0.9s2.1,1.5,2.7,2.7s1,2.6,1,4.3v2.3h-11.3c0.1,1.3,0.5,2.4,1.2,3.2
		c0.8,0.8,1.8,1.2,3.2,1.2c1.1,0,2.1-0.1,3.1-0.3c0.9-0.2,1.9-0.6,2.9-1v3.7c-0.9,0.4-1.8,0.7-2.7,0.9c-0.9,0.2-2.1,0.3-3.4,0.3
		c-1.8,0-3.3-0.3-4.7-1c-1.4-0.6-2.4-1.6-3.2-3c-0.8-1.3-1.2-3-1.2-5s0.3-3.8,1-5.1c0.7-1.4,1.7-2.4,2.9-3.1S304.4,518.6,306,518.6z
		 M306.1,522c-0.9,0-1.7,0.3-2.3,0.9c-0.6,0.6-1,1.5-1.1,2.8h6.7c0-0.7-0.1-1.3-0.4-1.9c-0.2-0.6-0.6-1-1.1-1.3S306.8,522,306.1,522
		z"/>
	<path class="st3" d="M329,518.6c0.2,0,0.5,0,0.8,0s0.6,0.1,0.8,0.1l-0.4,4.5c-0.2-0.1-0.4-0.1-0.7-0.1s-0.5,0-0.7,0
		c-0.6,0-1.2,0.1-1.8,0.2c-0.6,0.2-1.1,0.4-1.6,0.8c-0.5,0.3-0.8,0.8-1.1,1.4c-0.3,0.6-0.4,1.3-0.4,2.1v8.9h-4.8V519h3.6l0.7,2.9
		h0.2c0.3-0.6,0.8-1.1,1.3-1.6s1.1-0.9,1.8-1.2C327.5,518.8,328.2,518.6,329,518.6z"/>
	<path class="st3" d="M342.4,518.6c2.4,0,4.2,0.5,5.4,1.5s1.9,2.6,1.9,4.7v11.7h-3.3l-0.9-2.4h-0.1c-0.5,0.6-1,1.1-1.5,1.5
		s-1.1,0.7-1.8,0.9s-1.5,0.3-2.5,0.3s-2-0.2-2.8-0.6c-0.8-0.4-1.5-1-1.9-1.8c-0.5-0.8-0.7-1.9-0.7-3.1c0-1.9,0.7-3.2,2-4.1
		c1.3-0.9,3.3-1.4,5.9-1.5l3-0.1v-0.8c0-0.9-0.2-1.6-0.7-2s-1.2-0.6-2-0.6s-1.7,0.1-2.5,0.4c-0.8,0.2-1.6,0.5-2.4,0.9l-1.6-3.2
		c0.9-0.5,2-0.9,3.1-1.2C340,518.7,341.2,518.6,342.4,518.6z M345,528.4l-1.9,0.1c-1.5,0-2.6,0.3-3.2,0.8s-0.9,1.2-0.9,2
		c0,0.7,0.2,1.3,0.6,1.6s1,0.5,1.7,0.5c1,0,1.9-0.3,2.6-0.9c0.7-0.6,1.1-1.5,1.1-2.6L345,528.4L345,528.4z"/>
	<path class="st3" d="M363.5,533c0.5,0,1-0.1,1.5-0.2s1-0.2,1.5-0.4v3.6c-0.5,0.2-1.1,0.4-1.9,0.6s-1.6,0.2-2.5,0.2
		c-1,0-2-0.2-2.8-0.5s-1.5-0.9-2-1.8c-0.5-0.8-0.7-2-0.7-3.5v-8.5h-2.3v-2l2.6-1.6l1.4-3.7h3.1v3.7h4.9v3.6h-4.9v8.5
		c0,0.7,0.2,1.2,0.6,1.5C362.4,532.8,362.9,533,363.5,533z"/>
	<path class="st3" d="M387.4,527.7c0,1.5-0.2,2.8-0.6,3.9c-0.4,1.1-1,2.1-1.7,2.9c-0.7,0.8-1.6,1.4-2.7,1.8
		c-1.1,0.4-2.2,0.6-3.6,0.6c-1.2,0-2.4-0.2-3.4-0.6c-1-0.4-1.9-1-2.7-1.8c-0.8-0.8-1.3-1.7-1.8-2.9c-0.4-1.1-0.6-2.4-0.6-3.9
		c0-1.9,0.3-3.6,1-4.9c0.7-1.3,1.7-2.4,2.9-3.1c1.3-0.7,2.8-1.1,4.6-1.1c1.6,0,3.1,0.4,4.4,1.1c1.3,0.7,2.3,1.7,3,3.1
		C387.1,524.1,387.4,525.7,387.4,527.7z M375.3,527.7c0,1.2,0.1,2.1,0.4,2.9s0.6,1.4,1.2,1.8s1.2,0.6,2.1,0.6c0.8,0,1.5-0.2,2.1-0.6
		c0.5-0.4,0.9-1,1.2-1.8c0.2-0.8,0.4-1.8,0.4-2.9c0-1.2-0.1-2.1-0.4-2.9c-0.2-0.8-0.6-1.3-1.2-1.7s-1.2-0.6-2.1-0.6
		c-1.3,0-2.2,0.4-2.8,1.3C375.6,524.7,375.3,526,375.3,527.7z"/>
	<path class="st3" d="M402.6,518.6c0.2,0,0.5,0,0.8,0s0.6,0.1,0.8,0.1l-0.4,4.5c-0.2-0.1-0.4-0.1-0.7-0.1s-0.5,0-0.7,0
		c-0.6,0-1.2,0.1-1.8,0.2c-0.6,0.2-1.1,0.4-1.6,0.8c-0.5,0.3-0.8,0.8-1.1,1.4c-0.3,0.6-0.4,1.3-0.4,2.1v8.9h-4.8V519h3.6l0.7,2.9
		h0.2c0.3-0.6,0.8-1.1,1.3-1.6s1.1-0.9,1.8-1.2C401.1,518.8,401.8,518.6,402.6,518.6z"/>
	<path class="st3" d="M433.1,536.5l-1.3-6.1c-0.1-0.4-0.2-0.9-0.4-1.6c-0.2-0.7-0.3-1.5-0.5-2.3s-0.4-1.6-0.5-2.3
		c-0.2-0.7-0.3-1.2-0.4-1.5h-0.1c-0.1,0.3-0.2,0.8-0.3,1.5c-0.2,0.7-0.3,1.5-0.5,2.3s-0.4,1.6-0.5,2.3c-0.2,0.7-0.3,1.3-0.4,1.7
		l-1.4,6.1h-5.1l-5-17.5h4.8l2,7.8c0.1,0.5,0.3,1.2,0.4,1.9s0.2,1.5,0.3,2.2c0.1,0.7,0.2,1.2,0.2,1.7h0.1c0-0.3,0.1-0.7,0.1-1.2
		c0.1-0.5,0.1-1,0.2-1.6c0.1-0.5,0.2-1,0.3-1.5c0.1-0.4,0.1-0.7,0.2-0.9l2.2-8.4h5.3l2.1,8.4c0.1,0.3,0.2,0.8,0.3,1.4
		c0.1,0.7,0.2,1.3,0.3,2c0.1,0.7,0.1,1.2,0.2,1.6h0.1c0-0.4,0.1-0.9,0.2-1.6s0.2-1.4,0.4-2.2s0.3-1.4,0.4-2l2.1-7.8h4.7l-5,17.5
		L433.1,536.5L433.1,536.5z"/>
	<path class="st3" d="M454.8,518.6c1.6,0,3,0.3,4.2,0.9s2.1,1.5,2.7,2.7s1,2.6,1,4.3v2.3h-11.3c0.1,1.3,0.5,2.4,1.2,3.2
		c0.8,0.8,1.8,1.2,3.2,1.2c1.1,0,2.1-0.1,3.1-0.3c0.9-0.2,1.9-0.6,2.9-1v3.7c-0.9,0.4-1.8,0.7-2.7,0.9c-0.9,0.2-2.1,0.3-3.4,0.3
		c-1.8,0-3.3-0.3-4.7-1c-1.4-0.6-2.4-1.6-3.2-3c-0.8-1.3-1.2-3-1.2-5s0.3-3.8,1-5.1c0.7-1.4,1.7-2.4,2.9-3.1
		S453.2,518.6,454.8,518.6z M454.8,522c-0.9,0-1.7,0.3-2.3,0.9c-0.6,0.6-1,1.5-1.1,2.8h6.7c0-0.7-0.1-1.3-0.4-1.9
		c-0.2-0.6-0.6-1-1.1-1.3S455.6,522,454.8,522z"/>
	<path class="st3" d="M472.8,512.1v5.7c0,0.7,0,1.3-0.1,2c0,0.6-0.1,1.2-0.1,1.5h0.2c0.5-0.7,1.1-1.3,1.9-1.8s1.8-0.8,3.1-0.8
		c2,0,3.6,0.8,4.8,2.3c1.2,1.5,1.8,3.8,1.8,6.8c0,2-0.3,3.7-0.8,5s-1.4,2.4-2.4,3.1c-1,0.7-2.2,1-3.5,1s-2.3-0.2-3-0.7
		s-1.3-1-1.8-1.6h-0.3l-0.8,1.9H468v-24.4H472.8z M476.2,522.5c-0.8,0-1.5,0.2-2,0.5s-0.8,0.9-1.1,1.6c-0.2,0.7-0.3,1.6-0.4,2.6v0.5
		c0,1.7,0.3,3,0.8,3.9s1.4,1.4,2.7,1.4c1,0,1.8-0.5,2.3-1.4c0.6-0.9,0.9-2.2,0.9-3.9s-0.3-3-0.9-3.9
		C478,522.9,477.2,522.5,476.2,522.5z"/>
	<path class="st3" d="M502,531.3c0,1.2-0.3,2.2-0.8,3c-0.6,0.8-1.4,1.4-2.5,1.9c-1.1,0.4-2.5,0.6-4.1,0.6c-1.2,0-2.3-0.1-3.1-0.2
		c-0.9-0.2-1.8-0.4-2.6-0.8v-4c1,0.4,2,0.8,3.1,1.1s2.1,0.4,2.9,0.4c0.9,0,1.6-0.1,2-0.4c0.4-0.3,0.6-0.6,0.6-1.1
		c0-0.3-0.1-0.6-0.2-0.8c-0.2-0.2-0.5-0.5-1-0.8s-1.4-0.7-2.5-1.2s-2-0.9-2.7-1.4s-1.2-1-1.6-1.7c-0.3-0.6-0.5-1.5-0.5-2.5
		c0-1.6,0.6-2.8,1.9-3.7c1.3-0.8,2.9-1.2,5.1-1.2c1.1,0,2.1,0.1,3.1,0.3s2,0.6,3.1,1.1l-1.4,3.5c-0.9-0.4-1.7-0.7-2.5-0.9
		s-1.6-0.4-2.3-0.4c-0.7,0-1.2,0.1-1.6,0.3s-0.5,0.5-0.5,0.9c0,0.3,0.1,0.5,0.3,0.8c0.2,0.2,0.5,0.5,1.1,0.7s1.3,0.6,2.3,1
		s1.9,0.8,2.6,1.3s1.3,1,1.7,1.6C501.8,529.4,502,530.2,502,531.3z"/>
	<path class="st3" d="M509.6,512.1c0.7,0,1.3,0.2,1.8,0.5s0.8,0.9,0.8,1.8c0,0.9-0.3,1.5-0.8,1.8s-1.1,0.5-1.8,0.5
		c-0.7,0-1.3-0.2-1.8-0.5s-0.8-1-0.8-1.8c0-0.9,0.3-1.5,0.8-1.8C508.2,512.3,508.9,512.1,509.6,512.1z M512,519v17.5h-4.8V519H512z"
		/>
	<path class="st3" d="M525.8,533c0.5,0,1-0.1,1.5-0.2s1-0.2,1.5-0.4v3.6c-0.5,0.2-1.1,0.4-1.9,0.6s-1.6,0.2-2.5,0.2
		c-1,0-2-0.2-2.8-0.5s-1.5-0.9-2-1.8c-0.5-0.8-0.7-2-0.7-3.5v-8.5h-2.3v-2l2.6-1.6l1.4-3.7h3.1v3.7h4.9v3.6h-4.9v8.5
		c0,0.7,0.2,1.2,0.6,1.5C524.7,532.8,525.2,533,525.8,533z"/>
	<path class="st3" d="M541,518.6c1.6,0,3,0.3,4.2,0.9s2.1,1.5,2.7,2.7s1,2.6,1,4.3v2.3h-11.3c0.1,1.3,0.5,2.4,1.2,3.2
		c0.8,0.8,1.8,1.2,3.2,1.2c1.1,0,2.1-0.1,3.1-0.3c0.9-0.2,1.9-0.6,2.9-1v3.7c-0.9,0.4-1.8,0.7-2.7,0.9s-2.1,0.3-3.4,0.3
		c-1.8,0-3.3-0.3-4.7-1c-1.4-0.6-2.4-1.6-3.2-3c-0.8-1.3-1.2-3-1.2-5s0.3-3.8,1-5.1c0.7-1.4,1.7-2.4,2.9-3.1S539.4,518.6,541,518.6z
		 M541.1,522c-0.9,0-1.7,0.3-2.3,0.9c-0.6,0.6-1,1.5-1.1,2.8h6.7c0-0.7-0.1-1.3-0.4-1.9c-0.2-0.6-0.6-1-1.1-1.3S541.8,522,541.1,522
		z"/>
</g>
<g>
	<path class="st3" d="M167.7,414.9h-5.2v-25h14.3v4.3h-9.1v6.4h8.5v4.3h-8.5V414.9z"/>
	<path class="st3" d="M189.2,395.4c2.6,0,4.5,0.6,5.9,1.7c1.4,1.1,2.1,2.8,2.1,5.1v12.7h-3.6l-1-2.6h-0.1c-0.5,0.7-1.1,1.2-1.7,1.7
		c-0.6,0.4-1.2,0.8-2,1c-0.7,0.2-1.6,0.3-2.7,0.3c-1.1,0-2.1-0.2-3-0.6c-0.9-0.4-1.6-1.1-2.1-2c-0.5-0.9-0.8-2-0.8-3.4
		c0-2,0.7-3.5,2.1-4.5c1.4-1,3.6-1.5,6.4-1.6l3.3-0.1v-0.8c0-1-0.3-1.7-0.8-2.2c-0.5-0.5-1.3-0.7-2.2-0.7c-0.9,0-1.8,0.1-2.7,0.4
		c-0.9,0.3-1.8,0.6-2.7,1l-1.7-3.5c1-0.5,2.2-1,3.4-1.3S187.9,395.4,189.2,395.4z M192,406l-2,0.1c-1.7,0-2.9,0.3-3.5,0.9
		c-0.7,0.6-1,1.3-1,2.2c0,0.8,0.2,1.4,0.7,1.7c0.5,0.3,1.1,0.5,1.8,0.5c1.1,0,2.1-0.3,2.8-1c0.8-0.7,1.2-1.6,1.2-2.8V406z"/>
	<path class="st3" d="M210.4,415.2c-1.9,0-3.5-0.3-4.8-1c-1.3-0.7-2.3-1.8-3-3.2c-0.7-1.4-1-3.3-1-5.6c0-2.3,0.4-4.2,1.2-5.7
		s1.9-2.6,3.3-3.3c1.4-0.7,3-1,4.9-1c1.3,0,2.5,0.1,3.4,0.4c1,0.3,1.8,0.6,2.5,0.9l-1.5,4c-0.8-0.3-1.6-0.6-2.3-0.8
		c-0.7-0.2-1.4-0.3-2.1-0.3c-0.9,0-1.7,0.2-2.3,0.6c-0.6,0.4-1.1,1.1-1.4,1.9c-0.3,0.9-0.4,1.9-0.4,3.2c0,1.3,0.2,2.3,0.5,3.1
		c0.3,0.8,0.8,1.4,1.4,1.9c0.6,0.4,1.3,0.6,2.2,0.6c1.1,0,2-0.1,2.9-0.4c0.8-0.3,1.7-0.7,2.5-1.2v4.5c-0.8,0.5-1.6,0.9-2.5,1.1
		C212.8,415.1,211.7,415.2,210.4,415.2z"/>
	<path class="st3" d="M223.3,388.3c0.8,0,1.4,0.2,2,0.5c0.6,0.4,0.8,1,0.8,2c0,1-0.3,1.6-0.8,2c-0.6,0.4-1.2,0.6-2,0.6
		c-0.8,0-1.5-0.2-2-0.6s-0.8-1-0.8-2c0-1,0.3-1.6,0.8-2C221.9,388.5,222.6,388.3,223.3,388.3z M225.9,395.8v19.1h-5.2v-19.1H225.9z"
		/>
	<path class="st3" d="M239.3,395.4c2.6,0,4.5,0.6,5.9,1.7c1.4,1.1,2.1,2.8,2.1,5.1v12.7h-3.6l-1-2.6h-0.1c-0.5,0.7-1.1,1.2-1.7,1.7
		c-0.6,0.4-1.2,0.8-2,1c-0.7,0.2-1.6,0.3-2.7,0.3c-1.1,0-2.1-0.2-3-0.6c-0.9-0.4-1.6-1.1-2.1-2c-0.5-0.9-0.8-2-0.8-3.4
		c0-2,0.7-3.5,2.1-4.5c1.4-1,3.6-1.5,6.4-1.6l3.3-0.1v-0.8c0-1-0.3-1.7-0.8-2.2c-0.5-0.5-1.3-0.7-2.2-0.7c-0.9,0-1.8,0.1-2.7,0.4
		c-0.9,0.3-1.8,0.6-2.7,1l-1.7-3.5c1-0.5,2.2-1,3.4-1.3S238,395.4,239.3,395.4z M242.1,406l-2,0.1c-1.7,0-2.9,0.3-3.5,0.9
		c-0.7,0.6-1,1.3-1,2.2c0,0.8,0.2,1.4,0.7,1.7c0.5,0.3,1.1,0.5,1.8,0.5c1.1,0,2.1-0.3,2.8-1c0.8-0.7,1.2-1.6,1.2-2.8V406z"/>
	<path class="st3" d="M258,414.9h-5.2v-26.6h5.2V414.9z"/>
	<path class="st3" d="M287.5,414.9h-14.4v-25h14.4v4.3h-9.1v5.5h8.5v4.3h-8.5v6.4h9.1V414.9z"/>
	<path class="st3" d="M296.4,405.1l-6.2-9.3h5.9l3.7,6.1l3.7-6.1h5.9l-6.2,9.3l6.5,9.8h-5.9l-4-6.5l-4,6.5h-5.9L296.4,405.1z"/>
	<path class="st3" d="M323.4,395.4c2.2,0,3.9,0.8,5.2,2.5s2,4.1,2,7.4c0,2.2-0.3,4-0.9,5.5c-0.6,1.5-1.5,2.6-2.6,3.3
		c-1.1,0.8-2.4,1.1-3.8,1.1c-0.9,0-1.7-0.1-2.4-0.4c-0.7-0.2-1.2-0.5-1.7-0.9c-0.5-0.4-0.9-0.8-1.2-1.2h-0.3
		c0.1,0.5,0.2,0.9,0.2,1.4c0,0.5,0.1,0.9,0.1,1.4v7.7h-5.2v-27.5h4.2l0.7,2.5h0.2c0.3-0.5,0.8-1,1.2-1.4c0.5-0.4,1.1-0.8,1.8-1
		C321.7,395.5,322.5,395.4,323.4,395.4z M321.7,399.6c-0.9,0-1.6,0.2-2.2,0.6c-0.5,0.4-0.9,0.9-1.2,1.7c-0.2,0.8-0.4,1.7-0.4,2.9
		v0.6c0,1.2,0.1,2.3,0.4,3.1s0.6,1.5,1.2,1.9c0.6,0.4,1.3,0.7,2.3,0.7c0.8,0,1.5-0.2,2-0.7s0.9-1.1,1.2-2c0.3-0.9,0.4-1.9,0.4-3.2
		c0-1.9-0.3-3.3-0.9-4.2C323.9,400,323,399.6,321.7,399.6z"/>
	<path class="st3" d="M345.7,395.4c0.3,0,0.6,0,0.9,0c0.3,0,0.6,0.1,0.8,0.1l-0.4,4.9c-0.2-0.1-0.4-0.1-0.7-0.1s-0.6,0-0.8,0
		c-0.7,0-1.3,0.1-2,0.3c-0.6,0.2-1.2,0.4-1.7,0.8c-0.5,0.4-0.9,0.9-1.2,1.5c-0.3,0.6-0.4,1.4-0.4,2.3v9.7H335v-19.1h3.9l0.8,3.2h0.3
		c0.4-0.6,0.8-1.2,1.4-1.8c0.6-0.5,1.2-1,1.9-1.3C344.1,395.6,344.9,395.4,345.7,395.4z"/>
	<path class="st3" d="M358.9,395.4c1.8,0,3.3,0.3,4.6,1c1.3,0.7,2.3,1.7,3,2.9c0.7,1.3,1,2.9,1,4.7v2.5h-12.3
		c0.1,1.5,0.5,2.6,1.3,3.5c0.8,0.8,2,1.3,3.4,1.3c1.2,0,2.3-0.1,3.3-0.4c1-0.2,2.1-0.6,3.1-1.1v4c-0.9,0.5-1.9,0.8-3,1
		c-1,0.2-2.3,0.3-3.8,0.3c-1.9,0-3.6-0.4-5.1-1.1c-1.5-0.7-2.6-1.8-3.5-3.2c-0.8-1.4-1.3-3.3-1.3-5.5c0-2.2,0.4-4.1,1.1-5.6
		c0.8-1.5,1.8-2.6,3.2-3.3C355.5,395.8,357.1,395.4,358.9,395.4z M358.9,399.1c-1,0-1.9,0.3-2.5,1c-0.7,0.7-1.1,1.7-1.2,3.1h7.3
		c0-0.8-0.2-1.5-0.4-2.1c-0.3-0.6-0.7-1.1-1.2-1.4C360.4,399.3,359.8,399.1,358.9,399.1z"/>
	<path class="st3" d="M385.1,409.2c0,1.3-0.3,2.4-0.9,3.3c-0.6,0.9-1.5,1.6-2.7,2c-1.2,0.5-2.7,0.7-4.5,0.7c-1.3,0-2.5-0.1-3.4-0.3
		c-1-0.2-1.9-0.5-2.9-0.9v-4.3c1,0.5,2.2,0.9,3.3,1.2s2.2,0.5,3.1,0.5c1,0,1.7-0.2,2.2-0.5c0.4-0.3,0.7-0.7,0.7-1.2
		c0-0.3-0.1-0.6-0.3-0.9c-0.2-0.3-0.6-0.5-1.1-0.9c-0.6-0.3-1.5-0.7-2.7-1.3c-1.2-0.5-2.2-1-2.9-1.5c-0.8-0.5-1.3-1.1-1.7-1.8
		c-0.4-0.7-0.6-1.6-0.6-2.7c0-1.8,0.7-3.1,2.1-4c1.4-0.9,3.2-1.3,5.5-1.3c1.2,0,2.3,0.1,3.4,0.4c1.1,0.2,2.2,0.6,3.3,1.1l-1.6,3.8
		c-0.9-0.4-1.8-0.7-2.7-1c-0.8-0.3-1.7-0.4-2.6-0.4c-0.8,0-1.3,0.1-1.7,0.3c-0.4,0.2-0.6,0.5-0.6,0.9c0,0.3,0.1,0.6,0.3,0.8
		c0.2,0.2,0.6,0.5,1.2,0.8c0.6,0.3,1.4,0.7,2.5,1.1c1.1,0.4,2,0.9,2.8,1.4c0.8,0.5,1.4,1.1,1.8,1.8
		C384.9,407.1,385.1,408.1,385.1,409.2z"/>
	<path class="st3" d="M402.7,409.2c0,1.3-0.3,2.4-0.9,3.3c-0.6,0.9-1.5,1.6-2.7,2c-1.2,0.5-2.7,0.7-4.5,0.7c-1.3,0-2.5-0.1-3.4-0.3
		c-1-0.2-1.9-0.5-2.9-0.9v-4.3c1,0.5,2.2,0.9,3.3,1.2s2.2,0.5,3.1,0.5c1,0,1.7-0.2,2.2-0.5c0.4-0.3,0.7-0.7,0.7-1.2
		c0-0.3-0.1-0.6-0.3-0.9c-0.2-0.3-0.6-0.5-1.1-0.9c-0.6-0.3-1.5-0.7-2.7-1.3c-1.2-0.5-2.2-1-2.9-1.5c-0.8-0.5-1.3-1.1-1.7-1.8
		c-0.4-0.7-0.6-1.6-0.6-2.7c0-1.8,0.7-3.1,2.1-4c1.4-0.9,3.2-1.3,5.5-1.3c1.2,0,2.3,0.1,3.4,0.4c1.1,0.2,2.2,0.6,3.3,1.1l-1.6,3.8
		c-0.9-0.4-1.8-0.7-2.7-1c-0.8-0.3-1.7-0.4-2.6-0.4c-0.8,0-1.3,0.1-1.7,0.3c-0.4,0.2-0.6,0.5-0.6,0.9c0,0.3,0.1,0.6,0.3,0.8
		c0.2,0.2,0.6,0.5,1.2,0.8c0.6,0.3,1.4,0.7,2.5,1.1c1.1,0.4,2,0.9,2.8,1.4c0.8,0.5,1.4,1.1,1.8,1.8
		C402.4,407.1,402.7,408.1,402.7,409.2z"/>
	<path class="st3" d="M409.4,388.3c0.8,0,1.4,0.2,2,0.5c0.6,0.4,0.8,1,0.8,2c0,1-0.3,1.6-0.8,2c-0.6,0.4-1.2,0.6-2,0.6
		c-0.8,0-1.5-0.2-2-0.6s-0.8-1-0.8-2c0-1,0.3-1.6,0.8-2C408,388.5,408.7,388.3,409.4,388.3z M412,395.8v19.1h-5.2v-19.1H412z"/>
	<path class="st3" d="M435,405.3c0,1.6-0.2,3-0.6,4.2c-0.4,1.2-1,2.3-1.9,3.1c-0.8,0.8-1.8,1.5-2.9,1.9c-1.1,0.4-2.4,0.6-3.9,0.6
		c-1.3,0-2.6-0.2-3.7-0.6c-1.1-0.4-2.1-1.1-2.9-1.9c-0.8-0.8-1.5-1.9-1.9-3.1s-0.7-2.6-0.7-4.2c0-2.1,0.4-3.9,1.1-5.4
		s1.8-2.6,3.2-3.3c1.4-0.8,3-1.1,5-1.1c1.8,0,3.4,0.4,4.8,1.1c1.4,0.8,2.5,1.9,3.3,3.3C434.6,401.4,435,403.2,435,405.3z
		 M421.8,405.3c0,1.3,0.1,2.3,0.4,3.2s0.7,1.5,1.3,1.9c0.6,0.4,1.3,0.6,2.3,0.6c0.9,0,1.7-0.2,2.2-0.6c0.6-0.4,1-1.1,1.3-1.9
		c0.3-0.9,0.4-1.9,0.4-3.2c0-1.3-0.1-2.3-0.4-3.2c-0.3-0.8-0.7-1.5-1.3-1.9c-0.6-0.4-1.3-0.6-2.3-0.6c-1.4,0-2.4,0.5-3,1.4
		C422.1,402,421.8,403.4,421.8,405.3z"/>
	<path class="st3" d="M450.2,395.4c2,0,3.7,0.6,4.9,1.7c1.2,1.1,1.9,2.9,1.9,5.3v12.5h-5.2v-11.2c0-1.4-0.2-2.4-0.7-3.1
		c-0.5-0.7-1.3-1-2.3-1c-1.6,0-2.7,0.5-3.3,1.6c-0.6,1.1-0.9,2.6-0.9,4.7v9h-5.2v-19.1h4l0.7,2.4h0.3c0.4-0.7,0.9-1.2,1.5-1.6
		c0.6-0.4,1.3-0.7,2-0.9C448.7,395.5,449.4,395.4,450.2,395.4z"/>
	<path class="st3" d="M480.1,389.9c3.2,0,5.6,0.7,7.1,2.1c1.5,1.4,2.2,3.3,2.2,5.7c0,1.1-0.2,2.1-0.5,3.1c-0.3,1-0.9,1.9-1.6,2.7
		c-0.7,0.8-1.7,1.4-3,1.8c-1.2,0.5-2.8,0.7-4.6,0.7h-2.3v8.9h-5.3v-25H480.1z M479.8,394.2h-2.4v7.4h1.7c1,0,1.9-0.1,2.6-0.4
		c0.7-0.3,1.3-0.7,1.7-1.2c0.4-0.6,0.6-1.3,0.6-2.2c0-1.2-0.3-2.1-1-2.7C482.3,394.5,481.2,394.2,479.8,394.2z"/>
	<path class="st3" d="M501.6,395.4c2.6,0,4.5,0.6,5.9,1.7c1.4,1.1,2.1,2.8,2.1,5.1v12.7h-3.6l-1-2.6h-0.1c-0.5,0.7-1.1,1.2-1.7,1.7
		c-0.6,0.4-1.2,0.8-2,1c-0.7,0.2-1.6,0.3-2.7,0.3c-1.1,0-2.1-0.2-3-0.6c-0.9-0.4-1.6-1.1-2.1-2c-0.5-0.9-0.8-2-0.8-3.4
		c0-2,0.7-3.5,2.1-4.5c1.4-1,3.6-1.5,6.4-1.6l3.3-0.1v-0.8c0-1-0.3-1.7-0.8-2.2c-0.5-0.5-1.3-0.7-2.2-0.7c-0.9,0-1.8,0.1-2.7,0.4
		c-0.9,0.3-1.8,0.6-2.7,1l-1.7-3.5c1-0.5,2.2-1,3.4-1.3S500.3,395.4,501.6,395.4z M504.4,406l-2,0.1c-1.7,0-2.9,0.3-3.5,0.9
		c-0.7,0.6-1,1.3-1,2.2c0,0.8,0.2,1.4,0.7,1.7c0.5,0.3,1.1,0.5,1.8,0.5c1.1,0,2.1-0.3,2.8-1c0.8-0.7,1.2-1.6,1.2-2.8V406z"/>
	<path class="st3" d="M523.1,411.1c0.6,0,1.1-0.1,1.7-0.2c0.5-0.1,1.1-0.3,1.6-0.4v3.9c-0.6,0.2-1.2,0.5-2.1,0.6s-1.7,0.2-2.7,0.2
		c-1.1,0-2.2-0.2-3.1-0.6c-0.9-0.4-1.6-1-2.1-1.9c-0.5-0.9-0.8-2.2-0.8-3.8v-9.2h-2.5v-2.2l2.9-1.7l1.5-4h3.3v4.1h5.3v3.9h-5.3v9.2
		c0,0.7,0.2,1.3,0.6,1.6C521.8,410.9,522.4,411.1,523.1,411.1z"/>
	<path class="st3" d="M538.1,415.2c-1.9,0-3.5-0.3-4.8-1c-1.3-0.7-2.3-1.8-3-3.2c-0.7-1.4-1-3.3-1-5.6c0-2.3,0.4-4.2,1.2-5.7
		s1.9-2.6,3.3-3.3c1.4-0.7,3-1,4.9-1c1.3,0,2.5,0.1,3.4,0.4c1,0.3,1.8,0.6,2.5,0.9l-1.5,4c-0.8-0.3-1.6-0.6-2.3-0.8
		c-0.7-0.2-1.4-0.3-2.1-0.3c-0.9,0-1.7,0.2-2.3,0.6c-0.6,0.4-1.1,1.1-1.3,1.9c-0.3,0.9-0.4,1.9-0.4,3.2c0,1.3,0.2,2.3,0.5,3.1
		c0.3,0.8,0.8,1.4,1.4,1.9c0.6,0.4,1.3,0.6,2.2,0.6c1.1,0,2-0.1,2.9-0.4c0.8-0.3,1.7-0.7,2.5-1.2v4.5c-0.8,0.5-1.6,0.9-2.5,1.1
		C540.5,415.1,539.4,415.2,538.1,415.2z"/>
	<path class="st3" d="M553.6,388.3v5.4c0,0.9,0,1.8-0.1,2.7c-0.1,0.9-0.1,1.5-0.1,1.8h0.3c0.4-0.7,0.9-1.2,1.5-1.6
		c0.6-0.4,1.2-0.7,1.9-0.9c0.7-0.2,1.4-0.3,2.2-0.3c1.4,0,2.6,0.2,3.6,0.7c1,0.5,1.8,1.2,2.4,2.3c0.6,1,0.9,2.4,0.9,4v12.5h-5.2
		v-11.2c0-1.4-0.2-2.4-0.8-3.1c-0.5-0.7-1.3-1-2.3-1c-1,0-1.9,0.2-2.5,0.7c-0.6,0.5-1,1.2-1.3,2.1c-0.2,0.9-0.4,2.1-0.4,3.4v9h-5.2
		v-26.6H553.6z"/>
</g>
</svg>
