<svg xmlns="http://www.w3.org/2000/svg" viewBox="0 0 1919.84 1039.88" xmlns:v="https://vecta.io/nano"><path d="M0,0H1919.84a0,0,0,0,1,0,0V986a53.87,53.87,0,0,1-53.87,53.87H53.87A53.87,53.87,0,0,1,0,986V0A0,0,0,0,1,0,0Z" fill="#303089" opacity="0"/><path d="M51.51 246.32v27h19.16v16.86H51.51v46.6H34.64V229.46H79.1v16.86zm74.19 73.43h-19.32l-3.06 17H86.15l21.46-107.3h16.86l21.45 107.31h-17.16zm-2.92-16.87l-6.74-38.47-6.75 38.47zM186.55 338q-10.73 0-17.78-6.29-7.66-7.67-7.66-20.08v-57q0-12.42 7.66-20.08 7.05-6.28 17.78-6.29 11 0 17.78 6.29 7.67 7.35 7.67 20.08v9.5h-16.86v-9.5q0-5.67-2.15-7.67-2-1.83-6.44-1.83c-2.86 0-5 .61-6.28 1.83-1.54 1.44-2.3 4-2.3 7.67v57c0 3.68.76 6.24 2.3 7.67 1.32 1.22 3.42 1.84 6.28 1.84s5.11-.62 6.44-1.84 2.15-3.89 2.15-7.67v-13.8H212v13.79q0 12.72-7.67 20.08-6.75 6.3-17.78 6.3zm61.62-1.24h-16.86v-107.3h16.86zm56.75-17.01h-19.35l-3.06 17h-17.17l21.46-107.3h16.86l21.46 107.3h-17.2zM302 302.88l-6.74-38.47-6.75 38.47zm84.92 33.88h-44.48v-107.3h16.86v90.44h27.62zm66.8-90.44v27h19v16.86h-19v29.72h27.6v16.86h-44.46v-107.3h44.46v16.86zm84.92 90.44l-12-31.73-11.72 31.73h-18l20-53.5-20-53.8h18l11.81 31.73 11.8-31.73h18.09l-20.08 53.8 20.08 53.5zm52.28 0h-16.87v-107.3h25.45q10.88 0 17.78 6.44 7.67 7 7.66 19.93v11.64q0 13-7.66 20.09-6.75 6.29-17.78 6.28h-8.58zm0-59.76h8.59q4.29 0 6.28-1.84 2.29-2.14 2.3-7.67v-11.66q0-5.37-2.3-7.67-2-1.84-6.28-1.84h-8.59zm102.69 59.76h-17.16l-8.74-43.07h-7.67v43.07h-16.86v-107.3h25.45q10.88 0 17.78 6.44 7.66 7 7.66 19.93v11.49q0 13-7.66 20.08a15.74 15.74 0 0 1-2.45 2zm-16.4-80.93c0-3.58-.76-6.14-2.3-7.67q-2-1.84-6.28-1.84h-8.59v30.51h8.59c2.86 0 4.95-.62 6.28-1.84 1.54-1.43 2.3-4 2.3-7.67zm52.71-9.51v27h19v16.86h-19v29.72h27.59v16.86h-44.43v-107.3h44.45v16.86zM799.99 338q-11 0-17.78-6.29-7.66-7.35-7.67-20.08v-13.96h16.87v13.95c0 3.68.76 6.24 2.3 7.67 1.32 1.22 3.42 1.84 6.28 1.84s5.06-.62 6.29-1.84q2.29-2 2.29-7.67v-6.74a16.17 16.17 0 0 0-5.65-12.27 49.83 49.83 0 0 0-6.44-4 59 59 0 0 1-10.56-6.73 33.92 33.92 0 0 1-8.43-11.19 31.67 31.67 0 0 1-2.92-13.49v-2.6q0-12.72 7.67-20.08 6.74-6.28 17.78-6.29 11.04-.01 17.78 6.29 7.67 7.35 7.67 20.08v9.4h-16.9v-9.4q0-5.67-2.29-7.67-1.85-1.83-6.29-1.83c-2.86 0-5 .61-6.28 1.83-1.54 1.44-2.3 4-2.3 7.67v2.6a15.67 15.67 0 0 0 5.67 12.11 47.09 47.09 0 0 0 6 3.68q8 4.31 11 7.05 11.34 10.13 11.35 24.84v6.74q0 12.72-7.67 20.08-6.74 6.3-17.77 6.3zm67.29 0q-11 0-17.78-6.29-7.67-7.35-7.66-20.08v-13.96h16.86v13.95c0 3.68.76 6.24 2.3 7.67 1.32 1.22 3.42 1.84 6.28 1.84s5.06-.62 6.29-1.84q2.29-2 2.3-7.67v-6.74a16.18 16.18 0 0 0-5.68-12.27 50.2 50.2 0 0 0-6.43-4 59.12 59.12 0 0 1-10.58-6.75 33.92 33.92 0 0 1-8.43-11.19 31.66 31.66 0 0 1-2.91-13.49v-2.6q0-12.72 7.66-20.08 6.75-6.28 17.78-6.29 11.03-.01 17.78 6.29 7.67 7.35 7.67 20.08V264h-16.81v-9.4q0-5.67-2.3-7.67-1.85-1.83-6.29-1.83c-2.86 0-5 .61-6.28 1.83-1.54 1.44-2.3 4-2.3 7.67v2.6a15.67 15.67 0 0 0 5.67 12.11 47.09 47.09 0 0 0 6 3.68q8 4.31 11 7.05 11.35 10.13 11.35 24.84v6.74q0 12.72-7.67 20.08-6.79 6.3-17.82 6.3zm61.16-1.24h-16.86v-107.3h16.86zm45.37 1.24q-11 0-17.78-6.29-7.67-7.35-7.66-20.08v-57q0-12.72 7.66-20.08 6.75-6.28 17.78-6.29 11.03-.01 17.78 6.29 7.67 7.35 7.67 20.08v57q0 12.72-7.67 20.08-6.75 6.29-17.78 6.29zm0-92.89c-2.86 0-5 .61-6.28 1.83-1.53 1.44-2.3 4-2.3 7.67v57q0 5.52 2.3 7.67c1.32 1.22 3.42 1.84 6.28 1.84s5.06-.62 6.29-1.84q2.3-2 2.3-7.67v-57q0-5.67-2.3-7.67-1.84-1.84-6.29-1.84zm97.19 91.65h-9.82l-25.75-54.42v54.42h-16.86v-107.3h9.81l25.75 54.26v-54.26H1071zm43.68 1.24q-11 0-17.78-6.29-7.67-7.35-7.67-20.08v-13.96h16.87v13.95c0 3.68.76 6.24 2.3 7.67 1.32 1.22 3.42 1.84 6.28 1.84s5.06-.62 6.28-1.84c1.54-1.33 2.3-3.89 2.3-7.67v-6.74a16.17 16.17 0 0 0-5.67-12.27 49.83 49.83 0 0 0-6.44-4 59 59 0 0 1-10.57-6.75 33.92 33.92 0 0 1-8.43-11.19 31.52 31.52 0 0 1-2.92-13.49v-2.6q0-12.72 7.67-20.08 6.74-6.28 17.78-6.29 11.04-.01 17.78 6.29 7.67 7.35 7.67 20.08V264h-16.87v-9.4c0-3.78-.76-6.34-2.3-7.67-1.22-1.22-3.32-1.83-6.28-1.83s-5 .61-6.28 1.83c-1.54 1.44-2.3 4-2.3 7.67v2.6a15.67 15.67 0 0 0 5.67 12.11 47.09 47.09 0 0 0 6 3.68q8 4.31 11 7.05 11.34 10.13 11.35 24.84v6.74q0 12.72-7.67 20.08-6.74 6.3-17.77 6.3zM96.25 375.43h988.85v10H96.25z" fill="#3367db"/><path d="M98.49 404.46h5.54q3.78 0 5.49 1.21a4.39 4.39 0 0 1 1.71 3.85 5.3 5.3 0 0 1-.75 2.94 3 3 0 0 1-2 1.38v.16a3.84 3.84 0 0 1 2.43 1.58 5.65 5.65 0 0 1 .75 3.09 5.37 5.37 0 0 1-1.75 4.27 7.05 7.05 0 0 1-4.78 1.53h-6.64zm3.78 7.92h2.19a3.62 3.62 0 0 0 2.22-.54 2.1 2.1 0 0 0 .68-1.76 1.86 1.86 0 0 0-.74-1.65 4.4 4.4 0 0 0-2.37-.5h-2zm0 3.36V421h2.45a3.38 3.38 0 0 0 2.3-.67 2.62 2.62 0 0 0 .75-2c0-1.66-1.06-2.49-3.17-2.49zm10.73-6.58h4.06l2.57 8.6a13.12 13.12 0 0 1 .45 2.65h.07a13.1 13.1 0 0 1 .52-2.65l2.52-8.6h4l-5.77 17.24a7.46 7.46 0 0 1-2.26 3.58 5.25 5.25 0 0 1-3.43 1.19 7.45 7.45 0 0 1-1.88-.23v-3.31a5.56 5.56 0 0 0 1.46.18 2.42 2.42 0 0 0 1.72-.68 4.51 4.51 0 0 0 1.15-2l.22-.75zm22.92 15.29v-20h3.78v20zm15.51-15.57a5.54 5.54 0 0 1 1.26.12l-.28 3.91a3.87 3.87 0 0 0-1.1-.14 3.66 3.66 0 0 0-2.77 1 4 4 0 0 0-1 2.87v7.78h-3.71v-15.26h2.81l.55 2.57h.18a5.6 5.6 0 0 1 1.71-2.07 3.92 3.92 0 0 1 2.35-.78zm11.25 3.41h-3.22v12.16h-3.71v-12.16h-2v-2l2-1.12V408a5.34 5.34 0 0 1 1.15-3.81 4.86 4.86 0 0 1 3.66-1.2 8.58 8.58 0 0 1 3.42.64l-.95 3.06a6.39 6.39 0 0 0-2.07-.4 1.26 1.26 0 0 0-1.14.53 2.34 2.34 0 0 0-.36 1.35v1h3.22zm10.76 12.16l-.71-2.08h-.1a5.78 5.78 0 0 1-1.93 1.84 5.65 5.65 0 0 1-2.59.51 3.92 3.92 0 0 1-3.08-1.26 5.18 5.18 0 0 1-1.13-3.58 4.23 4.23 0 0 1 1.52-3.59 8 8 0 0 1 4.57-1.27l2.36-.09v-.67c0-1.55-.71-2.32-2.12-2.32a8.78 8.78 0 0 0-3.83 1.11l-1.23-2.82a10.07 10.07 0 0 1 5.21-1.38 6 6 0 0 1 4.19 1.34 5.23 5.23 0 0 1 1.46 4.07v10.19zm-1.09-7.08l-1.44.05a4.25 4.25 0 0 0-2.41.66 2.17 2.17 0 0 0-.79 1.83 1.57 1.57 0 0 0 1.8 1.76 2.72 2.72 0 0 0 2.07-.83 3.17 3.17 0 0 0 .77-2.22zm20.06 7.08h-3.71v-8.93a4.7 4.7 0 0 0-.52-2.48 1.84 1.84 0 0 0-1.67-.83 2.41 2.41 0 0 0-2.25 1.17 8 8 0 0 0-.69 3.88v7.19h-3.71v-15.29h2.83l.5 2h.21a4.07 4.07 0 0 1 1.71-1.68 5.35 5.35 0 0 1 2.47-.56 4.47 4.47 0 0 1 3.6 1.44 6.24 6.24 0 0 1 1.23 4.16zm7.51 0h-3.71v-21.27h3.71zm10.07.27a6.56 6.56 0 0 1-5.13-2 8.27 8.27 0 0 1-1.85-5.76 9.19 9.19 0 0 1 1.71-5.96 5.78 5.78 0 0 1 4.73-2.09 5.65 5.65 0 0 1 4.49 1.84 7.51 7.51 0 0 1 1.6 5.1v2h-8.77a4.27 4.27 0 0 0 .94 2.77 3.07 3.07 0 0 0 2.45 1 9.24 9.24 0 0 0 2.33-.29 10.57 10.57 0 0 0 2.28-.92v3.23a7.5 7.5 0 0 1-2.08.81 11.48 11.48 0 0 1-2.7.27zm-.52-12.88a2.24 2.24 0 0 0-1.85.84 4.21 4.21 0 0 0-.77 2.39h5.21a3.68 3.68 0 0 0-.72-2.39 2.29 2.29 0 0 0-1.87-.84zm18.58 8.07a4.45 4.45 0 0 1-1.45 3.58 6.6 6.6 0 0 1-4.35 1.23 12.37 12.37 0 0 1-2.54-.22 8.8 8.8 0 0 1-1.95-.67v-3.44a11.78 11.78 0 0 0 2.33.91 8.27 8.27 0 0 0 2.28.37c1.34 0 2-.44 2-1.31a1.17 1.17 0 0 0-.27-.8 3.81 3.81 0 0 0-.93-.7c-.43-.26-1-.56-1.75-.91a10.65 10.65 0 0 1-2.3-1.36 3.73 3.73 0 0 1-1.07-1.45 5.13 5.13 0 0 1-.34-2 3.78 3.78 0 0 1 1.41-3.15 6.27 6.27 0 0 1 4-1.11 10.29 10.29 0 0 1 4.78 1.2l-1.12 3a18.09 18.09 0 0 0-1.91-.81 5.34 5.34 0 0 0-1.81-.31c-1.09 0-1.64.33-1.64 1a1.17 1.17 0 0 0 .53 1 13 13 0 0 0 2.32 1.22 10.51 10.51 0 0 1 2.33 1.36 3.88 3.88 0 0 1 1.1 1.44 5 5 0 0 1 .35 1.93zm15.45 4.54h-3.71v-8.93a4.7 4.7 0 0 0-.52-2.48 1.84 1.84 0 0 0-1.67-.83 2.41 2.41 0 0 0-2.25 1.17 8 8 0 0 0-.69 3.88v7.19h-3.74v-15.29h2.84l.5 2h.21a4.11 4.11 0 0 1 1.7-1.68 5.42 5.42 0 0 1 2.48-.56 4.47 4.47 0 0 1 3.6 1.44 6.24 6.24 0 0 1 1.23 4.16zm12.42 0l-.72-2.08h-.1a4.71 4.71 0 0 1-4.51 2.35 3.92 3.92 0 0 1-3.08-1.26 5.18 5.18 0 0 1-1.13-3.58 4.23 4.23 0 0 1 1.52-3.59 8 8 0 0 1 4.56-1.27l2.37-.09v-.67c0-1.55-.71-2.32-2.12-2.32a8.74 8.74 0 0 0-3.83 1.11l-1.23-2.82a10.06 10.06 0 0 1 5.2-1.38 6 6 0 0 1 4.2 1.34 5.23 5.23 0 0 1 1.46 4.07v10.19zm-1-7.08l-1.44.05a4.25 4.25 0 0 0-2.41.66 2.14 2.14 0 0 0-.79 1.83 1.57 1.57 0 0 0 1.8 1.76 2.68 2.68 0 0 0 2.06-.83 3.13 3.13 0 0 0 .78-2.22zm15-8.49a5.48 5.48 0 0 1 1.26.12l-.28 3.91a3.87 3.87 0 0 0-1.1-.14 3.64 3.64 0 0 0-2.76 1 3.92 3.92 0 0 0-1 2.87v7.78h-3.71v-15.26h2.81l.55 2.57h.23a5.6 5.6 0 0 1 1.71-2.07 3.92 3.92 0 0 1 2.29-.78zM894.2 909a5.45 5.45 0 0 1-1.74 4.27 7 7 0 0 1-4.82 1.55 10.32 10.32 0 0 1-5-1.2v-3.94a19.13 19.13 0 0 0 3.05 1.28 8.27 8.27 0 0 0 2.28.36 2.93 2.93 0 0 0 1.9-.53 1.88 1.88 0 0 0 .67-1.58 1.92 1.92 0 0 0-.29-1.05 3.39 3.39 0 0 0-.86-.88 24 24 0 0 0-2.31-1.36 10.42 10.42 0 0 1-2.44-1.65 6.09 6.09 0 0 1-1.31-1.85 5.87 5.87 0 0 1-.48-2.46 5.45 5.45 0 0 1 1.6-4.16 6.12 6.12 0 0 1 4.42-1.52 9.22 9.22 0 0 1 2.65.37 16.08 16.08 0 0 1 2.63 1l-1.23 3.35a16.72 16.72 0 0 0-2.35-.92 6.91 6.91 0 0 0-1.83-.26 2.26 2.26 0 0 0-1.64.56 2 2 0 0 0-.58 1.47 1.89 1.89 0 0 0 .24 1 2.71 2.71 0 0 0 .73.81 22.37 22.37 0 0 0 2.39 1.4 9.56 9.56 0 0 1 3.42 2.69 5.68 5.68 0 0 1 .9 3.25zm10.4 5.83a4.34 4.34 0 0 1-3.76-2h-.2l.2 2.21v6.2h-3.71v-22h3l.52 2h.17a4.19 4.19 0 0 1 3.86-2.27 4.29 4.29 0 0 1 3.77 2.09 10.58 10.58 0 0 1 1.36 5.81 12.63 12.63 0 0 1-.64 4.25 5.86 5.86 0 0 1-1.82 2.75 4.28 4.28 0 0 1-2.75.96zm-1.1-12.5a2.21 2.21 0 0 0-2 .95 6 6 0 0 0-.66 3.13v.45a7.13 7.13 0 0 0 .65 3.53 2.24 2.24 0 0 0 2.06 1.07q2.5 0 2.5-4.62a7.31 7.31 0 0 0-.62-3.39 2 2 0 0 0-1.93-1.12zm18.04 12.23l-.72-2.08h-.1a4.74 4.74 0 0 1-4.51 2.35 3.92 3.92 0 0 1-3.09-1.25 5.22 5.22 0 0 1-1.12-3.59 4.21 4.21 0 0 1 1.51-3.58 8 8 0 0 1 4.57-1.28l2.36-.08v-.67c0-1.55-.7-2.33-2.12-2.33a8.81 8.81 0 0 0-3.83 1.11l-1.23-2.82a10.1 10.1 0 0 1 5.21-1.38 6 6 0 0 1 4.2 1.34 5.29 5.29 0 0 1 1.46 4.08v10.18zm-1.1-7.08h-1.43a4.22 4.22 0 0 0-2.41.66 2.14 2.14 0 0 0-.79 1.83 1.58 1.58 0 0 0 1.8 1.77 2.67 2.67 0 0 0 2.06-.84 3.13 3.13 0 0 0 .77-2.21zm15.1-8.48a5.45 5.45 0 0 1 1.25.12l-.28 3.91a3.83 3.83 0 0 0-1.09-.13 3.68 3.68 0 0 0-2.77 1 4 4 0 0 0-1 2.87v7.78h-3.73v-15.27h2.81l.55 2.57h.18a5.45 5.45 0 0 1 1.71-2.07 3.86 3.86 0 0 1 2.37-.78zm7.29 7.25l1.62-2.32 3.8-4.65h4.19l-5.4 6.63 5.73 8.65h-4.28l-3.92-6.19-1.6 1.43v4.76h-3.71v-21.27h3.71v9.49l-.19 3.47zm29.54 8.31l-1.29-4.76h-6.49l-1.28 4.76h-4.07l6.28-20.07h4.61l6.3 20.07zm-2.19-8.31q-1.78-6.46-2-7.32l-.33-1.33-2.3 8.65zm12.26.64v7.67h-3.77v-20h5.19q3.62 0 5.36 1.49a5.59 5.59 0 0 1 1.74 4.5 5.67 5.67 0 0 1-3.31 5.29q4 6.75 5.23 8.71h-4.18l-4.25-7.67zm0-3.44h1.22a4.3 4.3 0 0 0 2.64-.67 2.52 2.52 0 0 0 .85-2.11 2.27 2.27 0 0 0-.87-2 4.8 4.8 0 0 0-2.69-.6h-1.15zm28.35 6.55a4.42 4.42 0 0 1-1.45 3.58 6.6 6.6 0 0 1-4.35 1.23 12.27 12.27 0 0 1-2.53-.22 8.86 8.86 0 0 1-2-.66v-3.43a12 12 0 0 0 2.33.92 8.67 8.67 0 0 0 2.28.37c1.35 0 2-.44 2-1.32a1.17 1.17 0 0 0-.27-.8 4 4 0 0 0-.92-.69 17.76 17.76 0 0 0-1.75-.91 10.49 10.49 0 0 1-2.31-1.37 3.77 3.77 0 0 1-1.07-1.44 5.33 5.33 0 0 1-.33-2 3.8 3.8 0 0 1 1.4-3.16 6.32 6.32 0 0 1 4-1.11 10.32 10.32 0 0 1 4.78 1.2l-1.12 3a19 19 0 0 0-1.91-.81 5.4 5.4 0 0 0-1.82-.31c-1.09 0-1.64.33-1.64 1a1.22 1.22 0 0 0 .53 1 14.17 14.17 0 0 0 2.32 1.22 10.5 10.5 0 0 1 2.34 1.35 4 4 0 0 1 1.09 1.45 4.82 4.82 0 0 1 .4 1.91zm8.63 1.51a7.26 7.26 0 0 0 2.34-.48v3.11a7.62 7.62 0 0 1-3.41.69 3.9 3.9 0 0 1-3.24-1.26 6 6 0 0 1-1-3.79v-7.37h-1.78v-1.77l2.05-1.39 1.07-3.23h2.37v3.26h3.81v3.13h-3.81v7.37a1.72 1.72 0 0 0 .45 1.31 1.61 1.61 0 0 0 1.15.42zm14.72 3.05l-.5-1.95h-.19a4 4 0 0 1-1.69 1.64 5.21 5.21 0 0 1-2.5.58 4.47 4.47 0 0 1-3.61-1.44 6.26 6.26 0 0 1-1.22-4.15v-10h3.71v8.92a4.67 4.67 0 0 0 .53 2.48 1.8 1.8 0 0 0 1.66.83 2.41 2.41 0 0 0 2.25-1.17 7.89 7.89 0 0 0 .7-3.87v-7.19h3.71v15.28zm11.05.27a4.28 4.28 0 0 1-3.77-2.09 13 13 0 0 1 0-11.65 4.38 4.38 0 0 1 3.84-2.1 4.31 4.31 0 0 1 3.91 2.24h.13a18.65 18.65 0 0 1-.28-3.05v-4.89h3.72v21.27h-2.82l-.72-2h-.15a4.15 4.15 0 0 1-3.86 2.27zm1.3-3.32a2.39 2.39 0 0 0 2.09-.93 5.92 5.92 0 0 0 .72-3.15V907a6.86 6.86 0 0 0-.67-3.52 2.41 2.41 0 0 0-2.2-1.07 2.13 2.13 0 0 0-1.93 1.18 7 7 0 0 0-.68 3.44 6.57 6.57 0 0 0 .69 3.38 2.18 2.18 0 0 0 1.98 1.1zm10-16.18a2 2 0 1 1 4 0 2.17 2.17 0 0 1-.5 1.51 2 2 0 0 1-1.52.54 1.8 1.8 0 0 1-1.98-2.05zm3.87 19.23h-3.71v-15.28h3.71zm16.26-7.67a8.9 8.9 0 0 1-1.75 5.84 6 6 0 0 1-4.88 2.1 6.27 6.27 0 0 1-3.46-1 6.15 6.15 0 0 1-2.3-2.77 10.33 10.33 0 0 1-.8-4.21 8.79 8.79 0 0 1 1.74-5.82 6 6 0 0 1 4.89-2.08 6.21 6.21 0 0 1 3.45 1 6.11 6.11 0 0 1 2.3 2.74 10.15 10.15 0 0 1 .81 4.2zm-9.41 0a7.09 7.09 0 0 0 .66 3.43 2.31 2.31 0 0 0 2.17 1.16 2.25 2.25 0 0 0 2.13-1.15 7.24 7.24 0 0 0 .65-3.44 6.9 6.9 0 0 0-.66-3.4 2.59 2.59 0 0 0-4.29 0 6.92 6.92 0 0 0-.66 3.4zm30.13 7.67l-1.29-4.76h-6.49l-1.29 4.76h-4.06l6.28-20.07h4.61l6.3 20.07zm-2.19-8.31l-2-7.32-.32-1.33-2.3 8.65zm17.69 3.75a4.42 4.42 0 0 1-1.46 3.58 6.59 6.59 0 0 1-4.34 1.23 12.3 12.3 0 0 1-2.54-.22 9 9 0 0 1-2-.66v-3.43a12 12 0 0 0 2.33.92 8.8 8.8 0 0 0 2.29.37c1.34 0 2-.44 2-1.32a1.17 1.17 0 0 0-.27-.8 4.1 4.1 0 0 0-.93-.69 19 19 0 0 0-1.75-.91 10.62 10.62 0 0 1-2.3-1.37 3.77 3.77 0 0 1-1.07-1.44 5.13 5.13 0 0 1-.34-2 3.81 3.81 0 0 1 1.41-3.16 6.27 6.27 0 0 1 4-1.11 10.29 10.29 0 0 1 4.78 1.2l-1.12 3a19 19 0 0 0-1.91-.81 5.34 5.34 0 0 0-1.81-.31c-1.1 0-1.64.33-1.64 1a1.2 1.2 0 0 0 .53 1 13.93 13.93 0 0 0 2.31 1.22 10.05 10.05 0 0 1 2.34 1.35 4 4 0 0 1 1.1 1.45 5 5 0 0 1 .39 1.91zm12.39 0a4.42 4.42 0 0 1-1.46 3.58 6.6 6.6 0 0 1-4.35 1.23 12.27 12.27 0 0 1-2.53-.22 8.86 8.86 0 0 1-2-.66v-3.43a12 12 0 0 0 2.33.92 8.8 8.8 0 0 0 2.28.37c1.35 0 2-.44 2-1.32a1.17 1.17 0 0 0-.27-.8 3.79 3.79 0 0 0-.92-.69 17.76 17.76 0 0 0-1.75-.91 10.49 10.49 0 0 1-2.31-1.37 3.77 3.77 0 0 1-1.07-1.44 5.33 5.33 0 0 1-.33-2 3.83 3.83 0 0 1 1.4-3.16 6.32 6.32 0 0 1 4-1.11 10.29 10.29 0 0 1 4.78 1.2l-1.12 3a19 19 0 0 0-1.91-.81 5.38 5.38 0 0 0-1.81-.31c-1.1 0-1.65.33-1.65 1a1.22 1.22 0 0 0 .53 1 14.63 14.63 0 0 0 2.32 1.22 10.5 10.5 0 0 1 2.34 1.35 3.89 3.89 0 0 1 1.09 1.45 4.81 4.81 0 0 1 .41 1.91zm9.05 4.83a6.58 6.58 0 0 1-5.14-2 8.3 8.3 0 0 1-1.85-5.77 9.18 9.18 0 0 1 1.71-5.94 5.77 5.77 0 0 1 4.73-2.1 5.61 5.61 0 0 1 4.49 1.85 7.51 7.51 0 0 1 1.61 5.09v2h-8.78a4.3 4.3 0 0 0 .94 2.77 3.08 3.08 0 0 0 2.46 1 8.73 8.73 0 0 0 2.32-.29 10.79 10.79 0 0 0 2.29-.91v3.22a8 8 0 0 1-2.08.82 11.65 11.65 0 0 1-2.7.26zm-.53-12.87a2.25 2.25 0 0 0-1.85.84 4.18 4.18 0 0 0-.76 2.38h5.21a3.77 3.77 0 0 0-.72-2.38 2.32 2.32 0 0 0-1.88-.8zm14.82 9.55a7.26 7.26 0 0 0 2.35-.51v3.11a7.59 7.59 0 0 1-3.41.69 3.93 3.93 0 0 1-3.24-1.26 6 6 0 0 1-1-3.79v-7.37h-1.78v-1.77l2-1.39 1.07-3.23h2.36v3.26h3.8v3.13h-3.8v7.37a1.72 1.72 0 0 0 .44 1.31 1.65 1.65 0 0 0 1.21.45z" fill="#5791f7"/></svg>