<svg xmlns="http://www.w3.org/2000/svg" xmlns:xlink="http://www.w3.org/1999/xlink" viewBox="0 0 1920 1296" xmlns:v="https://vecta.io/nano"><path d="M1865.6 1041.6H53.5c-29.8 0-53.9-24.1-53.9-53.9V1.7h1919.8v986c.1 29.8-24 53.9-53.8 53.9z" fill="#303089"/><g opacity=".36"><defs><path id="A" d="M1866 1041.6H53.1c-29.5 0-53.5-23.9-53.5-53.5V0h1919.8v988.2c.1 29.5-23.9 53.4-53.4 53.4z" opacity=".36"/><path id="B" d="M1359.1 712.7h-3.2v-18.6h3.2v18.6z"/><path id="C" d="M1373.1 699.3h3.5l2.2 7.5c.2.7.3 1.4.4 2.3h.1c.1-.8.2-1.6.5-2.3l2.2-7.5h3.5l-5 15.1c-.5 1.4-1.1 2.4-2 3.1s-1.8 1-3 1c-.6 0-1.1-.1-1.6-.2v-2.9c.4.1.8.2 1.3.2.6 0 1.1-.2 1.5-.6s.8-1 1-1.8l.2-.7-4.8-13.2z"/><path id="D" d="M1398 706c0 2.2-.5 3.9-1.5 5.1s-2.4 1.8-4.3 1.8c-1.1 0-2.1-.3-3-.8-.9-.6-1.5-1.4-2-2.4-.5-1.1-.7-2.3-.7-3.7 0-2.2.5-3.9 1.5-5.1s2.4-1.8 4.3-1.8c1.1 0 2.1.3 3 .8.9.6 1.5 1.4 2 2.4.5 1.1.7 2.3.7 3.7zm-8.2 0c0 1.3.2 2.3.6 3s1 1 1.9 1 1.5-.3 1.9-1 .6-1.7.6-3-.2-2.3-.6-3-1-1-1.9-1-1.5.3-1.9 1-.6 1.7-.6 3z"/><path id="E" d="M1409.1 712.7l-.4-1.7h-.2a2.94 2.94 0 0 1-1.5 1.4c-.6.3-1.4.5-2.2.5-1.4 0-2.4-.4-3.2-1.3-.7-.8-1.1-2-1.1-3.6v-8.7h3.2v7.8c0 1 .2 1.7.5 2.2s.8.7 1.5.7c.9 0 1.6-.3 2-1s.6-1.8.6-3.4v-6.3h3.2v13.3h-2.4z"/><path id="F" d="M1431.6 712.7h-3.2v-7.8c0-1.9-.6-2.9-1.9-2.9-.9 0-1.6.3-2 1s-.6 1.8-.6 3.4v6.3h-3.2v-18.6h3.2v3.8l-.1 2.1-.1 1.1h.2c.7-1.3 1.9-2 3.4-2 1.4 0 2.5.4 3.2 1.3.7.8 1.1 2.1 1.1 3.6v8.7z"/><path id="G" d="M1442.5 712.7l-.6-1.8h-.1c-.5.8-1.1 1.3-1.7 1.6s-1.3.4-2.3.4a3.69 3.69 0 0 1-2.7-1.1c-.7-.7-1-1.8-1-3.1 0-1.4.4-2.5 1.3-3.1.9-.7 2.2-1 4-1.1l2.1-.1v-.6c0-1.4-.6-2-1.8-2-.9 0-2.1.3-3.3 1l-1.1-2.5c1.4-.8 2.9-1.2 4.5-1.2s2.8.4 3.7 1.2c.8.8 1.3 2 1.3 3.6v8.9h-2.3zm-1-6.2h-1.3c-.9 0-1.6.2-2.1.6s-.7.9-.7 1.6c0 1 .5 1.5 1.6 1.5.8 0 1.4-.2 1.8-.7.5-.5.7-1.1.7-1.9v-1.1z"/><path id="H" d="M1450.9 712.7l-4.5-13.3h3.4l2.3 7.6c.3 1 .4 1.9.5 2.7h.1c0-.8.2-1.7.5-2.7l2.3-7.6h3.4l-4.5 13.3h-3.5z"/><path id="I" d="M1484 710c.6 0 1.2-.1 2-.4v2.7c-.8.4-1.8.6-3 .6-1.3 0-2.2-.4-2.8-1.1s-.9-1.8-.9-3.3v-6.4h-1.6v-1.5l1.8-1.2.9-2.8h2.1v2.8h3.3v2.7h-3.3v6.4c0 .5.1.9.4 1.1.3.3.6.4 1.1.4z"/><path id="J" d="M1540.3 695.9c0-1.2.6-1.8 1.8-1.8s1.8.6 1.8 1.8c0 .6-.1 1-.4 1.3s-.7.5-1.3.5c-1.3 0-1.9-.6-1.9-1.8zm3.3 16.8h-3.2v-13.3h3.2v13.3z"/><path id="K" d="M1555.3 708.7c0 1.4-.4 2.4-1.3 3.1-.8.7-2.1 1.1-3.8 1.1-.9 0-1.6-.1-2.2-.2s-1.2-.3-1.7-.6v-3c.6.3 1.3.6 2 .8.8.2 1.4.3 2 .3 1.2 0 1.8-.4 1.8-1.1 0-.3-.1-.5-.2-.7a2.76 2.76 0 0 0-.8-.6l-1.5-.8c-.9-.4-1.6-.8-2-1.2s-.7-.8-.9-1.3-.3-1.1-.3-1.7c0-1.2.4-2.1 1.2-2.8.8-.6 2-1 3.5-1 1.4 0 2.8.4 4.2 1.1l-1 2.6c-.6-.3-1.2-.5-1.7-.7s-1-.3-1.6-.3c-1 0-1.4.3-1.4.9 0 .3.2.6.5.8s1 .6 2 1.1c.9.4 1.6.8 2 1.2s.8.8 1 1.3c.1.5.2 1.1.2 1.7z"/><path id="L" d="M1385.5 753.7c-1.9 0-3.4-.6-4.5-1.8s-1.6-2.9-1.6-5c0-2.2.5-4 1.5-5.2s2.4-1.8 4.1-1.8 3 .5 3.9 1.6 1.4 2.6 1.4 4.5v1.8h-7.7c0 1 .3 1.8.8 2.4s1.2.9 2.1.9c.7 0 1.4-.1 2-.3s1.3-.4 2-.8v2.8c-.6.3-1.2.6-1.8.7-.4.1-1.2.2-2.2.2zm-.4-11.3c-.7 0-1.2.2-1.6.7s-.6 1.2-.7 2.1h4.5c0-.9-.2-1.6-.6-2.1-.4-.4-.9-.7-1.6-.7z"/><path id="M" d="M1427 753.4h-3.2v-7.8c0-1-.2-1.7-.5-2.2s-.8-.7-1.5-.7c-.9 0-1.6.3-2 1s-.6 1.8-.6 3.4v6.3h-3.2v-13.3h2.5l.4 1.7h.2c.4-.6.9-1.1 1.5-1.5.6-.3 1.4-.5 2.2-.5 1.4 0 2.4.4 3.1 1.3.7.8 1.1 2.1 1.1 3.6v8.7z"/><path id="N" d="M1444.3 749.5c0 1.4-.4 2.4-1.3 3.1-.8.7-2.1 1.1-3.8 1.1-.9 0-1.6-.1-2.2-.2s-1.2-.3-1.7-.6v-3c.6.3 1.3.6 2 .8.8.2 1.4.3 2 .3 1.2 0 1.8-.4 1.8-1.1 0-.3-.1-.5-.2-.7-.2-.2-.4-.4-.8-.6l-1.5-.8c-.9-.4-1.6-.8-2-1.2s-.7-.8-.9-1.3-.3-1.1-.3-1.7c0-1.2.4-2.1 1.2-2.8.8-.6 2-1 3.5-1 1.4 0 2.8.4 4.2 1.1l-1 2.6c-.6-.3-1.2-.5-1.7-.7s-1-.3-1.6-.3c-1 0-1.4.3-1.4.9 0 .3.2.6.5.8s1 .6 2 1.1c.9.4 1.6.8 2 1.2s.8.8 1 1.3a7.18 7.18 0 0 1 .2 1.7z"/><path id="O" d="M1468.6 753.4l-.6-1.8h-.1c-.5.8-1.1 1.3-1.7 1.6s-1.3.4-2.3.4a3.69 3.69 0 0 1-2.7-1.1c-.7-.7-1-1.8-1-3.1 0-1.4.4-2.5 1.3-3.1.9-.7 2.2-1 4-1.1l2.1-.1v-.6c0-1.4-.6-2-1.8-2-.9 0-2.1.3-3.3 1l-1.1-2.5c1.4-.8 2.9-1.2 4.5-1.2s2.8.4 3.7 1.2c.8.8 1.3 2 1.3 3.6v8.9h-2.3zm-.9-6.2h-1.3c-.9 0-1.6.2-2.1.6s-.7.9-.7 1.6c0 1 .5 1.5 1.6 1.5.8 0 1.4-.2 1.8-.7.5-.5.7-1.1.7-1.9v-1.1z"/><path id="P" d="M1493.4 753.7c-1.9 0-3.4-.6-4.5-1.8s-1.6-2.9-1.6-5c0-2.2.5-4 1.5-5.2s2.4-1.8 4.1-1.8 3 .5 3.9 1.6 1.4 2.6 1.4 4.5v1.8h-7.7c0 1 .3 1.8.8 2.4s1.2.9 2.1.9c.7 0 1.4-.1 2-.3s1.3-.4 2-.8v2.8c-.6.3-1.2.6-1.8.7-.5.1-1.3.2-2.2.2zm-.5-11.3c-.7 0-1.2.2-1.6.7s-.6 1.2-.7 2.1h4.5c0-.9-.2-1.6-.6-2.1-.3-.4-.9-.7-1.6-.7z"/><path id="Q" d="M1660.3 749.5c0 1.4-.4 2.4-1.3 3.1-.8.7-2.1 1.1-3.8 1.1-.9 0-1.6-.1-2.2-.2s-1.2-.3-1.7-.6v-3c.6.3 1.3.6 2 .8.8.2 1.4.3 2 .3 1.2 0 1.8-.4 1.8-1.1 0-.3-.1-.5-.2-.7a2.76 2.76 0 0 0-.8-.6l-1.5-.8c-.9-.4-1.6-.8-2-1.2s-.7-.8-.9-1.3-.3-1.1-.3-1.7c0-1.2.4-2.1 1.2-2.8.8-.6 2-1 3.5-1 1.4 0 2.8.4 4.2 1.1l-1 2.6c-.6-.3-1.2-.5-1.7-.7s-1-.3-1.6-.3c-1 0-1.4.3-1.4.9 0 .3.2.6.5.8s1 .6 2 1.1c.9.4 1.6.8 2 1.2s.8.8 1 1.3a7.18 7.18 0 0 1 .2 1.7z"/><path id="R" d="M1378.3 794.4c-3.7 0-5.5-2.3-5.5-6.8 0-2.3.5-4 1.5-5.2s2.4-1.8 4.3-1.8c1.4 0 2.6.3 3.7.9l-1 2.8-1.4-.6c-.4-.1-.9-.2-1.3-.2-1.7 0-2.5 1.3-2.5 4 0 2.6.8 3.9 2.5 3.9.6 0 1.2-.1 1.7-.3s1.1-.5 1.6-.9v3.1c-.5.4-1.1.6-1.6.8s-1.1.3-2 .3z"/><path id="S" d="M1391.3 780.6c.4 0 .8 0 1.1.1l-.2 3.4c-.3-.1-.6-.1-1-.1-1 0-1.8.3-2.4.9s-.9 1.4-.9 2.5v6.8h-3.2v-13.3h2.5l.5 2.2h.2c.4-.7.9-1.4 1.5-1.8.5-.5 1.2-.7 1.9-.7z"/><path id="T" d="M1400 794.4c-1.9 0-3.4-.6-4.5-1.8s-1.6-2.9-1.6-5c0-2.2.5-4 1.5-5.2s2.4-1.8 4.1-1.8 3 .5 3.9 1.6 1.4 2.6 1.4 4.5v1.8h-7.7c0 1 .3 1.8.8 2.4s1.2.9 2.1.9c.7 0 1.4-.1 2-.3s1.3-.4 2-.8v2.8c-.6.3-1.2.6-1.8.7-.5.1-1.3.2-2.2.2zm-.5-11.2c-.7 0-1.2.2-1.6.7s-.6 1.2-.7 2.1h4.5c0-.9-.2-1.6-.6-2.1s-.9-.7-1.6-.7z"/><path id="U" d="M1415 794.2l-.6-1.8h-.1c-.5.8-1.1 1.3-1.7 1.6s-1.3.4-2.3.4a3.69 3.69 0 0 1-2.7-1.1c-.7-.7-1-1.8-1-3.1 0-1.4.4-2.5 1.3-3.1.9-.7 2.2-1 4-1.1l2.1-.1v-.6c0-1.4-.6-2-1.8-2-.9 0-2.1.3-3.3 1l-1.1-2.5c1.4-.8 2.9-1.2 4.5-1.2s2.8.4 3.7 1.2c.8.8 1.3 2 1.3 3.6v8.9h-2.3zm-1-6.2h-1.3c-.9 0-1.6.2-2.1.6s-.7.9-.7 1.6c0 1 .5 1.5 1.6 1.5.8 0 1.4-.2 1.8-.7.5-.5.7-1.1.7-1.9V788z"/><path id="V" d="M1435.4 794.4c-1.9 0-3.4-.6-4.5-1.8s-1.6-2.9-1.6-5c0-2.2.5-4 1.5-5.2s2.4-1.8 4.1-1.8 3 .5 3.9 1.6 1.4 2.6 1.4 4.5v1.8h-7.7c0 1 .3 1.8.8 2.4s1.2.9 2.1.9c.7 0 1.4-.1 2-.3s1.3-.4 2-.8v2.8c-.6.3-1.2.6-1.8.7-.5.1-1.3.2-2.2.2zm-.5-11.2c-.7 0-1.2.2-1.6.7s-.6 1.2-.7 2.1h4.5c0-.9-.2-1.6-.6-2.1-.3-.5-.9-.7-1.6-.7z"/><path id="W" d="M1471.7 787.5c0 2.2-.5 3.9-1.5 5.1s-2.4 1.8-4.3 1.8c-1.1 0-2.1-.3-3-.8-.9-.6-1.5-1.4-2-2.4-.5-1.1-.7-2.3-.7-3.7 0-2.2.5-3.9 1.5-5.1s2.4-1.8 4.3-1.8c1.1 0 2.1.3 3 .8.9.6 1.5 1.4 2 2.4s.7 2.3.7 3.7zm-8.2 0c0 1.3.2 2.3.6 3s1 1 1.9 1 1.5-.3 1.9-1 .6-1.7.6-3-.2-2.3-.6-3-1-1-1.9-1-1.5.3-1.9 1c-.4.6-.6 1.6-.6 3z"/><path id="X" d="M1519.5 787.4l-3.8-6.5h3.7l2.3 4.2 2.3-4.2h3.7l-3.9 6.5 4 6.8h-3.7l-2.5-4.6-2.5 4.6h-3.7l4.1-6.8z"/><path id="Y" d="M1574.4 790.2c0 1.4-.4 2.4-1.3 3.1-.8.7-2.1 1.1-3.8 1.1-.9 0-1.6-.1-2.2-.2s-1.2-.3-1.7-.6v-3c.6.3 1.3.6 2 .8.8.2 1.4.3 2 .3 1.2 0 1.8-.4 1.8-1.1 0-.3-.1-.5-.2-.7a2.76 2.76 0 0 0-.8-.6l-1.5-.8c-.9-.4-1.6-.8-2-1.2s-.7-.8-.9-1.3-.3-1.1-.3-1.7c0-1.2.4-2.1 1.2-2.8.8-.6 2-1 3.5-1 1.4 0 2.8.4 4.2 1.1l-1 2.6c-.6-.3-1.2-.5-1.7-.7s-1-.3-1.6-.3c-1 0-1.4.3-1.4.9 0 .3.2.6.5.8s1 .6 2 1.1c.9.4 1.6.8 2 1.2s.8.8 1 1.3c.1.5.2 1 .2 1.7z"/><path id="Z" d="M1587.6 777.4c0-1.2.6-1.8 1.8-1.8s1.8.6 1.8 1.8c0 .6-.1 1-.4 1.3s-.7.5-1.3.5c-1.3 0-1.9-.6-1.9-1.8zm3.4 16.8h-3.2v-13.3h3.2v13.3z"/><path id="a" d="M1630.5 790.2c0 1.4-.4 2.4-1.3 3.1-.8.7-2.1 1.1-3.8 1.1-.9 0-1.6-.1-2.2-.2s-1.2-.3-1.7-.6v-3c.6.3 1.3.6 2 .8.8.2 1.4.3 2 .3 1.2 0 1.8-.4 1.8-1.1 0-.3-.1-.5-.2-.7-.2-.2-.4-.4-.8-.6l-1.5-.8c-.9-.4-1.6-.8-2-1.2s-.7-.8-.9-1.3-.3-1.1-.3-1.7c0-1.2.4-2.1 1.2-2.8.8-.6 2-1 3.5-1 1.4 0 2.8.4 4.2 1.1l-1 2.6c-.6-.3-1.2-.5-1.7-.7s-1-.3-1.6-.3c-1 0-1.4.3-1.4.9 0 .3.2.6.5.8s1 .6 2 1.1c.9.4 1.6.8 2 1.2s.8.8 1 1.3c.1.5.2 1 .2 1.7z"/><path id="b" d="M1761.3 786.9l1.4-2 3.3-4.1h3.7l-4.7 5.8 5 7.6h-3.7l-3.4-5.4-1.4 1.3v4.2h-3.2v-18.6h3.2v8.3l-.2 2.9h0z"/><path id="c" d="M1428.3 835.1c-1.9 0-3.4-.6-4.5-1.8s-1.6-2.9-1.6-5c0-2.2.5-4 1.5-5.2s2.4-1.8 4.1-1.8 3 .5 3.9 1.6 1.4 2.6 1.4 4.5v1.8h-7.7c0 1 .3 1.8.8 2.4s1.2.9 2.1.9c.7 0 1.4-.1 2-.3s1.3-.4 2-.8v2.8c-.6.3-1.2.6-1.8.7-.5.2-1.3.2-2.2.2zm-.4-11.2c-.7 0-1.2.2-1.6.7s-.6 1.2-.7 2.1h4.5c0-.9-.2-1.6-.6-2.1s-1-.7-1.6-.7z"/><path id="d" d="M1432.2 875.9c-1.9 0-3.4-.6-4.5-1.8s-1.6-2.9-1.6-5c0-2.2.5-4 1.5-5.2s2.4-1.8 4.1-1.8 3 .5 3.9 1.6 1.4 2.6 1.4 4.5v1.8h-7.7c0 1 .3 1.8.8 2.4s1.2.9 2.1.9c.7 0 1.4-.1 2-.3s1.3-.4 2-.8v2.8c-.6.3-1.2.6-1.8.7-.5.1-1.3.2-2.2.2zm-.5-11.3c-.7 0-1.2.2-1.6.7s-.6 1.2-.7 2.1h4.5c0-.9-.2-1.6-.6-2.1-.4-.4-.9-.7-1.6-.7z"/><path id="e" d="M1455.8 873c.6 0 1.2-.1 2-.4v2.7c-.8.4-1.8.6-3 .6-1.3 0-2.2-.4-2.8-1.1s-.9-1.8-.9-3.3V865h-1.6v-1.5l1.8-1.2.9-2.8h2.1v2.8h3.3v2.7h-3.3v6.4c0 .5.1.9.4 1.1.4.4.7.5 1.1.5z"/><path id="f" d="M1476.6 875.7h-3.2v-7.8c0-1-.1-1.7-.4-2.2s-.7-.7-1.4-.7c-.8 0-1.4.3-1.8 1s-.6 1.8-.6 3.4v6.3h-3.2v-13.3h2.5l.4 1.7h.2a3.16 3.16 0 0 1 1.4-1.4 4.65 4.65 0 0 1 2.1-.5c1.8 0 3 .7 3.6 2h.3a3.16 3.16 0 0 1 1.4-1.4 4.65 4.65 0 0 1 2.1-.5c1.3 0 2.4.4 3.1 1.2s1 2 1 3.7v8.7h-3.3v-7.8c0-1-.1-1.7-.4-2.2s-.7-.7-1.4-.7c-.8 0-1.4.3-1.8 1-.4.6-.6 1.6-.6 3v6.5z"/><path id="g" d="M1511.8 875.9c-1.4 0-2.5-.6-3.3-1.7h-.2l.2 1.9v5.4h-3.2v-19.2h2.6l.5 1.7h.1c.8-1.3 1.9-2 3.4-2 1.4 0 2.5.6 3.3 1.8s1.2 2.9 1.2 5.1c0 1.4-.2 2.7-.6 3.7-.4 1.1-.9 1.9-1.6 2.4-.6.6-1.4.9-2.4.9zm-.9-10.9c-.8 0-1.4.3-1.8.8-.4.6-.6 1.5-.6 2.7v.4c0 1.4.2 2.5.6 3.1s1 .9 1.8.9c1.5 0 2.2-1.3 2.2-4 0-1.3-.2-2.3-.5-3-.4-.6-1-.9-1.7-.9z"/><path id="h" d="M1546.5 875.9c-3.7 0-5.5-2.3-5.5-6.8 0-2.3.5-4 1.5-5.2s2.4-1.8 4.3-1.8c1.4 0 2.6.3 3.7.9l-1 2.8-1.4-.6c-.4-.1-.9-.2-1.3-.2-1.7 0-2.5 1.3-2.5 4 0 2.6.8 3.9 2.5 3.9.6 0 1.2-.1 1.7-.3s1.1-.5 1.6-.9v3.1c-.5.4-1.1.6-1.6.8s-1.2.3-2 .3z"/><path id="i" d="M1525.6 914.7c0-.7.2-1.2.5-1.5s.8-.5 1.4-.5 1 .2 1.4.5c.3.4.5.9.5 1.5s-.2 1.1-.5 1.5-.8.5-1.4.5-1.1-.2-1.4-.5c-.4-.4-.5-.9-.5-1.5z"/><path id="j" d="M1349 733.8a9.82 9.82 0 0 1 9.8 9.8 9.82 9.82 0 0 1-9.8 9.8 9.82 9.82 0 0 1-9.8-9.8 9.82 9.82 0 0 1 9.8-9.8zm-1.2 5.7l3 2.9h-7.2c-.5 0-.9.4-.9.9v.6c0 .5.4.9.9.9h7.2l-3 2.9c-.4.4-.4 1 0 1.4l.4.4c.4.4 1 .4 1.3 0l5.2-5.2c.4-.4.4-1 0-1.3l-5.2-5.2c-.4-.4-1-.4-1.3 0l-.4.4c-.3.3-.3.9 0 1.3z"/><path id="k" d="M1349 817.6a9.82 9.82 0 0 1 9.8 9.8 9.82 9.82 0 0 1-9.8 9.8 9.82 9.82 0 0 1-9.8-9.8 9.82 9.82 0 0 1 9.8-9.8zm-1.2 5.6l3 2.9h-7.2c-.5 0-.9.4-.9.9v.6c0 .5.4.9.9.9h7.2l-3 2.9c-.4.4-.4 1 0 1.4l.4.4c.4.4 1 .4 1.3 0l5.2-5.2c.4-.4.4-1 0-1.3l-5.2-5.2c-.4-.4-1-.4-1.3 0l-.4.4c-.3.4-.3 1 0 1.3z"/><path id="l" d="M1327.8 385.1l-.7-2.1h-.1c-.6.9-1.3 1.5-1.9 1.8s-1.5.5-2.6.5c-1.3 0-2.3-.4-3.1-1.3-.8-.8-1.1-2-1.1-3.6s.5-2.8 1.5-3.6 2.5-1.2 4.6-1.3l2.4-.1v-.7c0-1.5-.7-2.3-2.1-2.3-1.1 0-2.4.4-3.8 1.1l-1.2-2.8c1.6-.9 3.3-1.4 5.2-1.4 1.8 0 3.2.4 4.2 1.3s1.5 2.3 1.5 4.1v10.2h-2.8zm-1.1-7.1l-1.4.1c-1.1 0-1.9.3-2.4.7s-.8 1-.8 1.8c0 1.2.6 1.8 1.8 1.8.9 0 1.5-.3 2.1-.8.5-.6.8-1.3.8-2.2V378z"/><path id="m" d="M1341.8 369.5c.5 0 .9 0 1.3.1l-.3 3.9c-.3-.1-.7-.1-1.1-.1-1.2 0-2.1.3-2.8 1s-1 1.6-1 2.9v7.8h-3.7v-15.3h2.8l.5 2.6h.2c.4-.9 1-1.5 1.7-2.1.8-.5 1.5-.8 2.4-.8z"/><path id="n" d="M1349.1 376.8l1.6-2.3 3.8-4.6h4.2l-5.4 6.6 5.7 8.7h-4.3l-3.9-6.2-1.6 1.4v4.8h-3.7v-21.3h3.7v9.5l-.1 3.4h0z"/><path id="o" d="M1430.5 385.4c-4.2 0-6.4-2.6-6.4-7.8 0-2.6.6-4.6 1.7-6 1.2-1.4 2.8-2.1 5-2.1 1.6 0 3 .3 4.2 1l-1.1 3.2c-.6-.3-1.1-.5-1.6-.6-.5-.2-1-.3-1.5-.3-1.9 0-2.9 1.5-2.9 4.6 0 3 1 4.5 2.9 4.5.7 0 1.4-.1 2-.3s1.2-.5 1.8-1v3.6c-.6.4-1.2.7-1.8.9s-1.4.3-2.3.3z"/><path id="p" d="M1437.6 365.8c0-1.4.7-2 2-2s2 .7 2 2c0 .6-.2 1.2-.5 1.5-.3.4-.8.5-1.5.5-1.3.1-2-.6-2-2zm3.9 19.3h-3.7v-15.3h3.7v15.3z"/><path id="q" d="M1536.9 385.4c-2.2 0-3.9-.7-5.1-2-1.2-1.4-1.8-3.3-1.8-5.8 0-2.6.6-4.5 1.7-5.9s2.7-2.1 4.7-2.1c1.9 0 3.4.6 4.5 1.8s1.6 2.9 1.6 5.1v2h-8.8a4.67 4.67 0 0 0 .9 2.8c.6.7 1.4 1 2.5 1 .8 0 1.6-.1 2.3-.3s1.5-.5 2.3-.9v3.2c-.6.4-1.3.6-2.1.8-.7.2-1.6.3-2.7.3zm-.5-12.9c-.8 0-1.4.3-1.8.8s-.7 1.4-.8 2.4h5.2c0-1-.3-1.8-.7-2.4-.5-.5-1.1-.8-1.9-.8z"/><path id="r" d="M1554.9 380.5c0 1.6-.5 2.8-1.5 3.6s-2.4 1.2-4.3 1.2c-1 0-1.8-.1-2.5-.2s-1.4-.4-2-.7V381c.7.4 1.5.7 2.3.9.9.2 1.6.4 2.3.4 1.3 0 2-.4 2-1.3 0-.3-.1-.6-.3-.8s-.5-.4-.9-.7-1-.6-1.8-.9c-1-.5-1.8-.9-2.3-1.4-.5-.4-.8-.9-1.1-1.4-.2-.5-.3-1.2-.3-2 0-1.4.5-2.4 1.4-3.2.9-.7 2.3-1.1 4-1.1 1.6 0 3.2.4 4.8 1.2l-1.1 3-1.9-.8c-.6-.2-1.2-.3-1.8-.3-1.1 0-1.6.3-1.6 1 0 .4.2.7.5 1 .4.3 1.1.7 2.3 1.2 1.1.5 1.8.9 2.3 1.4.5.4.9.9 1.1 1.4s.4 1.2.4 1.9z"/><path id="s" d="M1605.8 385.1h-3.7v-8.9c0-1.1-.2-1.9-.5-2.5s-.9-.8-1.7-.8c-1 0-1.8.4-2.3 1.2s-.7 2.1-.7 3.9v7.2h-3.7v-15.3h2.8l.5 2h.2a4.62 4.62 0 0 1 1.7-1.7c.7-.4 1.6-.6 2.5-.6 1.6 0 2.8.5 3.6 1.4.8 1 1.2 2.3 1.2 4.2v9.9z"/><path id="t" d="M1326.8 444.5h6.2v9c-1 .4-1.9.6-2.8.8l-2.7.2c-2.3 0-4.1-.8-5.4-2.3-1.2-1.5-1.9-3.8-1.9-6.7 0-2.8.7-5 2.2-6.6 1.4-1.6 3.4-2.4 6-2.4 1.6 0 3.1.4 4.6 1.1l-1.1 3c-1.1-.6-2.3-1-3.5-1-1.4 0-2.6.5-3.4 1.6-.9 1.1-1.3 2.5-1.3 4.3 0 1.9.3 3.3 1 4.3s1.7 1.5 3 1.5c.7 0 1.4-.1 2.1-.2v-3.6h-2.9v-3z"/><path id="u" d="M1534.7 454.3h-3.2v-7.8c0-1-.2-1.7-.5-2.2s-.8-.7-1.5-.7c-.9 0-1.6.3-2 1s-.6 1.8-.6 3.4v6.3h-3.2V441h2.5l.4 1.7h.2c.4-.6.9-1.1 1.5-1.5.6-.3 1.4-.5 2.2-.5 1.4 0 2.4.4 3.1 1.3.7.8 1.1 2.1 1.1 3.6v8.7z"/><path id="v" d="M1591.8 451.7c.6 0 1.2-.1 2-.4v2.7c-.8.4-1.8.6-3 .6-1.3 0-2.2-.4-2.8-1.1s-.9-1.8-.9-3.3v-6.4h-1.6v-1.5l1.8-1.2.9-2.8h2.1v2.8h3.3v2.7h-3.3v6.4c0 .5.1.9.4 1.1s.7.4 1.1.4z"/><path id="w" d="M1386 492.4c.6 0 1.2-.1 2-.4v2.7c-.8.4-1.8.6-3 .6-1.3 0-2.2-.4-2.8-1.1s-.9-1.8-.9-3.3v-6.4h-1.6V483l1.8-1.2.9-2.8h2.1v2.8h3.3v2.7h-3.3v6.4c0 .5.1.9.4 1.1.3.3.6.4 1.1.4z"/><path id="x" d="M1417 481.5c.4 0 .8 0 1.1.1l-.2 3.4c-.3-.1-.6-.1-1-.1-1 0-1.8.3-2.4.9s-.9 1.4-.9 2.5v6.8h-3.2v-13.3h2.5l.5 2.2h.2c.4-.7.9-1.4 1.5-1.8.5-.5 1.1-.7 1.9-.7z"/><path id="y" d="M1401 536.1c-1.9 0-3.4-.6-4.5-1.8s-1.6-2.9-1.6-5c0-2.2.5-4 1.5-5.2s2.4-1.8 4.1-1.8 3 .5 3.9 1.6 1.4 2.6 1.4 4.5v1.8h-7.7c0 1 .3 1.8.8 2.4s1.2.9 2.1.9c.7 0 1.4-.1 2-.3s1.3-.4 2-.8v2.8c-.6.3-1.2.6-1.8.7s-1.3.2-2.2.2zm-.4-11.3c-.7 0-1.2.2-1.6.7s-.6 1.2-.7 2.1h4.5c0-.9-.2-1.6-.6-2.1-.4-.4-1-.7-1.6-.7z"/><path id="z" d="M1397.4 576.6h-3.2v-7.8c0-1-.1-1.7-.4-2.2s-.7-.7-1.4-.7c-.8 0-1.4.3-1.8 1s-.6 1.8-.6 3.4v6.3h-3.2v-13.3h2.5l.4 1.7h.2a3.16 3.16 0 0 1 1.4-1.4 4.65 4.65 0 0 1 2.1-.5c1.8 0 3 .7 3.6 2h.3a3.16 3.16 0 0 1 1.4-1.4 4.65 4.65 0 0 1 2.1-.5c1.3 0 2.4.4 3.1 1.2s1 2 1 3.7v8.7h-3.3V569c0-1-.1-1.7-.4-2.2s-.7-.7-1.4-.7c-.8 0-1.4.3-1.8 1-.4.6-.6 1.6-.6 3v6.5z"/><path id="AA" d="M1306.4 443.4l-7.4 7.3c-.2.2-.5.2-.7 0l-3.9-3.9c-.2-.2-.2-.5 0-.7l1-1c.2-.2.5-.2.7 0l2.6 2.6 6.1-6c.2-.2.5-.2.7 0l1 1c.1.2.1.5-.1.7z"/><path id="AB" d="M1300.4 517.1c-5.9 0-10.6 4.8-10.6 10.6 0 5.9 4.8 10.6 10.6 10.6 5.9 0 10.6-4.8 10.6-10.6s-4.7-10.6-10.6-10.6zm6 8.4l-7.4 7.3c-.2.2-.5.2-.7 0l-3.9-3.9c-.2-.2-.2-.5 0-.7l1-1c.2-.2.5-.2.7 0l2.6 2.6 6.1-6c.2-.2.5-.2.7 0l1 1c.1.2.1.5-.1.7z"/><path id="AC" d="M173.1 515.3l-.7-2.1h-.1c-.6.9-1.3 1.5-1.9 1.8s-1.5.5-2.6.5c-1.3 0-2.3-.4-3.1-1.3-.8-.8-1.1-2-1.1-3.6s.5-2.8 1.5-3.6 2.5-1.2 4.6-1.3l2.4-.1v-.7c0-1.5-.7-2.3-2.1-2.3-1.1 0-2.4.4-3.8 1.1l-1.2-2.8c1.6-.9 3.3-1.4 5.2-1.4 1.8 0 3.2.4 4.2 1.3s1.5 2.3 1.5 4.1v10.2h-2.8zm-1.1-7l-1.4.1c-1.1 0-1.9.3-2.4.7s-.8 1-.8 1.8c0 1.2.6 1.8 1.8 1.8.9 0 1.5-.3 2.1-.8.5-.6.8-1.3.8-2.2v-1.4z"/><path id="AD" d="M972 1005.5l-1.3-4.8h-6.5l-1.3 4.8h-4.1l6.3-20.1h4.6l6.3 20.1h-4zm-2.2-8.4l-2-7.3c-.2-.6-.3-1-.3-1.3l-2.3 8.7h4.6z"/><path id="AE" d="M1010.4 1000.9c0 1.6-.5 2.8-1.5 3.6s-2.4 1.2-4.3 1.2c-1 0-1.8-.1-2.5-.2s-1.4-.4-2-.7v-3.4c.7.4 1.5.7 2.3.9s1.6.4 2.3.4c1.3 0 2-.4 2-1.3 0-.3-.1-.6-.3-.8s-.5-.4-.9-.7-1-.6-1.8-.9c-1-.5-1.8-.9-2.3-1.4-.5-.4-.8-.9-1.1-1.4-.2-.5-.3-1.2-.3-2 0-1.4.5-2.4 1.4-3.2.9-.7 2.3-1.1 4-1.1 1.6 0 3.2.4 4.8 1.2l-1.1 3-1.9-.8c-.6-.2-1.2-.3-1.8-.3-1.1 0-1.6.3-1.6 1 0 .4.2.7.5 1 .4.3 1.1.7 2.3 1.2 1.1.5 1.8.9 2.3 1.4.5.4.9.9 1.1 1.4s.4 1.2.4 1.9z"/><path id="AF" d="M1019.1 1002.4c.6 0 1.4-.2 2.3-.5v3.1c-.9.5-2.1.7-3.4.7-1.5 0-2.6-.4-3.2-1.3-.7-.8-1-2.1-1-3.8v-7.4h-1.8v-1.8l2-1.4 1.1-3.2h2.4v3.3h3.8v3.1h-3.8v7.4c0 .6.1 1 .4 1.3.3.4.7.5 1.2.5z"/></defs><clipPath id="AG"><use xlink:href="#A"/></clipPath><g clip-path="url(#AG)"><image width="2109" height="1231" xlink:href="BC3C2365.png" transform="translate(-95.05 -70.05)" overflow="visible" opacity=".21"/><path d="M1866 1042.8H53.1c-29.5 0-53.5-23.9-53.5-53.5V1.2h1919.8v988.2c.1 29.5-23.9 53.4-53.4 53.4z" fill="#303089"/></g><g clip-path="url(#AG)"><image width="1920" height="1080" xlink:href="../cover.png" transform="matrix(.9999 0 0 .9999 -.3613 1.7295)" overflow="visible"/></g></g><path d="M-.4 1.2h1919.8v88H-.4zm51.5 336v27h19.2v16.9H51.1v46.6H34.3V320.4h44.5v16.9H51.1zm74.2 73.4H106l-3.1 17H85.8l21.5-107.3h16.9l21.5 107.3h-17.2l-3.2-17zm-2.9-16.8l-6.7-38.5-6.7 38.5h13.4zm63.8 35.1c-7.2 0-13.1-2.1-17.8-6.3-5.1-5.1-7.7-11.8-7.7-20.1v-57c0-8.3 2.6-15 7.7-20.1 4.7-4.2 10.6-6.3 17.8-6.3 7.4 0 13.3 2.1 17.8 6.3 5.1 4.9 7.7 11.6 7.7 20.1v9.5h-16.9v-9.5c0-3.8-.7-6.3-2.1-7.7-1.3-1.2-3.5-1.8-6.4-1.8s-5 .6-6.3 1.8c-1.5 1.4-2.3 4-2.3 7.7v57c0 3.7.8 6.2 2.3 7.7 1.3 1.2 3.4 1.8 6.3 1.8 3 0 5.1-.6 6.4-1.8 1.4-1.3 2.1-3.9 2.1-7.7v-13.8h16.9v13.8c0 8.5-2.6 15.2-7.7 20.1-4.5 4.2-10.5 6.3-17.8 6.3zm61.6-1.2h-16.9V320.4h16.9v107.3zm56.7-17.1h-19.3l-3.1 17H265l21.5-107.3h16.9l21.5 107.3h-17.2l-3.2-17zm-2.9-16.8l-6.7-38.5-6.7 38.5h13.4zm84.9 33.9H342V320.4h16.9v90.4h27.6v16.9zm66.9-90.5v27h19v16.9h-19v29.7H481v16.9h-44.5V320.4H481v16.9h-27.6zm84.9 90.5l-12-31.7-11.8 31.7h-17.9l19.9-53.5-19.9-53.8h17.9l11.8 31.7 11.8-31.7h18.1l-20.1 53.8 20.1 53.5h-17.9zm52.2 0h-16.9V320.4H599c7.3 0 13.2 2.1 17.8 6.4 5.1 4.7 7.7 11.3 7.7 19.9v11.6c0 8.7-2.6 15.4-7.7 20.1-4.5 4.2-10.4 6.3-17.8 6.3h-8.6v43zm0-59.8h8.6c2.9 0 5-.6 6.3-1.8 1.5-1.4 2.3-4 2.3-7.7v-11.6c0-3.6-.8-6.1-2.3-7.7-1.3-1.2-3.4-1.8-6.3-1.8h-8.6v30.6zm102.8 59.8h-17.2l-8.7-43.1h-7.7v43.1h-16.9V320.4h25.4c7.3 0 13.2 2.1 17.8 6.4 5.1 4.7 7.7 11.3 7.7 19.9v11.5c0 8.7-2.6 15.4-7.7 20.1-.7.7-1.5 1.4-2.5 2l9.8 47.4zm-16.4-81c0-3.6-.8-6.1-2.3-7.7-1.3-1.2-3.4-1.8-6.3-1.8h-8.6v30.5h8.6c2.9 0 5-.6 6.3-1.8 1.5-1.4 2.3-4 2.3-7.7v-11.5zm52.7-9.5v27h19v16.9h-19v29.7h27.6v16.9h-44.5V320.4h44.5v16.9h-27.6zm70 91.7c-7.4 0-13.3-2.1-17.8-6.3-5.1-4.9-7.7-11.6-7.7-20.1v-13.9H791v13.9c0 3.7.8 6.2 2.3 7.7 1.3 1.2 3.4 1.8 6.3 1.8 3 0 5.1-.6 6.3-1.8 1.5-1.3 2.3-3.9 2.3-7.7v-6.7c0-4.7-1.9-8.8-5.7-12.3-.8-.7-3-2-6.4-4-4.8-2.6-8.3-4.8-10.6-6.7-3.7-3.3-6.5-7-8.4-11.2s-2.9-8.7-2.9-13.5v-2.6c0-8.5 2.6-15.2 7.7-20.1 4.5-4.2 10.4-6.3 17.8-6.3s13.3 2.1 17.8 6.3c5.1 4.9 7.7 11.6 7.7 20.1v9.4h-16.9v-9.4c0-3.8-.8-6.3-2.3-7.7-1.2-1.2-3.3-1.8-6.3-1.8-2.9 0-5 .6-6.3 1.8-1.5 1.4-2.3 4-2.3 7.7v2.6c0 4.7 1.9 8.7 5.7 12.1 1 .8 3 2 6 3.7 5.3 2.9 9 5.2 11 7.1 7.6 6.7 11.3 15 11.3 24.8v6.7c0 8.5-2.6 15.2-7.7 20.1-4.5 4.2-10.4 6.3-17.8 6.3zm67.3 0c-7.4 0-13.3-2.1-17.8-6.3-5.1-4.9-7.7-11.6-7.7-20.1v-13.9h16.9v13.9c0 3.7.8 6.2 2.3 7.7 1.3 1.2 3.4 1.8 6.3 1.8 3 0 5.1-.6 6.3-1.8 1.5-1.3 2.3-3.9 2.3-7.7v-6.7c0-4.7-1.9-8.8-5.7-12.3-.8-.7-3-2-6.4-4-4.8-2.6-8.3-4.8-10.6-6.7-3.7-3.3-6.5-7-8.4-11.2s-2.9-8.7-2.9-13.5v-2.6c0-8.5 2.6-15.2 7.7-20.1 4.5-4.2 10.4-6.3 17.8-6.3s13.3 2.1 17.8 6.3c5.1 4.9 7.7 11.6 7.7 20.1v9.4h-16.9v-9.4c0-3.8-.8-6.3-2.3-7.7-1.2-1.2-3.3-1.8-6.3-1.8-2.9 0-5 .6-6.3 1.8-1.5 1.4-2.3 4-2.3 7.7v2.6c0 4.7 1.9 8.7 5.7 12.1 1 .8 3 2 6 3.7 5.3 2.9 9 5.2 11 7.1 7.6 6.7 11.3 15 11.3 24.8v6.7c0 8.5-2.6 15.2-7.7 20.1-4.5 4.2-10.4 6.3-17.8 6.3zm61.2-1.2h-16.9V320.4h16.9v107.3zm45.3 1.2c-7.4 0-13.3-2.1-17.8-6.3-5.1-4.9-7.7-11.6-7.7-20.1v-57c0-8.5 2.6-15.2 7.7-20.1 4.5-4.2 10.4-6.3 17.8-6.3s13.3 2.1 17.8 6.3c5.1 4.9 7.7 11.6 7.7 20.1v57c0 8.5-2.6 15.2-7.7 20.1-4.5 4.2-10.4 6.3-17.8 6.3zm0-92.9c-2.9 0-5 .6-6.3 1.8-1.5 1.4-2.3 4-2.3 7.7v57c0 3.7.8 6.2 2.3 7.7 1.3 1.2 3.4 1.8 6.3 1.8 3 0 5.1-.6 6.3-1.8 1.5-1.3 2.3-3.9 2.3-7.7v-57c0-3.8-.8-6.3-2.3-7.7-1.2-1.2-3.3-1.8-6.3-1.8zm97.2 91.7h-9.8l-25.8-54.4v54.4h-16.9V320.4h9.8l25.8 54.3v-54.3h16.9v107.3zm43.7 1.2c-7.4 0-13.3-2.1-17.8-6.3-5.1-4.9-7.7-11.6-7.7-20.1v-13.9h16.9v13.9c0 3.7.8 6.2 2.3 7.7 1.3 1.2 3.4 1.8 6.3 1.8 3 0 5.1-.6 6.3-1.8 1.5-1.3 2.3-3.9 2.3-7.7v-6.7c0-4.7-1.9-8.8-5.7-12.3-.8-.7-3-2-6.4-4-4.8-2.6-8.3-4.8-10.6-6.7-3.7-3.3-6.5-7-8.4-11.2s-2.9-8.7-2.9-13.5v-2.6c0-8.5 2.6-15.2 7.7-20.1 4.5-4.2 10.4-6.3 17.8-6.3s13.3 2.1 17.8 6.3c5.1 4.9 7.7 11.6 7.7 20.1v9.4H1123v-9.4c0-3.8-.8-6.3-2.3-7.7-1.2-1.2-3.3-1.8-6.3-1.8-2.9 0-5 .6-6.3 1.8-1.5 1.4-2.3 4-2.3 7.7v2.6c0 4.7 1.9 8.7 5.7 12.1 1 .8 3 2 6 3.7 5.3 2.9 9 5.2 11 7.1 7.6 6.7 11.3 15 11.3 24.8v6.7c0 8.5-2.6 15.2-7.7 20.1-4.5 4.2-10.4 6.3-17.8 6.3z" fill="#3367db"/><path d="M77 35.9c-5.1 0-9.2 4.1-9.2 9.2s4.1 9.2 9.2 9.2 9.2-4.1 9.2-9.2-4.1-9.2-9.2-9.2zm0 15.3a6.02 6.02 0 0 1-6-6 6.02 6.02 0 0 1 6-6 6.02 6.02 0 0 1 6 6 6.02 6.02 0 0 1-6 6h0zm11.8-15.7a2.22 2.22 0 0 1-2.2 2.2 2.22 2.22 0 0 1-2.2-2.2 2.22 2.22 0 0 1 2.2-2.2c1.2.1 2.2 1.1 2.2 2.2zm6.1 2.2c-.1-2.9-.8-5.4-2.9-7.6-2.1-2.1-4.7-2.8-7.6-2.9-3-.2-11.9-.2-14.9 0-2.9.1-5.4.8-7.6 2.9-2.1 2.1-2.8 4.7-2.9 7.6-.2 3-.2 11.9 0 14.9.1 2.9.8 5.4 2.9 7.6 2.1 2.1 4.7 2.8 7.6 2.9 3 .2 11.9.2 14.9 0 2.9-.1 5.4-.8 7.6-2.9 2.1-2.1 2.8-4.7 2.9-7.6.2-3 .2-11.9 0-14.9h0zm-3.8 18.1c-.6 1.6-1.8 2.8-3.4 3.4-2.4.9-8 .7-10.6.7s-8.3.2-10.6-.7c-1.6-.6-2.8-1.8-3.4-3.4-.9-2.4-.7-8-.7-10.6s-.4-8.3.6-10.7c.6-1.6 1.8-2.8 3.4-3.4 2.4-.9 8-.7 10.6-.7s8.3-.2 10.6.7c1.6.6 2.8 1.8 3.4 3.4.9 2.4.7 8 .7 10.6s.3 8.3-.6 10.7zm10.5-20c0-1.3.6-2 1.9-2 1.2 0 1.9.7 1.9 2 0 .6-.2 1.1-.5 1.5-.3.3-.8.5-1.4.5-1.3 0-1.9-.7-1.9-2zm3.5 18.6h-3.4V39.6h3.4v14.8zm10.6-15.1c.5 0 .8 0 1.2.1l-.3 3.8c-.3-.1-.6-.1-1-.1-1.1 0-1.9.3-2.6 1-.6.7-.9 1.6-.9 2.8v7.5h-3.4V39.6h2.6l.5 2.5h.2c.4-.8.9-1.5 1.6-2 .6-.5 1.4-.8 2.1-.8zm10.4 3.4h-3v11.8h-3.4V42.7h-1.9v-1.9l1.9-1.1v-1.1c0-1.7.4-2.9 1.1-3.7s1.8-1.2 3.4-1.2a8.29 8.29 0 0 1 3.2.6l-.9 3c-.7-.3-1.3-.4-1.9-.4-.5 0-.8.2-1.1.5-.2.3-.3.8-.3 1.3v.9h3v3.1zm9.9 11.7l-.7-2h-.1a6.11 6.11 0 0 1-1.8 1.8c-.6.3-1.4.5-2.4.5-1.2 0-2.2-.4-2.8-1.2-.7-.8-1-2-1-3.5 0-1.6.5-2.7 1.4-3.5.9-.7 2.3-1.2 4.2-1.2l2.2-.1v-.6c0-1.5-.7-2.2-2-2.2-1 0-2.2.4-3.5 1.1l-1.1-2.7c1.4-.9 3-1.3 4.8-1.3 1.7 0 3 .4 3.9 1.3s1.3 2.2 1.3 3.9v9.9H136zm-1-6.8l-1.3.1c-1 0-1.7.2-2.2.6s-.7 1-.7 1.8c0 1.1.6 1.7 1.7 1.7.8 0 1.4-.3 1.9-.8s.7-1.3.7-2.1v-1.3zm18.5 6.8h-3.4v-8.6c0-1.1-.2-1.9-.5-2.4s-.8-.8-1.5-.8c-1 0-1.6.4-2.1 1.1-.4.8-.6 2-.6 3.7v7H142V39.6h2.6l.5 1.9h.2c.4-.7.9-1.3 1.6-1.6s1.4-.5 2.3-.5c1.5 0 2.6.5 3.3 1.4.8.9 1.1 2.3 1.1 4v9.6zm11.2 4.3h-9.5v-1.9h9.5v1.9zm5.2-4.3h-3.4V33.8h3.4v20.6zm9.3.3c-2 0-3.6-.7-4.7-2s-1.7-3.2-1.7-5.6c0-2.5.5-4.4 1.6-5.7 1.1-1.4 2.5-2 4.4-2 1.8 0 3.2.6 4.1 1.8 1 1.2 1.5 2.8 1.5 4.9v2h-8.1c0 1.1.3 2 .9 2.7.5.6 1.3 1 2.3 1 .8 0 1.5-.1 2.1-.3.7-.2 1.4-.5 2.1-.9v3.1c-.6.4-1.2.6-1.9.8l-2.6.2zm-.5-12.5c-.7 0-1.3.3-1.7.8s-.6 1.3-.7 2.3h4.8c0-1-.2-1.8-.7-2.3-.4-.5-1-.8-1.7-.8zm17.1 7.8c0 1.5-.4 2.7-1.3 3.5s-2.2 1.2-4 1.2c-.9 0-1.7-.1-2.3-.2s-1.2-.4-1.8-.6v-3.3c.6.4 1.4.6 2.1.9.8.2 1.5.4 2.1.4 1.2 0 1.9-.4 1.9-1.3 0-.3-.1-.6-.2-.8a3.98 3.98 0 0 0-.9-.7c-.4-.3-.9-.5-1.6-.9-1-.5-1.7-.9-2.1-1.3-.5-.4-.8-.9-1-1.4s-.3-1.2-.3-1.9c0-1.3.4-2.3 1.3-3s2.1-1.1 3.7-1.1c1.5 0 3 .4 4.4 1.2l-1 2.9-1.8-.8c-.5-.2-1.1-.3-1.7-.3-1 0-1.5.3-1.5 1 0 .4.2.7.5.9.3.3 1 .7 2.1 1.2 1 .5 1.7.9 2.2 1.3s.8.9 1 1.4a7.18 7.18 0 0 1 .2 1.7zm14.3 4.4h-3.4v-8.6c0-1.1-.2-1.9-.5-2.4s-.8-.8-1.5-.8c-1 0-1.6.4-2.1 1.1-.4.8-.6 2-.6 3.7v7h-3.4V39.6h2.6l.5 1.9h.2c.4-.7.9-1.3 1.6-1.6.7-.4 1.4-.5 2.3-.5 1.5 0 2.6.5 3.3 1.4.8.9 1.1 2.3 1.1 4v9.6zm11.5 0l-.7-2h-.1a6.11 6.11 0 0 1-1.8 1.8c-.6.3-1.4.5-2.4.5-1.2 0-2.2-.4-2.8-1.2-.7-.8-1-2-1-3.5 0-1.6.5-2.7 1.4-3.5.9-.7 2.3-1.2 4.2-1.2l2.2-.1v-.6c0-1.5-.7-2.2-2-2.2-1 0-2.2.4-3.5 1.1l-1.1-2.7c1.4-.9 3-1.3 4.8-1.3 1.7 0 3 .4 3.9 1.3s1.3 2.2 1.3 3.9v9.9h-2.4zm-1-6.8l-1.3.1c-1 0-1.7.2-2.2.6s-.7 1-.7 1.8c0 1.1.6 1.7 1.7 1.7.8 0 1.4-.3 1.9-.8s.7-1.3.7-2.1v-1.3zm13.9-8.3c.5 0 .8 0 1.2.1l-.3 3.8c-.3-.1-.6-.1-1-.1-1.1 0-1.9.3-2.6 1-.6.7-.9 1.6-.9 2.8v7.5h-3.4V39.6h2.6l.5 2.5h.2c.4-.8.9-1.5 1.6-2 .6-.5 1.3-.8 2.1-.8z" fill="#fff"/><path d="M1349.9 1142h-4.3c-46.2 0-83.7-37.5-83.7-83.7V600.1c0-46.2 37.5-83.7 83.7-83.7h4.3c46.2 0 83.7 37.5 83.7 83.7v458.2c0 46.3-37.4 83.7-83.7 83.7z" fill="#3367db"/><image width="800" height="1011" xlink:href="BC3C236D.png" transform="translate(1157.1 218.1)" overflow="visible" opacity=".24"/><path d="M1797.6 1142h-435c-40 0-68.5-32.4-68.5-68.9V645.8c0-34.4-51.1-34.7-51.1-65.1v-210c0-36.5 32.5-66.1 72.5-66.1h482c40 0 72.5 29.6 72.5 66.1V1076c.1 36.4-32.4 66-72.4 66z" fill="#303089"/><g fill="#5791f7"><path d="M1350.7 712.7l-1.1-4.2h-5.7l-1.1 4.2h-3.5l5.5-17.5h4l5.5 17.5h-3.6zm-2-7.3l-1.8-6.4-.3-1.2c-.2 1-.9 3.5-2 7.6h4.1z"/><use xlink:href="#B"/><use xlink:href="#B" x="6.7"/><use xlink:href="#C"/><use xlink:href="#D"/><use xlink:href="#E"/><use xlink:href="#F"/><use xlink:href="#G"/><use xlink:href="#H"/><path d="M1465.8 712.9c-1.9 0-3.4-.6-4.5-1.8s-1.6-2.9-1.6-5c0-2.2.5-4 1.5-5.2s2.4-1.8 4.1-1.8 3 .5 3.9 1.6 1.4 2.6 1.4 4.5v1.8h-7.7c0 1 .3 1.8.8 2.4s1.2.9 2.1.9c.7 0 1.4-.1 2-.3s1.3-.4 2-.8v2.8c-.6.3-1.2.6-1.8.7-.5.1-1.3.2-2.2.2zm-.4-11.2c-.7 0-1.2.2-1.6.7s-.6 1.2-.7 2.1h4.5c0-.9-.2-1.6-.6-2.1s-.9-.7-1.6-.7z"/><use xlink:href="#I"/><use xlink:href="#D" x="101.2"/><path d="M1511.3 712.9c-1.4 0-2.5-.6-3.3-1.8s-1.2-2.9-1.2-5.1.4-3.9 1.2-5.1 1.9-1.8 3.4-1.8 2.6.7 3.4 2h.1c-.2-1-.2-1.9-.2-2.7v-4.3h3.3v18.6h-2.5l-.6-1.7h-.1c-.9 1.3-2 1.9-3.5 1.9zm1.1-2.9c.8 0 1.4-.3 1.8-.8s.6-1.5.6-2.8v-.4c0-1.4-.2-2.5-.6-3.1s-1-.9-1.9-.9c-.7 0-1.3.3-1.7 1s-.6 1.7-.6 3 .2 2.3.6 3c.5.7 1.1 1 1.8 1zm19.7-4c0 2.2-.5 3.9-1.5 5.1s-2.4 1.8-4.3 1.8c-1.1 0-2.1-.3-3-.8-.9-.6-1.5-1.4-2-2.4-.5-1.1-.7-2.3-.7-3.7 0-2.2.5-3.9 1.5-5.1s2.4-1.8 4.3-1.8c1.1 0 2.1.3 3 .8.9.6 1.5 1.4 2 2.4.4 1.1.7 2.3.7 3.7zm-8.2 0c0 1.3.2 2.3.6 3s1 1 1.9 1 1.5-.3 1.9-1 .6-1.7.6-3-.2-2.3-.6-3-1-1-1.9-1-1.5.3-1.9 1-.6 1.7-.6 3z"/><use xlink:href="#J"/><use xlink:href="#K"/><path d="M1563.1 701.1c0-.7.2-1.2.5-1.5s.8-.5 1.4-.5 1 .2 1.4.5c.3.4.5.9.5 1.5s-.2 1.1-.5 1.5-.8.5-1.4.5-1.1-.2-1.4-.5c-.4-.3-.5-.8-.5-1.5zm0 9.9c0-.7.2-1.2.5-1.5s.8-.5 1.4-.5 1 .2 1.4.5c.3.4.5.9.5 1.5s-.2 1.1-.5 1.5-.8.5-1.4.5-1.1-.2-1.4-.5c-.4-.4-.5-.9-.5-1.5z"/></g><g fill="#3367db"><use xlink:href="#B" x="17.7" y="40.7"/><use xlink:href="#L"/><use xlink:href="#G" x="-41.9" y="40.7"/><path d="M1412.8 739.8c.4 0 .8 0 1.1.1l-.2 3.4c-.3-.1-.6-.1-1-.1-1 0-1.8.3-2.4.9s-.9 1.4-.9 2.5v6.8h-3.2v-13.3h2.5l.5 2.2h.2c.4-.7.9-1.4 1.5-1.8.5-.4 1.2-.7 1.9-.7z"/><use xlink:href="#M"/><use xlink:href="#N"/><use xlink:href="#F" x="26.2" y="40.7"/><use xlink:href="#O"/><path d="M1480.8 753.7c-1.4 0-2.5-.6-3.3-1.7h-.2l.2 1.9v5.4h-3.2v-19.2h2.6l.5 1.7h.1c.8-1.3 1.9-2 3.4-2 1.4 0 2.5.6 3.3 1.8s1.2 2.9 1.2 5.1c0 1.4-.2 2.7-.6 3.7-.4 1.1-.9 1.9-1.6 2.4-.7.6-1.5.9-2.4.9zm-1-11c-.8 0-1.4.3-1.8.8-.4.6-.6 1.5-.6 2.7v.4c0 1.4.2 2.5.6 3.1s1 .9 1.8.9c1.5 0 2.2-1.3 2.2-4 0-1.3-.2-2.3-.5-3-.4-.5-.9-.9-1.7-.9z"/><use xlink:href="#P"/><path d="M1504 746.2l1.4-2 3.3-4.1h3.7l-4.7 5.8 5 7.6h-3.7l-3.4-5.4-1.4 1.3v4.2h-3.2V735h3.2v8.3l-.2 2.9h0zm15.7 7.5c-1.9 0-3.4-.6-4.5-1.8s-1.6-2.9-1.6-5c0-2.2.5-4 1.5-5.2s2.4-1.8 4.1-1.8 3 .5 3.9 1.6 1.4 2.6 1.4 4.5v1.8h-7.7c0 1 .3 1.8.8 2.4s1.2.9 2.1.9c.7 0 1.4-.1 2-.3s1.3-.4 2-.8v2.8c-.6.3-1.2.6-1.8.7-.5.1-1.2.2-2.2.2zm-.4-11.3c-.7 0-1.2.2-1.6.7s-.6 1.2-.7 2.1h4.5c0-.9-.2-1.6-.6-2.1-.4-.4-.9-.7-1.6-.7z"/><use xlink:href="#C" x="152.4" y="40.8"/><use xlink:href="#N" x="103.6"/><path d="M1566.9 746.7c0 2.2-.5 3.9-1.5 5.1s-2.4 1.8-4.3 1.8c-1.1 0-2.1-.3-3-.8-.9-.6-1.5-1.4-2-2.4-.5-1.1-.7-2.3-.7-3.7 0-2.2.5-3.9 1.5-5.1s2.4-1.8 4.3-1.8c1.1 0 2.1.3 3 .8.9.6 1.5 1.4 2 2.4.4 1.1.7 2.3.7 3.7zm-8.3 0c0 1.3.2 2.3.6 3s1 1 1.9 1 1.5-.3 1.9-1 .6-1.7.6-3-.2-2.3-.6-3-1-1-1.9-1-1.5.3-1.9 1-.6 1.7-.6 3zm17.6-6.9c.4 0 .8 0 1.1.1l-.2 3.4c-.3-.1-.6-.1-1-.1-1 0-1.8.3-2.4.9s-.9 1.4-.9 2.5v6.8h-3.2v-13.3h2.5l.5 2.2h.2c.4-.7.9-1.4 1.5-1.8.4-.4 1.1-.7 1.9-.7zm15.5 0c1.4 0 2.5.6 3.3 1.8s1.2 2.9 1.2 5.1-.4 3.9-1.2 5.1-1.9 1.8-3.3 1.8-2.5-.6-3.3-1.7h-.2l-.5 1.5h-2.5v-18.6h3.2v4.3l-.1 2.6h.1c.7-1.2 1.8-1.9 3.3-1.9zm-1.1 2.9c-.8 0-1.4.3-1.8.8-.4.6-.6 1.5-.6 2.7v.4c0 1.4.2 2.5.6 3.1s1 .9 1.8.9c.7 0 1.2-.3 1.6-1s.6-1.7.6-3-.2-2.3-.6-3c-.3-.5-.9-.9-1.6-.9z"/><use xlink:href="#B" x="243" y="40.7"/><use xlink:href="#L" x="225.3"/><use xlink:href="#M" x="202.3"/><path d="M1636.4 753.7c-1.4 0-2.5-.6-3.3-1.8s-1.2-2.9-1.2-5.1.4-3.9 1.2-5.1 1.9-1.8 3.4-1.8 2.6.7 3.4 2h.1c-.2-1-.2-1.9-.2-2.7v-4.3h3.3v18.6h-2.5l-.6-1.7h-.1c-.9 1.2-2 1.9-3.5 1.9zm1.1-2.9c.8 0 1.4-.3 1.8-.8s.6-1.5.6-2.8v-.4c0-1.4-.2-2.5-.6-3.1s-1-.9-1.9-.9c-.7 0-1.3.3-1.7 1s-.6 1.7-.6 3 .2 2.3.6 3c.5.6 1.1 1 1.8 1z"/><use xlink:href="#Q"/><use xlink:href="#F" x="242.2" y="40.7"/><use xlink:href="#G" x="242.2" y="40.7"/><path d="M1696.8 753.7c-1.4 0-2.5-.6-3.3-1.7h-.2l.2 1.9v5.4h-3.2v-19.2h2.6l.5 1.7h.1c.8-1.3 1.9-2 3.4-2 1.4 0 2.5.6 3.3 1.8s1.2 2.9 1.2 5.1c0 1.4-.2 2.7-.6 3.7-.4 1.1-.9 1.9-1.6 2.4-.6.6-1.5.9-2.4.9zm-.9-11c-.8 0-1.4.3-1.8.8-.4.6-.6 1.5-.6 2.7v.4c0 1.4.2 2.5.6 3.1s1 .9 1.8.9c1.5 0 2.2-1.3 2.2-4 0-1.3-.2-2.3-.5-3-.4-.5-1-.9-1.7-.9z"/><use xlink:href="#L" x="323.9"/><use xlink:href="#N" x="280.9"/><use xlink:href="#R"/><use xlink:href="#S"/><use xlink:href="#T"/><use xlink:href="#U"/><path d="M1425.6 791.5c.6 0 1.2-.1 2-.4v2.7c-.8.4-1.8.6-3 .6-1.3 0-2.2-.4-2.8-1.1s-.9-1.8-.9-3.3v-6.4h-1.6V782l1.8-1.2.9-2.8h2.1v2.8h3.3v2.7h-3.3v6.4c0 .5.1.9.4 1.1.3.4.7.5 1.1.5z"/><use xlink:href="#V"/><use xlink:href="#C" x="73.7" y="81.5"/><use xlink:href="#W"/><use xlink:href="#E" x="73.7" y="81.5"/><use xlink:href="#S" x="104"/><use xlink:href="#V" x="74.2"/><use xlink:href="#X"/><path d="M1536.2 794.4c-1.4 0-2.5-.6-3.3-1.7h-.2l.2 1.9v5.4h-3.2v-19.2h2.6l.5 1.7h.1c.8-1.3 1.9-2 3.4-2 1.4 0 2.5.6 3.3 1.8s1.2 2.9 1.2 5.1c0 1.4-.2 2.7-.6 3.7-.4 1.1-.9 1.9-1.6 2.4-.7.6-1.5.9-2.4.9zm-1-10.9c-.8 0-1.4.3-1.8.8-.4.6-.6 1.5-.6 2.7v.4c0 1.4.2 2.5.6 3.1s1 .9 1.8.9c1.5 0 2.2-1.3 2.2-4 0-1.3-.2-2.3-.5-3-.4-.6-.9-.9-1.7-.9z"/><use xlink:href="#S" x="158.7"/><use xlink:href="#T" x="158.7"/><use xlink:href="#Y"/><path d="M1585.3 790.2c0 1.4-.4 2.4-1.3 3.1-.8.7-2.1 1.1-3.8 1.1-.9 0-1.6-.1-2.2-.2s-1.2-.3-1.7-.6v-3c.6.3 1.3.6 2 .8.8.2 1.4.3 2 .3 1.2 0 1.8-.4 1.8-1.1 0-.3-.1-.5-.2-.7a2.76 2.76 0 0 0-.8-.6l-1.5-.8c-.9-.4-1.6-.8-2-1.2s-.7-.8-.9-1.3-.3-1.1-.3-1.7c0-1.2.4-2.1 1.2-2.8.8-.6 2-1 3.5-1 1.4 0 2.8.4 4.2 1.1l-1 2.6c-.6-.3-1.2-.5-1.7-.7s-1-.3-1.6-.3c-1 0-1.4.3-1.4.9 0 .3.2.6.5.8s1 .6 2 1.1c.9.4 1.6.8 2 1.2s.8.8 1 1.3c0 .5.2 1 .2 1.7z"/><use xlink:href="#Z"/><use xlink:href="#W" x="133.5"/><use xlink:href="#M" x="191.9" y="40.8"/><use xlink:href="#a"/><path d="M1648.4 794.2l-.9-4.7-1.2-5.9h-.1l-2.2 10.6h-3.5l-3.4-13.3h3.2l1.4 5.9.7 4.4h.1c0-.6.2-1.6.4-2.9l.2-1 1.5-6.4h3.6l1.4 6.4c0 .2.1.4.1.8.1.3.1.7.2 1.1s.1.8.2 1.1c0 .4.1.7.1.9h.1l.3-2.4.4-2 1.4-5.9h3.2l-3.4 13.3h-3.8z"/><use xlink:href="#Z" x="69.5"/><path d="M1668.9 791.5c.6 0 1.2-.1 2-.4v2.7c-.8.4-1.8.6-3 .6-1.3 0-2.2-.4-2.8-1.1s-.9-1.8-.9-3.3v-6.4h-1.6V782l1.8-1.2.9-2.8h2.1v2.8h3.3v2.7h-3.3v6.4c0 .5.1.9.4 1.1.4.4.7.5 1.1.5z"/><use xlink:href="#F" x="252.7" y="81.5"/><use xlink:href="#a" x="71.1"/><use xlink:href="#F" x="283.5" y="81.5"/><use xlink:href="#U" x="311"/><path d="M1738.1 794.4c-1.4 0-2.5-.6-3.3-1.7h-.2l.2 1.9v5.4h-3.2v-19.2h2.6l.5 1.7h.1c.8-1.3 1.9-2 3.4-2 1.4 0 2.5.6 3.3 1.8s1.2 2.9 1.2 5.1c0 1.4-.2 2.7-.6 3.7-.4 1.1-.9 1.9-1.6 2.4-.7.6-1.5.9-2.4.9zm-1-10.9c-.8 0-1.4.3-1.8.8-.4.6-.6 1.5-.6 2.7v.4c0 1.4.2 2.5.6 3.1s1 .9 1.8.9c1.5 0 2.2-1.3 2.2-4 0-1.3-.2-2.3-.5-3-.3-.6-.9-.9-1.7-.9zm13.6 10.9c-1.9 0-3.4-.6-4.5-1.8s-1.6-2.9-1.6-5c0-2.2.5-4 1.5-5.2s2.4-1.8 4.1-1.8 3 .5 3.9 1.6 1.4 2.6 1.4 4.5v1.8h-7.7c0 1 .3 1.8.8 2.4s1.2.9 2.1.9c.7 0 1.4-.1 2-.3s1.3-.4 2-.8v2.8c-.6.3-1.2.6-1.8.7-.5.1-1.3.2-2.2.2zm-.4-11.2c-.7 0-1.2.2-1.6.7s-.6 1.2-.7 2.1h4.5c0-.9-.2-1.6-.6-2.1s-1-.7-1.6-.7z"/><use xlink:href="#b"/><use xlink:href="#T" x="377.1"/><use xlink:href="#C" x="409.7" y="81.5"/><use xlink:href="#a" x="174.7"/><use xlink:href="#D" x="-13.7" y="122.2"/><use xlink:href="#S" x="2.3" y="40.7"/><path d="M1409.1 821.3c1.4 0 2.5.6 3.3 1.8s1.2 2.9 1.2 5.1-.4 3.9-1.2 5.1-1.9 1.8-3.3 1.8-2.5-.6-3.3-1.7h-.2l-.5 1.5h-2.5v-18.6h3.2v4.3l-.1 2.6h.1c.7-1.2 1.8-1.9 3.3-1.9zm-1 2.9c-.8 0-1.4.3-1.8.8-.4.6-.6 1.5-.6 2.7v.4c0 1.4.2 2.5.6 3.1s1 .9 1.8.9c.7 0 1.2-.3 1.6-1s.6-1.7.6-3-.2-2.3-.6-3c-.4-.5-.9-.9-1.6-.9z"/><use xlink:href="#B" x="60.4" y="122.2"/><use xlink:href="#c"/><use xlink:href="#M" x="19.8" y="81.5"/><path d="M1453.8 835.1c-1.4 0-2.5-.6-3.3-1.8s-1.2-2.9-1.2-5.1.4-3.9 1.2-5.1 1.9-1.8 3.4-1.8 2.6.7 3.4 2h.1c-.2-1-.2-1.9-.2-2.7v-4.3h3.3v18.6h-2.5l-.6-1.7h-.1c-.8 1.3-1.9 1.9-3.5 1.9zm1.2-2.9c.8 0 1.4-.3 1.8-.8s.6-1.5.6-2.8v-.4c0-1.4-.2-2.5-.6-3.1s-1-.9-1.9-.9c-.7 0-1.3.3-1.7 1s-.6 1.7-.6 3 .2 2.3.6 3c.5.7 1 1 1.8 1zm22.8-1.3c0 1.4-.4 2.4-1.3 3.1-.8.7-2.1 1.1-3.8 1.1-.9 0-1.6-.1-2.2-.2s-1.2-.3-1.7-.6v-3c.6.3 1.3.6 2 .8.8.2 1.4.3 2 .3 1.2 0 1.8-.4 1.8-1.1 0-.3-.1-.5-.2-.7-.2-.2-.4-.4-.8-.6l-1.5-.8c-.9-.4-1.6-.8-2-1.2s-.7-.8-.9-1.3-.3-1.1-.3-1.7c0-1.2.4-2.1 1.2-2.8.8-.6 2-1 3.5-1 1.4 0 2.8.4 4.2 1.1l-1 2.6c-.6-.3-1.2-.5-1.7-.7s-1-.3-1.6-.3c-1 0-1.4.3-1.4.9 0 .3.2.6.5.8s1 .6 2 1.1c.9.4 1.6.8 2 1.2s.8.8 1 1.3c.1.5.2 1.1.2 1.7z"/><use xlink:href="#F" x="59.7" y="122.2"/><use xlink:href="#G" x="59.7" y="122.2"/><path d="M1514.3 835.1c-1.4 0-2.5-.6-3.3-1.7h-.2l.2 1.9v5.4h-3.2v-19.2h2.6l.5 1.7h.1c.8-1.3 1.9-2 3.4-2 1.4 0 2.5.6 3.3 1.8s1.2 2.9 1.2 5.1c0 1.4-.2 2.7-.6 3.7-.4 1.1-.9 1.9-1.6 2.4-.7.7-1.5.9-2.4.9zm-1-10.9c-.8 0-1.4.3-1.8.8-.4.6-.6 1.5-.6 2.7v.4c0 1.4.2 2.5.6 3.1s1 .9 1.8.9c1.5 0 2.2-1.3 2.2-4 0-1.3-.2-2.3-.5-3-.3-.5-.9-.9-1.7-.9zm13.6 10.9c-1.9 0-3.4-.6-4.5-1.8s-1.6-2.9-1.6-5c0-2.2.5-4 1.5-5.2s2.4-1.8 4.1-1.8 3 .5 3.9 1.6 1.4 2.6 1.4 4.5v1.8h-7.7c0 1 .3 1.8.8 2.4s1.2.9 2.1.9c.7 0 1.4-.1 2-.3s1.3-.4 2-.8v2.8c-.6.3-1.2.6-1.8.7-.5.2-1.3.2-2.2.2zm-.5-11.2c-.7 0-1.2.2-1.6.7s-.6 1.2-.7 2.1h4.5c0-.9-.2-1.6-.6-2.1-.3-.5-.9-.7-1.6-.7z"/><use xlink:href="#K" x="-12.6" y="122.2"/><use xlink:href="#R" y="81.5"/><use xlink:href="#W" x="-76.2" y="81.5"/><use xlink:href="#M" x="-17.9" y="122.3"/><use xlink:href="#M" x="-3.6" y="122.3"/><use xlink:href="#d"/><path d="M1444.5 875.9c-3.7 0-5.5-2.3-5.5-6.8 0-2.3.5-4 1.5-5.2s2.4-1.8 4.3-1.8c1.4 0 2.6.3 3.7.9l-1 2.8-1.4-.6c-.4-.1-.9-.2-1.3-.2-1.7 0-2.5 1.3-2.5 4 0 2.6.8 3.9 2.5 3.9.6 0 1.2-.1 1.7-.3s1.1-.5 1.6-.9v3.1c-.5.4-1.1.6-1.6.8-.6.2-1.2.3-2 .3z"/><use xlink:href="#e"/><use xlink:href="#f"/><use xlink:href="#C" x="112.5" y="163"/><use xlink:href="#g"/><use xlink:href="#O" x="58" y="122.3"/><use xlink:href="#e" x="81.4"/><use xlink:href="#h"/><use xlink:href="#F" x="132.2" y="163"/><path d="M1577.8 873c.6 0 1.2-.1 2-.4v2.7c-.8.4-1.8.6-3 .6-1.3 0-2.2-.4-2.8-1.1s-.9-1.8-.9-3.3V865h-1.6v-1.5l1.8-1.2.9-2.8h2.1v2.8h3.3v2.7h-3.3v6.4c0 .5.1.9.4 1.1.3.4.7.5 1.1.5z"/><use xlink:href="#W" x="121.3" y="81.5"/><use xlink:href="#C" x="226.6" y="163"/><use xlink:href="#W" x="152.8" y="81.5"/><use xlink:href="#E" x="226.5" y="163"/><use xlink:href="#S" x="256.8" y="81.5"/><use xlink:href="#Y" x="90.9" y="81.5"/><use xlink:href="#F" x="247.2" y="163"/><use xlink:href="#G" x="247.2" y="163"/><use xlink:href="#g" x="190"/><use xlink:href="#L" x="328.9" y="122.2"/><use xlink:href="#b" x="-36.3" y="81.5"/><use xlink:href="#P" x="247.4" y="122.2"/><use xlink:href="#C" x="373.5" y="163"/><use xlink:href="#a" x="138.4" y="81.5"/><use xlink:href="#C" x="-1.3" y="203.8"/><use xlink:href="#D" x="-1.3" y="203.7"/><path d="M1407.8 916.4l-.4-1.7h-.2a2.94 2.94 0 0 1-1.5 1.4c-.6.3-1.4.5-2.2.5-1.4 0-2.4-.4-3.2-1.3-.7-.8-1.1-2-1.1-3.6V903h3.2v7.8c0 1 .2 1.7.5 2.2s.8.7 1.5.7c.9 0 1.6-.3 2-1s.6-1.8.6-3.4V903h3.2v13.3h-2.4z"/><use xlink:href="#G" x="-15.6" y="203.7"/><use xlink:href="#S" x="47.8" y="122.2"/><use xlink:href="#c" x="19.4" y="81.5"/><path d="M1468.4 916.4l-.6-1.8h-.1c-.5.8-1.1 1.3-1.7 1.6s-1.3.4-2.3.4a3.69 3.69 0 0 1-2.7-1.1c-.7-.7-1-1.8-1-3.1 0-1.4.4-2.5 1.3-3.1s2.2-1 4-1.1l2.1-.1v-.6c0-1.4-.6-2-1.8-2-.9 0-2.1.3-3.3 1l-1.1-2.5c1.4-.8 2.9-1.2 4.5-1.2s2.8.4 3.7 1.2c.8.8 1.3 2 1.3 3.6v8.9h-2.3zm-1-6.2h-1.3c-.9 0-1.6.2-2.1.6s-.7.9-.7 1.6c0 1 .5 1.5 1.6 1.5.8 0 1.4-.2 1.8-.7.5-.5.7-1.1.7-1.9v-1.1z"/><use xlink:href="#B" x="118.1" y="203.7"/><use xlink:href="#B" x="124.8" y="203.7"/><use xlink:href="#K" x="-54.1" y="203.7"/><use xlink:href="#c" x="80.8" y="81.5"/><path d="M1521.6 913.7c.6 0 1.2-.1 2-.4v2.7c-.8.4-1.8.6-3 .6-1.3 0-2.2-.4-2.8-1.1s-.9-1.8-.9-3.3v-6.4h-1.6v-1.5l1.8-1.2.9-2.8h2.1v2.8h3.3v2.7h-3.3v6.4c0 .5.1.9.4 1.1.3.3.7.4 1.1.4z"/><use xlink:href="#i"/></g><g fill="#8b2caf"><use xlink:href="#j"/><use xlink:href="#j" y="43.4"/><use xlink:href="#k"/><use xlink:href="#k" y="41.1"/><use xlink:href="#j" y="166.6"/></g><g fill="#5791f7"><path d="M1300.4 379.5c0 1.8-.6 3.2-1.7 4.3-1.2 1-2.8 1.6-4.8 1.6-1.9 0-3.6-.4-5-1.2v-3.9a30.3 30.3 0 0 0 3 1.3c.8.3 1.6.4 2.3.4.8 0 1.5-.2 1.9-.5s.7-.9.7-1.6a1.69 1.69 0 0 0-.3-1c-.2-.3-.5-.6-.9-.9s-1.1-.7-2.3-1.4c-1.1-.6-1.9-1.1-2.4-1.7-.5-.5-1-1.1-1.3-1.8s-.5-1.5-.5-2.5c0-1.8.5-3.2 1.6-4.2s2.5-1.5 4.4-1.5c.9 0 1.8.1 2.6.4l2.6 1-1.2 3.3c-.9-.4-1.7-.7-2.4-.9-.6-.2-1.2-.3-1.8-.3-.7 0-1.3.2-1.6.6-.4.4-.6.9-.6 1.5 0 .4.1.7.2 1 .2.3.4.5.7.8s1.1.7 2.4 1.4c1.7.9 2.8 1.8 3.4 2.7.7.7 1 1.8 1 3.1zm10.4 5.9c-1.6 0-2.9-.7-3.8-2h-.2l.2 2.2v6.2h-3.7v-22h3l.5 2h.2c.9-1.5 2.2-2.3 3.9-2.3 1.6 0 2.9.7 3.8 2.1s1.4 3.3 1.4 5.8c0 1.6-.2 3-.6 4.3-.4 1.2-1 2.1-1.8 2.7s-1.8 1-2.9 1zm-1-12.6c-.9 0-1.6.3-2 1s-.6 1.7-.7 3.1v.5c0 1.6.2 2.8.7 3.5s1.1 1.1 2.1 1.1c1.7 0 2.5-1.5 2.5-4.6 0-1.5-.2-2.6-.6-3.4-.5-.8-1.2-1.2-2-1.2z"/><use xlink:href="#l"/><use xlink:href="#m"/><use xlink:href="#n"/><use xlink:href="#l" x="48.3"/><use xlink:href="#m" x="48.3"/><path d="M1407.8 372.9h-3.2v12.2h-3.7v-12.2h-2v-2l2-1.1v-1.1c0-1.7.4-3 1.1-3.8.8-.8 2-1.2 3.7-1.2 1.3 0 2.4.2 3.4.6l-.9 3.1c-.7-.3-1.4-.4-2.1-.4-.5 0-.9.2-1.1.5-.2.4-.4.8-.4 1.3v1h3.2v3.1z"/><use xlink:href="#l" x="90.8"/><use xlink:href="#o"/><use xlink:href="#p"/><use xlink:href="#l" x="126.2"/><path d="M1464.2 385.1h-3.7v-21.3h3.7v21.3zm16.5.3c-2.2 0-3.9-.7-5.1-2-1.2-1.4-1.8-3.3-1.8-5.8 0-2.6.6-4.5 1.7-5.9s2.7-2.1 4.7-2.1c1.9 0 3.4.6 4.5 1.8s1.6 2.9 1.6 5.1v2h-8.8a4.67 4.67 0 0 0 .9 2.8c.6.7 1.4 1 2.5 1 .8 0 1.6-.1 2.3-.3s1.5-.5 2.3-.9v3.2c-.6.4-1.3.6-2.1.8s-1.7.3-2.7.3zm-.5-12.9c-.8 0-1.4.3-1.8.8s-.7 1.4-.8 2.4h5.2c0-1-.3-1.8-.7-2.4-.5-.5-1.2-.8-1.9-.8zm11.8 4.8l-4.4-7.5h4.2l2.6 4.9 2.7-4.9h4.2l-4.4 7.5 4.6 7.8h-4.2l-2.9-5.2-2.9 5.2h-4.2l4.7-7.8zm19.1 8.1c-1.6 0-2.9-.7-3.8-2h-.2l.2 2.2v6.2h-3.7v-22h3l.5 2h.2c.9-1.5 2.2-2.3 3.9-2.3 1.6 0 2.9.7 3.8 2.1s1.4 3.3 1.4 5.8c0 1.6-.2 3-.6 4.3-.4 1.2-1 2.1-1.8 2.7s-1.8 1-2.9 1zm-1.1-12.6c-.9 0-1.6.3-2 1s-.6 1.7-.7 3.1v.5c0 1.6.2 2.8.7 3.5s1.1 1.1 2.1 1.1c1.7 0 2.5-1.5 2.5-4.6 0-1.5-.2-2.6-.6-3.4-.5-.8-1.1-1.2-2-1.2zm17-3.3c.5 0 .9 0 1.3.1l-.3 3.9c-.3-.1-.7-.1-1.1-.1-1.2 0-2.1.3-2.8 1s-1 1.6-1 2.9v7.8h-3.7v-15.3h2.8l.5 2.6h.2c.4-.9 1-1.5 1.7-2.1.8-.5 1.6-.8 2.4-.8z"/><use xlink:href="#q"/><use xlink:href="#r"/><use xlink:href="#r" x="12.4"/><path d="M1570.1 365.8c0-1.4.7-2 2-2s2 .7 2 2c0 .6-.2 1.2-.5 1.5-.3.4-.8.5-1.5.5-1.4.1-2-.6-2-2zm3.8 19.3h-3.7v-15.3h3.7v15.3zm16.3-7.7c0 2.5-.6 4.4-1.8 5.8s-2.8 2.1-4.9 2.1c-1.3 0-2.5-.3-3.5-1-1-.6-1.8-1.6-2.3-2.8s-.8-2.6-.8-4.2c0-2.5.6-4.4 1.7-5.8 1.2-1.4 2.8-2.1 4.9-2.1 1.3 0 2.5.3 3.5 1 1 .6 1.8 1.6 2.3 2.7.6 1.3.9 2.7.9 4.3zm-9.4 0c0 1.5.2 2.7.7 3.4.4.8 1.2 1.2 2.2 1.2s1.7-.4 2.1-1.2.7-1.9.7-3.4-.2-2.6-.7-3.4c-.4-.8-1.2-1.1-2.2-1.1s-1.7.4-2.1 1.1c-.5.8-.7 1.9-.7 3.4z"/><use xlink:href="#s"/><path d="M1623.6 385.4c-1.6 0-2.9-.7-3.8-2h-.2l.2 2.2v6.2h-3.7v-22h3l.5 2h.2c.9-1.5 2.2-2.3 3.9-2.3 1.6 0 2.9.7 3.8 2.1s1.4 3.3 1.4 5.8c0 1.6-.2 3-.6 4.3-.4 1.2-1 2.1-1.8 2.7s-1.9 1-2.9 1zm-1.1-12.6c-.9 0-1.6.3-2 1s-.6 1.7-.7 3.1v.5c0 1.6.2 2.8.7 3.5s1.1 1.1 2.1 1.1c1.7 0 2.5-1.5 2.5-4.6 0-1.5-.2-2.6-.6-3.4-.5-.8-1.1-1.2-2-1.2z"/><use xlink:href="#l" x="312.7"/><path d="M1652.7 382c.6 0 1.4-.2 2.3-.5v3.1c-.9.5-2.1.7-3.4.7-1.5 0-2.6-.4-3.2-1.3-.7-.8-1-2.1-1-3.8v-7.4h-1.8V371l2-1.4 1.1-3.2h2.4v3.3h3.8v3.1h-3.8v7.4c0 .6.1 1 .4 1.3.3.4.7.5 1.2.5z"/><use xlink:href="#o" x="232.8"/><path d="M1683.1 385.1h-3.7v-8.9c0-2.2-.7-3.3-2.2-3.3-1 0-1.8.4-2.3 1.2s-.7 2.1-.7 3.9v7.2h-3.7v-21.3h3.7v4.3l-.1 2.4-.1 1.2h.2c.8-1.5 2.1-2.2 3.9-2.2 1.6 0 2.8.5 3.6 1.4.8 1 1.2 2.4 1.2 4.2v9.9zm3.3-2c0-.8.2-1.3.5-1.7.4-.4.9-.6 1.6-.6s1.2.2 1.6.6.6 1 .6 1.7-.2 1.3-.6 1.7-.9.6-1.6.6-1.2-.2-1.6-.6-.5-.9-.5-1.7z"/></g><g fill="#3367db"><use xlink:href="#t"/><use xlink:href="#P" x="-151.6" y="-299.1"/><path d="M1354.3 451.7c.6 0 1.2-.1 2-.4v2.7c-.8.4-1.8.6-3 .6-1.3 0-2.2-.4-2.8-1.1s-.9-1.8-.9-3.3v-6.4h-1.6v-1.5l1.8-1.2.9-2.8h2.1v2.8h3.3v2.7h-3.3v6.4c0 .5.1.9.4 1.1s.6.4 1.1.4z"/><use xlink:href="#C" x="-10.4" y="-258.3"/><use xlink:href="#D" x="-10.5" y="-258.4"/><path d="M1398.6 454.3l-.4-1.7h-.2a2.94 2.94 0 0 1-1.5 1.4c-.6.3-1.4.5-2.2.5-1.4 0-2.4-.4-3.2-1.3-.7-.8-1.1-2-1.1-3.6V441h3.2v7.8c0 1 .2 1.7.5 2.2s.8.7 1.5.7c.9 0 1.6-.3 2-1s.6-1.8.6-3.4V441h3.2v13.3h-2.4zm12.5-13.6c.4 0 .8 0 1.1.1l-.2 3.4c-.3-.1-.6-.1-1-.1-1 0-1.8.3-2.4.9s-.9 1.4-.9 2.5v6.8h-3.2V441h2.5l.5 2.2h.2c.4-.7.9-1.4 1.5-1.8.5-.4 1.2-.7 1.9-.7zm14.3 13.9c-1.9 0-3.4-.6-4.5-1.8s-1.6-2.9-1.6-5c0-2.2.5-4 1.5-5.2s2.4-1.8 4.1-1.8 3 .5 3.9 1.6 1.4 2.6 1.4 4.5v1.8h-7.7c0 1 .3 1.8.8 2.4s1.2.9 2.1.9c.7 0 1.4-.1 2-.3s1.3-.4 2-.8v2.8c-.6.3-1.2.6-1.8.7-.5.1-1.3.2-2.2.2zm-.4-11.3c-.7 0-1.2.2-1.6.7s-.6 1.2-.7 2.1h4.5c0-.9-.2-1.6-.6-2.1-.4-.4-1-.7-1.6-.7z"/><use xlink:href="#X" x="-84.2" y="-339.9"/><path d="M1452 454.6c-1.4 0-2.5-.6-3.3-1.7h-.2l.2 1.9v5.4h-3.2V441h2.6l.5 1.7h.1c.8-1.3 1.9-2 3.4-2 1.4 0 2.5.6 3.3 1.8s1.2 2.9 1.2 5.1c0 1.4-.2 2.7-.6 3.7-.4 1.1-.9 1.9-1.6 2.4-.7.6-1.5.9-2.4.9zm-1-11c-.8 0-1.4.3-1.8.8-.4.6-.6 1.5-.6 2.7v.4c0 1.4.2 2.5.6 3.1s1 .9 1.8.9c1.5 0 2.2-1.3 2.2-4 0-1.3-.2-2.3-.5-3-.3-.5-.9-.9-1.7-.9zm14.9-2.9c.4 0 .8 0 1.1.1l-.2 3.4c-.3-.1-.6-.1-1-.1-1 0-1.8.3-2.4.9s-.9 1.4-.9 2.5v6.8h-3.2V441h2.5l.5 2.2h.2c.4-.7.9-1.4 1.5-1.8.5-.4 1.1-.7 1.9-.7z"/><use xlink:href="#P" x="-18.9" y="-299.1"/><use xlink:href="#N" x="46" y="-299.1"/><use xlink:href="#Q" x="-159.2" y="-299.1"/><path d="M1503.5 437.5c0-1.2.6-1.8 1.8-1.8s1.8.6 1.8 1.8c0 .6-.1 1-.4 1.3s-.7.5-1.3.5c-1.3 0-1.9-.6-1.9-1.8zm3.3 16.8h-3.2V441h3.2v13.3z"/><use xlink:href="#D" x="123" y="-258.4"/><use xlink:href="#u"/><use xlink:href="#N" x="102" y="-299.1"/><path d="M1554.7 454.3v-17.5h3.3v17.5h-3.3z"/><use xlink:href="#u" x="38"/><use xlink:href="#N" x="140" y="-299.1"/><use xlink:href="#v"/><use xlink:href="#G" x="161.3" y="-258.4"/><use xlink:href="#u" x="85.6"/><use xlink:href="#v" x="36.9"/><path d="M1632.7 452.6c0-.7.2-1.2.5-1.5s.8-.5 1.4-.5 1 .2 1.4.5c.3.4.5.9.5 1.5s-.2 1.1-.5 1.5-.8.5-1.4.5-1.1-.2-1.4-.5c-.4-.3-.5-.8-.5-1.5zm-302.6 37.6c0 1.6-.5 2.8-1.5 3.7s-2.4 1.4-4.2 1.4c-1.7 0-3.1-.4-4.4-1.1v-3.4c1 .5 1.9.9 2.7 1.1a7.47 7.47 0 0 0 2 .3c.7 0 1.3-.2 1.7-.5s.6-.8.6-1.4c0-.3-.1-.6-.3-.9s-.4-.5-.7-.8l-2-1.2c-.9-.5-1.7-1-2.1-1.4-.5-.5-.9-1-1.1-1.6-.3-.6-.4-1.3-.4-2.1 0-1.5.5-2.8 1.4-3.6.9-.9 2.2-1.3 3.9-1.3.8 0 1.6.1 2.3.3s1.5.5 2.3.9l-1.1 2.9c-.8-.4-1.5-.6-2.1-.8-.5-.2-1.1-.2-1.6-.2-.6 0-1.1.2-1.4.5s-.5.8-.5 1.3c0 .3.1.6.2.9.1.2.3.5.6.7s1 .6 2.1 1.2c1.5.8 2.4 1.6 3 2.3.3.7.6 1.7.6 2.8z"/><use xlink:href="#f" x="-133.3" y="-380.6"/><path d="M1364.8 488.4c0 2.2-.5 3.9-1.5 5.1s-2.4 1.8-4.3 1.8c-1.1 0-2.1-.3-3-.8-.9-.6-1.5-1.4-2-2.4-.5-1.1-.7-2.3-.7-3.7 0-2.2.5-3.9 1.5-5.1s2.4-1.8 4.3-1.8c1.1 0 2.1.3 3 .8.9.6 1.5 1.4 2 2.4.5 1.1.7 2.3.7 3.7zm-8.2 0c0 1.3.2 2.3.6 3s1 1 1.9 1 1.5-.3 1.9-1 .6-1.7.6-3-.2-2.3-.6-3-1-1-1.9-1-1.5.3-1.9 1-.6 1.6-.6 3zm21.7 0c0 2.2-.5 3.9-1.5 5.1s-2.4 1.8-4.3 1.8c-1.1 0-2.1-.3-3-.8-.9-.6-1.5-1.4-2-2.4-.5-1.1-.7-2.3-.7-3.7 0-2.2.5-3.9 1.5-5.1s2.4-1.8 4.3-1.8c1.1 0 2.1.3 3 .8.9.6 1.5 1.4 2 2.4.4 1.1.7 2.3.7 3.7zm-8.2 0c0 1.3.2 2.3.6 3s1 1 1.9 1 1.5-.3 1.9-1 .6-1.7.6-3-.2-2.3-.6-3-1-1-1.9-1-1.5.3-1.9 1-.6 1.6-.6 3z"/><use xlink:href="#w"/><use xlink:href="#F" x="-30.2" y="-217.6"/><use xlink:href="#x"/><use xlink:href="#V" x="-9.8" y="-299.1"/><use xlink:href="#O" x="-28" y="-258.3"/><use xlink:href="#B" x="90.4" y="-217.6"/><path d="M1451.8 490v-3h5.7v3h-5.7z"/><use xlink:href="#w" x="78.9"/><use xlink:href="#J" x="-71.1" y="-217.6"/><use xlink:href="#f" x="10" y="-380.6"/><use xlink:href="#V" x="67.3" y="-299.1"/><path d="M1520.8 492.4c.6 0 1.2-.1 2-.4v2.7c-.8.4-1.8.6-3 .6-1.3 0-2.2-.4-2.8-1.1s-.9-1.8-.9-3.3v-6.4h-1.6V483l1.8-1.2.9-2.8h2.1v2.8h3.3v2.7h-3.3v6.4c0 .5.1.9.4 1.1.4.3.7.4 1.1.4z"/><use xlink:href="#S" x="140.6" y="-299.1"/><use xlink:href="#G" x="100.2" y="-217.6"/><use xlink:href="#h" x="6.6" y="-380.6"/><use xlink:href="#b" x="-198.7" y="-299.1"/><use xlink:href="#Z" x="-14.8" y="-299.1"/><use xlink:href="#M" x="163.6" y="-258.3"/><path d="M1604.2 481.7v1.9l-1.9.5c.3.6.5 1.3.5 2 0 1.4-.4 2.5-1.3 3.3s-2.1 1.2-3.7 1.2h-.6l-.5-.1c-.3.3-.5.6-.5 1 0 .5.6.8 1.8.8h2c1.3 0 2.3.3 3 .9s1 1.6 1 2.8c0 1.6-.6 2.8-1.7 3.6-1.2.9-2.8 1.3-5 1.3-1.7 0-2.9-.3-3.8-1-.9-.6-1.3-1.6-1.3-2.7 0-.8.2-1.5.7-2 .4-.5 1.1-.9 2-1.2-.3-.2-.6-.4-.9-.8-.2-.4-.4-.7-.4-1.2s.1-.9.4-1.3c.3-.3.6-.7 1.1-1-.6-.3-1.1-.8-1.5-1.5s-.5-1.5-.5-2.4c0-1.5.4-2.6 1.3-3.4.8-.8 2-1.2 3.6-1.2.3 0 .7 0 1.2.1s.7.1.9.1h4.1zm-9.1 15.3c0 .5.2.9.6 1.2s1 .4 1.8.4c1.2 0 2.1-.2 2.7-.5.7-.4 1-.8 1-1.5a1 1 0 0 0-.6-1c-.4-.2-1-.3-1.8-.3h-1.7c-.6 0-1.1.2-1.5.5-.3.2-.5.6-.5 1.2zm1.1-10.9c0 .7.1 1.3.4 1.7s.7.6 1.3.6 1.1-.2 1.3-.6c.3-.4.4-1 .4-1.7 0-1.6-.6-2.4-1.8-2.4-1 0-1.6.8-1.6 2.4zm9.5 7.3c0-.7.2-1.2.5-1.5s.8-.5 1.4-.5 1 .2 1.4.5c.3.4.5.9.5 1.5s-.2 1.1-.5 1.5-.8.5-1.4.5-1.1-.2-1.4-.5c-.3-.4-.5-.9-.5-1.5zM1326.8 526h6.2v9c-1 .4-1.9.6-2.8.8l-2.7.2c-2.3 0-4.1-.8-5.4-2.3-1.2-1.5-1.9-3.8-1.9-6.7 0-2.8.7-5 2.2-6.6 1.4-1.6 3.4-2.4 6-2.4 1.6 0 3.1.4 4.6 1.1l-1.1 3c-1.1-.6-2.3-1-3.5-1-1.4 0-2.6.5-3.4 1.6-.9 1.1-1.3 2.5-1.3 4.3 0 1.9.3 3.3 1 4.3s1.7 1.5 3 1.5c.7 0 1.4-.1 2.1-.2V529h-2.9v-3z"/><use xlink:href="#Z" x="-251.3" y="-258.4"/><use xlink:href="#H" x="-105" y="-176.9"/><use xlink:href="#P" x="-132.6" y="-217.6"/><use xlink:href="#B" x="18.1" y="-176.9"/><use xlink:href="#Z" x="-207.2" y="-258.4"/><path d="M1393.8 525.2h-2.8v10.6h-3.2v-10.6h-1.8v-1.8l1.8-1v-1c0-1.5.3-2.6 1-3.3s1.7-1.1 3.2-1.1c1.1 0 2.1.2 3 .6l-.8 2.7c-.7-.2-1.3-.3-1.8-.3s-.8.2-1 .5-.3.7-.3 1.2v.8h2.8v2.7z"/><use xlink:href="#y"/><use xlink:href="#I" x="-64.8" y="-176.9"/><use xlink:href="#D" x="36.4" y="-176.9"/><use xlink:href="#C" x="67.9" y="-176.8"/><use xlink:href="#D" x="67.9" y="-176.9"/><use xlink:href="#E" x="67.9" y="-176.9"/><use xlink:href="#S" x="98.2" y="-258.4"/><path d="M1508.2 535.8l-1.1-4.2h-5.7l-1.1 4.2h-3.5l5.5-17.5h4l5.5 17.5h-3.6zm-2-7.2l-1.8-6.4-.3-1.2c-.2 1-.9 3.5-2 7.6h4.1zm10.8.5v6.7h-3.3v-17.5h4.5c2.1 0 3.7.4 4.7 1.3s1.5 2.2 1.5 3.9c0 1-.3 1.9-.8 2.7s-1.2 1.4-2.1 1.9l4.6 7.6h-3.7l-3.7-6.7h-1.7zm0-3h1.1c1 0 1.8-.2 2.3-.6s.7-1 .7-1.8-.3-1.4-.8-1.8-1.3-.5-2.4-.5h-1v4.7z"/><use xlink:href="#R" x="159.9" y="-258.3"/><path d="M1555.6 535.8h-3.2V528c0-1.9-.6-2.9-1.9-2.9-.9 0-1.6.3-2 1s-.6 1.8-.6 3.4v6.3h-3.2v-18.6h3.2v3.8l-.1 2.1-.1 1.1h.2c.7-1.3 1.9-2 3.4-2 1.4 0 2.5.4 3.2 1.3.7.8 1.1 2.1 1.1 3.6v8.7z"/><use xlink:href="#O" x="97.8" y="-217.6"/><use xlink:href="#x" x="161.7" y="40.7"/><use xlink:href="#G" x="147" y="-176.9"/><use xlink:href="#h" x="53.4" y="-339.8"/><use xlink:href="#I" x="127.3" y="-176.9"/><use xlink:href="#d" x="188.9" y="-339.8"/><use xlink:href="#x" x="218.2" y="40.7"/><use xlink:href="#i" x="112.4" y="-380.6"/><use xlink:href="#t" y="122.3"/><use xlink:href="#Z" x="-251.3" y="-217.6"/><use xlink:href="#H" x="-105" y="-136.1"/><use xlink:href="#P" x="-132.6" y="-176.9"/><use xlink:href="#y" x="-21.7" y="40.7"/><use xlink:href="#z"/><use xlink:href="#W" x="-52.8" y="-217.6"/><path d="M1426.6 573.9c.6 0 1.2-.1 2-.4v2.7c-.8.4-1.8.6-3 .6-1.3 0-2.2-.4-2.8-1.1s-.9-1.8-.9-3.3V566h-1.6v-1.5l1.8-1.2.9-2.8h2.1v2.8h3.3v2.7h-3.3v6.4c0 .5.1.9.4 1.1.4.3.7.4 1.1.4z"/><use xlink:href="#Z" x="-156.7" y="-217.6"/><use xlink:href="#W" x="-23.2" y="-217.6"/><use xlink:href="#M" x="35.1" y="-176.8"/><use xlink:href="#a" x="-156.7" y="-217.6"/><path d="M1487 573.9c.6 0 1.2-.1 2-.4v2.7c-.8.4-1.8.6-3 .6-1.3 0-2.2-.4-2.8-1.1s-.9-1.8-.9-3.3V566h-1.6v-1.5l1.8-1.2.9-2.8h2.1v2.8h3.3v2.7h-3.3v6.4c0 .5.1.9.4 1.1.3.3.6.4 1.1.4z"/><use xlink:href="#W" x="30.5" y="-217.6"/><use xlink:href="#C" x="135.7" y="-136.1"/><path d="M1533.7 569.9c0 2.2-.5 3.9-1.5 5.1s-2.4 1.8-4.3 1.8c-1.1 0-2.1-.3-3-.8-.9-.6-1.5-1.4-2-2.4-.5-1.1-.7-2.3-.7-3.7 0-2.2.5-3.9 1.5-5.1s2.4-1.8 4.3-1.8c1.1 0 2.1.3 3 .8.9.6 1.5 1.4 2 2.4a10.16 10.16 0 0 1 .7 3.7zm-8.2 0c0 1.3.2 2.3.6 3s1 1 1.9 1 1.5-.3 1.9-1 .6-1.7.6-3-.2-2.3-.6-3-1-1-1.9-1-1.5.3-1.9 1c-.4.6-.6 1.6-.6 3z"/><use xlink:href="#E" x="135.7" y="-136.1"/><use xlink:href="#S" x="166" y="-217.6"/><use xlink:href="#z" x="179.4"/><use xlink:href="#W" x="126.6" y="-217.6"/><path d="M1604.8 576.8c-1.4 0-2.5-.6-3.3-1.8s-1.2-2.9-1.2-5.1.4-3.9 1.2-5.1 1.9-1.8 3.4-1.8 2.6.7 3.4 2h.1c-.2-1-.2-1.9-.2-2.7V558h3.3v18.6h-2.5l-.6-1.7h-.1c-.9 1.2-2 1.9-3.5 1.9zm1.1-2.9c.8 0 1.4-.3 1.8-.8s.6-1.5.6-2.8v-.4c0-1.4-.2-2.5-.6-3.1s-1-.9-1.9-.9c-.7 0-1.3.3-1.7 1s-.6 1.7-.6 3 .2 2.3.6 3c.5.7 1.1 1 1.8 1z"/><use xlink:href="#d" x="188" y="-299.1"/><path d="M1630.9 576.6h-3.2V558h3.2v18.6zm2.9-1.8c0-.7.2-1.2.5-1.5s.8-.5 1.4-.5 1 .2 1.4.5c.3.4.5.9.5 1.5s-.2 1.1-.5 1.5-.8.5-1.4.5-1.1-.2-1.4-.5-.5-.8-.5-1.5z"/></g><path d="M1300.4 435c-5.9 0-10.6 4.8-10.6 10.6s4.8 10.6 10.6 10.6c5.9 0 10.6-4.8 10.6-10.6s-4.7-10.6-10.6-10.6zm6 8.4l-7.4 7.3c-.2.2-.5.2-.7 0l-3.9-3.9c-.2-.2-.2-.5 0-.7l1-1c.2-.2.5-.2.7 0l2.6 2.6 6.1-6c.2-.2.5-.2.7 0l1 1c.1.2.1.5-.1.7z" fill="#8b2caf"/><use xlink:href="#AA" fill="#c371ea"/><path d="M1300.4 476.9c-5.9 0-10.6 4.8-10.6 10.6s4.8 10.6 10.6 10.6c5.9 0 10.6-4.8 10.6-10.6s-4.7-10.6-10.6-10.6zm6 8.4l-7.4 7.3c-.2.2-.5.2-.7 0l-3.9-3.9c-.2-.2-.2-.5 0-.7l1-1c.2-.2.5-.2.7 0l2.6 2.6 6.1-6c.2-.2.5-.2.7 0l1 1c.1.1.1.5-.1.7z" fill="#8b2caf"/><path d="M1306.4 485.3l-7.4 7.3c-.2.2-.5.2-.7 0l-3.9-3.9c-.2-.2-.2-.5 0-.7l1-1c.2-.2.5-.2.7 0l2.6 2.6 6.1-6c.2-.2.5-.2.7 0l1 1c.1.1.1.5-.1.7z" fill="#c371ea"/><use xlink:href="#AB" fill="#8b2caf"/><use xlink:href="#AA" y="82.1" fill="#c371ea"/><use xlink:href="#AB" y="40.2" fill="#8b2caf"/><use xlink:href="#AA" y="122.3" fill="#c371ea"/><path d="M95.9 466.3h988.8v10H95.9z" fill="#3367db"/><g fill="#5791f7"><path d="M98.1 495.4h5.5c2.5 0 4.4.4 5.5 1.2s1.7 2.1 1.7 3.8c0 1.2-.2 2.2-.7 2.9-.5.8-1.2 1.2-2 1.4v.1c1.1.3 1.9.8 2.4 1.6s.7 1.8.7 3.1c0 1.8-.6 3.2-1.8 4.3-1.2 1-2.8 1.5-4.8 1.5h-6.7v-19.9zm3.8 7.9h2.2c1 0 1.8-.2 2.2-.5.5-.4.7-.9.7-1.8 0-.8-.2-1.3-.7-1.6s-1.3-.5-2.4-.5h-2v4.4zm0 3.3v5.2h2.5c1 0 1.8-.2 2.3-.7.5-.4.7-1.1.7-2 0-1.7-1.1-2.5-3.2-2.5h-2.3zm10.7-6.5h4.1l2.6 8.6c.2.7.4 1.6.5 2.7h.1c.1-.9.3-1.8.5-2.7l2.5-8.6h4l-5.8 17.2c-.5 1.6-1.3 2.8-2.3 3.6a5.23 5.23 0 0 1-3.4 1.2c-.6 0-1.3-.1-1.9-.2v-3.3c.4.1.9.2 1.5.2a2.19 2.19 0 0 0 1.7-.7 3.88 3.88 0 0 0 1.1-2l.2-.8-5.4-15.2zm22.9 15.2v-20h3.8v20h-3.8zm15.6-15.5c.5 0 .9 0 1.3.1l-.3 3.9c-.3-.1-.7-.1-1.1-.1-1.2 0-2.1.3-2.8 1s-1 1.6-1 2.9v7.8h-3.7v-15.3h2.8l.5 2.6h.2c.4-.9 1-1.5 1.7-2.1s1.5-.8 2.4-.8zm11.2 3.4h-3.2v12.2h-3.7v-12.2h-2v-2l2-1.1V499c0-1.7.4-3 1.1-3.8.8-.8 2-1.2 3.7-1.2 1.3 0 2.4.2 3.4.6l-.9 3.1c-.7-.3-1.4-.4-2.1-.4-.5 0-.9.2-1.1.5-.2.4-.4.8-.4 1.3v1h3.2v3.1z"/><use xlink:href="#AC"/><use xlink:href="#s" x="-1413.8" y="130.2"/><path d="M199.6 515.3h-3.7V494h3.7v21.3zm10 .3c-2.2 0-3.9-.7-5.1-2-1.2-1.4-1.8-3.3-1.8-5.8 0-2.6.6-4.5 1.7-5.9s2.7-2.1 4.7-2.1c1.9 0 3.4.6 4.5 1.8s1.6 2.9 1.6 5.1v2h-8.8a4.67 4.67 0 0 0 .9 2.8c.6.7 1.4 1 2.5 1 .8 0 1.6-.1 2.3-.3s1.5-.5 2.3-.9v3.2c-.6.4-1.3.6-2.1.8-.7.2-1.6.3-2.7.3zm-.5-12.9c-.8 0-1.4.3-1.8.8-.4.6-.7 1.4-.8 2.4h5.2c0-1-.3-1.8-.7-2.4-.5-.5-1.1-.8-1.9-.8zm18.6 8.1c0 1.6-.5 2.8-1.5 3.6s-2.4 1.2-4.3 1.2c-1 0-1.8-.1-2.5-.2s-1.4-.4-2-.7v-3.4c.7.4 1.5.7 2.3.9s1.6.4 2.3.4c1.3 0 2-.4 2-1.3 0-.3-.1-.6-.3-.8s-.5-.4-.9-.7-1-.6-1.8-.9c-1-.5-1.8-.9-2.3-1.4-.5-.4-.8-.9-1.1-1.4-.2-.5-.3-1.2-.3-2 0-1.4.5-2.4 1.4-3.2.9-.7 2.3-1.1 4-1.1 1.6 0 3.2.4 4.8 1.2l-1.1 3-1.9-.8c-.6-.2-1.2-.3-1.8-.3-1.1 0-1.6.3-1.6 1 0 .4.2.7.5 1 .4.3 1.1.7 2.3 1.2 1.1.5 1.8.9 2.3 1.4.5.4.9.9 1.1 1.4s.4 1.1.4 1.9z"/><use xlink:href="#s" x="-1362.7" y="130.2"/><use xlink:href="#AC" x="82.5"/><path d="M269.6 499.8c.5 0 .9 0 1.3.1l-.3 3.9c-.3-.1-.7-.1-1.1-.1-1.2 0-2.1.3-2.8 1s-1 1.6-1 2.9v7.8H262v-15.3h2.8l.5 2.6h.2c.4-.9 1-1.5 1.7-2.1a3.84 3.84 0 0 1 2.4-.8zm624.2 500.1c0 1.8-.6 3.2-1.7 4.3-1.2 1-2.8 1.6-4.8 1.6-1.9 0-3.6-.4-5-1.2v-3.9a30.3 30.3 0 0 0 3 1.3c.8.3 1.6.4 2.3.4.8 0 1.5-.2 1.9-.5s.7-.9.7-1.6a1.69 1.69 0 0 0-.3-1c-.2-.3-.5-.6-.9-.9s-1.1-.7-2.3-1.4c-1.1-.6-1.9-1.1-2.4-1.7s-1-1.1-1.3-1.8-.5-1.5-.5-2.5c0-1.8.5-3.2 1.6-4.2s2.5-1.5 4.4-1.5c.9 0 1.8.1 2.6.4l2.6 1-1.2 3.3c-.9-.4-1.7-.7-2.4-.9-.6-.2-1.2-.3-1.8-.3-.7 0-1.3.2-1.6.6-.4.4-.6.9-.6 1.5 0 .4.1.7.2 1 .2.3.4.5.7.8s1.1.7 2.4 1.4c1.7.9 2.8 1.8 3.4 2.7.7.7 1 1.8 1 3.1zm10.4 5.8c-1.6 0-2.9-.7-3.8-2h-.2l.2 2.2v6.2h-3.7v-22h3l.5 2h.2c.9-1.5 2.2-2.3 3.9-2.3 1.6 0 2.9.7 3.8 2.1s1.4 3.3 1.4 5.8c0 1.6-.2 3-.6 4.3s-1 2.1-1.8 2.7-1.8 1-2.9 1zm-1.1-12.5c-.9 0-1.6.3-2 1-.4.6-.6 1.7-.7 3.1v.5c0 1.6.2 2.8.7 3.5s1.1 1.1 2.1 1.1c1.7 0 2.5-1.5 2.5-4.6 0-1.5-.2-2.6-.6-3.4s-1.1-1.2-2-1.2zm18.1 12.3l-.7-2.1h-.1c-.6.9-1.3 1.5-1.9 1.8s-1.5.5-2.6.5c-1.3 0-2.3-.4-3.1-1.3-.8-.8-1.1-2-1.1-3.6s.5-2.8 1.5-3.6 2.5-1.2 4.6-1.3l2.4-.1v-.7c0-1.5-.7-2.3-2.1-2.3-1.1 0-2.4.4-3.8 1.1l-1.2-2.8c1.6-.9 3.3-1.4 5.2-1.4 1.8 0 3.2.4 4.2 1.3s1.5 2.3 1.5 4.1v10.2h-2.8zm-1.1-7.1l-1.4.1c-1.1 0-1.9.3-2.4.7s-.8 1-.8 1.8c0 1.2.6 1.8 1.8 1.8.9 0 1.5-.3 2.1-.8.5-.6.8-1.3.8-2.2v-1.4zm15.1-8.5c.5 0 .9 0 1.3.1l-.3 3.9c-.3-.1-.7-.1-1.1-.1-1.2 0-2.1.3-2.8 1s-1 1.6-1 2.9v7.8h-3.7v-15.3h2.8l.5 2.6h.2c.4-.9 1-1.5 1.7-2.1.8-.6 1.5-.8 2.4-.8z"/><use xlink:href="#n" x="-406.6" y="620.3"/><use xlink:href="#AD"/><path d="M982.1 997.8v7.7h-3.8v-20h5.2c2.4 0 4.2.5 5.4 1.5s1.7 2.5 1.7 4.5c0 1.2-.3 2.2-.9 3.1s-1.4 1.6-2.4 2.2l5.2 8.7h-4.2l-4.2-7.7h-2zm0-3.5h1.2c1.2 0 2.1-.2 2.6-.7.6-.4.9-1.1.9-2.1 0-.9-.3-1.6-.9-2s-1.5-.6-2.7-.6h-1.1v5.4z"/><use xlink:href="#AE"/><use xlink:href="#AF"/><path d="M1033.8 1005.5l-.5-2h-.2c-.4.7-1 1.3-1.7 1.6-.7.4-1.6.6-2.5.6-1.6 0-2.8-.5-3.6-1.4-.8-1-1.2-2.3-1.2-4.1v-10h3.7v8.9c0 1.1.2 1.9.5 2.5s.9.8 1.7.8c1 0 1.8-.4 2.3-1.2s.7-2.1.7-3.9v-7.2h3.7v15.3h-2.9zm11 .2c-1.6 0-2.9-.7-3.8-2.1s-1.4-3.3-1.4-5.8.5-4.5 1.4-5.9 2.2-2.1 3.8-2.1c1.7 0 3 .7 3.9 2.2h.1c-.2-1.1-.3-2.2-.3-3v-4.9h3.7v21.3h-2.8l-.7-2h-.2c-.7 1.6-1.9 2.3-3.7 2.3zm1.3-3.3c.9 0 1.6-.3 2.1-.9.4-.6.7-1.7.7-3.2v-.5c0-1.6-.2-2.8-.7-3.5s-1.2-1.1-2.2-1.1c-.8 0-1.5.4-1.9 1.2s-.7 1.9-.7 3.4.2 2.6.7 3.4 1.2 1.2 2 1.2z"/><use xlink:href="#p" x="-381.5" y="620.4"/><path d="M1076.3 997.8c0 2.5-.6 4.4-1.8 5.8s-2.8 2.1-4.9 2.1c-1.3 0-2.5-.3-3.5-1-1-.6-1.8-1.6-2.3-2.8s-.8-2.6-.8-4.2c0-2.5.6-4.4 1.7-5.8 1.2-1.4 2.8-2.1 4.9-2.1 1.3 0 2.5.3 3.5 1 1 .6 1.8 1.6 2.3 2.7.6 1.3.9 2.7.9 4.3zm-9.5 0c0 1.5.2 2.7.7 3.4.4.8 1.2 1.2 2.2 1.2s1.7-.4 2.1-1.2.7-1.9.7-3.4-.2-2.6-.7-3.4c-.4-.8-1.2-1.1-2.2-1.1s-1.7.4-2.1 1.1-.7 1.9-.7 3.4z"/><use xlink:href="#AD" x="125"/><use xlink:href="#AE" x="102.1"/><use xlink:href="#AE" x="114.5"/><use xlink:href="#q" x="-403" y="620.3"/><use xlink:href="#AF" x="129.1"/></g></svg>