<svg id="Layer_1" data-name="Layer 1" xmlns="http://www.w3.org/2000/svg" viewBox="0 0 1919.84 1039.88"><defs><style>.cls-1{fill:#303089;opacity:0;}.cls-2{fill:#3367db;}.cls-3{fill:#5791f7;}</style></defs><path class="cls-1" d="M0,0H1919.84a0,0,0,0,1,0,0V986a53.87,53.87,0,0,1-53.87,53.87H53.87A53.87,53.87,0,0,1,0,986V0A0,0,0,0,1,0,0Z"/><path class="cls-2" d="M51.59,246.32v27H70.75v16.86H51.59v46.6H34.72V229.46H79.18v16.86Z" transform="translate(-0.08)"/><path class="cls-2" d="M125.78,319.75H106.46l-3.06,17H86.23l21.46-107.3h16.86L146,336.76H128.84Zm-2.92-16.87-6.74-38.47-6.75,38.47Z" transform="translate(-0.08)"/><path class="cls-2" d="M186.63,338q-10.73,0-17.78-6.29-7.66-7.67-7.66-20.08v-57q0-12.42,7.66-20.08,7.05-6.28,17.78-6.29,11,0,17.78,6.29,7.67,7.35,7.67,20.08v9.5H195.22v-9.5q0-5.67-2.15-7.67-2-1.83-6.44-1.83c-2.86,0-5,.61-6.28,1.83-1.54,1.44-2.3,4-2.3,7.67v57c0,3.68.76,6.24,2.3,7.67,1.32,1.22,3.42,1.84,6.28,1.84s5.11-.62,6.44-1.84,2.15-3.89,2.15-7.67V297.83h16.86v13.79q0,12.72-7.67,20.08Q197.66,338,186.63,338Z" transform="translate(-0.08)"/><path class="cls-2" d="M248.25,336.76H231.39V229.46h16.86Z" transform="translate(-0.08)"/><path class="cls-2" d="M305,319.75H285.65l-3.06,17H265.42l21.46-107.3h16.86l21.46,107.3H308Zm-2.92-16.87-6.74-38.47-6.75,38.47Z" transform="translate(-0.08)"/><path class="cls-2" d="M387,336.76H342.52V229.46h16.86V319.9H387Z" transform="translate(-0.08)"/><path class="cls-2" d="M453.8,246.32v27h19v16.86h-19V319.9h27.6v16.86H436.94V229.46H481.4v16.86Z" transform="translate(-0.08)"/><path class="cls-2" d="M538.72,336.76l-12-31.73L515,336.76H497L517,283.26,497,229.46H515l11.81,31.73,11.8-31.73h18.09l-20.08,53.8,20.08,53.5Z" transform="translate(-0.08)"/><path class="cls-2" d="M591,336.76H574.13V229.46h25.45q10.88,0,17.78,6.44,7.67,7,7.66,19.93v11.64q0,13-7.66,20.09-6.75,6.29-17.78,6.28H591ZM591,277h8.59q4.29,0,6.28-1.84,2.29-2.14,2.3-7.67V255.83q0-5.37-2.3-7.67-2-1.84-6.28-1.84H591Z" transform="translate(-0.08)"/><path class="cls-2" d="M693.69,336.76H676.53l-8.74-43.07h-7.67v43.07H643.26V229.46h25.45q10.88,0,17.78,6.44,7.66,7,7.66,19.93v11.49q0,13-7.66,20.08a15.74,15.74,0,0,1-2.45,2Zm-16.4-80.93c0-3.58-.76-6.14-2.3-7.67q-2-1.84-6.28-1.84h-8.59v30.51h8.59c2.86,0,4.95-.62,6.28-1.84,1.54-1.43,2.3-4,2.3-7.67Z" transform="translate(-0.08)"/><path class="cls-2" d="M730,246.32v27h19v16.86H730V319.9h27.59v16.86H713.16V229.46h44.45v16.86Z" transform="translate(-0.08)"/><path class="cls-2" d="M800.07,338q-11,0-17.78-6.29-7.66-7.35-7.67-20.08V297.67h16.87v13.95c0,3.68.76,6.24,2.3,7.67,1.32,1.22,3.42,1.84,6.28,1.84s5.06-.62,6.29-1.84q2.29-2,2.29-7.67v-6.74A16.17,16.17,0,0,0,803,292.61a49.83,49.83,0,0,0-6.44-4A59,59,0,0,1,786,281.88a33.92,33.92,0,0,1-8.43-11.19,31.67,31.67,0,0,1-2.92-13.49v-2.6q0-12.72,7.67-20.08,6.74-6.28,17.78-6.29t17.78,6.29q7.67,7.35,7.67,20.08V264H808.65V254.6q0-5.67-2.29-7.67-1.85-1.83-6.29-1.83c-2.86,0-5,.61-6.28,1.83-1.54,1.44-2.3,4-2.3,7.67v2.6a15.67,15.67,0,0,0,5.67,12.11,47.09,47.09,0,0,0,6,3.68q8,4.31,11,7.05,11.34,10.13,11.35,24.84v6.74q0,12.72-7.67,20.08Q811.1,338,800.07,338Z" transform="translate(-0.08)"/><path class="cls-2" d="M867.36,338q-11,0-17.78-6.29-7.67-7.35-7.66-20.08V297.67h16.86v13.95c0,3.68.76,6.24,2.3,7.67,1.32,1.22,3.42,1.84,6.28,1.84s5.06-.62,6.29-1.84q2.29-2,2.3-7.67v-6.74a16.18,16.18,0,0,0-5.68-12.27,50.2,50.2,0,0,0-6.43-4,59.12,59.12,0,0,1-10.58-6.75,33.92,33.92,0,0,1-8.43-11.19,31.66,31.66,0,0,1-2.91-13.49v-2.6q0-12.72,7.66-20.08,6.75-6.28,17.78-6.29t17.78,6.29q7.67,7.35,7.67,20.08V264H876V254.6q0-5.67-2.3-7.67-1.85-1.83-6.29-1.83c-2.86,0-5,.61-6.28,1.83-1.54,1.44-2.3,4-2.3,7.67v2.6a15.67,15.67,0,0,0,5.67,12.11,47.09,47.09,0,0,0,6,3.68q8,4.31,11,7.05,11.35,10.13,11.35,24.84v6.74q0,12.72-7.67,20.08Q878.39,338,867.36,338Z" transform="translate(-0.08)"/><path class="cls-2" d="M928.52,336.76H911.66V229.46h16.86Z" transform="translate(-0.08)"/><path class="cls-2" d="M973.89,338q-11,0-17.78-6.29-7.67-7.35-7.66-20.08v-57q0-12.72,7.66-20.08,6.75-6.28,17.78-6.29t17.78,6.29q7.67,7.35,7.67,20.08v57q0,12.72-7.67,20.08Q984.92,338,973.89,338Zm0-92.89c-2.86,0-5,.61-6.28,1.83-1.53,1.44-2.3,4-2.3,7.67v57q0,5.52,2.3,7.67c1.32,1.22,3.42,1.84,6.28,1.84s5.06-.62,6.29-1.84q2.3-2,2.3-7.67v-57q0-5.67-2.3-7.67Q978.34,245.1,973.89,245.1Z" transform="translate(-0.08)"/><path class="cls-2" d="M1071.08,336.76h-9.82l-25.75-54.42v54.42h-16.86V229.46h9.81l25.75,54.26V229.46h16.87Z" transform="translate(-0.08)"/><path class="cls-2" d="M1114.76,338q-11,0-17.78-6.29-7.67-7.35-7.67-20.08V297.67h16.87v13.95c0,3.68.76,6.24,2.3,7.67,1.32,1.22,3.42,1.84,6.28,1.84s5.06-.62,6.28-1.84c1.54-1.33,2.3-3.89,2.3-7.67v-6.74a16.17,16.17,0,0,0-5.67-12.27,49.83,49.83,0,0,0-6.44-4,59,59,0,0,1-10.57-6.75,33.92,33.92,0,0,1-8.43-11.19,31.52,31.52,0,0,1-2.92-13.49v-2.6q0-12.72,7.67-20.08,6.74-6.28,17.78-6.29t17.78,6.29q7.67,7.35,7.67,20.08V264h-16.87V254.6c0-3.78-.76-6.34-2.3-7.67-1.22-1.22-3.32-1.83-6.28-1.83s-5,.61-6.28,1.83c-1.54,1.44-2.3,4-2.3,7.67v2.6a15.67,15.67,0,0,0,5.67,12.11,47.09,47.09,0,0,0,6,3.68q8,4.31,11,7.05,11.34,10.13,11.35,24.84v6.74q0,12.72-7.67,20.08Q1125.79,338,1114.76,338Z" transform="translate(-0.08)"/><rect class="cls-2" x="96.25" y="375.43" width="988.85" height="10"/><path class="cls-3" d="M98.57,404.46h5.54q3.78,0,5.49,1.21a4.39,4.39,0,0,1,1.71,3.85,5.3,5.3,0,0,1-.75,2.94,3,3,0,0,1-2,1.38V414a3.84,3.84,0,0,1,2.43,1.58,5.65,5.65,0,0,1,.75,3.09,5.37,5.37,0,0,1-1.75,4.27,7.05,7.05,0,0,1-4.78,1.53H98.57Zm3.78,7.92h2.19a3.62,3.62,0,0,0,2.22-.54,2.1,2.1,0,0,0,.68-1.76,1.86,1.86,0,0,0-.74-1.65,4.4,4.4,0,0,0-2.37-.5h-2Zm0,3.36V421h2.45a3.38,3.38,0,0,0,2.3-.67,2.62,2.62,0,0,0,.75-2c0-1.66-1.06-2.49-3.17-2.49Z" transform="translate(-0.08)"/><path class="cls-3" d="M113.08,409.16h4.06l2.57,8.6a13.12,13.12,0,0,1,.45,2.65h.07a13.1,13.1,0,0,1,.52-2.65l2.52-8.6h4L121.5,426.4a7.46,7.46,0,0,1-2.26,3.58,5.25,5.25,0,0,1-3.43,1.19,7.45,7.45,0,0,1-1.88-.23v-3.31a5.56,5.56,0,0,0,1.46.18,2.42,2.42,0,0,0,1.72-.68,4.51,4.51,0,0,0,1.15-2l.22-.75Z" transform="translate(-0.08)"/><path class="cls-3" d="M136,424.45v-20h3.78v20Z" transform="translate(-0.08)"/><path class="cls-3" d="M151.51,408.88a5.54,5.54,0,0,1,1.26.12l-.28,3.91a3.87,3.87,0,0,0-1.1-.14,3.66,3.66,0,0,0-2.77,1,4,4,0,0,0-1,2.87v7.78h-3.71V409.16h2.81l.55,2.57h.18a5.6,5.6,0,0,1,1.71-2.07A3.92,3.92,0,0,1,151.51,408.88Z" transform="translate(-0.08)"/><path class="cls-3" d="M162.76,412.29h-3.22v12.16h-3.71V412.29h-2v-2l2-1.12V408a5.34,5.34,0,0,1,1.15-3.81,4.86,4.86,0,0,1,3.66-1.2,8.58,8.58,0,0,1,3.42.64l-.95,3.06a6.39,6.39,0,0,0-2.07-.4,1.26,1.26,0,0,0-1.14.53,2.34,2.34,0,0,0-.36,1.35v1h3.22Z" transform="translate(-0.08)"/><path class="cls-3" d="M173.52,424.45l-.71-2.08h-.1a5.78,5.78,0,0,1-1.93,1.84,5.65,5.65,0,0,1-2.59.51,3.92,3.92,0,0,1-3.08-1.26,5.18,5.18,0,0,1-1.13-3.58,4.23,4.23,0,0,1,1.52-3.59,8,8,0,0,1,4.57-1.27l2.36-.09v-.67c0-1.55-.71-2.32-2.12-2.32a8.78,8.78,0,0,0-3.83,1.11l-1.23-2.82a10.07,10.07,0,0,1,5.21-1.38,6,6,0,0,1,4.19,1.34,5.23,5.23,0,0,1,1.46,4.07v10.19Zm-1.09-7.08-1.44.05a4.25,4.25,0,0,0-2.41.66,2.17,2.17,0,0,0-.79,1.83,1.57,1.57,0,0,0,1.8,1.76,2.72,2.72,0,0,0,2.07-.83,3.17,3.17,0,0,0,.77-2.22Z" transform="translate(-0.08)"/><path class="cls-3" d="M192.49,424.45h-3.71v-8.93a4.7,4.7,0,0,0-.52-2.48,1.84,1.84,0,0,0-1.67-.83,2.41,2.41,0,0,0-2.25,1.17,8,8,0,0,0-.69,3.88v7.19h-3.71V409.16h2.83l.5,2h.21a4.07,4.07,0,0,1,1.71-1.68,5.35,5.35,0,0,1,2.47-.56,4.47,4.47,0,0,1,3.6,1.44,6.24,6.24,0,0,1,1.23,4.16Z" transform="translate(-0.08)"/><path class="cls-3" d="M200,424.45h-3.71V403.18H200Z" transform="translate(-0.08)"/><path class="cls-3" d="M210.07,424.72a6.56,6.56,0,0,1-5.13-2,8.27,8.27,0,0,1-1.85-5.76A9.19,9.19,0,0,1,204.8,411a5.78,5.78,0,0,1,4.73-2.09,5.65,5.65,0,0,1,4.49,1.84,7.51,7.51,0,0,1,1.6,5.1v2h-8.77a4.27,4.27,0,0,0,.94,2.77,3.07,3.07,0,0,0,2.45,1,9.24,9.24,0,0,0,2.33-.29,10.57,10.57,0,0,0,2.28-.92v3.23a7.5,7.5,0,0,1-2.08.81A11.48,11.48,0,0,1,210.07,424.72Zm-.52-12.88a2.24,2.24,0,0,0-1.85.84,4.21,4.21,0,0,0-.77,2.39h5.21a3.68,3.68,0,0,0-.72-2.39A2.29,2.29,0,0,0,209.55,411.84Z" transform="translate(-0.08)"/><path class="cls-3" d="M228.13,419.91a4.45,4.45,0,0,1-1.45,3.58,6.6,6.6,0,0,1-4.35,1.23,12.37,12.37,0,0,1-2.54-.22,8.8,8.8,0,0,1-1.95-.67v-3.44a11.78,11.78,0,0,0,2.33.91,8.27,8.27,0,0,0,2.28.37c1.34,0,2-.44,2-1.31a1.17,1.17,0,0,0-.27-.8,3.81,3.81,0,0,0-.93-.7c-.43-.26-1-.56-1.75-.91a10.65,10.65,0,0,1-2.3-1.36,3.73,3.73,0,0,1-1.07-1.45,5.13,5.13,0,0,1-.34-2,3.78,3.78,0,0,1,1.41-3.15,6.27,6.27,0,0,1,4-1.11,10.29,10.29,0,0,1,4.78,1.2l-1.12,3a18.09,18.09,0,0,0-1.91-.81,5.34,5.34,0,0,0-1.81-.31c-1.09,0-1.64.33-1.64,1a1.17,1.17,0,0,0,.53,1,13,13,0,0,0,2.32,1.22,10.51,10.51,0,0,1,2.33,1.36,3.88,3.88,0,0,1,1.1,1.44A5,5,0,0,1,228.13,419.91Z" transform="translate(-0.08)"/><path class="cls-3" d="M243.58,424.45h-3.71v-8.93a4.7,4.7,0,0,0-.52-2.48,1.84,1.84,0,0,0-1.67-.83,2.41,2.41,0,0,0-2.25,1.17,8,8,0,0,0-.69,3.88v7.19H231V409.16h2.84l.5,2h.21a4.11,4.11,0,0,1,1.7-1.68,5.42,5.42,0,0,1,2.48-.56,4.47,4.47,0,0,1,3.6,1.44,6.24,6.24,0,0,1,1.23,4.16Z" transform="translate(-0.08)"/><path class="cls-3" d="M256,424.45l-.72-2.08h-.1a4.71,4.71,0,0,1-4.51,2.35,3.92,3.92,0,0,1-3.08-1.26,5.18,5.18,0,0,1-1.13-3.58,4.23,4.23,0,0,1,1.52-3.59,8,8,0,0,1,4.56-1.27l2.37-.09v-.67c0-1.55-.71-2.32-2.12-2.32a8.74,8.74,0,0,0-3.83,1.11l-1.23-2.82a10.06,10.06,0,0,1,5.2-1.38,6,6,0,0,1,4.2,1.34,5.23,5.23,0,0,1,1.46,4.07v10.19ZM255,417.37l-1.44.05a4.25,4.25,0,0,0-2.41.66,2.14,2.14,0,0,0-.79,1.83,1.57,1.57,0,0,0,1.8,1.76,2.68,2.68,0,0,0,2.06-.83,3.13,3.13,0,0,0,.78-2.22Z" transform="translate(-0.08)"/><path class="cls-3" d="M270,408.88a5.48,5.48,0,0,1,1.26.12l-.28,3.91a3.87,3.87,0,0,0-1.1-.14,3.64,3.64,0,0,0-2.76,1,3.92,3.92,0,0,0-1,2.87v7.78h-3.71V409.16h2.81l.55,2.57H266a5.6,5.6,0,0,1,1.71-2.07A3.92,3.92,0,0,1,270,408.88Z" transform="translate(-0.08)"/><path class="cls-3" d="M894.28,909a5.45,5.45,0,0,1-1.74,4.27,7,7,0,0,1-4.82,1.55,10.32,10.32,0,0,1-5-1.2v-3.94a19.13,19.13,0,0,0,3.05,1.28,8.27,8.27,0,0,0,2.28.36,2.93,2.93,0,0,0,1.9-.53,1.88,1.88,0,0,0,.67-1.58,1.92,1.92,0,0,0-.29-1.05,3.39,3.39,0,0,0-.86-.88,24,24,0,0,0-2.31-1.36,10.42,10.42,0,0,1-2.44-1.65,6.09,6.09,0,0,1-1.31-1.85,5.87,5.87,0,0,1-.48-2.46,5.45,5.45,0,0,1,1.6-4.16,6.12,6.12,0,0,1,4.42-1.52,9.22,9.22,0,0,1,2.65.37,16.08,16.08,0,0,1,2.63,1L893,899a16.72,16.72,0,0,0-2.35-.92,6.91,6.91,0,0,0-1.83-.26,2.26,2.26,0,0,0-1.64.56,2,2,0,0,0-.58,1.47,1.89,1.89,0,0,0,.24,1,2.71,2.71,0,0,0,.73.81,22.37,22.37,0,0,0,2.39,1.4,9.56,9.56,0,0,1,3.42,2.69A5.68,5.68,0,0,1,894.28,909Z" transform="translate(-0.08)"/><path class="cls-3" d="M904.68,914.83a4.34,4.34,0,0,1-3.76-2h-.2c.13,1.28.2,2,.2,2.21v6.2h-3.71v-22h3l.52,2h.17a4.19,4.19,0,0,1,3.86-2.27,4.29,4.29,0,0,1,3.77,2.09,10.58,10.58,0,0,1,1.36,5.81,12.63,12.63,0,0,1-.64,4.25,5.86,5.86,0,0,1-1.82,2.75A4.28,4.28,0,0,1,904.68,914.83Zm-1.1-12.5a2.21,2.21,0,0,0-2,.95,6,6,0,0,0-.66,3.13v.45a7.13,7.13,0,0,0,.65,3.53,2.24,2.24,0,0,0,2.06,1.07q2.5,0,2.5-4.62a7.31,7.31,0,0,0-.62-3.39A2,2,0,0,0,903.58,902.33Z" transform="translate(-0.08)"/><path class="cls-3" d="M921.62,914.56l-.72-2.08h-.1a4.74,4.74,0,0,1-4.51,2.35,3.92,3.92,0,0,1-3.09-1.25,5.22,5.22,0,0,1-1.12-3.59,4.21,4.21,0,0,1,1.51-3.58,8,8,0,0,1,4.57-1.28l2.36-.08v-.67c0-1.55-.7-2.33-2.12-2.33a8.81,8.81,0,0,0-3.83,1.11l-1.23-2.82a10.1,10.1,0,0,1,5.21-1.38,6,6,0,0,1,4.2,1.34,5.29,5.29,0,0,1,1.46,4.08v10.18Zm-1.1-7.08-1.43,0a4.22,4.22,0,0,0-2.41.66,2.14,2.14,0,0,0-.79,1.83,1.58,1.58,0,0,0,1.8,1.77,2.67,2.67,0,0,0,2.06-.84,3.13,3.13,0,0,0,.77-2.21Z" transform="translate(-0.08)"/><path class="cls-3" d="M935.62,899a5.45,5.45,0,0,1,1.25.12l-.28,3.91a3.83,3.83,0,0,0-1.09-.13,3.68,3.68,0,0,0-2.77,1,4,4,0,0,0-1,2.87v7.78H928V899.28h2.81l.55,2.57h.18a5.45,5.45,0,0,1,1.71-2.07A3.86,3.86,0,0,1,935.62,899Z" transform="translate(-0.08)"/><path class="cls-3" d="M942.91,906.25l1.62-2.32,3.8-4.65h4.19l-5.4,6.63,5.73,8.65h-4.28l-3.92-6.19-1.6,1.43v4.76h-3.71V893.29h3.71v9.49l-.19,3.47Z" transform="translate(-0.08)"/><path class="cls-3" d="M972.45,914.56l-1.29-4.76h-6.49l-1.28,4.76h-4.07l6.28-20.07h4.61l6.3,20.07Zm-2.19-8.31q-1.78-6.46-2-7.32c-.15-.56-.26-1-.33-1.33-.26,1.16-1,4-2.3,8.65Z" transform="translate(-0.08)"/><path class="cls-3" d="M982.52,906.89v7.67h-3.77v-20h5.19q3.62,0,5.36,1.49a5.59,5.59,0,0,1,1.74,4.5,5.67,5.67,0,0,1-3.31,5.29q4,6.75,5.23,8.71h-4.18l-4.25-7.67Zm0-3.44h1.22a4.3,4.3,0,0,0,2.64-.67,2.52,2.52,0,0,0,.85-2.11,2.27,2.27,0,0,0-.87-2,4.8,4.8,0,0,0-2.69-.6h-1.15Z" transform="translate(-0.08)"/><path class="cls-3" d="M1010.87,910a4.42,4.42,0,0,1-1.45,3.58,6.6,6.6,0,0,1-4.35,1.23,12.27,12.27,0,0,1-2.53-.22,8.86,8.86,0,0,1-2-.66V910.5a12,12,0,0,0,2.33.92,8.67,8.67,0,0,0,2.28.37c1.35,0,2-.44,2-1.32a1.17,1.17,0,0,0-.27-.8,4,4,0,0,0-.92-.69c-.44-.26-1-.57-1.75-.91a10.49,10.49,0,0,1-2.31-1.37,3.77,3.77,0,0,1-1.07-1.44,5.33,5.33,0,0,1-.33-2,3.8,3.8,0,0,1,1.4-3.16,6.32,6.32,0,0,1,4-1.11,10.32,10.32,0,0,1,4.78,1.2l-1.12,3a19,19,0,0,0-1.91-.81,5.4,5.4,0,0,0-1.82-.31c-1.09,0-1.64.33-1.64,1a1.22,1.22,0,0,0,.53,1,14.17,14.17,0,0,0,2.32,1.22,10.5,10.5,0,0,1,2.34,1.35,4,4,0,0,1,1.09,1.45A4.82,4.82,0,0,1,1010.87,910Z" transform="translate(-0.08)"/><path class="cls-3" d="M1019.5,911.51a7.26,7.26,0,0,0,2.34-.48v3.11a7.62,7.62,0,0,1-3.41.69,3.9,3.9,0,0,1-3.24-1.26,6,6,0,0,1-1-3.79v-7.37h-1.78v-1.77l2.05-1.39,1.07-3.23h2.37v3.26h3.81v3.13h-3.81v7.37a1.72,1.72,0,0,0,.45,1.31A1.61,1.61,0,0,0,1019.5,911.51Z" transform="translate(-0.08)"/><path class="cls-3" d="M1034.22,914.56l-.5-1.95h-.19a4,4,0,0,1-1.69,1.64,5.21,5.21,0,0,1-2.5.58,4.47,4.47,0,0,1-3.61-1.44,6.26,6.26,0,0,1-1.22-4.15v-10h3.71v8.92a4.67,4.67,0,0,0,.53,2.48,1.8,1.8,0,0,0,1.66.83,2.41,2.41,0,0,0,2.25-1.17,7.89,7.89,0,0,0,.7-3.87v-7.19h3.71v15.28Z" transform="translate(-0.08)"/><path class="cls-3" d="M1045.27,914.83a4.28,4.28,0,0,1-3.77-2.09,13,13,0,0,1,0-11.65,4.38,4.38,0,0,1,3.84-2.1,4.31,4.31,0,0,1,3.91,2.24h.13a18.65,18.65,0,0,1-.28-3.05v-4.89h3.72v21.27H1050l-.72-2h-.15A4.15,4.15,0,0,1,1045.27,914.83Zm1.3-3.32a2.39,2.39,0,0,0,2.09-.93,5.92,5.92,0,0,0,.72-3.15V907a6.86,6.86,0,0,0-.67-3.52,2.41,2.41,0,0,0-2.2-1.07,2.13,2.13,0,0,0-1.93,1.18,7,7,0,0,0-.68,3.44,6.57,6.57,0,0,0,.69,3.38A2.18,2.18,0,0,0,1046.57,911.51Z" transform="translate(-0.08)"/><path class="cls-3" d="M1056.57,895.33a2,2,0,1,1,4,0,2.17,2.17,0,0,1-.5,1.51,2,2,0,0,1-1.52.54A1.8,1.8,0,0,1,1056.57,895.33Zm3.87,19.23h-3.71V899.28h3.71Z" transform="translate(-0.08)"/><path class="cls-3" d="M1076.7,906.89a8.9,8.9,0,0,1-1.75,5.84,6,6,0,0,1-4.88,2.1,6.27,6.27,0,0,1-3.46-1,6.15,6.15,0,0,1-2.3-2.77,10.33,10.33,0,0,1-.8-4.21,8.79,8.79,0,0,1,1.74-5.82,6,6,0,0,1,4.89-2.08,6.21,6.21,0,0,1,3.45,1,6.11,6.11,0,0,1,2.3,2.74A10.15,10.15,0,0,1,1076.7,906.89Zm-9.41,0a7.09,7.09,0,0,0,.66,3.43,2.31,2.31,0,0,0,2.17,1.16,2.25,2.25,0,0,0,2.13-1.15,7.24,7.24,0,0,0,.65-3.44,6.9,6.9,0,0,0-.66-3.4,2.59,2.59,0,0,0-4.29,0A6.92,6.92,0,0,0,1067.29,906.89Z" transform="translate(-0.08)"/><path class="cls-3" d="M1097.42,914.56l-1.29-4.76h-6.49l-1.29,4.76h-4.06l6.28-20.07h4.61l6.3,20.07Zm-2.19-8.31c-1.19-4.31-1.87-6.75-2-7.32s-.25-1-.32-1.33c-.27,1.16-1,4-2.3,8.65Z" transform="translate(-0.08)"/><path class="cls-3" d="M1112.92,910a4.42,4.42,0,0,1-1.46,3.58,6.59,6.59,0,0,1-4.34,1.23,12.3,12.3,0,0,1-2.54-.22,9,9,0,0,1-2-.66V910.5a12,12,0,0,0,2.33.92,8.8,8.8,0,0,0,2.29.37c1.34,0,2-.44,2-1.32a1.17,1.17,0,0,0-.27-.8,4.1,4.1,0,0,0-.93-.69,19,19,0,0,0-1.75-.91,10.62,10.62,0,0,1-2.3-1.37,3.77,3.77,0,0,1-1.07-1.44,5.13,5.13,0,0,1-.34-2,3.81,3.81,0,0,1,1.41-3.16,6.27,6.27,0,0,1,4-1.11,10.29,10.29,0,0,1,4.78,1.2l-1.12,3a19,19,0,0,0-1.91-.81,5.34,5.34,0,0,0-1.81-.31c-1.1,0-1.64.33-1.64,1a1.2,1.2,0,0,0,.53,1,13.93,13.93,0,0,0,2.31,1.22,10.05,10.05,0,0,1,2.34,1.35,4,4,0,0,1,1.1,1.45A5,5,0,0,1,1112.92,910Z" transform="translate(-0.08)"/><path class="cls-3" d="M1125.31,910a4.42,4.42,0,0,1-1.46,3.58,6.6,6.6,0,0,1-4.35,1.23,12.27,12.27,0,0,1-2.53-.22,8.86,8.86,0,0,1-2-.66V910.5a12,12,0,0,0,2.33.92,8.8,8.8,0,0,0,2.28.37c1.35,0,2-.44,2-1.32a1.17,1.17,0,0,0-.27-.8,3.79,3.79,0,0,0-.92-.69c-.44-.26-1-.57-1.75-.91a10.49,10.49,0,0,1-2.31-1.37,3.77,3.77,0,0,1-1.07-1.44,5.33,5.33,0,0,1-.33-2,3.83,3.83,0,0,1,1.4-3.16,6.32,6.32,0,0,1,4-1.11,10.29,10.29,0,0,1,4.78,1.2l-1.12,3a19,19,0,0,0-1.91-.81,5.38,5.38,0,0,0-1.81-.31c-1.1,0-1.65.33-1.65,1a1.22,1.22,0,0,0,.53,1,14.63,14.63,0,0,0,2.32,1.22,10.5,10.5,0,0,1,2.34,1.35,3.89,3.89,0,0,1,1.09,1.45A4.81,4.81,0,0,1,1125.31,910Z" transform="translate(-0.08)"/><path class="cls-3" d="M1134.36,914.83a6.58,6.58,0,0,1-5.14-2,8.3,8.3,0,0,1-1.85-5.77,9.18,9.18,0,0,1,1.71-5.94,5.77,5.77,0,0,1,4.73-2.1,5.61,5.61,0,0,1,4.49,1.85,7.51,7.51,0,0,1,1.61,5.09v2h-8.78a4.3,4.3,0,0,0,.94,2.77,3.08,3.08,0,0,0,2.46,1,8.73,8.73,0,0,0,2.32-.29,10.79,10.79,0,0,0,2.29-.91v3.22a8,8,0,0,1-2.08.82A11.65,11.65,0,0,1,1134.36,914.83Zm-.53-12.87a2.25,2.25,0,0,0-1.85.84,4.18,4.18,0,0,0-.76,2.38h5.21a3.77,3.77,0,0,0-.72-2.38A2.32,2.32,0,0,0,1133.83,902Z" transform="translate(-0.08)"/><path class="cls-3" d="M1148.65,911.51A7.26,7.26,0,0,0,1151,911v3.11a7.59,7.59,0,0,1-3.41.69,3.93,3.93,0,0,1-3.24-1.26,6,6,0,0,1-1-3.79v-7.37h-1.78v-1.77l2-1.39,1.07-3.23H1147v3.26h3.8v3.13H1147v7.37a1.72,1.72,0,0,0,.44,1.31A1.65,1.65,0,0,0,1148.65,911.51Z" transform="translate(-0.08)"/></svg>