<?xml version="1.0" encoding="utf-8"?>
<!-- Generator: Adobe Illustrator 25.4.1, SVG Export Plug-In . SVG Version: 6.00 Build 0)  -->
<svg version="1.1" id="Layer_1" xmlns="http://www.w3.org/2000/svg" xmlns:xlink="http://www.w3.org/1999/xlink" x="0px" y="0px"
	 viewBox="0 0 1080 1080" style="enable-background:new 0 0 1080 1080;" xml:space="preserve">
<style type="text/css">
	.st0{fill:#424242;stroke:#000000;stroke-miterlimit:10;}
	.st1{clip-path:url(#SVGID_00000016785139904228035100000017707073074932441244_);fill:#3EB8BC;}
	.st2{clip-path:url(#SVGID_00000132057695797748480130000015455305646403710390_);fill:#0A968E;}
	.st3{clip-path:url(#SVGID_00000022560575620505126800000004968996908338197150_);fill:#EB5B28;}
	.st4{clip-path:url(#SVGID_00000035500760625642808920000003380164270194994066_);fill:#C22C2E;}
	.st5{clip-path:url(#SVGID_00000019660059371963811530000017989243513245527958_);fill:#CA4C30;}
	.st6{clip-path:url(#SVGID_00000056410331693138067470000005726275618929589892_);fill:#E94E1B;}
	
		.st7{clip-path:url(#SVGID_00000012446429158745048330000008726503121841770631_);fill:url(#SVGID_00000054979597424450314930000004854905160286541697_);}
	
		.st8{clip-path:url(#SVGID_00000026129892894814516880000012965818368903635337_);fill:url(#SVGID_00000147936606668647189560000010598952724425729930_);}
	
		.st9{clip-path:url(#SVGID_00000044139631533774189250000001080207628413293708_);fill:url(#SVGID_00000046314832296997758880000014960893290376984725_);}
	
		.st10{clip-path:url(#SVGID_00000056386705888417685180000009594040605145013665_);fill:url(#SVGID_00000121979953240637490290000016209078067223770531_);}
	
		.st11{clip-path:url(#SVGID_00000100381315080749138110000004072586471156944825_);fill:url(#SVGID_00000155859101261971737230000003268264649001126278_);}
	
		.st12{clip-path:url(#SVGID_00000181061610042584979100000009757441248621811592_);fill:url(#SVGID_00000025424035744871137890000001152712555641444260_);}
	
		.st13{clip-path:url(#SVGID_00000175303059531257469850000016269209298277967009_);fill:url(#SVGID_00000023266616406683742710000008973793531759893678_);}
</style>
<rect class="st0" width="1080" height="1080"/>
<g>
	<g>
		<defs>
			<path id="SVGID_1_" d="M325.2,319.7h398.9c8.7,16.8,26.5,28.4,46.8,28.4c29,0,52.6-23.6,52.6-52.6c0-29-23.6-52.6-52.9-52.6
				c-21.9,0-41,13.6-48.7,32.9H325.2c-38.4,0-68.7,29.4-68.7,66.5v424.8c0,37.8,31.6,70,68.7,70h424.4c37.4,0,67.8-31.3,67.8-70
				V515.3c0-37.8-30.3-68.7-67.8-68.7H497.9c-38.4,0-71,31.6-71,68.7v79.1c0,36.8,32,66.5,71,66.5h87.8
				c7.7,19.4,26.8,32.9,48.7,32.9c29,0,52.6-23.6,52.6-52.6s-23.6-52.6-52.6-52.6c-20.3,0-38.1,11.6-46.8,28.4h-89.7
				c-12.9,0-26.8-8.7-26.8-22.6V515c0-12.9,12.9-24.9,26.8-24.9h251.8c13.2,0,23.9,11,23.9,24.9v251.8c0,13.9-11,25.8-23.9,25.8
				H325.2c-13.2,0-24.9-12.3-24.9-25.8V342.3C300.3,329.7,311,319.7,325.2,319.7z M770.6,270.3c13.9,0,25.2,11.3,25.2,25.2
				c0,13.9-11.3,25.2-25.2,25.2c-13.9,0-25.2-11.3-25.2-25.2C745.4,281.6,756.7,270.3,770.6,270.3z M634.7,616
				c13.9,0,25.2,11.3,25.2,25.2s-11.3,25.2-25.2,25.2c-13.9,0-25.2-11.3-25.2-25.2C609.6,627,620.9,616,634.7,616z"/>
		</defs>
		<clipPath id="SVGID_00000067956174794512447150000003445848294158922941_">
			<use xlink:href="#SVGID_1_"  style="overflow:visible;"/>
		</clipPath>
		
			<rect x="239.3" y="255.2" style="clip-path:url(#SVGID_00000067956174794512447150000003445848294158922941_);fill:#3EB8BC;" width="84.2" height="89.7"/>
	</g>
	<g>
		<defs>
			<path id="SVGID_00000155127782576252577210000016583340038143551367_" d="M325.2,319.7h398.9c8.7,16.8,26.5,28.4,46.8,28.4
				c29,0,52.6-23.6,52.6-52.6c0-29-23.6-52.6-52.9-52.6c-21.9,0-41,13.6-48.7,32.9H325.2c-38.4,0-68.7,29.4-68.7,66.5v424.8
				c0,37.8,31.6,70,68.7,70h424.4c37.4,0,67.8-31.3,67.8-70V515.3c0-37.8-30.3-68.7-67.8-68.7H497.9c-38.4,0-71,31.6-71,68.7v79.1
				c0,36.8,32,66.5,71,66.5h87.8c7.7,19.4,26.8,32.9,48.7,32.9c29,0,52.6-23.6,52.6-52.6s-23.6-52.6-52.6-52.6
				c-20.3,0-38.1,11.6-46.8,28.4h-89.7c-12.9,0-26.8-8.7-26.8-22.6V515c0-12.9,12.9-24.9,26.8-24.9h251.8c13.2,0,23.9,11,23.9,24.9
				v251.8c0,13.9-11,25.8-23.9,25.8H325.2c-13.2,0-24.9-12.3-24.9-25.8V342.3C300.3,329.7,311,319.7,325.2,319.7z M770.6,270.3
				c13.9,0,25.2,11.3,25.2,25.2c0,13.9-11.3,25.2-25.2,25.2c-13.9,0-25.2-11.3-25.2-25.2C745.4,281.6,756.7,270.3,770.6,270.3z
				 M634.7,616c13.9,0,25.2,11.3,25.2,25.2s-11.3,25.2-25.2,25.2c-13.9,0-25.2-11.3-25.2-25.2C609.6,627,620.9,616,634.7,616z"/>
		</defs>
		<clipPath id="SVGID_00000112621483606221501210000001400420577036564099_">
			<use xlink:href="#SVGID_00000155127782576252577210000016583340038143551367_"  style="overflow:visible;"/>
		</clipPath>
		
			<rect x="239.3" y="765.1" style="clip-path:url(#SVGID_00000112621483606221501210000001400420577036564099_);fill:#0A968E;" width="84.2" height="89.7"/>
	</g>
	<g>
		<defs>
			<path id="SVGID_00000134252171417251715230000000475209638410279299_" d="M325.2,319.7h398.9c8.7,16.8,26.5,28.4,46.8,28.4
				c29,0,52.6-23.6,52.6-52.6c0-29-23.6-52.6-52.9-52.6c-21.9,0-41,13.6-48.7,32.9H325.2c-38.4,0-68.7,29.4-68.7,66.5v424.8
				c0,37.8,31.6,70,68.7,70h424.4c37.4,0,67.8-31.3,67.8-70V515.3c0-37.8-30.3-68.7-67.8-68.7H497.9c-38.4,0-71,31.6-71,68.7v79.1
				c0,36.8,32,66.5,71,66.5h87.8c7.7,19.4,26.8,32.9,48.7,32.9c29,0,52.6-23.6,52.6-52.6s-23.6-52.6-52.6-52.6
				c-20.3,0-38.1,11.6-46.8,28.4h-89.7c-12.9,0-26.8-8.7-26.8-22.6V515c0-12.9,12.9-24.9,26.8-24.9h251.8c13.2,0,23.9,11,23.9,24.9
				v251.8c0,13.9-11,25.8-23.9,25.8H325.2c-13.2,0-24.9-12.3-24.9-25.8V342.3C300.3,329.7,311,319.7,325.2,319.7z M770.6,270.3
				c13.9,0,25.2,11.3,25.2,25.2c0,13.9-11.3,25.2-25.2,25.2c-13.9,0-25.2-11.3-25.2-25.2C745.4,281.6,756.7,270.3,770.6,270.3z
				 M634.7,616c13.9,0,25.2,11.3,25.2,25.2s-11.3,25.2-25.2,25.2c-13.9,0-25.2-11.3-25.2-25.2C609.6,627,620.9,616,634.7,616z"/>
		</defs>
		<clipPath id="SVGID_00000164484745660353939950000008103317951057431727_">
			<use xlink:href="#SVGID_00000134252171417251715230000000475209638410279299_"  style="overflow:visible;"/>
		</clipPath>
		
			<rect x="748" y="765.1" style="clip-path:url(#SVGID_00000164484745660353939950000008103317951057431727_);fill:#EB5B28;" width="84.2" height="89.7"/>
	</g>
	<g>
		<defs>
			<path id="SVGID_00000037670412605273946780000002422016453983002001_" d="M325.2,319.7h398.9c8.7,16.8,26.5,28.4,46.8,28.4
				c29,0,52.6-23.6,52.6-52.6c0-29-23.6-52.6-52.9-52.6c-21.9,0-41,13.6-48.7,32.9H325.2c-38.4,0-68.7,29.4-68.7,66.5v424.8
				c0,37.8,31.6,70,68.7,70h424.4c37.4,0,67.8-31.3,67.8-70V515.3c0-37.8-30.3-68.7-67.8-68.7H497.9c-38.4,0-71,31.6-71,68.7v79.1
				c0,36.8,32,66.5,71,66.5h87.8c7.7,19.4,26.8,32.9,48.7,32.9c29,0,52.6-23.6,52.6-52.6s-23.6-52.6-52.6-52.6
				c-20.3,0-38.1,11.6-46.8,28.4h-89.7c-12.9,0-26.8-8.7-26.8-22.6V515c0-12.9,12.9-24.9,26.8-24.9h251.8c13.2,0,23.9,11,23.9,24.9
				v251.8c0,13.9-11,25.8-23.9,25.8H325.2c-13.2,0-24.9-12.3-24.9-25.8V342.3C300.3,329.7,311,319.7,325.2,319.7z M770.6,270.3
				c13.9,0,25.2,11.3,25.2,25.2c0,13.9-11.3,25.2-25.2,25.2c-13.9,0-25.2-11.3-25.2-25.2C745.4,281.6,756.7,270.3,770.6,270.3z
				 M634.7,616c13.9,0,25.2,11.3,25.2,25.2s-11.3,25.2-25.2,25.2c-13.9,0-25.2-11.3-25.2-25.2C609.6,627,620.9,616,634.7,616z"/>
		</defs>
		<clipPath id="SVGID_00000109022699347252325450000012128617419339002241_">
			<use xlink:href="#SVGID_00000037670412605273946780000002422016453983002001_"  style="overflow:visible;"/>
		</clipPath>
		
			<rect x="748" y="427.2" style="clip-path:url(#SVGID_00000109022699347252325450000012128617419339002241_);fill:#C22C2E;" width="84.2" height="89.7"/>
	</g>
	<g>
		<defs>
			<path id="SVGID_00000174562278726067925100000015989248842960916412_" d="M325.2,319.7h398.9c8.7,16.8,26.5,28.4,46.8,28.4
				c29,0,52.6-23.6,52.6-52.6c0-29-23.6-52.6-52.9-52.6c-21.9,0-41,13.6-48.7,32.9H325.2c-38.4,0-68.7,29.4-68.7,66.5v424.8
				c0,37.8,31.6,70,68.7,70h424.4c37.4,0,67.8-31.3,67.8-70V515.3c0-37.8-30.3-68.7-67.8-68.7H497.9c-38.4,0-71,31.6-71,68.7v79.1
				c0,36.8,32,66.5,71,66.5h87.8c7.7,19.4,26.8,32.9,48.7,32.9c29,0,52.6-23.6,52.6-52.6s-23.6-52.6-52.6-52.6
				c-20.3,0-38.1,11.6-46.8,28.4h-89.7c-12.9,0-26.8-8.7-26.8-22.6V515c0-12.9,12.9-24.9,26.8-24.9h251.8c13.2,0,23.9,11,23.9,24.9
				v251.8c0,13.9-11,25.8-23.9,25.8H325.2c-13.2,0-24.9-12.3-24.9-25.8V342.3C300.3,329.7,311,319.7,325.2,319.7z M770.6,270.3
				c13.9,0,25.2,11.3,25.2,25.2c0,13.9-11.3,25.2-25.2,25.2c-13.9,0-25.2-11.3-25.2-25.2C745.4,281.6,756.7,270.3,770.6,270.3z
				 M634.7,616c13.9,0,25.2,11.3,25.2,25.2s-11.3,25.2-25.2,25.2c-13.9,0-25.2-11.3-25.2-25.2C609.6,627,620.9,616,634.7,616z"/>
		</defs>
		<clipPath id="SVGID_00000054981449012559516410000014534883769408488096_">
			<use xlink:href="#SVGID_00000174562278726067925100000015989248842960916412_"  style="overflow:visible;"/>
		</clipPath>
		
			<rect x="415.2" y="427.2" style="clip-path:url(#SVGID_00000054981449012559516410000014534883769408488096_);fill:#CA4C30;" width="84.2" height="89.7"/>
	</g>
	<g>
		<defs>
			<path id="SVGID_00000119117464420850791160000005536988119030773160_" d="M325.2,319.7h398.9c8.7,16.8,26.5,28.4,46.8,28.4
				c29,0,52.6-23.6,52.6-52.6c0-29-23.6-52.6-52.9-52.6c-21.9,0-41,13.6-48.7,32.9H325.2c-38.4,0-68.7,29.4-68.7,66.5v424.8
				c0,37.8,31.6,70,68.7,70h424.4c37.4,0,67.8-31.3,67.8-70V515.3c0-37.8-30.3-68.7-67.8-68.7H497.9c-38.4,0-71,31.6-71,68.7v79.1
				c0,36.8,32,66.5,71,66.5h87.8c7.7,19.4,26.8,32.9,48.7,32.9c29,0,52.6-23.6,52.6-52.6s-23.6-52.6-52.6-52.6
				c-20.3,0-38.1,11.6-46.8,28.4h-89.7c-12.9,0-26.8-8.7-26.8-22.6V515c0-12.9,12.9-24.9,26.8-24.9h251.8c13.2,0,23.9,11,23.9,24.9
				v251.8c0,13.9-11,25.8-23.9,25.8H325.2c-13.2,0-24.9-12.3-24.9-25.8V342.3C300.3,329.7,311,319.7,325.2,319.7z M770.6,270.3
				c13.9,0,25.2,11.3,25.2,25.2c0,13.9-11.3,25.2-25.2,25.2c-13.9,0-25.2-11.3-25.2-25.2C745.4,281.6,756.7,270.3,770.6,270.3z
				 M634.7,616c13.9,0,25.2,11.3,25.2,25.2s-11.3,25.2-25.2,25.2c-13.9,0-25.2-11.3-25.2-25.2C609.6,627,620.9,616,634.7,616z"/>
		</defs>
		<clipPath id="SVGID_00000034800114668322930490000001736236177392702092_">
			<use xlink:href="#SVGID_00000119117464420850791160000005536988119030773160_"  style="overflow:visible;"/>
		</clipPath>
		
			<rect x="415.2" y="592.5" style="clip-path:url(#SVGID_00000034800114668322930490000001736236177392702092_);fill:#E94E1B;" width="84.2" height="89.7"/>
	</g>
	<g>
		<defs>
			<path id="SVGID_00000034769731804193026730000007856514392671745710_" d="M325.2,319.7h398.9c8.7,16.8,26.5,28.4,46.8,28.4
				c29,0,52.6-23.6,52.6-52.6c0-29-23.6-52.6-52.9-52.6c-21.9,0-41,13.6-48.7,32.9H325.2c-38.4,0-68.7,29.4-68.7,66.5v424.8
				c0,37.8,31.6,70,68.7,70h424.4c37.4,0,67.8-31.3,67.8-70V515.3c0-37.8-30.3-68.7-67.8-68.7H497.9c-38.4,0-71,31.6-71,68.7v79.1
				c0,36.8,32,66.5,71,66.5h87.8c7.7,19.4,26.8,32.9,48.7,32.9c29,0,52.6-23.6,52.6-52.6s-23.6-52.6-52.6-52.6
				c-20.3,0-38.1,11.6-46.8,28.4h-89.7c-12.9,0-26.8-8.7-26.8-22.6V515c0-12.9,12.9-24.9,26.8-24.9h251.8c13.2,0,23.9,11,23.9,24.9
				v251.8c0,13.9-11,25.8-23.9,25.8H325.2c-13.2,0-24.9-12.3-24.9-25.8V342.3C300.3,329.7,311,319.7,325.2,319.7z M770.6,270.3
				c13.9,0,25.2,11.3,25.2,25.2c0,13.9-11.3,25.2-25.2,25.2c-13.9,0-25.2-11.3-25.2-25.2C745.4,281.6,756.7,270.3,770.6,270.3z
				 M634.7,616c13.9,0,25.2,11.3,25.2,25.2s-11.3,25.2-25.2,25.2c-13.9,0-25.2-11.3-25.2-25.2C609.6,627,620.9,616,634.7,616z"/>
		</defs>
		<clipPath id="SVGID_00000116213742448172321870000006346213259073205432_">
			<use xlink:href="#SVGID_00000034769731804193026730000007856514392671745710_"  style="overflow:visible;"/>
		</clipPath>
		
			<linearGradient id="SVGID_00000072277714479510369810000006578801478945491389_" gradientUnits="userSpaceOnUse" x1="280.6545" y1="320.8769" x2="280.6545" y2="726.6243" gradientTransform="matrix(1 0 0 -1 0 1082)">
			<stop  offset="0" style="stop-color:#0A968E"/>
			<stop  offset="1" style="stop-color:#3EB8BC"/>
		</linearGradient>
		
			<rect x="239.3" y="343.3" style="clip-path:url(#SVGID_00000116213742448172321870000006346213259073205432_);fill:url(#SVGID_00000072277714479510369810000006578801478945491389_);" width="82.6" height="423.8"/>
	</g>
	<g>
		<defs>
			<path id="SVGID_00000005255334951751638590000017260092888411157675_" d="M325.2,319.7h398.9c8.7,16.8,26.5,28.4,46.8,28.4
				c29,0,52.6-23.6,52.6-52.6c0-29-23.6-52.6-52.9-52.6c-21.9,0-41,13.6-48.7,32.9H325.2c-38.4,0-68.7,29.4-68.7,66.5v424.8
				c0,37.8,31.6,70,68.7,70h424.4c37.4,0,67.8-31.3,67.8-70V515.3c0-37.8-30.3-68.7-67.8-68.7H497.9c-38.4,0-71,31.6-71,68.7v79.1
				c0,36.8,32,66.5,71,66.5h87.8c7.7,19.4,26.8,32.9,48.7,32.9c29,0,52.6-23.6,52.6-52.6s-23.6-52.6-52.6-52.6
				c-20.3,0-38.1,11.6-46.8,28.4h-89.7c-12.9,0-26.8-8.7-26.8-22.6V515c0-12.9,12.9-24.9,26.8-24.9h251.8c13.2,0,23.9,11,23.9,24.9
				v251.8c0,13.9-11,25.8-23.9,25.8H325.2c-13.2,0-24.9-12.3-24.9-25.8V342.3C300.3,329.7,311,319.7,325.2,319.7z M770.6,270.3
				c13.9,0,25.2,11.3,25.2,25.2c0,13.9-11.3,25.2-25.2,25.2c-13.9,0-25.2-11.3-25.2-25.2C745.4,281.6,756.7,270.3,770.6,270.3z
				 M634.7,616c13.9,0,25.2,11.3,25.2,25.2s-11.3,25.2-25.2,25.2c-13.9,0-25.2-11.3-25.2-25.2C609.6,627,620.9,616,634.7,616z"/>
		</defs>
		<clipPath id="SVGID_00000178911114135688354080000006071031698590955931_">
			<use xlink:href="#SVGID_00000005255334951751638590000017260092888411157675_"  style="overflow:visible;"/>
		</clipPath>
		
			<linearGradient id="SVGID_00000132057036990949840660000007209614666056591524_" gradientUnits="userSpaceOnUse" x1="321.6463" y1="270.8734" x2="749.6389" y2="270.8734" gradientTransform="matrix(1 0 0 -1 0 1082)">
			<stop  offset="0" style="stop-color:#0A968E"/>
			<stop  offset="1" style="stop-color:#EB5B28"/>
		</linearGradient>
		
			<rect x="321.6" y="767.1" style="clip-path:url(#SVGID_00000178911114135688354080000006071031698590955931_);fill:url(#SVGID_00000132057036990949840660000007209614666056591524_);" width="428" height="88.1"/>
	</g>
	<g>
		<defs>
			<path id="SVGID_00000170262868645770612610000005317531375447956655_" d="M325.2,319.7h398.9c8.7,16.8,26.5,28.4,46.8,28.4
				c29,0,52.6-23.6,52.6-52.6c0-29-23.6-52.6-52.9-52.6c-21.9,0-41,13.6-48.7,32.9H325.2c-38.4,0-68.7,29.4-68.7,66.5v424.8
				c0,37.8,31.6,70,68.7,70h424.4c37.4,0,67.8-31.3,67.8-70V515.3c0-37.8-30.3-68.7-67.8-68.7H497.9c-38.4,0-71,31.6-71,68.7v79.1
				c0,36.8,32,66.5,71,66.5h87.8c7.7,19.4,26.8,32.9,48.7,32.9c29,0,52.6-23.6,52.6-52.6s-23.6-52.6-52.6-52.6
				c-20.3,0-38.1,11.6-46.8,28.4h-89.7c-12.9,0-26.8-8.7-26.8-22.6V515c0-12.9,12.9-24.9,26.8-24.9h251.8c13.2,0,23.9,11,23.9,24.9
				v251.8c0,13.9-11,25.8-23.9,25.8H325.2c-13.2,0-24.9-12.3-24.9-25.8V342.3C300.3,329.7,311,319.7,325.2,319.7z M770.6,270.3
				c13.9,0,25.2,11.3,25.2,25.2c0,13.9-11.3,25.2-25.2,25.2c-13.9,0-25.2-11.3-25.2-25.2C745.4,281.6,756.7,270.3,770.6,270.3z
				 M634.7,616c13.9,0,25.2,11.3,25.2,25.2s-11.3,25.2-25.2,25.2c-13.9,0-25.2-11.3-25.2-25.2C609.6,627,620.9,616,634.7,616z"/>
		</defs>
		<clipPath id="SVGID_00000033340481371686473260000005205774873215699083_">
			<use xlink:href="#SVGID_00000170262868645770612610000005317531375447956655_"  style="overflow:visible;"/>
		</clipPath>
		
			<linearGradient id="SVGID_00000106148813559936919300000010872240258867325358_" gradientUnits="userSpaceOnUse" x1="790.9534" y1="565.8752" x2="790.9534" y2="317.5298" gradientTransform="matrix(1 0 0 -1 0 1082)">
			<stop  offset="0" style="stop-color:#C22C2E"/>
			<stop  offset="1" style="stop-color:#EB5B28"/>
		</linearGradient>
		
			<rect x="749.6" y="515" style="clip-path:url(#SVGID_00000033340481371686473260000005205774873215699083_);fill:url(#SVGID_00000106148813559936919300000010872240258867325358_);" width="82.6" height="251.8"/>
	</g>
	<g>
		<defs>
			<path id="SVGID_00000127726486494064345260000011463862689828662454_" d="M325.2,319.7h398.9c8.7,16.8,26.5,28.4,46.8,28.4
				c29,0,52.6-23.6,52.6-52.6c0-29-23.6-52.6-52.9-52.6c-21.9,0-41,13.6-48.7,32.9H325.2c-38.4,0-68.7,29.4-68.7,66.5v424.8
				c0,37.8,31.6,70,68.7,70h424.4c37.4,0,67.8-31.3,67.8-70V515.3c0-37.8-30.3-68.7-67.8-68.7H497.9c-38.4,0-71,31.6-71,68.7v79.1
				c0,36.8,32,66.5,71,66.5h87.8c7.7,19.4,26.8,32.9,48.7,32.9c29,0,52.6-23.6,52.6-52.6s-23.6-52.6-52.6-52.6
				c-20.3,0-38.1,11.6-46.8,28.4h-89.7c-12.9,0-26.8-8.7-26.8-22.6V515c0-12.9,12.9-24.9,26.8-24.9h251.8c13.2,0,23.9,11,23.9,24.9
				v251.8c0,13.9-11,25.8-23.9,25.8H325.2c-13.2,0-24.9-12.3-24.9-25.8V342.3C300.3,329.7,311,319.7,325.2,319.7z M770.6,270.3
				c13.9,0,25.2,11.3,25.2,25.2c0,13.9-11.3,25.2-25.2,25.2c-13.9,0-25.2-11.3-25.2-25.2C745.4,281.6,756.7,270.3,770.6,270.3z
				 M634.7,616c13.9,0,25.2,11.3,25.2,25.2s-11.3,25.2-25.2,25.2c-13.9,0-25.2-11.3-25.2-25.2C609.6,627,620.9,616,634.7,616z"/>
		</defs>
		<clipPath id="SVGID_00000034782346527466711780000013205104501741291160_">
			<use xlink:href="#SVGID_00000127726486494064345260000011463862689828662454_"  style="overflow:visible;"/>
		</clipPath>
		
			<linearGradient id="SVGID_00000136400452806755547860000015599255897871529382_" gradientUnits="userSpaceOnUse" x1="746.0303" y1="610.7499" x2="502.5426" y2="610.7499" gradientTransform="matrix(1 0 0 -1 0 1082)">
			<stop  offset="0" style="stop-color:#C22C2E"/>
			<stop  offset="1" style="stop-color:#CA4C30"/>
		</linearGradient>
		
			<rect x="497.9" y="427.2" style="clip-path:url(#SVGID_00000034782346527466711780000013205104501741291160_);fill:url(#SVGID_00000136400452806755547860000015599255897871529382_);" width="251.8" height="88.1"/>
	</g>
	<g>
		<defs>
			<path id="SVGID_00000078746053873812740680000001146229100375565215_" d="M325.2,319.7h398.9c8.7,16.8,26.5,28.4,46.8,28.4
				c29,0,52.6-23.6,52.6-52.6c0-29-23.6-52.6-52.9-52.6c-21.9,0-41,13.6-48.7,32.9H325.2c-38.4,0-68.7,29.4-68.7,66.5v424.8
				c0,37.8,31.6,70,68.7,70h424.4c37.4,0,67.8-31.3,67.8-70V515.3c0-37.8-30.3-68.7-67.8-68.7H497.9c-38.4,0-71,31.6-71,68.7v79.1
				c0,36.8,32,66.5,71,66.5h87.8c7.7,19.4,26.8,32.9,48.7,32.9c29,0,52.6-23.6,52.6-52.6s-23.6-52.6-52.6-52.6
				c-20.3,0-38.1,11.6-46.8,28.4h-89.7c-12.9,0-26.8-8.7-26.8-22.6V515c0-12.9,12.9-24.9,26.8-24.9h251.8c13.2,0,23.9,11,23.9,24.9
				v251.8c0,13.9-11,25.8-23.9,25.8H325.2c-13.2,0-24.9-12.3-24.9-25.8V342.3C300.3,329.7,311,319.7,325.2,319.7z M770.6,270.3
				c13.9,0,25.2,11.3,25.2,25.2c0,13.9-11.3,25.2-25.2,25.2c-13.9,0-25.2-11.3-25.2-25.2C745.4,281.6,756.7,270.3,770.6,270.3z
				 M634.7,616c13.9,0,25.2,11.3,25.2,25.2s-11.3,25.2-25.2,25.2c-13.9,0-25.2-11.3-25.2-25.2C609.6,627,620.9,616,634.7,616z"/>
		</defs>
		<clipPath id="SVGID_00000037661794341675471370000005294149620313702043_">
			<use xlink:href="#SVGID_00000078746053873812740680000001146229100375565215_"  style="overflow:visible;"/>
		</clipPath>
		
			<linearGradient id="SVGID_00000174593479212006579720000004723749762001068175_" gradientUnits="userSpaceOnUse" x1="456.564" y1="565.0748" x2="456.564" y2="490.4052" gradientTransform="matrix(1 0 0 -1 0 1082)">
			<stop  offset="0" style="stop-color:#CA4C30"/>
			<stop  offset="1" style="stop-color:#E94E1B"/>
		</linearGradient>
		
			<rect x="415.2" y="515" style="clip-path:url(#SVGID_00000037661794341675471370000005294149620313702043_);fill:url(#SVGID_00000174593479212006579720000004723749762001068175_);" width="82.6" height="79.1"/>
	</g>
	<g>
		<defs>
			<path id="SVGID_00000068651279401753791820000015149170390716894097_" d="M325.2,319.7h398.9c8.7,16.8,26.5,28.4,46.8,28.4
				c29,0,52.6-23.6,52.6-52.6c0-29-23.6-52.6-52.9-52.6c-21.9,0-41,13.6-48.7,32.9H325.2c-38.4,0-68.7,29.4-68.7,66.5v424.8
				c0,37.8,31.6,70,68.7,70h424.4c37.4,0,67.8-31.3,67.8-70V515.3c0-37.8-30.3-68.7-67.8-68.7H497.9c-38.4,0-71,31.6-71,68.7v79.1
				c0,36.8,32,66.5,71,66.5h87.8c7.7,19.4,26.8,32.9,48.7,32.9c29,0,52.6-23.6,52.6-52.6s-23.6-52.6-52.6-52.6
				c-20.3,0-38.1,11.6-46.8,28.4h-89.7c-12.9,0-26.8-8.7-26.8-22.6V515c0-12.9,12.9-24.9,26.8-24.9h251.8c13.2,0,23.9,11,23.9,24.9
				v251.8c0,13.9-11,25.8-23.9,25.8H325.2c-13.2,0-24.9-12.3-24.9-25.8V342.3C300.3,329.7,311,319.7,325.2,319.7z M770.6,270.3
				c13.9,0,25.2,11.3,25.2,25.2c0,13.9-11.3,25.2-25.2,25.2c-13.9,0-25.2-11.3-25.2-25.2C745.4,281.6,756.7,270.3,770.6,270.3z
				 M634.7,616c13.9,0,25.2,11.3,25.2,25.2s-11.3,25.2-25.2,25.2c-13.9,0-25.2-11.3-25.2-25.2C609.6,627,620.9,616,634.7,616z"/>
		</defs>
		<clipPath id="SVGID_00000082365636502009170100000018272200805181937046_">
			<use xlink:href="#SVGID_00000068651279401753791820000015149170390716894097_"  style="overflow:visible;"/>
		</clipPath>
		
			<linearGradient id="SVGID_00000044895906173132751050000006095904601179517077_" gradientUnits="userSpaceOnUse" x1="832.2679" y1="782.9476" x2="330.374" y2="782.9476" gradientTransform="matrix(1 0 0 -1 0 1082)">
			<stop  offset="0" style="stop-color:#0D77BA"/>
			<stop  offset="1" style="stop-color:#3EB8BC"/>
		</linearGradient>
		
			<polygon style="clip-path:url(#SVGID_00000082365636502009170100000018272200805181937046_);fill:url(#SVGID_00000044895906173132751050000006095904601179517077_);" points="
			708,236.8 708,255.2 321.6,255.2 321.6,343.3 708,343.3 708,361.3 832.3,361.3 832.3,236.8 		"/>
	</g>
	<g>
		<defs>
			<path id="SVGID_00000133504318224389312290000018208602614983836549_" d="M325.2,319.7h398.9c8.7,16.8,26.5,28.4,46.8,28.4
				c29,0,52.6-23.6,52.6-52.6c0-29-23.6-52.6-52.9-52.6c-21.9,0-41,13.6-48.7,32.9H325.2c-38.4,0-68.7,29.4-68.7,66.5v424.8
				c0,37.8,31.6,70,68.7,70h424.4c37.4,0,67.8-31.3,67.8-70V515.3c0-37.8-30.3-68.7-67.8-68.7H497.9c-38.4,0-71,31.6-71,68.7v79.1
				c0,36.8,32,66.5,71,66.5h87.8c7.7,19.4,26.8,32.9,48.7,32.9c29,0,52.6-23.6,52.6-52.6s-23.6-52.6-52.6-52.6
				c-20.3,0-38.1,11.6-46.8,28.4h-89.7c-12.9,0-26.8-8.7-26.8-22.6V515c0-12.9,12.9-24.9,26.8-24.9h251.8c13.2,0,23.9,11,23.9,24.9
				v251.8c0,13.9-11,25.8-23.9,25.8H325.2c-13.2,0-24.9-12.3-24.9-25.8V342.3C300.3,329.7,311,319.7,325.2,319.7z M770.6,270.3
				c13.9,0,25.2,11.3,25.2,25.2c0,13.9-11.3,25.2-25.2,25.2c-13.9,0-25.2-11.3-25.2-25.2C745.4,281.6,756.7,270.3,770.6,270.3z
				 M634.7,616c13.9,0,25.2,11.3,25.2,25.2s-11.3,25.2-25.2,25.2c-13.9,0-25.2-11.3-25.2-25.2C609.6,627,620.9,616,634.7,616z"/>
		</defs>
		<clipPath id="SVGID_00000063627727186553752730000015252226210384131743_">
			<use xlink:href="#SVGID_00000133504318224389312290000018208602614983836549_"  style="overflow:visible;"/>
		</clipPath>
		
			<linearGradient id="SVGID_00000017484067737190628810000007276480017025429155_" gradientUnits="userSpaceOnUse" x1="497.8785" y1="440.9731" x2="697.0274" y2="440.9731" gradientTransform="matrix(1 0 0 -1 0 1082)">
			<stop  offset="0" style="stop-color:#E94E1B"/>
			<stop  offset="1" style="stop-color:#F8AE3B"/>
		</linearGradient>
		
			<polygon style="clip-path:url(#SVGID_00000063627727186553752730000015252226210384131743_);fill:url(#SVGID_00000017484067737190628810000007276480017025429155_);" points="
			573.4,579.2 573.4,594.4 497.9,594.4 497.9,682.2 573.4,682.2 573.4,702.8 697,702.8 697,579.2 		"/>
	</g>
</g>
</svg>
