<?xml version="1.0" encoding="utf-8"?>
<!-- Generator: Adobe Illustrator 25.4.1, SVG Export Plug-In . SVG Version: 6.00 Build 0)  -->
<svg version="1.1" id="Layer_1" xmlns="http://www.w3.org/2000/svg" xmlns:xlink="http://www.w3.org/1999/xlink" x="0px" y="0px"
	 viewBox="0 0 1080 1080" style="enable-background:new 0 0 1080 1080;" xml:space="preserve">
<style type="text/css">
	.st0{fill:#C924BD;}
	.st1{fill:#FFFFFF;}
</style>
<rect class="st0" width="1080" height="1080"/>
<path class="st1" d="M543.9,361.2c-114.9-2.4-205.2,102.9-177.6,222c15,64.7,65.9,115.6,130.6,130.6
	c119.1,27.6,224.3-62.7,222-177.6C717,440.8,639.3,363.1,543.9,361.2z M540.1,656.3c-65.6,0-118.8-54.7-116.2-121
	c2.4-60.4,51.4-109.2,111.8-111.5c66.1-2.5,120.7,50.6,120.7,116.2C656.4,604.1,604.1,656.3,540.1,656.3L540.1,656.3z M768,353.8
	c0,23.2-18.6,41.7-41.7,41.7c-23.5,0-42.2-19.2-41.7-42.7c0.5-21.9,18.3-40,40.3-40.7C748.6,311.3,768,330.3,768,353.8z
	 M886.5,396.2c-2.6-55.9-15.4-105.4-56.4-146.2c-40.8-40.8-90.3-53.5-146.2-56.4c-57.6-3.3-230.2-3.3-287.8,0
	c-55.7,2.6-105.2,15.4-146.2,56.2s-53.6,90.2-56.4,146.1c-3.3,57.6-3.3,230.2,0,287.8c2.6,55.9,15.4,105.4,56.4,146.2
	c40.9,40.8,90.3,53.5,146.2,56.4c57.6,3.3,230.2,3.3,287.8,0c55.9-2.6,105.4-15.4,146.2-56.4c40.8-40.8,53.5-90.3,56.4-146.2
	C889.7,626.2,889.7,453.8,886.5,396.2L886.5,396.2z M812,745.6c-12.1,30.5-35.6,54-66.3,66.3c-45.9,18.2-154.9,14-205.6,14
	s-159.8,4.1-205.6-14c-30.5-12.1-54-35.6-66.3-66.3c-18.2-45.9-14-154.9-14-205.6c0-50.7-4.1-159.8,14-205.6
	c12.1-30.5,35.6-54,66.3-66.3c45.9-18.2,154.9-14,205.6-14s159.8-4.1,205.6,14c30.5,12.1,54,35.6,66.3,66.3
	c18.2,45.9,14,154.9,14,205.6C826.1,590.7,830.3,699.8,812,745.6z"/>
</svg>
