<svg xmlns="http://www.w3.org/2000/svg" xmlns:xlink="http://www.w3.org/1999/xlink" viewBox="0 0 627 837.4" xmlns:v="https://vecta.io/nano"><path d="M106.9 837.4h-4.3c-46.2 0-83.7-37.5-83.7-83.7V295.5c0-46.2 37.5-83.7 83.7-83.7h4.3c46.2 0 83.7 37.5 83.7 83.7v458.2c-.1 46.2-37.5 83.7-83.7 83.7z" fill="#3367db"/><image width="800" height="1010" xlink:href="FDF8FA6F.png" transform="translate(-86.368 -86.164)" overflow="visible" opacity=".24"/><path d="M554.5 837.4h-435c-40 0-68.5-32.4-68.5-68.9V341.2c0-34.4-51-34.8-51-65.2V66C0 29.6 32.5 0 72.5 0h482c40 0 72.5 29.6 72.5 66.1v705.3c0 36.4-32.5 66-72.5 66z" fill="#303089"/><g fill="#5791f7"><path d="M130.8 422.3l-1.1-4.2H124l-1.1 4.2h-3.5l5.5-17.5h4l5.5 17.5h-3.6zm-1.9-7.3l-1.8-6.4-.3-1.2c-.2 1-.9 3.5-2 7.6h4.1zm10.4 7.3h-3.2v-18.6h3.2v18.6zm6.6 0h-3.2v-18.6h3.2v18.6zm7.4-13.4h3.5l2.2 7.5c.2.7.3 1.4.4 2.3h.1c.1-.8.2-1.6.5-2.3l2.2-7.5h3.5l-5 15.1c-.5 1.4-1.1 2.4-2 3.1s-1.8 1-3 1c-.6 0-1.1-.1-1.6-.2V425c.4.1.8.2 1.3.2.6 0 1.1-.2 1.5-.6s.8-1 1-1.8l.2-.7-4.8-13.2z"/><use xlink:href="#B"/><use xlink:href="#C"/><use xlink:href="#D"/><use xlink:href="#E"/><path d="M231 422.3l-4.5-13.3h3.4l2.3 7.6c.3 1 .4 1.9.5 2.7h.1c0-.8.2-1.7.5-2.7l2.3-7.6h3.4l-4.5 13.3H231zm15 .2c-1.9 0-3.4-.6-4.5-1.8s-1.6-2.9-1.6-5c0-2.2.5-4 1.5-5.2s2.4-1.8 4.1-1.8 3 .5 3.9 1.6 1.4 2.6 1.4 4.5v1.8h-7.7c0 1 .3 1.8.8 2.4s1.2.9 2.1.9c.7 0 1.4-.1 2-.3s1.3-.4 2-.8v2.8c-.6.3-1.2.6-1.8.7-.5.2-1.3.2-2.2.2zm-.5-11.2c-.7 0-1.2.2-1.6.7s-.6 1.2-.7 2.1h4.5c0-.9-.2-1.6-.6-2.1s-.9-.7-1.6-.7z"/><use xlink:href="#F"/><use xlink:href="#G"/><path d="M291.4 422.5c-1.4 0-2.5-.6-3.3-1.8s-1.2-2.9-1.2-5.1.4-3.9 1.2-5.1 1.9-1.8 3.4-1.8 2.6.7 3.4 2h.1c-.2-1-.2-1.9-.2-2.7v-4.3h3.3v18.6h-2.5l-.6-1.7h-.1c-.8 1.3-2 1.9-3.5 1.9zm1.2-2.9c.8 0 1.4-.3 1.8-.8s.6-1.5.6-2.8v-.4c0-1.4-.2-2.5-.6-3.1s-1-.9-1.9-.9c-.7 0-1.3.3-1.7 1s-.6 1.7-.6 3 .2 2.3.6 3 1 1 1.8 1z"/><use xlink:href="#G" x="32.9"/><path d="M320.4 405.5c0-1.2.6-1.8 1.8-1.8s1.8.6 1.8 1.8c0 .6-.1 1-.4 1.3s-.7.5-1.3.5c-1.3 0-1.9-.6-1.9-1.8zm3.4 16.8h-3.2V409h3.2v13.3zm11.7-4c0 1.4-.4 2.4-1.3 3.1-.8.7-2.1 1.1-3.8 1.1-.9 0-1.6-.1-2.2-.2s-1.2-.3-1.7-.6v-3c.6.3 1.3.6 2 .8.8.2 1.4.3 2 .3 1.2 0 1.8-.4 1.8-1.1 0-.3-.1-.5-.2-.7a2.76 2.76 0 0 0-.8-.6l-1.5-.8c-.9-.4-1.6-.8-2-1.2s-.7-.8-.9-1.3-.3-1.1-.3-1.7c0-1.2.4-2.1 1.2-2.8.8-.6 2-1 3.5-1 1.4 0 2.8.4 4.2 1.1l-1 2.6c-.6-.3-1.2-.5-1.7-.7s-1-.3-1.6-.3c-1 0-1.4.3-1.4.9 0 .3.2.6.5.8s1 .6 2 1.1c.9.4 1.6.8 2 1.2s.8.8 1 1.3c.1.5.2 1.1.2 1.7zm7.7-7.6c0-.7.2-1.2.5-1.5s.8-.5 1.4-.5 1 .2 1.4.5c.3.4.5.9.5 1.5s-.2 1.1-.5 1.5-.8.5-1.4.5-1.1-.2-1.4-.5-.5-.8-.5-1.5zm0 9.9c0-.7.2-1.2.5-1.5s.8-.5 1.4-.5 1 .2 1.4.5c.3.4.5.9.5 1.5s-.2 1.1-.5 1.5-.8.5-1.4.5-1.1-.2-1.4-.5c-.3-.4-.5-.9-.5-1.5z"/></g><g fill="#3367db"><path d="M156.9,463h-3.2v-18.6h3.2V463z"/><use xlink:href="#H"/><use xlink:href="#I"/><use xlink:href="#J"/><path d="M207.2 463H204v-7.8c0-1-.2-1.7-.5-2.2s-.8-.7-1.5-.7c-.9 0-1.6.3-2 1s-.6 1.8-.6 3.4v6.3h-3.2v-13.3h2.5l.4 1.7h.2c.4-.6.9-1.1 1.5-1.5.6-.3 1.4-.5 2.2-.5 1.4 0 2.4.4 3.1 1.3.7.8 1.1 2.1 1.1 3.6v8.7z"/><use xlink:href="#K"/><path d="M237.9 463h-3.2v-7.8c0-1.9-.6-2.9-1.9-2.9-.9 0-1.6.3-2 1s-.6 1.8-.6 3.4v6.3H227v-18.6h3.2v3.8l-.1 2.1-.1 1.1h.2c.7-1.3 1.9-2 3.4-2 1.4 0 2.5.4 3.2 1.3.7.8 1.1 2.1 1.1 3.6v8.7zm10.9 0l-.6-1.8h-.1c-.5.8-1.1 1.3-1.7 1.6s-1.3.4-2.3.4a3.69 3.69 0 0 1-2.7-1.1c-.7-.7-1-1.8-1-3.1 0-1.4.4-2.5 1.3-3.1s2.2-1 4-1.1l2.1-.1v-.6c0-1.4-.6-2-1.8-2-.9 0-2.1.3-3.3 1l-1.1-2.5c1.4-.8 2.9-1.2 4.5-1.2s2.8.4 3.7 1.2c.8.8 1.3 2 1.3 3.6v8.9h-2.3zm-1-6.1h-1.3c-.9 0-1.6.2-2.1.6s-.7.9-.7 1.6c0 1 .5 1.5 1.6 1.5.8 0 1.4-.2 1.8-.7.5-.5.7-1.1.7-1.9v-1.1z"/><use xlink:href="#L"/><path d="M273.5 463.3c-1.9 0-3.4-.6-4.5-1.8s-1.6-2.9-1.6-5c0-2.2.5-4 1.5-5.2s2.4-1.8 4.1-1.8 3 .5 3.9 1.6 1.4 2.6 1.4 4.5v1.8h-7.7c0 1 .3 1.8.8 2.4s1.2.9 2.1.9c.7 0 1.4-.1 2-.3s1.3-.4 2-.8v2.8c-.6.3-1.2.6-1.8.7-.4.1-1.2.2-2.2.2zm-.4-11.3c-.7 0-1.2.2-1.6.7s-.6 1.2-.7 2.1h4.5c0-.9-.2-1.6-.6-2.1-.4-.4-.9-.7-1.6-.7zm11 3.8l1.4-2 3.3-4.1h3.7l-4.7 5.8 5 7.6h-3.7l-3.4-5.4-1.4 1.3v4.2H281v-18.6h3.2v8.3l-.1 2.9h0zm15.8 7.5c-1.9 0-3.4-.6-4.5-1.8s-1.6-2.9-1.6-5c0-2.2.5-4 1.5-5.2s2.4-1.8 4.1-1.8 3 .5 3.9 1.6 1.4 2.6 1.4 4.5v1.8H297c0 1 .3 1.8.8 2.4s1.2.9 2.1.9c.7 0 1.4-.1 2-.3s1.3-.4 2-.8v2.8c-.6.3-1.2.6-1.8.7-.5.1-1.3.2-2.2.2zm-.5-11.3c-.7 0-1.2.2-1.6.7s-.6 1.2-.7 2.1h4.5c0-.9-.2-1.6-.6-2.1-.3-.4-.9-.7-1.6-.7z"/><use xlink:href="#M"/><use xlink:href="#K" x="103.6"/><use xlink:href="#G" x="67.7" y="40.7"/><use xlink:href="#J" x="163.4"/><path d="M371.8 449.4c1.4 0 2.5.6 3.3 1.8s1.2 2.9 1.2 5.1-.4 3.9-1.2 5.1-1.9 1.8-3.3 1.8-2.5-.6-3.3-1.7h-.2l-.5 1.5h-2.5v-18.6h3.2v4.3l-.1 2.6h.1c.7-1.2 1.8-1.9 3.3-1.9zm-1 3c-.8 0-1.4.3-1.8.8-.4.6-.6 1.5-.6 2.7v.4c0 1.4.2 2.5.6 3.1s1 .9 1.8.9c.7 0 1.2-.3 1.6-1s.6-1.7.6-3-.2-2.3-.6-3c-.4-.6-.9-.9-1.6-.9zm11.4 10.6H379v-18.6h3.2V463z"/><use xlink:href="#H" x="225.3"/><use xlink:href="#N"/><path d="M416.5 463.3c-1.4 0-2.5-.6-3.3-1.8s-1.2-2.9-1.2-5.1.4-3.9 1.2-5.1 1.9-1.8 3.4-1.8 2.6.7 3.4 2h.1c-.2-1-.2-1.9-.2-2.7v-4.3h3.3V463h-2.5l-.6-1.7h-.1c-.8 1.3-2 2-3.5 2zm1.2-2.9c.8 0 1.4-.3 1.8-.8s.6-1.5.6-2.8v-.4c0-1.4-.2-2.5-.6-3.1s-1-.9-1.9-.9c-.7 0-1.3.3-1.7 1s-.6 1.7-.6 3 .2 2.3.6 3c.4.6 1 1 1.8 1z"/><use xlink:href="#O"/><path d="M454 463h-3.2v-7.8c0-1.9-.6-2.9-1.9-2.9-.9 0-1.6.3-2 1s-.6 1.8-.6 3.4v6.3H443v-18.6h3.2v3.8l-.1 2.1-.1 1.1h.2c.7-1.3 1.9-2 3.4-2 1.4 0 2.5.4 3.2 1.3.7.8 1.1 2.1 1.1 3.6v8.7z"/><use xlink:href="#I" x="284.1"/><use xlink:href="#P"/><use xlink:href="#H" x="323.9"/><use xlink:href="#O" x="64.9"/><use xlink:href="#Q"/><use xlink:href="#R"/><use xlink:href="#S"/><use xlink:href="#E" x="-27.5" y="81.5"/><use xlink:href="#T"/><use xlink:href="#U"/><use xlink:href="#M" x="-78.7" y="40.7"/><use xlink:href="#B" x="73.7" y="81.5"/><use xlink:href="#C" x="73.7" y="81.5"/><path d="M275.5 490.2c.4 0 .8 0 1.1.1l-.2 3.4c-.3-.1-.6-.1-1-.1-1 0-1.8.3-2.4.9s-.9 1.4-.9 2.5v6.8h-3.2v-13.3h2.5l.5 2.2h.2c.4-.7.9-1.4 1.5-1.8.4-.5 1.1-.7 1.9-.7zm14.2 13.8c-1.9 0-3.4-.6-4.5-1.8s-1.6-2.9-1.6-5c0-2.2.5-4 1.5-5.2s2.4-1.8 4.1-1.8 3 .5 3.9 1.6 1.4 2.6 1.4 4.5v1.8h-7.7c0 1 .3 1.8.8 2.4s1.2.9 2.1.9c.7 0 1.4-.1 2-.3s1.3-.4 2-.8v2.8c-.6.3-1.2.6-1.8.7-.4.1-1.2.2-2.2.2zm-.4-11.2c-.7 0-1.2.2-1.6.7s-.6 1.2-.7 2.1h4.5c0-.9-.2-1.6-.6-2.1s-.9-.7-1.6-.7zm10.4 4.2l-3.8-6.5h3.7l2.3 4.2 2.3-4.2h3.7L304 497l4 6.8h-3.7l-2.5-4.6-2.5 4.6h-3.7l4.1-6.8z"/><use xlink:href="#L" x="55.4" y="40.7"/><use xlink:href="#R" x="158.7"/><path d="M338.8 504c-1.9 0-3.4-.6-4.5-1.8s-1.6-2.9-1.6-5c0-2.2.5-4 1.5-5.2s2.4-1.8 4.1-1.8 3 .5 3.9 1.6 1.4 2.6 1.4 4.5v1.8H336c0 1 .3 1.8.8 2.4s1.2.9 2.1.9c.7 0 1.4-.1 2-.3s1.3-.4 2-.8v2.8c-.6.3-1.2.6-1.8.7s-1.3.2-2.3.2zm-.4-11.2c-.7 0-1.2.2-1.6.7s-.6 1.2-.7 2.1h4.5c0-.9-.2-1.6-.6-2.1s-.9-.7-1.6-.7z"/><use xlink:href="#V"/><use xlink:href="#V" x="10.8"/><path d="M367.8 487c0-1.2.6-1.8 1.8-1.8s1.8.6 1.8 1.8c0 .6-.1 1-.4 1.3s-.7.5-1.3.5c-1.3 0-1.9-.6-1.9-1.8zm3.4 16.8H368v-13.3h3.2v13.3z"/><use xlink:href="#W"/><path d="M399 503.8h-3.2V496c0-1-.2-1.7-.5-2.2s-.8-.7-1.5-.7c-.9 0-1.6.3-2 1s-.6 1.8-.6 3.4v6.3H388v-13.3h2.5l.4 1.7h.2c.4-.6.9-1.1 1.5-1.5.6-.3 1.4-.5 2.2-.5 1.4 0 2.4.4 3.1 1.3.7.8 1.1 2.1 1.1 3.6v8.7z"/><use xlink:href="#V" x="56"/><path d="M428.6 503.8l-.9-4.7-1.2-5.9h-.1l-2.2 10.6h-3.5l-3.4-13.3h3.2l1.4 5.9.7 4.4h.1c0-.6.2-1.6.4-2.9l.2-1 1.5-6.4h3.6l1.4 6.4c0 .2.1.4.1.8.1.3.1.7.2 1.1s.1.8.2 1.1c0 .4.1.7.1.9h.1l.3-2.4.4-2 1.4-5.9h3.2l-3.4 13.3h-3.8z"/><use xlink:href="#X"/><use xlink:href="#Y"/><path d="M464.5 503.8h-3.2V496c0-1.9-.6-2.9-1.9-2.9-.9 0-1.6.3-2 1s-.6 1.8-.6 3.4v6.3h-3.2v-18.6h3.2v3.8l-.1 2.1-.1 1.1h.2c.7-1.3 1.9-2 3.4-2 1.4 0 2.5.4 3.2 1.3.7.8 1.1 2.1 1.1 3.6v8.7z"/><use xlink:href="#Z"/><path d="M495.2 503.8H492V496c0-1.9-.6-2.9-1.9-2.9-.9 0-1.6.3-2 1s-.6 1.8-.6 3.4v6.3h-3.2v-18.6h3.2v3.8l-.1 2.1-.1 1.1h.2c.7-1.3 1.9-2 3.4-2 1.4 0 2.5.4 3.2 1.3.7.8 1.1 2.1 1.1 3.6v8.7z"/><use xlink:href="#E" x="283.5" y="81.5"/><path d="M518.2 504c-1.4 0-2.5-.6-3.3-1.7h-.2l.2 1.9v5.4h-3.2v-19.2h2.6l.5 1.7h.1c.8-1.3 1.9-2 3.4-2 1.4 0 2.5.6 3.3 1.8s1.2 2.9 1.2 5.1c0 1.4-.2 2.7-.6 3.7-.4 1.1-.9 1.9-1.6 2.4-.6.6-1.4.9-2.4.9zm-.9-10.9c-.8 0-1.4.3-1.8.8-.4.6-.6 1.5-.6 2.7v.4c0 1.4.2 2.5.6 3.1s1 .9 1.8.9c1.5 0 2.2-1.3 2.2-4 0-1.3-.2-2.3-.5-3-.4-.6-.9-.9-1.7-.9zm13.6 10.9c-1.9 0-3.4-.6-4.5-1.8s-1.6-2.9-1.6-5c0-2.2.5-4 1.5-5.2s2.4-1.8 4.1-1.8 3 .5 3.9 1.6 1.4 2.6 1.4 4.5v1.8H528c0 1 .3 1.8.8 2.4s1.2.9 2.1.9c.7 0 1.4-.1 2-.3s1.3-.4 2-.8v2.8c-.6.3-1.2.6-1.8.7-.5.1-1.3.2-2.2.2zm-.5-11.2c-.7 0-1.2.2-1.6.7s-.6 1.2-.7 2.1h4.5c0-.9-.2-1.6-.6-2.1s-.9-.7-1.6-.7z"/><use xlink:href="#a"/><use xlink:href="#S" x="377.1"/><use xlink:href="#M" x="257.3" y="40.7"/><use xlink:href="#Z" x="103.6"/><use xlink:href="#W" x="-220.9" y="40.7"/><path d="M173.8 530.9c.4 0 .8 0 1.1.1l-.2 3.4c-.3-.1-.6-.1-1-.1-1 0-1.8.3-2.4.9s-.9 1.4-.9 2.5v6.8h-3.2v-13.3h2.5l.5 2.2h.2c.4-.7.9-1.4 1.5-1.8.5-.4 1.1-.7 1.9-.7zm15.5 0c1.4 0 2.5.6 3.3 1.8s1.2 2.9 1.2 5.1-.4 3.9-1.2 5.1-1.9 1.8-3.3 1.8-2.5-.6-3.3-1.7h-.2l-.5 1.5h-2.5v-18.6h3.2v4.3l-.1 2.6h.1c.7-1.2 1.8-1.9 3.3-1.9zm-1.1 2.9c-.8 0-1.4.3-1.8.8-.4.6-.6 1.5-.6 2.7v.4c0 1.4.2 2.5.6 3.1s1 .9 1.8.9c.7 0 1.2-.3 1.6-1s.6-1.7.6-3-.2-2.3-.6-3c-.3-.5-.9-.9-1.6-.9zm11.5 10.7h-3.2v-18.6h3.2v18.6z"/><use xlink:href="#b"/><use xlink:href="#N" x="-182.5" y="81.5"/><path d="M234 544.8c-1.4 0-2.5-.6-3.3-1.8s-1.2-2.9-1.2-5.1.4-3.9 1.2-5.1 1.9-1.8 3.4-1.8 2.6.7 3.4 2h.1c-.2-1-.2-1.9-.2-2.7V526h3.3v18.6h-2.5l-.6-1.7h-.1c-.9 1.2-2 1.9-3.5 1.9zm1.1-2.9c.8 0 1.4-.3 1.8-.8s.6-1.5.6-2.8v-.4c0-1.4-.2-2.5-.6-3.1s-1-.9-1.9-.9c-.7 0-1.3.3-1.7 1s-.6 1.7-.6 3 .2 2.3.6 3c.5.6 1.1 1 1.8 1z"/><use xlink:href="#O" x="-182.6" y="81.5"/><use xlink:href="#D" x="59.7" y="122.2"/><use xlink:href="#E" x="59.7" y="122.2"/><path d="M294.4 544.8c-1.4 0-2.5-.6-3.3-1.7h-.1l.2 1.9v5.4H288v-19.2h2.6l.5 1.7h.1c.8-1.3 1.9-2 3.4-2 1.4 0 2.5.6 3.3 1.8s1.2 2.9 1.2 5.1c0 1.4-.2 2.7-.6 3.7-.4 1.1-.9 1.9-1.6 2.4-.7.6-1.5.9-2.5.9zm-.9-11c-.8 0-1.4.3-1.8.8-.4.6-.6 1.5-.6 2.7v.4c0 1.4.2 2.5.6 3.1s1 .9 1.8.9c1.5 0 2.2-1.3 2.2-4 0-1.3-.2-2.3-.5-3-.4-.5-1-.9-1.7-.9z"/><use xlink:href="#b" x="98.6"/><use xlink:href="#O" x="-117.7" y="81.5"/><use xlink:href="#Q" y="81.5"/><use xlink:href="#c"/><use xlink:href="#d"/><use xlink:href="#d" x="14.3"/><use xlink:href="#S" x="32.2" y="81.5"/><use xlink:href="#Q" x="66.1" y="81.5"/><use xlink:href="#F" x="-28.1" y="163"/><path d="M256.7 585.3h-3.2v-7.8c0-1-.1-1.7-.4-2.2s-.7-.7-1.4-.7c-.8 0-1.4.3-1.8 1s-.6 1.8-.6 3.4v6.3h-3.2V572h2.5l.4 1.7h.2a3.16 3.16 0 0 1 1.4-1.4 4.65 4.65 0 0 1 2.1-.5c1.8 0 3 .7 3.6 2h.3a3.16 3.16 0 0 1 1.4-1.4 4.65 4.65 0 0 1 2.1-.5c1.3 0 2.4.4 3.1 1.2s1 2 1 3.7v8.7h-3.3v-7.8c0-1-.1-1.7-.4-2.2s-.7-.7-1.4-.7c-.8 0-1.4.3-1.8 1-.4.6-.6 1.6-.6 3v6.5z"/><use xlink:href="#e"/><path d="M292 585.5c-1.4 0-2.5-.6-3.3-1.7h-.2l.2 1.9v5.4h-3.2v-19.2h2.6l.5 1.7h.1c.8-1.3 1.9-2 3.4-2 1.4 0 2.5.6 3.3 1.8s1.2 2.9 1.2 5.1c0 1.4-.2 2.7-.6 3.7-.4 1.1-.9 1.9-1.6 2.4-.7.6-1.5.9-2.4.9zm-1-10.9c-.8 0-1.4.3-1.8.8-.4.6-.6 1.5-.6 2.7v.4c0 1.4.2 2.5.6 3.1s1 .9 1.8.9c1.5 0 2.2-1.3 2.2-4 0-1.3-.2-2.3-.5-3-.3-.6-.9-.9-1.7-.9z"/><use xlink:href="#f"/><path d="M317.4 582.6c.6 0 1.2-.1 2-.4v2.7c-.8.4-1.8.6-3 .6-1.3 0-2.2-.4-2.8-1.1s-.9-1.8-.9-3.3v-6.4h-1.6v-1.5l1.8-1.2.9-2.8h2.1v2.8h3.3v2.7H316v6.4c0 .5.1.9.4 1.1.2.3.5.4 1 .4z"/><use xlink:href="#g"/><path d="M344 585.3h-3.2v-7.8c0-1.9-.6-2.9-1.9-2.9-.9 0-1.6.3-2 1s-.6 1.8-.6 3.4v6.3H333v-18.6h3.2v3.8l-.1 2.1-.1 1.1h.2c.7-1.3 1.9-2 3.4-2 1.4 0 2.5.4 3.2 1.3.7.8 1.1 2.1 1.1 3.6v8.7z"/><use xlink:href="#Y" x="-91.1" y="81.5"/><use xlink:href="#h"/><use xlink:href="#e" x="114.1"/><use xlink:href="#h" x="31.5"/><use xlink:href="#C" x="226.6" y="163"/><path d="M428.3 571.7c.4 0 .8 0 1.1.1l-.2 3.4c-.3-.1-.6-.1-1-.1-1 0-1.8.3-2.4.9s-.9 1.4-.9 2.5v6.8h-3.2V572h2.5l.5 2.2h.2c.4-.7.9-1.4 1.5-1.8.5-.5 1.2-.7 1.9-.7z"/><use xlink:href="#i"/><path d="M459 585.3h-3.2v-7.8c0-1.9-.6-2.9-1.9-2.9-.9 0-1.6.3-2 1s-.6 1.8-.6 3.4v6.3H448v-18.6h3.2v3.8l-.1 2.1-.1 1.1h.2c.7-1.3 1.9-2 3.4-2 1.4 0 2.5.4 3.2 1.3.7.8 1.1 2.1 1.1 3.6v8.7zm10.9 0l-.6-1.8h-.1c-.5.8-1.1 1.3-1.7 1.6s-1.3.4-2.3.4a3.69 3.69 0 0 1-2.7-1.1c-.7-.7-1-1.8-1-3.1 0-1.4.4-2.5 1.3-3.1s2.2-1 4-1.1l2.1-.1v-.6c0-1.4-.6-2-1.8-2-.9 0-2.1.3-3.3 1l-1.1-2.5c1.4-.8 2.9-1.2 4.5-1.2s2.8.4 3.7 1.2c.8.8 1.3 2 1.3 3.6v8.9h-2.3zm-1-6.2h-1.3c-.9 0-1.6.2-2.1.6s-.7.9-.7 1.6c0 1 .5 1.5 1.6 1.5.8 0 1.4-.2 1.8-.7.5-.5.7-1.1.7-1.9v-1.1z"/><use xlink:href="#P" x="5" y="122.2"/><path d="M494.6 585.5c-1.9 0-3.4-.6-4.5-1.8s-1.6-2.9-1.6-5c0-2.2.5-4 1.5-5.2s2.4-1.8 4.1-1.8 3 .5 3.9 1.6 1.4 2.6 1.4 4.5v1.8h-7.7c0 1 .3 1.8.8 2.4s1.2.9 2.1.9c.7 0 1.4-.1 2-.3s1.3-.4 2-.8v2.8c-.6.3-1.2.6-1.8.7-.5.1-1.3.2-2.2.2zm-.5-11.2c-.7 0-1.2.2-1.6.7s-.6 1.2-.7 2.1h4.5c0-.9-.2-1.6-.6-2.1-.3-.5-.9-.7-1.6-.7z"/><use xlink:href="#a" x="-36.3" y="81.5"/><path d="M520.9 585.5c-1.9 0-3.4-.6-4.5-1.8s-1.6-2.9-1.6-5c0-2.2.5-4 1.5-5.2s2.4-1.8 4.1-1.8 3 .5 3.9 1.6 1.4 2.6 1.4 4.5v1.8H518c0 1 .3 1.8.8 2.4s1.2.9 2.1.9c.7 0 1.4-.1 2-.3s1.3-.4 2-.8v2.8c-.6.3-1.2.6-1.8.7-.4.1-1.2.2-2.2.2zm-.4-11.2c-.7 0-1.2.2-1.6.7s-.6 1.2-.7 2.1h4.5c0-.9-.2-1.6-.6-2.1s-.9-.7-1.6-.7z"/><use xlink:href="#e" x="261"/><use xlink:href="#i" x="103.6"/><use xlink:href="#M" x="-153.7" y="163"/><use xlink:href="#G" x="-102.5" y="203.7"/><path d="M187.9 626l-.4-1.7h-.2a2.94 2.94 0 0 1-1.5 1.4c-.6.3-1.4.5-2.2.5-1.4 0-2.4-.4-3.2-1.3-.7-.8-1.1-2-1.1-3.6v-8.7h3.2v7.8c0 1 .2 1.7.5 2.2s.8.7 1.5.7c.9 0 1.6-.3 2-1s.6-1.8.6-3.4v-6.3h3.2V626h-2.4zm19.1 0l-.6-1.8h-.1c-.5.8-1.1 1.3-1.7 1.6s-1.3.4-2.3.4a3.69 3.69 0 0 1-2.7-1.1c-.7-.7-1-1.8-1-3.1 0-1.4.4-2.5 1.3-3.1.9-.7 2.2-1 4-1.1l2.1-.1v-.6c0-1.4-.6-2-1.8-2-.9 0-2.1.3-3.3 1l-1.1-2.5c1.4-.8 2.9-1.2 4.5-1.2s2.8.4 3.7 1.2c.8.8 1.3 2 1.3 3.6v8.9H207zm-.9-6.2h-1.3c-.9 0-1.6.2-2.1.6s-.7.9-.7 1.6c0 1 .5 1.5 1.6 1.5.8 0 1.4-.2 1.8-.7.5-.5.7-1.1.7-1.9v-1.1z"/><use xlink:href="#R" x="47.7" y="122.2"/><path d="M227.9 626.2c-1.9 0-3.4-.6-4.5-1.8s-1.6-2.9-1.6-5c0-2.2.5-4 1.5-5.2s2.4-1.8 4.1-1.8 3 .5 3.9 1.6 1.4 2.6 1.4 4.5v1.8H225c0 1 .3 1.8.8 2.4s1.2.9 2.1.9c.7 0 1.4-.1 2-.3s1.3-.4 2-.8v2.8c-.6.3-1.2.6-1.8.7-.5.2-1.3.2-2.2.2zm-.5-11.2c-.7 0-1.2.2-1.6.7s-.6 1.2-.7 2.1h4.5c0-.9-.2-1.6-.6-2.1s-.9-.7-1.6-.7zm21.1 11l-.6-1.8h-.1c-.5.8-1.1 1.3-1.7 1.6s-1.3.4-2.3.4a3.69 3.69 0 0 1-2.7-1.1c-.7-.7-1-1.8-1-3.1 0-1.4.4-2.5 1.3-3.1s2.2-1 4-1.1l2.1-.1v-.6c0-1.4-.6-2-1.8-2-.9 0-2.1.3-3.3 1l-1.1-2.5c1.4-.8 2.9-1.2 4.5-1.2s2.8.4 3.7 1.2c.8.8 1.3 2 1.3 3.6v8.9h-2.3zm-.9-6.2h-1.3c-.9 0-1.6.2-2.1.6s-.7.9-.7 1.6c0 1 .5 1.5 1.6 1.5.8 0 1.4-.2 1.8-.7.5-.5.7-1.1.7-1.9v-1.1zm9.8 6.2h-3.2v-18.6h3.2V626zm6.6 0h-3.2v-18.6h3.2V626z"/><use xlink:href="#V" x="-73.2" y="122.2"/><path d="M289.3 626.2c-1.9 0-3.4-.6-4.5-1.8s-1.6-2.9-1.6-5c0-2.2.5-4 1.5-5.2s2.4-1.8 4.1-1.8 3 .5 3.9 1.6 1.4 2.6 1.4 4.5v1.8h-7.7c0 1 .3 1.8.8 2.4s1.2.9 2.1.9c.7 0 1.4-.1 2-.3s1.3-.4 2-.8v2.8c-.6.3-1.2.6-1.8.7s-1.3.2-2.2.2zm-.5-11.2c-.7 0-1.2.2-1.6.7s-.6 1.2-.7 2.1h4.5c0-.9-.2-1.6-.6-2.1s-.9-.7-1.6-.7z"/><use xlink:href="#T" x="96" y="122.2"/><path d="M305.7 624.3c0-.7.2-1.2.5-1.5s.8-.5 1.4-.5 1 .2 1.4.5c.3.4.5.9.5 1.5s-.2 1.1-.5 1.5-.8.5-1.4.5-1.1-.2-1.4-.5c-.3-.4-.5-.9-.5-1.5z"/></g><g fill="#8b2caf"><use xlink:href="#j"/><use xlink:href="#j" y="43.4"/><use xlink:href="#k"/><path d="M129.1 568.3a9.82 9.82 0 0 1 9.8 9.8 9.82 9.82 0 0 1-9.8 9.8 9.82 9.82 0 0 1-9.8-9.8 9.82 9.82 0 0 1 9.8-9.8zM128 574l3 2.9h-7.2c-.5 0-.9.4-.9.9v.6c0 .5.4.9.9.9h7.2l-3 2.9c-.4.4-.4 1 0 1.4l.4.4c.4.4 1 .4 1.3 0l5.2-5.2c.4-.4.4-1 0-1.3l-5.2-5.2c-.4-.4-1-.4-1.3 0l-.4.4c-.4.3-.4.9 0 1.3z"/><use xlink:href="#k" y="82.8"/></g><g fill="#5791f7"><path d="M80.6 89.1c0 1.8-.6 3.2-1.7 4.3-1.2 1-2.8 1.6-4.8 1.6-1.9 0-3.6-.4-5-1.2v-3.9a30.3 30.3 0 0 0 3 1.3c.8.3 1.6.4 2.3.4.8 0 1.5-.2 1.9-.5s.7-.9.7-1.6a1.69 1.69 0 0 0-.3-1c-.2-.3-.5-.6-.9-.9s-1.1-.7-2.3-1.4c-1.1-.6-1.9-1.1-2.4-1.7-.5-.5-1-1.1-1.3-1.8s-.5-1.5-.5-2.5c0-1.8.5-3.2 1.6-4.2s2.5-1.5 4.4-1.5c.9 0 1.8.1 2.6.4l2.6 1-1.2 3.3c-.9-.4-1.7-.7-2.4-.9-.6-.2-1.2-.3-1.8-.3-.7 0-1.3.2-1.6.6-.4.4-.6.9-.6 1.5 0 .4.1.7.2 1 .2.3.4.5.7.8s1.1.7 2.4 1.4c1.7.9 2.8 1.8 3.4 2.7.7.7 1 1.8 1 3.1zM91 95c-1.6 0-2.9-.7-3.8-2H87l.2 2.2v6.2h-3.7v-22h3l.5 2h.2c.9-1.5 2.2-2.3 3.9-2.3 1.6 0 2.9.7 3.8 2.1s1.4 3.3 1.4 5.8c0 1.6-.2 3-.6 4.3-.4 1.2-1 2.1-1.8 2.7s-1.8 1-2.9 1zm-1.1-12.5c-.9 0-1.6.3-2 1s-.6 1.7-.7 3.1v.4c0 1.6.2 2.8.7 3.5s1.1 1.1 2.1 1.1c1.7 0 2.5-1.5 2.5-4.6 0-1.5-.2-2.6-.6-3.4-.5-.8-1.1-1.1-2-1.1z"/><use xlink:href="#l"/><path d="M121.9 79.1c.5 0 .9 0 1.3.1l-.3 3.9c-.3-.1-.7-.1-1.1-.1-1.2 0-2.1.3-2.8 1s-1 1.6-1 2.9v7.8h-3.7V79.4h2.8l.5 2.6h.2c.4-.9 1-1.5 1.7-2.1.8-.5 1.6-.8 2.4-.8zm7.3 7.3l1.6-2.3 3.8-4.6h4.2l-5.4 6.6 5.7 8.7h-4.3l-3.9-6.2-1.6 1.4v4.8h-3.7V73.4h3.7v9.5l-.1 3.5h0zm27 8.3l-.7-2.1h-.1c-.6.9-1.3 1.5-1.9 1.8a5.86 5.86 0 0 1-2.6.6c-1.3 0-2.3-.4-3.1-1.3-.8-.8-1.1-2-1.1-3.6s.5-2.8 1.5-3.6 2.5-1.2 4.6-1.3l2.4-.1v-.7c0-1.5-.7-2.3-2.1-2.3-1.1 0-2.4.4-3.8 1.1l-1.2-2.8c1.6-.9 3.3-1.4 5.2-1.4 1.8 0 3.2.4 4.2 1.3s1.5 2.3 1.5 4.1v10.2h-2.8zm-1.1-7.1l-1.4.1c-1.1 0-1.9.3-2.4.7s-.8 1-.8 1.8c0 1.2.6 1.8 1.8 1.8.9 0 1.5-.3 2.1-.8.5-.6.8-1.3.8-2.2v-1.4zm15.1-8.5c.5 0 .9 0 1.3.1l-.3 3.9c-.3-.1-.7-.1-1.1-.1-1.2 0-2.1.3-2.8 1s-1 1.6-1 2.9v7.8h-3.7V79.4h2.8l.6 2.6h.2c.4-.9 1-1.5 1.7-2.1.7-.5 1.5-.8 2.3-.8zm17.7 3.4h-3.2v12.2H181V82.5h-2v-2l2-1.1v-1.1c0-1.7.4-3 1.1-3.8.8-.8 2-1.2 3.7-1.2 1.3 0 2.4.2 3.4.6l-.9 3.1c-.7-.3-1.4-.4-2.1-.4-.5 0-.9.2-1.1.5-.2.4-.4.8-.4 1.3v1h3.2v3.1z"/><use xlink:href="#l" x="90.8"/><path d="M210.7 95c-4.2 0-6.4-2.6-6.4-7.8 0-2.6.6-4.6 1.7-6 1.2-1.4 2.8-2.1 5-2.1 1.6 0 3 .3 4.2 1l-1.1 3.2c-.6-.3-1.1-.5-1.6-.6-.5-.2-1-.3-1.5-.3-1.9 0-2.9 1.5-2.9 4.6 0 3 1 4.5 2.9 4.5.7 0 1.4-.1 2-.3s1.2-.5 1.8-1v3.6c-.6.4-1.2.7-1.8.9s-1.4.3-2.3.3zm7.1-19.5c0-1.4.7-2 2-2s2 .7 2 2c0 .6-.2 1.2-.5 1.5-.3.4-.8.5-1.5.5-1.3 0-2-.7-2-2zm3.8 19.2h-3.7V79.4h3.7v15.3z"/><use xlink:href="#l" x="126.3"/><path d="M244.3,94.7h-3.7V73.4h3.7V94.7z"/><use xlink:href="#m"/><path d="M272.2 86.9l-4.4-7.5h4.2l2.6 4.9 2.7-4.9h4.2l-4.4 7.5 4.6 7.8h-4.2l-2.9-5.2-2.9 5.2h-4.2l4.7-7.8zm19.1 8.1c-1.6 0-2.9-.7-3.8-2h-.2l.2 2.2v6.2h-3.7v-22h3l.5 2h.2c.9-1.5 2.2-2.3 3.9-2.3 1.6 0 2.9.7 3.8 2.1s1.4 3.3 1.4 5.8c0 1.6-.2 3-.6 4.3-.4 1.2-1 2.1-1.8 2.7s-1.9 1-2.9 1zm-1.1-12.5c-.9 0-1.6.3-2 1s-.6 1.7-.7 3.1v.4c0 1.6.2 2.8.7 3.5s1.1 1.1 2.1 1.1c1.7 0 2.5-1.5 2.5-4.6 0-1.5-.2-2.6-.6-3.4-.5-.8-1.2-1.1-2-1.1zm17-3.4c.5 0 .9 0 1.3.1l-.3 3.9c-.3-.1-.7-.1-1.1-.1-1.2 0-2.1.3-2.8 1s-1 1.6-1 2.9v7.8h-3.7V79.4h2.8l.5 2.6h.2c.4-.9 1-1.5 1.7-2.1.7-.5 1.5-.8 2.4-.8z"/><use xlink:href="#m" x="56.2"/><use xlink:href="#n"/><use xlink:href="#n" x="12.4"/><path d="M350.2 75.5c0-1.4.7-2 2-2s2 .7 2 2c0 .6-.2 1.2-.5 1.5-.3.4-.8.5-1.5.5-1.3 0-2-.7-2-2zm3.9 19.2h-3.7V79.4h3.7v15.3zm16.2-7.7c0 2.5-.6 4.4-1.8 5.8s-2.8 2.1-4.9 2.1c-1.3 0-2.5-.3-3.5-1-1-.6-1.8-1.6-2.3-2.8s-.8-2.6-.8-4.2c0-2.5.6-4.4 1.7-5.8 1.2-1.4 2.8-2.1 4.9-2.1 1.3 0 2.5.3 3.5 1 1 .6 1.8 1.6 2.3 2.7.7 1.3.9 2.7.9 4.3zm-9.4 0c0 1.5.2 2.7.7 3.4.4.8 1.2 1.2 2.2 1.2s1.7-.4 2.1-1.2.7-1.9.7-3.4-.2-2.6-.7-3.4c-.4-.8-1.2-1.1-2.2-1.1s-1.7.4-2.1 1.1c-.4.8-.7 1.9-.7 3.4zm25.1 7.7h-3.7v-8.9c0-1.1-.2-1.9-.5-2.5s-.9-.8-1.7-.8c-1 0-1.8.4-2.3 1.2s-.7 2.1-.7 3.9v7.2h-3.7V79.4h2.8l.5 2h.2a4.62 4.62 0 0 1 1.7-1.7c.7-.4 1.6-.6 2.5-.6 1.6 0 2.8.5 3.6 1.4.8 1 1.2 2.3 1.2 4.2v10zm17.7.3c-1.6 0-2.9-.7-3.8-2h-.2l.2 2.2v6.2h-3.7v-22h3l.5 2h.2c.9-1.5 2.2-2.3 3.9-2.3 1.6 0 2.9.7 3.8 2.1s1.4 3.3 1.4 5.8c0 1.6-.2 3-.6 4.3-.4 1.2-1 2.1-1.8 2.7s-1.8 1-2.9 1zm-1.1-12.5c-.9 0-1.6.3-2 1s-.6 1.7-.7 3.1v.4c0 1.6.2 2.8.7 3.5s1.1 1.1 2.1 1.1c1.7 0 2.5-1.5 2.5-4.6 0-1.5-.2-2.6-.6-3.4s-1.1-1.1-2-1.1z"/><use xlink:href="#l" x="312.8"/><path d="M432.8 91.6c.6 0 1.4-.2 2.3-.5v3.1c-.9.5-2.1.7-3.4.7-1.5 0-2.6-.4-3.2-1.3-.7-.8-1-2.1-1-3.8v-7.4h-1.8v-1.8l2-1.4 1.1-3.2h2.4v3.3h3.8v3.1h-3.8v7.4c0 .6.1 1 .4 1.3.3.4.7.5 1.2.5zm10.6 3.4c-4.2 0-6.4-2.6-6.4-7.8 0-2.6.6-4.6 1.7-6 1.2-1.4 2.8-2.1 5-2.1 1.6 0 3 .3 4.2 1l-1.1 3.2c-.6-.3-1.1-.5-1.6-.6-.5-.2-1-.3-1.5-.3-1.9 0-2.9 1.5-2.9 4.6 0 3 1 4.5 2.9 4.5.7 0 1.4-.1 2-.3s1.2-.5 1.8-1v3.6c-.6.4-1.2.7-1.8.9s-1.3.3-2.3.3zm19.9-.3h-3.7v-8.9c0-2.2-.7-3.3-2.2-3.3-1 0-1.8.4-2.3 1.2s-.7 2.1-.7 3.9v7.2h-3.7V73.4h3.7v4.3l-.1 2.4-.1 1.2h.2c.8-1.5 2.1-2.2 3.9-2.2 1.6 0 2.8.5 3.6 1.4.8 1 1.2 2.4 1.2 4.2v10zm3.3-2c0-.8.2-1.3.5-1.7.4-.4.9-.6 1.6-.6s1.2.2 1.6.6.6 1 .6 1.7-.2 1.3-.6 1.7-.9.6-1.6.6-1.2-.2-1.6-.6-.5-.9-.5-1.7z"/></g><g fill="#3367db"><use xlink:href="#o"/><path d="M121.9 164.2c-1.9 0-3.4-.6-4.5-1.8s-1.6-2.9-1.6-5c0-2.2.5-4 1.5-5.2s2.4-1.8 4.1-1.8 3 .5 3.9 1.6 1.4 2.6 1.4 4.5v1.8H119c0 1 .3 1.8.8 2.4s1.2.9 2.1.9c.7 0 1.4-.1 2-.3s1.3-.4 2-.8v2.8c-.6.3-1.2.6-1.8.7s-1.2.2-2.2.2zm-.4-11.3c-.7 0-1.2.2-1.6.7s-.6 1.2-.7 2.1h4.5c0-.9-.2-1.6-.6-2.1-.4-.4-.9-.7-1.6-.7zm12.9 8.4c.6 0 1.2-.1 2-.4v2.7c-.8.4-1.8.6-3 .6-1.3 0-2.2-.4-2.8-1.1s-.9-1.8-.9-3.3v-6.4h-1.6v-1.5l1.8-1.2.9-2.8h2.1v2.8h3.3v2.7H133v6.4c0 .5.1.9.4 1.1.3.3.6.4 1 .4z"/><use xlink:href="#M" x="-162.9" y="-299.1"/><use xlink:href="#G" x="-111.6" y="-258.4"/><use xlink:href="#C" x="-10.4" y="-258.4"/><use xlink:href="#J" x="-1.6" y="-299.1"/><use xlink:href="#b" x="-2.9" y="-380.6"/><path d="M215.5 157.1l-3.8-6.5h3.7l2.3 4.2 2.3-4.2h3.7l-3.9 6.5 4 6.8h-3.7l-2.5-4.6-2.5 4.6h-3.7l4.1-6.8z"/><use xlink:href="#P" x="-244.8" y="-299.1"/><use xlink:href="#J" x="53.1" y="-299.1"/><use xlink:href="#b" x="46.2" y="-380.6"/><use xlink:href="#O" x="-170.1" y="-299.1"/><use xlink:href="#O" x="-159.3" y="-299.1"/><use xlink:href="#X" x="-153.7" y="-339.9"/><use xlink:href="#G" x="21.9" y="-258.4"/><use xlink:href="#N" x="-94.6" y="-299.1"/><use xlink:href="#K" x="102.1" y="-299.1"/><path d="M334.9 163.9v-17.5h3.3v17.5h-3.3z"/><use xlink:href="#N" x="-56.6" y="-299.1"/><use xlink:href="#O" x="-76.1" y="-299.1"/><use xlink:href="#Y" x="-77.1" y="-339.8"/><use xlink:href="#I" x="203.2" y="-299.1"/><use xlink:href="#N" x="-8.9" y="-299.1"/><use xlink:href="#T" x="203.1" y="-339.8"/><use xlink:href="#p"/><path d="M110.2 199.8c0 1.6-.5 2.8-1.5 3.7s-2.4 1.4-4.2 1.4c-1.7 0-3.1-.4-4.4-1.1v-3.4c1 .5 1.9.9 2.7 1.1a7.47 7.47 0 0 0 2 .3c.7 0 1.3-.2 1.7-.5s.6-.8.6-1.4c0-.3-.1-.6-.3-.9s-.4-.5-.7-.8l-2-1.2c-.9-.5-1.7-1-2.1-1.4-.5-.5-.9-1-1.1-1.6-.3-.6-.4-1.3-.4-2.1 0-1.5.5-2.8 1.4-3.6.9-.9 2.2-1.3 3.9-1.3.8 0 1.6.1 2.3.3s1.5.5 2.3.9l-1.1 2.9c-.8-.4-1.5-.6-2.1-.8-.5-.2-1.1-.2-1.6-.2-.6 0-1.1.2-1.4.5s-.5.8-.5 1.3c0 .3.1.6.2.9.1.2.3.5.6.7s1 .6 2.1 1.2c1.5.8 2.4 1.6 3 2.3.4.7.6 1.7.6 2.8z"/><use xlink:href="#q"/><use xlink:href="#B" x="-33.2" y="-217.6"/><use xlink:href="#G" x="-120.9" y="-217.6"/><use xlink:href="#F" x="-98" y="-217.6"/><use xlink:href="#D" x="-30.2" y="-217.6"/><use xlink:href="#R" x="25.6" y="-299.1"/><use xlink:href="#U" x="-9.8" y="-299.1"/><use xlink:href="#f" x="-86" y="-380.6"/><path d="M229.6 204.7h-3.2v-18.6h3.2v18.6zm2.4-5.1v-3h5.7v3H232z"/><use xlink:href="#F" x="-19.1" y="-217.6"/><use xlink:href="#X" x="-188" y="-299.1"/><use xlink:href="#q" x="143.3"/><path d="M282.8 204.9c-1.9 0-3.4-.6-4.5-1.8s-1.6-2.9-1.6-5c0-2.2.5-4 1.5-5.2s2.4-1.8 4.1-1.8 3 .5 3.9 1.6 1.4 2.6 1.4 4.5v1.8H280c0 1 .3 1.8.8 2.4s1.2.9 2.1.9c.7 0 1.4-.1 2-.3s1.3-.4 2-.8v2.8c-.6.3-1.2.6-1.8.7s-1.3.2-2.3.2zm-.4-11.2c-.7 0-1.2.2-1.6.7s-.6 1.2-.7 2.1h4.5c0-.9-.2-1.6-.6-2.1s-.9-.7-1.6-.7z"/><use xlink:href="#Y" x="-148.1" y="-299.1"/><use xlink:href="#R" x="140.5" y="-299.1"/><use xlink:href="#E" x="100.2" y="-217.6"/><path d="M333.3 204.9c-3.7 0-5.5-2.3-5.5-6.8 0-2.3.5-4 1.5-5.2s2.4-1.8 4.3-1.8c1.4 0 2.6.3 3.7.9l-1 2.8-1.4-.6c-.4-.1-.9-.2-1.3-.2-1.7 0-2.5 1.3-2.5 4 0 2.6.8 3.9 2.5 3.9.6 0 1.2-.1 1.7-.3s1.1-.5 1.6-.9v3.1c-.5.4-1.1.6-1.6.8-.6.2-1.2.3-2 .3z"/><use xlink:href="#a" x="-198.8" y="-299.1"/><use xlink:href="#X" x="-84.3" y="-299.1"/><use xlink:href="#N" x="-38.7" y="-258.3"/><path d="M384.4 191.3v1.9l-1.9.5c.3.6.5 1.3.5 2 0 1.4-.4 2.5-1.3 3.3s-2.1 1.2-3.7 1.2h-.6l-.5-.1c-.3.3-.5.6-.5 1 0 .5.6.8 1.8.8h2c1.3 0 2.3.3 3 .9s1 1.6 1 2.8c0 1.6-.6 2.8-1.7 3.6s-2.8 1.3-5 1.3c-1.7 0-2.9-.3-3.8-1-.9-.6-1.3-1.6-1.3-2.7 0-.8.2-1.5.7-2 .4-.5 1.1-.9 2-1.2-.3-.2-.6-.4-.9-.8-.2-.4-.4-.7-.4-1.2s.1-.9.4-1.3c.3-.3.6-.7 1.1-1-.6-.3-1.1-.8-1.5-1.5s-.5-1.5-.5-2.4c0-1.5.4-2.6 1.3-3.4.8-.8 2-1.2 3.6-1.2.3 0 .7 0 1.2.1s.7.1.9.1h4.1zm-9.2 15.3c0 .5.2.9.6 1.2s1 .4 1.8.4c1.2 0 2.1-.2 2.7-.5.7-.4 1-.8 1-1.5a1 1 0 0 0-.6-1c-.4-.2-1-.3-1.8-.3h-1.7c-.6 0-1.1.2-1.5.5-.3.2-.5.6-.5 1.2zm1.2-10.9c0 .7.1 1.3.4 1.7s.7.6 1.3.6 1.1-.2 1.3-.6c.3-.4.4-1 .4-1.7 0-1.6-.6-2.4-1.8-2.4-1 0-1.6.8-1.6 2.4z"/><use xlink:href="#r"/><use xlink:href="#o" y="81.5"/><use xlink:href="#X" x="-320.9" y="-258.4"/><use xlink:href="#s"/><use xlink:href="#b" x="-67.5" y="-299.1"/><path d="M157.3 245.4h-3.2v-18.6h3.2v18.6z"/><use xlink:href="#X" x="-276.7" y="-258.4"/><path d="M173.9 234.8h-2.8v10.6h-3.2v-10.6h-1.8V233l1.8-1v-1c0-1.5.3-2.6 1-3.3s1.7-1.1 3.2-1.1c1.1 0 2.1.2 3 .6l-.8 2.7c-.7-.2-1.3-.3-1.8-.3s-.8.2-1 .5-.3.7-.3 1.2v.8h2.8v2.7z"/><use xlink:href="#b" x="-27.3" y="-299.1"/><path d="M199.3 242.8c.6 0 1.2-.1 2-.4v2.7c-.8.4-1.8.6-3 .6-1.3 0-2.2-.4-2.8-1.1s-.9-1.8-.9-3.3v-6.4H193v-1.5l1.8-1.2.9-2.8h2.1v2.8h3.3v2.7h-3.3v6.4c0 .5.1.9.4 1.1s.7.4 1.1.4z"/><use xlink:href="#G" x="-64.8" y="-176.9"/><use xlink:href="#M" x="-84.5" y="-217.6"/><use xlink:href="#G" x="-33.3" y="-176.9"/><path d="M257.1 245.4l-.4-1.7h-.2a2.94 2.94 0 0 1-1.5 1.4c-.6.3-1.4.5-2.2.5-1.4 0-2.4-.4-3.2-1.3-.7-.8-1.1-2-1.1-3.6V232h3.2v7.8c0 1 .2 1.7.5 2.2s.8.7 1.5.7c.9 0 1.6-.3 2-1s.6-1.8.6-3.4V232h3.2v13.3h-2.4zm12.5-13.6c.4 0 .8 0 1.1.1l-.2 3.4c-.3-.1-.6-.1-1-.1-1 0-1.8.3-2.4.9s-.9 1.4-.9 2.5v6.8H263v-13.3h2.5l.5 2.2h.2c.4-.7.9-1.4 1.5-1.8.5-.4 1.2-.7 1.9-.7zm18.7 13.6l-1.1-4.2h-5.7l-1.1 4.2h-3.5l5.5-17.5h4l5.5 17.5h-3.6zm-1.9-7.2l-1.8-6.4-.3-1.2c-.2 1-.9 3.5-2 7.6h4.1zm10.7.5v6.7h-3.3V228h4.5c2.1 0 3.7.4 4.7 1.3s1.5 2.2 1.5 3.9c0 1-.3 1.9-.8 2.7s-1.2 1.4-2.1 1.9l4.6 7.6h-3.7l-3.7-6.7h-1.7zm0-3h1.1c1 0 1.8-.2 2.3-.6s.7-1 .7-1.8-.3-1.4-.8-1.8-1.3-.5-2.4-.5h-1v4.7z"/><use xlink:href="#Q" x="159.9" y="-258.3"/><use xlink:href="#D" x="124" y="-176.9"/><use xlink:href="#f" x="39.8" y="-339.9"/><use xlink:href="#J" x="165.9" y="-217.6"/><use xlink:href="#E" x="147" y="-176.9"/><use xlink:href="#g" x="53.4" y="-339.8"/><path d="M391.4 242.8c.6 0 1.2-.1 2-.4v2.7c-.8.4-1.8.6-3 .6-1.3 0-2.2-.4-2.8-1.1s-.9-1.8-.9-3.3v-6.4h-1.6v-1.5l1.8-1.2.9-2.8h2.1v2.8h3.3v2.7H390v6.4c0 .5.1.9.4 1.1a1.53 1.53 0 0 0 1 .4zm9.8 2.9c-1.9 0-3.4-.6-4.5-1.8s-1.6-2.9-1.6-5c0-2.2.5-4 1.5-5.2s2.4-1.8 4.1-1.8 3 .5 3.9 1.6 1.4 2.6 1.4 4.5v1.8h-7.7c0 1 .3 1.8.8 2.4s1.2.9 2.1.9c.7 0 1.4-.1 2-.3s1.3-.4 2-.8v2.8c-.6.3-1.2.6-1.8.7-.5.1-1.2.2-2.2.2zm-.4-11.3c-.7 0-1.2.2-1.6.7s-.6 1.2-.7 2.1h4.5c0-.9-.2-1.6-.6-2.1-.4-.4-.9-.7-1.6-.7z"/><use xlink:href="#J" x="222.4" y="-217.6"/><use xlink:href="#p" x="5.3" y="81.5"/><use xlink:href="#o" y="122.3"/><use xlink:href="#X" x="-320.9" y="-217.6"/><use xlink:href="#s" y="40.8"/><use xlink:href="#U" x="-74.6" y="-217.6"/><use xlink:href="#U" x="-56.1" y="-217.6"/><path d="M177.6 286.2h-3.2v-7.8c0-1-.1-1.7-.4-2.2s-.7-.7-1.4-.7c-.8 0-1.4.3-1.8 1s-.6 1.8-.6 3.4v6.3H167v-13.3h2.5l.4 1.7h.2a3.16 3.16 0 0 1 1.4-1.4 4.65 4.65 0 0 1 2.1-.5c1.8 0 3 .7 3.6 2h.3a3.16 3.16 0 0 1 1.4-1.4 4.65 4.65 0 0 1 2.1-.5c1.3 0 2.4.4 3.1 1.2s1 2 1 3.7v8.7h-3.3v-7.8c0-1-.1-1.7-.4-2.2s-.7-.7-1.4-.7c-.8 0-1.4.3-1.8 1-.4.6-.6 1.6-.6 3v6.5z"/><use xlink:href="#h" x="-174.1" y="-299.1"/><use xlink:href="#t"/><use xlink:href="#X" x="-226.2" y="-217.6"/><use xlink:href="#c" x="53" y="-299.1"/><use xlink:href="#N" x="-167.1" y="-176.8"/><use xlink:href="#i" x="-191.6" y="-299.1"/><use xlink:href="#t" x="60.3"/><use xlink:href="#h" x="-90.9" y="-299.1"/><use xlink:href="#M" x="-16.7" y="-176.9"/><use xlink:href="#h" x="-59.4" y="-299.1"/><use xlink:href="#C" x="135.7" y="-136.1"/><use xlink:href="#R" x="165.9" y="-217.6"/><use xlink:href="#q" x="233.6" y="81.5"/><use xlink:href="#h" x="5.3" y="-299.1"/><path d="M384.9 286.4c-1.4 0-2.5-.6-3.3-1.8s-1.2-2.9-1.2-5.1.4-3.9 1.2-5.1 1.9-1.8 3.4-1.8 2.6.7 3.4 2h.1c-.2-1-.2-1.9-.2-2.7v-4.3h3.3v18.6h-2.5l-.6-1.7h-.1c-.8 1.2-2 1.9-3.5 1.9zm1.2-2.9c.8 0 1.4-.3 1.8-.8s.6-1.5.6-2.8v-.4c0-1.4-.2-2.5-.6-3.1s-1-.9-1.9-.9c-.7 0-1.3.3-1.7 1s-.6 1.7-.6 3 .2 2.3.6 3 1 1 1.8 1zm14.2 2.9c-1.9 0-3.4-.6-4.5-1.8s-1.6-2.9-1.6-5c0-2.2.5-4 1.5-5.2s2.4-1.8 4.1-1.8 3 .5 3.9 1.6 1.4 2.6 1.4 4.5v1.8h-7.7c0 1 .3 1.8.8 2.4s1.2.9 2.1.9c.7 0 1.4-.1 2-.3s1.3-.4 2-.8v2.8c-.6.3-1.2.6-1.8.7-.5.1-1.3.2-2.2.2zm-.4-11.2c-.7 0-1.2.2-1.6.7s-.6 1.2-.7 2.1h4.5c0-.9-.2-1.6-.6-2.1s-.9-.7-1.6-.7zm11.1 11h-3.2v-18.6h3.2v18.6z"/><use xlink:href="#r" x="28.1" y="81.5"/></g><use xlink:href="#u" fill="#8b2caf"/><use xlink:href="#v" fill="#c371ea"/><use xlink:href="#u" y="41.9" fill="#8b2caf"/><use xlink:href="#v" y="41.9" fill="#c371ea"/><path d="M80.6 226.7c-5.9 0-10.6 4.8-10.6 10.6S74.7 248 80.6 248s10.6-4.8 10.6-10.6-4.8-10.7-10.6-10.7zm6 8.4l-7.4 7.3c-.2.2-.5.2-.7 0l-3.9-3.9c-.2-.2-.2-.5 0-.7l1-1c.2-.2.5-.2.7 0l2.6 2.6 6.1-6c.2-.2.5-.2.7 0l1 1c.1.2.1.5-.1.7z" fill="#8b2caf"/><use xlink:href="#v" y="82.1" fill="#c371ea"/><use xlink:href="#u" y="122.3" fill="#8b2caf"/><use xlink:href="#v" y="122.3" fill="#c371ea"/><defs ><path id="B" d="M178.2 415.6c0 2.2-.5 3.9-1.5 5.1s-2.4 1.8-4.3 1.8c-1.1 0-2.1-.3-3-.8-.9-.6-1.5-1.4-2-2.4-.5-1.1-.7-2.3-.7-3.7 0-2.2.5-3.9 1.5-5.1s2.4-1.8 4.3-1.8c1.1 0 2.1.3 3 .8.9.6 1.5 1.4 2 2.4.4 1.1.7 2.3.7 3.7zm-8.3 0c0 1.3.2 2.3.6 3s1 1 1.9 1 1.5-.3 1.9-1 .6-1.7.6-3-.2-2.3-.6-3-1-1-1.9-1-1.5.3-1.9 1-.6 1.7-.6 3z"/><path id="C" d="M189.2 422.3l-.4-1.7h-.2a2.94 2.94 0 0 1-1.5 1.4c-.6.3-1.4.5-2.2.5-1.4 0-2.4-.4-3.2-1.3-.7-.8-1.1-2-1.1-3.6v-8.7h3.2v7.8c0 1 .2 1.7.5 2.2s.8.7 1.5.7c.9 0 1.6-.3 2-1s.6-1.8.6-3.4v-6.3h3.2v13.3h-2.4z"/><path id="D" d="M211.7 422.3h-3.2v-7.8c0-1.9-.6-2.9-1.9-2.9-.9 0-1.6.3-2 1s-.6 1.8-.6 3.4v6.3h-3.2v-18.6h3.2v3.8l-.1 2.1-.1 1.1h.2c.7-1.3 1.9-2 3.4-2 1.4 0 2.5.4 3.2 1.3.7.8 1.1 2.1 1.1 3.6v8.7z"/><path id="E" d="M222.6 422.3l-.6-1.8h-.1c-.5.8-1.1 1.3-1.7 1.6s-1.3.4-2.3.4a3.69 3.69 0 0 1-2.7-1.1c-.7-.7-1-1.8-1-3.1 0-1.4.4-2.5 1.3-3.1.9-.7 2.2-1 4-1.1l2.1-.1v-.6c0-1.4-.6-2-1.8-2-.9 0-2.1.3-3.3 1l-1.1-2.5c1.4-.8 2.9-1.2 4.5-1.2s2.8.4 3.7 1.2c.8.8 1.3 2 1.3 3.6v8.9h-2.3zm-.9-6.2h-1.3c-.9 0-1.6.2-2.1.6s-.7.9-.7 1.6c0 1 .5 1.5 1.6 1.5.8 0 1.4-.2 1.8-.7.5-.5.7-1.1.7-1.9v-1.1z"/><path id="F" d="M264.1 419.6c.6 0 1.2-.1 2-.4v2.7c-.8.4-1.8.6-3 .6-1.3 0-2.2-.4-2.8-1.1s-.9-1.8-.9-3.3v-6.4h-1.6v-1.5l1.8-1.2.9-2.8h2.1v2.8h3.3v2.7h-3.3v6.4c0 .5.1.9.4 1.1.3.3.7.4 1.1.4z"/><path id="G" d="M279.3 415.6c0 2.2-.5 3.9-1.5 5.1s-2.4 1.8-4.3 1.8c-1.1 0-2.1-.3-3-.8-.9-.6-1.5-1.4-2-2.4-.5-1.1-.7-2.3-.7-3.7 0-2.2.5-3.9 1.5-5.1s2.4-1.8 4.3-1.8c1.1 0 2.1.3 3 .8.9.6 1.5 1.4 2 2.4.5 1.1.7 2.3.7 3.7zm-8.2 0c0 1.3.2 2.3.6 3s1 1 1.9 1 1.5-.3 1.9-1 .6-1.7.6-3-.2-2.3-.6-3-1-1-1.9-1-1.5.3-1.9 1-.6 1.7-.6 3z"/><path id="H" d="M165.7 463.3c-1.9 0-3.4-.6-4.5-1.8s-1.6-2.9-1.6-5c0-2.2.5-4 1.5-5.2s2.4-1.8 4.1-1.8 3 .5 3.9 1.6 1.4 2.6 1.4 4.5v1.8h-7.7c0 1 .3 1.8.8 2.4s1.2.9 2.1.9c.7 0 1.4-.1 2-.3s1.3-.4 2-.8v2.8c-.6.3-1.2.6-1.8.7-.5.1-1.3.2-2.2.2zm-.5-11.3c-.7 0-1.2.2-1.6.7s-.6 1.2-.7 2.1h4.5c0-.9-.2-1.6-.6-2.1-.3-.4-.9-.7-1.6-.7z"/><path id="I" d="M180.7 463l-.6-1.8h-.1c-.5.8-1.1 1.3-1.7 1.6s-1.3.4-2.3.4a3.69 3.69 0 0 1-2.7-1.1c-.7-.7-1-1.8-1-3.1 0-1.4.4-2.5 1.3-3.1.9-.7 2.2-1 4-1.1l2.1-.1v-.6c0-1.4-.6-2-1.8-2-.9 0-2.1.3-3.3 1l-1.1-2.5c1.4-.8 2.9-1.2 4.5-1.2s2.8.4 3.7 1.2c.8.8 1.3 2 1.3 3.6v8.9h-2.3zm-.9-6.1h-1.3c-.9 0-1.6.2-2.1.6s-.7.9-.7 1.6c0 1 .5 1.5 1.6 1.5.8 0 1.4-.2 1.8-.7.5-.5.7-1.1.7-1.9v-1.1z"/><path id="J" d="M192.9 449.4c.4 0 .8 0 1.1.1l-.2 3.4c-.3-.1-.6-.1-1-.1-1 0-1.8.3-2.4.9s-.9 1.4-.9 2.5v6.8h-3.2v-13.3h2.5l.5 2.2h.2c.4-.7.9-1.4 1.5-1.8.5-.4 1.2-.7 1.9-.7z"/><path id="K" d="M224.4 459.1c0 1.4-.4 2.4-1.3 3.1-.8.7-2.1 1.1-3.8 1.1-.9 0-1.6-.1-2.2-.2s-1.2-.3-1.7-.6v-3c.6.3 1.3.6 2 .8.8.2 1.4.3 2 .3 1.2 0 1.8-.4 1.8-1.1 0-.3-.1-.5-.2-.7a2.76 2.76 0 0 0-.8-.6l-1.5-.8c-.9-.4-1.6-.8-2-1.2s-.7-.8-.9-1.3-.3-1.1-.3-1.7c0-1.2.4-2.1 1.2-2.8.8-.6 2-1 3.5-1 1.4 0 2.8.4 4.2 1.1l-1 2.6c-.6-.3-1.2-.5-1.7-.7s-1-.3-1.6-.3c-1 0-1.4.3-1.4.9 0 .3.2.6.5.8s1 .6 2 1.1c.9.4 1.6.8 2 1.2s.8.8 1 1.3a7.18 7.18 0 0 1 .2 1.7z"/><path id="L" d="M260.9 463.3c-1.4 0-2.5-.6-3.3-1.7h-.2l.2 1.9v5.4h-3.2v-19.2h2.6l.5 1.7h.1c.8-1.3 1.9-2 3.4-2 1.4 0 2.5.6 3.3 1.8s1.2 2.9 1.2 5.1c0 1.4-.2 2.7-.6 3.7-.4 1.1-.9 1.9-1.6 2.4-.6.6-1.5.9-2.4.9zm-.9-10.9c-.8 0-1.4.3-1.8.8-.4.6-.6 1.5-.6 2.7v.4c0 1.4.2 2.5.6 3.1s1 .9 1.8.9c1.5 0 2.2-1.3 2.2-4 0-1.3-.2-2.3-.5-3-.4-.6-1-.9-1.7-.9z"/><path id="M" d="M305.7 449.7h3.5l2.2 7.5c.2.7.3 1.4.4 2.3h.1c.1-.8.2-1.6.5-2.3l2.2-7.5h3.5l-5 15.1c-.5 1.4-1.1 2.4-2 3.1s-1.8 1-3 1c-.6 0-1.1-.1-1.6-.2v-2.9c.4.1.8.2 1.3.2.6 0 1.1-.2 1.5-.6s.8-1 1-1.8l.2-.7-4.8-13.2z"/><path id="N" d="M409.4 463h-3.2v-7.8c0-1-.2-1.7-.5-2.2s-.8-.7-1.5-.7c-.9 0-1.6.3-2 1s-.6 1.8-.6 3.4v6.3h-3.2v-13.3h2.5l.4 1.7h.2c.4-.6.9-1.1 1.5-1.5.6-.3 1.4-.5 2.2-.5 1.4 0 2.4.4 3.1 1.3.7.8 1.1 2.1 1.1 3.6v8.7z"/><path id="O" d="M440.5 459.1c0 1.4-.4 2.4-1.3 3.1-.8.7-2.1 1.1-3.8 1.1-.9 0-1.6-.1-2.2-.2s-1.2-.3-1.7-.6v-3c.6.3 1.3.6 2 .8.8.2 1.4.3 2 .3 1.2 0 1.8-.4 1.8-1.1 0-.3-.1-.5-.2-.7-.2-.2-.4-.4-.8-.6l-1.5-.8c-.9-.4-1.6-.8-2-1.2s-.7-.8-.9-1.3-.3-1.1-.3-1.7c0-1.2.4-2.1 1.2-2.8.8-.6 2-1 3.5-1 1.4 0 2.8.4 4.2 1.1l-1 2.6c-.6-.3-1.2-.5-1.7-.7s-1-.3-1.6-.3c-1 0-1.4.3-1.4.9 0 .3.2.6.5.8s1 .6 2 1.1c.9.4 1.6.8 2 1.2s.8.8 1 1.3a7.18 7.18 0 0 1 .2 1.7z"/><path id="P" d="M477 463.3c-1.4 0-2.5-.6-3.3-1.7h-.2l.2 1.9v5.4h-3.2v-19.2h2.6l.5 1.7h.1c.8-1.3 1.9-2 3.4-2 1.4 0 2.5.6 3.3 1.8s1.2 2.9 1.2 5.1c0 1.4-.2 2.7-.6 3.7-.4 1.1-.9 1.9-1.6 2.4-.7.6-1.5.9-2.4.9zm-1-10.9c-.8 0-1.4.3-1.8.8-.4.6-.6 1.5-.6 2.7v.4c0 1.4.2 2.5.6 3.1s1 .9 1.8.9c1.5 0 2.2-1.3 2.2-4 0-1.3-.2-2.3-.5-3-.4-.6-.9-.9-1.7-.9z"/><path id="Q" d="M158.5 504c-3.7 0-5.5-2.3-5.5-6.8 0-2.3.5-4 1.5-5.2s2.4-1.8 4.3-1.8c1.4 0 2.6.3 3.7.9l-1 2.8-1.4-.6c-.4-.1-.9-.2-1.3-.2-1.7 0-2.5 1.3-2.5 4 0 2.6.8 3.9 2.5 3.9.6 0 1.2-.1 1.7-.3s1.1-.5 1.6-.9v3.1c-.5.4-1.1.6-1.6.8s-1.2.3-2 .3z"/><path id="R" d="M171.5 490.2c.4 0 .8 0 1.1.1l-.2 3.4c-.3-.1-.6-.1-1-.1-1 0-1.8.3-2.4.9s-.9 1.4-.9 2.5v6.8h-3.2v-13.3h2.5l.5 2.2h.2c.4-.7.9-1.4 1.5-1.8.5-.5 1.2-.7 1.9-.7z"/><path id="S" d="M180.1 504c-1.9 0-3.4-.6-4.5-1.8s-1.6-2.9-1.6-5c0-2.2.5-4 1.5-5.2s2.4-1.8 4.1-1.8 3 .5 3.9 1.6 1.4 2.6 1.4 4.5v1.8h-7.7c0 1 .3 1.8.8 2.4s1.2.9 2.1.9c.7 0 1.4-.1 2-.3s1.3-.4 2-.8v2.8c-.6.3-1.2.6-1.8.7-.5.1-1.3.2-2.2.2zm-.4-11.2c-.7 0-1.2.2-1.6.7s-.6 1.2-.7 2.1h4.5c0-.9-.2-1.6-.6-2.1s-1-.7-1.6-.7z"/><path id="T" d="M205.7 501.1c.6 0 1.2-.1 2-.4v2.7c-.8.4-1.8.6-3 .6-1.3 0-2.2-.4-2.8-1.1s-.9-1.8-.9-3.3v-6.4h-1.6v-1.5l1.8-1.2.9-2.8h2.1v2.8h3.3v2.7h-3.3v6.4c0 .5.1.9.4 1.1.4.3.7.4 1.1.4z"/><path id="U" d="M215.6 504c-1.9 0-3.4-.6-4.5-1.8s-1.6-2.9-1.6-5c0-2.2.5-4 1.5-5.2s2.4-1.8 4.1-1.8 3 .5 3.9 1.6 1.4 2.6 1.4 4.5v1.8h-7.7c0 1 .3 1.8.8 2.4s1.2.9 2.1.9c.7 0 1.4-.1 2-.3s1.3-.4 2-.8v2.8c-.6.3-1.2.6-1.8.7-.5.1-1.3.2-2.2.2zm-.5-11.2c-.7 0-1.2.2-1.6.7s-.6 1.2-.7 2.1h4.5c0-.9-.2-1.6-.6-2.1s-.9-.7-1.6-.7z"/><path id="V" d="M354.6 499.8c0 1.4-.4 2.4-1.3 3.1-.8.7-2.1 1.1-3.8 1.1-.9 0-1.6-.1-2.2-.2s-1.2-.3-1.7-.6v-3c.6.3 1.3.6 2 .8.8.2 1.4.3 2 .3 1.2 0 1.8-.4 1.8-1.1 0-.3-.1-.5-.2-.7-.2-.2-.4-.4-.8-.6l-1.5-.8c-.9-.4-1.6-.8-2-1.2s-.7-.8-.9-1.3-.3-1.1-.3-1.7c0-1.2.4-2.1 1.2-2.8.8-.6 2-1 3.5-1 1.4 0 2.8.4 4.2 1.1l-1 2.6c-.6-.3-1.2-.5-1.7-.7s-1-.3-1.6-.3c-1 0-1.4.3-1.4.9 0 .3.2.6.5.8s1 .6 2 1.1c.9.4 1.6.8 2 1.2s.8.8 1 1.3c.1.5.2 1.1.2 1.7z"/><path id="W" d="M385.4 497.1c0 2.2-.5 3.9-1.5 5.1s-2.4 1.8-4.3 1.8c-1.1 0-2.1-.3-3-.8-.9-.6-1.5-1.4-2-2.4-.5-1.1-.7-2.3-.7-3.7 0-2.2.5-3.9 1.5-5.1s2.4-1.8 4.3-1.8c1.1 0 2.1.3 3 .8.9.6 1.5 1.4 2 2.4.4 1.1.7 2.3.7 3.7zm-8.2 0c0 1.3.2 2.3.6 3s1 1 1.9 1 1.5-.3 1.9-1 .6-1.7.6-3-.2-2.3-.6-3-1-1-1.9-1-1.5.3-1.9 1c-.5.7-.6 1.7-.6 3z"/><path id="X" d="M437.3 487c0-1.2.6-1.8 1.8-1.8s1.8.6 1.8 1.8c0 .6-.1 1-.4 1.3s-.7.5-1.3.5c-1.3 0-1.9-.6-1.9-1.8zm3.4 16.8h-3.2v-13.3h3.2v13.3z"/><path id="Y" d="M449.1 501.1c.6 0 1.2-.1 2-.4v2.7c-.8.4-1.8.6-3 .6-1.3 0-2.2-.4-2.8-1.1s-.9-1.8-.9-3.3v-6.4h-1.6v-1.5l1.8-1.2.9-2.8h2.1v2.8h3.3v2.7h-3.3v6.4c0 .5.1.9.4 1.1.3.3.6.4 1.1.4z"/><path id="Z" d="M481.8 499.8c0 1.4-.4 2.4-1.3 3.1-.8.7-2.1 1.1-3.8 1.1-.9 0-1.6-.1-2.2-.2s-1.2-.3-1.7-.6v-3c.6.3 1.3.6 2 .8.8.2 1.4.3 2 .3 1.2 0 1.8-.4 1.8-1.1 0-.3-.1-.5-.2-.7-.2-.2-.4-.4-.8-.6l-1.5-.8c-.9-.4-1.6-.8-2-1.2s-.7-.8-.9-1.3-.3-1.1-.3-1.7c0-1.2.4-2.1 1.2-2.8.8-.6 2-1 3.5-1 1.4 0 2.8.4 4.2 1.1l-1 2.6c-.6-.3-1.2-.5-1.7-.7s-1-.3-1.6-.3c-1 0-1.4.3-1.4.9 0 .3.2.6.5.8s1 .6 2 1.1c.9.4 1.6.8 2 1.2s.8.8 1 1.3c0 .5.2 1.1.2 1.7z"/><path id="a" d="M541.5 496.5l1.4-2 3.3-4.1h3.7l-4.7 5.8 5 7.6h-3.7l-3.4-5.4-1.4 1.3v4.2h-3.2v-18.6h3.2v8.3l-.2 2.9h0z"/><path id="b" d="M208.5 544.8c-1.9 0-3.4-.6-4.5-1.8s-1.6-2.9-1.6-5c0-2.2.5-4 1.5-5.2s2.4-1.8 4.1-1.8 3 .5 3.9 1.6 1.4 2.6 1.4 4.5v1.8h-7.7c0 1 .3 1.8.8 2.4s1.2.9 2.1.9c.7 0 1.4-.1 2-.3s1.3-.4 2-.8v2.8c-.6.3-1.2.6-1.8.7-.5.1-1.3.2-2.2.2zm-.5-11.3c-.7 0-1.2.2-1.6.7s-.6 1.2-.7 2.1h4.5c0-.9-.2-1.6-.6-2.1-.4-.4-.9-.7-1.6-.7z"/><path id="c" d="M175.7 578.6c0 2.2-.5 3.9-1.5 5.1s-2.4 1.8-4.3 1.8c-1.1 0-2.1-.3-3-.8-.9-.6-1.5-1.4-2-2.4-.5-1.1-.7-2.3-.7-3.7 0-2.2.5-3.9 1.5-5.1s2.4-1.8 4.3-1.8c1.1 0 2.1.3 3 .8.9.6 1.5 1.4 2 2.4a10.16 10.16 0 0 1 .7 3.7zm-8.3 0c0 1.3.2 2.3.6 3s1 1 1.9 1 1.5-.3 1.9-1 .6-1.7.6-3-.2-2.3-.6-3-1-1-1.9-1-1.5.3-1.9 1c-.4.6-.6 1.6-.6 3z"/><path id="d" d="M189.3 585.3h-3.2v-7.8c0-1-.2-1.7-.5-2.2s-.8-.7-1.5-.7c-.9 0-1.6.3-2 1s-.6 1.8-.6 3.4v6.3h-3.2V572h2.5l.4 1.7h.2c.4-.6.9-1.1 1.5-1.5.6-.3 1.4-.5 2.2-.5 1.4 0 2.4.4 3.1 1.3.7.8 1.1 2.1 1.1 3.6v8.7z"/><path id="e" d="M265.7 571.9h3.5l2.2 7.5c.2.7.3 1.4.4 2.3h.1c.1-.8.2-1.6.5-2.3l2.2-7.5h3.5l-5 15.1c-.5 1.4-1.1 2.4-2 3.1s-1.8 1-3 1c-.6 0-1.1-.1-1.6-.2V588c.4.1.8.2 1.3.2.6 0 1.1-.2 1.5-.6s.8-1 1-1.8l.2-.7-4.8-13.2z"/><path id="f" d="M306.8 585.3l-.6-1.8h-.1c-.5.8-1.1 1.3-1.7 1.6s-1.3.4-2.3.4a3.69 3.69 0 0 1-2.7-1.1c-.7-.7-1-1.8-1-3.1 0-1.4.4-2.5 1.3-3.1.9-.7 2.2-1 4-1.1l2.1-.1v-.6c0-1.4-.6-2-1.8-2-.9 0-2.1.3-3.3 1l-1.1-2.5c1.4-.8 2.9-1.2 4.5-1.2s2.8.4 3.7 1.2c.8.8 1.3 2 1.3 3.6v8.9h-2.3zm-1-6.2h-1.3c-.9 0-1.6.2-2.1.6s-.7.9-.7 1.6c0 1 .5 1.5 1.6 1.5.8 0 1.4-.2 1.8-.7.5-.5.7-1.1.7-1.9v-1.1z"/><path id="g" d="M326.6 585.5c-3.7 0-5.5-2.3-5.5-6.8 0-2.3.5-4 1.5-5.2s2.4-1.8 4.3-1.8c1.4 0 2.6.3 3.7.9l-1 2.8-1.4-.6c-.4-.1-.9-.2-1.3-.2-1.7 0-2.5 1.3-2.5 4 0 2.6.8 3.9 2.5 3.9.6 0 1.2-.1 1.7-.3s1.1-.5 1.6-.9v3.1c-.5.4-1.1.6-1.6.8s-1.1.3-2 .3z"/><path id="h" d="M373.2 578.6c0 2.2-.5 3.9-1.5 5.1s-2.4 1.8-4.3 1.8c-1.1 0-2.1-.3-3-.8-.9-.6-1.5-1.4-2-2.4-.5-1.1-.7-2.3-.7-3.7 0-2.2.5-3.9 1.5-5.1s2.4-1.8 4.3-1.8c1.1 0 2.1.3 3 .8.9.6 1.5 1.4 2 2.4s.7 2.3.7 3.7zm-8.2 0c0 1.3.2 2.3.6 3s1 1 1.9 1 1.5-.3 1.9-1 .6-1.7.6-3-.2-2.3-.6-3-1-1-1.9-1-1.5.3-1.9 1c-.4.6-.6 1.6-.6 3z"/><path id="i" d="M445.5 581.3c0 1.4-.4 2.4-1.3 3.1-.8.7-2.1 1.1-3.8 1.1-.9 0-1.6-.1-2.2-.2s-1.2-.3-1.7-.6v-3c.6.3 1.3.6 2 .8.8.2 1.4.3 2 .3 1.2 0 1.8-.4 1.8-1.1 0-.3-.1-.5-.2-.7a2.76 2.76 0 0 0-.8-.6l-1.5-.8c-.9-.4-1.6-.8-2-1.2s-.7-.8-.9-1.3-.3-1.1-.3-1.7c0-1.2.4-2.1 1.2-2.8.8-.6 2-1 3.5-1 1.4 0 2.8.4 4.2 1.1l-1 2.6c-.6-.3-1.2-.5-1.7-.7s-1-.3-1.6-.3c-1 0-1.4.3-1.4.9 0 .3.2.6.5.8s1 .6 2 1.1c.9.4 1.6.8 2 1.2s.8.8 1 1.3c.1.5.2 1 .2 1.7z"/><path id="j" d="M129.1 443.4a9.82 9.82 0 0 1 9.8 9.8 9.82 9.82 0 0 1-9.8 9.8 9.82 9.82 0 0 1-9.8-9.8 9.82 9.82 0 0 1 9.8-9.8zm-1.1 5.7l3 2.9h-7.2c-.5 0-.9.4-.9.9v.6c0 .5.4.9.9.9h7.2l-3 2.9c-.4.4-.4 1 0 1.4l.4.4c.4.4 1 .4 1.3 0l5.2-5.2c.4-.4.4-1 0-1.3l-5.2-5.2c-.4-.4-1-.4-1.3 0l-.4.4c-.4.3-.4 1 0 1.3z"/><path id="k" d="M129.1 527.2a9.82 9.82 0 0 1 9.8 9.8 9.82 9.82 0 0 1-9.8 9.8 9.82 9.82 0 0 1-9.8-9.8 9.82 9.82 0 0 1 9.8-9.8zm-1.1 5.7l3 2.9h-7.2c-.5 0-.9.4-.9.9v.6c0 .5.4.9.9.9h7.2l-3 2.9c-.4.4-.4 1 0 1.4l.4.4c.4.4 1 .4 1.3 0l5.2-5.2c.4-.4.4-1 0-1.3l-5.2-5.2c-.4-.4-1-.4-1.3 0l-.4.4c-.4.3-.4.9 0 1.3z"/><path id="l" d="M107.9 94.7l-.7-2.1h-.1c-.6.9-1.3 1.5-1.9 1.8s-1.5.5-2.6.5c-1.3 0-2.3-.4-3.1-1.3-.8-.8-1.1-2-1.1-3.6s.5-2.8 1.5-3.6 2.5-1.2 4.6-1.3l2.4-.1v-.7c0-1.5-.7-2.3-2.1-2.3-1.1 0-2.4.4-3.8 1.1l-1.2-2.8c1.6-.9 3.3-1.4 5.2-1.4 1.8 0 3.2.4 4.2 1.3s1.5 2.3 1.5 4.1v10.2h-2.8zm-1.1-7.1l-1.4.1c-1.1 0-1.9.3-2.4.7s-.8 1-.8 1.8c0 1.2.6 1.8 1.8 1.8.9 0 1.5-.3 2.1-.8.5-.6.8-1.3.8-2.2v-1.4z"/><path id="m" d="M260.8 95c-2.2 0-3.9-.7-5.1-2-1.2-1.4-1.8-3.3-1.8-5.8 0-2.6.6-4.5 1.7-5.9s2.7-2.1 4.7-2.1c1.9 0 3.4.6 4.5 1.8s1.6 2.9 1.6 5.1v2h-8.8a4.67 4.67 0 0 0 .9 2.8c.6.7 1.4 1 2.5 1 .8 0 1.6-.1 2.3-.3s1.5-.5 2.3-.9v3.2c-.6.4-1.3.6-2.1.8-.7.2-1.6.3-2.7.3zm-.5-12.9c-.8 0-1.4.3-1.8.8s-.7 1.4-.8 2.4h5.2c0-1-.3-1.8-.7-2.4-.5-.5-1.1-.8-1.9-.8z"/><path id="n" d="M335.1 90.2c0 1.6-.5 2.8-1.5 3.6s-2.4 1.2-4.3 1.2c-1 0-1.8-.1-2.5-.2s-1.4-.4-2-.7v-3.4c.7.4 1.5.7 2.3.9.9.2 1.6.4 2.3.4 1.3 0 2-.4 2-1.3 0-.3-.1-.6-.3-.8s-.5-.4-.9-.7-1-.6-1.8-.9c-1-.5-1.8-.9-2.3-1.4-.5-.4-.8-.9-1.1-1.4-.2-.5-.3-1.2-.3-2 0-1.4.5-2.4 1.4-3.2.9-.7 2.3-1.1 4-1.1 1.6 0 3.2.4 4.8 1.2l-1.1 3-1.9-.8c-.6-.2-1.2-.3-1.8-.3-1.1 0-1.6.3-1.6 1 0 .4.2.7.5 1 .4.3 1.1.7 2.3 1.2 1.1.5 1.8.9 2.3 1.4.5.4.9.9 1.1 1.4s.4 1.1.4 1.9z"/><path id="o" d="M107 154.1h6.2v9c-1 .4-1.9.6-2.8.8l-2.7.2c-2.3 0-4.1-.8-5.4-2.3-1.2-1.5-1.9-3.8-1.9-6.7 0-2.8.7-5 2.2-6.6 1.4-1.6 3.4-2.4 6-2.4 1.6 0 3.1.4 4.6 1.1l-1.1 3c-1.1-.6-2.3-1-3.5-1-1.4 0-2.6.5-3.4 1.6-.9 1.1-1.3 2.5-1.3 4.3 0 1.9.3 3.3 1 4.3s1.7 1.5 3 1.5c.7 0 1.4-.1 2.1-.2v-3.6h-3v-3z"/><path id="p" d="M412.8 162.2c0-.7.2-1.2.5-1.5s.8-.5 1.4-.5 1 .2 1.4.5c.3.4.5.9.5 1.5s-.2 1.1-.5 1.5-.8.5-1.4.5-1.1-.2-1.4-.5-.5-.8-.5-1.5z"/><path id="q" d="M123.4 204.7h-3.2v-7.8c0-1-.1-1.7-.4-2.2s-.7-.7-1.4-.7c-.8 0-1.4.3-1.8 1s-.6 1.8-.6 3.4v6.3h-3.2v-13.3h2.5l.4 1.7h.2a3.16 3.16 0 0 1 1.4-1.4 4.65 4.65 0 0 1 2.1-.5c1.8 0 3 .7 3.6 2h.3a3.16 3.16 0 0 1 1.4-1.4 4.65 4.65 0 0 1 2.1-.5c1.3 0 2.4.4 3.1 1.2s1 2 1 3.7v8.7h-3.3v-7.8c0-1-.1-1.7-.4-2.2s-.7-.7-1.4-.7c-.8 0-1.4.3-1.8 1-.4.6-.6 1.6-.6 3v6.5z"/><path id="r" d="M385.9 203c0-.7.2-1.2.5-1.5s.8-.5 1.4-.5 1 .2 1.4.5c.3.4.5.9.5 1.5s-.2 1.1-.5 1.5-.8.5-1.4.5-1.1-.2-1.4-.5c-.4-.4-.5-.9-.5-1.5z"/><path id="s" d="M126 245.4l-4.5-13.3h3.4l2.3 7.6c.3 1 .4 1.9.5 2.7h.1c0-.8.2-1.7.5-2.7l2.3-7.6h3.4l-4.5 13.3H126z"/><path id="t" d="M206.8 283.5c.6 0 1.2-.1 2-.4v2.7c-.8.4-1.8.6-3 .6-1.3 0-2.2-.4-2.8-1.1s-.9-1.8-.9-3.3v-6.4h-1.6V274l1.8-1.2.9-2.8h2.1v2.8h3.3v2.7h-3.3v6.4c0 .5.1.9.4 1.1.3.4.7.5 1.1.5z"/><path id="u" d="M80.6 144.6c-5.9 0-10.6 4.8-10.6 10.6s4.8 10.6 10.6 10.6 10.6-4.8 10.6-10.6-4.8-10.6-10.6-10.6zm6 8.4l-7.4 7.3c-.2.2-.5.2-.7 0l-3.9-3.9c-.2-.2-.2-.5 0-.7l1-1c.2-.2.5-.2.7 0l2.6 2.6 6.1-6c.2-.2.5-.2.7 0l1 1c.1.2.1.5-.1.7z"/><path id="v" d="M86.6 153l-7.4 7.3c-.2.2-.5.2-.7 0l-3.9-3.9c-.2-.2-.2-.5 0-.7l1-1c.2-.2.5-.2.7 0l2.6 2.6 6.1-6c.2-.2.5-.2.7 0l1 1c.1.2.1.5-.1.7z"/></defs></svg>