<?xml version="1.0" encoding="utf-8"?>
<!-- Generator: Adobe Illustrator 25.4.1, SVG Export Plug-In . SVG Version: 6.00 Build 0)  -->
<svg version="1.1" id="Layer_1" xmlns="http://www.w3.org/2000/svg" xmlns:xlink="http://www.w3.org/1999/xlink" x="0px" y="0px"
	 viewBox="0 0 627 837.4" style="enable-background:new 0 0 627 837.4;" xml:space="preserve">
<style type="text/css">
	.st0{fill:#3367DB;}
	.st1{fill:#303089;}
	.st2{fill:#5791F7;}
	.st3{fill:#8B2CAF;}
	.st4{fill:#C371EA;}
</style>
<g>
	<path class="st0" d="M106.9,837.4h-4.3c-46.2,0-83.7-37.5-83.7-83.7V295.5c0-46.2,37.5-83.7,83.7-83.7h4.3
		c46.2,0,83.7,37.5,83.7,83.7v458.2C190.5,799.9,153.1,837.4,106.9,837.4z"/>
	<g>
		
			<image style="overflow:visible;opacity:0.24;" width="800" height="1010" xlink:href="FDF8FA6F.png"  transform="matrix(1 0 0 1 -86.3676 -86.1636)">
		</image>
		<g>
			<path class="st1" d="M554.5,837.4h-435c-40,0-68.5-32.4-68.5-68.9c0,0,0-392.9,0-427.3S0,306.4,0,276c0-30.4,0-210,0-210
				C0,29.6,32.5,0,72.5,0h482c40,0,72.5,29.6,72.5,66.1v705.3C627,807.8,594.5,837.4,554.5,837.4z"/>
		</g>
	</g>
</g>
<g>
	<g>
		<path class="st2" d="M130.8,422.3l-1.1-4.2H124l-1.1,4.2h-3.5l5.5-17.5h4l5.5,17.5H130.8z M128.9,415c-1-3.8-1.6-5.9-1.8-6.4
			c-0.1-0.5-0.2-0.9-0.3-1.2c-0.2,1-0.9,3.5-2,7.6H128.9z"/>
		<path class="st2" d="M139.3,422.3h-3.2v-18.6h3.2V422.3z"/>
		<path class="st2" d="M145.9,422.3h-3.2v-18.6h3.2V422.3z"/>
		<path class="st2" d="M153.3,408.9h3.5l2.2,7.5c0.2,0.7,0.3,1.4,0.4,2.3h0.1c0.1-0.8,0.2-1.6,0.5-2.3l2.2-7.5h3.5l-5,15.1
			c-0.5,1.4-1.1,2.4-2,3.1c-0.9,0.7-1.8,1-3,1c-0.6,0-1.1-0.1-1.6-0.2v-2.9c0.4,0.1,0.8,0.2,1.3,0.2c0.6,0,1.1-0.2,1.5-0.6
			c0.4-0.4,0.8-1,1-1.8l0.2-0.7L153.3,408.9z"/>
		<path class="st2" d="M178.2,415.6c0,2.2-0.5,3.9-1.5,5.1c-1,1.2-2.4,1.8-4.3,1.8c-1.1,0-2.1-0.3-3-0.8c-0.9-0.6-1.5-1.4-2-2.4
			c-0.5-1.1-0.7-2.3-0.7-3.7c0-2.2,0.5-3.9,1.5-5.1c1-1.2,2.4-1.8,4.3-1.8c1.1,0,2.1,0.3,3,0.8c0.9,0.6,1.5,1.4,2,2.4
			C177.9,413,178.2,414.2,178.2,415.6z M169.9,415.6c0,1.3,0.2,2.3,0.6,3c0.4,0.7,1,1,1.9,1c0.9,0,1.5-0.3,1.9-1
			c0.4-0.7,0.6-1.7,0.6-3c0-1.3-0.2-2.3-0.6-3c-0.4-0.7-1-1-1.9-1c-0.9,0-1.5,0.3-1.9,1C170.1,413.3,169.9,414.3,169.9,415.6z"/>
		<path class="st2" d="M189.2,422.3l-0.4-1.7h-0.2c-0.3,0.6-0.8,1.1-1.5,1.4c-0.6,0.3-1.4,0.5-2.2,0.5c-1.4,0-2.4-0.4-3.2-1.3
			c-0.7-0.8-1.1-2-1.1-3.6v-8.7h3.2v7.8c0,1,0.2,1.7,0.5,2.2c0.3,0.5,0.8,0.7,1.5,0.7c0.9,0,1.6-0.3,2-1c0.4-0.7,0.6-1.8,0.6-3.4
			v-6.3h3.2v13.3H189.2z"/>
		<path class="st2" d="M211.7,422.3h-3.2v-7.8c0-1.9-0.6-2.9-1.9-2.9c-0.9,0-1.6,0.3-2,1c-0.4,0.7-0.6,1.8-0.6,3.4v6.3h-3.2v-18.6
			h3.2v3.8c0,0.3,0,1-0.1,2.1l-0.1,1.1h0.2c0.7-1.3,1.9-2,3.4-2c1.4,0,2.5,0.4,3.2,1.3c0.7,0.8,1.1,2.1,1.1,3.6V422.3z"/>
		<path class="st2" d="M222.6,422.3l-0.6-1.8h-0.1c-0.5,0.8-1.1,1.3-1.7,1.6c-0.6,0.3-1.3,0.4-2.3,0.4c-1.1,0-2-0.4-2.7-1.1
			c-0.7-0.7-1-1.8-1-3.1c0-1.4,0.4-2.5,1.3-3.1c0.9-0.7,2.2-1,4-1.1l2.1-0.1v-0.6c0-1.4-0.6-2-1.8-2c-0.9,0-2.1,0.3-3.3,1l-1.1-2.5
			c1.4-0.8,2.9-1.2,4.5-1.2c1.6,0,2.8,0.4,3.7,1.2c0.8,0.8,1.3,2,1.3,3.6v8.9H222.6z M221.7,416.1l-1.3,0c-0.9,0-1.6,0.2-2.1,0.6
			c-0.5,0.4-0.7,0.9-0.7,1.6c0,1,0.5,1.5,1.6,1.5c0.8,0,1.4-0.2,1.8-0.7c0.5-0.5,0.7-1.1,0.7-1.9V416.1z"/>
		<path class="st2" d="M231,422.3l-4.5-13.3h3.4l2.3,7.6c0.3,1,0.4,1.9,0.5,2.7h0.1c0-0.8,0.2-1.7,0.5-2.7l2.3-7.6h3.4l-4.5,13.3
			H231z"/>
		<path class="st2" d="M246,422.5c-1.9,0-3.4-0.6-4.5-1.8c-1.1-1.2-1.6-2.9-1.6-5c0-2.2,0.5-4,1.5-5.2c1-1.2,2.4-1.8,4.1-1.8
			c1.7,0,3,0.5,3.9,1.6c0.9,1.1,1.4,2.6,1.4,4.5v1.8h-7.7c0,1,0.3,1.8,0.8,2.4c0.5,0.6,1.2,0.9,2.1,0.9c0.7,0,1.4-0.1,2-0.3
			c0.6-0.2,1.3-0.4,2-0.8v2.8c-0.6,0.3-1.2,0.6-1.8,0.7C247.7,422.5,246.9,422.5,246,422.5z M245.5,411.3c-0.7,0-1.2,0.2-1.6,0.7
			c-0.4,0.5-0.6,1.2-0.7,2.1h4.5c0-0.9-0.2-1.6-0.6-2.1C246.7,411.5,246.2,411.3,245.5,411.3z"/>
		<path class="st2" d="M264.1,419.6c0.6,0,1.2-0.1,2-0.4v2.7c-0.8,0.4-1.8,0.6-3,0.6c-1.3,0-2.2-0.4-2.8-1.1
			c-0.6-0.7-0.9-1.8-0.9-3.3v-6.4h-1.6v-1.5l1.8-1.2l0.9-2.8h2.1v2.8h3.3v2.7h-3.3v6.4c0,0.5,0.1,0.9,0.4,1.1
			C263.3,419.5,263.7,419.6,264.1,419.6z"/>
		<path class="st2" d="M279.3,415.6c0,2.2-0.5,3.9-1.5,5.1c-1,1.2-2.4,1.8-4.3,1.8c-1.1,0-2.1-0.3-3-0.8c-0.9-0.6-1.5-1.4-2-2.4
			c-0.5-1.1-0.7-2.3-0.7-3.7c0-2.2,0.5-3.9,1.5-5.1c1-1.2,2.4-1.8,4.3-1.8c1.1,0,2.1,0.3,3,0.8c0.9,0.6,1.5,1.4,2,2.4
			C279.1,413,279.3,414.2,279.3,415.6z M271.1,415.6c0,1.3,0.2,2.3,0.6,3c0.4,0.7,1,1,1.9,1c0.9,0,1.5-0.3,1.9-1
			c0.4-0.7,0.6-1.7,0.6-3c0-1.3-0.2-2.3-0.6-3c-0.4-0.7-1-1-1.9-1c-0.9,0-1.5,0.3-1.9,1C271.3,413.3,271.1,414.3,271.1,415.6z"/>
		<path class="st2" d="M291.4,422.5c-1.4,0-2.5-0.6-3.3-1.8c-0.8-1.2-1.2-2.9-1.2-5.1c0-2.2,0.4-3.9,1.2-5.1
			c0.8-1.2,1.9-1.8,3.4-1.8c1.5,0,2.6,0.7,3.4,2h0.1c-0.2-1-0.2-1.9-0.2-2.7v-4.3h3.3v18.6h-2.5l-0.6-1.7h-0.1
			C294.1,421.9,292.9,422.5,291.4,422.5z M292.6,419.6c0.8,0,1.4-0.3,1.8-0.8c0.4-0.5,0.6-1.5,0.6-2.8v-0.4c0-1.4-0.2-2.5-0.6-3.1
			c-0.4-0.6-1-0.9-1.9-0.9c-0.7,0-1.3,0.3-1.7,1c-0.4,0.7-0.6,1.7-0.6,3s0.2,2.3,0.6,3C291.2,419.3,291.8,419.6,292.6,419.6z"/>
		<path class="st2" d="M312.2,415.6c0,2.2-0.5,3.9-1.5,5.1c-1,1.2-2.4,1.8-4.3,1.8c-1.1,0-2.1-0.3-3-0.8c-0.9-0.6-1.5-1.4-2-2.4
			c-0.5-1.1-0.7-2.3-0.7-3.7c0-2.2,0.5-3.9,1.5-5.1c1-1.2,2.4-1.8,4.3-1.8c1.1,0,2.1,0.3,3,0.8c0.9,0.6,1.5,1.4,2,2.4
			C312,413,312.2,414.2,312.2,415.6z M304,415.6c0,1.3,0.2,2.3,0.6,3c0.4,0.7,1,1,1.9,1c0.9,0,1.5-0.3,1.9-1c0.4-0.7,0.6-1.7,0.6-3
			c0-1.3-0.2-2.3-0.6-3c-0.4-0.7-1-1-1.9-1c-0.9,0-1.5,0.3-1.9,1C304.2,413.3,304,414.3,304,415.6z"/>
		<path class="st2" d="M320.4,405.5c0-1.2,0.6-1.8,1.8-1.8c1.2,0,1.8,0.6,1.8,1.8c0,0.6-0.1,1-0.4,1.3c-0.3,0.3-0.7,0.5-1.3,0.5
			C321,407.3,320.4,406.7,320.4,405.5z M323.8,422.3h-3.2v-13.3h3.2V422.3z"/>
		<path class="st2" d="M335.5,418.3c0,1.4-0.4,2.4-1.3,3.1c-0.8,0.7-2.1,1.1-3.8,1.1c-0.9,0-1.6-0.1-2.2-0.2
			c-0.6-0.1-1.2-0.3-1.7-0.6v-3c0.6,0.3,1.3,0.6,2,0.8c0.8,0.2,1.4,0.3,2,0.3c1.2,0,1.8-0.4,1.8-1.1c0-0.3-0.1-0.5-0.2-0.7
			c-0.2-0.2-0.4-0.4-0.8-0.6c-0.4-0.2-0.9-0.5-1.5-0.8c-0.9-0.4-1.6-0.8-2-1.2c-0.4-0.4-0.7-0.8-0.9-1.3c-0.2-0.5-0.3-1.1-0.3-1.7
			c0-1.2,0.4-2.1,1.2-2.8c0.8-0.6,2-1,3.5-1c1.4,0,2.8,0.4,4.2,1.1l-1,2.6c-0.6-0.3-1.2-0.5-1.7-0.7c-0.5-0.2-1-0.3-1.6-0.3
			c-1,0-1.4,0.3-1.4,0.9c0,0.3,0.2,0.6,0.5,0.8c0.3,0.2,1,0.6,2,1.1c0.9,0.4,1.6,0.8,2,1.2c0.4,0.4,0.8,0.8,1,1.3
			C335.4,417.1,335.5,417.7,335.5,418.3z"/>
		<path class="st2" d="M343.2,410.7c0-0.7,0.2-1.2,0.5-1.5c0.3-0.3,0.8-0.5,1.4-0.5c0.6,0,1,0.2,1.4,0.5c0.3,0.4,0.5,0.9,0.5,1.5
			c0,0.6-0.2,1.1-0.5,1.5c-0.3,0.4-0.8,0.5-1.4,0.5c-0.6,0-1.1-0.2-1.4-0.5C343.4,411.9,343.2,411.4,343.2,410.7z M343.2,420.6
			c0-0.7,0.2-1.2,0.5-1.5c0.3-0.3,0.8-0.5,1.4-0.5c0.6,0,1,0.2,1.4,0.5c0.3,0.4,0.5,0.9,0.5,1.5c0,0.6-0.2,1.1-0.5,1.5
			c-0.3,0.4-0.8,0.5-1.4,0.5c-0.6,0-1.1-0.2-1.4-0.5C343.4,421.7,343.2,421.2,343.2,420.6z"/>
		<path class="st0" d="M156.9,463h-3.2v-18.6h3.2V463z"/>
		<path class="st0" d="M165.7,463.3c-1.9,0-3.4-0.6-4.5-1.8c-1.1-1.2-1.6-2.9-1.6-5c0-2.2,0.5-4,1.5-5.2c1-1.2,2.4-1.8,4.1-1.8
			c1.7,0,3,0.5,3.9,1.6c0.9,1.1,1.4,2.6,1.4,4.5v1.8h-7.7c0,1,0.3,1.8,0.8,2.4c0.5,0.6,1.2,0.9,2.1,0.9c0.7,0,1.4-0.1,2-0.3
			c0.6-0.2,1.3-0.4,2-0.8v2.8c-0.6,0.3-1.2,0.6-1.8,0.7C167.4,463.2,166.6,463.3,165.7,463.3z M165.2,452c-0.7,0-1.2,0.2-1.6,0.7
			c-0.4,0.5-0.6,1.2-0.7,2.1h4.5c0-0.9-0.2-1.6-0.6-2.1C166.5,452.3,165.9,452,165.2,452z"/>
		<path class="st0" d="M180.7,463l-0.6-1.8H180c-0.5,0.8-1.1,1.3-1.7,1.6c-0.6,0.3-1.3,0.4-2.3,0.4c-1.1,0-2-0.4-2.7-1.1
			c-0.7-0.7-1-1.8-1-3.1c0-1.4,0.4-2.5,1.3-3.1c0.9-0.7,2.2-1,4-1.1l2.1-0.1v-0.6c0-1.4-0.6-2-1.8-2c-0.9,0-2.1,0.3-3.3,1l-1.1-2.5
			c1.4-0.8,2.9-1.2,4.5-1.2c1.6,0,2.8,0.4,3.7,1.2c0.8,0.8,1.3,2,1.3,3.6v8.9H180.7z M179.8,456.9l-1.3,0c-0.9,0-1.6,0.2-2.1,0.6
			c-0.5,0.4-0.7,0.9-0.7,1.6c0,1,0.5,1.5,1.6,1.5c0.8,0,1.4-0.2,1.8-0.7c0.5-0.5,0.7-1.1,0.7-1.9V456.9z"/>
		<path class="st0" d="M192.9,449.4c0.4,0,0.8,0,1.1,0.1l-0.2,3.4c-0.3-0.1-0.6-0.1-1-0.1c-1,0-1.8,0.3-2.4,0.9
			c-0.6,0.6-0.9,1.4-0.9,2.5v6.8h-3.2v-13.3h2.5l0.5,2.2h0.2c0.4-0.7,0.9-1.4,1.5-1.8C191.5,449.7,192.2,449.4,192.9,449.4z"/>
		<path class="st0" d="M207.2,463h-3.2v-7.8c0-1-0.2-1.7-0.5-2.2c-0.3-0.5-0.8-0.7-1.5-0.7c-0.9,0-1.6,0.3-2,1s-0.6,1.8-0.6,3.4v6.3
			h-3.2v-13.3h2.5l0.4,1.7h0.2c0.4-0.6,0.9-1.1,1.5-1.5c0.6-0.3,1.4-0.5,2.2-0.5c1.4,0,2.4,0.4,3.1,1.3c0.7,0.8,1.1,2.1,1.1,3.6V463
			z"/>
		<path class="st0" d="M224.4,459.1c0,1.4-0.4,2.4-1.3,3.1c-0.8,0.7-2.1,1.1-3.8,1.1c-0.9,0-1.6-0.1-2.2-0.2
			c-0.6-0.1-1.2-0.3-1.7-0.6v-3c0.6,0.3,1.3,0.6,2,0.8c0.8,0.2,1.4,0.3,2,0.3c1.2,0,1.8-0.4,1.8-1.1c0-0.3-0.1-0.5-0.2-0.7
			c-0.2-0.2-0.4-0.4-0.8-0.6c-0.4-0.2-0.9-0.5-1.5-0.8c-0.9-0.4-1.6-0.8-2-1.2c-0.4-0.4-0.7-0.8-0.9-1.3c-0.2-0.5-0.3-1.1-0.3-1.7
			c0-1.2,0.4-2.1,1.2-2.8c0.8-0.6,2-1,3.5-1c1.4,0,2.8,0.4,4.2,1.1l-1,2.6c-0.6-0.3-1.2-0.5-1.7-0.7c-0.5-0.2-1-0.3-1.6-0.3
			c-1,0-1.4,0.3-1.4,0.9c0,0.3,0.2,0.6,0.5,0.8c0.3,0.2,1,0.6,2,1.1c0.9,0.4,1.6,0.8,2,1.2c0.4,0.4,0.8,0.8,1,1.3
			C224.3,457.8,224.4,458.4,224.4,459.1z"/>
		<path class="st0" d="M237.9,463h-3.2v-7.8c0-1.9-0.6-2.9-1.9-2.9c-0.9,0-1.6,0.3-2,1c-0.4,0.7-0.6,1.8-0.6,3.4v6.3H227v-18.6h3.2
			v3.8c0,0.3,0,1-0.1,2.1l-0.1,1.1h0.2c0.7-1.3,1.9-2,3.4-2c1.4,0,2.5,0.4,3.2,1.3c0.7,0.8,1.1,2.1,1.1,3.6V463z"/>
		<path class="st0" d="M248.8,463l-0.6-1.8h-0.1c-0.5,0.8-1.1,1.3-1.7,1.6c-0.6,0.3-1.3,0.4-2.3,0.4c-1.1,0-2-0.4-2.7-1.1
			c-0.7-0.7-1-1.8-1-3.1c0-1.4,0.4-2.5,1.3-3.1s2.2-1,4-1.1l2.1-0.1v-0.6c0-1.4-0.6-2-1.8-2c-0.9,0-2.1,0.3-3.3,1l-1.1-2.5
			c1.4-0.8,2.9-1.2,4.5-1.2c1.6,0,2.8,0.4,3.7,1.2c0.8,0.8,1.3,2,1.3,3.6v8.9H248.8z M247.8,456.9l-1.3,0c-0.9,0-1.6,0.2-2.1,0.6
			c-0.5,0.4-0.7,0.9-0.7,1.6c0,1,0.5,1.5,1.6,1.5c0.8,0,1.4-0.2,1.8-0.7c0.5-0.5,0.7-1.1,0.7-1.9V456.9z"/>
		<path class="st0" d="M260.9,463.3c-1.4,0-2.5-0.6-3.3-1.7h-0.2c0.1,1.1,0.2,1.8,0.2,1.9v5.4h-3.2v-19.2h2.6l0.5,1.7h0.1
			c0.8-1.3,1.9-2,3.4-2c1.4,0,2.5,0.6,3.3,1.8c0.8,1.2,1.2,2.9,1.2,5.1c0,1.4-0.2,2.7-0.6,3.7c-0.4,1.1-0.9,1.9-1.6,2.4
			C262.7,463,261.8,463.3,260.9,463.3z M260,452.4c-0.8,0-1.4,0.3-1.8,0.8c-0.4,0.6-0.6,1.5-0.6,2.7v0.4c0,1.4,0.2,2.5,0.6,3.1
			c0.4,0.6,1,0.9,1.8,0.9c1.5,0,2.2-1.3,2.2-4c0-1.3-0.2-2.3-0.5-3C261.3,452.7,260.7,452.4,260,452.4z"/>
		<path class="st0" d="M273.5,463.3c-1.9,0-3.4-0.6-4.5-1.8c-1.1-1.2-1.6-2.9-1.6-5c0-2.2,0.5-4,1.5-5.2c1-1.2,2.4-1.8,4.1-1.8
			c1.7,0,3,0.5,3.9,1.6c0.9,1.1,1.4,2.6,1.4,4.5v1.8h-7.7c0,1,0.3,1.8,0.8,2.4c0.5,0.6,1.2,0.9,2.1,0.9c0.7,0,1.4-0.1,2-0.3
			c0.6-0.2,1.3-0.4,2-0.8v2.8c-0.6,0.3-1.2,0.6-1.8,0.7C275.3,463.2,274.5,463.3,273.5,463.3z M273.1,452c-0.7,0-1.2,0.2-1.6,0.7
			c-0.4,0.5-0.6,1.2-0.7,2.1h4.5c0-0.9-0.2-1.6-0.6-2.1C274.3,452.3,273.8,452,273.1,452z"/>
		<path class="st0" d="M284.1,455.8l1.4-2l3.3-4.1h3.7l-4.7,5.8l5,7.6h-3.7l-3.4-5.4l-1.4,1.3v4.2H281v-18.6h3.2v8.3L284.1,455.8
			L284.1,455.8z"/>
		<path class="st0" d="M299.9,463.3c-1.9,0-3.4-0.6-4.5-1.8c-1.1-1.2-1.6-2.9-1.6-5c0-2.2,0.5-4,1.5-5.2c1-1.2,2.4-1.8,4.1-1.8
			c1.7,0,3,0.5,3.9,1.6c0.9,1.1,1.4,2.6,1.4,4.5v1.8h-7.7c0,1,0.3,1.8,0.8,2.4c0.5,0.6,1.2,0.9,2.1,0.9c0.7,0,1.4-0.1,2-0.3
			c0.6-0.2,1.3-0.4,2-0.8v2.8c-0.6,0.3-1.2,0.6-1.8,0.7C301.6,463.2,300.8,463.3,299.9,463.3z M299.4,452c-0.7,0-1.2,0.2-1.6,0.7
			c-0.4,0.5-0.6,1.2-0.7,2.1h4.5c0-0.9-0.2-1.6-0.6-2.1C300.7,452.3,300.1,452,299.4,452z"/>
		<path class="st0" d="M305.7,449.7h3.5l2.2,7.5c0.2,0.7,0.3,1.4,0.4,2.3h0.1c0.1-0.8,0.2-1.6,0.5-2.3l2.2-7.5h3.5l-5,15.1
			c-0.5,1.4-1.1,2.4-2,3.1c-0.9,0.7-1.8,1-3,1c-0.6,0-1.1-0.1-1.6-0.2v-2.9c0.4,0.1,0.8,0.2,1.3,0.2c0.6,0,1.1-0.2,1.5-0.6
			c0.4-0.4,0.8-1,1-1.8l0.2-0.7L305.7,449.7z"/>
		<path class="st0" d="M328,459.1c0,1.4-0.4,2.4-1.3,3.1c-0.8,0.7-2.1,1.1-3.8,1.1c-0.9,0-1.6-0.1-2.2-0.2c-0.6-0.1-1.2-0.3-1.7-0.6
			v-3c0.6,0.3,1.3,0.6,2,0.8c0.8,0.2,1.4,0.3,2,0.3c1.2,0,1.8-0.4,1.8-1.1c0-0.3-0.1-0.5-0.2-0.7c-0.2-0.2-0.4-0.4-0.8-0.6
			c-0.4-0.2-0.9-0.5-1.5-0.8c-0.9-0.4-1.6-0.8-2-1.2c-0.4-0.4-0.7-0.8-0.9-1.3c-0.2-0.5-0.3-1.1-0.3-1.7c0-1.2,0.4-2.1,1.2-2.8
			c0.8-0.6,2-1,3.5-1c1.4,0,2.8,0.4,4.2,1.1l-1,2.6c-0.6-0.3-1.2-0.5-1.7-0.7c-0.5-0.2-1-0.3-1.6-0.3c-1,0-1.4,0.3-1.4,0.9
			c0,0.3,0.2,0.6,0.5,0.8c0.3,0.2,1,0.6,2,1.1c0.9,0.4,1.6,0.8,2,1.2c0.4,0.4,0.8,0.8,1,1.3C327.9,457.8,328,458.4,328,459.1z"/>
		<path class="st0" d="M347,456.3c0,2.2-0.5,3.9-1.5,5.1c-1,1.2-2.4,1.8-4.3,1.8c-1.1,0-2.1-0.3-3-0.8c-0.9-0.6-1.5-1.4-2-2.4
			c-0.5-1.1-0.7-2.3-0.7-3.7c0-2.2,0.5-3.9,1.5-5.1c1-1.2,2.4-1.8,4.3-1.8c1.1,0,2.1,0.3,3,0.8c0.9,0.6,1.5,1.4,2,2.4
			C346.8,453.7,347,454.9,347,456.3z M338.8,456.3c0,1.3,0.2,2.3,0.6,3c0.4,0.7,1,1,1.9,1c0.9,0,1.5-0.3,1.9-1
			c0.4-0.7,0.6-1.7,0.6-3c0-1.3-0.2-2.3-0.6-3c-0.4-0.7-1-1-1.9-1c-0.9,0-1.5,0.3-1.9,1C339,454,338.8,455,338.8,456.3z"/>
		<path class="st0" d="M356.3,449.4c0.4,0,0.8,0,1.1,0.1l-0.2,3.4c-0.3-0.1-0.6-0.1-1-0.1c-1,0-1.8,0.3-2.4,0.9
			c-0.6,0.6-0.9,1.4-0.9,2.5v6.8h-3.2v-13.3h2.5l0.5,2.2h0.2c0.4-0.7,0.9-1.4,1.5-1.8C354.9,449.7,355.6,449.4,356.3,449.4z"/>
		<path class="st0" d="M371.8,449.4c1.4,0,2.5,0.6,3.3,1.8c0.8,1.2,1.2,2.9,1.2,5.1c0,2.2-0.4,3.9-1.2,5.1c-0.8,1.2-1.9,1.8-3.3,1.8
			c-1.4,0-2.5-0.6-3.3-1.7h-0.2l-0.5,1.5h-2.5v-18.6h3.2v4.3c0,0.5,0,1.4-0.1,2.6h0.1C369.2,450.1,370.3,449.4,371.8,449.4z
			 M370.8,452.4c-0.8,0-1.4,0.3-1.8,0.8c-0.4,0.6-0.6,1.5-0.6,2.7v0.4c0,1.4,0.2,2.5,0.6,3.1c0.4,0.6,1,0.9,1.8,0.9
			c0.7,0,1.2-0.3,1.6-1c0.4-0.7,0.6-1.7,0.6-3s-0.2-2.3-0.6-3C372,452.7,371.5,452.4,370.8,452.4z"/>
		<path class="st0" d="M382.2,463H379v-18.6h3.2V463z"/>
		<path class="st0" d="M391,463.3c-1.9,0-3.4-0.6-4.5-1.8c-1.1-1.2-1.6-2.9-1.6-5c0-2.2,0.5-4,1.5-5.2c1-1.2,2.4-1.8,4.1-1.8
			c1.7,0,3,0.5,3.9,1.6c0.9,1.1,1.4,2.6,1.4,4.5v1.8h-7.7c0,1,0.3,1.8,0.8,2.4c0.5,0.6,1.2,0.9,2.1,0.9c0.7,0,1.4-0.1,2-0.3
			c0.6-0.2,1.3-0.4,2-0.8v2.8c-0.6,0.3-1.2,0.6-1.8,0.7C392.7,463.2,391.9,463.3,391,463.3z M390.5,452c-0.7,0-1.2,0.2-1.6,0.7
			c-0.4,0.5-0.6,1.2-0.7,2.1h4.5c0-0.9-0.2-1.6-0.6-2.1C391.8,452.3,391.2,452,390.5,452z"/>
		<path class="st0" d="M409.4,463h-3.2v-7.8c0-1-0.2-1.7-0.5-2.2c-0.3-0.5-0.8-0.7-1.5-0.7c-0.9,0-1.6,0.3-2,1s-0.6,1.8-0.6,3.4v6.3
			h-3.2v-13.3h2.5l0.4,1.7h0.2c0.4-0.6,0.9-1.1,1.5-1.5c0.6-0.3,1.4-0.5,2.2-0.5c1.4,0,2.4,0.4,3.1,1.3c0.7,0.8,1.1,2.1,1.1,3.6V463
			z"/>
		<path class="st0" d="M416.5,463.3c-1.4,0-2.5-0.6-3.3-1.8c-0.8-1.2-1.2-2.9-1.2-5.1c0-2.2,0.4-3.9,1.2-5.1
			c0.8-1.2,1.9-1.8,3.4-1.8c1.5,0,2.6,0.7,3.4,2h0.1c-0.2-1-0.2-1.9-0.2-2.7v-4.3h3.3V463h-2.5l-0.6-1.7h-0.1
			C419.2,462.6,418,463.3,416.5,463.3z M417.7,460.4c0.8,0,1.4-0.3,1.8-0.8c0.4-0.5,0.6-1.5,0.6-2.8v-0.4c0-1.4-0.2-2.5-0.6-3.1
			c-0.4-0.6-1-0.9-1.9-0.9c-0.7,0-1.3,0.3-1.7,1c-0.4,0.7-0.6,1.7-0.6,3c0,1.3,0.2,2.3,0.6,3C416.3,460,416.9,460.4,417.7,460.4z"/>
		<path class="st0" d="M440.5,459.1c0,1.4-0.4,2.4-1.3,3.1c-0.8,0.7-2.1,1.1-3.8,1.1c-0.9,0-1.6-0.1-2.2-0.2
			c-0.6-0.1-1.2-0.3-1.7-0.6v-3c0.6,0.3,1.3,0.6,2,0.8c0.8,0.2,1.4,0.3,2,0.3c1.2,0,1.8-0.4,1.8-1.1c0-0.3-0.1-0.5-0.2-0.7
			c-0.2-0.2-0.4-0.4-0.8-0.6c-0.4-0.2-0.9-0.5-1.5-0.8c-0.9-0.4-1.6-0.8-2-1.2c-0.4-0.4-0.7-0.8-0.9-1.3c-0.2-0.5-0.3-1.1-0.3-1.7
			c0-1.2,0.4-2.1,1.2-2.8c0.8-0.6,2-1,3.5-1c1.4,0,2.8,0.4,4.2,1.1l-1,2.6c-0.6-0.3-1.2-0.5-1.7-0.7c-0.5-0.2-1-0.3-1.6-0.3
			c-1,0-1.4,0.3-1.4,0.9c0,0.3,0.2,0.6,0.5,0.8c0.3,0.2,1,0.6,2,1.1c0.9,0.4,1.6,0.8,2,1.2c0.4,0.4,0.8,0.8,1,1.3
			C440.4,457.8,440.5,458.4,440.5,459.1z"/>
		<path class="st0" d="M454,463h-3.2v-7.8c0-1.9-0.6-2.9-1.9-2.9c-0.9,0-1.6,0.3-2,1s-0.6,1.8-0.6,3.4v6.3H443v-18.6h3.2v3.8
			c0,0.3,0,1-0.1,2.1l-0.1,1.1h0.2c0.7-1.3,1.9-2,3.4-2c1.4,0,2.5,0.4,3.2,1.3c0.7,0.8,1.1,2.1,1.1,3.6V463z"/>
		<path class="st0" d="M464.8,463l-0.6-1.8h-0.1c-0.5,0.8-1.1,1.3-1.7,1.6c-0.6,0.3-1.3,0.4-2.3,0.4c-1.1,0-2-0.4-2.7-1.1
			c-0.7-0.7-1-1.8-1-3.1c0-1.4,0.4-2.5,1.3-3.1c0.9-0.7,2.2-1,4-1.1l2.1-0.1v-0.6c0-1.4-0.6-2-1.8-2c-0.9,0-2.1,0.3-3.3,1l-1.1-2.5
			c1.4-0.8,2.9-1.2,4.5-1.2c1.6,0,2.8,0.4,3.7,1.2c0.8,0.8,1.3,2,1.3,3.6v8.9H464.8z M463.9,456.9l-1.3,0c-0.9,0-1.6,0.2-2.1,0.6
			c-0.5,0.4-0.7,0.9-0.7,1.6c0,1,0.5,1.5,1.6,1.5c0.8,0,1.4-0.2,1.8-0.7c0.5-0.5,0.7-1.1,0.7-1.9V456.9z"/>
		<path class="st0" d="M477,463.3c-1.4,0-2.5-0.6-3.3-1.7h-0.2c0.1,1.1,0.2,1.8,0.2,1.9v5.4h-3.2v-19.2h2.6l0.5,1.7h0.1
			c0.8-1.3,1.9-2,3.4-2c1.4,0,2.5,0.6,3.3,1.8c0.8,1.2,1.2,2.9,1.2,5.1c0,1.4-0.2,2.7-0.6,3.7c-0.4,1.1-0.9,1.9-1.6,2.4
			C478.7,463,477.9,463.3,477,463.3z M476,452.4c-0.8,0-1.4,0.3-1.8,0.8c-0.4,0.6-0.6,1.5-0.6,2.7v0.4c0,1.4,0.2,2.5,0.6,3.1
			c0.4,0.6,1,0.9,1.8,0.9c1.5,0,2.2-1.3,2.2-4c0-1.3-0.2-2.3-0.5-3C477.3,452.7,476.8,452.4,476,452.4z"/>
		<path class="st0" d="M489.6,463.3c-1.9,0-3.4-0.6-4.5-1.8c-1.1-1.2-1.6-2.9-1.6-5c0-2.2,0.5-4,1.5-5.2c1-1.2,2.4-1.8,4.1-1.8
			c1.7,0,3,0.5,3.9,1.6c0.9,1.1,1.4,2.6,1.4,4.5v1.8h-7.7c0,1,0.3,1.8,0.8,2.4c0.5,0.6,1.2,0.9,2.1,0.9c0.7,0,1.4-0.1,2-0.3
			c0.6-0.2,1.3-0.4,2-0.8v2.8c-0.6,0.3-1.2,0.6-1.8,0.7C491.3,463.2,490.5,463.3,489.6,463.3z M489.1,452c-0.7,0-1.2,0.2-1.6,0.7
			c-0.4,0.5-0.6,1.2-0.7,2.1h4.5c0-0.9-0.2-1.6-0.6-2.1C490.4,452.3,489.8,452,489.1,452z"/>
		<path class="st0" d="M505.4,459.1c0,1.4-0.4,2.4-1.3,3.1c-0.8,0.7-2.1,1.1-3.8,1.1c-0.9,0-1.6-0.1-2.2-0.2
			c-0.6-0.1-1.2-0.3-1.7-0.6v-3c0.6,0.3,1.3,0.6,2,0.8c0.8,0.2,1.4,0.3,2,0.3c1.2,0,1.8-0.4,1.8-1.1c0-0.3-0.1-0.5-0.2-0.7
			c-0.2-0.2-0.4-0.4-0.8-0.6c-0.4-0.2-0.9-0.5-1.5-0.8c-0.9-0.4-1.6-0.8-2-1.2c-0.4-0.4-0.7-0.8-0.9-1.3c-0.2-0.5-0.3-1.1-0.3-1.7
			c0-1.2,0.4-2.1,1.2-2.8c0.8-0.6,2-1,3.5-1c1.4,0,2.8,0.4,4.2,1.1l-1,2.6c-0.6-0.3-1.2-0.5-1.7-0.7c-0.5-0.2-1-0.3-1.6-0.3
			c-1,0-1.4,0.3-1.4,0.9c0,0.3,0.2,0.6,0.5,0.8c0.3,0.2,1,0.6,2,1.1c0.9,0.4,1.6,0.8,2,1.2c0.4,0.4,0.8,0.8,1,1.3
			C505.3,457.8,505.4,458.4,505.4,459.1z"/>
		<path class="st0" d="M158.5,504c-3.7,0-5.5-2.3-5.5-6.8c0-2.3,0.5-4,1.5-5.2c1-1.2,2.4-1.8,4.3-1.8c1.4,0,2.6,0.3,3.7,0.9l-1,2.8
			c-0.5-0.2-1-0.4-1.4-0.6c-0.4-0.1-0.9-0.2-1.3-0.2c-1.7,0-2.5,1.3-2.5,4c0,2.6,0.8,3.9,2.5,3.9c0.6,0,1.2-0.1,1.7-0.3
			c0.5-0.2,1.1-0.5,1.6-0.9v3.1c-0.5,0.4-1.1,0.6-1.6,0.8C160,503.9,159.3,504,158.5,504z"/>
		<path class="st0" d="M171.5,490.2c0.4,0,0.8,0,1.1,0.1l-0.2,3.4c-0.3-0.1-0.6-0.1-1-0.1c-1,0-1.8,0.3-2.4,0.9
			c-0.6,0.6-0.9,1.4-0.9,2.5v6.8h-3.2v-13.3h2.5l0.5,2.2h0.2c0.4-0.7,0.9-1.4,1.5-1.8C170.1,490.4,170.8,490.2,171.5,490.2z"/>
		<path class="st0" d="M180.1,504c-1.9,0-3.4-0.6-4.5-1.8c-1.1-1.2-1.6-2.9-1.6-5c0-2.2,0.5-4,1.5-5.2c1-1.2,2.4-1.8,4.1-1.8
			c1.7,0,3,0.5,3.9,1.6c0.9,1.1,1.4,2.6,1.4,4.5v1.8h-7.7c0,1,0.3,1.8,0.8,2.4c0.5,0.6,1.2,0.9,2.1,0.9c0.7,0,1.4-0.1,2-0.3
			c0.6-0.2,1.3-0.4,2-0.8v2.8c-0.6,0.3-1.2,0.6-1.8,0.7C181.8,503.9,181,504,180.1,504z M179.7,492.8c-0.7,0-1.2,0.2-1.6,0.7
			c-0.4,0.5-0.6,1.2-0.7,2.1h4.5c0-0.9-0.2-1.6-0.6-2.1C180.9,493,180.3,492.8,179.7,492.8z"/>
		<path class="st0" d="M195.1,503.8l-0.6-1.8h-0.1c-0.5,0.8-1.1,1.3-1.7,1.6c-0.6,0.3-1.3,0.4-2.3,0.4c-1.1,0-2-0.4-2.7-1.1
			c-0.7-0.7-1-1.8-1-3.1c0-1.4,0.4-2.5,1.3-3.1c0.9-0.7,2.2-1,4-1.1l2.1-0.1v-0.6c0-1.4-0.6-2-1.8-2c-0.9,0-2.1,0.3-3.3,1l-1.1-2.5
			c1.4-0.8,2.9-1.2,4.5-1.2c1.6,0,2.8,0.4,3.7,1.2c0.8,0.8,1.3,2,1.3,3.6v8.9H195.1z M194.2,497.6l-1.3,0c-0.9,0-1.6,0.2-2.1,0.6
			c-0.5,0.4-0.7,0.9-0.7,1.6c0,1,0.5,1.5,1.6,1.5c0.8,0,1.4-0.2,1.8-0.7c0.5-0.5,0.7-1.1,0.7-1.9V497.6z"/>
		<path class="st0" d="M205.7,501.1c0.6,0,1.2-0.1,2-0.4v2.7c-0.8,0.4-1.8,0.6-3,0.6c-1.3,0-2.2-0.4-2.8-1.1
			c-0.6-0.7-0.9-1.8-0.9-3.3v-6.4h-1.6v-1.5l1.8-1.2l0.9-2.8h2.1v2.8h3.3v2.7h-3.3v6.4c0,0.5,0.1,0.9,0.4,1.1
			C205,501,205.3,501.1,205.7,501.1z"/>
		<path class="st0" d="M215.6,504c-1.9,0-3.4-0.6-4.5-1.8c-1.1-1.2-1.6-2.9-1.6-5c0-2.2,0.5-4,1.5-5.2c1-1.2,2.4-1.8,4.1-1.8
			c1.7,0,3,0.5,3.9,1.6c0.9,1.1,1.4,2.6,1.4,4.5v1.8h-7.7c0,1,0.3,1.8,0.8,2.4c0.5,0.6,1.2,0.9,2.1,0.9c0.7,0,1.4-0.1,2-0.3
			c0.6-0.2,1.3-0.4,2-0.8v2.8c-0.6,0.3-1.2,0.6-1.8,0.7C217.3,503.9,216.5,504,215.6,504z M215.1,492.8c-0.7,0-1.2,0.2-1.6,0.7
			c-0.4,0.5-0.6,1.2-0.7,2.1h4.5c0-0.9-0.2-1.6-0.6-2.1C216.3,493,215.8,492.8,215.1,492.8z"/>
		<path class="st0" d="M227,490.4h3.5l2.2,7.5c0.2,0.7,0.3,1.4,0.4,2.3h0.1c0.1-0.8,0.2-1.6,0.5-2.3l2.2-7.5h3.5l-5,15.1
			c-0.5,1.4-1.1,2.4-2,3.1c-0.9,0.7-1.8,1-3,1c-0.6,0-1.1-0.1-1.6-0.2v-2.9c0.4,0.1,0.8,0.2,1.3,0.2c0.6,0,1.1-0.2,1.5-0.6
			c0.4-0.4,0.8-1,1-1.8l0.2-0.7L227,490.4z"/>
		<path class="st0" d="M251.9,497.1c0,2.2-0.5,3.9-1.5,5.1c-1,1.2-2.4,1.8-4.3,1.8c-1.1,0-2.1-0.3-3-0.8c-0.9-0.6-1.5-1.4-2-2.4
			c-0.5-1.1-0.7-2.3-0.7-3.7c0-2.2,0.5-3.9,1.5-5.1c1-1.2,2.4-1.8,4.3-1.8c1.1,0,2.1,0.3,3,0.8c0.9,0.6,1.5,1.4,2,2.4
			C251.6,494.5,251.9,495.7,251.9,497.1z M243.6,497.1c0,1.3,0.2,2.3,0.6,3c0.4,0.7,1,1,1.9,1c0.9,0,1.5-0.3,1.9-1
			c0.4-0.7,0.6-1.7,0.6-3c0-1.3-0.2-2.3-0.6-3c-0.4-0.7-1-1-1.9-1c-0.9,0-1.5,0.3-1.9,1C243.8,494.8,243.6,495.8,243.6,497.1z"/>
		<path class="st0" d="M262.9,503.8l-0.4-1.7h-0.2c-0.3,0.6-0.8,1.1-1.5,1.4c-0.6,0.3-1.4,0.5-2.2,0.5c-1.4,0-2.4-0.4-3.2-1.3
			c-0.7-0.8-1.1-2-1.1-3.6v-8.7h3.2v7.8c0,1,0.2,1.7,0.5,2.2c0.3,0.5,0.8,0.7,1.5,0.7c0.9,0,1.6-0.3,2-1c0.4-0.7,0.6-1.8,0.6-3.4
			v-6.3h3.2v13.3H262.9z"/>
		<path class="st0" d="M275.5,490.2c0.4,0,0.8,0,1.1,0.1l-0.2,3.4c-0.3-0.1-0.6-0.1-1-0.1c-1,0-1.8,0.3-2.4,0.9
			c-0.6,0.6-0.9,1.4-0.9,2.5v6.8h-3.2v-13.3h2.5l0.5,2.2h0.2c0.4-0.7,0.9-1.4,1.5-1.8C274,490.4,274.7,490.2,275.5,490.2z"/>
		<path class="st0" d="M289.7,504c-1.9,0-3.4-0.6-4.5-1.8c-1.1-1.2-1.6-2.9-1.6-5c0-2.2,0.5-4,1.5-5.2c1-1.2,2.4-1.8,4.1-1.8
			c1.7,0,3,0.5,3.9,1.6c0.9,1.1,1.4,2.6,1.4,4.5v1.8h-7.7c0,1,0.3,1.8,0.8,2.4c0.5,0.6,1.2,0.9,2.1,0.9c0.7,0,1.4-0.1,2-0.3
			c0.6-0.2,1.3-0.4,2-0.8v2.8c-0.6,0.3-1.2,0.6-1.8,0.7C291.5,503.9,290.7,504,289.7,504z M289.3,492.8c-0.7,0-1.2,0.2-1.6,0.7
			c-0.4,0.5-0.6,1.2-0.7,2.1h4.5c0-0.9-0.2-1.6-0.6-2.1C290.5,493,290,492.8,289.3,492.8z"/>
		<path class="st0" d="M299.7,497l-3.8-6.5h3.7l2.3,4.2l2.3-4.2h3.7l-3.9,6.5l4,6.8h-3.7l-2.5-4.6l-2.5,4.6h-3.7L299.7,497z"/>
		<path class="st0" d="M316.3,504c-1.4,0-2.5-0.6-3.3-1.7h-0.2c0.1,1.1,0.2,1.8,0.2,1.9v5.4h-3.2v-19.2h2.6l0.5,1.7h0.1
			c0.8-1.3,1.9-2,3.4-2c1.4,0,2.5,0.6,3.3,1.8c0.8,1.2,1.2,2.9,1.2,5.1c0,1.4-0.2,2.7-0.6,3.7c-0.4,1.1-0.9,1.9-1.6,2.4
			C318.1,503.7,317.2,504,316.3,504z M315.4,493.1c-0.8,0-1.4,0.3-1.8,0.8c-0.4,0.6-0.6,1.5-0.6,2.7v0.4c0,1.4,0.2,2.5,0.6,3.1
			s1,0.9,1.8,0.9c1.5,0,2.2-1.3,2.2-4c0-1.3-0.2-2.3-0.5-3C316.7,493.4,316.1,493.1,315.4,493.1z"/>
		<path class="st0" d="M330.2,490.2c0.4,0,0.8,0,1.1,0.1l-0.2,3.4c-0.3-0.1-0.6-0.1-1-0.1c-1,0-1.8,0.3-2.4,0.9
			c-0.6,0.6-0.9,1.4-0.9,2.5v6.8h-3.2v-13.3h2.5l0.5,2.2h0.2c0.4-0.7,0.9-1.4,1.5-1.8C328.8,490.4,329.5,490.2,330.2,490.2z"/>
		<path class="st0" d="M338.8,504c-1.9,0-3.4-0.6-4.5-1.8c-1.1-1.2-1.6-2.9-1.6-5c0-2.2,0.5-4,1.5-5.2c1-1.2,2.4-1.8,4.1-1.8
			c1.7,0,3,0.5,3.9,1.6c0.9,1.1,1.4,2.6,1.4,4.5v1.8H336c0,1,0.3,1.8,0.8,2.4c0.5,0.6,1.2,0.9,2.1,0.9c0.7,0,1.4-0.1,2-0.3
			c0.6-0.2,1.3-0.4,2-0.8v2.8c-0.6,0.3-1.2,0.6-1.8,0.7C340.5,503.9,339.8,504,338.8,504z M338.4,492.8c-0.7,0-1.2,0.2-1.6,0.7
			c-0.4,0.5-0.6,1.2-0.7,2.1h4.5c0-0.9-0.2-1.6-0.6-2.1C339.6,493,339.1,492.8,338.4,492.8z"/>
		<path class="st0" d="M354.6,499.8c0,1.4-0.4,2.4-1.3,3.1c-0.8,0.7-2.1,1.1-3.8,1.1c-0.9,0-1.6-0.1-2.2-0.2
			c-0.6-0.1-1.2-0.3-1.7-0.6v-3c0.6,0.3,1.3,0.6,2,0.8c0.8,0.2,1.4,0.3,2,0.3c1.2,0,1.8-0.4,1.8-1.1c0-0.3-0.1-0.5-0.2-0.7
			c-0.2-0.2-0.4-0.4-0.8-0.6c-0.4-0.2-0.9-0.5-1.5-0.8c-0.9-0.4-1.6-0.8-2-1.2c-0.4-0.4-0.7-0.8-0.9-1.3c-0.2-0.5-0.3-1.1-0.3-1.7
			c0-1.2,0.4-2.1,1.2-2.8c0.8-0.6,2-1,3.5-1c1.4,0,2.8,0.4,4.2,1.1l-1,2.6c-0.6-0.3-1.2-0.5-1.7-0.7c-0.5-0.2-1-0.3-1.6-0.3
			c-1,0-1.4,0.3-1.4,0.9c0,0.3,0.2,0.6,0.5,0.8c0.3,0.2,1,0.6,2,1.1c0.9,0.4,1.6,0.8,2,1.2c0.4,0.4,0.8,0.8,1,1.3
			C354.5,498.6,354.6,499.2,354.6,499.8z"/>
		<path class="st0" d="M365.4,499.8c0,1.4-0.4,2.4-1.3,3.1c-0.8,0.7-2.1,1.1-3.8,1.1c-0.9,0-1.6-0.1-2.2-0.2
			c-0.6-0.1-1.2-0.3-1.7-0.6v-3c0.6,0.3,1.3,0.6,2,0.8c0.8,0.2,1.4,0.3,2,0.3c1.2,0,1.8-0.4,1.8-1.1c0-0.3-0.1-0.5-0.2-0.7
			c-0.2-0.2-0.4-0.4-0.8-0.6c-0.4-0.2-0.9-0.5-1.5-0.8c-0.9-0.4-1.6-0.8-2-1.2c-0.4-0.4-0.7-0.8-0.9-1.3c-0.2-0.5-0.3-1.1-0.3-1.7
			c0-1.2,0.4-2.1,1.2-2.8c0.8-0.6,2-1,3.5-1c1.4,0,2.8,0.4,4.2,1.1l-1,2.6c-0.6-0.3-1.2-0.5-1.7-0.7c-0.5-0.2-1-0.3-1.6-0.3
			c-1,0-1.4,0.3-1.4,0.9c0,0.3,0.2,0.6,0.5,0.8c0.3,0.2,1,0.6,2,1.1c0.9,0.4,1.6,0.8,2,1.2c0.4,0.4,0.8,0.8,1,1.3
			C365.3,498.6,365.4,499.2,365.4,499.8z"/>
		<path class="st0" d="M367.8,487c0-1.2,0.6-1.8,1.8-1.8c1.2,0,1.8,0.6,1.8,1.8c0,0.6-0.1,1-0.4,1.3c-0.3,0.3-0.7,0.5-1.3,0.5
			C368.4,488.8,367.8,488.2,367.8,487z M371.2,503.8h-3.2v-13.3h3.2V503.8z"/>
		<path class="st0" d="M385.4,497.1c0,2.2-0.5,3.9-1.5,5.1c-1,1.2-2.4,1.8-4.3,1.8c-1.1,0-2.1-0.3-3-0.8c-0.9-0.6-1.5-1.4-2-2.4
			c-0.5-1.1-0.7-2.3-0.7-3.7c0-2.2,0.5-3.9,1.5-5.1c1-1.2,2.4-1.8,4.3-1.8c1.1,0,2.1,0.3,3,0.8c0.9,0.6,1.5,1.4,2,2.4
			C385.1,494.5,385.4,495.7,385.4,497.1z M377.2,497.1c0,1.3,0.2,2.3,0.6,3c0.4,0.7,1,1,1.9,1c0.9,0,1.5-0.3,1.9-1
			c0.4-0.7,0.6-1.7,0.6-3c0-1.3-0.2-2.3-0.6-3c-0.4-0.7-1-1-1.9-1c-0.9,0-1.5,0.3-1.9,1C377.3,494.8,377.2,495.8,377.2,497.1z"/>
		<path class="st0" d="M399,503.8h-3.2V496c0-1-0.2-1.7-0.5-2.2c-0.3-0.5-0.8-0.7-1.5-0.7c-0.9,0-1.6,0.3-2,1
			c-0.4,0.7-0.6,1.8-0.6,3.4v6.3H388v-13.3h2.5l0.4,1.7h0.2c0.4-0.6,0.9-1.1,1.5-1.5c0.6-0.3,1.4-0.5,2.2-0.5c1.4,0,2.4,0.4,3.1,1.3
			c0.7,0.8,1.1,2.1,1.1,3.6V503.8z"/>
		<path class="st0" d="M410.6,499.8c0,1.4-0.4,2.4-1.3,3.1c-0.8,0.7-2.1,1.1-3.8,1.1c-0.9,0-1.6-0.1-2.2-0.2
			c-0.6-0.1-1.2-0.3-1.7-0.6v-3c0.6,0.3,1.3,0.6,2,0.8c0.8,0.2,1.4,0.3,2,0.3c1.2,0,1.8-0.4,1.8-1.1c0-0.3-0.1-0.5-0.2-0.7
			c-0.2-0.2-0.4-0.4-0.8-0.6c-0.4-0.2-0.9-0.5-1.5-0.8c-0.9-0.4-1.6-0.8-2-1.2c-0.4-0.4-0.7-0.8-0.9-1.3c-0.2-0.5-0.3-1.1-0.3-1.7
			c0-1.2,0.4-2.1,1.2-2.8c0.8-0.6,2-1,3.5-1c1.4,0,2.8,0.4,4.2,1.1l-1,2.6c-0.6-0.3-1.2-0.5-1.7-0.7c-0.5-0.2-1-0.3-1.6-0.3
			c-1,0-1.4,0.3-1.4,0.9c0,0.3,0.2,0.6,0.5,0.8c0.3,0.2,1,0.6,2,1.1c0.9,0.4,1.6,0.8,2,1.2c0.4,0.4,0.8,0.8,1,1.3
			C410.5,498.6,410.6,499.2,410.6,499.8z"/>
		<path class="st0" d="M428.6,503.8l-0.9-4.7l-1.2-5.9h-0.1l-2.2,10.6h-3.5l-3.4-13.3h3.2l1.4,5.9c0.2,1.1,0.4,2.5,0.7,4.4h0.1
			c0-0.6,0.2-1.6,0.4-2.9l0.2-1l1.5-6.4h3.6l1.4,6.4c0,0.2,0.1,0.4,0.1,0.8c0.1,0.3,0.1,0.7,0.2,1.1c0.1,0.4,0.1,0.8,0.2,1.1
			c0,0.4,0.1,0.7,0.1,0.9h0.1c0.1-0.6,0.2-1.4,0.3-2.4c0.2-1,0.3-1.7,0.4-2l1.4-5.9h3.2l-3.4,13.3H428.6z"/>
		<path class="st0" d="M437.3,487c0-1.2,0.6-1.8,1.8-1.8c1.2,0,1.8,0.6,1.8,1.8c0,0.6-0.1,1-0.4,1.3c-0.3,0.3-0.7,0.5-1.3,0.5
			C437.9,488.8,437.3,488.2,437.3,487z M440.7,503.8h-3.2v-13.3h3.2V503.8z"/>
		<path class="st0" d="M449.1,501.1c0.6,0,1.2-0.1,2-0.4v2.7c-0.8,0.4-1.8,0.6-3,0.6c-1.3,0-2.2-0.4-2.8-1.1
			c-0.6-0.7-0.9-1.8-0.9-3.3v-6.4h-1.6v-1.5l1.8-1.2l0.9-2.8h2.1v2.8h3.3v2.7h-3.3v6.4c0,0.5,0.1,0.9,0.4,1.1
			C448.3,501,448.6,501.1,449.1,501.1z"/>
		<path class="st0" d="M464.5,503.8h-3.2V496c0-1.9-0.6-2.9-1.9-2.9c-0.9,0-1.6,0.3-2,1c-0.4,0.7-0.6,1.8-0.6,3.4v6.3h-3.2v-18.6
			h3.2v3.8c0,0.3,0,1-0.1,2.1l-0.1,1.1h0.2c0.7-1.3,1.9-2,3.4-2c1.4,0,2.5,0.4,3.2,1.3c0.7,0.8,1.1,2.1,1.1,3.6V503.8z"/>
		<path class="st0" d="M481.8,499.8c0,1.4-0.4,2.4-1.3,3.1c-0.8,0.7-2.1,1.1-3.8,1.1c-0.9,0-1.6-0.1-2.2-0.2
			c-0.6-0.1-1.2-0.3-1.7-0.6v-3c0.6,0.3,1.3,0.6,2,0.8c0.8,0.2,1.4,0.3,2,0.3c1.2,0,1.8-0.4,1.8-1.1c0-0.3-0.1-0.5-0.2-0.7
			c-0.2-0.2-0.4-0.4-0.8-0.6c-0.4-0.2-0.9-0.5-1.5-0.8c-0.9-0.4-1.6-0.8-2-1.2c-0.4-0.4-0.7-0.8-0.9-1.3c-0.2-0.5-0.3-1.1-0.3-1.7
			c0-1.2,0.4-2.1,1.2-2.8c0.8-0.6,2-1,3.5-1c1.4,0,2.8,0.4,4.2,1.1l-1,2.6c-0.6-0.3-1.2-0.5-1.7-0.7c-0.5-0.2-1-0.3-1.6-0.3
			c-1,0-1.4,0.3-1.4,0.9c0,0.3,0.2,0.6,0.5,0.8c0.3,0.2,1,0.6,2,1.1c0.9,0.4,1.6,0.8,2,1.2c0.4,0.4,0.8,0.8,1,1.3
			C481.6,498.6,481.8,499.2,481.8,499.8z"/>
		<path class="st0" d="M495.2,503.8H492V496c0-1.9-0.6-2.9-1.9-2.9c-0.9,0-1.6,0.3-2,1c-0.4,0.7-0.6,1.8-0.6,3.4v6.3h-3.2v-18.6h3.2
			v3.8c0,0.3,0,1-0.1,2.1l-0.1,1.1h0.2c0.7-1.3,1.9-2,3.4-2c1.4,0,2.5,0.4,3.2,1.3c0.7,0.8,1.1,2.1,1.1,3.6V503.8z"/>
		<path class="st0" d="M506.1,503.8l-0.6-1.8h-0.1c-0.5,0.8-1.1,1.3-1.7,1.6c-0.6,0.3-1.3,0.4-2.3,0.4c-1.1,0-2-0.4-2.7-1.1
			c-0.7-0.7-1-1.8-1-3.1c0-1.4,0.4-2.5,1.3-3.1c0.9-0.7,2.2-1,4-1.1l2.1-0.1v-0.6c0-1.4-0.6-2-1.8-2c-0.9,0-2.1,0.3-3.3,1l-1.1-2.5
			c1.4-0.8,2.9-1.2,4.5-1.2c1.6,0,2.8,0.4,3.7,1.2c0.8,0.8,1.3,2,1.3,3.6v8.9H506.1z M505.2,497.6l-1.3,0c-0.9,0-1.6,0.2-2.1,0.6
			c-0.5,0.4-0.7,0.9-0.7,1.6c0,1,0.5,1.5,1.6,1.5c0.8,0,1.4-0.2,1.8-0.7c0.5-0.5,0.7-1.1,0.7-1.9V497.6z"/>
		<path class="st0" d="M518.2,504c-1.4,0-2.5-0.6-3.3-1.7h-0.2c0.1,1.1,0.2,1.8,0.2,1.9v5.4h-3.2v-19.2h2.6l0.5,1.7h0.1
			c0.8-1.3,1.9-2,3.4-2c1.4,0,2.5,0.6,3.3,1.8c0.8,1.2,1.2,2.9,1.2,5.1c0,1.4-0.2,2.7-0.6,3.7c-0.4,1.1-0.9,1.9-1.6,2.4
			C520,503.7,519.2,504,518.2,504z M517.3,493.1c-0.8,0-1.4,0.3-1.8,0.8c-0.4,0.6-0.6,1.5-0.6,2.7v0.4c0,1.4,0.2,2.5,0.6,3.1
			c0.4,0.6,1,0.9,1.8,0.9c1.5,0,2.2-1.3,2.2-4c0-1.3-0.2-2.3-0.5-3C518.6,493.4,518.1,493.1,517.3,493.1z"/>
		<path class="st0" d="M530.9,504c-1.9,0-3.4-0.6-4.5-1.8c-1.1-1.2-1.6-2.9-1.6-5c0-2.2,0.5-4,1.5-5.2c1-1.2,2.4-1.8,4.1-1.8
			c1.7,0,3,0.5,3.9,1.6c0.9,1.1,1.4,2.6,1.4,4.5v1.8H528c0,1,0.3,1.8,0.8,2.4c0.5,0.6,1.2,0.9,2.1,0.9c0.7,0,1.4-0.1,2-0.3
			c0.6-0.2,1.3-0.4,2-0.8v2.8c-0.6,0.3-1.2,0.6-1.8,0.7C532.6,503.9,531.8,504,530.9,504z M530.4,492.8c-0.7,0-1.2,0.2-1.6,0.7
			c-0.4,0.5-0.6,1.2-0.7,2.1h4.5c0-0.9-0.2-1.6-0.6-2.1C531.6,493,531.1,492.8,530.4,492.8z"/>
		<path class="st0" d="M541.5,496.5l1.4-2l3.3-4.1h3.7l-4.7,5.8l5,7.6h-3.7l-3.4-5.4l-1.4,1.3v4.2h-3.2v-18.6h3.2v8.3L541.5,496.5
			L541.5,496.5z"/>
		<path class="st0" d="M557.2,504c-1.9,0-3.4-0.6-4.5-1.8c-1.1-1.2-1.6-2.9-1.6-5c0-2.2,0.5-4,1.5-5.2c1-1.2,2.4-1.8,4.1-1.8
			c1.7,0,3,0.5,3.9,1.6c0.9,1.1,1.4,2.6,1.4,4.5v1.8h-7.7c0,1,0.3,1.8,0.8,2.4c0.5,0.6,1.2,0.9,2.1,0.9c0.7,0,1.4-0.1,2-0.3
			c0.6-0.2,1.3-0.4,2-0.8v2.8c-0.6,0.3-1.2,0.6-1.8,0.7C558.9,503.9,558.1,504,557.2,504z M556.8,492.8c-0.7,0-1.2,0.2-1.6,0.7
			c-0.4,0.5-0.6,1.2-0.7,2.1h4.5c0-0.9-0.2-1.6-0.6-2.1C558,493,557.4,492.8,556.8,492.8z"/>
		<path class="st0" d="M563,490.4h3.5l2.2,7.5c0.2,0.7,0.3,1.4,0.4,2.3h0.1c0.1-0.8,0.2-1.6,0.5-2.3l2.2-7.5h3.5l-5,15.1
			c-0.5,1.4-1.1,2.4-2,3.1c-0.9,0.7-1.8,1-3,1c-0.6,0-1.1-0.1-1.6-0.2v-2.9c0.4,0.1,0.8,0.2,1.3,0.2c0.6,0,1.1-0.2,1.5-0.6
			c0.4-0.4,0.8-1,1-1.8l0.2-0.7L563,490.4z"/>
		<path class="st0" d="M585.4,499.8c0,1.4-0.4,2.4-1.3,3.1c-0.8,0.7-2.1,1.1-3.8,1.1c-0.9,0-1.6-0.1-2.2-0.2
			c-0.6-0.1-1.2-0.3-1.7-0.6v-3c0.6,0.3,1.3,0.6,2,0.8c0.8,0.2,1.4,0.3,2,0.3c1.2,0,1.8-0.4,1.8-1.1c0-0.3-0.1-0.5-0.2-0.7
			c-0.2-0.2-0.4-0.4-0.8-0.6c-0.4-0.2-0.9-0.5-1.5-0.8c-0.9-0.4-1.6-0.8-2-1.2c-0.4-0.4-0.7-0.8-0.9-1.3c-0.2-0.5-0.3-1.1-0.3-1.7
			c0-1.2,0.4-2.1,1.2-2.8c0.8-0.6,2-1,3.5-1c1.4,0,2.8,0.4,4.2,1.1l-1,2.6c-0.6-0.3-1.2-0.5-1.7-0.7c-0.5-0.2-1-0.3-1.6-0.3
			c-1,0-1.4,0.3-1.4,0.9c0,0.3,0.2,0.6,0.5,0.8c0.3,0.2,1,0.6,2,1.1c0.9,0.4,1.6,0.8,2,1.2c0.4,0.4,0.8,0.8,1,1.3
			C585.2,498.6,585.4,499.2,585.4,499.8z"/>
		<path class="st0" d="M164.5,537.8c0,2.2-0.5,3.9-1.5,5.1c-1,1.2-2.4,1.8-4.3,1.8c-1.1,0-2.1-0.3-3-0.8c-0.9-0.6-1.5-1.4-2-2.4
			c-0.5-1.1-0.7-2.3-0.7-3.7c0-2.2,0.5-3.9,1.5-5.1c1-1.2,2.4-1.8,4.3-1.8c1.1,0,2.1,0.3,3,0.8c0.9,0.6,1.5,1.4,2,2.4
			C164.2,535.2,164.5,536.4,164.5,537.8z M156.3,537.8c0,1.3,0.2,2.3,0.6,3c0.4,0.7,1,1,1.9,1c0.9,0,1.5-0.3,1.9-1
			c0.4-0.7,0.6-1.7,0.6-3c0-1.3-0.2-2.3-0.6-3c-0.4-0.7-1-1-1.9-1c-0.9,0-1.5,0.3-1.9,1C156.4,535.5,156.3,536.5,156.3,537.8z"/>
		<path class="st0" d="M173.8,530.9c0.4,0,0.8,0,1.1,0.1l-0.2,3.4c-0.3-0.1-0.6-0.1-1-0.1c-1,0-1.8,0.3-2.4,0.9
			c-0.6,0.6-0.9,1.4-0.9,2.5v6.8h-3.2v-13.3h2.5l0.5,2.2h0.2c0.4-0.7,0.9-1.4,1.5-1.8C172.4,531.2,173,530.9,173.8,530.9z"/>
		<path class="st0" d="M189.3,530.9c1.4,0,2.5,0.6,3.3,1.8c0.8,1.2,1.2,2.9,1.2,5.1c0,2.2-0.4,3.9-1.2,5.1c-0.8,1.2-1.9,1.8-3.3,1.8
			c-1.4,0-2.5-0.6-3.3-1.7h-0.2l-0.5,1.5h-2.5v-18.6h3.2v4.3c0,0.5,0,1.4-0.1,2.6h0.1C186.7,531.6,187.8,530.9,189.3,530.9z
			 M188.2,533.8c-0.8,0-1.4,0.3-1.8,0.8c-0.4,0.6-0.6,1.5-0.6,2.7v0.4c0,1.4,0.2,2.5,0.6,3.1s1,0.9,1.8,0.9c0.7,0,1.2-0.3,1.6-1
			c0.4-0.7,0.6-1.7,0.6-3s-0.2-2.3-0.6-3C189.5,534.2,188.9,533.8,188.2,533.8z"/>
		<path class="st0" d="M199.7,544.5h-3.2v-18.6h3.2V544.5z"/>
		<path class="st0" d="M208.5,544.8c-1.9,0-3.4-0.6-4.5-1.8c-1.1-1.2-1.6-2.9-1.6-5c0-2.2,0.5-4,1.5-5.2c1-1.2,2.4-1.8,4.1-1.8
			c1.7,0,3,0.5,3.9,1.6c0.9,1.1,1.4,2.6,1.4,4.5v1.8h-7.7c0,1,0.3,1.8,0.8,2.4c0.5,0.6,1.2,0.9,2.1,0.9c0.7,0,1.4-0.1,2-0.3
			c0.6-0.2,1.3-0.4,2-0.8v2.8c-0.6,0.3-1.2,0.6-1.8,0.7C210.2,544.7,209.4,544.8,208.5,544.8z M208,533.5c-0.7,0-1.2,0.2-1.6,0.7
			c-0.4,0.5-0.6,1.2-0.7,2.1h4.5c0-0.9-0.2-1.6-0.6-2.1C209.2,533.8,208.7,533.5,208,533.5z"/>
		<path class="st0" d="M226.9,544.5h-3.2v-7.8c0-1-0.2-1.7-0.5-2.2c-0.3-0.5-0.8-0.7-1.5-0.7c-0.9,0-1.6,0.3-2,1s-0.6,1.8-0.6,3.4
			v6.3h-3.2v-13.3h2.5l0.4,1.7h0.2c0.4-0.6,0.9-1.1,1.5-1.5c0.6-0.3,1.4-0.5,2.2-0.5c1.4,0,2.4,0.4,3.1,1.3c0.7,0.8,1.1,2.1,1.1,3.6
			V544.5z"/>
		<path class="st0" d="M234,544.8c-1.4,0-2.5-0.6-3.3-1.8c-0.8-1.2-1.2-2.9-1.2-5.1c0-2.2,0.4-3.9,1.2-5.1c0.8-1.2,1.9-1.8,3.4-1.8
			c1.5,0,2.6,0.7,3.4,2h0.1c-0.2-1-0.2-1.9-0.2-2.7v-4.3h3.3v18.6h-2.5l-0.6-1.7h-0.1C236.6,544.1,235.5,544.8,234,544.8z
			 M235.1,541.9c0.8,0,1.4-0.3,1.8-0.8c0.4-0.5,0.6-1.5,0.6-2.8v-0.4c0-1.4-0.2-2.5-0.6-3.1c-0.4-0.6-1-0.9-1.9-0.9
			c-0.7,0-1.3,0.3-1.7,1c-0.4,0.7-0.6,1.7-0.6,3s0.2,2.3,0.6,3C233.8,541.5,234.4,541.9,235.1,541.9z"/>
		<path class="st0" d="M257.9,540.6c0,1.4-0.4,2.4-1.3,3.1c-0.8,0.7-2.1,1.1-3.8,1.1c-0.9,0-1.6-0.1-2.2-0.2
			c-0.6-0.1-1.2-0.3-1.7-0.6v-3c0.6,0.3,1.3,0.6,2,0.8c0.8,0.2,1.4,0.3,2,0.3c1.2,0,1.8-0.4,1.8-1.1c0-0.3-0.1-0.5-0.2-0.7
			c-0.2-0.2-0.4-0.4-0.8-0.6c-0.4-0.2-0.9-0.5-1.5-0.8c-0.9-0.4-1.6-0.8-2-1.2c-0.4-0.4-0.7-0.8-0.9-1.3c-0.2-0.5-0.3-1.1-0.3-1.7
			c0-1.2,0.4-2.1,1.2-2.8c0.8-0.6,2-1,3.5-1c1.4,0,2.8,0.4,4.2,1.1l-1,2.6c-0.6-0.3-1.2-0.5-1.7-0.7c-0.5-0.2-1-0.3-1.6-0.3
			c-1,0-1.4,0.3-1.4,0.9c0,0.3,0.2,0.6,0.5,0.8c0.3,0.2,1,0.6,2,1.1c0.9,0.4,1.6,0.8,2,1.2c0.4,0.4,0.8,0.8,1,1.3
			C257.8,539.3,257.9,539.9,257.9,540.6z"/>
		<path class="st0" d="M271.4,544.5h-3.2v-7.8c0-1.9-0.6-2.9-1.9-2.9c-0.9,0-1.6,0.3-2,1s-0.6,1.8-0.6,3.4v6.3h-3.2v-18.6h3.2v3.8
			c0,0.3,0,1-0.1,2.1l-0.1,1.1h0.2c0.7-1.3,1.9-2,3.4-2c1.4,0,2.5,0.4,3.2,1.3c0.7,0.8,1.1,2.1,1.1,3.6V544.5z"/>
		<path class="st0" d="M282.3,544.5l-0.6-1.8h-0.1c-0.5,0.8-1.1,1.3-1.7,1.6c-0.6,0.3-1.3,0.4-2.3,0.4c-1.1,0-2-0.4-2.7-1.1
			c-0.7-0.7-1-1.8-1-3.1c0-1.4,0.4-2.5,1.3-3.1c0.9-0.7,2.2-1,4-1.1l2.1-0.1v-0.6c0-1.4-0.6-2-1.8-2c-0.9,0-2.1,0.3-3.3,1l-1.1-2.5
			c1.4-0.8,2.9-1.2,4.5-1.2c1.6,0,2.8,0.4,3.7,1.2c0.8,0.8,1.3,2,1.3,3.6v8.9H282.3z M281.4,538.3l-1.3,0c-0.9,0-1.6,0.2-2.1,0.6
			c-0.5,0.4-0.7,0.9-0.7,1.6c0,1,0.5,1.5,1.6,1.5c0.8,0,1.4-0.2,1.8-0.7c0.5-0.5,0.7-1.1,0.7-1.9V538.3z"/>
		<path class="st0" d="M294.4,544.8c-1.4,0-2.5-0.6-3.3-1.7H291c0.1,1.1,0.2,1.8,0.2,1.9v5.4h-3.2v-19.2h2.6l0.5,1.7h0.1
			c0.8-1.3,1.9-2,3.4-2c1.4,0,2.5,0.6,3.3,1.8c0.8,1.2,1.2,2.9,1.2,5.1c0,1.4-0.2,2.7-0.6,3.7c-0.4,1.1-0.9,1.9-1.6,2.4
			C296.2,544.5,295.4,544.8,294.4,544.8z M293.5,533.8c-0.8,0-1.4,0.3-1.8,0.8c-0.4,0.6-0.6,1.5-0.6,2.7v0.4c0,1.4,0.2,2.5,0.6,3.1
			c0.4,0.6,1,0.9,1.8,0.9c1.5,0,2.2-1.3,2.2-4c0-1.3-0.2-2.3-0.5-3C294.8,534.2,294.2,533.8,293.5,533.8z"/>
		<path class="st0" d="M307.1,544.8c-1.9,0-3.4-0.6-4.5-1.8c-1.1-1.2-1.6-2.9-1.6-5c0-2.2,0.5-4,1.5-5.2c1-1.2,2.4-1.8,4.1-1.8
			c1.7,0,3,0.5,3.9,1.6c0.9,1.1,1.4,2.6,1.4,4.5v1.8h-7.7c0,1,0.3,1.8,0.8,2.4c0.5,0.6,1.2,0.9,2.1,0.9c0.7,0,1.4-0.1,2-0.3
			c0.6-0.2,1.3-0.4,2-0.8v2.8c-0.6,0.3-1.2,0.6-1.8,0.7C308.8,544.7,308,544.8,307.1,544.8z M306.6,533.5c-0.7,0-1.2,0.2-1.6,0.7
			c-0.4,0.5-0.6,1.2-0.7,2.1h4.5c0-0.9-0.2-1.6-0.6-2.1C307.8,533.8,307.3,533.5,306.6,533.5z"/>
		<path class="st0" d="M322.8,540.6c0,1.4-0.4,2.4-1.3,3.1c-0.8,0.7-2.1,1.1-3.8,1.1c-0.9,0-1.6-0.1-2.2-0.2
			c-0.6-0.1-1.2-0.3-1.7-0.6v-3c0.6,0.3,1.3,0.6,2,0.8c0.8,0.2,1.4,0.3,2,0.3c1.2,0,1.8-0.4,1.8-1.1c0-0.3-0.1-0.5-0.2-0.7
			c-0.2-0.2-0.4-0.4-0.8-0.6c-0.4-0.2-0.9-0.5-1.5-0.8c-0.9-0.4-1.6-0.8-2-1.2c-0.4-0.4-0.7-0.8-0.9-1.3c-0.2-0.5-0.3-1.1-0.3-1.7
			c0-1.2,0.4-2.1,1.2-2.8c0.8-0.6,2-1,3.5-1c1.4,0,2.8,0.4,4.2,1.1l-1,2.6c-0.6-0.3-1.2-0.5-1.7-0.7c-0.5-0.2-1-0.3-1.6-0.3
			c-1,0-1.4,0.3-1.4,0.9c0,0.3,0.2,0.6,0.5,0.8c0.3,0.2,1,0.6,2,1.1c0.9,0.4,1.6,0.8,2,1.2c0.4,0.4,0.8,0.8,1,1.3
			C322.7,539.3,322.8,539.9,322.8,540.6z"/>
		<path class="st0" d="M158.5,585.5c-3.7,0-5.5-2.3-5.5-6.8c0-2.3,0.5-4,1.5-5.2c1-1.2,2.4-1.8,4.3-1.8c1.4,0,2.6,0.3,3.7,0.9
			l-1,2.8c-0.5-0.2-1-0.4-1.4-0.6c-0.4-0.1-0.9-0.2-1.3-0.2c-1.7,0-2.5,1.3-2.5,4c0,2.6,0.8,3.9,2.5,3.9c0.6,0,1.2-0.1,1.7-0.3
			c0.5-0.2,1.1-0.5,1.6-0.9v3.1c-0.5,0.4-1.1,0.6-1.6,0.8C160,585.4,159.3,585.5,158.5,585.5z"/>
		<path class="st0" d="M175.7,578.6c0,2.2-0.5,3.9-1.5,5.1c-1,1.2-2.4,1.8-4.3,1.8c-1.1,0-2.1-0.3-3-0.8c-0.9-0.6-1.5-1.4-2-2.4
			c-0.5-1.1-0.7-2.3-0.7-3.7c0-2.2,0.5-3.9,1.5-5.1c1-1.2,2.4-1.8,4.3-1.8c1.1,0,2.1,0.3,3,0.8c0.9,0.6,1.5,1.4,2,2.4
			C175.4,575.9,175.7,577.2,175.7,578.6z M167.4,578.6c0,1.3,0.2,2.3,0.6,3c0.4,0.7,1,1,1.9,1c0.9,0,1.5-0.3,1.9-1
			c0.4-0.7,0.6-1.7,0.6-3c0-1.3-0.2-2.3-0.6-3c-0.4-0.7-1-1-1.9-1c-0.9,0-1.5,0.3-1.9,1C167.6,576.2,167.4,577.2,167.4,578.6z"/>
		<path class="st0" d="M189.3,585.3h-3.2v-7.8c0-1-0.2-1.7-0.5-2.2c-0.3-0.5-0.8-0.7-1.5-0.7c-0.9,0-1.6,0.3-2,1s-0.6,1.8-0.6,3.4
			v6.3h-3.2v-13.3h2.5l0.4,1.7h0.2c0.4-0.6,0.9-1.1,1.5-1.5c0.6-0.3,1.4-0.5,2.2-0.5c1.4,0,2.4,0.4,3.1,1.3c0.7,0.8,1.1,2.1,1.1,3.6
			V585.3z"/>
		<path class="st0" d="M203.6,585.3h-3.2v-7.8c0-1-0.2-1.7-0.5-2.2c-0.3-0.5-0.8-0.7-1.5-0.7c-0.9,0-1.6,0.3-2,1s-0.6,1.8-0.6,3.4
			v6.3h-3.2v-13.3h2.5l0.4,1.7h0.2c0.4-0.6,0.9-1.1,1.5-1.5c0.6-0.3,1.4-0.5,2.2-0.5c1.4,0,2.4,0.4,3.1,1.3c0.7,0.8,1.1,2.1,1.1,3.6
			V585.3z"/>
		<path class="st0" d="M212.3,585.5c-1.9,0-3.4-0.6-4.5-1.8c-1.1-1.2-1.6-2.9-1.6-5c0-2.2,0.5-4,1.5-5.2c1-1.2,2.4-1.8,4.1-1.8
			c1.7,0,3,0.5,3.9,1.6c0.9,1.1,1.4,2.6,1.4,4.5v1.8h-7.7c0,1,0.3,1.8,0.8,2.4c0.5,0.6,1.2,0.9,2.1,0.9c0.7,0,1.4-0.1,2-0.3
			c0.6-0.2,1.3-0.4,2-0.8v2.8c-0.6,0.3-1.2,0.6-1.8,0.7C214,585.4,213.2,585.5,212.3,585.5z M211.9,574.3c-0.7,0-1.2,0.2-1.6,0.7
			c-0.4,0.5-0.6,1.2-0.7,2.1h4.5c0-0.9-0.2-1.6-0.6-2.1C213.1,574.5,212.5,574.3,211.9,574.3z"/>
		<path class="st0" d="M224.6,585.5c-3.7,0-5.5-2.3-5.5-6.8c0-2.3,0.5-4,1.5-5.2c1-1.2,2.4-1.8,4.3-1.8c1.4,0,2.6,0.3,3.7,0.9
			l-1,2.8c-0.5-0.2-1-0.4-1.4-0.6c-0.4-0.1-0.9-0.2-1.3-0.2c-1.7,0-2.5,1.3-2.5,4c0,2.6,0.8,3.9,2.5,3.9c0.6,0,1.2-0.1,1.7-0.3
			c0.5-0.2,1.1-0.5,1.6-0.9v3.1c-0.5,0.4-1.1,0.6-1.6,0.8C226.1,585.4,225.4,585.5,224.6,585.5z"/>
		<path class="st0" d="M236,582.6c0.6,0,1.2-0.1,2-0.4v2.7c-0.8,0.4-1.8,0.6-3,0.6c-1.3,0-2.2-0.4-2.8-1.1c-0.6-0.7-0.9-1.8-0.9-3.3
			v-6.4h-1.6v-1.5l1.8-1.2l0.9-2.8h2.1v2.8h3.3v2.7h-3.3v6.4c0,0.5,0.1,0.9,0.4,1.1C235.2,582.5,235.6,582.6,236,582.6z"/>
		<path class="st0" d="M256.7,585.3h-3.2v-7.8c0-1-0.1-1.7-0.4-2.2c-0.3-0.5-0.7-0.7-1.4-0.7c-0.8,0-1.4,0.3-1.8,1
			c-0.4,0.7-0.6,1.8-0.6,3.4v6.3h-3.2v-13.3h2.5l0.4,1.7h0.2c0.3-0.6,0.8-1.1,1.4-1.4c0.6-0.3,1.3-0.5,2.1-0.5c1.8,0,3,0.7,3.6,2
			h0.3c0.3-0.6,0.8-1.1,1.4-1.4c0.6-0.3,1.3-0.5,2.1-0.5c1.3,0,2.4,0.4,3.1,1.2c0.7,0.8,1,2,1,3.7v8.7h-3.3v-7.8
			c0-1-0.1-1.7-0.4-2.2c-0.3-0.5-0.7-0.7-1.4-0.7c-0.8,0-1.4,0.3-1.8,1c-0.4,0.6-0.6,1.6-0.6,3V585.3z"/>
		<path class="st0" d="M265.7,571.9h3.5l2.2,7.5c0.2,0.7,0.3,1.4,0.4,2.3h0.1c0.1-0.8,0.2-1.6,0.5-2.3l2.2-7.5h3.5l-5,15.1
			c-0.5,1.4-1.1,2.4-2,3.1c-0.9,0.7-1.8,1-3,1c-0.6,0-1.1-0.1-1.6-0.2V588c0.4,0.1,0.8,0.2,1.3,0.2c0.6,0,1.1-0.2,1.5-0.6
			c0.4-0.4,0.8-1,1-1.8l0.2-0.7L265.7,571.9z"/>
		<path class="st0" d="M292,585.5c-1.4,0-2.5-0.6-3.3-1.7h-0.2c0.1,1.1,0.2,1.8,0.2,1.9v5.4h-3.2v-19.2h2.6l0.5,1.7h0.1
			c0.8-1.3,1.9-2,3.4-2c1.4,0,2.5,0.6,3.3,1.8c0.8,1.2,1.2,2.9,1.2,5.1c0,1.4-0.2,2.7-0.6,3.7c-0.4,1.1-0.9,1.9-1.6,2.4
			C293.7,585.2,292.9,585.5,292,585.5z M291,574.6c-0.8,0-1.4,0.3-1.8,0.8c-0.4,0.6-0.6,1.5-0.6,2.7v0.4c0,1.4,0.2,2.5,0.6,3.1
			c0.4,0.6,1,0.9,1.8,0.9c1.5,0,2.2-1.3,2.2-4c0-1.3-0.2-2.3-0.5-3C292.4,574.9,291.8,574.6,291,574.6z"/>
		<path class="st0" d="M306.8,585.3l-0.6-1.8h-0.1c-0.5,0.8-1.1,1.3-1.7,1.6c-0.6,0.3-1.3,0.4-2.3,0.4c-1.1,0-2-0.4-2.7-1.1
			c-0.7-0.7-1-1.8-1-3.1c0-1.4,0.4-2.5,1.3-3.1c0.9-0.7,2.2-1,4-1.1l2.1-0.1v-0.6c0-1.4-0.6-2-1.8-2c-0.9,0-2.1,0.3-3.3,1l-1.1-2.5
			c1.4-0.8,2.9-1.2,4.5-1.2c1.6,0,2.8,0.4,3.7,1.2c0.8,0.8,1.3,2,1.3,3.6v8.9H306.8z M305.8,579.1l-1.3,0c-0.9,0-1.6,0.2-2.1,0.6
			c-0.5,0.4-0.7,0.9-0.7,1.6c0,1,0.5,1.5,1.6,1.5c0.8,0,1.4-0.2,1.8-0.7c0.5-0.5,0.7-1.1,0.7-1.9V579.1z"/>
		<path class="st0" d="M317.4,582.6c0.6,0,1.2-0.1,2-0.4v2.7c-0.8,0.4-1.8,0.6-3,0.6c-1.3,0-2.2-0.4-2.8-1.1
			c-0.6-0.7-0.9-1.8-0.9-3.3v-6.4h-1.6v-1.5l1.8-1.2l0.9-2.8h2.1v2.8h3.3v2.7H316v6.4c0,0.5,0.1,0.9,0.4,1.1
			C316.6,582.5,316.9,582.6,317.4,582.6z"/>
		<path class="st0" d="M326.6,585.5c-3.7,0-5.5-2.3-5.5-6.8c0-2.3,0.5-4,1.5-5.2c1-1.2,2.4-1.8,4.3-1.8c1.4,0,2.6,0.3,3.7,0.9
			l-1,2.8c-0.5-0.2-1-0.4-1.4-0.6c-0.4-0.1-0.9-0.2-1.3-0.2c-1.7,0-2.5,1.3-2.5,4c0,2.6,0.8,3.9,2.5,3.9c0.6,0,1.2-0.1,1.7-0.3
			c0.5-0.2,1.1-0.5,1.6-0.9v3.1c-0.5,0.4-1.1,0.6-1.6,0.8C328.1,585.4,327.5,585.5,326.6,585.5z"/>
		<path class="st0" d="M344,585.3h-3.2v-7.8c0-1.9-0.6-2.9-1.9-2.9c-0.9,0-1.6,0.3-2,1s-0.6,1.8-0.6,3.4v6.3H333v-18.6h3.2v3.8
			c0,0.3,0,1-0.1,2.1l-0.1,1.1h0.2c0.7-1.3,1.9-2,3.4-2c1.4,0,2.5,0.4,3.2,1.3c0.7,0.8,1.1,2.1,1.1,3.6V585.3z"/>
		<path class="st0" d="M358,582.6c0.6,0,1.2-0.1,2-0.4v2.7c-0.8,0.4-1.8,0.6-3,0.6c-1.3,0-2.2-0.4-2.8-1.1c-0.6-0.7-0.9-1.8-0.9-3.3
			v-6.4h-1.6v-1.5l1.8-1.2l0.9-2.8h2.1v2.8h3.3v2.7h-3.3v6.4c0,0.5,0.1,0.9,0.4,1.1C357.2,582.5,357.5,582.6,358,582.6z"/>
		<path class="st0" d="M373.2,578.6c0,2.2-0.5,3.9-1.5,5.1c-1,1.2-2.4,1.8-4.3,1.8c-1.1,0-2.1-0.3-3-0.8c-0.9-0.6-1.5-1.4-2-2.4
			c-0.5-1.1-0.7-2.3-0.7-3.7c0-2.2,0.5-3.9,1.5-5.1c1-1.2,2.4-1.8,4.3-1.8c1.1,0,2.1,0.3,3,0.8c0.9,0.6,1.5,1.4,2,2.4
			C373,575.9,373.2,577.2,373.2,578.6z M365,578.6c0,1.3,0.2,2.3,0.6,3c0.4,0.7,1,1,1.9,1c0.9,0,1.5-0.3,1.9-1
			c0.4-0.7,0.6-1.7,0.6-3c0-1.3-0.2-2.3-0.6-3c-0.4-0.7-1-1-1.9-1c-0.9,0-1.5,0.3-1.9,1C365.2,576.2,365,577.2,365,578.6z"/>
		<path class="st0" d="M379.8,571.9h3.5l2.2,7.5c0.2,0.7,0.3,1.4,0.4,2.3h0.1c0.1-0.8,0.2-1.6,0.5-2.3l2.2-7.5h3.5l-5,15.1
			c-0.5,1.4-1.1,2.4-2,3.1c-0.9,0.7-1.8,1-3,1c-0.6,0-1.1-0.1-1.6-0.2V588c0.4,0.1,0.8,0.2,1.3,0.2c0.6,0,1.1-0.2,1.5-0.6
			c0.4-0.4,0.8-1,1-1.8l0.2-0.7L379.8,571.9z"/>
		<path class="st0" d="M404.7,578.6c0,2.2-0.5,3.9-1.5,5.1c-1,1.2-2.4,1.8-4.3,1.8c-1.1,0-2.1-0.3-3-0.8c-0.9-0.6-1.5-1.4-2-2.4
			c-0.5-1.1-0.7-2.3-0.7-3.7c0-2.2,0.5-3.9,1.5-5.1c1-1.2,2.4-1.8,4.3-1.8c1.1,0,2.1,0.3,3,0.8c0.9,0.6,1.5,1.4,2,2.4
			C404.5,575.9,404.7,577.2,404.7,578.6z M396.5,578.6c0,1.3,0.2,2.3,0.6,3c0.4,0.7,1,1,1.9,1c0.9,0,1.5-0.3,1.9-1
			c0.4-0.7,0.6-1.7,0.6-3c0-1.3-0.2-2.3-0.6-3c-0.4-0.7-1-1-1.9-1c-0.9,0-1.5,0.3-1.9,1C396.7,576.2,396.5,577.2,396.5,578.6z"/>
		<path class="st0" d="M415.8,585.3l-0.4-1.7h-0.2c-0.3,0.6-0.8,1.1-1.5,1.4c-0.6,0.3-1.4,0.5-2.2,0.5c-1.4,0-2.4-0.4-3.2-1.3
			c-0.7-0.8-1.1-2-1.1-3.6v-8.7h3.2v7.8c0,1,0.2,1.7,0.5,2.2c0.3,0.5,0.8,0.7,1.5,0.7c0.9,0,1.6-0.3,2-1c0.4-0.7,0.6-1.8,0.6-3.4
			v-6.3h3.2v13.3H415.8z"/>
		<path class="st0" d="M428.3,571.7c0.4,0,0.8,0,1.1,0.1l-0.2,3.4c-0.3-0.1-0.6-0.1-1-0.1c-1,0-1.8,0.3-2.4,0.9
			c-0.6,0.6-0.9,1.4-0.9,2.5v6.8h-3.2v-13.3h2.5l0.5,2.2h0.2c0.4-0.7,0.9-1.4,1.5-1.8C426.9,571.9,427.6,571.7,428.3,571.7z"/>
		<path class="st0" d="M445.5,581.3c0,1.4-0.4,2.4-1.3,3.1c-0.8,0.7-2.1,1.1-3.8,1.1c-0.9,0-1.6-0.1-2.2-0.2
			c-0.6-0.1-1.2-0.3-1.7-0.6v-3c0.6,0.3,1.3,0.6,2,0.8c0.8,0.2,1.4,0.3,2,0.3c1.2,0,1.8-0.4,1.8-1.1c0-0.3-0.1-0.5-0.2-0.7
			c-0.2-0.2-0.4-0.4-0.8-0.6c-0.4-0.2-0.9-0.5-1.5-0.8c-0.9-0.4-1.6-0.8-2-1.2c-0.4-0.4-0.7-0.8-0.9-1.3c-0.2-0.5-0.3-1.1-0.3-1.7
			c0-1.2,0.4-2.1,1.2-2.8c0.8-0.6,2-1,3.5-1c1.4,0,2.8,0.4,4.2,1.1l-1,2.6c-0.6-0.3-1.2-0.5-1.7-0.7c-0.5-0.2-1-0.3-1.6-0.3
			c-1,0-1.4,0.3-1.4,0.9c0,0.3,0.2,0.6,0.5,0.8c0.3,0.2,1,0.6,2,1.1c0.9,0.4,1.6,0.8,2,1.2c0.4,0.4,0.8,0.8,1,1.3
			C445.4,580.1,445.5,580.6,445.5,581.3z"/>
		<path class="st0" d="M459,585.3h-3.2v-7.8c0-1.9-0.6-2.9-1.9-2.9c-0.9,0-1.6,0.3-2,1s-0.6,1.8-0.6,3.4v6.3H448v-18.6h3.2v3.8
			c0,0.3,0,1-0.1,2.1l-0.1,1.1h0.2c0.7-1.3,1.9-2,3.4-2c1.4,0,2.5,0.4,3.2,1.3c0.7,0.8,1.1,2.1,1.1,3.6V585.3z"/>
		<path class="st0" d="M469.9,585.3l-0.6-1.8h-0.1c-0.5,0.8-1.1,1.3-1.7,1.6c-0.6,0.3-1.3,0.4-2.3,0.4c-1.1,0-2-0.4-2.7-1.1
			c-0.7-0.7-1-1.8-1-3.1c0-1.4,0.4-2.5,1.3-3.1s2.2-1,4-1.1l2.1-0.1v-0.6c0-1.4-0.6-2-1.8-2c-0.9,0-2.1,0.3-3.3,1l-1.1-2.5
			c1.4-0.8,2.9-1.2,4.5-1.2c1.6,0,2.8,0.4,3.7,1.2c0.8,0.8,1.3,2,1.3,3.6v8.9H469.9z M468.9,579.1l-1.3,0c-0.9,0-1.6,0.2-2.1,0.6
			c-0.5,0.4-0.7,0.9-0.7,1.6c0,1,0.5,1.5,1.6,1.5c0.8,0,1.4-0.2,1.8-0.7c0.5-0.5,0.7-1.1,0.7-1.9V579.1z"/>
		<path class="st0" d="M482,585.5c-1.4,0-2.5-0.6-3.3-1.7h-0.2c0.1,1.1,0.2,1.8,0.2,1.9v5.4h-3.2v-19.2h2.6l0.5,1.7h0.1
			c0.8-1.3,1.9-2,3.4-2c1.4,0,2.5,0.6,3.3,1.8c0.8,1.2,1.2,2.9,1.2,5.1c0,1.4-0.2,2.7-0.6,3.7c-0.4,1.1-0.9,1.9-1.6,2.4
			C483.7,585.2,482.9,585.5,482,585.5z M481,574.6c-0.8,0-1.4,0.3-1.8,0.8c-0.4,0.6-0.6,1.5-0.6,2.7v0.4c0,1.4,0.2,2.5,0.6,3.1
			c0.4,0.6,1,0.9,1.8,0.9c1.5,0,2.2-1.3,2.2-4c0-1.3-0.2-2.3-0.5-3C482.3,574.9,481.8,574.6,481,574.6z"/>
		<path class="st0" d="M494.6,585.5c-1.9,0-3.4-0.6-4.5-1.8c-1.1-1.2-1.6-2.9-1.6-5c0-2.2,0.5-4,1.5-5.2c1-1.2,2.4-1.8,4.1-1.8
			c1.7,0,3,0.5,3.9,1.6c0.9,1.1,1.4,2.6,1.4,4.5v1.8h-7.7c0,1,0.3,1.8,0.8,2.4c0.5,0.6,1.2,0.9,2.1,0.9c0.7,0,1.4-0.1,2-0.3
			c0.6-0.2,1.3-0.4,2-0.8v2.8c-0.6,0.3-1.2,0.6-1.8,0.7C496.3,585.4,495.5,585.5,494.6,585.5z M494.1,574.3c-0.7,0-1.2,0.2-1.6,0.7
			c-0.4,0.5-0.6,1.2-0.7,2.1h4.5c0-0.9-0.2-1.6-0.6-2.1C495.4,574.5,494.8,574.3,494.1,574.3z"/>
		<path class="st0" d="M505.2,578l1.4-2l3.3-4.1h3.7l-4.7,5.8l5,7.6h-3.7l-3.4-5.4l-1.4,1.3v4.2h-3.2v-18.6h3.2v8.3L505.2,578
			L505.2,578z"/>
		<path class="st0" d="M520.9,585.5c-1.9,0-3.4-0.6-4.5-1.8c-1.1-1.2-1.6-2.9-1.6-5c0-2.2,0.5-4,1.5-5.2c1-1.2,2.4-1.8,4.1-1.8
			c1.7,0,3,0.5,3.9,1.6c0.9,1.1,1.4,2.6,1.4,4.5v1.8h-7.7c0,1,0.3,1.8,0.8,2.4c0.5,0.6,1.2,0.9,2.1,0.9c0.7,0,1.4-0.1,2-0.3
			s1.3-0.4,2-0.8v2.8c-0.6,0.3-1.2,0.6-1.8,0.7C522.7,585.4,521.9,585.5,520.9,585.5z M520.5,574.3c-0.7,0-1.2,0.2-1.6,0.7
			c-0.4,0.5-0.6,1.2-0.7,2.1h4.5c0-0.9-0.2-1.6-0.6-2.1C521.7,574.5,521.2,574.3,520.5,574.3z"/>
		<path class="st0" d="M526.7,571.9h3.5l2.2,7.5c0.2,0.7,0.3,1.4,0.4,2.3h0.1c0.1-0.8,0.2-1.6,0.5-2.3l2.2-7.5h3.5l-5,15.1
			c-0.5,1.4-1.1,2.4-2,3.1c-0.9,0.7-1.8,1-3,1c-0.6,0-1.1-0.1-1.6-0.2V588c0.4,0.1,0.8,0.2,1.3,0.2c0.6,0,1.1-0.2,1.5-0.6
			c0.4-0.4,0.8-1,1-1.8l0.2-0.7L526.7,571.9z"/>
		<path class="st0" d="M549.1,581.3c0,1.4-0.4,2.4-1.3,3.1c-0.8,0.7-2.1,1.1-3.8,1.1c-0.9,0-1.6-0.1-2.2-0.2
			c-0.6-0.1-1.2-0.3-1.7-0.6v-3c0.6,0.3,1.3,0.6,2,0.8c0.8,0.2,1.4,0.3,2,0.3c1.2,0,1.8-0.4,1.8-1.1c0-0.3-0.1-0.5-0.2-0.7
			c-0.2-0.2-0.4-0.4-0.8-0.6c-0.4-0.2-0.9-0.5-1.5-0.8c-0.9-0.4-1.6-0.8-2-1.2c-0.4-0.4-0.7-0.8-0.9-1.3c-0.2-0.5-0.3-1.1-0.3-1.7
			c0-1.2,0.4-2.1,1.2-2.8c0.8-0.6,2-1,3.5-1c1.4,0,2.8,0.4,4.2,1.1l-1,2.6c-0.6-0.3-1.2-0.5-1.7-0.7c-0.5-0.2-1-0.3-1.6-0.3
			c-1,0-1.4,0.3-1.4,0.9c0,0.3,0.2,0.6,0.5,0.8c0.3,0.2,1,0.6,2,1.1c0.9,0.4,1.6,0.8,2,1.2c0.4,0.4,0.8,0.8,1,1.3
			C549,580.1,549.1,580.6,549.1,581.3z"/>
		<path class="st0" d="M152,612.7h3.5l2.2,7.5c0.2,0.7,0.3,1.4,0.4,2.3h0.1c0.1-0.8,0.2-1.6,0.5-2.3l2.2-7.5h3.5l-5,15.1
			c-0.5,1.4-1.1,2.4-2,3.1c-0.9,0.7-1.8,1-3,1c-0.6,0-1.1-0.1-1.6-0.2v-2.9c0.4,0.1,0.8,0.2,1.3,0.2c0.6,0,1.1-0.2,1.5-0.6
			c0.4-0.4,0.8-1,1-1.8l0.2-0.7L152,612.7z"/>
		<path class="st0" d="M176.8,619.3c0,2.2-0.5,3.9-1.5,5.1c-1,1.2-2.4,1.8-4.3,1.8c-1.1,0-2.1-0.3-3-0.8c-0.9-0.6-1.5-1.4-2-2.4
			c-0.5-1.1-0.7-2.3-0.7-3.7c0-2.2,0.5-3.9,1.5-5.1c1-1.2,2.4-1.8,4.3-1.8c1.1,0,2.1,0.3,3,0.8c0.9,0.6,1.5,1.4,2,2.4
			C176.6,616.7,176.8,617.9,176.8,619.3z M168.6,619.3c0,1.3,0.2,2.3,0.6,3c0.4,0.7,1,1,1.9,1c0.9,0,1.5-0.3,1.9-1
			c0.4-0.7,0.6-1.7,0.6-3c0-1.3-0.2-2.3-0.6-3c-0.4-0.7-1-1-1.9-1c-0.9,0-1.5,0.3-1.9,1C168.8,617,168.6,618,168.6,619.3z"/>
		<path class="st0" d="M187.9,626l-0.4-1.7h-0.2c-0.3,0.6-0.8,1.1-1.5,1.4c-0.6,0.3-1.4,0.5-2.2,0.5c-1.4,0-2.4-0.4-3.2-1.3
			c-0.7-0.8-1.1-2-1.1-3.6v-8.7h3.2v7.8c0,1,0.2,1.7,0.5,2.2c0.3,0.5,0.8,0.7,1.5,0.7c0.9,0,1.6-0.3,2-1c0.4-0.7,0.6-1.8,0.6-3.4
			v-6.3h3.2V626H187.9z"/>
		<path class="st0" d="M207,626l-0.6-1.8h-0.1c-0.5,0.8-1.1,1.3-1.7,1.6c-0.6,0.3-1.3,0.4-2.3,0.4c-1.1,0-2-0.4-2.7-1.1
			c-0.7-0.7-1-1.8-1-3.1c0-1.4,0.4-2.5,1.3-3.1c0.9-0.7,2.2-1,4-1.1l2.1-0.1v-0.6c0-1.4-0.6-2-1.8-2c-0.9,0-2.1,0.3-3.3,1l-1.1-2.5
			c1.4-0.8,2.9-1.2,4.5-1.2c1.6,0,2.8,0.4,3.7,1.2c0.8,0.8,1.3,2,1.3,3.6v8.9H207z M206.1,619.8l-1.3,0c-0.9,0-1.6,0.2-2.1,0.6
			c-0.5,0.4-0.7,0.9-0.7,1.6c0,1,0.5,1.5,1.6,1.5c0.8,0,1.4-0.2,1.8-0.7c0.5-0.5,0.7-1.1,0.7-1.9V619.8z"/>
		<path class="st0" d="M219.2,612.4c0.4,0,0.8,0,1.1,0.1l-0.2,3.4c-0.3-0.1-0.6-0.1-1-0.1c-1,0-1.8,0.3-2.4,0.9
			c-0.6,0.6-0.9,1.4-0.9,2.5v6.8h-3.2v-13.3h2.5l0.5,2.2h0.2c0.4-0.7,0.9-1.4,1.5-1.8C217.8,612.6,218.5,612.4,219.2,612.4z"/>
		<path class="st0" d="M227.9,626.2c-1.9,0-3.4-0.6-4.5-1.8c-1.1-1.2-1.6-2.9-1.6-5c0-2.2,0.5-4,1.5-5.2c1-1.2,2.4-1.8,4.1-1.8
			c1.7,0,3,0.5,3.9,1.6c0.9,1.1,1.4,2.6,1.4,4.5v1.8h-7.7c0,1,0.3,1.8,0.8,2.4c0.5,0.6,1.2,0.9,2.1,0.9c0.7,0,1.4-0.1,2-0.3
			c0.6-0.2,1.3-0.4,2-0.8v2.8c-0.6,0.3-1.2,0.6-1.8,0.7C229.6,626.2,228.8,626.2,227.9,626.2z M227.4,615c-0.7,0-1.2,0.2-1.6,0.7
			c-0.4,0.5-0.6,1.2-0.7,2.1h4.5c0-0.9-0.2-1.6-0.6-2.1C228.6,615.2,228.1,615,227.4,615z"/>
		<path class="st0" d="M248.5,626l-0.6-1.8h-0.1c-0.5,0.8-1.1,1.3-1.7,1.6c-0.6,0.3-1.3,0.4-2.3,0.4c-1.1,0-2-0.4-2.7-1.1
			c-0.7-0.7-1-1.8-1-3.1c0-1.4,0.4-2.5,1.3-3.1s2.2-1,4-1.1l2.1-0.1v-0.6c0-1.4-0.6-2-1.8-2c-0.9,0-2.1,0.3-3.3,1l-1.1-2.5
			c1.4-0.8,2.9-1.2,4.5-1.2c1.6,0,2.8,0.4,3.7,1.2c0.8,0.8,1.3,2,1.3,3.6v8.9H248.5z M247.6,619.8l-1.3,0c-0.9,0-1.6,0.2-2.1,0.6
			c-0.5,0.4-0.7,0.9-0.7,1.6c0,1,0.5,1.5,1.6,1.5c0.8,0,1.4-0.2,1.8-0.7c0.5-0.5,0.7-1.1,0.7-1.9V619.8z"/>
		<path class="st0" d="M257.4,626h-3.2v-18.6h3.2V626z"/>
		<path class="st0" d="M264,626h-3.2v-18.6h3.2V626z"/>
		<path class="st0" d="M281.4,622c0,1.4-0.4,2.4-1.3,3.1c-0.8,0.7-2.1,1.1-3.8,1.1c-0.9,0-1.6-0.1-2.2-0.2c-0.6-0.1-1.2-0.3-1.7-0.6
			v-3c0.6,0.3,1.3,0.6,2,0.8c0.8,0.2,1.4,0.3,2,0.3c1.2,0,1.8-0.4,1.8-1.1c0-0.3-0.1-0.5-0.2-0.7c-0.2-0.2-0.4-0.4-0.8-0.6
			c-0.4-0.2-0.9-0.5-1.5-0.8c-0.9-0.4-1.6-0.8-2-1.2c-0.4-0.4-0.7-0.8-0.9-1.3c-0.2-0.5-0.3-1.1-0.3-1.7c0-1.2,0.4-2.1,1.2-2.8
			c0.8-0.6,2-1,3.5-1c1.4,0,2.8,0.4,4.2,1.1l-1,2.6c-0.6-0.3-1.2-0.5-1.7-0.7c-0.5-0.2-1-0.3-1.6-0.3c-1,0-1.4,0.3-1.4,0.9
			c0,0.3,0.2,0.6,0.5,0.8c0.3,0.2,1,0.6,2,1.1c0.9,0.4,1.6,0.8,2,1.2c0.4,0.4,0.8,0.8,1,1.3C281.3,620.8,281.4,621.4,281.4,622z"/>
		<path class="st0" d="M289.3,626.2c-1.9,0-3.4-0.6-4.5-1.8c-1.1-1.2-1.6-2.9-1.6-5c0-2.2,0.5-4,1.5-5.2c1-1.2,2.4-1.8,4.1-1.8
			c1.7,0,3,0.5,3.9,1.6c0.9,1.1,1.4,2.6,1.4,4.5v1.8h-7.7c0,1,0.3,1.8,0.8,2.4c0.5,0.6,1.2,0.9,2.1,0.9c0.7,0,1.4-0.1,2-0.3
			s1.3-0.4,2-0.8v2.8c-0.6,0.3-1.2,0.6-1.8,0.7S290.2,626.2,289.3,626.2z M288.8,615c-0.7,0-1.2,0.2-1.6,0.7
			c-0.4,0.5-0.6,1.2-0.7,2.1h4.5c0-0.9-0.2-1.6-0.6-2.1C290,615.2,289.5,615,288.8,615z"/>
		<path class="st0" d="M301.7,623.3c0.6,0,1.2-0.1,2-0.4v2.7c-0.8,0.4-1.8,0.6-3,0.6c-1.3,0-2.2-0.4-2.8-1.1
			c-0.6-0.7-0.9-1.8-0.9-3.3v-6.4h-1.6v-1.5l1.8-1.2l0.9-2.8h2.1v2.8h3.3v2.7h-3.3v6.4c0,0.5,0.1,0.9,0.4,1.1
			C301,623.2,301.3,623.3,301.7,623.3z"/>
		<path class="st0" d="M305.7,624.3c0-0.7,0.2-1.2,0.5-1.5c0.3-0.3,0.8-0.5,1.4-0.5c0.6,0,1,0.2,1.4,0.5c0.3,0.4,0.5,0.9,0.5,1.5
			c0,0.6-0.2,1.1-0.5,1.5c-0.3,0.4-0.8,0.5-1.4,0.5c-0.6,0-1.1-0.2-1.4-0.5C305.9,625.4,305.7,624.9,305.7,624.3z"/>
		<path class="st3" d="M129.1,443.4c5.4,0,9.8,4.4,9.8,9.8c0,5.4-4.4,9.8-9.8,9.8c-5.4,0-9.8-4.4-9.8-9.8
			C119.3,447.8,123.7,443.4,129.1,443.4z M128,449.1l3,2.9h-7.2c-0.5,0-0.9,0.4-0.9,0.9v0.6c0,0.5,0.4,0.9,0.9,0.9h7.2l-3,2.9
			c-0.4,0.4-0.4,1,0,1.4l0.4,0.4c0.4,0.4,1,0.4,1.3,0l5.2-5.2c0.4-0.4,0.4-1,0-1.3l-5.2-5.2c-0.4-0.4-1-0.4-1.3,0l-0.4,0.4
			C127.6,448.1,127.6,448.8,128,449.1z"/>
		<path class="st3" d="M129.1,486.8c5.4,0,9.8,4.4,9.8,9.8c0,5.4-4.4,9.8-9.8,9.8c-5.4,0-9.8-4.4-9.8-9.8
			C119.3,491.2,123.7,486.8,129.1,486.8z M128,492.5l3,2.9h-7.2c-0.5,0-0.9,0.4-0.9,0.9v0.6c0,0.5,0.4,0.9,0.9,0.9h7.2l-3,2.9
			c-0.4,0.4-0.4,1,0,1.4l0.4,0.4c0.4,0.4,1,0.4,1.3,0l5.2-5.2c0.4-0.4,0.4-1,0-1.3l-5.2-5.2c-0.4-0.4-1-0.4-1.3,0l-0.4,0.4
			C127.6,491.5,127.6,492.2,128,492.5z"/>
		<path class="st3" d="M129.1,527.2c5.4,0,9.8,4.4,9.8,9.8s-4.4,9.8-9.8,9.8c-5.4,0-9.8-4.4-9.8-9.8S123.7,527.2,129.1,527.2z
			 M128,532.9l3,2.9h-7.2c-0.5,0-0.9,0.4-0.9,0.9v0.6c0,0.5,0.4,0.9,0.9,0.9h7.2l-3,2.9c-0.4,0.4-0.4,1,0,1.4l0.4,0.4
			c0.4,0.4,1,0.4,1.3,0l5.2-5.2c0.4-0.4,0.4-1,0-1.3l-5.2-5.2c-0.4-0.4-1-0.4-1.3,0l-0.4,0.4C127.6,531.9,127.6,532.5,128,532.9z"/>
		<path class="st3" d="M129.1,568.3c5.4,0,9.8,4.4,9.8,9.8s-4.4,9.8-9.8,9.8c-5.4,0-9.8-4.4-9.8-9.8S123.7,568.3,129.1,568.3z
			 M128,574l3,2.9h-7.2c-0.5,0-0.9,0.4-0.9,0.9v0.6c0,0.5,0.4,0.9,0.9,0.9h7.2l-3,2.9c-0.4,0.4-0.4,1,0,1.4l0.4,0.4
			c0.4,0.4,1,0.4,1.3,0l5.2-5.2c0.4-0.4,0.4-1,0-1.3l-5.2-5.2c-0.4-0.4-1-0.4-1.3,0l-0.4,0.4C127.6,573,127.6,573.6,128,574z"/>
		<path class="st3" d="M129.1,610c5.4,0,9.8,4.4,9.8,9.8s-4.4,9.8-9.8,9.8c-5.4,0-9.8-4.4-9.8-9.8S123.7,610,129.1,610z M128,615.7
			l3,2.9h-7.2c-0.5,0-0.9,0.4-0.9,0.9v0.6c0,0.5,0.4,0.9,0.9,0.9h7.2l-3,2.9c-0.4,0.4-0.4,1,0,1.4l0.4,0.4c0.4,0.4,1,0.4,1.3,0
			l5.2-5.2c0.4-0.4,0.4-1,0-1.3l-5.2-5.2c-0.4-0.4-1-0.4-1.3,0l-0.4,0.4C127.6,614.7,127.6,615.3,128,615.7z"/>
	</g>
	<g>
		<g>
			<path class="st2" d="M80.6,89.1c0,1.8-0.6,3.2-1.7,4.3c-1.2,1-2.8,1.6-4.8,1.6c-1.9,0-3.6-0.4-5-1.2v-3.9c1.2,0.6,2.2,1,3,1.3
				s1.6,0.4,2.3,0.4c0.8,0,1.5-0.2,1.9-0.5s0.7-0.9,0.7-1.6c0-0.4-0.1-0.7-0.3-1c-0.2-0.3-0.5-0.6-0.9-0.9c-0.4-0.3-1.1-0.7-2.3-1.4
				c-1.1-0.6-1.9-1.1-2.4-1.7c-0.5-0.5-1-1.1-1.3-1.8c-0.3-0.7-0.5-1.5-0.5-2.5c0-1.8,0.5-3.2,1.6-4.2s2.5-1.5,4.4-1.5
				c0.9,0,1.8,0.1,2.6,0.4s1.7,0.6,2.6,1l-1.2,3.3c-0.9-0.4-1.7-0.7-2.4-0.9c-0.6-0.2-1.2-0.3-1.8-0.3c-0.7,0-1.3,0.2-1.6,0.6
				c-0.4,0.4-0.6,0.9-0.6,1.5c0,0.4,0.1,0.7,0.2,1c0.2,0.3,0.4,0.5,0.7,0.8c0.3,0.3,1.1,0.7,2.4,1.4c1.7,0.9,2.8,1.8,3.4,2.7
				C80.3,86.7,80.6,87.8,80.6,89.1z"/>
			<path class="st2" d="M91,95c-1.6,0-2.9-0.7-3.8-2H87c0.1,1.3,0.2,2,0.2,2.2v6.2h-3.7v-22h3l0.5,2h0.2c0.9-1.5,2.2-2.3,3.9-2.3
				c1.6,0,2.9,0.7,3.8,2.1c0.9,1.4,1.4,3.3,1.4,5.8c0,1.6-0.2,3-0.6,4.3c-0.4,1.2-1,2.1-1.8,2.7S92.1,95,91,95z M89.9,82.5
				c-0.9,0-1.6,0.3-2,1s-0.6,1.7-0.7,3.1V87c0,1.6,0.2,2.8,0.7,3.5s1.1,1.1,2.1,1.1c1.7,0,2.5-1.5,2.5-4.6c0-1.5-0.2-2.6-0.6-3.4
				C91.4,82.8,90.8,82.5,89.9,82.5z"/>
			<path class="st2" d="M107.9,94.7l-0.7-2.1h-0.1c-0.6,0.9-1.3,1.5-1.9,1.8s-1.5,0.5-2.6,0.5c-1.3,0-2.3-0.4-3.1-1.3
				c-0.8-0.8-1.1-2-1.1-3.6c0-1.6,0.5-2.8,1.5-3.6c1-0.8,2.5-1.2,4.6-1.3l2.4-0.1v-0.7c0-1.5-0.7-2.3-2.1-2.3
				c-1.1,0-2.4,0.4-3.8,1.1l-1.2-2.8c1.6-0.9,3.3-1.4,5.2-1.4c1.8,0,3.2,0.4,4.2,1.3c1,0.9,1.5,2.3,1.5,4.1v10.2H107.9z M106.8,87.6
				l-1.4,0.1c-1.1,0-1.9,0.3-2.4,0.7c-0.5,0.4-0.8,1-0.8,1.8c0,1.2,0.6,1.8,1.8,1.8c0.9,0,1.5-0.3,2.1-0.8c0.5-0.6,0.8-1.3,0.8-2.2
				V87.6z"/>
			<path class="st2" d="M121.9,79.1c0.5,0,0.9,0,1.3,0.1l-0.3,3.9c-0.3-0.1-0.7-0.1-1.1-0.1c-1.2,0-2.1,0.3-2.8,1s-1,1.6-1,2.9v7.8
				h-3.7V79.4h2.8l0.5,2.6h0.2c0.4-0.9,1-1.5,1.7-2.1C120.3,79.4,121.1,79.1,121.9,79.1z"/>
			<path class="st2" d="M129.2,86.4l1.6-2.3l3.8-4.6h4.2l-5.4,6.6l5.7,8.7h-4.3l-3.9-6.2l-1.6,1.4v4.8h-3.7V73.4h3.7v9.5L129.2,86.4
				L129.2,86.4z"/>
			<path class="st2" d="M156.2,94.7l-0.7-2.1h-0.1c-0.6,0.9-1.3,1.5-1.9,1.8S152,95,150.9,95c-1.3,0-2.3-0.4-3.1-1.3
				c-0.8-0.8-1.1-2-1.1-3.6c0-1.6,0.5-2.8,1.5-3.6c1-0.8,2.5-1.2,4.6-1.3l2.4-0.1v-0.7c0-1.5-0.7-2.3-2.1-2.3
				c-1.1,0-2.4,0.4-3.8,1.1l-1.2-2.8c1.6-0.9,3.3-1.4,5.2-1.4c1.8,0,3.2,0.4,4.2,1.3c1,0.9,1.5,2.3,1.5,4.1v10.2H156.2z M155.1,87.6
				l-1.4,0.1c-1.1,0-1.9,0.3-2.4,0.7c-0.5,0.4-0.8,1-0.8,1.8c0,1.2,0.6,1.8,1.8,1.8c0.9,0,1.5-0.3,2.1-0.8c0.5-0.6,0.8-1.3,0.8-2.2
				V87.6z"/>
			<path class="st2" d="M170.2,79.1c0.5,0,0.9,0,1.3,0.1l-0.3,3.9c-0.3-0.1-0.7-0.1-1.1-0.1c-1.2,0-2.1,0.3-2.8,1s-1,1.6-1,2.9v7.8
				h-3.7V79.4h2.8L166,82h0.2c0.4-0.9,1-1.5,1.7-2.1C168.6,79.4,169.4,79.1,170.2,79.1z"/>
			<path class="st2" d="M187.9,82.5h-3.2v12.2H181V82.5h-2v-2l2-1.1v-1.1c0-1.7,0.4-3,1.1-3.8c0.8-0.8,2-1.2,3.7-1.2
				c1.3,0,2.4,0.2,3.4,0.6l-0.9,3.1c-0.7-0.3-1.4-0.4-2.1-0.4c-0.5,0-0.9,0.2-1.1,0.5c-0.2,0.4-0.4,0.8-0.4,1.3v1h3.2V82.5z"/>
			<path class="st2" d="M198.7,94.7l-0.7-2.1h-0.1c-0.6,0.9-1.3,1.5-1.9,1.8s-1.5,0.5-2.6,0.5c-1.3,0-2.3-0.4-3.1-1.3
				c-0.8-0.8-1.1-2-1.1-3.6c0-1.6,0.5-2.8,1.5-3.6c1-0.8,2.5-1.2,4.6-1.3l2.4-0.1v-0.7c0-1.5-0.7-2.3-2.1-2.3
				c-1.1,0-2.4,0.4-3.8,1.1l-1.2-2.8c1.6-0.9,3.3-1.4,5.2-1.4c1.8,0,3.2,0.4,4.2,1.3c1,0.9,1.5,2.3,1.5,4.1v10.2H198.7z M197.6,87.6
				l-1.4,0.1c-1.1,0-1.9,0.3-2.4,0.7c-0.5,0.4-0.8,1-0.8,1.8c0,1.2,0.6,1.8,1.8,1.8c0.9,0,1.5-0.3,2.1-0.8c0.5-0.6,0.8-1.3,0.8-2.2
				V87.6z"/>
			<path class="st2" d="M210.7,95c-4.2,0-6.4-2.6-6.4-7.8c0-2.6,0.6-4.6,1.7-6c1.2-1.4,2.8-2.1,5-2.1c1.6,0,3,0.3,4.2,1l-1.1,3.2
				c-0.6-0.3-1.1-0.5-1.6-0.6c-0.5-0.2-1-0.3-1.5-0.3c-1.9,0-2.9,1.5-2.9,4.6c0,3,1,4.5,2.9,4.5c0.7,0,1.4-0.1,2-0.3
				c0.6-0.2,1.2-0.5,1.8-1v3.6c-0.6,0.4-1.2,0.7-1.8,0.9S211.6,95,210.7,95z"/>
			<path class="st2" d="M217.8,75.5c0-1.4,0.7-2,2-2c1.3,0,2,0.7,2,2c0,0.6-0.2,1.2-0.5,1.5c-0.3,0.4-0.8,0.5-1.5,0.5
				C218.5,77.5,217.8,76.8,217.8,75.5z M221.6,94.7h-3.7V79.4h3.7V94.7z"/>
			<path class="st2" d="M234.2,94.7l-0.7-2.1h-0.1c-0.6,0.9-1.3,1.5-1.9,1.8s-1.5,0.5-2.6,0.5c-1.3,0-2.3-0.4-3.1-1.3
				c-0.8-0.8-1.1-2-1.1-3.6c0-1.6,0.5-2.8,1.5-3.6c1-0.8,2.5-1.2,4.6-1.3l2.4-0.1v-0.7c0-1.5-0.7-2.3-2.1-2.3
				c-1.1,0-2.4,0.4-3.8,1.1l-1.2-2.8c1.6-0.9,3.3-1.4,5.2-1.4c1.8,0,3.2,0.4,4.2,1.3c1,0.9,1.5,2.3,1.5,4.1v10.2H234.2z M233.1,87.6
				l-1.4,0.1c-1.1,0-1.9,0.3-2.4,0.7c-0.5,0.4-0.8,1-0.8,1.8c0,1.2,0.6,1.8,1.8,1.8c0.9,0,1.5-0.3,2.1-0.8c0.5-0.6,0.8-1.3,0.8-2.2
				V87.6z"/>
			<path class="st2" d="M244.3,94.7h-3.7V73.4h3.7V94.7z"/>
			<path class="st2" d="M260.8,95c-2.2,0-3.9-0.7-5.1-2c-1.2-1.4-1.8-3.3-1.8-5.8c0-2.6,0.6-4.5,1.7-5.9c1.1-1.4,2.7-2.1,4.7-2.1
				c1.9,0,3.4,0.6,4.5,1.8c1.1,1.2,1.6,2.9,1.6,5.1v2h-8.8c0,1.2,0.4,2.1,0.9,2.8c0.6,0.7,1.4,1,2.5,1c0.8,0,1.6-0.1,2.3-0.3
				c0.7-0.2,1.5-0.5,2.3-0.9v3.2c-0.6,0.4-1.3,0.6-2.1,0.8C262.8,94.9,261.9,95,260.8,95z M260.3,82.1c-0.8,0-1.4,0.3-1.8,0.8
				s-0.7,1.4-0.8,2.4h5.2c0-1-0.3-1.8-0.7-2.4C261.7,82.4,261.1,82.1,260.3,82.1z"/>
			<path class="st2" d="M272.2,86.9l-4.4-7.5h4.2l2.6,4.9l2.7-4.9h4.2l-4.4,7.5l4.6,7.8h-4.2l-2.9-5.2l-2.9,5.2h-4.2L272.2,86.9z"/>
			<path class="st2" d="M291.3,95c-1.6,0-2.9-0.7-3.8-2h-0.2c0.1,1.3,0.2,2,0.2,2.2v6.2h-3.7v-22h3l0.5,2h0.2
				c0.9-1.5,2.2-2.3,3.9-2.3c1.6,0,2.9,0.7,3.8,2.1c0.9,1.4,1.4,3.3,1.4,5.8c0,1.6-0.2,3-0.6,4.3c-0.4,1.2-1,2.1-1.8,2.7
				S292.3,95,291.3,95z M290.2,82.5c-0.9,0-1.6,0.3-2,1s-0.6,1.7-0.7,3.1V87c0,1.6,0.2,2.8,0.7,3.5s1.1,1.1,2.1,1.1
				c1.7,0,2.5-1.5,2.5-4.6c0-1.5-0.2-2.6-0.6-3.4C291.7,82.8,291,82.5,290.2,82.5z"/>
			<path class="st2" d="M307.2,79.1c0.5,0,0.9,0,1.3,0.1l-0.3,3.9c-0.3-0.1-0.7-0.1-1.1-0.1c-1.2,0-2.1,0.3-2.8,1s-1,1.6-1,2.9v7.8
				h-3.7V79.4h2.8l0.5,2.6h0.2c0.4-0.9,1-1.5,1.7-2.1C305.5,79.4,306.3,79.1,307.2,79.1z"/>
			<path class="st2" d="M317,95c-2.2,0-3.9-0.7-5.1-2c-1.2-1.4-1.8-3.3-1.8-5.8c0-2.6,0.6-4.5,1.7-5.9c1.1-1.4,2.7-2.1,4.7-2.1
				c1.9,0,3.4,0.6,4.5,1.8c1.1,1.2,1.6,2.9,1.6,5.1v2h-8.8c0,1.2,0.4,2.1,0.9,2.8c0.6,0.7,1.4,1,2.5,1c0.8,0,1.6-0.1,2.3-0.3
				c0.7-0.2,1.5-0.5,2.3-0.9v3.2c-0.6,0.4-1.3,0.6-2.1,0.8C319,94.9,318.1,95,317,95z M316.5,82.1c-0.8,0-1.4,0.3-1.8,0.8
				s-0.7,1.4-0.8,2.4h5.2c0-1-0.3-1.8-0.7-2.4C317.9,82.4,317.3,82.1,316.5,82.1z"/>
			<path class="st2" d="M335.1,90.2c0,1.6-0.5,2.8-1.5,3.6c-1,0.8-2.4,1.2-4.3,1.2c-1,0-1.8-0.1-2.5-0.2s-1.4-0.4-2-0.7v-3.4
				c0.7,0.4,1.5,0.7,2.3,0.9c0.9,0.2,1.6,0.4,2.3,0.4c1.3,0,2-0.4,2-1.3c0-0.3-0.1-0.6-0.3-0.8s-0.5-0.4-0.9-0.7
				c-0.4-0.3-1-0.6-1.8-0.9c-1-0.5-1.8-0.9-2.3-1.4c-0.5-0.4-0.8-0.9-1.1-1.4c-0.2-0.5-0.3-1.2-0.3-2c0-1.4,0.5-2.4,1.4-3.2
				c0.9-0.7,2.3-1.1,4-1.1c1.6,0,3.2,0.4,4.8,1.2l-1.1,3c-0.7-0.3-1.3-0.6-1.9-0.8c-0.6-0.2-1.2-0.3-1.8-0.3c-1.1,0-1.6,0.3-1.6,1
				c0,0.4,0.2,0.7,0.5,1c0.4,0.3,1.1,0.7,2.3,1.2c1.1,0.5,1.8,0.9,2.3,1.4c0.5,0.4,0.9,0.9,1.1,1.4S335.1,89.4,335.1,90.2z"/>
			<path class="st2" d="M347.5,90.2c0,1.6-0.5,2.8-1.5,3.6c-1,0.8-2.4,1.2-4.3,1.2c-1,0-1.8-0.1-2.5-0.2s-1.4-0.4-2-0.7v-3.4
				c0.7,0.4,1.5,0.7,2.3,0.9c0.9,0.2,1.6,0.4,2.3,0.4c1.3,0,2-0.4,2-1.3c0-0.3-0.1-0.6-0.3-0.8s-0.5-0.4-0.9-0.7
				c-0.4-0.3-1-0.6-1.8-0.9c-1-0.5-1.8-0.9-2.3-1.4c-0.5-0.4-0.8-0.9-1.1-1.4c-0.2-0.5-0.3-1.2-0.3-2c0-1.4,0.5-2.4,1.4-3.2
				c0.9-0.7,2.3-1.1,4-1.1c1.6,0,3.2,0.4,4.8,1.2l-1.1,3c-0.7-0.3-1.3-0.6-1.9-0.8c-0.6-0.2-1.2-0.3-1.8-0.3c-1.1,0-1.6,0.3-1.6,1
				c0,0.4,0.2,0.7,0.5,1c0.4,0.3,1.1,0.7,2.3,1.2c1.1,0.5,1.8,0.9,2.3,1.4c0.5,0.4,0.9,0.9,1.1,1.4S347.5,89.4,347.5,90.2z"/>
			<path class="st2" d="M350.2,75.5c0-1.4,0.7-2,2-2c1.3,0,2,0.7,2,2c0,0.6-0.2,1.2-0.5,1.5c-0.3,0.4-0.8,0.5-1.5,0.5
				C350.9,77.5,350.2,76.8,350.2,75.5z M354.1,94.7h-3.7V79.4h3.7V94.7z"/>
			<path class="st2" d="M370.3,87c0,2.5-0.6,4.4-1.8,5.8c-1.2,1.4-2.8,2.1-4.9,2.1c-1.3,0-2.5-0.3-3.5-1c-1-0.6-1.8-1.6-2.3-2.8
				c-0.5-1.2-0.8-2.6-0.8-4.2c0-2.5,0.6-4.4,1.7-5.8c1.2-1.4,2.8-2.1,4.9-2.1c1.3,0,2.5,0.3,3.5,1c1,0.6,1.8,1.6,2.3,2.7
				C370.1,84,370.3,85.4,370.3,87z M360.9,87c0,1.5,0.2,2.7,0.7,3.4c0.4,0.8,1.2,1.2,2.2,1.2c1,0,1.7-0.4,2.1-1.2s0.7-1.9,0.7-3.4
				c0-1.5-0.2-2.6-0.7-3.4c-0.4-0.8-1.2-1.1-2.2-1.1c-1,0-1.7,0.4-2.1,1.1C361.2,84.4,360.9,85.5,360.9,87z"/>
			<path class="st2" d="M386,94.7h-3.7v-8.9c0-1.1-0.2-1.9-0.5-2.5c-0.3-0.6-0.9-0.8-1.7-0.8c-1,0-1.8,0.4-2.3,1.2
				c-0.5,0.8-0.7,2.1-0.7,3.9v7.2h-3.7V79.4h2.8l0.5,2h0.2c0.4-0.7,1-1.3,1.7-1.7c0.7-0.4,1.6-0.6,2.5-0.6c1.6,0,2.8,0.5,3.6,1.4
				c0.8,1,1.2,2.3,1.2,4.2V94.7z"/>
			<path class="st2" d="M403.7,95c-1.6,0-2.9-0.7-3.8-2h-0.2c0.1,1.3,0.2,2,0.2,2.2v6.2h-3.7v-22h3l0.5,2h0.2
				c0.9-1.5,2.2-2.3,3.9-2.3c1.6,0,2.9,0.7,3.8,2.1c0.9,1.4,1.4,3.3,1.4,5.8c0,1.6-0.2,3-0.6,4.3c-0.4,1.2-1,2.1-1.8,2.7
				S404.8,95,403.7,95z M402.6,82.5c-0.9,0-1.6,0.3-2,1s-0.6,1.7-0.7,3.1V87c0,1.6,0.2,2.8,0.7,3.5s1.1,1.1,2.1,1.1
				c1.7,0,2.5-1.5,2.5-4.6c0-1.5-0.2-2.6-0.6-3.4C404.2,82.8,403.5,82.5,402.6,82.5z"/>
			<path class="st2" d="M420.7,94.7l-0.7-2.1h-0.1c-0.6,0.9-1.3,1.5-1.9,1.8s-1.5,0.5-2.6,0.5c-1.3,0-2.3-0.4-3.1-1.3
				c-0.8-0.8-1.1-2-1.1-3.6c0-1.6,0.5-2.8,1.5-3.6c1-0.8,2.5-1.2,4.6-1.3l2.4-0.1v-0.7c0-1.5-0.7-2.3-2.1-2.3
				c-1.1,0-2.4,0.4-3.8,1.1l-1.2-2.8c1.6-0.9,3.3-1.4,5.2-1.4c1.8,0,3.2,0.4,4.2,1.3c1,0.9,1.5,2.3,1.5,4.1v10.2H420.7z M419.6,87.6
				l-1.4,0.1c-1.1,0-1.9,0.3-2.4,0.7c-0.5,0.4-0.8,1-0.8,1.8c0,1.2,0.6,1.8,1.8,1.8c0.9,0,1.5-0.3,2.1-0.8c0.5-0.6,0.8-1.3,0.8-2.2
				V87.6z"/>
			<path class="st2" d="M432.8,91.6c0.6,0,1.4-0.2,2.3-0.5v3.1c-0.9,0.5-2.1,0.7-3.4,0.7c-1.5,0-2.6-0.4-3.2-1.3
				c-0.7-0.8-1-2.1-1-3.8v-7.4h-1.8v-1.8l2-1.4l1.1-3.2h2.4v3.3h3.8v3.1h-3.8v7.4c0,0.6,0.1,1,0.4,1.3
				C431.9,91.5,432.3,91.6,432.8,91.6z"/>
			<path class="st2" d="M443.4,95c-4.2,0-6.4-2.6-6.4-7.8c0-2.6,0.6-4.6,1.7-6c1.2-1.4,2.8-2.1,5-2.1c1.6,0,3,0.3,4.2,1l-1.1,3.2
				c-0.6-0.3-1.1-0.5-1.6-0.6c-0.5-0.2-1-0.3-1.5-0.3c-1.9,0-2.9,1.5-2.9,4.6c0,3,1,4.5,2.9,4.5c0.7,0,1.4-0.1,2-0.3
				c0.6-0.2,1.2-0.5,1.8-1v3.6c-0.6,0.4-1.2,0.7-1.8,0.9S444.4,95,443.4,95z"/>
			<path class="st2" d="M463.3,94.7h-3.7v-8.9c0-2.2-0.7-3.3-2.2-3.3c-1,0-1.8,0.4-2.3,1.2c-0.5,0.8-0.7,2.1-0.7,3.9v7.2h-3.7V73.4
				h3.7v4.3c0,0.3,0,1.1-0.1,2.4l-0.1,1.2h0.2c0.8-1.5,2.1-2.2,3.9-2.2c1.6,0,2.8,0.5,3.6,1.4c0.8,1,1.2,2.4,1.2,4.2V94.7z"/>
			<path class="st2" d="M466.6,92.7c0-0.8,0.2-1.3,0.5-1.7c0.4-0.4,0.9-0.6,1.6-0.6c0.7,0,1.2,0.2,1.6,0.6c0.4,0.4,0.6,1,0.6,1.7
				c0,0.7-0.2,1.3-0.6,1.7s-0.9,0.6-1.6,0.6c-0.7,0-1.2-0.2-1.6-0.6S466.6,93.5,466.6,92.7z"/>
		</g>
		<path class="st0" d="M107,154.1h6.2v9c-1,0.4-1.9,0.6-2.8,0.8c-0.9,0.1-1.8,0.2-2.7,0.2c-2.3,0-4.1-0.8-5.4-2.3
			c-1.2-1.5-1.9-3.8-1.9-6.7c0-2.8,0.7-5,2.2-6.6c1.4-1.6,3.4-2.4,6-2.4c1.6,0,3.1,0.4,4.6,1.1l-1.1,3c-1.1-0.6-2.3-1-3.5-1
			c-1.4,0-2.6,0.5-3.4,1.6c-0.9,1.1-1.3,2.5-1.3,4.3c0,1.9,0.3,3.3,1,4.3c0.7,1,1.7,1.5,3,1.5c0.7,0,1.4-0.1,2.1-0.2v-3.6H107V154.1
			z"/>
		<path class="st0" d="M121.9,164.2c-1.9,0-3.4-0.6-4.5-1.8c-1.1-1.2-1.6-2.9-1.6-5c0-2.2,0.5-4,1.5-5.2c1-1.2,2.4-1.8,4.1-1.8
			c1.7,0,3,0.5,3.9,1.6c0.9,1.1,1.4,2.6,1.4,4.5v1.8h-7.7c0,1,0.3,1.8,0.8,2.4c0.5,0.6,1.2,0.9,2.1,0.9c0.7,0,1.4-0.1,2-0.3
			s1.3-0.4,2-0.8v2.8c-0.6,0.3-1.2,0.6-1.8,0.7S122.9,164.2,121.9,164.2z M121.5,152.9c-0.7,0-1.2,0.2-1.6,0.7
			c-0.4,0.5-0.6,1.2-0.7,2.1h4.5c0-0.9-0.2-1.6-0.6-2.1C122.7,153.2,122.2,152.9,121.5,152.9z"/>
		<path class="st0" d="M134.4,161.3c0.6,0,1.2-0.1,2-0.4v2.7c-0.8,0.4-1.8,0.6-3,0.6c-1.3,0-2.2-0.4-2.8-1.1
			c-0.6-0.7-0.9-1.8-0.9-3.3v-6.4h-1.6v-1.5l1.8-1.2l0.9-2.8h2.1v2.8h3.3v2.7H133v6.4c0,0.5,0.1,0.9,0.4,1.1
			C133.7,161.2,134,161.3,134.4,161.3z"/>
		<path class="st0" d="M142.8,150.6h3.5l2.2,7.5c0.2,0.7,0.3,1.4,0.4,2.3h0.1c0.1-0.8,0.2-1.6,0.5-2.3l2.2-7.5h3.5l-5,15.1
			c-0.5,1.4-1.1,2.4-2,3.1c-0.9,0.7-1.8,1-3,1c-0.6,0-1.1-0.1-1.6-0.2v-2.9c0.4,0.1,0.8,0.2,1.3,0.2c0.6,0,1.1-0.2,1.5-0.6
			c0.4-0.4,0.8-1,1-1.8l0.2-0.7L142.8,150.6z"/>
		<path class="st0" d="M167.7,157.2c0,2.2-0.5,3.9-1.5,5.1c-1,1.2-2.4,1.8-4.3,1.8c-1.1,0-2.1-0.3-3-0.8c-0.9-0.6-1.5-1.4-2-2.4
			c-0.5-1.1-0.7-2.3-0.7-3.7c0-2.2,0.5-3.9,1.5-5.1c1-1.2,2.4-1.8,4.3-1.8c1.1,0,2.1,0.3,3,0.8c0.9,0.6,1.5,1.4,2,2.4
			C167.5,154.6,167.7,155.8,167.7,157.2z M159.5,157.2c0,1.3,0.2,2.3,0.6,3c0.4,0.7,1,1,1.9,1c0.9,0,1.5-0.3,1.9-1
			c0.4-0.7,0.6-1.7,0.6-3c0-1.3-0.2-2.3-0.6-3c-0.4-0.7-1-1-1.9-1c-0.9,0-1.5,0.3-1.9,1C159.7,154.9,159.5,155.9,159.5,157.2z"/>
		<path class="st0" d="M178.8,163.9l-0.4-1.7h-0.2c-0.3,0.6-0.8,1.1-1.5,1.4c-0.6,0.3-1.4,0.5-2.2,0.5c-1.4,0-2.4-0.4-3.2-1.3
			c-0.7-0.8-1.1-2-1.1-3.6v-8.7h3.2v7.8c0,1,0.2,1.7,0.5,2.2c0.3,0.5,0.8,0.7,1.5,0.7c0.9,0,1.6-0.3,2-1c0.4-0.7,0.6-1.8,0.6-3.4
			v-6.3h3.2v13.3H178.8z"/>
		<path class="st0" d="M191.3,150.3c0.4,0,0.8,0,1.1,0.1l-0.2,3.4c-0.3-0.1-0.6-0.1-1-0.1c-1,0-1.8,0.3-2.4,0.9
			c-0.6,0.6-0.9,1.4-0.9,2.5v6.8h-3.2v-13.3h2.5l0.5,2.2h0.2c0.4-0.7,0.9-1.4,1.5-1.8C189.9,150.6,190.6,150.3,191.3,150.3z"/>
		<path class="st0" d="M205.6,164.2c-1.9,0-3.4-0.6-4.5-1.8c-1.1-1.2-1.6-2.9-1.6-5c0-2.2,0.5-4,1.5-5.2c1-1.2,2.4-1.8,4.1-1.8
			c1.7,0,3,0.5,3.9,1.6c0.9,1.1,1.4,2.6,1.4,4.5v1.8h-7.7c0,1,0.3,1.8,0.8,2.4c0.5,0.6,1.2,0.9,2.1,0.9c0.7,0,1.4-0.1,2-0.3
			c0.6-0.2,1.3-0.4,2-0.8v2.8c-0.6,0.3-1.2,0.6-1.8,0.7C207.3,164.1,206.5,164.2,205.6,164.2z M205.1,152.9c-0.7,0-1.2,0.2-1.6,0.7
			c-0.4,0.5-0.6,1.2-0.7,2.1h4.5c0-0.9-0.2-1.6-0.6-2.1C206.3,153.2,205.8,152.9,205.1,152.9z"/>
		<path class="st0" d="M215.5,157.1l-3.8-6.5h3.7l2.3,4.2l2.3-4.2h3.7l-3.9,6.5l4,6.8h-3.7l-2.5-4.6l-2.5,4.6h-3.7L215.5,157.1z"/>
		<path class="st0" d="M232.2,164.2c-1.4,0-2.5-0.6-3.3-1.7h-0.2c0.1,1.1,0.2,1.8,0.2,1.9v5.4h-3.2v-19.2h2.6l0.5,1.7h0.1
			c0.8-1.3,1.9-2,3.4-2c1.4,0,2.5,0.6,3.3,1.8c0.8,1.2,1.2,2.9,1.2,5.1c0,1.4-0.2,2.7-0.6,3.7c-0.4,1.1-0.9,1.9-1.6,2.4
			C233.9,163.9,233.1,164.2,232.2,164.2z M231.2,153.3c-0.8,0-1.4,0.3-1.8,0.8c-0.4,0.6-0.6,1.5-0.6,2.7v0.4c0,1.4,0.2,2.5,0.6,3.1
			c0.4,0.6,1,0.9,1.8,0.9c1.5,0,2.2-1.3,2.2-4c0-1.3-0.2-2.3-0.5-3C232.5,153.6,232,153.3,231.2,153.3z"/>
		<path class="st0" d="M246,150.3c0.4,0,0.8,0,1.1,0.1l-0.2,3.4c-0.3-0.1-0.6-0.1-1-0.1c-1,0-1.8,0.3-2.4,0.9
			c-0.6,0.6-0.9,1.4-0.9,2.5v6.8h-3.2v-13.3h2.5l0.5,2.2h0.2c0.4-0.7,0.9-1.4,1.5-1.8C244.6,150.6,245.3,150.3,246,150.3z"/>
		<path class="st0" d="M254.7,164.2c-1.9,0-3.4-0.6-4.5-1.8c-1.1-1.2-1.6-2.9-1.6-5c0-2.2,0.5-4,1.5-5.2c1-1.2,2.4-1.8,4.1-1.8
			c1.7,0,3,0.5,3.9,1.6c0.9,1.1,1.4,2.6,1.4,4.5v1.8h-7.7c0,1,0.3,1.8,0.8,2.4c0.5,0.6,1.2,0.9,2.1,0.9c0.7,0,1.4-0.1,2-0.3
			s1.3-0.4,2-0.8v2.8c-0.6,0.3-1.2,0.6-1.8,0.7C256.4,164.1,255.6,164.2,254.7,164.2z M254.2,152.9c-0.7,0-1.2,0.2-1.6,0.7
			c-0.4,0.5-0.6,1.2-0.7,2.1h4.5c0-0.9-0.2-1.6-0.6-2.1C255.4,153.2,254.9,152.9,254.2,152.9z"/>
		<path class="st0" d="M270.4,160c0,1.4-0.4,2.4-1.3,3.1c-0.8,0.7-2.1,1.1-3.8,1.1c-0.9,0-1.6-0.1-2.2-0.2c-0.6-0.1-1.2-0.3-1.7-0.6
			v-3c0.6,0.3,1.3,0.6,2,0.8c0.8,0.2,1.4,0.3,2,0.3c1.2,0,1.8-0.4,1.8-1.1c0-0.3-0.1-0.5-0.2-0.7c-0.2-0.2-0.4-0.4-0.8-0.6
			c-0.4-0.2-0.9-0.5-1.5-0.8c-0.9-0.4-1.6-0.8-2-1.2c-0.4-0.4-0.7-0.8-0.9-1.3c-0.2-0.5-0.3-1.1-0.3-1.7c0-1.2,0.4-2.1,1.2-2.8
			c0.8-0.6,2-1,3.5-1c1.4,0,2.8,0.4,4.2,1.1l-1,2.6c-0.6-0.3-1.2-0.5-1.7-0.7c-0.5-0.2-1-0.3-1.6-0.3c-1,0-1.4,0.3-1.4,0.9
			c0,0.3,0.2,0.6,0.5,0.8c0.3,0.2,1,0.6,2,1.1c0.9,0.4,1.6,0.8,2,1.2c0.4,0.4,0.8,0.8,1,1.3C270.3,158.7,270.4,159.3,270.4,160z"/>
		<path class="st0" d="M281.2,160c0,1.4-0.4,2.4-1.3,3.1c-0.8,0.7-2.1,1.1-3.8,1.1c-0.9,0-1.6-0.1-2.2-0.2c-0.6-0.1-1.2-0.3-1.7-0.6
			v-3c0.6,0.3,1.3,0.6,2,0.8c0.8,0.2,1.4,0.3,2,0.3c1.2,0,1.8-0.4,1.8-1.1c0-0.3-0.1-0.5-0.2-0.7c-0.2-0.2-0.4-0.4-0.8-0.6
			c-0.4-0.2-0.9-0.5-1.5-0.8c-0.9-0.4-1.6-0.8-2-1.2c-0.4-0.4-0.7-0.8-0.9-1.3c-0.2-0.5-0.3-1.1-0.3-1.7c0-1.2,0.4-2.1,1.2-2.8
			c0.8-0.6,2-1,3.5-1c1.4,0,2.8,0.4,4.2,1.1l-1,2.6c-0.6-0.3-1.2-0.5-1.7-0.7c-0.5-0.2-1-0.3-1.6-0.3c-1,0-1.4,0.3-1.4,0.9
			c0,0.3,0.2,0.6,0.5,0.8c0.3,0.2,1,0.6,2,1.1c0.9,0.4,1.6,0.8,2,1.2c0.4,0.4,0.8,0.8,1,1.3C281.1,158.7,281.2,159.3,281.2,160z"/>
		<path class="st0" d="M283.6,147.1c0-1.2,0.6-1.8,1.8-1.8s1.8,0.6,1.8,1.8c0,0.6-0.1,1-0.4,1.3c-0.3,0.3-0.7,0.5-1.3,0.5
			C284.2,148.9,283.6,148.3,283.6,147.1z M287,163.9h-3.2v-13.3h3.2V163.9z"/>
		<path class="st0" d="M301.2,157.2c0,2.2-0.5,3.9-1.5,5.1c-1,1.2-2.4,1.8-4.3,1.8c-1.1,0-2.1-0.3-3-0.8c-0.9-0.6-1.5-1.4-2-2.4
			c-0.5-1.1-0.7-2.3-0.7-3.7c0-2.2,0.5-3.9,1.5-5.1c1-1.2,2.4-1.8,4.3-1.8c1.1,0,2.1,0.3,3,0.8c0.9,0.6,1.5,1.4,2,2.4
			C301,154.6,301.2,155.8,301.2,157.2z M293,157.2c0,1.3,0.2,2.3,0.6,3c0.4,0.7,1,1,1.9,1c0.9,0,1.5-0.3,1.9-1
			c0.4-0.7,0.6-1.7,0.6-3c0-1.3-0.2-2.3-0.6-3c-0.4-0.7-1-1-1.9-1c-0.9,0-1.5,0.3-1.9,1C293.2,154.9,293,155.9,293,157.2z"/>
		<path class="st0" d="M314.8,163.9h-3.2v-7.8c0-1-0.2-1.7-0.5-2.2c-0.3-0.5-0.8-0.7-1.5-0.7c-0.9,0-1.6,0.3-2,1
			c-0.4,0.7-0.6,1.8-0.6,3.4v6.3h-3.2v-13.3h2.5l0.4,1.7h0.2c0.4-0.6,0.9-1.1,1.5-1.5c0.6-0.3,1.4-0.5,2.2-0.5
			c1.4,0,2.4,0.4,3.1,1.3c0.7,0.8,1.1,2.1,1.1,3.6V163.9z"/>
		<path class="st0" d="M326.5,160c0,1.4-0.4,2.4-1.3,3.1c-0.8,0.7-2.1,1.1-3.8,1.1c-0.9,0-1.6-0.1-2.2-0.2c-0.6-0.1-1.2-0.3-1.7-0.6
			v-3c0.6,0.3,1.3,0.6,2,0.8c0.8,0.2,1.4,0.3,2,0.3c1.2,0,1.8-0.4,1.8-1.1c0-0.3-0.1-0.5-0.2-0.7c-0.2-0.2-0.4-0.4-0.8-0.6
			c-0.4-0.2-0.9-0.5-1.5-0.8c-0.9-0.4-1.6-0.8-2-1.2c-0.4-0.4-0.7-0.8-0.9-1.3c-0.2-0.5-0.3-1.1-0.3-1.7c0-1.2,0.4-2.1,1.2-2.8
			c0.8-0.6,2-1,3.5-1c1.4,0,2.8,0.4,4.2,1.1l-1,2.6c-0.6-0.3-1.2-0.5-1.7-0.7c-0.5-0.2-1-0.3-1.6-0.3c-1,0-1.4,0.3-1.4,0.9
			c0,0.3,0.2,0.6,0.5,0.8c0.3,0.2,1,0.6,2,1.1c0.9,0.4,1.6,0.8,2,1.2c0.4,0.4,0.8,0.8,1,1.3C326.4,158.7,326.5,159.3,326.5,160z"/>
		<path class="st0" d="M334.9,163.9v-17.5h3.3v17.5H334.9z"/>
		<path class="st0" d="M352.8,163.9h-3.2v-7.8c0-1-0.2-1.7-0.5-2.2c-0.3-0.5-0.8-0.7-1.5-0.7c-0.9,0-1.6,0.3-2,1
			c-0.4,0.7-0.6,1.8-0.6,3.4v6.3h-3.2v-13.3h2.5l0.4,1.7h0.2c0.4-0.6,0.9-1.1,1.5-1.5c0.6-0.3,1.4-0.5,2.2-0.5
			c1.4,0,2.4,0.4,3.1,1.3c0.7,0.8,1.1,2.1,1.1,3.6V163.9z"/>
		<path class="st0" d="M364.4,160c0,1.4-0.4,2.4-1.3,3.1c-0.8,0.7-2.1,1.1-3.8,1.1c-0.9,0-1.6-0.1-2.2-0.2c-0.6-0.1-1.2-0.3-1.7-0.6
			v-3c0.6,0.3,1.3,0.6,2,0.8c0.8,0.2,1.4,0.3,2,0.3c1.2,0,1.8-0.4,1.8-1.1c0-0.3-0.1-0.5-0.2-0.7c-0.2-0.2-0.4-0.4-0.8-0.6
			c-0.4-0.2-0.9-0.5-1.5-0.8c-0.9-0.4-1.6-0.8-2-1.2c-0.4-0.4-0.7-0.8-0.9-1.3c-0.2-0.5-0.3-1.1-0.3-1.7c0-1.2,0.4-2.1,1.2-2.8
			c0.8-0.6,2-1,3.5-1c1.4,0,2.8,0.4,4.2,1.1l-1,2.6c-0.6-0.3-1.2-0.5-1.7-0.7c-0.5-0.2-1-0.3-1.6-0.3c-1,0-1.4,0.3-1.4,0.9
			c0,0.3,0.2,0.6,0.5,0.8c0.3,0.2,1,0.6,2,1.1c0.9,0.4,1.6,0.8,2,1.2c0.4,0.4,0.8,0.8,1,1.3C364.3,158.7,364.4,159.3,364.4,160z"/>
		<path class="st0" d="M372,161.3c0.6,0,1.2-0.1,2-0.4v2.7c-0.8,0.4-1.8,0.6-3,0.6c-1.3,0-2.2-0.4-2.8-1.1c-0.6-0.7-0.9-1.8-0.9-3.3
			v-6.4h-1.6v-1.5l1.8-1.2l0.9-2.8h2.1v2.8h3.3v2.7h-3.3v6.4c0,0.5,0.1,0.9,0.4,1.1C371.2,161.2,371.5,161.3,372,161.3z"/>
		<path class="st0" d="M383.9,163.9l-0.6-1.8h-0.1c-0.5,0.8-1.1,1.3-1.7,1.6c-0.6,0.3-1.3,0.4-2.3,0.4c-1.1,0-2-0.4-2.7-1.1
			c-0.7-0.7-1-1.8-1-3.1c0-1.4,0.4-2.5,1.3-3.1c0.9-0.7,2.2-1,4-1.1l2.1-0.1V155c0-1.4-0.6-2-1.8-2c-0.9,0-2.1,0.3-3.3,1l-1.1-2.5
			c1.4-0.8,2.9-1.2,4.5-1.2c1.6,0,2.8,0.4,3.7,1.2c0.8,0.8,1.3,2,1.3,3.6v8.9H383.9z M383,157.8l-1.3,0c-0.9,0-1.6,0.2-2.1,0.6
			c-0.5,0.4-0.7,0.9-0.7,1.6c0,1,0.5,1.5,1.6,1.5c0.8,0,1.4-0.2,1.8-0.7c0.5-0.5,0.7-1.1,0.7-1.9V157.8z"/>
		<path class="st0" d="M400.5,163.9h-3.2v-7.8c0-1-0.2-1.7-0.5-2.2c-0.3-0.5-0.8-0.7-1.5-0.7c-0.9,0-1.6,0.3-2,1
			c-0.4,0.7-0.6,1.8-0.6,3.4v6.3h-3.2v-13.3h2.5l0.4,1.7h0.2c0.4-0.6,0.9-1.1,1.5-1.5c0.6-0.3,1.4-0.5,2.2-0.5
			c1.4,0,2.4,0.4,3.1,1.3c0.7,0.8,1.1,2.1,1.1,3.6V163.9z"/>
		<path class="st0" d="M408.8,161.3c0.6,0,1.2-0.1,2-0.4v2.7c-0.8,0.4-1.8,0.6-3,0.6c-1.3,0-2.2-0.4-2.8-1.1
			c-0.6-0.7-0.9-1.8-0.9-3.3v-6.4h-1.6v-1.5l1.8-1.2l0.9-2.8h2.1v2.8h3.3v2.7h-3.3v6.4c0,0.5,0.1,0.9,0.4,1.1
			C408.1,161.2,408.4,161.3,408.8,161.3z"/>
		<path class="st0" d="M412.8,162.2c0-0.7,0.2-1.2,0.5-1.5c0.3-0.3,0.8-0.5,1.4-0.5c0.6,0,1,0.2,1.4,0.5c0.3,0.4,0.5,0.9,0.5,1.5
			c0,0.6-0.2,1.1-0.5,1.5c-0.3,0.4-0.8,0.5-1.4,0.5c-0.6,0-1.1-0.2-1.4-0.5C413,163.4,412.8,162.9,412.8,162.2z"/>
		<path class="st0" d="M110.2,199.8c0,1.6-0.5,2.8-1.5,3.7c-1,0.9-2.4,1.4-4.2,1.4c-1.7,0-3.1-0.4-4.4-1.1v-3.4
			c1,0.5,1.9,0.9,2.7,1.1c0.7,0.2,1.4,0.3,2,0.3c0.7,0,1.3-0.2,1.7-0.5c0.4-0.3,0.6-0.8,0.6-1.4c0-0.3-0.1-0.6-0.3-0.9
			c-0.2-0.3-0.4-0.5-0.7-0.8c-0.3-0.2-1-0.6-2-1.2c-0.9-0.5-1.7-1-2.1-1.4c-0.5-0.5-0.9-1-1.1-1.6c-0.3-0.6-0.4-1.3-0.4-2.1
			c0-1.5,0.5-2.8,1.4-3.6c0.9-0.9,2.2-1.3,3.9-1.3c0.8,0,1.6,0.1,2.3,0.3c0.7,0.2,1.5,0.5,2.3,0.9l-1.1,2.9
			c-0.8-0.4-1.5-0.6-2.1-0.8c-0.5-0.2-1.1-0.2-1.6-0.2c-0.6,0-1.1,0.2-1.4,0.5c-0.3,0.3-0.5,0.8-0.5,1.3c0,0.3,0.1,0.6,0.2,0.9
			c0.1,0.2,0.3,0.5,0.6,0.7c0.3,0.2,1,0.6,2.1,1.2c1.5,0.8,2.4,1.6,3,2.3C110,197.7,110.2,198.7,110.2,199.8z"/>
		<path class="st0" d="M123.4,204.7h-3.2v-7.8c0-1-0.1-1.7-0.4-2.2c-0.3-0.5-0.7-0.7-1.4-0.7c-0.8,0-1.4,0.3-1.8,1
			c-0.4,0.7-0.6,1.8-0.6,3.4v6.3h-3.2v-13.3h2.5l0.4,1.7h0.2c0.3-0.6,0.8-1.1,1.4-1.4c0.6-0.3,1.3-0.5,2.1-0.5c1.8,0,3,0.7,3.6,2
			h0.3c0.3-0.6,0.8-1.1,1.4-1.4c0.6-0.3,1.3-0.5,2.1-0.5c1.3,0,2.4,0.4,3.1,1.2c0.7,0.8,1,2,1,3.7v8.7h-3.3v-7.8
			c0-1-0.1-1.7-0.4-2.2c-0.3-0.5-0.7-0.7-1.4-0.7c-0.8,0-1.4,0.3-1.8,1c-0.4,0.6-0.6,1.6-0.6,3V204.7z"/>
		<path class="st0" d="M145,198c0,2.2-0.5,3.9-1.5,5.1c-1,1.2-2.4,1.8-4.3,1.8c-1.1,0-2.1-0.3-3-0.8c-0.9-0.6-1.5-1.4-2-2.4
			c-0.5-1.1-0.7-2.3-0.7-3.7c0-2.2,0.5-3.9,1.5-5.1c1-1.2,2.4-1.8,4.3-1.8c1.1,0,2.1,0.3,3,0.8c0.9,0.6,1.5,1.4,2,2.4
			C144.7,195.4,145,196.6,145,198z M136.7,198c0,1.3,0.2,2.3,0.6,3c0.4,0.7,1,1,1.9,1c0.9,0,1.5-0.3,1.9-1c0.4-0.7,0.6-1.7,0.6-3
			c0-1.3-0.2-2.3-0.6-3c-0.4-0.7-1-1-1.9-1c-0.9,0-1.5,0.3-1.9,1C136.9,195.7,136.7,196.7,136.7,198z"/>
		<path class="st0" d="M158.4,198c0,2.2-0.5,3.9-1.5,5.1c-1,1.2-2.4,1.8-4.3,1.8c-1.1,0-2.1-0.3-3-0.8c-0.9-0.6-1.5-1.4-2-2.4
			c-0.5-1.1-0.7-2.3-0.7-3.7c0-2.2,0.5-3.9,1.5-5.1c1-1.2,2.4-1.8,4.3-1.8c1.1,0,2.1,0.3,3,0.8c0.9,0.6,1.5,1.4,2,2.4
			C158.2,195.4,158.4,196.6,158.4,198z M150.2,198c0,1.3,0.2,2.3,0.6,3c0.4,0.7,1,1,1.9,1c0.9,0,1.5-0.3,1.9-1
			c0.4-0.7,0.6-1.7,0.6-3c0-1.3-0.2-2.3-0.6-3c-0.4-0.7-1-1-1.9-1c-0.9,0-1.5,0.3-1.9,1C150.4,195.7,150.2,196.7,150.2,198z"/>
		<path class="st0" d="M166.1,202c0.6,0,1.2-0.1,2-0.4v2.7c-0.8,0.4-1.8,0.6-3,0.6c-1.3,0-2.2-0.4-2.8-1.1c-0.6-0.7-0.9-1.8-0.9-3.3
			v-6.4h-1.6v-1.5l1.8-1.2l0.9-2.8h2.1v2.8h3.3v2.7h-3.3v6.4c0,0.5,0.1,0.9,0.4,1.1C165.3,201.9,165.7,202,166.1,202z"/>
		<path class="st0" d="M181.5,204.7h-3.2v-7.8c0-1.9-0.6-2.9-1.9-2.9c-0.9,0-1.6,0.3-2,1c-0.4,0.7-0.6,1.8-0.6,3.4v6.3h-3.2v-18.6
			h3.2v3.8c0,0.3,0,1-0.1,2.1l-0.1,1.1h0.2c0.7-1.3,1.9-2,3.4-2c1.4,0,2.5,0.4,3.2,1.3c0.7,0.8,1.1,2.1,1.1,3.6V204.7z"/>
		<path class="st0" d="M197.1,191.1c0.4,0,0.8,0,1.1,0.1l-0.2,3.4c-0.3-0.1-0.6-0.1-1-0.1c-1,0-1.8,0.3-2.4,0.9
			c-0.6,0.6-0.9,1.4-0.9,2.5v6.8h-3.2v-13.3h2.5l0.5,2.2h0.2c0.4-0.7,0.9-1.4,1.5-1.8C195.7,191.3,196.4,191.1,197.1,191.1z"/>
		<path class="st0" d="M205.8,204.9c-1.9,0-3.4-0.6-4.5-1.8c-1.1-1.2-1.6-2.9-1.6-5c0-2.2,0.5-4,1.5-5.2c1-1.2,2.4-1.8,4.1-1.8
			c1.7,0,3,0.5,3.9,1.6c0.9,1.1,1.4,2.6,1.4,4.5v1.8h-7.7c0,1,0.3,1.8,0.8,2.4c0.5,0.6,1.2,0.9,2.1,0.9c0.7,0,1.4-0.1,2-0.3
			c0.6-0.2,1.3-0.4,2-0.8v2.8c-0.6,0.3-1.2,0.6-1.8,0.7C207.5,204.8,206.7,204.9,205.8,204.9z M205.3,193.7c-0.7,0-1.2,0.2-1.6,0.7
			c-0.4,0.5-0.6,1.2-0.7,2.1h4.5c0-0.9-0.2-1.6-0.6-2.1C206.5,193.9,206,193.7,205.3,193.7z"/>
		<path class="st0" d="M220.8,204.7l-0.6-1.8h-0.1c-0.5,0.8-1.1,1.3-1.7,1.6c-0.6,0.3-1.3,0.4-2.3,0.4c-1.1,0-2-0.4-2.7-1.1
			c-0.7-0.7-1-1.8-1-3.1c0-1.4,0.4-2.5,1.3-3.1c0.9-0.7,2.2-1,4-1.1l2.1-0.1v-0.6c0-1.4-0.6-2-1.8-2c-0.9,0-2.1,0.3-3.3,1l-1.1-2.5
			c1.4-0.8,2.9-1.2,4.5-1.2c1.6,0,2.8,0.4,3.7,1.2c0.8,0.8,1.3,2,1.3,3.6v8.9H220.8z M219.8,198.5l-1.3,0c-0.9,0-1.6,0.2-2.1,0.6
			c-0.5,0.4-0.7,0.9-0.7,1.6c0,1,0.5,1.5,1.6,1.5c0.8,0,1.4-0.2,1.8-0.7c0.5-0.5,0.7-1.1,0.7-1.9V198.5z"/>
		<path class="st0" d="M229.6,204.7h-3.2v-18.6h3.2V204.7z"/>
		<path class="st0" d="M232,199.6v-3h5.7v3H232z"/>
		<path class="st0" d="M245,202c0.6,0,1.2-0.1,2-0.4v2.7c-0.8,0.4-1.8,0.6-3,0.6c-1.3,0-2.2-0.4-2.8-1.1c-0.6-0.7-0.9-1.8-0.9-3.3
			v-6.4h-1.6v-1.5l1.8-1.2l0.9-2.8h2.1v2.8h3.3v2.7h-3.3v6.4c0,0.5,0.1,0.9,0.4,1.1C244.2,201.9,244.6,202,245,202z"/>
		<path class="st0" d="M249.3,187.9c0-1.2,0.6-1.8,1.8-1.8c1.2,0,1.8,0.6,1.8,1.8c0,0.6-0.1,1-0.4,1.3c-0.3,0.3-0.7,0.5-1.3,0.5
			C249.9,189.7,249.3,189.1,249.3,187.9z M252.7,204.7h-3.2v-13.3h3.2V204.7z"/>
		<path class="st0" d="M266.7,204.7h-3.2v-7.8c0-1-0.1-1.7-0.4-2.2c-0.3-0.5-0.7-0.7-1.4-0.7c-0.8,0-1.4,0.3-1.8,1
			c-0.4,0.7-0.6,1.8-0.6,3.4v6.3h-3.2v-13.3h2.5l0.4,1.7h0.2c0.3-0.6,0.8-1.1,1.4-1.4c0.6-0.3,1.3-0.5,2.1-0.5c1.8,0,3,0.7,3.6,2
			h0.3c0.3-0.6,0.8-1.1,1.4-1.4c0.6-0.3,1.3-0.5,2.1-0.5c1.3,0,2.4,0.4,3.1,1.2c0.7,0.8,1,2,1,3.7v8.7h-3.3v-7.8
			c0-1-0.1-1.7-0.4-2.2c-0.3-0.5-0.7-0.7-1.4-0.7c-0.8,0-1.4,0.3-1.8,1c-0.4,0.6-0.6,1.6-0.6,3V204.7z"/>
		<path class="st0" d="M282.8,204.9c-1.9,0-3.4-0.6-4.5-1.8c-1.1-1.2-1.6-2.9-1.6-5c0-2.2,0.5-4,1.5-5.2c1-1.2,2.4-1.8,4.1-1.8
			c1.7,0,3,0.5,3.9,1.6c0.9,1.1,1.4,2.6,1.4,4.5v1.8H280c0,1,0.3,1.8,0.8,2.4c0.5,0.6,1.2,0.9,2.1,0.9c0.7,0,1.4-0.1,2-0.3
			s1.3-0.4,2-0.8v2.8c-0.6,0.3-1.2,0.6-1.8,0.7C284.5,204.8,283.8,204.9,282.8,204.9z M282.4,193.7c-0.7,0-1.2,0.2-1.6,0.7
			c-0.4,0.5-0.6,1.2-0.7,2.1h4.5c0-0.9-0.2-1.6-0.6-2.1C283.6,193.9,283.1,193.7,282.4,193.7z"/>
		<path class="st0" d="M301,202c0.6,0,1.2-0.1,2-0.4v2.7c-0.8,0.4-1.8,0.6-3,0.6c-1.3,0-2.2-0.4-2.8-1.1c-0.6-0.7-0.9-1.8-0.9-3.3
			v-6.4h-1.6v-1.5l1.8-1.2l0.9-2.8h2.1v2.8h3.3v2.7h-3.3v6.4c0,0.5,0.1,0.9,0.4,1.1C300.2,201.9,300.5,202,301,202z"/>
		<path class="st0" d="M312,191.1c0.4,0,0.8,0,1.1,0.1l-0.2,3.4c-0.3-0.1-0.6-0.1-1-0.1c-1,0-1.8,0.3-2.4,0.9
			c-0.6,0.6-0.9,1.4-0.9,2.5v6.8h-3.2v-13.3h2.5l0.5,2.2h0.2c0.4-0.7,0.9-1.4,1.5-1.8C310.6,191.3,311.3,191.1,312,191.1z"/>
		<path class="st0" d="M322.8,204.7l-0.6-1.8h-0.1c-0.5,0.8-1.1,1.3-1.7,1.6c-0.6,0.3-1.3,0.4-2.3,0.4c-1.1,0-2-0.4-2.7-1.1
			c-0.7-0.7-1-1.8-1-3.1c0-1.4,0.4-2.5,1.3-3.1c0.9-0.7,2.2-1,4-1.1l2.1-0.1v-0.6c0-1.4-0.6-2-1.8-2c-0.9,0-2.1,0.3-3.3,1l-1.1-2.5
			c1.4-0.8,2.9-1.2,4.5-1.2c1.6,0,2.8,0.4,3.7,1.2c0.8,0.8,1.3,2,1.3,3.6v8.9H322.8z M321.9,198.5l-1.3,0c-0.9,0-1.6,0.2-2.1,0.6
			c-0.5,0.4-0.7,0.9-0.7,1.6c0,1,0.5,1.5,1.6,1.5c0.8,0,1.4-0.2,1.8-0.7c0.5-0.5,0.7-1.1,0.7-1.9V198.5z"/>
		<path class="st0" d="M333.3,204.9c-3.7,0-5.5-2.3-5.5-6.8c0-2.3,0.5-4,1.5-5.2c1-1.2,2.4-1.8,4.3-1.8c1.4,0,2.6,0.3,3.7,0.9
			l-1,2.8c-0.5-0.2-1-0.4-1.4-0.6c-0.4-0.1-0.9-0.2-1.3-0.2c-1.7,0-2.5,1.3-2.5,4c0,2.6,0.8,3.9,2.5,3.9c0.6,0,1.2-0.1,1.7-0.3
			c0.5-0.2,1.1-0.5,1.6-0.9v3.1c-0.5,0.4-1.1,0.6-1.6,0.8C334.7,204.8,334.1,204.9,333.3,204.9z"/>
		<path class="st0" d="M342.7,197.4l1.4-2l3.3-4.1h3.7l-4.7,5.8l5,7.6h-3.7l-3.4-5.4l-1.4,1.3v4.2h-3.2v-18.6h3.2v8.3L342.7,197.4
			L342.7,197.4z"/>
		<path class="st0" d="M353,187.9c0-1.2,0.6-1.8,1.8-1.8c1.2,0,1.8,0.6,1.8,1.8c0,0.6-0.1,1-0.4,1.3c-0.3,0.3-0.7,0.5-1.3,0.5
			C353.6,189.7,353,189.1,353,187.9z M356.4,204.7h-3.2v-13.3h3.2V204.7z"/>
		<path class="st0" d="M370.7,204.7h-3.2v-7.8c0-1-0.2-1.7-0.5-2.2c-0.3-0.5-0.8-0.7-1.5-0.7c-0.9,0-1.6,0.3-2,1
			c-0.4,0.7-0.6,1.8-0.6,3.4v6.3h-3.2v-13.3h2.5l0.4,1.7h0.2c0.4-0.6,0.9-1.1,1.5-1.5c0.6-0.3,1.4-0.5,2.2-0.5
			c1.4,0,2.4,0.4,3.1,1.3c0.7,0.8,1.1,2.1,1.1,3.6V204.7z"/>
		<path class="st0" d="M384.4,191.3v1.9l-1.9,0.5c0.3,0.6,0.5,1.3,0.5,2c0,1.4-0.4,2.5-1.3,3.3c-0.9,0.8-2.1,1.2-3.7,1.2l-0.6,0
			l-0.5-0.1c-0.3,0.3-0.5,0.6-0.5,1c0,0.5,0.6,0.8,1.8,0.8h2c1.3,0,2.3,0.3,3,0.9c0.7,0.6,1,1.6,1,2.8c0,1.6-0.6,2.8-1.7,3.6
			s-2.8,1.3-5,1.3c-1.7,0-2.9-0.3-3.8-1c-0.9-0.6-1.3-1.6-1.3-2.7c0-0.8,0.2-1.5,0.7-2c0.4-0.5,1.1-0.9,2-1.2
			c-0.3-0.2-0.6-0.4-0.9-0.8c-0.2-0.4-0.4-0.7-0.4-1.2c0-0.5,0.1-0.9,0.4-1.3c0.3-0.3,0.6-0.7,1.1-1c-0.6-0.3-1.1-0.8-1.5-1.5
			c-0.4-0.7-0.5-1.5-0.5-2.4c0-1.5,0.4-2.6,1.3-3.4c0.8-0.8,2-1.2,3.6-1.2c0.3,0,0.7,0,1.2,0.1c0.5,0.1,0.7,0.1,0.9,0.1H384.4z
			 M375.2,206.6c0,0.5,0.2,0.9,0.6,1.2c0.4,0.3,1,0.4,1.8,0.4c1.2,0,2.1-0.2,2.7-0.5c0.7-0.4,1-0.8,1-1.5c0-0.5-0.2-0.8-0.6-1
			c-0.4-0.2-1-0.3-1.8-0.3h-1.7c-0.6,0-1.1,0.2-1.5,0.5C375.4,205.6,375.2,206,375.2,206.6z M376.4,195.7c0,0.7,0.1,1.3,0.4,1.7
			c0.3,0.4,0.7,0.6,1.3,0.6c0.6,0,1.1-0.2,1.3-0.6c0.3-0.4,0.4-1,0.4-1.7c0-1.6-0.6-2.4-1.8-2.4C377,193.3,376.4,194.1,376.4,195.7z
			"/>
		<path class="st0" d="M385.9,203c0-0.7,0.2-1.2,0.5-1.5c0.3-0.3,0.8-0.5,1.4-0.5c0.6,0,1,0.2,1.4,0.5c0.3,0.4,0.5,0.9,0.5,1.5
			c0,0.6-0.2,1.1-0.5,1.5c-0.3,0.4-0.8,0.5-1.4,0.5c-0.6,0-1.1-0.2-1.4-0.5C386,204.1,385.9,203.6,385.9,203z"/>
		<path class="st0" d="M107,235.6h6.2v9c-1,0.4-1.9,0.6-2.8,0.8c-0.9,0.1-1.8,0.2-2.7,0.2c-2.3,0-4.1-0.8-5.4-2.3
			c-1.2-1.5-1.9-3.8-1.9-6.7c0-2.8,0.7-5,2.2-6.6c1.4-1.6,3.4-2.4,6-2.4c1.6,0,3.1,0.4,4.6,1.1l-1.1,3c-1.1-0.6-2.3-1-3.5-1
			c-1.4,0-2.6,0.5-3.4,1.6c-0.9,1.1-1.3,2.5-1.3,4.3c0,1.9,0.3,3.3,1,4.3c0.7,1,1.7,1.5,3,1.5c0.7,0,1.4-0.1,2.1-0.2v-3.6H107V235.6
			z"/>
		<path class="st0" d="M116.4,228.6c0-1.2,0.6-1.8,1.8-1.8s1.8,0.6,1.8,1.8c0,0.6-0.1,1-0.4,1.3c-0.3,0.3-0.7,0.5-1.3,0.5
			C117,230.4,116.4,229.8,116.4,228.6z M119.8,245.4h-3.2v-13.3h3.2V245.4z"/>
		<path class="st0" d="M126,245.4l-4.5-13.3h3.4l2.3,7.6c0.3,1,0.4,1.9,0.5,2.7h0.1c0-0.8,0.2-1.7,0.5-2.7l2.3-7.6h3.4l-4.5,13.3
			H126z"/>
		<path class="st0" d="M141,245.7c-1.9,0-3.4-0.6-4.5-1.8c-1.1-1.2-1.6-2.9-1.6-5c0-2.2,0.5-4,1.5-5.2c1-1.2,2.4-1.8,4.1-1.8
			c1.7,0,3,0.5,3.9,1.6c0.9,1.1,1.4,2.6,1.4,4.5v1.8h-7.7c0,1,0.3,1.8,0.8,2.4c0.5,0.6,1.2,0.9,2.1,0.9c0.7,0,1.4-0.1,2-0.3
			c0.6-0.2,1.3-0.4,2-0.8v2.8c-0.6,0.3-1.2,0.6-1.8,0.7C142.7,245.6,141.9,245.7,141,245.7z M140.5,234.4c-0.7,0-1.2,0.2-1.6,0.7
			c-0.4,0.5-0.6,1.2-0.7,2.1h4.5c0-0.9-0.2-1.6-0.6-2.1C141.7,234.7,141.2,234.4,140.5,234.4z"/>
		<path class="st0" d="M157.3,245.4h-3.2v-18.6h3.2V245.4z"/>
		<path class="st0" d="M160.6,228.6c0-1.2,0.6-1.8,1.8-1.8c1.2,0,1.8,0.6,1.8,1.8c0,0.6-0.1,1-0.4,1.3c-0.3,0.3-0.7,0.5-1.3,0.5
			C161.2,230.4,160.6,229.8,160.6,228.6z M164,245.4h-3.2v-13.3h3.2V245.4z"/>
		<path class="st0" d="M173.9,234.8h-2.8v10.6h-3.2v-10.6h-1.8v-1.8l1.8-1v-1c0-1.5,0.3-2.6,1-3.3c0.7-0.7,1.7-1.1,3.2-1.1
			c1.1,0,2.1,0.2,3,0.6l-0.8,2.7c-0.7-0.2-1.3-0.3-1.8-0.3c-0.5,0-0.8,0.2-1,0.5c-0.2,0.3-0.3,0.7-0.3,1.2v0.8h2.8V234.8z"/>
		<path class="st0" d="M181.2,245.7c-1.9,0-3.4-0.6-4.5-1.8c-1.1-1.2-1.6-2.9-1.6-5c0-2.2,0.5-4,1.5-5.2c1-1.2,2.4-1.8,4.1-1.8
			c1.7,0,3,0.5,3.9,1.6c0.9,1.1,1.4,2.6,1.4,4.5v1.8h-7.7c0,1,0.3,1.8,0.8,2.4c0.5,0.6,1.2,0.9,2.1,0.9c0.7,0,1.4-0.1,2-0.3
			c0.6-0.2,1.3-0.4,2-0.8v2.8c-0.6,0.3-1.2,0.6-1.8,0.7C182.9,245.6,182.1,245.7,181.2,245.7z M180.7,234.4c-0.7,0-1.2,0.2-1.6,0.7
			c-0.4,0.5-0.6,1.2-0.7,2.1h4.5c0-0.9-0.2-1.6-0.6-2.1C181.9,234.7,181.4,234.4,180.7,234.4z"/>
		<path class="st0" d="M199.3,242.8c0.6,0,1.2-0.1,2-0.4v2.7c-0.8,0.4-1.8,0.6-3,0.6c-1.3,0-2.2-0.4-2.8-1.1
			c-0.6-0.7-0.9-1.8-0.9-3.3v-6.4h-1.6v-1.5l1.8-1.2l0.9-2.8h2.1v2.8h3.3v2.7h-3.3v6.4c0,0.5,0.1,0.9,0.4,1.1
			C198.5,242.6,198.9,242.8,199.3,242.8z"/>
		<path class="st0" d="M214.5,238.7c0,2.2-0.5,3.9-1.5,5.1c-1,1.2-2.4,1.8-4.3,1.8c-1.1,0-2.1-0.3-3-0.8c-0.9-0.6-1.5-1.4-2-2.4
			c-0.5-1.1-0.7-2.3-0.7-3.7c0-2.2,0.5-3.9,1.5-5.1c1-1.2,2.4-1.8,4.3-1.8c1.1,0,2.1,0.3,3,0.8c0.9,0.6,1.5,1.4,2,2.4
			C214.3,236.1,214.5,237.3,214.5,238.7z M206.3,238.7c0,1.3,0.2,2.3,0.6,3c0.4,0.7,1,1,1.9,1c0.9,0,1.5-0.3,1.9-1
			c0.4-0.7,0.6-1.7,0.6-3c0-1.3-0.2-2.3-0.6-3c-0.4-0.7-1-1-1.9-1c-0.9,0-1.5,0.3-1.9,1C206.5,236.4,206.3,237.4,206.3,238.7z"/>
		<path class="st0" d="M221.2,232.1h3.5l2.2,7.5c0.2,0.7,0.3,1.4,0.4,2.3h0.1c0.1-0.8,0.2-1.6,0.5-2.3l2.2-7.5h3.5l-5,15.1
			c-0.5,1.4-1.1,2.4-2,3.1c-0.9,0.7-1.8,1-3,1c-0.6,0-1.1-0.1-1.6-0.2v-2.9c0.4,0.1,0.8,0.2,1.3,0.2c0.6,0,1.1-0.2,1.5-0.6
			c0.4-0.4,0.8-1,1-1.8l0.2-0.7L221.2,232.1z"/>
		<path class="st0" d="M246,238.7c0,2.2-0.5,3.9-1.5,5.1c-1,1.2-2.4,1.8-4.3,1.8c-1.1,0-2.1-0.3-3-0.8c-0.9-0.6-1.5-1.4-2-2.4
			c-0.5-1.1-0.7-2.3-0.7-3.7c0-2.2,0.5-3.9,1.5-5.1c1-1.2,2.4-1.8,4.3-1.8c1.1,0,2.1,0.3,3,0.8c0.9,0.6,1.5,1.4,2,2.4
			C245.8,236.1,246,237.3,246,238.7z M237.8,238.7c0,1.3,0.2,2.3,0.6,3c0.4,0.7,1,1,1.9,1c0.9,0,1.5-0.3,1.9-1
			c0.4-0.7,0.6-1.7,0.6-3c0-1.3-0.2-2.3-0.6-3c-0.4-0.7-1-1-1.9-1c-0.9,0-1.5,0.3-1.9,1C238,236.4,237.8,237.4,237.8,238.7z"/>
		<path class="st0" d="M257.1,245.4l-0.4-1.7h-0.2c-0.3,0.6-0.8,1.1-1.5,1.4c-0.6,0.3-1.4,0.5-2.2,0.5c-1.4,0-2.4-0.4-3.2-1.3
			c-0.7-0.8-1.1-2-1.1-3.6v-8.7h3.2v7.8c0,1,0.2,1.7,0.5,2.2c0.3,0.5,0.8,0.7,1.5,0.7c0.9,0,1.6-0.3,2-1c0.4-0.7,0.6-1.8,0.6-3.4
			v-6.3h3.2v13.3H257.1z"/>
		<path class="st0" d="M269.6,231.8c0.4,0,0.8,0,1.1,0.1l-0.2,3.4c-0.3-0.1-0.6-0.1-1-0.1c-1,0-1.8,0.3-2.4,0.9
			c-0.6,0.6-0.9,1.4-0.9,2.5v6.8H263v-13.3h2.5l0.5,2.2h0.2c0.4-0.7,0.9-1.4,1.5-1.8C268.2,232.1,268.9,231.8,269.6,231.8z"/>
		<path class="st0" d="M288.3,245.4l-1.1-4.2h-5.7l-1.1,4.2h-3.5l5.5-17.5h4l5.5,17.5H288.3z M286.4,238.2c-1-3.8-1.6-5.9-1.8-6.4
			c-0.1-0.5-0.2-0.9-0.3-1.2c-0.2,1-0.9,3.5-2,7.6H286.4z"/>
		<path class="st0" d="M297.1,238.7v6.7h-3.3V228h4.5c2.1,0,3.7,0.4,4.7,1.3c1,0.9,1.5,2.2,1.5,3.9c0,1-0.3,1.9-0.8,2.7
			c-0.5,0.8-1.2,1.4-2.1,1.9c2.3,3.9,3.9,6.5,4.6,7.6h-3.7l-3.7-6.7H297.1z M297.1,235.7h1.1c1,0,1.8-0.2,2.3-0.6
			c0.5-0.4,0.7-1,0.7-1.8c0-0.8-0.3-1.4-0.8-1.8c-0.5-0.4-1.3-0.5-2.4-0.5h-1V235.7z"/>
		<path class="st0" d="M318.4,245.7c-3.7,0-5.5-2.3-5.5-6.8c0-2.3,0.5-4,1.5-5.2c1-1.2,2.4-1.8,4.3-1.8c1.4,0,2.6,0.3,3.7,0.9
			l-1,2.8c-0.5-0.2-1-0.4-1.4-0.6c-0.4-0.1-0.9-0.2-1.3-0.2c-1.7,0-2.5,1.3-2.5,4c0,2.6,0.8,3.9,2.5,3.9c0.6,0,1.2-0.1,1.7-0.3
			c0.5-0.2,1.1-0.5,1.6-0.9v3.1c-0.5,0.4-1.1,0.6-1.6,0.8C319.9,245.6,319.2,245.7,318.4,245.7z"/>
		<path class="st0" d="M335.7,245.4h-3.2v-7.8c0-1.9-0.6-2.9-1.9-2.9c-0.9,0-1.6,0.3-2,1c-0.4,0.7-0.6,1.8-0.6,3.4v6.3h-3.2v-18.6
			h3.2v3.8c0,0.3,0,1-0.1,2.1l-0.1,1.1h0.2c0.7-1.3,1.9-2,3.4-2c1.4,0,2.5,0.4,3.2,1.3c0.7,0.8,1.1,2.1,1.1,3.6V245.4z"/>
		<path class="st0" d="M346.6,245.4l-0.6-1.8h-0.1c-0.5,0.8-1.1,1.3-1.7,1.6c-0.6,0.3-1.3,0.4-2.3,0.4c-1.1,0-2-0.4-2.7-1.1
			c-0.7-0.7-1-1.8-1-3.1c0-1.4,0.4-2.5,1.3-3.1c0.9-0.7,2.2-1,4-1.1l2.1-0.1v-0.6c0-1.4-0.6-2-1.8-2c-0.9,0-2.1,0.3-3.3,1l-1.1-2.5
			c1.4-0.8,2.9-1.2,4.5-1.2c1.6,0,2.8,0.4,3.7,1.2c0.8,0.8,1.3,2,1.3,3.6v8.9H346.6z M345.6,239.2l-1.3,0c-0.9,0-1.6,0.2-2.1,0.6
			c-0.5,0.4-0.7,0.9-0.7,1.6c0,1,0.5,1.5,1.6,1.5c0.8,0,1.4-0.2,1.8-0.7c0.5-0.5,0.7-1.1,0.7-1.9V239.2z"/>
		<path class="st0" d="M358.8,231.8c0.4,0,0.8,0,1.1,0.1l-0.2,3.4c-0.3-0.1-0.6-0.1-1-0.1c-1,0-1.8,0.3-2.4,0.9
			c-0.6,0.6-0.9,1.4-0.9,2.5v6.8h-3.2v-13.3h2.5l0.5,2.2h0.2c0.4-0.7,0.9-1.4,1.5-1.8C357.4,232.1,358.1,231.8,358.8,231.8z"/>
		<path class="st0" d="M369.6,245.4l-0.6-1.8h-0.1c-0.5,0.8-1.1,1.3-1.7,1.6c-0.6,0.3-1.3,0.4-2.3,0.4c-1.1,0-2-0.4-2.7-1.1
			c-0.7-0.7-1-1.8-1-3.1c0-1.4,0.4-2.5,1.3-3.1c0.9-0.7,2.2-1,4-1.1l2.1-0.1v-0.6c0-1.4-0.6-2-1.8-2c-0.9,0-2.1,0.3-3.3,1l-1.1-2.5
			c1.4-0.8,2.9-1.2,4.5-1.2c1.6,0,2.8,0.4,3.7,1.2c0.8,0.8,1.3,2,1.3,3.6v8.9H369.6z M368.7,239.2l-1.3,0c-0.9,0-1.6,0.2-2.1,0.6
			c-0.5,0.4-0.7,0.9-0.7,1.6c0,1,0.5,1.5,1.6,1.5c0.8,0,1.4-0.2,1.8-0.7c0.5-0.5,0.7-1.1,0.7-1.9V239.2z"/>
		<path class="st0" d="M380,245.7c-3.7,0-5.5-2.3-5.5-6.8c0-2.3,0.5-4,1.5-5.2c1-1.2,2.4-1.8,4.3-1.8c1.4,0,2.6,0.3,3.7,0.9l-1,2.8
			c-0.5-0.2-1-0.4-1.4-0.6c-0.4-0.1-0.9-0.2-1.3-0.2c-1.7,0-2.5,1.3-2.5,4c0,2.6,0.8,3.9,2.5,3.9c0.6,0,1.2-0.1,1.7-0.3
			c0.5-0.2,1.1-0.5,1.6-0.9v3.1c-0.5,0.4-1.1,0.6-1.6,0.8C381.5,245.6,380.9,245.7,380,245.7z"/>
		<path class="st0" d="M391.4,242.8c0.6,0,1.2-0.1,2-0.4v2.7c-0.8,0.4-1.8,0.6-3,0.6c-1.3,0-2.2-0.4-2.8-1.1
			c-0.6-0.7-0.9-1.8-0.9-3.3v-6.4h-1.6v-1.5l1.8-1.2l0.9-2.8h2.1v2.8h3.3v2.7H390v6.4c0,0.5,0.1,0.9,0.4,1.1
			C390.6,242.6,391,242.8,391.4,242.8z"/>
		<path class="st0" d="M401.2,245.7c-1.9,0-3.4-0.6-4.5-1.8c-1.1-1.2-1.6-2.9-1.6-5c0-2.2,0.5-4,1.5-5.2c1-1.2,2.4-1.8,4.1-1.8
			c1.7,0,3,0.5,3.9,1.6c0.9,1.1,1.4,2.6,1.4,4.5v1.8h-7.7c0,1,0.3,1.8,0.8,2.4c0.5,0.6,1.2,0.9,2.1,0.9c0.7,0,1.4-0.1,2-0.3
			s1.3-0.4,2-0.8v2.8c-0.6,0.3-1.2,0.6-1.8,0.7C402.9,245.6,402.2,245.7,401.2,245.7z M400.8,234.4c-0.7,0-1.2,0.2-1.6,0.7
			c-0.4,0.5-0.6,1.2-0.7,2.1h4.5c0-0.9-0.2-1.6-0.6-2.1C402,234.7,401.5,234.4,400.8,234.4z"/>
		<path class="st0" d="M415.3,231.8c0.4,0,0.8,0,1.1,0.1l-0.2,3.4c-0.3-0.1-0.6-0.1-1-0.1c-1,0-1.8,0.3-2.4,0.9
			c-0.6,0.6-0.9,1.4-0.9,2.5v6.8h-3.2v-13.3h2.5l0.5,2.2h0.2c0.4-0.7,0.9-1.4,1.5-1.8C413.9,232.1,414.6,231.8,415.3,231.8z"/>
		<path class="st0" d="M418.1,243.7c0-0.7,0.2-1.2,0.5-1.5c0.3-0.3,0.8-0.5,1.4-0.5c0.6,0,1,0.2,1.4,0.5c0.3,0.4,0.5,0.9,0.5,1.5
			c0,0.6-0.2,1.1-0.5,1.5c-0.3,0.4-0.8,0.5-1.4,0.5c-0.6,0-1.1-0.2-1.4-0.5C418.3,244.9,418.1,244.4,418.1,243.7z"/>
		<path class="st0" d="M107,276.4h6.2v9c-1,0.4-1.9,0.6-2.8,0.8c-0.9,0.1-1.8,0.2-2.7,0.2c-2.3,0-4.1-0.8-5.4-2.3
			c-1.2-1.5-1.9-3.8-1.9-6.7c0-2.8,0.7-5,2.2-6.6c1.4-1.6,3.4-2.4,6-2.4c1.6,0,3.1,0.4,4.6,1.1l-1.1,3c-1.1-0.6-2.3-1-3.5-1
			c-1.4,0-2.6,0.5-3.4,1.6c-0.9,1.1-1.3,2.5-1.3,4.3c0,1.9,0.3,3.3,1,4.3c0.7,1,1.7,1.5,3,1.5c0.7,0,1.4-0.1,2.1-0.2v-3.6H107V276.4
			z"/>
		<path class="st0" d="M116.4,269.4c0-1.2,0.6-1.8,1.8-1.8s1.8,0.6,1.8,1.8c0,0.6-0.1,1-0.4,1.3c-0.3,0.3-0.7,0.5-1.3,0.5
			C117,271.2,116.4,270.6,116.4,269.4z M119.8,286.2h-3.2v-13.3h3.2V286.2z"/>
		<path class="st0" d="M126,286.2l-4.5-13.3h3.4l2.3,7.6c0.3,1,0.4,1.9,0.5,2.7h0.1c0-0.8,0.2-1.7,0.5-2.7l2.3-7.6h3.4l-4.5,13.3
			H126z"/>
		<path class="st0" d="M141,286.4c-1.9,0-3.4-0.6-4.5-1.8c-1.1-1.2-1.6-2.9-1.6-5c0-2.2,0.5-4,1.5-5.2c1-1.2,2.4-1.8,4.1-1.8
			c1.7,0,3,0.5,3.9,1.6c0.9,1.1,1.4,2.6,1.4,4.5v1.8h-7.7c0,1,0.3,1.8,0.8,2.4c0.5,0.6,1.2,0.9,2.1,0.9c0.7,0,1.4-0.1,2-0.3
			c0.6-0.2,1.3-0.4,2-0.8v2.8c-0.6,0.3-1.2,0.6-1.8,0.7C142.7,286.3,141.9,286.4,141,286.4z M140.5,275.2c-0.7,0-1.2,0.2-1.6,0.7
			c-0.4,0.5-0.6,1.2-0.7,2.1h4.5c0-0.9-0.2-1.6-0.6-2.1C141.7,275.4,141.2,275.2,140.5,275.2z"/>
		<path class="st0" d="M159.5,286.4c-1.9,0-3.4-0.6-4.5-1.8c-1.1-1.2-1.6-2.9-1.6-5c0-2.2,0.5-4,1.5-5.2c1-1.2,2.4-1.8,4.1-1.8
			c1.7,0,3,0.5,3.9,1.6c0.9,1.1,1.4,2.6,1.4,4.5v1.8h-7.7c0,1,0.3,1.8,0.8,2.4c0.5,0.6,1.2,0.9,2.1,0.9c0.7,0,1.4-0.1,2-0.3
			c0.6-0.2,1.3-0.4,2-0.8v2.8c-0.6,0.3-1.2,0.6-1.8,0.7C161.2,286.3,160.4,286.4,159.5,286.4z M159,275.2c-0.7,0-1.2,0.2-1.6,0.7
			c-0.4,0.5-0.6,1.2-0.7,2.1h4.5c0-0.9-0.2-1.6-0.6-2.1C160.2,275.4,159.7,275.2,159,275.2z"/>
		<path class="st0" d="M177.6,286.2h-3.2v-7.8c0-1-0.1-1.7-0.4-2.2c-0.3-0.5-0.7-0.7-1.4-0.7c-0.8,0-1.4,0.3-1.8,1
			c-0.4,0.7-0.6,1.8-0.6,3.4v6.3h-3.2v-13.3h2.5l0.4,1.7h0.2c0.3-0.6,0.8-1.1,1.4-1.4c0.6-0.3,1.3-0.5,2.1-0.5c1.8,0,3,0.7,3.6,2
			h0.3c0.3-0.6,0.8-1.1,1.4-1.4c0.6-0.3,1.3-0.5,2.1-0.5c1.3,0,2.4,0.4,3.1,1.2c0.7,0.8,1,2,1,3.7v8.7h-3.3v-7.8
			c0-1-0.1-1.7-0.4-2.2c-0.3-0.5-0.7-0.7-1.4-0.7c-0.8,0-1.4,0.3-1.8,1c-0.4,0.6-0.6,1.6-0.6,3V286.2z"/>
		<path class="st0" d="M199.1,279.5c0,2.2-0.5,3.9-1.5,5.1c-1,1.2-2.4,1.8-4.3,1.8c-1.1,0-2.1-0.3-3-0.8c-0.9-0.6-1.5-1.4-2-2.4
			c-0.5-1.1-0.7-2.3-0.7-3.7c0-2.2,0.5-3.9,1.5-5.1c1-1.2,2.4-1.8,4.3-1.8c1.1,0,2.1,0.3,3,0.8c0.9,0.6,1.5,1.4,2,2.4
			C198.9,276.8,199.1,278.1,199.1,279.5z M190.9,279.5c0,1.3,0.2,2.3,0.6,3c0.4,0.7,1,1,1.9,1c0.9,0,1.5-0.3,1.9-1
			c0.4-0.7,0.6-1.7,0.6-3c0-1.3-0.2-2.3-0.6-3c-0.4-0.7-1-1-1.9-1c-0.9,0-1.5,0.3-1.9,1C191.1,277.1,190.9,278.1,190.9,279.5z"/>
		<path class="st0" d="M206.8,283.5c0.6,0,1.2-0.1,2-0.4v2.7c-0.8,0.4-1.8,0.6-3,0.6c-1.3,0-2.2-0.4-2.8-1.1
			c-0.6-0.7-0.9-1.8-0.9-3.3v-6.4h-1.6V274l1.8-1.2l0.9-2.8h2.1v2.8h3.3v2.7h-3.3v6.4c0,0.5,0.1,0.9,0.4,1.1
			C206,283.4,206.4,283.5,206.8,283.5z"/>
		<path class="st0" d="M211.1,269.4c0-1.2,0.6-1.8,1.8-1.8c1.2,0,1.8,0.6,1.8,1.8c0,0.6-0.1,1-0.4,1.3c-0.3,0.3-0.7,0.5-1.3,0.5
			C211.7,271.2,211.1,270.6,211.1,269.4z M214.5,286.2h-3.2v-13.3h3.2V286.2z"/>
		<path class="st0" d="M228.7,279.5c0,2.2-0.5,3.9-1.5,5.1c-1,1.2-2.4,1.8-4.3,1.8c-1.1,0-2.1-0.3-3-0.8c-0.9-0.6-1.5-1.4-2-2.4
			c-0.5-1.1-0.7-2.3-0.7-3.7c0-2.2,0.5-3.9,1.5-5.1c1-1.2,2.4-1.8,4.3-1.8c1.1,0,2.1,0.3,3,0.8c0.9,0.6,1.5,1.4,2,2.4
			C228.4,276.8,228.7,278.1,228.7,279.5z M220.4,279.5c0,1.3,0.2,2.3,0.6,3c0.4,0.7,1,1,1.9,1c0.9,0,1.5-0.3,1.9-1
			c0.4-0.7,0.6-1.7,0.6-3c0-1.3-0.2-2.3-0.6-3c-0.4-0.7-1-1-1.9-1c-0.9,0-1.5,0.3-1.9,1C220.6,277.1,220.4,278.1,220.4,279.5z"/>
		<path class="st0" d="M242.3,286.2h-3.2v-7.8c0-1-0.2-1.7-0.5-2.2c-0.3-0.5-0.8-0.7-1.5-0.7c-0.9,0-1.6,0.3-2,1s-0.6,1.8-0.6,3.4
			v6.3h-3.2v-13.3h2.5l0.4,1.7h0.2c0.4-0.6,0.9-1.1,1.5-1.5c0.6-0.3,1.4-0.5,2.2-0.5c1.4,0,2.4,0.4,3.1,1.3c0.7,0.8,1.1,2.1,1.1,3.6
			V286.2z"/>
		<path class="st0" d="M253.9,282.2c0,1.4-0.4,2.4-1.3,3.1c-0.8,0.7-2.1,1.1-3.8,1.1c-0.9,0-1.6-0.1-2.2-0.2
			c-0.6-0.1-1.2-0.3-1.7-0.6v-3c0.6,0.3,1.3,0.6,2,0.8c0.8,0.2,1.4,0.3,2,0.3c1.2,0,1.8-0.4,1.8-1.1c0-0.3-0.1-0.5-0.2-0.7
			c-0.2-0.2-0.4-0.4-0.8-0.6c-0.4-0.2-0.9-0.5-1.5-0.8c-0.9-0.4-1.6-0.8-2-1.2c-0.4-0.4-0.7-0.8-0.9-1.3c-0.2-0.5-0.3-1.1-0.3-1.7
			c0-1.2,0.4-2.1,1.2-2.8c0.8-0.6,2-1,3.5-1c1.4,0,2.8,0.4,4.2,1.1l-1,2.6c-0.6-0.3-1.2-0.5-1.7-0.7c-0.5-0.2-1-0.3-1.6-0.3
			c-1,0-1.4,0.3-1.4,0.9c0,0.3,0.2,0.6,0.5,0.8c0.3,0.2,1,0.6,2,1.1c0.9,0.4,1.6,0.8,2,1.2c0.4,0.4,0.8,0.8,1,1.3
			C253.8,281,253.9,281.5,253.9,282.2z"/>
		<path class="st0" d="M267.1,283.5c0.6,0,1.2-0.1,2-0.4v2.7c-0.8,0.4-1.8,0.6-3,0.6c-1.3,0-2.2-0.4-2.8-1.1
			c-0.6-0.7-0.9-1.8-0.9-3.3v-6.4h-1.6V274l1.8-1.2l0.9-2.8h2.1v2.8h3.3v2.7h-3.3v6.4c0,0.5,0.1,0.9,0.4,1.1
			C266.3,283.4,266.7,283.5,267.1,283.5z"/>
		<path class="st0" d="M282.3,279.5c0,2.2-0.5,3.9-1.5,5.1c-1,1.2-2.4,1.8-4.3,1.8c-1.1,0-2.1-0.3-3-0.8c-0.9-0.6-1.5-1.4-2-2.4
			c-0.5-1.1-0.7-2.3-0.7-3.7c0-2.2,0.5-3.9,1.5-5.1c1-1.2,2.4-1.8,4.3-1.8c1.1,0,2.1,0.3,3,0.8c0.9,0.6,1.5,1.4,2,2.4
			C282.1,276.8,282.3,278.1,282.3,279.5z M274.1,279.5c0,1.3,0.2,2.3,0.6,3c0.4,0.7,1,1,1.9,1c0.9,0,1.5-0.3,1.9-1
			c0.4-0.7,0.6-1.7,0.6-3c0-1.3-0.2-2.3-0.6-3c-0.4-0.7-1-1-1.9-1c-0.9,0-1.5,0.3-1.9,1C274.3,277.1,274.1,278.1,274.1,279.5z"/>
		<path class="st0" d="M289,272.8h3.5l2.2,7.5c0.2,0.7,0.3,1.4,0.4,2.3h0.1c0.1-0.8,0.2-1.6,0.5-2.3l2.2-7.5h3.5l-5,15.1
			c-0.5,1.4-1.1,2.4-2,3.1c-0.9,0.7-1.8,1-3,1c-0.6,0-1.1-0.1-1.6-0.2v-2.9c0.4,0.1,0.8,0.2,1.3,0.2c0.6,0,1.1-0.2,1.5-0.6
			c0.4-0.4,0.8-1,1-1.8l0.2-0.7L289,272.8z"/>
		<path class="st0" d="M313.8,279.5c0,2.2-0.5,3.9-1.5,5.1c-1,1.2-2.4,1.8-4.3,1.8c-1.1,0-2.1-0.3-3-0.8c-0.9-0.6-1.5-1.4-2-2.4
			c-0.5-1.1-0.7-2.3-0.7-3.7c0-2.2,0.5-3.9,1.5-5.1c1-1.2,2.4-1.8,4.3-1.8c1.1,0,2.1,0.3,3,0.8c0.9,0.6,1.5,1.4,2,2.4
			C313.6,276.8,313.8,278.1,313.8,279.5z M305.6,279.5c0,1.3,0.2,2.3,0.6,3c0.4,0.7,1,1,1.9,1c0.9,0,1.5-0.3,1.9-1
			c0.4-0.7,0.6-1.7,0.6-3c0-1.3-0.2-2.3-0.6-3c-0.4-0.7-1-1-1.9-1c-0.9,0-1.5,0.3-1.9,1C305.8,277.1,305.6,278.1,305.6,279.5z"/>
		<path class="st0" d="M324.9,286.2l-0.4-1.7h-0.2c-0.3,0.6-0.8,1.1-1.5,1.4c-0.6,0.3-1.4,0.5-2.2,0.5c-1.4,0-2.4-0.4-3.2-1.3
			c-0.7-0.8-1.1-2-1.1-3.6v-8.7h3.2v7.8c0,1,0.2,1.7,0.5,2.2c0.3,0.5,0.8,0.7,1.5,0.7c0.9,0,1.6-0.3,2-1c0.4-0.7,0.6-1.8,0.6-3.4
			v-6.3h3.2v13.3H324.9z"/>
		<path class="st0" d="M337.4,272.6c0.4,0,0.8,0,1.1,0.1l-0.2,3.4c-0.3-0.1-0.6-0.1-1-0.1c-1,0-1.8,0.3-2.4,0.9
			c-0.6,0.6-0.9,1.4-0.9,2.5v6.8h-3.2v-13.3h2.5l0.5,2.2h0.2c0.4-0.7,0.9-1.4,1.5-1.8C336,272.8,336.7,272.6,337.4,272.6z"/>
		<path class="st0" d="M357,286.2h-3.2v-7.8c0-1-0.1-1.7-0.4-2.2c-0.3-0.5-0.7-0.7-1.4-0.7c-0.8,0-1.4,0.3-1.8,1
			c-0.4,0.7-0.6,1.8-0.6,3.4v6.3h-3.2v-13.3h2.5l0.4,1.7h0.2c0.3-0.6,0.8-1.1,1.4-1.4c0.6-0.3,1.3-0.5,2.1-0.5c1.8,0,3,0.7,3.6,2
			h0.3c0.3-0.6,0.8-1.1,1.4-1.4c0.6-0.3,1.3-0.5,2.1-0.5c1.3,0,2.4,0.4,3.1,1.2c0.7,0.8,1,2,1,3.7v8.7h-3.3v-7.8
			c0-1-0.1-1.7-0.4-2.2c-0.3-0.5-0.7-0.7-1.4-0.7c-0.8,0-1.4,0.3-1.8,1c-0.4,0.6-0.6,1.6-0.6,3V286.2z"/>
		<path class="st0" d="M378.5,279.5c0,2.2-0.5,3.9-1.5,5.1c-1,1.2-2.4,1.8-4.3,1.8c-1.1,0-2.1-0.3-3-0.8c-0.9-0.6-1.5-1.4-2-2.4
			c-0.5-1.1-0.7-2.3-0.7-3.7c0-2.2,0.5-3.9,1.5-5.1c1-1.2,2.4-1.8,4.3-1.8c1.1,0,2.1,0.3,3,0.8c0.9,0.6,1.5,1.4,2,2.4
			C378.3,276.8,378.5,278.1,378.5,279.5z M370.3,279.5c0,1.3,0.2,2.3,0.6,3c0.4,0.7,1,1,1.9,1c0.9,0,1.5-0.3,1.9-1
			c0.4-0.7,0.6-1.7,0.6-3c0-1.3-0.2-2.3-0.6-3c-0.4-0.7-1-1-1.9-1c-0.9,0-1.5,0.3-1.9,1C370.5,277.1,370.3,278.1,370.3,279.5z"/>
		<path class="st0" d="M384.9,286.4c-1.4,0-2.5-0.6-3.3-1.8c-0.8-1.2-1.2-2.9-1.2-5.1c0-2.2,0.4-3.9,1.2-5.1
			c0.8-1.2,1.9-1.8,3.4-1.8c1.5,0,2.6,0.7,3.4,2h0.1c-0.2-1-0.2-1.9-0.2-2.7v-4.3h3.3v18.6h-2.5l-0.6-1.7h-0.1
			C387.6,285.7,386.4,286.4,384.9,286.4z M386.1,283.5c0.8,0,1.4-0.3,1.8-0.8c0.4-0.5,0.6-1.5,0.6-2.8v-0.4c0-1.4-0.2-2.5-0.6-3.1
			c-0.4-0.6-1-0.9-1.9-0.9c-0.7,0-1.3,0.3-1.7,1c-0.4,0.7-0.6,1.7-0.6,3s0.2,2.3,0.6,3C384.7,283.2,385.3,283.5,386.1,283.5z"/>
		<path class="st0" d="M400.3,286.4c-1.9,0-3.4-0.6-4.5-1.8c-1.1-1.2-1.6-2.9-1.6-5c0-2.2,0.5-4,1.5-5.2c1-1.2,2.4-1.8,4.1-1.8
			c1.7,0,3,0.5,3.9,1.6c0.9,1.1,1.4,2.6,1.4,4.5v1.8h-7.7c0,1,0.3,1.8,0.8,2.4c0.5,0.6,1.2,0.9,2.1,0.9c0.7,0,1.4-0.1,2-0.3
			c0.6-0.2,1.3-0.4,2-0.8v2.8c-0.6,0.3-1.2,0.6-1.8,0.7C402,286.3,401.2,286.4,400.3,286.4z M399.9,275.2c-0.7,0-1.2,0.2-1.6,0.7
			c-0.4,0.5-0.6,1.2-0.7,2.1h4.5c0-0.9-0.2-1.6-0.6-2.1C401.1,275.4,400.6,275.2,399.9,275.2z"/>
		<path class="st0" d="M411,286.2h-3.2v-18.6h3.2V286.2z"/>
		<path class="st0" d="M414,284.5c0-0.7,0.2-1.2,0.5-1.5c0.3-0.3,0.8-0.5,1.4-0.5c0.6,0,1,0.2,1.4,0.5c0.3,0.4,0.5,0.9,0.5,1.5
			c0,0.6-0.2,1.1-0.5,1.5c-0.3,0.4-0.8,0.5-1.4,0.5c-0.6,0-1.1-0.2-1.4-0.5C414.1,285.6,414,285.1,414,284.5z"/>
		<g>
			<path class="st3" d="M80.6,144.6c-5.9,0-10.6,4.8-10.6,10.6s4.8,10.6,10.6,10.6s10.6-4.8,10.6-10.6S86.4,144.6,80.6,144.6z
				 M86.6,153l-7.4,7.3c-0.2,0.2-0.5,0.2-0.7,0l-3.9-3.9c-0.2-0.2-0.2-0.5,0-0.7l1-1c0.2-0.2,0.5-0.2,0.7,0l2.6,2.6l6.1-6
				c0.2-0.2,0.5-0.2,0.7,0l1,1C86.8,152.5,86.8,152.8,86.6,153z"/>
			<path class="st4" d="M86.6,153l-7.4,7.3c-0.2,0.2-0.5,0.2-0.7,0l-3.9-3.9c-0.2-0.2-0.2-0.5,0-0.7l1-1c0.2-0.2,0.5-0.2,0.7,0
				l2.6,2.6l6.1-6c0.2-0.2,0.5-0.2,0.7,0l1,1C86.8,152.5,86.8,152.8,86.6,153z"/>
		</g>
		<g>
			<path class="st3" d="M80.6,186.5c-5.9,0-10.6,4.8-10.6,10.6s4.8,10.6,10.6,10.6s10.6-4.8,10.6-10.6S86.4,186.5,80.6,186.5z
				 M86.6,194.9l-7.4,7.3c-0.2,0.2-0.5,0.2-0.7,0l-3.9-3.9c-0.2-0.2-0.2-0.5,0-0.7l1-1c0.2-0.2,0.5-0.2,0.7,0l2.6,2.6l6.1-6
				c0.2-0.2,0.5-0.2,0.7,0l1,1C86.8,194.4,86.8,194.7,86.6,194.9z"/>
			<path class="st4" d="M86.6,194.9l-7.4,7.3c-0.2,0.2-0.5,0.2-0.7,0l-3.9-3.9c-0.2-0.2-0.2-0.5,0-0.7l1-1c0.2-0.2,0.5-0.2,0.7,0
				l2.6,2.6l6.1-6c0.2-0.2,0.5-0.2,0.7,0l1,1C86.8,194.4,86.8,194.7,86.6,194.9z"/>
		</g>
		<g>
			<path class="st3" d="M80.6,226.7c-5.9,0-10.6,4.8-10.6,10.6S74.7,248,80.6,248s10.6-4.8,10.6-10.6S86.4,226.7,80.6,226.7z
				 M86.6,235.1l-7.4,7.3c-0.2,0.2-0.5,0.2-0.7,0l-3.9-3.9c-0.2-0.2-0.2-0.5,0-0.7l1-1c0.2-0.2,0.5-0.2,0.7,0l2.6,2.6l6.1-6
				c0.2-0.2,0.5-0.2,0.7,0l1,1C86.8,234.6,86.8,234.9,86.6,235.1z"/>
			<path class="st4" d="M86.6,235.1l-7.4,7.3c-0.2,0.2-0.5,0.2-0.7,0l-3.9-3.9c-0.2-0.2-0.2-0.5,0-0.7l1-1c0.2-0.2,0.5-0.2,0.7,0
				l2.6,2.6l6.1-6c0.2-0.2,0.5-0.2,0.7,0l1,1C86.8,234.6,86.8,234.9,86.6,235.1z"/>
		</g>
		<g>
			<path class="st3" d="M80.6,266.9c-5.9,0-10.6,4.8-10.6,10.6s4.8,10.6,10.6,10.6s10.6-4.8,10.6-10.6S86.4,266.9,80.6,266.9z
				 M86.6,275.3l-7.4,7.3c-0.2,0.2-0.5,0.2-0.7,0l-3.9-3.9c-0.2-0.2-0.2-0.5,0-0.7l1-1c0.2-0.2,0.5-0.2,0.7,0l2.6,2.6l6.1-6
				c0.2-0.2,0.5-0.2,0.7,0l1,1C86.8,274.8,86.8,275.1,86.6,275.3z"/>
			<path class="st4" d="M86.6,275.3l-7.4,7.3c-0.2,0.2-0.5,0.2-0.7,0l-3.9-3.9c-0.2-0.2-0.2-0.5,0-0.7l1-1c0.2-0.2,0.5-0.2,0.7,0
				l2.6,2.6l6.1-6c0.2-0.2,0.5-0.2,0.7,0l1,1C86.8,274.8,86.8,275.1,86.6,275.3z"/>
		</g>
	</g>
</g>
</svg>
