<?xml version="1.0" encoding="utf-8"?>
<!-- Generator: Adobe Illustrator 25.4.1, SVG Export Plug-In . SVG Version: 6.00 Build 0)  -->
<svg version="1.1" id="Layer_1" xmlns="http://www.w3.org/2000/svg" xmlns:xlink="http://www.w3.org/1999/xlink" x="0px" y="0px"
	 viewBox="0 0 1920 61.7" style="enable-background:new 0 0 1920 61.7;" xml:space="preserve">
<style type="text/css">
	.st0{fill:#3367DB;}
	.st1{fill:#FFFFFF;}
</style>
<rect x="0.1" y="0.3" class="st0" width="1919.8" height="61.4"/>
<g>
	<path class="st1" d="M77.5,21.8c-5.1,0-9.2,4.1-9.2,9.2s4.1,9.2,9.2,9.2c5.1,0,9.2-4.1,9.2-9.2S82.6,21.8,77.5,21.8z M77.5,37
		c-3.3,0-6-2.7-6-6s2.7-6,6-6s6,2.7,6,6S80.8,37,77.5,37L77.5,37z M89.2,21.4c0,1.2-1,2.2-2.2,2.2c-1.2,0-2.2-1-2.2-2.2
		s1-2.2,2.2-2.2C88.3,19.2,89.2,20.2,89.2,21.4z M95.4,23.6c-0.1-2.9-0.8-5.4-2.9-7.6c-2.1-2.1-4.7-2.8-7.6-2.9
		c-3-0.2-11.9-0.2-14.9,0c-2.9,0.1-5.4,0.8-7.6,2.9s-2.8,4.7-2.9,7.6c-0.2,3-0.2,11.9,0,14.9c0.1,2.9,0.8,5.4,2.9,7.6
		c2.1,2.1,4.7,2.8,7.6,2.9c3,0.2,11.9,0.2,14.9,0c2.9-0.1,5.4-0.8,7.6-2.9c2.1-2.1,2.8-4.7,2.9-7.6C95.5,35.5,95.5,26.5,95.4,23.6
		L95.4,23.6z M91.5,41.6c-0.6,1.6-1.8,2.8-3.4,3.4c-2.4,0.9-8,0.7-10.6,0.7s-8.3,0.2-10.6-0.7c-1.6-0.6-2.8-1.8-3.4-3.4
		c-0.9-2.4-0.7-8-0.7-10.6s-0.2-8.3,0.7-10.6c0.6-1.6,1.8-2.8,3.4-3.4c2.4-0.9,8-0.7,10.6-0.7s8.3-0.2,10.6,0.7
		c1.6,0.6,2.8,1.8,3.4,3.4c0.9,2.4,0.7,8,0.7,10.6S92.5,39.3,91.5,41.6z"/>
	<g>
		<path class="st1" d="M102,21.6c0-1.3,0.6-2,1.9-2c1.2,0,1.9,0.7,1.9,2c0,0.6-0.2,1.1-0.5,1.5c-0.3,0.3-0.8,0.5-1.4,0.5
			C102.6,23.6,102,23,102,21.6z M105.6,40.2h-3.4V25.5h3.4V40.2z"/>
		<path class="st1" d="M116.2,25.2c0.5,0,0.8,0,1.2,0.1l-0.3,3.8c-0.3-0.1-0.6-0.1-1-0.1c-1.1,0-1.9,0.3-2.6,1
			c-0.6,0.7-0.9,1.6-0.9,2.8v7.5h-3.4V25.5h2.6l0.5,2.5h0.2c0.4-0.8,0.9-1.5,1.6-2C114.7,25.4,115.4,25.2,116.2,25.2z"/>
		<path class="st1" d="M126.5,28.5h-3v11.8h-3.4V28.5h-1.9v-1.9l1.9-1.1v-1.1c0-1.7,0.4-2.9,1.1-3.7c0.7-0.8,1.8-1.2,3.4-1.2
			c1.2,0,2.2,0.2,3.2,0.6l-0.9,3c-0.7-0.3-1.3-0.4-1.9-0.4c-0.5,0-0.8,0.2-1.1,0.5c-0.2,0.3-0.3,0.8-0.3,1.3v0.9h3V28.5z"/>
		<path class="st1" d="M136.5,40.2l-0.7-2h-0.1c-0.6,0.9-1.2,1.4-1.8,1.8c-0.6,0.3-1.4,0.5-2.4,0.5c-1.2,0-2.2-0.4-2.8-1.2
			c-0.7-0.8-1-2-1-3.5c0-1.6,0.5-2.7,1.4-3.5c0.9-0.7,2.3-1.2,4.2-1.2l2.2-0.1v-0.6c0-1.5-0.7-2.2-2-2.2c-1,0-2.2,0.4-3.5,1.1
			l-1.1-2.7c1.4-0.9,3-1.3,4.8-1.3c1.7,0,3,0.4,3.9,1.3c0.9,0.9,1.3,2.2,1.3,3.9v9.9H136.5z M135.5,33.4l-1.3,0.1
			c-1,0-1.7,0.2-2.2,0.6c-0.5,0.4-0.7,1-0.7,1.8c0,1.1,0.6,1.7,1.7,1.7c0.8,0,1.4-0.3,1.9-0.8c0.5-0.5,0.7-1.3,0.7-2.1V33.4z"/>
		<path class="st1" d="M154,40.2h-3.4v-8.6c0-1.1-0.2-1.9-0.5-2.4c-0.3-0.5-0.8-0.8-1.5-0.8c-1,0-1.6,0.4-2.1,1.1
			c-0.4,0.8-0.6,2-0.6,3.7v7h-3.4V25.5h2.6l0.5,1.9h0.2c0.4-0.7,0.9-1.3,1.6-1.6s1.4-0.5,2.3-0.5c1.5,0,2.6,0.5,3.3,1.4
			c0.8,0.9,1.1,2.3,1.1,4V40.2z"/>
		<path class="st1" d="M165.2,44.5h-9.5v-1.9h9.5V44.5z"/>
		<path class="st1" d="M170.4,40.2h-3.4V19.7h3.4V40.2z"/>
		<path class="st1" d="M179.6,40.5c-2,0-3.6-0.7-4.7-2c-1.1-1.3-1.7-3.2-1.7-5.6c0-2.5,0.5-4.4,1.6-5.7c1.1-1.4,2.5-2,4.4-2
			c1.8,0,3.2,0.6,4.1,1.8c1,1.2,1.5,2.8,1.5,4.9v2h-8.1c0,1.1,0.3,2,0.9,2.7s1.3,1,2.3,1c0.8,0,1.5-0.1,2.1-0.3
			c0.7-0.2,1.4-0.5,2.1-0.9v3.1c-0.6,0.4-1.2,0.6-1.9,0.8C181.4,40.4,180.6,40.5,179.6,40.5z M179.1,28.1c-0.7,0-1.3,0.3-1.7,0.8
			c-0.4,0.5-0.6,1.3-0.7,2.3h4.8c0-1-0.2-1.8-0.7-2.3C180.4,28.3,179.9,28.1,179.1,28.1z"/>
		<path class="st1" d="M196.3,35.9c0,1.5-0.4,2.7-1.3,3.5c-0.9,0.8-2.2,1.2-4,1.2c-0.9,0-1.7-0.1-2.3-0.2c-0.6-0.1-1.2-0.4-1.8-0.6
			v-3.3c0.6,0.4,1.4,0.6,2.1,0.9c0.8,0.2,1.5,0.4,2.1,0.4c1.2,0,1.9-0.4,1.9-1.3c0-0.3-0.1-0.6-0.2-0.8c-0.2-0.2-0.4-0.4-0.9-0.7
			c-0.4-0.3-0.9-0.5-1.6-0.9c-1-0.5-1.7-0.9-2.1-1.3c-0.5-0.4-0.8-0.9-1-1.4c-0.2-0.5-0.3-1.2-0.3-1.9c0-1.3,0.4-2.3,1.3-3
			c0.9-0.7,2.1-1.1,3.7-1.1c1.5,0,3,0.4,4.4,1.2l-1,2.9c-0.6-0.3-1.2-0.6-1.8-0.8s-1.1-0.3-1.7-0.3c-1,0-1.5,0.3-1.5,1
			c0,0.4,0.2,0.7,0.5,0.9c0.3,0.3,1,0.7,2.1,1.2c1,0.5,1.7,0.9,2.2,1.3c0.5,0.4,0.8,0.9,1,1.4S196.3,35.1,196.3,35.9z"/>
		<path class="st1" d="M210.5,40.2h-3.4v-8.6c0-1.1-0.2-1.9-0.5-2.4c-0.3-0.5-0.8-0.8-1.5-0.8c-1,0-1.6,0.4-2.1,1.1
			c-0.4,0.8-0.6,2-0.6,3.7v7h-3.4V25.5h2.6l0.5,1.9h0.2c0.4-0.7,0.9-1.3,1.6-1.6s1.4-0.5,2.3-0.5c1.5,0,2.6,0.5,3.3,1.4
			c0.8,0.9,1.1,2.3,1.1,4V40.2z"/>
		<path class="st1" d="M222,40.2l-0.7-2h-0.1c-0.6,0.9-1.2,1.4-1.8,1.8c-0.6,0.3-1.4,0.5-2.4,0.5c-1.2,0-2.2-0.4-2.8-1.2
			c-0.7-0.8-1-2-1-3.5c0-1.6,0.5-2.7,1.4-3.5c0.9-0.7,2.3-1.2,4.2-1.2L221,31v-0.6c0-1.5-0.7-2.2-2-2.2c-1,0-2.2,0.4-3.5,1.1
			l-1.1-2.7c1.4-0.9,3-1.3,4.8-1.3c1.7,0,3,0.4,3.9,1.3c0.9,0.9,1.3,2.2,1.3,3.9v9.9H222z M221,33.4l-1.3,0.1c-1,0-1.7,0.2-2.2,0.6
			c-0.5,0.4-0.7,1-0.7,1.8c0,1.1,0.6,1.7,1.7,1.7c0.8,0,1.4-0.3,1.9-0.8c0.5-0.5,0.7-1.3,0.7-2.1V33.4z"/>
		<path class="st1" d="M234.9,25.2c0.5,0,0.8,0,1.2,0.1l-0.3,3.8c-0.3-0.1-0.6-0.1-1-0.1c-1.1,0-1.9,0.3-2.6,1
			c-0.6,0.7-0.9,1.6-0.9,2.8v7.5h-3.4V25.5h2.6l0.5,2.5h0.2c0.4-0.8,0.9-1.5,1.6-2C233.4,25.4,234.2,25.2,234.9,25.2z"/>
	</g>
</g>
</svg>
